M48
METRIC,LZ,000.000
;FILE_FORMAT=3:3
;TYPE=PLATED
;Layer: PTH_Through
;EasyEDA v6.5.44, 2024-08-23 15:43:18
;30d174a4fb68472d9a5c4a5b8d6f4b16,2865ae9118a24060a17af6d01c9bcc73,10
;Gerber Generator version 0.2
;Holesize 1 = 0.305 mm
T01C0.305
;Holesize 2 = 0.306 mm
T02C0.306
;Holesize 3 = 0.310 mm
T03C0.310
;Holesize 4 = 0.356 mm
T04C0.356
;Holesize 5 = 0.357 mm
T05C0.357
;Holesize 6 = 0.400 mm
T06C0.400
;Holesize 7 = 1.021 mm
T07C1.021
;Holesize 8 = 1.200 mm
T08C1.200
;Holesize 9 = 1.501 mm
T09C1.501
;Holesize 10 = 2.200 mm
T10C2.200
;Holesize 11 = 3.000 mm
T11C3.000
%
G05
G90
T01
X000304Y-004924
X001828Y-003400
X001828Y-006448
X003352Y-004924
X001842Y-004953
X-005016Y-021018
X-004381Y-020129
X-003492Y-020129
X-004000Y-021018
X-002984Y-021018
X-004508Y-024066
X-003492Y-024066
X-004000Y-024955
X-003111Y-024955
X-002476Y-024066
X-003492Y006795
X-004508Y006795
X-005524Y006795
X-003683Y009716
X-004699Y009716
X-004191Y010605
X-005080Y010605
X-005715Y009716
X004953Y004763
X010761Y-024355
T02
X-025589Y-011740
X-025589Y-014916
X-024001Y-013328
X-027177Y-013328
X-024466Y-012205
X-026712Y-012205
X-026712Y-014451
X-024466Y-014451
X-025589Y-004740
X-025589Y-007916
X-024001Y-006328
X-027177Y-006328
X-024466Y-005205
X-026712Y-005205
X-026712Y-007451
X-024466Y-007451
X-025589Y002260
X-025589Y-000916
X-024001Y000672
X-027177Y000672
X-024466Y001795
X-026712Y001795
X-026712Y-000451
X-024466Y-000451
T03
X-013843Y014097
X-005876Y-026768
X008954Y010097
X022191Y-006448
X022191Y-021688
X017111Y-006448
X017111Y-021688
X011557Y002350
X012031Y-006448
X012031Y-021688
X017111Y-016608
X022191Y-011528
X022191Y-016608
X006951Y-016608
X006951Y-021688
X009906Y009017
X001871Y008792
X001871Y-016608
X001871Y-021688
X001871Y-026768
X017111Y-011528
X000445Y015304
X-000733Y011523
X-002032Y-004635
X007112Y006731
X006287Y-013525
X008763Y-005651
X004763Y-006858
X-006921Y-011176
X-006921Y-012065
X-006921Y-012954
X-006731Y-008890
X-007620Y-008890
X-008509Y-008890
X-006921Y002477
X-006921Y003302
X-006921Y004128
X-001714Y002350
X-002984Y003620
X-003048Y000699
X-026606Y010287
X-026670Y007303
X-019939Y006858
X-014351Y009843
X009462Y-009906
X004318Y-000952
X005207Y-001905
X006287Y-003048
X007557Y-024447
X012002Y-024955
X007938Y001842
X-009461Y010414
X008001Y004953
X-001270Y009017
X007938Y-000317
X-010858Y013526
X012954Y-018097
X005462Y-014286
X008128Y-008763
X015748Y009779
X016701Y005461
X013145Y013780
X012891Y004128
X014732Y002921
X008954Y014732
X011685Y012320
X-012890Y013272
X003874Y011557
X006477Y012129
X015113Y-001714
X-006805Y-026768
X-021844Y007938
X018606Y-005143
T04
X-011303Y-006985
X-012890Y-007048
X-012065Y-006985
X-010287Y-000127
X-009906Y-000698
X-007645Y-000724
X-008001Y-001333
X-008382Y-001892
X-008064Y-000190
X-009144Y-001867
X-009855Y-001867
X-007645Y-001918
X-010223Y-001270
X-009525Y-000190
X-009144Y-000749
X-009525Y-001308
X-008763Y-000190
X-008433Y-000775
X-008763Y-001333
X-012827Y-008318
X-011303Y-008382
X-011620Y-007683
X-012065Y-008382
X-012391Y-007705
X-012446Y-009017
X-011620Y-009080
X-012890Y-009715
X-012065Y-009715
X-011366Y-009715
X-021018Y-001016
X-021018Y-000127
X-021018Y000889
X-021018Y001905
X-021653Y002413
X-021653Y001397
X-021653Y000381
X-021653Y-000508
X-021145Y-005524
X-021145Y-006413
X-021145Y-007429
X-021145Y-008445
X-021780Y-005016
X-021780Y-005905
X-021780Y-006921
X-021780Y-007937
X-022513Y-011528
X-020989Y-010639
X-020989Y-011655
X-022513Y-012544
X-022513Y-010639
X-021743Y-010085
X-021743Y-011101
X-021743Y-012117
X-022288Y-001016
X-022288Y-000127
X-022288Y000889
X-022288Y001905
X-022415Y-005524
X-022415Y-006413
X-022415Y-007429
X-022415Y-008445
X-023275Y-011020
X-023275Y-010131
X-020989Y-012544
X-024037Y-010639
X-011684Y005588
X-010194Y005236
X-009588Y006033
X-009271Y005271
X-008572Y006033
X-008255Y005271
X-007235Y-000170
X-006854Y-000742
X-007299Y-001313
X-006473Y-001313
X-006918Y-001885
X-012319Y-020383
X-013208Y-020383
X-014224Y-020383
X-011938Y-019621
X-012827Y-019621
X-013843Y-019621
X-013335Y-018986
X-012319Y-018986
X-014224Y-018986
X-011531Y-018976
X-014570Y-019616
X-007760Y006062
X-011303Y006287
X-012192Y006287
X-013017Y006287
X-013525Y005652
X-012573Y005588
X-015367Y004128
X-015430Y002731
X-014541Y004128
X-014541Y002731
X-015494Y-007683
X-014668Y-007683
X-015494Y-009080
X-014668Y-009080
X-015557Y-011938
X-014668Y-011938
X-014668Y-013271
X-015557Y-013271
X-013081Y-011239
X-012255Y-011239
X-011427Y-011189
X-011811Y-011747
X-012636Y-011747
X-013017Y-012319
X-012192Y-012319
X-011430Y-012382
X-011811Y-013017
X-012573Y-012954
X-013081Y-013525
X-012255Y-013589
X-011430Y-013525
X-015228Y-006851
X-014014Y-006841
X-014478Y-011049
X-015557Y-011049
X-011239Y004953
X-012065Y004953
X-012912Y004942
X-012412Y004285
X-011642Y004307
X-012848Y003672
X-012086Y003608
X-014478Y005652
X-011620Y002985
X-012446Y002985
X-012890Y002350
X-012065Y002350
X-015367Y005652
X-014897Y006334
X-013928Y006297
X-006981Y-005504
X-006537Y-004933
X-007362Y-004933
X-006918Y-004361
X-007299Y-003790
X-008826Y-004953
X-008496Y-004394
X-008826Y-003810
X-009588Y-004927
X-009207Y-004369
X-009588Y-003810
X-010287Y-004953
X-007709Y-005537
X-009919Y-005486
X-009207Y-005486
X-008128Y-003810
X-008445Y-005512
X-008064Y-004953
X-007709Y-004343
X-009969Y-004318
X-010287Y-003683
X-006854Y-018204
X-006410Y-017633
X-007235Y-017633
X-006791Y-017061
X-007172Y-016490
X-008699Y-017653
X-008369Y-017094
X-008699Y-016510
X-009461Y-017627
X-009080Y-017069
X-009461Y-016510
X-010223Y-017653
X-007582Y-018237
X-009792Y-018186
X-009080Y-018186
X-008001Y-016510
X-008318Y-018212
X-007937Y-017653
X-007582Y-017043
X-009842Y-017018
X-010223Y-016510
X-011274Y003705
X-011303Y002350
X-006350Y-016446
X-005969Y-017018
X-005588Y-017589
X-006032Y-018161
X-006413Y-003746
X-006032Y-004318
X-005651Y-004889
X-006096Y-005461
X-006350Y-000190
X-005969Y-000762
X-005588Y-001333
X-006032Y-001905
X-006477Y-006032
X-005588Y-005969
X-005270Y-018224
X-019398Y001849
X-019398Y000833
X-019398Y-000183
X-019398Y-001072
X-018763Y-000564
X-018763Y000325
X-018763Y001341
X-018763Y002357
X-018128Y001849
X-018128Y000833
X-018128Y-000183
X-018128Y-001072
X-018094Y-013018
X-018094Y-012002
X-018094Y-010986
X-018094Y-010097
X-018729Y-010605
X-018729Y-011494
X-018729Y-012510
X-019364Y-013018
X-019364Y-012002
X-019364Y-010986
X-019364Y-010097
X-023875Y004569
X-024383Y005204
X-024383Y003934
X-025399Y003934
X-024891Y004569
X-025399Y005204
X-025907Y004569
X-026415Y003934
X-027304Y003934
X-026796Y004569
X-026415Y005204
X-027304Y005204
X-022923Y-004191
X-023495Y-002603
X-023495Y-003683
X-022860Y-003111
X-024104Y-003124
X-021741Y-003178
X-021106Y-003686
X-021106Y-004702
X-021741Y-004194
X-022376Y-004702
X-022376Y-003686
X-022275Y-002569
X-021132Y-002569
X-023528Y-016543
X-025052Y-016543
X-024282Y-016116
X-023528Y-015654
X-025709Y-016083
X-026479Y-016510
X-024871Y-010121
X-021750Y-013060
X-013637Y-020973
X-012700Y-021082
T05
X-014097Y000191
X-013208Y000191
X-013208Y-001016
X-014160Y-001016
X-014097Y-003492
X-013144Y-003492
X-013144Y-004826
X-014097Y-004826
X-014287Y-016002
X-013208Y-016002
X-013208Y-017526
X-014287Y-017526
T06
X-005080Y001715
X-005269Y000128
X-005059Y-004083
X-005069Y-010413
X-005069Y-014350
X-005094Y-015790
T07
X019651Y000791
X019651Y003331
X019651Y005871
X019651Y008411
X019651Y010951
T08
X002505Y016158
X005045Y016158
X007585Y016158
X010125Y016158
X012665Y016158
X015205Y016158
X017745Y016158
X020285Y016158
X-001305Y016158
X-003845Y016158
X-006385Y016158
X-008925Y016158
X-011465Y016158
X-014005Y016158
X-016545Y016158
X-019085Y016158
X-021625Y016158
X-024165Y016158
X020285Y-031848
X017745Y-031848
X015205Y-031848
X012665Y-031848
X010125Y-031848
X007585Y-031848
X-015275Y-031848
X-012735Y-031848
X-010195Y-031848
X-007655Y-031848
X-005115Y-031848
X-002575Y-031848
X-000035Y-031848
X002505Y-031848
T09
X-020183Y-030222G85X-020178Y-030222
X-025183Y-030222G85X-025178Y-030222
T10
X-025589Y-013328
X-025589Y-006328
X-025589Y000672
T11
X023299Y-027388G85X023304Y-027388
X023299Y000612G85X023304Y000612
M30
