M48
METRIC,LZ,000.000
;FILE_FORMAT=3:3
;TYPE=PLATED
;Layer: PTH_Through_Via
;EasyEDA v6.5.57, 2026-08-14 15:25:13
;ebc703f97e3148f1b7392a4f0a1a7df2,2865ae9118a24060a17af6d01c9bcc73,10
;Gerber Generator version 0.2
;Holesize 1 = 0.305 mm
T01C0.305
;Holesize 2 = 0.310 mm
T02C0.310
;Holesize 3 = 0.356 mm
T03C0.356
;Holesize 4 = 0.357 mm
T04C0.357
%
G05
G90
T01
X-012904Y018383
X-011380Y019907
X-011380Y016859
X-009856Y018383
X-011367Y018354
X-018225Y002289
X-017590Y003178
X-016701Y003178
X-017209Y002289
X-016193Y002289
X-017717Y-000759
X-016701Y-000759
X-017209Y-001648
X-016320Y-001648
X-015685Y-000759
X-016701Y029848
X-017717Y029848
X-018733Y029848
X-017717Y033912
X-018606Y033912
X-008255Y028070
X-019495Y033912
X-019241Y030483
X-018225Y030483
X-017209Y030483
T02
X-027051Y037404
X-010613Y-003511
X-004255Y033404
X008982Y001619
X003902Y016859
X003902Y001619
X-000644Y023985
X000000Y019624
X-001178Y001619
X003302Y007557
X008982Y006699
X-006258Y006699
X-006258Y001619
X-003302Y032324
X-010931Y032113
X-011338Y006699
X-011338Y001619
X-012963Y-003384
X003902Y011779
X-012764Y038611
X-013208Y034420
X-015240Y018672
X-006096Y030038
X-004001Y009845
X-008446Y016449
X-020130Y012131
X-020130Y011242
X-020130Y010353
X-019939Y014417
X-020828Y014417
X-021717Y014417
X-020130Y025784
X-020130Y026609
X-020130Y027435
X-014923Y025657
X-016193Y026927
X-016256Y024006
X-041411Y029827
X-027809Y033662
X-008890Y022355
X-008001Y021402
X-006922Y020259
X-005271Y025149
X-020701Y033785
X-005207Y028260
X-014478Y032324
X-005271Y022990
X-024067Y036833
X-004191Y014227
X002540Y033086
X003928Y028874
X-000064Y037087
X-000318Y027435
X001524Y025847
X-004255Y038039
X-001914Y036367
X-009597Y034716
X-007303Y035499
X002341Y021064
X-000136Y015349
X-011312Y014523
X-003501Y017127
X-011375Y009380
X-033143Y032138
X-010613Y-004273
X-013526Y-006223
X-030286Y-001962
X-008248Y-005140
X-029905Y032836
X-034553Y035542
X-031632Y035542
X-041792Y039796
X-041919Y034589
X-039125Y039542
X-038236Y030271
X-037550Y035224
X-038236Y036812
X008754Y010967
X008373Y009888
X008259Y012961
X008195Y012008
X-031238Y030995
X-033397Y030296
X-033143Y033916
X-031111Y033916
X-030095Y-000755
X-009331Y004515
X005462Y006121
X000000Y000000
X-006410Y005722
X-006223Y002731
X-012573Y-001143
X-015606Y004397
X-013208Y001334
T03
X-024511Y016322
X-026099Y016259
X-025273Y016322
X-023495Y023180
X-023114Y022609
X-020853Y022583
X-021209Y021974
X-021590Y021415
X-021273Y023117
X-022352Y021440
X-023063Y021440
X-020853Y021390
X-023432Y022037
X-022733Y023117
X-022352Y022558
X-022733Y021999
X-021971Y023117
X-021641Y022533
X-021971Y021974
X-026035Y014989
X-024511Y014925
X-024829Y015624
X-025273Y014925
X-025599Y015602
X-025654Y014290
X-024829Y014227
X-026099Y013592
X-025273Y013592
X-024575Y013592
X-034227Y022291
X-034227Y023180
X-040196Y022162
X-036894Y026480
X-038100Y026353
X-033973Y026480
X-034862Y023688
X-034862Y022799
X-034354Y017783
X-034354Y016894
X-034354Y015878
X-034354Y014862
X-034989Y018291
X-034989Y017402
X-034989Y016386
X-034989Y015370
X-038546Y011758
X-037022Y012647
X-037022Y011631
X-038546Y010742
X-038546Y012647
X-037775Y013201
X-037775Y012185
X-037775Y011169
X-035497Y022291
X-035497Y023180
X-039116Y026543
X-036767Y028575
X-035624Y017783
X-035624Y016894
X-035624Y015878
X-035624Y014862
X-039308Y012266
X-039308Y013155
X-037022Y010742
X-040070Y012647
X-024892Y028895
X-023403Y028543
X-022797Y029340
X-022479Y028578
X-021781Y029340
X-021463Y028578
X-020443Y023137
X-020062Y022566
X-020507Y021994
X-019681Y021994
X-020126Y021423
X-025527Y002924
X-026416Y002924
X-027432Y002924
X-025146Y003686
X-026035Y003686
X-027051Y003686
X-026543Y004321
X-025527Y004321
X-027432Y004321
X-024740Y004331
X-027778Y003691
X-020968Y029369
X-024511Y029594
X-025400Y029594
X-026226Y029594
X-026734Y028959
X-025781Y028895
X-028575Y027435
X-028639Y026038
X-027750Y027435
X-027750Y026038
X-028702Y015624
X-027877Y015624
X-028702Y014227
X-027877Y014227
X-028766Y011369
X-027877Y011369
X-027877Y010036
X-028766Y010036
X-026289Y012068
X-025464Y012068
X-024635Y012118
X-025019Y011560
X-025845Y011560
X-026226Y010988
X-025400Y010988
X-024638Y010925
X-025019Y010290
X-025781Y010353
X-026289Y009782
X-025464Y009718
X-024638Y009782
X-028436Y016456
X-027222Y016466
X-027686Y012258
X-028766Y012258
X-024448Y028260
X-025273Y028260
X-026120Y028249
X-025620Y027592
X-024850Y027614
X-026057Y026979
X-025295Y026915
X-027686Y028959
X-024829Y026292
X-025654Y026292
X-026099Y025657
X-025273Y025657
X-028575Y028959
X-028105Y029641
X-027136Y029604
X-020189Y017803
X-019745Y018375
X-020570Y018375
X-020126Y018946
X-020507Y019518
X-022035Y018354
X-021704Y018913
X-022035Y019497
X-022797Y018380
X-022416Y018939
X-022797Y019497
X-023495Y018354
X-020917Y017770
X-023127Y017821
X-022416Y017821
X-021336Y019497
X-021654Y017796
X-021273Y018354
X-020917Y018964
X-023178Y018989
X-023495Y019624
X-020062Y005103
X-019618Y005675
X-020443Y005675
X-019999Y006246
X-020380Y006818
X-021908Y005654
X-021577Y006213
X-021908Y006797
X-022670Y005680
X-022289Y006239
X-022670Y006797
X-023432Y005654
X-020790Y005070
X-023000Y005121
X-022289Y005121
X-021209Y006797
X-021527Y005096
X-021146Y005654
X-020790Y006264
X-023051Y006289
X-023432Y006797
X-024482Y027012
X-024511Y025657
X-019558Y006861
X-019177Y006289
X-018796Y005718
X-019241Y005146
X-019622Y019561
X-019241Y018989
X-018860Y018418
X-019304Y017846
X-019558Y023117
X-019177Y022545
X-018796Y021974
X-019241Y021402
X-019685Y017275
X-018796Y017338
X-018479Y005083
X-029528Y022670
X-029528Y023686
X-032606Y023124
X-032606Y022235
X-031971Y022743
X-031971Y023632
X-030163Y023178
X-030163Y022162
X-030798Y022670
X-030798Y023686
X-031336Y023124
X-031336Y022235
X-029083Y007176
X-029083Y008192
X-031302Y012321
X-031302Y013210
X-031937Y012702
X-031937Y011813
X-029718Y007684
X-030353Y007176
X-030353Y008192
X-032572Y012321
X-032572Y013210
X-037083Y027876
X-037591Y028511
X-037591Y027241
X-038607Y027241
X-038099Y027876
X-038607Y028511
X-039115Y027876
X-039623Y027241
X-040512Y027241
X-040004Y027876
X-039623Y028511
X-040512Y028511
X-036132Y019116
X-036703Y020704
X-036703Y019624
X-036068Y020196
X-037313Y020183
X-034949Y020129
X-034314Y019621
X-034314Y018605
X-034949Y019113
X-035584Y018605
X-035584Y019621
X-035483Y020739
X-034340Y020739
X-036737Y006764
X-038261Y006764
X-037490Y007191
X-036737Y007653
X-038917Y007224
X-039688Y006797
X-040903Y013165
X-037783Y010226
X-026845Y002334
X-025908Y002225
X-039370Y008001
X-038418Y007811
X-040767Y006922
X-033909Y008954
X-034419Y011642
X-035943Y011769
X-035173Y012196
X-034419Y012658
X-035173Y013212
X-035943Y012658
X-036519Y013335
X-037084Y017973
X-037719Y015560
X-037719Y016576
X-037719Y017465
X-037084Y015052
X-037084Y016068
X-037084Y017084
X-036830Y018735
X-036449Y015560
X-036449Y016576
X-036449Y017465
X-039888Y020195
X-039279Y019636
X-039279Y020716
X-038707Y019128
X-038644Y020208
X-038160Y019633
X-038059Y020751
X-038160Y018617
X-037492Y019160
X-037399Y025730
X-037399Y024714
X-037399Y023698
X-037399Y022809
X-036764Y023317
X-036764Y024206
X-036764Y025222
X-036767Y022355
X-039370Y023178
X-039307Y022225
X-036129Y023698
X-036129Y022809
X-038020Y022355
X-038017Y025222
X-038017Y024206
X-038017Y023317
X-038652Y022809
X-038652Y023698
X-038652Y024714
X-038652Y025730
X-037788Y008383
X-037027Y008898
X-037780Y009325
X-038551Y008898
X-038551Y009914
X-037027Y009787
T04
X-027305Y023498
X-026416Y023498
X-026416Y022291
X-027369Y022291
X-027305Y019815
X-026353Y019815
X-026353Y018481
X-027305Y018481
X-027496Y007305
X-026416Y007305
X-026416Y005781
X-027496Y005781
M30
