G04 Layer: BottomLayer*
G04 EasyEDA v6.5.57, 2026-08-14 15:25:13*
G04 ebc703f97e3148f1b7392a4f0a1a7df2,2865ae9118a24060a17af6d01c9bcc73,10*
G04 Gerber Generator version 0.2*
G04 Scale: 100 percent, Rotated: No, Reflected: No *
G04 Dimensions in millimeters *
G04 leading zeros omitted , absolute positions ,4 integer and 5 decimal *
%FSLAX45Y45*%
%MOMM*%

%ADD10C,0.5000*%
%ADD11C,0.3000*%
%ADD12C,0.2540*%
%ADD13R,1.2500X1.2500*%
%ADD14C,4.0000*%
%ADD15C,0.0182*%
%ADD16C,0.6100*%
%ADD17R,1.8000X1.8000*%
%ADD18C,1.8000*%
%ADD19C,1.5748*%
%ADD20R,1.5748X1.5748*%
%ADD21C,3.2000*%
%ADD22C,0.6000*%
%ADD23C,0.6096*%
%ADD24C,0.6200*%

%LPD*%
G36*
X-3140456Y-147828D02*
G01*
X-4331411Y-139446D01*
X-4334764Y-138836D01*
X-4337761Y-137160D01*
X-4339996Y-134620D01*
X-4379366Y-70612D01*
X-4380484Y-68072D01*
X-4380890Y-65328D01*
X-4380890Y474573D01*
X-4380585Y477012D01*
X-4379722Y479298D01*
X-4327194Y579069D01*
X-4324959Y581964D01*
X-4321810Y583844D01*
X-4318203Y584504D01*
X-3379470Y584504D01*
X-3377590Y585266D01*
X-3328060Y647192D01*
X-3327400Y648716D01*
X-3324250Y1197864D01*
X-3323336Y1202029D01*
X-3320846Y1205433D01*
X-3317138Y1207516D01*
X-3312922Y1207922D01*
X-3308858Y1206550D01*
X-3305759Y1203655D01*
X-3300374Y1195882D01*
X-3293414Y1188974D01*
X-3285388Y1183335D01*
X-3276447Y1179169D01*
X-3266998Y1176629D01*
X-3257245Y1175766D01*
X-3253282Y1174597D01*
X-3250184Y1171956D01*
X-3248304Y1168298D01*
X-3246628Y1162050D01*
X-3242513Y1153160D01*
X-3236874Y1145082D01*
X-3229914Y1138174D01*
X-3221888Y1132535D01*
X-3212947Y1128369D01*
X-3203498Y1125829D01*
X-3193694Y1124966D01*
X-3183890Y1125829D01*
X-3174441Y1128369D01*
X-3165500Y1132535D01*
X-3157474Y1138174D01*
X-3150514Y1145082D01*
X-3144875Y1153160D01*
X-3140760Y1162050D01*
X-3139084Y1168298D01*
X-3137204Y1171956D01*
X-3134055Y1174597D01*
X-3130143Y1175766D01*
X-3120390Y1176629D01*
X-3110941Y1179169D01*
X-3102000Y1183335D01*
X-3093974Y1188974D01*
X-3087014Y1195882D01*
X-3081375Y1203960D01*
X-3077260Y1212850D01*
X-3074720Y1222349D01*
X-3073857Y1232103D01*
X-3074720Y1241907D01*
X-3077260Y1251407D01*
X-3081375Y1260297D01*
X-3090265Y1272692D01*
X-3091027Y1276553D01*
X-3090265Y1280464D01*
X-3081375Y1292860D01*
X-3077260Y1301750D01*
X-3074720Y1311249D01*
X-3073857Y1321003D01*
X-3074720Y1330807D01*
X-3077260Y1340307D01*
X-3081375Y1349197D01*
X-3087014Y1357274D01*
X-3093974Y1364183D01*
X-3102000Y1369822D01*
X-3110941Y1373987D01*
X-3120390Y1376527D01*
X-3130194Y1377391D01*
X-3139998Y1376527D01*
X-3149447Y1373987D01*
X-3158388Y1369822D01*
X-3166414Y1364183D01*
X-3173374Y1357274D01*
X-3179013Y1349197D01*
X-3183128Y1340307D01*
X-3183890Y1337564D01*
X-3185922Y1333652D01*
X-3189376Y1330960D01*
X-3193694Y1330045D01*
X-3198012Y1330960D01*
X-3201466Y1333652D01*
X-3203498Y1337564D01*
X-3204260Y1340307D01*
X-3208375Y1349197D01*
X-3214014Y1357274D01*
X-3220974Y1364183D01*
X-3229000Y1369822D01*
X-3237941Y1373987D01*
X-3247390Y1376527D01*
X-3257194Y1377391D01*
X-3266998Y1376527D01*
X-3276447Y1373987D01*
X-3285388Y1369822D01*
X-3293414Y1364183D01*
X-3300374Y1357274D01*
X-3304844Y1350822D01*
X-3307994Y1347927D01*
X-3312007Y1346555D01*
X-3316274Y1346962D01*
X-3319983Y1349095D01*
X-3322472Y1352550D01*
X-3323336Y1356715D01*
X-3318662Y2177796D01*
X-3317849Y2181656D01*
X-3315665Y2184958D01*
X-3312363Y2187143D01*
X-3308451Y2187905D01*
X-3304590Y2187092D01*
X-3301288Y2184908D01*
X-3296818Y2180386D01*
X-3288741Y2174748D01*
X-3279851Y2170633D01*
X-3270351Y2168093D01*
X-3260547Y2167229D01*
X-3250793Y2168093D01*
X-3241294Y2170633D01*
X-3232404Y2174748D01*
X-3224326Y2180386D01*
X-3217418Y2187346D01*
X-3211779Y2195372D01*
X-3207613Y2204313D01*
X-3206902Y2207056D01*
X-3204870Y2210917D01*
X-3201365Y2213610D01*
X-3197047Y2214575D01*
X-3192780Y2213610D01*
X-3189274Y2210917D01*
X-3187242Y2207056D01*
X-3186531Y2204313D01*
X-3182366Y2195372D01*
X-3176727Y2187346D01*
X-3169818Y2180386D01*
X-3161741Y2174748D01*
X-3152851Y2170633D01*
X-3143351Y2168093D01*
X-3133547Y2167229D01*
X-3123793Y2168093D01*
X-3114294Y2170633D01*
X-3105404Y2174748D01*
X-3097326Y2180386D01*
X-3090418Y2187346D01*
X-3085084Y2194915D01*
X-3081985Y2197811D01*
X-3078022Y2199182D01*
X-3073806Y2198827D01*
X-3070098Y2196795D01*
X-3067558Y2193391D01*
X-3065068Y2188006D01*
X-3059430Y2179929D01*
X-3052470Y2173020D01*
X-3044444Y2167382D01*
X-3035503Y2163216D01*
X-3026054Y2160676D01*
X-3016250Y2159812D01*
X-3006445Y2160676D01*
X-2996996Y2163216D01*
X-2988056Y2167382D01*
X-2980029Y2173020D01*
X-2973070Y2179929D01*
X-2967431Y2188006D01*
X-2963316Y2196896D01*
X-2961640Y2203145D01*
X-2959760Y2206802D01*
X-2956610Y2209444D01*
X-2952699Y2210612D01*
X-2942945Y2211476D01*
X-2933496Y2214016D01*
X-2924556Y2218182D01*
X-2916529Y2223820D01*
X-2909570Y2230729D01*
X-2903931Y2238806D01*
X-2899816Y2247696D01*
X-2897276Y2257196D01*
X-2896412Y2266950D01*
X-2897276Y2276754D01*
X-2899816Y2286254D01*
X-2903931Y2295144D01*
X-2909570Y2303221D01*
X-2916986Y2310587D01*
X-2919171Y2313889D01*
X-2919933Y2317750D01*
X-2919171Y2321661D01*
X-2916986Y2324963D01*
X-2909570Y2332329D01*
X-2903931Y2340406D01*
X-2899816Y2349296D01*
X-2897276Y2358796D01*
X-2896412Y2368550D01*
X-2897276Y2378354D01*
X-2899816Y2387854D01*
X-2903931Y2396744D01*
X-2909570Y2404821D01*
X-2916529Y2411730D01*
X-2924556Y2417368D01*
X-2933496Y2421534D01*
X-2942945Y2424074D01*
X-2952750Y2424938D01*
X-2962554Y2424074D01*
X-2972003Y2421534D01*
X-2980944Y2417368D01*
X-2988970Y2411730D01*
X-2995930Y2404821D01*
X-3001568Y2396744D01*
X-3005683Y2387854D01*
X-3006445Y2385110D01*
X-3008477Y2381199D01*
X-3011932Y2378506D01*
X-3016250Y2377592D01*
X-3020568Y2378506D01*
X-3024022Y2381199D01*
X-3026054Y2385110D01*
X-3026816Y2387854D01*
X-3030931Y2396744D01*
X-3036570Y2404821D01*
X-3043529Y2411730D01*
X-3051556Y2417368D01*
X-3060496Y2421534D01*
X-3069945Y2424074D01*
X-3079750Y2424938D01*
X-3089554Y2424074D01*
X-3099003Y2421534D01*
X-3107944Y2417368D01*
X-3115970Y2411730D01*
X-3122930Y2404821D01*
X-3128568Y2396744D01*
X-3130499Y2392629D01*
X-3133039Y2389225D01*
X-3136696Y2387193D01*
X-3140913Y2386838D01*
X-3144926Y2388209D01*
X-3148025Y2391054D01*
X-3153918Y2399487D01*
X-3160826Y2406446D01*
X-3168904Y2412085D01*
X-3177794Y2416200D01*
X-3187293Y2418740D01*
X-3197047Y2419604D01*
X-3206851Y2418740D01*
X-3216351Y2416200D01*
X-3225241Y2412085D01*
X-3233318Y2406446D01*
X-3240227Y2399487D01*
X-3245866Y2391460D01*
X-3250031Y2382520D01*
X-3251708Y2376322D01*
X-3253536Y2372614D01*
X-3256686Y2369972D01*
X-3260598Y2368804D01*
X-3270351Y2367940D01*
X-3279851Y2365400D01*
X-3288741Y2361285D01*
X-3296818Y2355646D01*
X-3300272Y2352192D01*
X-3303574Y2349957D01*
X-3307486Y2349195D01*
X-3311347Y2349957D01*
X-3314649Y2352192D01*
X-3316833Y2355494D01*
X-3317595Y2359406D01*
X-3314750Y2859938D01*
X-3313937Y2863799D01*
X-3311702Y2867101D01*
X-3178810Y2998825D01*
X-3175558Y3001010D01*
X-3171698Y3001772D01*
X-2099716Y3003854D01*
X-2095855Y3003042D01*
X-2092502Y3000857D01*
X-2047697Y2956001D01*
X-2045462Y2952699D01*
X-2044700Y2948838D01*
X-2044700Y2862224D01*
X-2045563Y2858160D01*
X-2047951Y2854756D01*
X-2418537Y2509266D01*
X-2419350Y2507538D01*
X-2419350Y362204D01*
X-2420162Y258114D01*
X-2420823Y254609D01*
X-2422652Y251561D01*
X-2425395Y249326D01*
X-2951276Y-43891D01*
X-2954832Y-45059D01*
X-2958592Y-44907D01*
X-2961995Y-43383D01*
X-2971952Y-32816D01*
X-2979724Y-27076D01*
X-2988310Y-22758D01*
X-2997555Y-19913D01*
X-3007106Y-18694D01*
X-3016758Y-19100D01*
X-3026156Y-21132D01*
X-3035147Y-24739D01*
X-3043326Y-29768D01*
X-3050590Y-36169D01*
X-3056636Y-43688D01*
X-3061360Y-52069D01*
X-3064560Y-61163D01*
X-3066186Y-70713D01*
X-3066186Y-80314D01*
X-3064560Y-89865D01*
X-3062325Y-96113D01*
X-3061766Y-99618D01*
X-3062427Y-103124D01*
X-3064205Y-106121D01*
X-3066948Y-108407D01*
X-3135426Y-146558D01*
X-3137865Y-147523D01*
G37*

%LPC*%
G36*
X-2747111Y521309D02*
G01*
X-2737561Y522579D01*
X-2728366Y525373D01*
X-2719730Y529742D01*
X-2711958Y535482D01*
X-2705303Y542442D01*
X-2704033Y544322D01*
X-2701340Y547014D01*
X-2697886Y548538D01*
X-2694127Y548690D01*
X-2690571Y547471D01*
X-2687675Y545033D01*
X-2682646Y538784D01*
X-2675432Y532434D01*
X-2667203Y527354D01*
X-2658262Y523798D01*
X-2648813Y521766D01*
X-2639161Y521309D01*
X-2629611Y522579D01*
X-2620416Y525373D01*
X-2611780Y529742D01*
X-2604008Y535482D01*
X-2597353Y542442D01*
X-2591968Y550418D01*
X-2587955Y559206D01*
X-2585567Y568553D01*
X-2584704Y578154D01*
X-2585567Y587756D01*
X-2587955Y597103D01*
X-2591968Y605891D01*
X-2597353Y613867D01*
X-2604008Y620826D01*
X-2611780Y626567D01*
X-2620416Y630936D01*
X-2629611Y633730D01*
X-2639161Y635000D01*
X-2648813Y634542D01*
X-2658262Y632510D01*
X-2667203Y628954D01*
X-2675432Y623874D01*
X-2682646Y617524D01*
X-2687675Y611276D01*
X-2690571Y608838D01*
X-2694127Y607618D01*
X-2697886Y607771D01*
X-2701340Y609295D01*
X-2704033Y611987D01*
X-2705303Y613867D01*
X-2711958Y620826D01*
X-2719730Y626567D01*
X-2728366Y630936D01*
X-2737561Y633730D01*
X-2747111Y635000D01*
X-2756763Y634542D01*
X-2766212Y632510D01*
X-2775153Y628954D01*
X-2783382Y623874D01*
X-2790596Y617524D01*
X-2796692Y610006D01*
X-2801366Y601573D01*
X-2804566Y592480D01*
X-2806192Y582980D01*
X-2806192Y573328D01*
X-2804566Y563829D01*
X-2801366Y554736D01*
X-2796692Y546303D01*
X-2790596Y538784D01*
X-2783382Y532434D01*
X-2775153Y527354D01*
X-2766212Y523798D01*
X-2756763Y521766D01*
G37*
G36*
X-3035300Y661212D02*
G01*
X-3025495Y662076D01*
X-3016046Y664616D01*
X-3007106Y668782D01*
X-2999079Y674420D01*
X-2992120Y681329D01*
X-2986481Y689406D01*
X-2982366Y698296D01*
X-2981604Y701040D01*
X-2979572Y704951D01*
X-2976118Y707644D01*
X-2971800Y708558D01*
X-2967482Y707644D01*
X-2964027Y704951D01*
X-2961995Y701040D01*
X-2961233Y698296D01*
X-2957118Y689406D01*
X-2951480Y681329D01*
X-2944520Y674420D01*
X-2936494Y668782D01*
X-2927553Y664616D01*
X-2918104Y662076D01*
X-2908300Y661212D01*
X-2898495Y662076D01*
X-2889046Y664616D01*
X-2880106Y668782D01*
X-2872079Y674420D01*
X-2865120Y681329D01*
X-2859481Y689406D01*
X-2855366Y698296D01*
X-2852826Y707796D01*
X-2851962Y717550D01*
X-2852826Y727354D01*
X-2855366Y736854D01*
X-2859481Y745744D01*
X-2865120Y753821D01*
X-2872536Y761187D01*
X-2874721Y764489D01*
X-2875483Y768350D01*
X-2874721Y772261D01*
X-2872536Y775563D01*
X-2865120Y782929D01*
X-2859481Y791006D01*
X-2855366Y799896D01*
X-2852826Y809396D01*
X-2851962Y819150D01*
X-2852826Y828954D01*
X-2855366Y838453D01*
X-2859481Y847344D01*
X-2865120Y855421D01*
X-2872079Y862330D01*
X-2880106Y867968D01*
X-2889046Y872134D01*
X-2898495Y874674D01*
X-2908300Y875537D01*
X-2918104Y874674D01*
X-2927553Y872134D01*
X-2936494Y867968D01*
X-2944520Y862330D01*
X-2951480Y855421D01*
X-2957118Y847344D01*
X-2961233Y838453D01*
X-2961995Y835710D01*
X-2964027Y831799D01*
X-2967482Y829106D01*
X-2971800Y828192D01*
X-2976118Y829106D01*
X-2979572Y831799D01*
X-2981604Y835710D01*
X-2982366Y838453D01*
X-2986481Y847344D01*
X-2992120Y855421D01*
X-2999079Y862330D01*
X-3007106Y867968D01*
X-3016046Y872134D01*
X-3025495Y874674D01*
X-3035300Y875537D01*
X-3045104Y874674D01*
X-3054553Y872134D01*
X-3063494Y867968D01*
X-3071520Y862330D01*
X-3078480Y855421D01*
X-3084118Y847344D01*
X-3088233Y838453D01*
X-3090773Y828954D01*
X-3091637Y819150D01*
X-3090773Y809396D01*
X-3088233Y799896D01*
X-3084118Y791006D01*
X-3078480Y782929D01*
X-3071063Y775563D01*
X-3068878Y772261D01*
X-3068116Y768350D01*
X-3068878Y764489D01*
X-3071063Y761187D01*
X-3078480Y753821D01*
X-3084118Y745744D01*
X-3088233Y736854D01*
X-3090773Y727354D01*
X-3091637Y717550D01*
X-3090773Y707796D01*
X-3088233Y698296D01*
X-3084118Y689406D01*
X-3078480Y681329D01*
X-3071520Y674420D01*
X-3063494Y668782D01*
X-3054553Y664616D01*
X-3045104Y662076D01*
G37*
G36*
X-2747111Y673709D02*
G01*
X-2737561Y674979D01*
X-2728366Y677773D01*
X-2719730Y682142D01*
X-2711958Y687882D01*
X-2705303Y694842D01*
X-2704033Y696722D01*
X-2701340Y699414D01*
X-2697886Y700938D01*
X-2694127Y701090D01*
X-2690571Y699871D01*
X-2687675Y697433D01*
X-2682646Y691184D01*
X-2675432Y684834D01*
X-2667203Y679754D01*
X-2658262Y676198D01*
X-2648813Y674166D01*
X-2639161Y673709D01*
X-2629611Y674979D01*
X-2620416Y677773D01*
X-2611780Y682142D01*
X-2604008Y687882D01*
X-2597353Y694842D01*
X-2591968Y702818D01*
X-2587955Y711606D01*
X-2585567Y720953D01*
X-2584704Y730554D01*
X-2585567Y740156D01*
X-2587955Y749503D01*
X-2591968Y758291D01*
X-2597353Y766267D01*
X-2604008Y773226D01*
X-2611780Y778967D01*
X-2620416Y783336D01*
X-2629611Y786130D01*
X-2639161Y787400D01*
X-2648813Y786942D01*
X-2658262Y784910D01*
X-2667203Y781354D01*
X-2675432Y776274D01*
X-2682646Y769924D01*
X-2687675Y763676D01*
X-2690571Y761238D01*
X-2694127Y760018D01*
X-2697886Y760171D01*
X-2701340Y761695D01*
X-2704033Y764387D01*
X-2705303Y766267D01*
X-2711958Y773226D01*
X-2719730Y778967D01*
X-2728366Y783336D01*
X-2737561Y786130D01*
X-2747111Y787400D01*
X-2756763Y786942D01*
X-2766212Y784910D01*
X-2775153Y781354D01*
X-2783382Y776274D01*
X-2790596Y769924D01*
X-2796692Y762406D01*
X-2801366Y753973D01*
X-2804566Y744880D01*
X-2806192Y735380D01*
X-2806192Y725728D01*
X-2804566Y716229D01*
X-2801366Y707136D01*
X-2796692Y698703D01*
X-2790596Y691184D01*
X-2783382Y684834D01*
X-2775153Y679754D01*
X-2766212Y676198D01*
X-2756763Y674166D01*
G37*
G36*
X-2728061Y1791309D02*
G01*
X-2718511Y1792579D01*
X-2709316Y1795373D01*
X-2700680Y1799742D01*
X-2692908Y1805482D01*
X-2690317Y1808175D01*
X-2687167Y1810410D01*
X-2683408Y1811274D01*
X-2679598Y1810715D01*
X-2676296Y1808784D01*
X-2669082Y1802434D01*
X-2660853Y1797354D01*
X-2651912Y1793798D01*
X-2642463Y1791766D01*
X-2632811Y1791309D01*
X-2623261Y1792579D01*
X-2614066Y1795373D01*
X-2605430Y1799742D01*
X-2597658Y1805482D01*
X-2591003Y1812442D01*
X-2585618Y1820418D01*
X-2581605Y1829206D01*
X-2579217Y1838553D01*
X-2578354Y1848154D01*
X-2579217Y1857756D01*
X-2581605Y1867103D01*
X-2585618Y1875891D01*
X-2591003Y1883867D01*
X-2597658Y1890826D01*
X-2605430Y1896567D01*
X-2614066Y1900936D01*
X-2623261Y1903730D01*
X-2631084Y1904746D01*
X-2635046Y1906117D01*
X-2636621Y1907590D01*
X-2638450Y1906016D01*
X-2641650Y1904746D01*
X-2651912Y1902510D01*
X-2660853Y1898954D01*
X-2669082Y1893874D01*
X-2676296Y1887524D01*
X-2679598Y1885594D01*
X-2683408Y1885035D01*
X-2687167Y1885899D01*
X-2690317Y1888134D01*
X-2692908Y1890826D01*
X-2700680Y1896567D01*
X-2709316Y1900936D01*
X-2718511Y1903730D01*
X-2726334Y1904746D01*
X-2730296Y1906117D01*
X-2731871Y1907590D01*
X-2733700Y1906016D01*
X-2736900Y1904746D01*
X-2747162Y1902510D01*
X-2756103Y1898954D01*
X-2764332Y1893874D01*
X-2771546Y1887524D01*
X-2777642Y1880006D01*
X-2782316Y1871573D01*
X-2785516Y1862480D01*
X-2787142Y1852980D01*
X-2787142Y1843328D01*
X-2785516Y1833829D01*
X-2782316Y1824736D01*
X-2777642Y1816303D01*
X-2771546Y1808784D01*
X-2764332Y1802434D01*
X-2756103Y1797354D01*
X-2747162Y1793798D01*
X-2737713Y1791766D01*
G37*
G36*
X-2731871Y1922068D02*
G01*
X-2730296Y1923542D01*
X-2726334Y1924913D01*
X-2718511Y1925929D01*
X-2709316Y1928723D01*
X-2700680Y1933092D01*
X-2692908Y1938832D01*
X-2690317Y1941525D01*
X-2687167Y1943760D01*
X-2683408Y1944624D01*
X-2679598Y1944065D01*
X-2676296Y1942134D01*
X-2669082Y1935784D01*
X-2660853Y1930704D01*
X-2651912Y1927148D01*
X-2641650Y1924913D01*
X-2638450Y1923643D01*
X-2636621Y1922068D01*
X-2635046Y1923542D01*
X-2631084Y1924913D01*
X-2623261Y1925929D01*
X-2614066Y1928723D01*
X-2605430Y1933092D01*
X-2597658Y1938832D01*
X-2591003Y1945792D01*
X-2585618Y1953768D01*
X-2581605Y1962556D01*
X-2579217Y1971903D01*
X-2578354Y1981504D01*
X-2579217Y1991106D01*
X-2581605Y2000453D01*
X-2585618Y2009241D01*
X-2591003Y2017217D01*
X-2597658Y2024176D01*
X-2605430Y2029917D01*
X-2614066Y2034286D01*
X-2623261Y2037080D01*
X-2632811Y2038350D01*
X-2642463Y2037892D01*
X-2651912Y2035860D01*
X-2660853Y2032304D01*
X-2669082Y2027224D01*
X-2676296Y2020874D01*
X-2679598Y2018944D01*
X-2683408Y2018385D01*
X-2687167Y2019249D01*
X-2690317Y2021484D01*
X-2692908Y2024176D01*
X-2700680Y2029917D01*
X-2709316Y2034286D01*
X-2718511Y2037080D01*
X-2728061Y2038350D01*
X-2737713Y2037892D01*
X-2747162Y2035860D01*
X-2756103Y2032304D01*
X-2764332Y2027224D01*
X-2771546Y2020874D01*
X-2777642Y2013356D01*
X-2782316Y2004923D01*
X-2785516Y1995830D01*
X-2787142Y1986330D01*
X-2787142Y1976678D01*
X-2785516Y1967179D01*
X-2782316Y1958086D01*
X-2777642Y1949653D01*
X-2771546Y1942134D01*
X-2764332Y1935784D01*
X-2756103Y1930704D01*
X-2747162Y1927148D01*
X-2736900Y1924913D01*
X-2733700Y1923643D01*
G37*
G36*
X-2734411Y2172309D02*
G01*
X-2724861Y2173579D01*
X-2715666Y2176373D01*
X-2707030Y2180742D01*
X-2699258Y2186482D01*
X-2696667Y2189175D01*
X-2693517Y2191410D01*
X-2689758Y2192274D01*
X-2685948Y2191715D01*
X-2682646Y2189784D01*
X-2675432Y2183434D01*
X-2667203Y2178354D01*
X-2658262Y2174798D01*
X-2648813Y2172766D01*
X-2639161Y2172309D01*
X-2629611Y2173579D01*
X-2620416Y2176373D01*
X-2611780Y2180742D01*
X-2604008Y2186482D01*
X-2597353Y2193442D01*
X-2591968Y2201418D01*
X-2587955Y2210206D01*
X-2585567Y2219553D01*
X-2584704Y2229154D01*
X-2585567Y2238756D01*
X-2587955Y2248103D01*
X-2591968Y2256891D01*
X-2597353Y2264867D01*
X-2604008Y2271826D01*
X-2611780Y2277567D01*
X-2617368Y2280412D01*
X-2620822Y2283256D01*
X-2622702Y2287270D01*
X-2622702Y2291689D01*
X-2620822Y2295702D01*
X-2617368Y2298547D01*
X-2611780Y2301392D01*
X-2604008Y2307132D01*
X-2597353Y2314092D01*
X-2591968Y2322068D01*
X-2587955Y2330856D01*
X-2585567Y2340203D01*
X-2584704Y2349804D01*
X-2585567Y2359406D01*
X-2587955Y2368753D01*
X-2591968Y2377541D01*
X-2597353Y2385517D01*
X-2604008Y2392476D01*
X-2611780Y2398217D01*
X-2620416Y2402586D01*
X-2629611Y2405380D01*
X-2639161Y2406650D01*
X-2648813Y2406192D01*
X-2658262Y2404160D01*
X-2667203Y2400604D01*
X-2675432Y2395524D01*
X-2679192Y2392222D01*
X-2682138Y2390394D01*
X-2685491Y2389682D01*
X-2688894Y2390140D01*
X-2691993Y2391714D01*
X-2700731Y2398268D01*
X-2709316Y2402586D01*
X-2718511Y2405380D01*
X-2728061Y2406650D01*
X-2737713Y2406192D01*
X-2747162Y2404160D01*
X-2756103Y2400604D01*
X-2764332Y2395524D01*
X-2771546Y2389174D01*
X-2777642Y2381656D01*
X-2782316Y2373223D01*
X-2785516Y2364130D01*
X-2787142Y2354630D01*
X-2787142Y2344978D01*
X-2785516Y2335479D01*
X-2782316Y2326386D01*
X-2777642Y2317953D01*
X-2771546Y2310434D01*
X-2764332Y2304084D01*
X-2757017Y2299563D01*
X-2753817Y2296464D01*
X-2752293Y2292299D01*
X-2752648Y2287879D01*
X-2754884Y2284018D01*
X-2758541Y2281529D01*
X-2762453Y2279954D01*
X-2770682Y2274874D01*
X-2777896Y2268524D01*
X-2783992Y2261006D01*
X-2788666Y2252573D01*
X-2791866Y2243480D01*
X-2793492Y2233980D01*
X-2793492Y2224328D01*
X-2791866Y2214829D01*
X-2788666Y2205736D01*
X-2783992Y2197303D01*
X-2777896Y2189784D01*
X-2770682Y2183434D01*
X-2762453Y2178354D01*
X-2753512Y2174798D01*
X-2744063Y2172766D01*
G37*

%LPD*%
G36*
X809345Y-1044549D02*
G01*
X-4186936Y-1041095D01*
X-4190695Y-1040384D01*
X-4193946Y-1038250D01*
X-4353001Y-885342D01*
X-4355287Y-881989D01*
X-4356100Y-878027D01*
X-4354271Y-174701D01*
X-4353356Y-170586D01*
X-4350867Y-167132D01*
X-4347210Y-165049D01*
X-4342993Y-164642D01*
X-4336745Y-165303D01*
X-3136595Y-173736D01*
X-3130499Y-172669D01*
X-3124657Y-170180D01*
X-3089605Y-150672D01*
X-3085439Y-149402D01*
X-3081121Y-150012D01*
X-3077464Y-152349D01*
X-3075127Y-156006D01*
X-3074517Y-160324D01*
X-3075787Y-164490D01*
X-3080410Y-172720D01*
X-3083610Y-181813D01*
X-3085236Y-191363D01*
X-3085236Y-200964D01*
X-3083610Y-210515D01*
X-3080410Y-219608D01*
X-3075686Y-227990D01*
X-3069640Y-235508D01*
X-3062376Y-241909D01*
X-3054197Y-246938D01*
X-3045206Y-250545D01*
X-3035808Y-252577D01*
X-3026156Y-252984D01*
X-3016605Y-251764D01*
X-3007360Y-248920D01*
X-2998774Y-244602D01*
X-2991002Y-238861D01*
X-2984296Y-231902D01*
X-2978912Y-223875D01*
X-2974949Y-215087D01*
X-2972511Y-205790D01*
X-2971698Y-196189D01*
X-2972511Y-186537D01*
X-2974949Y-177241D01*
X-2978912Y-168452D01*
X-2984296Y-160426D01*
X-2991002Y-153466D01*
X-2998114Y-148234D01*
X-3001010Y-144881D01*
X-3002178Y-140563D01*
X-3001467Y-136194D01*
X-2998876Y-132537D01*
X-2995015Y-130352D01*
X-2988310Y-128270D01*
X-2979724Y-123952D01*
X-2971952Y-118211D01*
X-2965246Y-111252D01*
X-2959862Y-103225D01*
X-2955899Y-94437D01*
X-2953461Y-85140D01*
X-2953004Y-79654D01*
X-2952191Y-76454D01*
X-2950413Y-73660D01*
X-2947822Y-71628D01*
X-2408072Y229311D01*
X-2402941Y232968D01*
X-2399080Y237337D01*
X-2396286Y242417D01*
X-2394661Y248107D01*
X-2394305Y252374D01*
X-2393442Y362305D01*
X-2393442Y2492857D01*
X-2392629Y2496921D01*
X-2390241Y2500274D01*
X-2027478Y2838450D01*
X-2023313Y2843276D01*
X-2020620Y2848406D01*
X-2019096Y2854198D01*
X-2018792Y2858160D01*
X-2018792Y2952750D01*
X-2019452Y2958795D01*
X-2021382Y2964281D01*
X-2024481Y2969209D01*
X-2026615Y2971546D01*
X-2077008Y3021939D01*
X-2081733Y3025749D01*
X-2086965Y3028289D01*
X-2092604Y3029559D01*
X-2095855Y3029762D01*
X-3097377Y3027781D01*
X-3101746Y3028797D01*
X-3105302Y3031591D01*
X-3107283Y3035604D01*
X-3107334Y3040126D01*
X-3105454Y3044190D01*
X-3101949Y3047034D01*
X-3094024Y3051048D01*
X-3086252Y3056788D01*
X-3079546Y3063748D01*
X-3074162Y3071774D01*
X-3070199Y3080562D01*
X-3067761Y3089859D01*
X-3066948Y3099460D01*
X-3067761Y3109112D01*
X-3070199Y3118408D01*
X-3074162Y3127197D01*
X-3079546Y3135223D01*
X-3086252Y3142183D01*
X-3094024Y3147923D01*
X-3102610Y3152241D01*
X-3111855Y3155086D01*
X-3121406Y3156305D01*
X-3131058Y3155899D01*
X-3140456Y3153867D01*
X-3149447Y3150260D01*
X-3157626Y3145231D01*
X-3164890Y3138830D01*
X-3170936Y3131312D01*
X-3175660Y3122930D01*
X-3178860Y3113836D01*
X-3180486Y3104286D01*
X-3180486Y3094685D01*
X-3178860Y3085134D01*
X-3175660Y3076041D01*
X-3170936Y3067659D01*
X-3164890Y3060141D01*
X-3157626Y3053740D01*
X-3149447Y3048711D01*
X-3145891Y3047288D01*
X-3142589Y3045104D01*
X-3140354Y3041853D01*
X-3139541Y3037941D01*
X-3140303Y3034030D01*
X-3142488Y3030728D01*
X-3145790Y3028492D01*
X-3149701Y3027680D01*
X-3175660Y3027680D01*
X-3181705Y3026968D01*
X-3187192Y3025038D01*
X-3192068Y3021939D01*
X-3194304Y3019958D01*
X-3318967Y2896412D01*
X-3322370Y2894177D01*
X-3326384Y2893466D01*
X-3330346Y2894380D01*
X-3333597Y2896768D01*
X-3339287Y2906166D01*
X-3363976Y2937052D01*
X-3368497Y2941523D01*
X-3373374Y2944571D01*
X-3378860Y2946501D01*
X-3385312Y2947212D01*
X-4330293Y2940862D01*
X-4334764Y2940304D01*
X-4339031Y2940710D01*
X-4342739Y2942793D01*
X-4345279Y2946247D01*
X-4346143Y2950413D01*
X-4343400Y3996385D01*
X-4342587Y4000398D01*
X-4340148Y4003801D01*
X-4181246Y4150512D01*
X-4178046Y4152493D01*
X-4174337Y4153204D01*
X843229Y4149750D01*
X847140Y4148988D01*
X850442Y4146753D01*
X958748Y4038447D01*
X960983Y4035145D01*
X961745Y4031234D01*
X961745Y2868066D01*
X962456Y2866339D01*
X1250848Y2577947D01*
X1253083Y2574645D01*
X1253845Y2570734D01*
X1253845Y-570433D01*
X1253083Y-574344D01*
X1250848Y-577646D01*
X962456Y-866038D01*
X961745Y-867765D01*
X961745Y-913333D01*
X960983Y-917244D01*
X958748Y-920546D01*
X837742Y-1041552D01*
X834440Y-1043787D01*
X830529Y-1044549D01*
G37*

%LPC*%
G36*
X-2937713Y-969975D02*
G01*
X-2758846Y-969975D01*
X-2752496Y-969264D01*
X-2747060Y-967333D01*
X-2742133Y-964285D01*
X-2738069Y-960170D01*
X-2734970Y-955294D01*
X-2733090Y-949807D01*
X-2732379Y-943508D01*
X-2732379Y-764641D01*
X-2733090Y-758291D01*
X-2734970Y-752856D01*
X-2738069Y-747928D01*
X-2742133Y-743864D01*
X-2747060Y-740765D01*
X-2752496Y-738886D01*
X-2758846Y-738174D01*
X-2937713Y-738174D01*
X-2944012Y-738886D01*
X-2949498Y-740765D01*
X-2954375Y-743864D01*
X-2958490Y-747928D01*
X-2961538Y-752856D01*
X-2963468Y-758291D01*
X-2964180Y-764641D01*
X-2964180Y-943508D01*
X-2963468Y-949807D01*
X-2961538Y-955294D01*
X-2958490Y-960170D01*
X-2954375Y-964285D01*
X-2949498Y-967333D01*
X-2944012Y-969264D01*
G37*
G36*
X-651713Y-969975D02*
G01*
X-472846Y-969975D01*
X-466496Y-969264D01*
X-461060Y-967333D01*
X-456133Y-964285D01*
X-452069Y-960170D01*
X-448970Y-955294D01*
X-447090Y-949807D01*
X-446379Y-943508D01*
X-446379Y-764641D01*
X-447090Y-758291D01*
X-448970Y-752856D01*
X-452069Y-747928D01*
X-456133Y-743864D01*
X-461060Y-740765D01*
X-466496Y-738886D01*
X-472846Y-738174D01*
X-511200Y-738174D01*
X-515061Y-737362D01*
X-518363Y-735177D01*
X-520547Y-731875D01*
X-521360Y-728014D01*
X-521360Y-650849D01*
X-522173Y-642416D01*
X-524510Y-634746D01*
X-528269Y-627684D01*
X-533654Y-621080D01*
X-572973Y-581710D01*
X-575157Y-578408D01*
X-575919Y-574497D01*
X-575157Y-570636D01*
X-572973Y-567334D01*
X-569671Y-565150D01*
X-565759Y-564388D01*
X-458774Y-564388D01*
X-452475Y-563676D01*
X-447852Y-562051D01*
X-444500Y-561492D01*
X-441147Y-562051D01*
X-436575Y-563626D01*
X-430225Y-564337D01*
X-419354Y-564337D01*
X-415493Y-565150D01*
X-412191Y-567334D01*
X-409956Y-570636D01*
X-409194Y-574497D01*
X-409194Y-665988D01*
X-408381Y-674420D01*
X-406044Y-682091D01*
X-402285Y-689152D01*
X-398830Y-693369D01*
X-397103Y-696417D01*
X-396494Y-699820D01*
X-396494Y-775614D01*
X-397103Y-779068D01*
X-398830Y-782116D01*
X-402031Y-785926D01*
X-409803Y-798220D01*
X-416001Y-811377D01*
X-420522Y-825246D01*
X-423265Y-839520D01*
X-424180Y-854049D01*
X-423265Y-868578D01*
X-420522Y-882903D01*
X-416001Y-896721D01*
X-409803Y-909878D01*
X-402031Y-922172D01*
X-392734Y-933399D01*
X-382117Y-943356D01*
X-370382Y-951890D01*
X-357632Y-958900D01*
X-344068Y-964285D01*
X-329996Y-967892D01*
X-315518Y-969721D01*
X-300990Y-969721D01*
X-286562Y-967892D01*
X-272440Y-964285D01*
X-258927Y-958900D01*
X-246176Y-951890D01*
X-234391Y-943356D01*
X-223774Y-933399D01*
X-214528Y-922172D01*
X-206705Y-909878D01*
X-200507Y-896721D01*
X-196037Y-882903D01*
X-193294Y-868578D01*
X-192379Y-854049D01*
X-193294Y-839520D01*
X-196037Y-825246D01*
X-200507Y-811377D01*
X-206705Y-798220D01*
X-214528Y-785926D01*
X-223774Y-774750D01*
X-234391Y-764743D01*
X-246176Y-756208D01*
X-258927Y-749198D01*
X-272440Y-743864D01*
X-286562Y-740206D01*
X-300990Y-738378D01*
X-304546Y-738378D01*
X-308406Y-737616D01*
X-311708Y-735431D01*
X-313944Y-732129D01*
X-314706Y-728218D01*
X-314706Y-679653D01*
X-315518Y-671169D01*
X-317855Y-663498D01*
X-321614Y-656437D01*
X-325069Y-652272D01*
X-326796Y-649224D01*
X-327406Y-645820D01*
X-327406Y-574497D01*
X-326593Y-570636D01*
X-324408Y-567334D01*
X-321106Y-565150D01*
X-317246Y-564337D01*
X-306374Y-564337D01*
X-300075Y-563626D01*
X-294589Y-561746D01*
X-289712Y-558647D01*
X-285597Y-554532D01*
X-282498Y-549656D01*
X-280619Y-544169D01*
X-279908Y-537870D01*
X-279908Y-414020D01*
X-280619Y-407670D01*
X-282498Y-402234D01*
X-285597Y-397306D01*
X-289712Y-393242D01*
X-294589Y-390144D01*
X-300075Y-388264D01*
X-306374Y-387553D01*
X-430225Y-387553D01*
X-436575Y-388264D01*
X-441198Y-389839D01*
X-444550Y-390448D01*
X-447903Y-389839D01*
X-452475Y-388264D01*
X-458774Y-387553D01*
X-469544Y-387553D01*
X-473405Y-386791D01*
X-476707Y-384556D01*
X-478891Y-381254D01*
X-479704Y-377393D01*
X-479704Y-368401D01*
X-480466Y-360172D01*
X-482752Y-352450D01*
X-486511Y-345389D01*
X-491845Y-338785D01*
X-535330Y-294792D01*
X-541883Y-289356D01*
X-548944Y-285546D01*
X-556564Y-283159D01*
X-565302Y-282295D01*
X-748436Y-282295D01*
X-756920Y-283108D01*
X-764590Y-285445D01*
X-771652Y-289204D01*
X-778205Y-294640D01*
X-853440Y-369874D01*
X-858875Y-376428D01*
X-862634Y-383489D01*
X-864971Y-391160D01*
X-865784Y-399643D01*
X-865784Y-470916D01*
X-866394Y-474268D01*
X-868070Y-477316D01*
X-871931Y-482092D01*
X-876655Y-490524D01*
X-879856Y-499618D01*
X-881481Y-509117D01*
X-881481Y-518769D01*
X-879856Y-528269D01*
X-876655Y-537362D01*
X-871931Y-545795D01*
X-865886Y-553313D01*
X-858621Y-559663D01*
X-850442Y-564743D01*
X-841451Y-568299D01*
X-832053Y-570331D01*
X-822401Y-570788D01*
X-812850Y-569518D01*
X-803605Y-566724D01*
X-795020Y-562356D01*
X-787247Y-556615D01*
X-784148Y-553415D01*
X-780796Y-551078D01*
X-776833Y-550265D01*
X-772871Y-551078D01*
X-769518Y-553364D01*
X-764336Y-558698D01*
X-759510Y-561746D01*
X-754075Y-563626D01*
X-747725Y-564337D01*
X-710082Y-564337D01*
X-706170Y-565150D01*
X-702868Y-567334D01*
X-606145Y-664311D01*
X-603910Y-667562D01*
X-603148Y-671474D01*
X-603148Y-728014D01*
X-603910Y-731875D01*
X-606145Y-735177D01*
X-609447Y-737362D01*
X-613308Y-738174D01*
X-651713Y-738174D01*
X-658012Y-738886D01*
X-663498Y-740765D01*
X-668375Y-743864D01*
X-672490Y-747928D01*
X-675538Y-752856D01*
X-677468Y-758291D01*
X-678180Y-764641D01*
X-678180Y-943508D01*
X-677468Y-949807D01*
X-675538Y-955294D01*
X-672490Y-960170D01*
X-668375Y-964285D01*
X-663498Y-967333D01*
X-658012Y-969264D01*
G37*
G36*
X-2601518Y-969721D02*
G01*
X-2586990Y-969721D01*
X-2572562Y-967892D01*
X-2558440Y-964285D01*
X-2544927Y-958900D01*
X-2532176Y-951890D01*
X-2520391Y-943356D01*
X-2509774Y-933399D01*
X-2500528Y-922172D01*
X-2492705Y-909878D01*
X-2486507Y-896721D01*
X-2482037Y-882903D01*
X-2479294Y-868578D01*
X-2478379Y-854049D01*
X-2479294Y-839520D01*
X-2482037Y-825246D01*
X-2486507Y-811377D01*
X-2492705Y-798220D01*
X-2500528Y-785926D01*
X-2509774Y-774750D01*
X-2520391Y-764743D01*
X-2532176Y-756208D01*
X-2544927Y-749198D01*
X-2558440Y-743864D01*
X-2572562Y-740206D01*
X-2586990Y-738378D01*
X-2601518Y-738378D01*
X-2615996Y-740206D01*
X-2630068Y-743864D01*
X-2643632Y-749198D01*
X-2656382Y-756208D01*
X-2668117Y-764743D01*
X-2678734Y-774750D01*
X-2688031Y-785926D01*
X-2695803Y-798220D01*
X-2702001Y-811377D01*
X-2706522Y-825246D01*
X-2709265Y-839520D01*
X-2710180Y-854049D01*
X-2709265Y-868578D01*
X-2706522Y-882903D01*
X-2702001Y-896721D01*
X-2695803Y-909878D01*
X-2688031Y-922172D01*
X-2678734Y-933399D01*
X-2668117Y-943356D01*
X-2656382Y-951890D01*
X-2643632Y-958900D01*
X-2630068Y-964285D01*
X-2615996Y-967892D01*
G37*
G36*
X-1077518Y-969721D02*
G01*
X-1062990Y-969721D01*
X-1048562Y-967892D01*
X-1034440Y-964285D01*
X-1020927Y-958900D01*
X-1008176Y-951890D01*
X-996391Y-943356D01*
X-985774Y-933399D01*
X-976528Y-922172D01*
X-968705Y-909878D01*
X-962507Y-896721D01*
X-958037Y-882903D01*
X-955294Y-868578D01*
X-954379Y-854049D01*
X-955294Y-839520D01*
X-958037Y-825246D01*
X-962507Y-811377D01*
X-968705Y-798220D01*
X-976528Y-785926D01*
X-985774Y-774750D01*
X-996391Y-764743D01*
X-1008176Y-756208D01*
X-1020927Y-749198D01*
X-1034440Y-743864D01*
X-1048562Y-740206D01*
X-1062990Y-738378D01*
X-1077518Y-738378D01*
X-1091996Y-740206D01*
X-1106068Y-743864D01*
X-1119632Y-749198D01*
X-1132382Y-756208D01*
X-1144117Y-764743D01*
X-1154734Y-774750D01*
X-1164031Y-785926D01*
X-1171803Y-798220D01*
X-1178001Y-811377D01*
X-1182522Y-825246D01*
X-1185265Y-839520D01*
X-1186180Y-854049D01*
X-1185265Y-868578D01*
X-1182522Y-882903D01*
X-1178001Y-896721D01*
X-1171803Y-909878D01*
X-1164031Y-922172D01*
X-1154734Y-933399D01*
X-1144117Y-943356D01*
X-1132382Y-951890D01*
X-1119632Y-958900D01*
X-1106068Y-964285D01*
X-1091996Y-967892D01*
G37*
G36*
X-2347518Y-969721D02*
G01*
X-2332990Y-969721D01*
X-2318562Y-967892D01*
X-2304440Y-964285D01*
X-2290927Y-958900D01*
X-2278176Y-951890D01*
X-2266391Y-943356D01*
X-2255774Y-933399D01*
X-2246528Y-922172D01*
X-2238705Y-909878D01*
X-2232507Y-896721D01*
X-2228037Y-882903D01*
X-2225294Y-868578D01*
X-2224379Y-854049D01*
X-2225294Y-839520D01*
X-2228037Y-825246D01*
X-2232507Y-811377D01*
X-2238705Y-798220D01*
X-2246528Y-785926D01*
X-2255774Y-774750D01*
X-2266391Y-764743D01*
X-2278176Y-756208D01*
X-2290927Y-749198D01*
X-2304440Y-743864D01*
X-2318562Y-740206D01*
X-2332990Y-738378D01*
X-2347518Y-738378D01*
X-2361996Y-740206D01*
X-2376068Y-743864D01*
X-2389632Y-749198D01*
X-2402382Y-756208D01*
X-2414117Y-764743D01*
X-2424734Y-774750D01*
X-2434031Y-785926D01*
X-2441803Y-798220D01*
X-2448001Y-811377D01*
X-2452522Y-825246D01*
X-2455265Y-839520D01*
X-2456180Y-854049D01*
X-2455265Y-868578D01*
X-2452522Y-882903D01*
X-2448001Y-896721D01*
X-2441803Y-909878D01*
X-2434031Y-922172D01*
X-2424734Y-933399D01*
X-2414117Y-943356D01*
X-2402382Y-951890D01*
X-2389632Y-958900D01*
X-2376068Y-964285D01*
X-2361996Y-967892D01*
G37*
G36*
X-2093518Y-969721D02*
G01*
X-2078989Y-969721D01*
X-2064562Y-967892D01*
X-2050440Y-964285D01*
X-2036927Y-958900D01*
X-2024176Y-951890D01*
X-2012391Y-943356D01*
X-2001774Y-933399D01*
X-1992528Y-922172D01*
X-1984705Y-909878D01*
X-1978507Y-896721D01*
X-1974037Y-882903D01*
X-1971293Y-868578D01*
X-1970379Y-854049D01*
X-1971293Y-839520D01*
X-1974037Y-825246D01*
X-1978507Y-811377D01*
X-1984705Y-798220D01*
X-1992528Y-785926D01*
X-2001774Y-774750D01*
X-2009648Y-767334D01*
X-2011984Y-763981D01*
X-2012848Y-759968D01*
X-2012848Y-693318D01*
X-2011934Y-689051D01*
X-2009292Y-685596D01*
X-2005482Y-683514D01*
X-2001164Y-683260D01*
X-1997100Y-684784D01*
X-1989988Y-691997D01*
X-1985060Y-695096D01*
X-1979625Y-697026D01*
X-1972411Y-697738D01*
X-1968550Y-698500D01*
X-1965248Y-700684D01*
X-1963013Y-703986D01*
X-1962251Y-707898D01*
X-1962251Y-774750D01*
X-1962048Y-779373D01*
X-1961489Y-783793D01*
X-1960524Y-788111D01*
X-1959203Y-792378D01*
X-1957476Y-796442D01*
X-1955444Y-800404D01*
X-1953056Y-804164D01*
X-1950364Y-807618D01*
X-1945893Y-812444D01*
X-1943912Y-815441D01*
X-1943150Y-818946D01*
X-1943607Y-822502D01*
X-1944522Y-825246D01*
X-1947265Y-839520D01*
X-1948180Y-854049D01*
X-1947265Y-868578D01*
X-1944522Y-882903D01*
X-1940001Y-896721D01*
X-1933803Y-909878D01*
X-1926031Y-922172D01*
X-1916734Y-933399D01*
X-1906117Y-943356D01*
X-1894382Y-951890D01*
X-1881632Y-958900D01*
X-1868068Y-964285D01*
X-1853996Y-967892D01*
X-1839518Y-969721D01*
X-1824989Y-969721D01*
X-1810562Y-967892D01*
X-1796440Y-964285D01*
X-1782927Y-958900D01*
X-1770176Y-951890D01*
X-1758391Y-943356D01*
X-1747774Y-933399D01*
X-1738528Y-922172D01*
X-1730705Y-909878D01*
X-1724507Y-896721D01*
X-1720037Y-882903D01*
X-1717293Y-868578D01*
X-1716379Y-854049D01*
X-1717293Y-839520D01*
X-1720037Y-825246D01*
X-1724507Y-811377D01*
X-1730705Y-798220D01*
X-1738528Y-785926D01*
X-1747774Y-774750D01*
X-1758391Y-764743D01*
X-1770176Y-756208D01*
X-1782927Y-749198D01*
X-1796440Y-743864D01*
X-1810562Y-740206D01*
X-1824989Y-738378D01*
X-1839518Y-738378D01*
X-1849018Y-739597D01*
X-1853285Y-739241D01*
X-1856993Y-737158D01*
X-1859534Y-733704D01*
X-1860448Y-729538D01*
X-1860448Y-707898D01*
X-1859686Y-703986D01*
X-1857451Y-700684D01*
X-1854149Y-698500D01*
X-1849424Y-697738D01*
X-1843125Y-697026D01*
X-1837639Y-695096D01*
X-1832762Y-691997D01*
X-1828647Y-687933D01*
X-1825548Y-683006D01*
X-1823669Y-677570D01*
X-1822957Y-671220D01*
X-1822957Y-547370D01*
X-1823669Y-541070D01*
X-1825243Y-536448D01*
X-1825853Y-533095D01*
X-1825243Y-529742D01*
X-1823669Y-525170D01*
X-1822957Y-517956D01*
X-1822145Y-514096D01*
X-1819960Y-510793D01*
X-1816658Y-508558D01*
X-1812798Y-507796D01*
X-1091184Y-507796D01*
X-1086510Y-507593D01*
X-1082141Y-507034D01*
X-1077772Y-506069D01*
X-1073556Y-504748D01*
X-1069441Y-503021D01*
X-1065530Y-500989D01*
X-1061770Y-498601D01*
X-1058214Y-495909D01*
X-1054811Y-492759D01*
X-1044752Y-482701D01*
X-1042822Y-481177D01*
X-1031494Y-475691D01*
X-1023721Y-469950D01*
X-1017066Y-462991D01*
X-1011682Y-454964D01*
X-1007668Y-446176D01*
X-1005281Y-436880D01*
X-1004417Y-427278D01*
X-1005281Y-417626D01*
X-1007668Y-408330D01*
X-1011682Y-399542D01*
X-1014831Y-394817D01*
X-1016355Y-391160D01*
X-1016355Y-387146D01*
X-1014831Y-383489D01*
X-1011682Y-378764D01*
X-1007668Y-369976D01*
X-1005281Y-360680D01*
X-1004417Y-351078D01*
X-1005281Y-341426D01*
X-1007668Y-332130D01*
X-1011682Y-323342D01*
X-1017066Y-315315D01*
X-1023721Y-308356D01*
X-1031494Y-302615D01*
X-1040130Y-298297D01*
X-1049324Y-295452D01*
X-1058875Y-294233D01*
X-1068527Y-294640D01*
X-1077976Y-296672D01*
X-1086916Y-300278D01*
X-1095146Y-305308D01*
X-1102360Y-311708D01*
X-1108456Y-319227D01*
X-1113129Y-327609D01*
X-1114145Y-330504D01*
X-1116533Y-334264D01*
X-1185265Y-402996D01*
X-1188567Y-405231D01*
X-1192428Y-405993D01*
X-1812798Y-405993D01*
X-1816455Y-405282D01*
X-1819605Y-403352D01*
X-1821891Y-400354D01*
X-1822907Y-396798D01*
X-1823669Y-388569D01*
X-1825548Y-383184D01*
X-1828647Y-378307D01*
X-1832762Y-374192D01*
X-1837639Y-371144D01*
X-1843125Y-369214D01*
X-1849424Y-368503D01*
X-1973275Y-368503D01*
X-1979625Y-369214D01*
X-1984197Y-370840D01*
X-1987550Y-371398D01*
X-1990902Y-370840D01*
X-1995525Y-369214D01*
X-2001824Y-368503D01*
X-2125675Y-368503D01*
X-2132025Y-369214D01*
X-2137460Y-371144D01*
X-2142388Y-374192D01*
X-2146452Y-378307D01*
X-2149551Y-383184D01*
X-2151430Y-388670D01*
X-2152142Y-394970D01*
X-2152142Y-518820D01*
X-2151430Y-525170D01*
X-2149551Y-530606D01*
X-2146452Y-535533D01*
X-2142388Y-539597D01*
X-2137460Y-542696D01*
X-2132025Y-544626D01*
X-2124811Y-545338D01*
X-2120950Y-546100D01*
X-2117648Y-548284D01*
X-2115413Y-551586D01*
X-2114651Y-555498D01*
X-2114651Y-734060D01*
X-2115464Y-738022D01*
X-2117699Y-741324D01*
X-2121103Y-743508D01*
X-2135632Y-749198D01*
X-2148382Y-756208D01*
X-2160117Y-764743D01*
X-2170734Y-774750D01*
X-2180031Y-785926D01*
X-2187803Y-798220D01*
X-2194001Y-811377D01*
X-2198522Y-825246D01*
X-2201265Y-839520D01*
X-2202180Y-854049D01*
X-2201265Y-868578D01*
X-2198522Y-882903D01*
X-2194001Y-896721D01*
X-2187803Y-909878D01*
X-2180031Y-922172D01*
X-2170734Y-933399D01*
X-2160117Y-943356D01*
X-2148382Y-951890D01*
X-2135632Y-958900D01*
X-2122068Y-964285D01*
X-2107996Y-967892D01*
G37*
G36*
X-61518Y-969721D02*
G01*
X-46990Y-969721D01*
X-32562Y-967892D01*
X-18440Y-964285D01*
X-4927Y-958900D01*
X7823Y-951890D01*
X19608Y-943356D01*
X30226Y-933399D01*
X39471Y-922172D01*
X47294Y-909878D01*
X53492Y-896721D01*
X57962Y-882903D01*
X60706Y-868578D01*
X61620Y-854049D01*
X60706Y-839520D01*
X57962Y-825246D01*
X53492Y-811377D01*
X47294Y-798220D01*
X39471Y-785926D01*
X30226Y-774750D01*
X19608Y-764743D01*
X7823Y-756208D01*
X-4927Y-749198D01*
X-6959Y-748385D01*
X-10058Y-746455D01*
X-12293Y-743508D01*
X-13309Y-739952D01*
X-14173Y-731215D01*
X-16510Y-723595D01*
X-20269Y-716534D01*
X-25704Y-709930D01*
X-108508Y-627075D01*
X-110693Y-623824D01*
X-111506Y-619912D01*
X-111506Y-574497D01*
X-110693Y-570636D01*
X-108508Y-567334D01*
X-105206Y-565150D01*
X-101346Y-564337D01*
X-90474Y-564337D01*
X-84175Y-563626D01*
X-79959Y-562152D01*
X-76606Y-561594D01*
X-73253Y-562152D01*
X-68275Y-563930D01*
X-61925Y-564642D01*
X61925Y-564642D01*
X68224Y-563930D01*
X73253Y-562152D01*
X76606Y-561594D01*
X79959Y-562152D01*
X84124Y-563626D01*
X90474Y-564337D01*
X148691Y-564337D01*
X152552Y-565150D01*
X155854Y-567334D01*
X158089Y-570636D01*
X158851Y-574497D01*
X158851Y-738936D01*
X158038Y-742899D01*
X155803Y-746201D01*
X152400Y-748385D01*
X150368Y-749198D01*
X137617Y-756208D01*
X125882Y-764743D01*
X115265Y-774750D01*
X105968Y-785926D01*
X98196Y-798220D01*
X91998Y-811377D01*
X87477Y-825246D01*
X84734Y-839520D01*
X83820Y-854049D01*
X84734Y-868578D01*
X87477Y-882903D01*
X91998Y-896721D01*
X98196Y-909878D01*
X105968Y-922172D01*
X115265Y-933399D01*
X125882Y-943356D01*
X137617Y-951890D01*
X150368Y-958900D01*
X163931Y-964285D01*
X178003Y-967892D01*
X192481Y-969721D01*
X207010Y-969721D01*
X221437Y-967892D01*
X235559Y-964285D01*
X249072Y-958900D01*
X261823Y-951890D01*
X273608Y-943356D01*
X284226Y-933399D01*
X293471Y-922172D01*
X301294Y-909878D01*
X307492Y-896721D01*
X311962Y-882903D01*
X314706Y-868578D01*
X315620Y-854049D01*
X314706Y-839520D01*
X311962Y-825246D01*
X307492Y-811377D01*
X301294Y-798220D01*
X293471Y-785926D01*
X284226Y-774750D01*
X273608Y-764743D01*
X261823Y-756208D01*
X249478Y-749401D01*
X246684Y-747166D01*
X244856Y-744067D01*
X244195Y-740511D01*
X244195Y-222351D01*
X243382Y-213867D01*
X241046Y-206197D01*
X237286Y-199136D01*
X231902Y-192582D01*
X58674Y-19354D01*
X56692Y-16510D01*
X55778Y-13106D01*
X56896Y0D01*
X56032Y9652D01*
X53390Y19812D01*
X53238Y24079D01*
X54813Y28092D01*
X57912Y31038D01*
X61976Y32461D01*
X68173Y33223D01*
X73710Y35153D01*
X78638Y38252D01*
X82702Y42316D01*
X85801Y47244D01*
X87680Y52679D01*
X88392Y59029D01*
X88392Y182880D01*
X87680Y189179D01*
X86106Y193802D01*
X85496Y197154D01*
X86106Y200507D01*
X87680Y205079D01*
X88392Y211429D01*
X88392Y335280D01*
X87680Y341630D01*
X85750Y347065D01*
X82702Y351993D01*
X78587Y356057D01*
X73710Y359156D01*
X68224Y361035D01*
X61925Y361746D01*
X47701Y361746D01*
X43840Y362508D01*
X40538Y364693D01*
X38354Y367944D01*
X37541Y371805D01*
X25501Y1489557D01*
X26212Y1493418D01*
X28295Y1496669D01*
X30683Y1499158D01*
X36068Y1507185D01*
X40081Y1515973D01*
X42468Y1525270D01*
X43332Y1534871D01*
X42468Y1544523D01*
X40081Y1553819D01*
X36068Y1562608D01*
X30683Y1570634D01*
X24028Y1577594D01*
X16256Y1583334D01*
X7620Y1587652D01*
X-1574Y1590497D01*
X-11125Y1591716D01*
X-20777Y1591310D01*
X-30226Y1589278D01*
X-39166Y1585671D01*
X-47396Y1580642D01*
X-54610Y1574241D01*
X-60706Y1566722D01*
X-65379Y1558340D01*
X-68580Y1549247D01*
X-70205Y1539697D01*
X-70205Y1530096D01*
X-68580Y1520545D01*
X-65379Y1511452D01*
X-60706Y1503070D01*
X-54000Y1494790D01*
X-52324Y1491843D01*
X-51714Y1488490D01*
X-39674Y372008D01*
X-40436Y368096D01*
X-42621Y364794D01*
X-45923Y362559D01*
X-49834Y361746D01*
X-61925Y361746D01*
X-68275Y361035D01*
X-73710Y359156D01*
X-78638Y356057D01*
X-82702Y351993D01*
X-85801Y347065D01*
X-87731Y341630D01*
X-88442Y335280D01*
X-88442Y211429D01*
X-87731Y205079D01*
X-86106Y200507D01*
X-85547Y197104D01*
X-86106Y193751D01*
X-87680Y189179D01*
X-88392Y182880D01*
X-88392Y59029D01*
X-87680Y52679D01*
X-85801Y47244D01*
X-82702Y42316D01*
X-78587Y38252D01*
X-73710Y35153D01*
X-68224Y33223D01*
X-61823Y32512D01*
X-58318Y31495D01*
X-55473Y29260D01*
X-53543Y26212D01*
X-52781Y22656D01*
X-53390Y19050D01*
X-55016Y14376D01*
X-56641Y4826D01*
X-56641Y-4775D01*
X-55016Y-14325D01*
X-51816Y-23418D01*
X-47142Y-31800D01*
X-41046Y-39319D01*
X-33832Y-45720D01*
X-26720Y-50088D01*
X-24841Y-51562D01*
X159410Y-235813D01*
X161645Y-239115D01*
X162407Y-242976D01*
X162407Y-377393D01*
X161645Y-381254D01*
X159410Y-384556D01*
X156108Y-386740D01*
X152247Y-387553D01*
X90474Y-387553D01*
X84124Y-388264D01*
X79146Y-389991D01*
X75793Y-390550D01*
X72440Y-389991D01*
X68224Y-388518D01*
X61925Y-387807D01*
X48768Y-387807D01*
X44856Y-387045D01*
X41605Y-384860D01*
X39370Y-381558D01*
X38608Y-377647D01*
X38608Y-326847D01*
X37795Y-318820D01*
X35610Y-311556D01*
X32054Y-304901D01*
X26924Y-298653D01*
X-203149Y-68529D01*
X-205384Y-65278D01*
X-206146Y-61366D01*
X-206146Y1774342D01*
X-206959Y1782368D01*
X-209143Y1789582D01*
X-212699Y1796288D01*
X-217830Y1802485D01*
X-783894Y2368600D01*
X-786130Y2371902D01*
X-786892Y2375814D01*
X-786892Y2762046D01*
X-786130Y2765907D01*
X-783894Y2769209D01*
X-782320Y2770784D01*
X-776681Y2778810D01*
X-772566Y2787751D01*
X-770026Y2797200D01*
X-769162Y2807004D01*
X-770026Y2816809D01*
X-772566Y2826258D01*
X-776681Y2835198D01*
X-782320Y2843225D01*
X-789279Y2850184D01*
X-797306Y2855823D01*
X-806246Y2859938D01*
X-815695Y2862478D01*
X-825500Y2863342D01*
X-835304Y2862478D01*
X-844753Y2859938D01*
X-853694Y2855823D01*
X-861720Y2850184D01*
X-868680Y2843225D01*
X-874318Y2835198D01*
X-878433Y2826258D01*
X-880973Y2816809D01*
X-881837Y2807004D01*
X-880973Y2797200D01*
X-878433Y2787751D01*
X-874318Y2778810D01*
X-868680Y2770784D01*
X-867054Y2769209D01*
X-864869Y2765907D01*
X-864108Y2761996D01*
X-864108Y2356104D01*
X-863295Y2348077D01*
X-861110Y2340864D01*
X-857554Y2334158D01*
X-852424Y2327960D01*
X-286359Y1761845D01*
X-284124Y1758543D01*
X-283362Y1754632D01*
X-283362Y1748282D01*
X-284276Y1744116D01*
X-286816Y1740662D01*
X-290525Y1738579D01*
X-294792Y1738223D01*
X-298856Y1739646D01*
X-301955Y1742592D01*
X-305866Y1748434D01*
X-312521Y1755393D01*
X-320294Y1761134D01*
X-328930Y1765452D01*
X-338124Y1768297D01*
X-347675Y1769516D01*
X-357327Y1769110D01*
X-366776Y1767078D01*
X-375716Y1763471D01*
X-383946Y1758442D01*
X-391160Y1752041D01*
X-397256Y1744522D01*
X-401929Y1736140D01*
X-405130Y1727047D01*
X-406755Y1717497D01*
X-406755Y1714855D01*
X-407568Y1710943D01*
X-409752Y1707642D01*
X-623468Y1493926D01*
X-626770Y1491742D01*
X-630682Y1490929D01*
X-1085342Y1490929D01*
X-1089304Y1491792D01*
X-1101344Y1500784D01*
X-1109980Y1505102D01*
X-1119174Y1507947D01*
X-1128725Y1509166D01*
X-1138377Y1508760D01*
X-1147826Y1506728D01*
X-1156766Y1503121D01*
X-1164996Y1498092D01*
X-1172210Y1491691D01*
X-1178306Y1484172D01*
X-1182979Y1475790D01*
X-1186180Y1466697D01*
X-1187805Y1457147D01*
X-1187805Y1447546D01*
X-1186180Y1437995D01*
X-1182979Y1428902D01*
X-1178306Y1420520D01*
X-1172210Y1413002D01*
X-1164996Y1406601D01*
X-1156766Y1401572D01*
X-1147826Y1397965D01*
X-1138377Y1395933D01*
X-1128725Y1395526D01*
X-1119174Y1396746D01*
X-1109980Y1399590D01*
X-1101344Y1403908D01*
X-1089304Y1412900D01*
X-1085342Y1413713D01*
X-610971Y1413713D01*
X-602945Y1414526D01*
X-595731Y1416710D01*
X-589026Y1420266D01*
X-582828Y1425397D01*
X-355295Y1652930D01*
X-351790Y1655165D01*
X-347675Y1655876D01*
X-338124Y1657096D01*
X-328930Y1659940D01*
X-320294Y1664258D01*
X-312521Y1669999D01*
X-305866Y1676958D01*
X-301955Y1682800D01*
X-298856Y1685747D01*
X-294792Y1687169D01*
X-290525Y1686814D01*
X-286816Y1684731D01*
X-284276Y1681276D01*
X-283362Y1677111D01*
X-283362Y-81076D01*
X-282549Y-89103D01*
X-280365Y-96316D01*
X-276809Y-102971D01*
X-271678Y-109220D01*
X-41605Y-339344D01*
X-39370Y-342646D01*
X-38608Y-346506D01*
X-38608Y-377647D01*
X-39370Y-381558D01*
X-41605Y-384860D01*
X-44856Y-387045D01*
X-48768Y-387807D01*
X-61925Y-387807D01*
X-68275Y-388518D01*
X-72440Y-389991D01*
X-75793Y-390550D01*
X-79146Y-389991D01*
X-84175Y-388264D01*
X-90474Y-387553D01*
X-214325Y-387553D01*
X-220675Y-388264D01*
X-226110Y-390144D01*
X-231038Y-393242D01*
X-235102Y-397306D01*
X-238201Y-402234D01*
X-240080Y-407670D01*
X-240792Y-414020D01*
X-240792Y-537870D01*
X-240080Y-544169D01*
X-238201Y-549656D01*
X-235102Y-554532D01*
X-231038Y-558647D01*
X-226110Y-561746D01*
X-220675Y-563626D01*
X-214325Y-564337D01*
X-203454Y-564337D01*
X-199593Y-565150D01*
X-196291Y-567334D01*
X-194056Y-570636D01*
X-193294Y-574497D01*
X-193294Y-640588D01*
X-192481Y-649020D01*
X-190144Y-656691D01*
X-186385Y-663752D01*
X-180949Y-670356D01*
X-112217Y-739089D01*
X-110083Y-742188D01*
X-109270Y-745845D01*
X-109778Y-749554D01*
X-111607Y-752805D01*
X-114503Y-755192D01*
X-116382Y-756208D01*
X-128117Y-764743D01*
X-138734Y-774750D01*
X-148031Y-785926D01*
X-155803Y-798220D01*
X-162001Y-811377D01*
X-166522Y-825246D01*
X-169265Y-839520D01*
X-170180Y-854049D01*
X-169265Y-868578D01*
X-166522Y-882903D01*
X-162001Y-896721D01*
X-155803Y-909878D01*
X-148031Y-922172D01*
X-138734Y-933399D01*
X-128117Y-943356D01*
X-116382Y-951890D01*
X-103632Y-958900D01*
X-90068Y-964285D01*
X-75996Y-967892D01*
G37*
G36*
X446481Y-969721D02*
G01*
X461009Y-969721D01*
X475437Y-967892D01*
X489559Y-964285D01*
X503072Y-958900D01*
X515823Y-951890D01*
X527608Y-943356D01*
X538226Y-933399D01*
X547471Y-922172D01*
X555294Y-909878D01*
X561492Y-896721D01*
X565962Y-882903D01*
X568706Y-868578D01*
X569620Y-854049D01*
X568706Y-839520D01*
X565962Y-825246D01*
X561644Y-811885D01*
X561136Y-808177D01*
X562000Y-804570D01*
X564134Y-801522D01*
X574802Y-790854D01*
X580186Y-784301D01*
X583946Y-777240D01*
X586282Y-769569D01*
X587095Y-761085D01*
X587095Y568858D01*
X587857Y572668D01*
X595833Y584454D01*
X599846Y593242D01*
X602234Y602538D01*
X603097Y612140D01*
X602234Y621792D01*
X599846Y631088D01*
X595833Y639876D01*
X587857Y651662D01*
X587095Y655472D01*
X587095Y1646834D01*
X586282Y1655318D01*
X583946Y1662988D01*
X580186Y1670050D01*
X574802Y1676603D01*
X-203657Y2455062D01*
X-205841Y2458364D01*
X-206654Y2462225D01*
X-206654Y3243173D01*
X-205841Y3247034D01*
X-203657Y3250336D01*
X-52578Y3401415D01*
X-49326Y3403600D01*
X-45415Y3404362D01*
X42875Y3404362D01*
X49174Y3405073D01*
X54000Y3406140D01*
X58724Y3405073D01*
X65074Y3404362D01*
X96215Y3404362D01*
X100076Y3403600D01*
X103378Y3401415D01*
X194360Y3310432D01*
X196189Y3307892D01*
X197205Y3304946D01*
X198983Y3294278D01*
X202184Y3285236D01*
X206857Y3276803D01*
X212953Y3269284D01*
X220167Y3262934D01*
X228396Y3257854D01*
X237286Y3254298D01*
X248158Y3252063D01*
X252018Y3250336D01*
X253288Y3249015D01*
X255016Y3250742D01*
X259130Y3252165D01*
X265988Y3253079D01*
X275183Y3255873D01*
X283819Y3260242D01*
X291592Y3265982D01*
X298246Y3272942D01*
X303631Y3280918D01*
X307644Y3289706D01*
X310032Y3299053D01*
X310896Y3308654D01*
X310032Y3318256D01*
X307644Y3327603D01*
X303631Y3336391D01*
X298246Y3344367D01*
X291592Y3351326D01*
X283819Y3357067D01*
X275183Y3361436D01*
X265988Y3364229D01*
X258267Y3365246D01*
X255066Y3366211D01*
X252374Y3368141D01*
X233476Y3387039D01*
X231292Y3390341D01*
X230530Y3394201D01*
X231292Y3398113D01*
X233476Y3401415D01*
X236778Y3403600D01*
X240690Y3404362D01*
X334975Y3404362D01*
X341477Y3405124D01*
X345694Y3404717D01*
X349402Y3402584D01*
X351891Y3399180D01*
X352806Y3395014D01*
X352806Y3247237D01*
X351993Y3243376D01*
X349808Y3240074D01*
X344474Y3234740D01*
X342036Y3232912D01*
X339191Y3231946D01*
X260400Y3231946D01*
X256184Y3232861D01*
X253288Y3235045D01*
X250240Y3232810D01*
X246125Y3231946D01*
X211124Y3231946D01*
X204774Y3231235D01*
X199999Y3230168D01*
X195224Y3231235D01*
X188925Y3231946D01*
X65074Y3231946D01*
X58724Y3231235D01*
X54000Y3230168D01*
X49225Y3231235D01*
X42926Y3231946D01*
X-80975Y3231946D01*
X-87274Y3231235D01*
X-92760Y3229305D01*
X-97637Y3226257D01*
X-101752Y3222142D01*
X-104800Y3217265D01*
X-106730Y3211779D01*
X-107442Y3205480D01*
X-107442Y3132531D01*
X-107899Y3129432D01*
X-109270Y3126689D01*
X-111404Y3124454D01*
X-151485Y3093821D01*
X-155956Y3089910D01*
X-160985Y3083661D01*
X-164744Y3076600D01*
X-167030Y3068929D01*
X-167436Y3066694D01*
X-167792Y3060750D01*
X-167792Y2633116D01*
X-166979Y2624632D01*
X-164642Y2616962D01*
X-160883Y2609900D01*
X-155448Y2603347D01*
X701954Y1745894D01*
X704189Y1742592D01*
X704951Y1738731D01*
X704951Y-728878D01*
X704291Y-732485D01*
X702411Y-735584D01*
X699516Y-737870D01*
X696061Y-738936D01*
X686003Y-740206D01*
X671931Y-743864D01*
X658368Y-749198D01*
X645617Y-756208D01*
X633882Y-764743D01*
X623265Y-774750D01*
X613968Y-785926D01*
X606196Y-798220D01*
X599998Y-811377D01*
X595477Y-825246D01*
X592734Y-839520D01*
X591820Y-854049D01*
X592734Y-868578D01*
X595477Y-882903D01*
X599998Y-896721D01*
X606196Y-909878D01*
X613968Y-922172D01*
X623265Y-933399D01*
X633882Y-943356D01*
X645617Y-951890D01*
X658368Y-958900D01*
X671931Y-964285D01*
X686003Y-967892D01*
X700481Y-969721D01*
X715010Y-969721D01*
X729437Y-967892D01*
X743559Y-964285D01*
X757072Y-958900D01*
X769823Y-951890D01*
X781608Y-943356D01*
X792226Y-933399D01*
X801471Y-922172D01*
X809294Y-909878D01*
X815492Y-896721D01*
X819962Y-882903D01*
X822706Y-868578D01*
X823620Y-854049D01*
X822706Y-839520D01*
X819962Y-825246D01*
X815492Y-811377D01*
X809294Y-798220D01*
X801471Y-785926D01*
X792226Y-774750D01*
X789940Y-772617D01*
X787603Y-769264D01*
X786739Y-765200D01*
X786739Y935329D01*
X787501Y939139D01*
X789533Y942340D01*
X792683Y944575D01*
X796391Y945489D01*
X800201Y944981D01*
X811733Y938021D01*
X820674Y934415D01*
X830122Y932383D01*
X839774Y931976D01*
X849325Y933196D01*
X858519Y936040D01*
X867156Y940358D01*
X874928Y946099D01*
X881583Y953058D01*
X886968Y961085D01*
X890981Y969873D01*
X893368Y979169D01*
X894232Y988771D01*
X893368Y998423D01*
X890981Y1007719D01*
X887018Y1016508D01*
X880922Y1025448D01*
X879398Y1028903D01*
X879246Y1032662D01*
X880516Y1036269D01*
X883005Y1039114D01*
X886358Y1040892D01*
X896670Y1043990D01*
X905256Y1048308D01*
X913028Y1054049D01*
X919683Y1061008D01*
X925068Y1069035D01*
X929081Y1077823D01*
X931468Y1087120D01*
X931926Y1091996D01*
X932789Y1095400D01*
X934821Y1098296D01*
X986485Y1149959D01*
X991920Y1156563D01*
X995680Y1163624D01*
X998016Y1171295D01*
X998829Y1179728D01*
X998829Y1775612D01*
X998016Y1784096D01*
X995680Y1791766D01*
X991920Y1798828D01*
X986536Y1805381D01*
X212090Y2580081D01*
X210058Y2582976D01*
X209143Y2586380D01*
X208432Y2594356D01*
X206044Y2603703D01*
X202031Y2612491D01*
X195732Y2621889D01*
X194614Y2623870D01*
X193344Y2628087D01*
X193954Y2632456D01*
X196392Y2636113D01*
X205587Y2641752D01*
X209702Y2645816D01*
X212801Y2650744D01*
X214680Y2656179D01*
X215392Y2662529D01*
X215392Y2778252D01*
X216204Y2782163D01*
X218389Y2785465D01*
X221691Y2787650D01*
X225552Y2788412D01*
X335026Y2788412D01*
X341325Y2789123D01*
X346811Y2791053D01*
X351688Y2794152D01*
X355803Y2798216D01*
X358851Y2803144D01*
X360781Y2808579D01*
X361492Y2814929D01*
X361492Y2823921D01*
X362254Y2827832D01*
X364439Y2831084D01*
X367690Y2833319D01*
X371551Y2834081D01*
X385622Y2831033D01*
X395274Y2830626D01*
X404825Y2831846D01*
X414020Y2834690D01*
X422656Y2839008D01*
X430428Y2844749D01*
X437083Y2851708D01*
X442468Y2859735D01*
X446481Y2868523D01*
X448868Y2877820D01*
X449732Y2887421D01*
X448868Y2897073D01*
X446481Y2906369D01*
X442468Y2915158D01*
X437083Y2923184D01*
X435813Y2924505D01*
X433679Y2927807D01*
X432968Y2931718D01*
X433781Y2935528D01*
X436016Y2938780D01*
X439267Y2940964D01*
X443128Y2941726D01*
X530352Y2941726D01*
X534365Y2940862D01*
X537768Y2938475D01*
X539902Y2934970D01*
X540461Y2930906D01*
X539597Y2917850D01*
X540512Y2904185D01*
X543204Y2890774D01*
X547573Y2877820D01*
X553618Y2865526D01*
X561238Y2854147D01*
X570280Y2843885D01*
X580542Y2834843D01*
X591921Y2827223D01*
X604215Y2821178D01*
X617169Y2816809D01*
X630580Y2814116D01*
X644245Y2813202D01*
X657910Y2814116D01*
X671322Y2816809D01*
X684276Y2821178D01*
X696569Y2827223D01*
X707948Y2834843D01*
X718210Y2843885D01*
X727252Y2854147D01*
X734872Y2865526D01*
X740918Y2877820D01*
X745286Y2890774D01*
X747979Y2904185D01*
X748893Y2917850D01*
X747979Y2931515D01*
X745286Y2944926D01*
X740918Y2957880D01*
X734872Y2970174D01*
X727252Y2981553D01*
X718210Y2991815D01*
X707948Y3000857D01*
X696569Y3008477D01*
X684276Y3014522D01*
X671322Y3018891D01*
X657910Y3021584D01*
X644245Y3022498D01*
X630580Y3021584D01*
X617169Y3018891D01*
X609498Y3016300D01*
X605434Y3015792D01*
X601472Y3016961D01*
X595122Y3020364D01*
X587451Y3022701D01*
X578967Y3023514D01*
X444957Y3023514D01*
X441045Y3024276D01*
X437794Y3026511D01*
X435559Y3029813D01*
X434797Y3033674D01*
X435559Y3037586D01*
X437794Y3040888D01*
X509371Y3112465D01*
X512673Y3114649D01*
X516534Y3115462D01*
X550926Y3115462D01*
X554228Y3114903D01*
X557123Y3113328D01*
X559409Y3110941D01*
X561238Y3108147D01*
X570280Y3097885D01*
X580542Y3088843D01*
X591921Y3081223D01*
X604215Y3075178D01*
X617169Y3070809D01*
X630580Y3068116D01*
X644245Y3067202D01*
X657910Y3068116D01*
X671322Y3070809D01*
X684276Y3075178D01*
X696569Y3081223D01*
X707948Y3088843D01*
X718210Y3097885D01*
X727252Y3108147D01*
X734872Y3119526D01*
X740918Y3131820D01*
X745286Y3144774D01*
X747979Y3158185D01*
X748893Y3171850D01*
X747979Y3185515D01*
X745286Y3198926D01*
X740918Y3211880D01*
X734872Y3224174D01*
X727252Y3235553D01*
X718210Y3245815D01*
X707948Y3254857D01*
X696569Y3262477D01*
X684276Y3268522D01*
X671322Y3272891D01*
X657910Y3275584D01*
X644245Y3276498D01*
X630580Y3275584D01*
X617169Y3272891D01*
X604215Y3268522D01*
X591921Y3262477D01*
X580542Y3254857D01*
X570280Y3245815D01*
X561238Y3235553D01*
X553618Y3224174D01*
X547573Y3211880D01*
X544982Y3204159D01*
X542848Y3200552D01*
X539445Y3198114D01*
X535330Y3197250D01*
X495909Y3197250D01*
X487426Y3196437D01*
X479755Y3194100D01*
X472693Y3190341D01*
X466140Y3184906D01*
X378815Y3097631D01*
X375513Y3095396D01*
X371602Y3094634D01*
X367741Y3095396D01*
X364439Y3097631D01*
X362254Y3100882D01*
X361442Y3104794D01*
X361442Y3131820D01*
X362254Y3135680D01*
X364439Y3138982D01*
X422249Y3196793D01*
X427685Y3203397D01*
X431444Y3210458D01*
X433781Y3218129D01*
X434593Y3226562D01*
X434593Y3752138D01*
X433781Y3760571D01*
X431444Y3768242D01*
X427685Y3775303D01*
X422249Y3781907D01*
X310134Y3894023D01*
X308000Y3897071D01*
X307136Y3900678D01*
X307644Y3904335D01*
X311962Y3917696D01*
X314706Y3932021D01*
X315620Y3946550D01*
X314706Y3961079D01*
X311962Y3975354D01*
X307492Y3989222D01*
X301294Y4002379D01*
X293471Y4014673D01*
X284226Y4025849D01*
X273608Y4035856D01*
X261823Y4044391D01*
X249072Y4051401D01*
X235559Y4056735D01*
X221437Y4060393D01*
X207010Y4062222D01*
X192481Y4062222D01*
X178003Y4060393D01*
X163931Y4056735D01*
X150368Y4051401D01*
X137617Y4044391D01*
X125882Y4035856D01*
X115265Y4025849D01*
X105968Y4014673D01*
X98196Y4002379D01*
X91998Y3989222D01*
X87477Y3975354D01*
X84734Y3961079D01*
X83820Y3946550D01*
X84734Y3932021D01*
X87477Y3917696D01*
X91998Y3903878D01*
X98196Y3890721D01*
X105968Y3878427D01*
X115265Y3867200D01*
X120345Y3862425D01*
X122682Y3859123D01*
X123545Y3855212D01*
X122834Y3851249D01*
X120650Y3847896D01*
X117348Y3845661D01*
X113385Y3844848D01*
X76606Y3844848D01*
X73507Y3845356D01*
X70662Y3846779D01*
X68427Y3848963D01*
X46990Y3878122D01*
X45262Y3881780D01*
X45110Y3885793D01*
X53492Y3903878D01*
X57962Y3917696D01*
X60706Y3932021D01*
X61620Y3946550D01*
X60706Y3961079D01*
X57962Y3975354D01*
X53492Y3989222D01*
X47294Y4002379D01*
X39471Y4014673D01*
X30226Y4025849D01*
X19608Y4035856D01*
X7823Y4044391D01*
X-4927Y4051401D01*
X-18440Y4056735D01*
X-32562Y4060393D01*
X-46990Y4062222D01*
X-61518Y4062222D01*
X-75996Y4060393D01*
X-90068Y4056735D01*
X-103632Y4051401D01*
X-116382Y4044391D01*
X-128117Y4035856D01*
X-138734Y4025849D01*
X-148031Y4014673D01*
X-155803Y4002379D01*
X-162001Y3989222D01*
X-166522Y3975354D01*
X-169265Y3961079D01*
X-170180Y3946550D01*
X-169265Y3932021D01*
X-166522Y3917696D01*
X-162204Y3904386D01*
X-161696Y3900728D01*
X-162560Y3897122D01*
X-164693Y3894074D01*
X-301498Y3757422D01*
X-306882Y3750818D01*
X-310692Y3743756D01*
X-313029Y3736086D01*
X-313842Y3727653D01*
X-313842Y3648506D01*
X-314604Y3644646D01*
X-316839Y3641344D01*
X-320141Y3639108D01*
X-324002Y3638346D01*
X-360375Y3638346D01*
X-366725Y3637635D01*
X-371449Y3636568D01*
X-376275Y3637635D01*
X-382574Y3638346D01*
X-506425Y3638346D01*
X-512927Y3637635D01*
X-517143Y3638042D01*
X-520852Y3640175D01*
X-523341Y3643579D01*
X-524256Y3647744D01*
X-524256Y3830320D01*
X-523443Y3834231D01*
X-521208Y3837533D01*
X-517804Y3839718D01*
X-512927Y3841699D01*
X-500176Y3848709D01*
X-488391Y3857244D01*
X-477774Y3867200D01*
X-468528Y3878427D01*
X-460705Y3890721D01*
X-454507Y3903878D01*
X-450037Y3917696D01*
X-447293Y3932021D01*
X-446379Y3946550D01*
X-447293Y3961079D01*
X-450037Y3975354D01*
X-454507Y3989222D01*
X-460705Y4002379D01*
X-468528Y4014673D01*
X-477774Y4025849D01*
X-488391Y4035856D01*
X-500176Y4044391D01*
X-512927Y4051401D01*
X-526440Y4056735D01*
X-540562Y4060393D01*
X-554990Y4062222D01*
X-569518Y4062222D01*
X-583996Y4060393D01*
X-598068Y4056735D01*
X-611632Y4051401D01*
X-624382Y4044391D01*
X-636117Y4035856D01*
X-646734Y4025849D01*
X-656031Y4014673D01*
X-663803Y4002379D01*
X-670001Y3989222D01*
X-674522Y3975354D01*
X-677265Y3961079D01*
X-678180Y3946550D01*
X-677265Y3932021D01*
X-674522Y3917696D01*
X-670001Y3903878D01*
X-663803Y3890721D01*
X-656031Y3878427D01*
X-646734Y3867200D01*
X-636117Y3857244D01*
X-624382Y3848709D01*
X-611327Y3841546D01*
X-608533Y3839260D01*
X-606704Y3836162D01*
X-606044Y3832606D01*
X-606044Y3648506D01*
X-606806Y3644646D01*
X-609041Y3641344D01*
X-612343Y3639108D01*
X-616204Y3638346D01*
X-652475Y3638346D01*
X-658825Y3637635D01*
X-664260Y3635705D01*
X-669188Y3632657D01*
X-673252Y3628542D01*
X-676351Y3623665D01*
X-678230Y3618179D01*
X-678942Y3611879D01*
X-678942Y3488029D01*
X-678230Y3481679D01*
X-676351Y3476244D01*
X-673252Y3471316D01*
X-669188Y3467252D01*
X-664260Y3464153D01*
X-658825Y3462223D01*
X-652475Y3461512D01*
X-545439Y3461512D01*
X-541578Y3460750D01*
X-538276Y3458565D01*
X-536041Y3455263D01*
X-535279Y3451351D01*
X-536041Y3447491D01*
X-538276Y3444189D01*
X-549148Y3433267D01*
X-554583Y3426714D01*
X-558342Y3419652D01*
X-560679Y3411982D01*
X-561492Y3403498D01*
X-561492Y2869336D01*
X-562102Y2865932D01*
X-563778Y2862935D01*
X-567842Y2857906D01*
X-572516Y2849473D01*
X-575716Y2840380D01*
X-577342Y2830880D01*
X-577342Y2821228D01*
X-575716Y2811729D01*
X-572516Y2802636D01*
X-567842Y2794203D01*
X-561746Y2786684D01*
X-554532Y2780334D01*
X-546303Y2775254D01*
X-537362Y2771698D01*
X-527913Y2769666D01*
X-518261Y2769209D01*
X-508711Y2770479D01*
X-499516Y2773273D01*
X-490880Y2777642D01*
X-483108Y2783382D01*
X-476453Y2790342D01*
X-471068Y2798318D01*
X-467055Y2807106D01*
X-464667Y2816453D01*
X-463804Y2826054D01*
X-464667Y2835656D01*
X-467055Y2845003D01*
X-471068Y2853791D01*
X-478942Y2865475D01*
X-479704Y2869234D01*
X-479704Y3290163D01*
X-478942Y3293973D01*
X-476859Y3297224D01*
X-473709Y3299409D01*
X-469950Y3300323D01*
X-466140Y3299764D01*
X-462838Y3297783D01*
X-459282Y3294684D01*
X-451053Y3289604D01*
X-442112Y3286048D01*
X-432663Y3284016D01*
X-423011Y3283559D01*
X-413461Y3284829D01*
X-404266Y3287623D01*
X-395630Y3291992D01*
X-387858Y3297732D01*
X-381203Y3304692D01*
X-375818Y3312668D01*
X-371805Y3321456D01*
X-369417Y3330803D01*
X-368554Y3340404D01*
X-369417Y3350006D01*
X-371805Y3359353D01*
X-375818Y3368141D01*
X-381203Y3376117D01*
X-387858Y3383076D01*
X-395630Y3388817D01*
X-404266Y3393186D01*
X-413461Y3395979D01*
X-423011Y3397250D01*
X-432663Y3396792D01*
X-442112Y3394760D01*
X-445922Y3393236D01*
X-449783Y3392525D01*
X-453643Y3393338D01*
X-456946Y3395522D01*
X-459079Y3398824D01*
X-459841Y3402736D01*
X-459079Y3406597D01*
X-456895Y3409848D01*
X-408178Y3458565D01*
X-404876Y3460750D01*
X-401015Y3461562D01*
X-382574Y3461562D01*
X-376275Y3462274D01*
X-371500Y3463340D01*
X-366725Y3462223D01*
X-360375Y3461512D01*
X-236524Y3461512D01*
X-230225Y3462223D01*
X-224739Y3464153D01*
X-219862Y3467252D01*
X-215747Y3471316D01*
X-212648Y3476244D01*
X-210769Y3481679D01*
X-210058Y3488029D01*
X-210058Y3570224D01*
X-209245Y3574186D01*
X-206908Y3577539D01*
X-203454Y3579723D01*
X-199440Y3580384D01*
X-188925Y3579926D01*
X-179374Y3581146D01*
X-170180Y3583990D01*
X-161544Y3588308D01*
X-153771Y3594049D01*
X-147116Y3601008D01*
X-141732Y3609035D01*
X-137718Y3617823D01*
X-135331Y3627120D01*
X-134467Y3636721D01*
X-135331Y3646373D01*
X-137718Y3655669D01*
X-141732Y3664458D01*
X-147116Y3672484D01*
X-153771Y3679444D01*
X-161544Y3685184D01*
X-170180Y3689502D01*
X-179374Y3692347D01*
X-188925Y3693566D01*
X-198577Y3693160D01*
X-207975Y3691128D01*
X-218033Y3687013D01*
X-221945Y3686251D01*
X-225806Y3687064D01*
X-229057Y3689248D01*
X-231292Y3692550D01*
X-232054Y3696411D01*
X-232054Y3706926D01*
X-231241Y3710838D01*
X-229057Y3714140D01*
X-106730Y3836314D01*
X-103479Y3838498D01*
X-99618Y3839311D01*
X-95808Y3838600D01*
X-90068Y3836314D01*
X-75996Y3832707D01*
X-61518Y3830878D01*
X-46990Y3830878D01*
X-32562Y3832707D01*
X-29667Y3833469D01*
X-25654Y3833672D01*
X-21894Y3832301D01*
X-18948Y3829659D01*
X17830Y3779723D01*
X19558Y3775913D01*
X19608Y3771696D01*
X17932Y3767836D01*
X14833Y3764991D01*
X10871Y3763619D01*
X-3911Y3765550D01*
X-13563Y3765092D01*
X-23012Y3763060D01*
X-31953Y3759504D01*
X-40182Y3754424D01*
X-47396Y3748074D01*
X-53492Y3740556D01*
X-58166Y3732123D01*
X-61366Y3723030D01*
X-62991Y3713530D01*
X-62991Y3703878D01*
X-61366Y3694379D01*
X-58166Y3685286D01*
X-53492Y3676853D01*
X-47396Y3669334D01*
X-40182Y3662984D01*
X-31953Y3657904D01*
X-23012Y3654348D01*
X-13563Y3652316D01*
X-3911Y3651859D01*
X5638Y3653129D01*
X14833Y3655923D01*
X23825Y3660444D01*
X27838Y3661511D01*
X31902Y3660952D01*
X35407Y3658768D01*
X37744Y3655415D01*
X38557Y3651402D01*
X38557Y3591356D01*
X37795Y3587445D01*
X35610Y3584194D01*
X32308Y3581958D01*
X28397Y3581196D01*
X-80975Y3581196D01*
X-87325Y3580485D01*
X-92760Y3578555D01*
X-97688Y3575507D01*
X-101752Y3571392D01*
X-104851Y3566515D01*
X-106781Y3561029D01*
X-107492Y3554729D01*
X-107492Y3466439D01*
X-108254Y3462578D01*
X-110439Y3459276D01*
X-276098Y3293567D01*
X-281533Y3287014D01*
X-285292Y3279952D01*
X-287629Y3272282D01*
X-288442Y3263798D01*
X-288442Y2441600D01*
X-287629Y2433116D01*
X-285292Y2425446D01*
X-281533Y2418384D01*
X-276098Y2411831D01*
X502310Y1633372D01*
X504545Y1630070D01*
X505307Y1626209D01*
X505307Y655320D01*
X504698Y651916D01*
X503021Y648919D01*
X499059Y643991D01*
X494385Y635609D01*
X491185Y626516D01*
X489559Y616966D01*
X489559Y607364D01*
X491185Y597814D01*
X494385Y588721D01*
X499059Y580339D01*
X503021Y575411D01*
X504698Y572414D01*
X505307Y569010D01*
X505307Y-735126D01*
X504545Y-738987D01*
X502361Y-742289D01*
X499109Y-744474D01*
X495249Y-745286D01*
X491388Y-744575D01*
X489559Y-743864D01*
X475437Y-740206D01*
X461009Y-738378D01*
X446481Y-738378D01*
X432003Y-740206D01*
X417931Y-743864D01*
X404368Y-749198D01*
X391617Y-756208D01*
X379882Y-764743D01*
X369265Y-774750D01*
X359968Y-785926D01*
X352196Y-798220D01*
X345998Y-811377D01*
X341477Y-825246D01*
X338734Y-839520D01*
X337820Y-854049D01*
X338734Y-868578D01*
X341477Y-882903D01*
X345998Y-896721D01*
X352196Y-909878D01*
X359968Y-922172D01*
X369265Y-933399D01*
X379882Y-943356D01*
X391617Y-951890D01*
X404368Y-958900D01*
X417931Y-964285D01*
X432003Y-967892D01*
G37*
G36*
X999947Y-593699D02*
G01*
X1018743Y-593699D01*
X1037488Y-591820D01*
X1055928Y-588010D01*
X1073912Y-582371D01*
X1091234Y-574954D01*
X1107694Y-565810D01*
X1123137Y-555040D01*
X1137412Y-542798D01*
X1150416Y-529132D01*
X1161897Y-514248D01*
X1171905Y-498246D01*
X1180185Y-481380D01*
X1186738Y-463702D01*
X1191412Y-445465D01*
X1194308Y-426872D01*
X1195222Y-408076D01*
X1194308Y-389229D01*
X1191412Y-370636D01*
X1186738Y-352399D01*
X1180185Y-334721D01*
X1171905Y-317855D01*
X1161897Y-301853D01*
X1150416Y-286969D01*
X1137412Y-273304D01*
X1123137Y-261061D01*
X1107694Y-250291D01*
X1091234Y-241147D01*
X1073912Y-233730D01*
X1055928Y-228092D01*
X1037488Y-224282D01*
X1018743Y-222402D01*
X999947Y-222402D01*
X981202Y-224282D01*
X962761Y-228092D01*
X944778Y-233730D01*
X927455Y-241147D01*
X910996Y-250291D01*
X895553Y-261061D01*
X881278Y-273304D01*
X868273Y-286969D01*
X856792Y-301853D01*
X846785Y-317855D01*
X838504Y-334721D01*
X831951Y-352399D01*
X827278Y-370636D01*
X824382Y-389229D01*
X823468Y-408076D01*
X824382Y-426872D01*
X827278Y-445465D01*
X831951Y-463702D01*
X838504Y-481380D01*
X846785Y-498246D01*
X856792Y-514248D01*
X868273Y-529132D01*
X881278Y-542798D01*
X895553Y-555040D01*
X910996Y-565810D01*
X927455Y-574954D01*
X944778Y-582371D01*
X962761Y-588010D01*
X981202Y-591820D01*
G37*
G36*
X-1439875Y-202692D02*
G01*
X-1316024Y-202692D01*
X-1309674Y-201980D01*
X-1304239Y-200050D01*
X-1299311Y-196951D01*
X-1295247Y-192887D01*
X-1292148Y-187960D01*
X-1290218Y-182524D01*
X-1289558Y-176276D01*
X-1288491Y-172770D01*
X-1286306Y-169875D01*
X-1283208Y-167944D01*
X-1279652Y-167233D01*
X-1276096Y-167792D01*
X-1270508Y-169773D01*
X-1261719Y-171297D01*
X-1252880Y-171297D01*
X-1243990Y-169722D01*
X-1236218Y-167132D01*
X-1227480Y-162712D01*
X-1219708Y-156972D01*
X-1213053Y-150012D01*
X-1207668Y-141986D01*
X-1203655Y-133197D01*
X-1201267Y-123901D01*
X-1200404Y-114300D01*
X-1201267Y-104648D01*
X-1203655Y-95351D01*
X-1207668Y-86563D01*
X-1213053Y-78536D01*
X-1219708Y-71577D01*
X-1227480Y-65836D01*
X-1236116Y-61518D01*
X-1245311Y-58674D01*
X-1254861Y-57454D01*
X-1264513Y-57861D01*
X-1273962Y-59893D01*
X-1279296Y-61315D01*
X-1282954Y-60655D01*
X-1286154Y-58775D01*
X-1288440Y-55829D01*
X-1289558Y-52273D01*
X-1290218Y-46024D01*
X-1291336Y-41249D01*
X-1290269Y-36474D01*
X-1289558Y-30175D01*
X-1289558Y80873D01*
X-1289050Y84023D01*
X-1287627Y86817D01*
X-1285443Y89052D01*
X-1283208Y90678D01*
X-1276553Y97637D01*
X-1271168Y105664D01*
X-1267155Y114452D01*
X-1264767Y123748D01*
X-1263904Y133350D01*
X-1264767Y143002D01*
X-1267155Y152298D01*
X-1271168Y161086D01*
X-1276553Y169113D01*
X-1283208Y176072D01*
X-1290980Y181813D01*
X-1299616Y186131D01*
X-1308811Y188976D01*
X-1318361Y190195D01*
X-1328013Y189788D01*
X-1337462Y187756D01*
X-1346403Y184150D01*
X-1354632Y179120D01*
X-1361846Y172720D01*
X-1367942Y165201D01*
X-1372616Y156819D01*
X-1373632Y153924D01*
X-1376019Y150114D01*
X-1402994Y123139D01*
X-1406296Y120954D01*
X-1410208Y120192D01*
X-1439875Y120192D01*
X-1446225Y119481D01*
X-1451660Y117551D01*
X-1456588Y114503D01*
X-1460652Y110388D01*
X-1463751Y105511D01*
X-1465630Y100025D01*
X-1466342Y93726D01*
X-1466342Y-30175D01*
X-1465630Y-36474D01*
X-1464564Y-41249D01*
X-1465630Y-46024D01*
X-1466342Y-52324D01*
X-1466342Y-176174D01*
X-1465630Y-182524D01*
X-1463700Y-187960D01*
X-1460652Y-192887D01*
X-1456537Y-196951D01*
X-1451660Y-200050D01*
X-1446174Y-201980D01*
G37*
G36*
X-829919Y204368D02*
G01*
X-706069Y204368D01*
X-699719Y205079D01*
X-694283Y207010D01*
X-689356Y210058D01*
X-685292Y214172D01*
X-682193Y219049D01*
X-680008Y225348D01*
X-677875Y228904D01*
X-674471Y231292D01*
X-670407Y232156D01*
X-665429Y232156D01*
X-661822Y231495D01*
X-658723Y229616D01*
X-656132Y227329D01*
X-647903Y222300D01*
X-638962Y218694D01*
X-629513Y216662D01*
X-619861Y216255D01*
X-610311Y217474D01*
X-601116Y220319D01*
X-592480Y224637D01*
X-584708Y230378D01*
X-578053Y237337D01*
X-572668Y245364D01*
X-568655Y254152D01*
X-566267Y263448D01*
X-565404Y273050D01*
X-566267Y282702D01*
X-568655Y291998D01*
X-572668Y300786D01*
X-578053Y308813D01*
X-584708Y315772D01*
X-592480Y321513D01*
X-601116Y325831D01*
X-610311Y328676D01*
X-619861Y329895D01*
X-629513Y329488D01*
X-638962Y327456D01*
X-647903Y323850D01*
X-656132Y318820D01*
X-658723Y316484D01*
X-661822Y314655D01*
X-665429Y313994D01*
X-669391Y313994D01*
X-673303Y314756D01*
X-676605Y316941D01*
X-678789Y320243D01*
X-679551Y324154D01*
X-679551Y354685D01*
X-680262Y361035D01*
X-681380Y365810D01*
X-680313Y370586D01*
X-679602Y376885D01*
X-679602Y500735D01*
X-680364Y507542D01*
X-680923Y509828D01*
X-681024Y514248D01*
X-679246Y518261D01*
X-675894Y521208D01*
X-671626Y522376D01*
X-667258Y521665D01*
X-657606Y517804D01*
X-648208Y515772D01*
X-638556Y515366D01*
X-629005Y516585D01*
X-619760Y519430D01*
X-611174Y523748D01*
X-603402Y529488D01*
X-596696Y536448D01*
X-591312Y544474D01*
X-587349Y553262D01*
X-584911Y562559D01*
X-584098Y572160D01*
X-584911Y581812D01*
X-587349Y591108D01*
X-591312Y599897D01*
X-596696Y607923D01*
X-603402Y614883D01*
X-611174Y620623D01*
X-619760Y624941D01*
X-629005Y627786D01*
X-638556Y629005D01*
X-648208Y628599D01*
X-661517Y625805D01*
X-669391Y625805D01*
X-673303Y626567D01*
X-676605Y628751D01*
X-678789Y632053D01*
X-679551Y635965D01*
X-679551Y646785D01*
X-680262Y653135D01*
X-682193Y658571D01*
X-685292Y663498D01*
X-689356Y667562D01*
X-694283Y670661D01*
X-699719Y672592D01*
X-706069Y673303D01*
X-829919Y673303D01*
X-836218Y672592D01*
X-841705Y670661D01*
X-846582Y667562D01*
X-850696Y663498D01*
X-853744Y658571D01*
X-855675Y653135D01*
X-856386Y646785D01*
X-856386Y522935D01*
X-855675Y516635D01*
X-854608Y511860D01*
X-855675Y507085D01*
X-856335Y501446D01*
X-857402Y497941D01*
X-859637Y495046D01*
X-862787Y493115D01*
X-866394Y492455D01*
X-889711Y492455D01*
X-892911Y492963D01*
X-895756Y494436D01*
X-903274Y499973D01*
X-911860Y504291D01*
X-921105Y507136D01*
X-930656Y508355D01*
X-940308Y507949D01*
X-949706Y505917D01*
X-958697Y502310D01*
X-966876Y497281D01*
X-974140Y490880D01*
X-980186Y483362D01*
X-984910Y474980D01*
X-988110Y465886D01*
X-989736Y456336D01*
X-989736Y446735D01*
X-988110Y437184D01*
X-984910Y428091D01*
X-980186Y419709D01*
X-974140Y412191D01*
X-966876Y405790D01*
X-958697Y400761D01*
X-949706Y397154D01*
X-940308Y395122D01*
X-930656Y394716D01*
X-921105Y395935D01*
X-911860Y398780D01*
X-903274Y403098D01*
X-895807Y408635D01*
X-892911Y410108D01*
X-889762Y410616D01*
X-866546Y410616D01*
X-862685Y409854D01*
X-859383Y407670D01*
X-857199Y404368D01*
X-856386Y400456D01*
X-856386Y376885D01*
X-855675Y370586D01*
X-854608Y365760D01*
X-855675Y361035D01*
X-856386Y354685D01*
X-856386Y230835D01*
X-855675Y224536D01*
X-853744Y219049D01*
X-850696Y214172D01*
X-846582Y210058D01*
X-841705Y207010D01*
X-836218Y205079D01*
G37*
G36*
X-1558188Y382879D02*
G01*
X-1548638Y384098D01*
X-1539392Y386943D01*
X-1530807Y391261D01*
X-1523034Y397002D01*
X-1516329Y403961D01*
X-1510944Y411988D01*
X-1506982Y420776D01*
X-1504543Y430072D01*
X-1503730Y439674D01*
X-1504543Y449326D01*
X-1506982Y458622D01*
X-1510944Y467410D01*
X-1516329Y475437D01*
X-1523034Y482396D01*
X-1530807Y488137D01*
X-1539392Y492455D01*
X-1548638Y495300D01*
X-1558188Y496519D01*
X-1567840Y496112D01*
X-1577238Y494080D01*
X-1586230Y490474D01*
X-1594408Y485444D01*
X-1601673Y479043D01*
X-1607718Y471525D01*
X-1612442Y463143D01*
X-1615643Y454050D01*
X-1617268Y444500D01*
X-1617268Y434898D01*
X-1615643Y425348D01*
X-1612442Y416255D01*
X-1607718Y407873D01*
X-1601673Y400354D01*
X-1594408Y393954D01*
X-1586230Y388924D01*
X-1577238Y385318D01*
X-1567840Y383286D01*
G37*
G36*
X-1830222Y695858D02*
G01*
X-1820519Y696722D01*
X-1811121Y699262D01*
X-1802282Y703376D01*
X-1794306Y708964D01*
X-1787448Y715822D01*
X-1781860Y723798D01*
X-1777746Y732637D01*
X-1775206Y742035D01*
X-1774342Y751738D01*
X-1775206Y761441D01*
X-1777746Y770839D01*
X-1781860Y779678D01*
X-1787448Y787654D01*
X-1794306Y794512D01*
X-1802282Y800100D01*
X-1811121Y804214D01*
X-1820519Y806754D01*
X-1830222Y807618D01*
X-1839925Y806754D01*
X-1849323Y804214D01*
X-1858162Y800100D01*
X-1866138Y794512D01*
X-1872996Y787654D01*
X-1878584Y779678D01*
X-1882698Y770839D01*
X-1885238Y761441D01*
X-1886102Y751738D01*
X-1885238Y742035D01*
X-1882698Y732637D01*
X-1878584Y723798D01*
X-1872996Y715822D01*
X-1866138Y708964D01*
X-1858162Y703376D01*
X-1849323Y699262D01*
X-1839925Y696722D01*
G37*
G36*
X-1827682Y839876D02*
G01*
X-1817979Y840740D01*
X-1808581Y843280D01*
X-1799742Y847394D01*
X-1791766Y852982D01*
X-1784908Y859840D01*
X-1779320Y867816D01*
X-1775206Y876655D01*
X-1772666Y886053D01*
X-1771802Y895756D01*
X-1772666Y905459D01*
X-1775206Y914857D01*
X-1779320Y923696D01*
X-1784908Y931671D01*
X-1791766Y938530D01*
X-1799742Y944118D01*
X-1808581Y948232D01*
X-1817979Y950772D01*
X-1827682Y951636D01*
X-1837385Y950772D01*
X-1846783Y948232D01*
X-1855622Y944118D01*
X-1863598Y938530D01*
X-1870456Y931671D01*
X-1876043Y923696D01*
X-1880158Y914857D01*
X-1882698Y905459D01*
X-1883562Y895756D01*
X-1882698Y886053D01*
X-1880158Y876655D01*
X-1876043Y867816D01*
X-1870456Y859840D01*
X-1863598Y852982D01*
X-1855622Y847394D01*
X-1846783Y843280D01*
X-1837385Y840740D01*
G37*
G36*
X-1827682Y1233576D02*
G01*
X-1817979Y1234440D01*
X-1808581Y1236980D01*
X-1799742Y1241094D01*
X-1791766Y1246682D01*
X-1784908Y1253540D01*
X-1779320Y1261516D01*
X-1775206Y1270355D01*
X-1772666Y1279753D01*
X-1771802Y1289456D01*
X-1772666Y1299159D01*
X-1775206Y1308557D01*
X-1779320Y1317396D01*
X-1784908Y1325372D01*
X-1791766Y1332230D01*
X-1799742Y1337818D01*
X-1808581Y1341932D01*
X-1817979Y1344472D01*
X-1827682Y1345336D01*
X-1837385Y1344472D01*
X-1846783Y1341932D01*
X-1855622Y1337818D01*
X-1863598Y1332230D01*
X-1870456Y1325372D01*
X-1876043Y1317396D01*
X-1880158Y1308557D01*
X-1882698Y1299159D01*
X-1883562Y1289456D01*
X-1882698Y1279753D01*
X-1880158Y1270355D01*
X-1876043Y1261516D01*
X-1870456Y1253540D01*
X-1863598Y1246682D01*
X-1855622Y1241094D01*
X-1846783Y1236980D01*
X-1837385Y1234440D01*
G37*
G36*
X-842111Y1588109D02*
G01*
X-832561Y1589379D01*
X-823366Y1592173D01*
X-814730Y1596542D01*
X-806958Y1602282D01*
X-800303Y1609242D01*
X-794918Y1617218D01*
X-790905Y1626006D01*
X-788517Y1635353D01*
X-788060Y1640179D01*
X-787196Y1643583D01*
X-785164Y1646529D01*
X-600100Y1831543D01*
X-594664Y1838147D01*
X-590905Y1845208D01*
X-588568Y1852879D01*
X-587756Y1861362D01*
X-587756Y1961946D01*
X-588568Y1970430D01*
X-590905Y1978101D01*
X-594664Y1985162D01*
X-600100Y1991715D01*
X-632764Y2024380D01*
X-634796Y2027275D01*
X-635660Y2030730D01*
X-636117Y2035556D01*
X-638505Y2044903D01*
X-642518Y2053691D01*
X-647903Y2061667D01*
X-654558Y2068626D01*
X-662330Y2074367D01*
X-670966Y2078736D01*
X-680161Y2081530D01*
X-687882Y2082546D01*
X-691083Y2083511D01*
X-693775Y2085441D01*
X-740308Y2131923D01*
X-742645Y2135632D01*
X-744067Y2149856D01*
X-746455Y2159203D01*
X-750468Y2167991D01*
X-755853Y2175967D01*
X-762508Y2182926D01*
X-770280Y2188667D01*
X-778916Y2193036D01*
X-788111Y2195830D01*
X-795832Y2196846D01*
X-799033Y2197811D01*
X-801725Y2199741D01*
X-829208Y2227173D01*
X-831545Y2230882D01*
X-832967Y2245106D01*
X-835355Y2254453D01*
X-839368Y2263241D01*
X-844753Y2271217D01*
X-851408Y2278176D01*
X-859180Y2283917D01*
X-867816Y2288286D01*
X-877011Y2291080D01*
X-884478Y2292045D01*
X-887679Y2293010D01*
X-890371Y2294940D01*
X-1187907Y2592476D01*
X-1190091Y2595778D01*
X-1190904Y2599639D01*
X-1190904Y3452164D01*
X-1190091Y3456076D01*
X-1187907Y3459378D01*
X-1184605Y3461562D01*
X-1180744Y3462324D01*
X-1169974Y3462324D01*
X-1163675Y3463036D01*
X-1158900Y3464102D01*
X-1154125Y3463036D01*
X-1147775Y3462324D01*
X-1023924Y3462324D01*
X-1017625Y3463036D01*
X-1012139Y3464966D01*
X-1007262Y3468014D01*
X-1003147Y3472129D01*
X-1000048Y3477006D01*
X-998169Y3482492D01*
X-997458Y3488791D01*
X-997458Y3612692D01*
X-998169Y3618992D01*
X-1000048Y3624478D01*
X-1003147Y3629355D01*
X-1007262Y3633470D01*
X-1012139Y3636518D01*
X-1017625Y3638448D01*
X-1020318Y3638753D01*
X-1023874Y3639820D01*
X-1026769Y3642055D01*
X-1028700Y3645204D01*
X-1029360Y3648862D01*
X-1029360Y3820464D01*
X-1028547Y3824376D01*
X-1026363Y3827678D01*
X-1023061Y3829862D01*
X-1019200Y3830624D01*
X-980846Y3830624D01*
X-974496Y3831336D01*
X-969060Y3833266D01*
X-964133Y3836314D01*
X-960069Y3840429D01*
X-956970Y3845306D01*
X-955090Y3850792D01*
X-954379Y3857091D01*
X-954379Y4035958D01*
X-955090Y4042308D01*
X-956970Y4047744D01*
X-960069Y4052671D01*
X-964133Y4056735D01*
X-969060Y4059834D01*
X-974496Y4061714D01*
X-980846Y4062425D01*
X-1159713Y4062425D01*
X-1166012Y4061714D01*
X-1171498Y4059834D01*
X-1176375Y4056735D01*
X-1180490Y4052671D01*
X-1183538Y4047744D01*
X-1185468Y4042308D01*
X-1186180Y4035958D01*
X-1186180Y3857091D01*
X-1185468Y3850792D01*
X-1183538Y3845306D01*
X-1180490Y3840429D01*
X-1176375Y3836314D01*
X-1171498Y3833266D01*
X-1166012Y3831336D01*
X-1159713Y3830624D01*
X-1121308Y3830624D01*
X-1117447Y3829862D01*
X-1114145Y3827678D01*
X-1111910Y3824376D01*
X-1111148Y3820464D01*
X-1111148Y3649319D01*
X-1111910Y3645408D01*
X-1114145Y3642106D01*
X-1117447Y3639921D01*
X-1121308Y3639159D01*
X-1147775Y3639159D01*
X-1154125Y3638448D01*
X-1158849Y3637381D01*
X-1163675Y3638448D01*
X-1169974Y3639159D01*
X-1293825Y3639159D01*
X-1300175Y3638448D01*
X-1304950Y3637381D01*
X-1309725Y3638448D01*
X-1316024Y3639159D01*
X-1371346Y3639159D01*
X-1375206Y3639921D01*
X-1378508Y3642106D01*
X-1380744Y3645408D01*
X-1381506Y3649319D01*
X-1381506Y3849065D01*
X-1380642Y3853129D01*
X-1378254Y3856532D01*
X-1366774Y3867200D01*
X-1357528Y3878427D01*
X-1349705Y3890721D01*
X-1343507Y3903878D01*
X-1339037Y3917696D01*
X-1336294Y3932021D01*
X-1335379Y3946550D01*
X-1336294Y3961079D01*
X-1339037Y3975354D01*
X-1343507Y3989222D01*
X-1349705Y4002379D01*
X-1357528Y4014673D01*
X-1366774Y4025849D01*
X-1377391Y4035856D01*
X-1389176Y4044391D01*
X-1401927Y4051401D01*
X-1415440Y4056735D01*
X-1429562Y4060393D01*
X-1443990Y4062222D01*
X-1458518Y4062222D01*
X-1472996Y4060393D01*
X-1487068Y4056735D01*
X-1500632Y4051401D01*
X-1513382Y4044391D01*
X-1525117Y4035856D01*
X-1535734Y4025849D01*
X-1545031Y4014673D01*
X-1552803Y4002379D01*
X-1559001Y3989222D01*
X-1563522Y3975354D01*
X-1566265Y3961079D01*
X-1567180Y3946550D01*
X-1566265Y3932021D01*
X-1563522Y3917696D01*
X-1559001Y3903878D01*
X-1552803Y3890721D01*
X-1545031Y3878427D01*
X-1535734Y3867200D01*
X-1525117Y3857244D01*
X-1513382Y3848709D01*
X-1500632Y3841699D01*
X-1487068Y3836314D01*
X-1468729Y3831488D01*
X-1465834Y3829253D01*
X-1463954Y3826103D01*
X-1463294Y3822547D01*
X-1463294Y3627374D01*
X-1463903Y3624021D01*
X-1465630Y3618992D01*
X-1466342Y3612692D01*
X-1466342Y3488791D01*
X-1465630Y3482492D01*
X-1463751Y3477006D01*
X-1460652Y3472129D01*
X-1456588Y3468014D01*
X-1451660Y3464966D01*
X-1446225Y3463036D01*
X-1439875Y3462324D01*
X-1316024Y3462324D01*
X-1309725Y3463036D01*
X-1304899Y3464102D01*
X-1300175Y3463036D01*
X-1293825Y3462324D01*
X-1282852Y3462324D01*
X-1278991Y3461562D01*
X-1275689Y3459378D01*
X-1273454Y3456076D01*
X-1272692Y3452164D01*
X-1272692Y2579014D01*
X-1271879Y2570530D01*
X-1269542Y2562860D01*
X-1265783Y2555798D01*
X-1260348Y2549245D01*
X-948639Y2237486D01*
X-946810Y2234946D01*
X-945794Y2231948D01*
X-944016Y2221128D01*
X-940816Y2212086D01*
X-936142Y2203653D01*
X-930046Y2196134D01*
X-922832Y2189784D01*
X-914603Y2184704D01*
X-905662Y2181148D01*
X-899921Y2179878D01*
X-897178Y2178862D01*
X-894842Y2177135D01*
X-859739Y2142032D01*
X-857910Y2139492D01*
X-856894Y2136495D01*
X-855116Y2125929D01*
X-851916Y2116836D01*
X-847242Y2108403D01*
X-841146Y2100884D01*
X-833932Y2094534D01*
X-825703Y2089454D01*
X-816762Y2085898D01*
X-811022Y2084628D01*
X-808278Y2083612D01*
X-805942Y2081885D01*
X-751789Y2027732D01*
X-749960Y2025192D01*
X-748944Y2022195D01*
X-747166Y2011629D01*
X-743966Y2002536D01*
X-739292Y1994103D01*
X-733196Y1986584D01*
X-725982Y1980234D01*
X-717753Y1975154D01*
X-708812Y1971598D01*
X-699363Y1969566D01*
X-697331Y1969465D01*
X-693674Y1968601D01*
X-690575Y1966468D01*
X-672541Y1948484D01*
X-670356Y1945182D01*
X-669544Y1941271D01*
X-669544Y1881987D01*
X-670356Y1878126D01*
X-672541Y1874824D01*
X-842924Y1704441D01*
X-846023Y1702307D01*
X-849680Y1701444D01*
X-851763Y1701342D01*
X-861212Y1699310D01*
X-870153Y1695754D01*
X-878382Y1690674D01*
X-885596Y1684324D01*
X-891692Y1676806D01*
X-896366Y1668373D01*
X-899566Y1659280D01*
X-901192Y1649780D01*
X-901192Y1640128D01*
X-899566Y1630629D01*
X-896366Y1621536D01*
X-891692Y1613103D01*
X-885596Y1605584D01*
X-878382Y1599234D01*
X-870153Y1594154D01*
X-861212Y1590598D01*
X-851763Y1588566D01*
G37*
G36*
X-1826666Y1866544D02*
G01*
X-1816963Y1867407D01*
X-1807565Y1869948D01*
X-1798726Y1874062D01*
X-1790750Y1879650D01*
X-1783892Y1886508D01*
X-1778304Y1894484D01*
X-1774189Y1903323D01*
X-1771650Y1912721D01*
X-1770786Y1922424D01*
X-1771650Y1932127D01*
X-1774189Y1941525D01*
X-1778304Y1950364D01*
X-1783892Y1958339D01*
X-1790750Y1965198D01*
X-1798726Y1970786D01*
X-1807565Y1974900D01*
X-1816963Y1977440D01*
X-1826666Y1978304D01*
X-1836369Y1977440D01*
X-1845767Y1974900D01*
X-1854606Y1970786D01*
X-1862582Y1965198D01*
X-1869439Y1958339D01*
X-1875028Y1950364D01*
X-1879142Y1941525D01*
X-1881682Y1932127D01*
X-1882546Y1922424D01*
X-1881682Y1912721D01*
X-1879142Y1903323D01*
X-1875028Y1894484D01*
X-1869439Y1886508D01*
X-1862582Y1879650D01*
X-1854606Y1874062D01*
X-1845767Y1869948D01*
X-1836369Y1867407D01*
G37*
G36*
X999947Y2206294D02*
G01*
X1018743Y2206294D01*
X1037488Y2208174D01*
X1055928Y2211984D01*
X1073912Y2217623D01*
X1091234Y2225040D01*
X1107694Y2234184D01*
X1123137Y2244953D01*
X1137412Y2257196D01*
X1150416Y2270861D01*
X1161897Y2285746D01*
X1171905Y2301748D01*
X1180185Y2318613D01*
X1186738Y2336292D01*
X1191412Y2354529D01*
X1194308Y2373122D01*
X1195222Y2391918D01*
X1194308Y2410764D01*
X1191412Y2429357D01*
X1186738Y2447594D01*
X1180185Y2465273D01*
X1171905Y2482138D01*
X1161897Y2498140D01*
X1150416Y2513025D01*
X1137412Y2526690D01*
X1123137Y2538933D01*
X1107694Y2549702D01*
X1091234Y2558846D01*
X1073912Y2566263D01*
X1055928Y2571902D01*
X1037488Y2575712D01*
X1018743Y2577592D01*
X999947Y2577592D01*
X981202Y2575712D01*
X962761Y2571902D01*
X944778Y2566263D01*
X927455Y2558846D01*
X910996Y2549702D01*
X895553Y2538933D01*
X881278Y2526690D01*
X868273Y2513025D01*
X856792Y2498140D01*
X846785Y2482138D01*
X838504Y2465273D01*
X831951Y2447594D01*
X827278Y2429357D01*
X824382Y2410764D01*
X823468Y2391918D01*
X824382Y2373122D01*
X827278Y2354529D01*
X831951Y2336292D01*
X838504Y2318613D01*
X846785Y2301748D01*
X856792Y2285746D01*
X868273Y2270861D01*
X881278Y2257196D01*
X895553Y2244953D01*
X910996Y2234184D01*
X927455Y2225040D01*
X944778Y2217623D01*
X962761Y2211984D01*
X981202Y2208174D01*
G37*
G36*
X-524611Y2242159D02*
G01*
X-515061Y2243429D01*
X-505866Y2246223D01*
X-497230Y2250592D01*
X-489458Y2256332D01*
X-482803Y2263292D01*
X-477418Y2271268D01*
X-473405Y2280056D01*
X-471017Y2289403D01*
X-470154Y2299004D01*
X-471017Y2308606D01*
X-473405Y2317953D01*
X-477418Y2326741D01*
X-482803Y2334717D01*
X-489458Y2341676D01*
X-497230Y2347417D01*
X-505866Y2351786D01*
X-515061Y2354580D01*
X-524611Y2355850D01*
X-534263Y2355392D01*
X-543712Y2353360D01*
X-552653Y2349804D01*
X-560882Y2344724D01*
X-568096Y2338374D01*
X-574192Y2330856D01*
X-578866Y2322423D01*
X-582066Y2313330D01*
X-583692Y2303830D01*
X-583692Y2294178D01*
X-582066Y2284679D01*
X-578866Y2275586D01*
X-574192Y2267153D01*
X-568096Y2259634D01*
X-560882Y2253284D01*
X-552653Y2248204D01*
X-543712Y2244648D01*
X-534263Y2242616D01*
G37*
G36*
X-1847748Y2287676D02*
G01*
X-1838045Y2288540D01*
X-1828647Y2291080D01*
X-1819808Y2295194D01*
X-1811832Y2300782D01*
X-1804974Y2307640D01*
X-1799386Y2315616D01*
X-1795272Y2324455D01*
X-1792732Y2333853D01*
X-1791868Y2343556D01*
X-1792732Y2353259D01*
X-1795272Y2362657D01*
X-1799386Y2371496D01*
X-1804974Y2379472D01*
X-1811832Y2386330D01*
X-1819808Y2391918D01*
X-1828647Y2396032D01*
X-1838045Y2398572D01*
X-1847748Y2399436D01*
X-1857451Y2398572D01*
X-1866849Y2396032D01*
X-1875688Y2391918D01*
X-1883664Y2386330D01*
X-1890522Y2379472D01*
X-1896110Y2371496D01*
X-1900224Y2362657D01*
X-1902764Y2353259D01*
X-1903628Y2343556D01*
X-1902764Y2333853D01*
X-1900224Y2324455D01*
X-1896110Y2315616D01*
X-1890522Y2307640D01*
X-1883664Y2300782D01*
X-1875688Y2295194D01*
X-1866849Y2291080D01*
X-1857451Y2288540D01*
G37*
G36*
X644245Y2305202D02*
G01*
X657910Y2306116D01*
X671322Y2308809D01*
X684276Y2313178D01*
X696569Y2319223D01*
X707948Y2326843D01*
X718210Y2335885D01*
X727252Y2346147D01*
X734872Y2357526D01*
X740918Y2369820D01*
X745286Y2382774D01*
X747979Y2396185D01*
X748893Y2409850D01*
X747979Y2423515D01*
X745286Y2436926D01*
X740918Y2449880D01*
X734872Y2462174D01*
X727252Y2473553D01*
X718210Y2483815D01*
X707948Y2492857D01*
X696569Y2500477D01*
X684276Y2506522D01*
X671322Y2510891D01*
X657910Y2513584D01*
X644245Y2514498D01*
X630580Y2513584D01*
X617169Y2510891D01*
X604215Y2506522D01*
X591921Y2500477D01*
X580542Y2492857D01*
X570280Y2483815D01*
X561238Y2473553D01*
X553618Y2462174D01*
X547573Y2449880D01*
X543204Y2436926D01*
X540512Y2423515D01*
X539597Y2409850D01*
X540512Y2396185D01*
X543204Y2382774D01*
X547573Y2369820D01*
X553618Y2357526D01*
X561238Y2346147D01*
X570280Y2335885D01*
X580542Y2326843D01*
X591921Y2319223D01*
X604215Y2313178D01*
X617169Y2308809D01*
X630580Y2306116D01*
G37*
G36*
X-1828800Y2446324D02*
G01*
X-1819097Y2447188D01*
X-1809699Y2449677D01*
X-1800860Y2453792D01*
X-1792884Y2459380D01*
X-1786026Y2466289D01*
X-1780438Y2474264D01*
X-1776323Y2483104D01*
X-1773783Y2492502D01*
X-1772920Y2502204D01*
X-1773783Y2511907D01*
X-1776323Y2521305D01*
X-1780438Y2530144D01*
X-1786026Y2538120D01*
X-1792884Y2544978D01*
X-1800860Y2550566D01*
X-1809699Y2554681D01*
X-1819097Y2557221D01*
X-1828800Y2558084D01*
X-1838502Y2557221D01*
X-1847900Y2554681D01*
X-1856739Y2550566D01*
X-1864715Y2544978D01*
X-1871624Y2538120D01*
X-1877212Y2530144D01*
X-1881327Y2521305D01*
X-1883816Y2511907D01*
X-1884680Y2502204D01*
X-1883816Y2492502D01*
X-1881327Y2483104D01*
X-1877212Y2474264D01*
X-1871624Y2466289D01*
X-1864715Y2459380D01*
X-1856739Y2453792D01*
X-1847900Y2449677D01*
X-1838502Y2447188D01*
G37*
G36*
X-1445361Y3175609D02*
G01*
X-1435811Y3176879D01*
X-1426616Y3179673D01*
X-1417980Y3184042D01*
X-1410208Y3189782D01*
X-1403553Y3196742D01*
X-1398168Y3204718D01*
X-1394155Y3213506D01*
X-1391767Y3222853D01*
X-1390904Y3232454D01*
X-1391767Y3242056D01*
X-1394155Y3251403D01*
X-1398168Y3260191D01*
X-1403553Y3268167D01*
X-1410208Y3275126D01*
X-1417980Y3280867D01*
X-1426616Y3285236D01*
X-1435811Y3288029D01*
X-1443278Y3288995D01*
X-1446479Y3289960D01*
X-1449171Y3291890D01*
X-1602282Y3445001D01*
X-1604467Y3448304D01*
X-1605229Y3452164D01*
X-1604467Y3456076D01*
X-1602282Y3459378D01*
X-1598980Y3461562D01*
X-1595069Y3462324D01*
X-1582724Y3462324D01*
X-1576425Y3463036D01*
X-1570939Y3464966D01*
X-1566062Y3468014D01*
X-1561947Y3472129D01*
X-1558848Y3477006D01*
X-1556969Y3482492D01*
X-1556258Y3488791D01*
X-1556258Y3612692D01*
X-1556969Y3618992D01*
X-1558848Y3624478D01*
X-1561947Y3629355D01*
X-1566062Y3633470D01*
X-1570939Y3636518D01*
X-1576425Y3638448D01*
X-1582724Y3639159D01*
X-1593596Y3639159D01*
X-1597456Y3639921D01*
X-1600758Y3642106D01*
X-1602943Y3645408D01*
X-1603756Y3649319D01*
X-1603756Y3701846D01*
X-1604568Y3710330D01*
X-1606905Y3717950D01*
X-1610664Y3725011D01*
X-1616100Y3731615D01*
X-1661363Y3776929D01*
X-1663547Y3780180D01*
X-1664360Y3784092D01*
X-1664360Y3831437D01*
X-1663547Y3835400D01*
X-1661312Y3838701D01*
X-1657908Y3840886D01*
X-1655927Y3841699D01*
X-1643176Y3848709D01*
X-1631391Y3857244D01*
X-1620774Y3867200D01*
X-1611528Y3878427D01*
X-1603705Y3890721D01*
X-1597507Y3903878D01*
X-1593037Y3917696D01*
X-1590294Y3932021D01*
X-1589379Y3946550D01*
X-1590294Y3961079D01*
X-1593037Y3975354D01*
X-1597507Y3989222D01*
X-1603705Y4002379D01*
X-1611528Y4014673D01*
X-1620774Y4025849D01*
X-1631391Y4035856D01*
X-1643176Y4044391D01*
X-1655927Y4051401D01*
X-1669440Y4056735D01*
X-1683562Y4060393D01*
X-1697989Y4062222D01*
X-1712518Y4062222D01*
X-1726996Y4060393D01*
X-1741068Y4056735D01*
X-1754632Y4051401D01*
X-1767382Y4044391D01*
X-1779117Y4035856D01*
X-1789734Y4025849D01*
X-1799031Y4014673D01*
X-1806803Y4002379D01*
X-1813001Y3989222D01*
X-1817522Y3975354D01*
X-1820265Y3961079D01*
X-1821180Y3946550D01*
X-1820265Y3932021D01*
X-1817522Y3917696D01*
X-1813001Y3903878D01*
X-1806803Y3890721D01*
X-1799031Y3878427D01*
X-1789734Y3867200D01*
X-1779117Y3857244D01*
X-1767382Y3848709D01*
X-1754632Y3841699D01*
X-1752600Y3840886D01*
X-1749196Y3838701D01*
X-1746961Y3835349D01*
X-1746148Y3831437D01*
X-1746148Y3763416D01*
X-1745335Y3754983D01*
X-1742998Y3747312D01*
X-1739239Y3740251D01*
X-1733804Y3733647D01*
X-1688541Y3688384D01*
X-1686306Y3685082D01*
X-1685543Y3681171D01*
X-1685543Y3649319D01*
X-1686306Y3645408D01*
X-1688541Y3642106D01*
X-1691843Y3639921D01*
X-1695704Y3639159D01*
X-1706575Y3639159D01*
X-1712925Y3638448D01*
X-1717649Y3637381D01*
X-1722475Y3638448D01*
X-1728774Y3639159D01*
X-1852625Y3639159D01*
X-1858975Y3638448D01*
X-1863750Y3637381D01*
X-1868525Y3638448D01*
X-1874824Y3639159D01*
X-1908200Y3639159D01*
X-1912061Y3639921D01*
X-1915363Y3642106D01*
X-1917547Y3645408D01*
X-1918360Y3649319D01*
X-1918360Y3831437D01*
X-1917547Y3835400D01*
X-1915312Y3838701D01*
X-1911908Y3840886D01*
X-1909927Y3841699D01*
X-1897176Y3848709D01*
X-1885391Y3857244D01*
X-1874774Y3867200D01*
X-1865528Y3878427D01*
X-1857705Y3890721D01*
X-1851507Y3903878D01*
X-1847037Y3917696D01*
X-1844293Y3932021D01*
X-1843379Y3946550D01*
X-1844293Y3961079D01*
X-1847037Y3975354D01*
X-1851507Y3989222D01*
X-1857705Y4002379D01*
X-1865528Y4014673D01*
X-1874774Y4025849D01*
X-1885391Y4035856D01*
X-1897176Y4044391D01*
X-1909927Y4051401D01*
X-1923440Y4056735D01*
X-1937562Y4060393D01*
X-1951989Y4062222D01*
X-1966518Y4062222D01*
X-1980996Y4060393D01*
X-1995068Y4056735D01*
X-2008632Y4051401D01*
X-2021382Y4044391D01*
X-2033117Y4035856D01*
X-2043734Y4025849D01*
X-2053031Y4014673D01*
X-2060803Y4002379D01*
X-2067001Y3989222D01*
X-2071522Y3975354D01*
X-2074265Y3961079D01*
X-2075180Y3946550D01*
X-2074265Y3932021D01*
X-2071522Y3917696D01*
X-2067001Y3903878D01*
X-2060803Y3890721D01*
X-2053031Y3878427D01*
X-2043734Y3867200D01*
X-2033117Y3857244D01*
X-2021382Y3848709D01*
X-2008632Y3841699D01*
X-2006600Y3840886D01*
X-2003196Y3838701D01*
X-2000961Y3835349D01*
X-2000148Y3831437D01*
X-2000148Y3647338D01*
X-2001012Y3643274D01*
X-2003399Y3639870D01*
X-2006955Y3637737D01*
X-2010460Y3636518D01*
X-2015388Y3633470D01*
X-2019452Y3629355D01*
X-2022551Y3624478D01*
X-2024430Y3618992D01*
X-2025142Y3612692D01*
X-2025142Y3488791D01*
X-2024430Y3482492D01*
X-2022551Y3477006D01*
X-2019452Y3472129D01*
X-2015388Y3468014D01*
X-2010460Y3464966D01*
X-2005025Y3463036D01*
X-1998675Y3462324D01*
X-1874824Y3462324D01*
X-1868525Y3463036D01*
X-1863699Y3464102D01*
X-1858975Y3463036D01*
X-1852625Y3462324D01*
X-1796694Y3462324D01*
X-1792833Y3461562D01*
X-1789531Y3459378D01*
X-1750009Y3419906D01*
X-1743456Y3414471D01*
X-1736394Y3410712D01*
X-1728724Y3408375D01*
X-1720240Y3407562D01*
X-1684731Y3407562D01*
X-1680870Y3406749D01*
X-1677568Y3404565D01*
X-1507439Y3234436D01*
X-1505610Y3231896D01*
X-1504594Y3228898D01*
X-1502816Y3218078D01*
X-1499616Y3209036D01*
X-1494942Y3200603D01*
X-1488846Y3193084D01*
X-1481632Y3186734D01*
X-1473403Y3181654D01*
X-1464462Y3178098D01*
X-1455013Y3176066D01*
G37*
G36*
X-2988056Y3226816D02*
G01*
X-2978505Y3228035D01*
X-2969260Y3230880D01*
X-2960674Y3235198D01*
X-2952902Y3240938D01*
X-2946196Y3247898D01*
X-2940812Y3255924D01*
X-2936849Y3264712D01*
X-2934411Y3274009D01*
X-2933598Y3283610D01*
X-2934411Y3293262D01*
X-2936849Y3302558D01*
X-2940812Y3311347D01*
X-2946196Y3319373D01*
X-2952902Y3326333D01*
X-2960674Y3332073D01*
X-2969260Y3336391D01*
X-2978505Y3339236D01*
X-2988056Y3340455D01*
X-2997708Y3340049D01*
X-3007106Y3338017D01*
X-3016097Y3334410D01*
X-3024276Y3329381D01*
X-3031540Y3322980D01*
X-3037586Y3315462D01*
X-3042310Y3307079D01*
X-3045510Y3297986D01*
X-3047136Y3288436D01*
X-3047136Y3278835D01*
X-3045510Y3269284D01*
X-3042310Y3260191D01*
X-3037586Y3251809D01*
X-3031540Y3244291D01*
X-3024276Y3237890D01*
X-3016097Y3232861D01*
X-3007106Y3229254D01*
X-2997708Y3227222D01*
G37*
G36*
X-2443175Y3315462D02*
G01*
X-2319324Y3315462D01*
X-2313025Y3316173D01*
X-2307539Y3318103D01*
X-2302662Y3321202D01*
X-2298547Y3325266D01*
X-2295499Y3330194D01*
X-2293569Y3335629D01*
X-2292858Y3341979D01*
X-2292858Y3352850D01*
X-2292096Y3356711D01*
X-2289860Y3360013D01*
X-2286609Y3362198D01*
X-2282698Y3363010D01*
X-2131923Y3363010D01*
X-2127859Y3362147D01*
X-2124456Y3359759D01*
X-2117242Y3346653D01*
X-2111146Y3339134D01*
X-2103932Y3332784D01*
X-2095703Y3327704D01*
X-2086762Y3324148D01*
X-2077313Y3322116D01*
X-2067661Y3321659D01*
X-2058111Y3322929D01*
X-2048916Y3325723D01*
X-2040280Y3330092D01*
X-2032507Y3335832D01*
X-2025853Y3342792D01*
X-2020468Y3350768D01*
X-2016455Y3359556D01*
X-2014067Y3368903D01*
X-2013204Y3378504D01*
X-2014067Y3388106D01*
X-2016455Y3397453D01*
X-2020468Y3406241D01*
X-2025853Y3414217D01*
X-2032507Y3421176D01*
X-2040280Y3426917D01*
X-2048916Y3431286D01*
X-2058111Y3434079D01*
X-2067153Y3435248D01*
X-2069896Y3436010D01*
X-2072792Y3437890D01*
X-2079853Y3441649D01*
X-2087524Y3443986D01*
X-2096007Y3444798D01*
X-2159254Y3444798D01*
X-2163216Y3445611D01*
X-2166569Y3447897D01*
X-2168753Y3451301D01*
X-2169414Y3455314D01*
X-2168499Y3459226D01*
X-2166112Y3462477D01*
X-2161489Y3464966D01*
X-2156612Y3468014D01*
X-2152497Y3472129D01*
X-2149398Y3477006D01*
X-2147519Y3482492D01*
X-2146808Y3488791D01*
X-2146808Y3612692D01*
X-2147519Y3618992D01*
X-2149398Y3624478D01*
X-2152497Y3629355D01*
X-2156612Y3633470D01*
X-2161489Y3636518D01*
X-2166975Y3638448D01*
X-2174443Y3639159D01*
X-2178354Y3639921D01*
X-2181656Y3642106D01*
X-2183841Y3645408D01*
X-2184603Y3649319D01*
X-2184603Y3826611D01*
X-2183841Y3830523D01*
X-2181555Y3833876D01*
X-2178202Y3836060D01*
X-2163927Y3841699D01*
X-2151176Y3848709D01*
X-2139391Y3857244D01*
X-2128774Y3867200D01*
X-2119528Y3878427D01*
X-2111705Y3890721D01*
X-2105507Y3903878D01*
X-2101037Y3917696D01*
X-2098294Y3932021D01*
X-2097379Y3946550D01*
X-2098294Y3961079D01*
X-2101037Y3975354D01*
X-2105507Y3989222D01*
X-2111705Y4002379D01*
X-2119528Y4014673D01*
X-2128774Y4025849D01*
X-2139391Y4035856D01*
X-2151176Y4044391D01*
X-2163927Y4051401D01*
X-2177440Y4056735D01*
X-2191562Y4060393D01*
X-2205990Y4062222D01*
X-2220518Y4062222D01*
X-2234996Y4060393D01*
X-2249068Y4056735D01*
X-2262632Y4051401D01*
X-2275382Y4044391D01*
X-2287117Y4035856D01*
X-2297734Y4025849D01*
X-2307031Y4014673D01*
X-2314803Y4002379D01*
X-2321001Y3989222D01*
X-2325522Y3975354D01*
X-2328265Y3961079D01*
X-2329180Y3946550D01*
X-2328265Y3932021D01*
X-2325522Y3917696D01*
X-2321001Y3903878D01*
X-2314803Y3890721D01*
X-2307031Y3878427D01*
X-2297734Y3867200D01*
X-2287117Y3857244D01*
X-2275382Y3848709D01*
X-2271725Y3846677D01*
X-2268931Y3844442D01*
X-2267102Y3841343D01*
X-2266442Y3837787D01*
X-2266442Y3649319D01*
X-2267204Y3645408D01*
X-2269439Y3642106D01*
X-2272690Y3639921D01*
X-2276602Y3639159D01*
X-2297125Y3639159D01*
X-2303475Y3638448D01*
X-2308199Y3637381D01*
X-2313025Y3638448D01*
X-2319324Y3639159D01*
X-2348941Y3639159D01*
X-2353208Y3640074D01*
X-2356713Y3642715D01*
X-2358745Y3646576D01*
X-2358999Y3650945D01*
X-2353005Y3664356D01*
X-2350617Y3673703D01*
X-2349754Y3683304D01*
X-2350617Y3692906D01*
X-2353005Y3702253D01*
X-2357018Y3711041D01*
X-2362403Y3719017D01*
X-2369058Y3725976D01*
X-2376830Y3731717D01*
X-2385466Y3736086D01*
X-2394661Y3738879D01*
X-2404211Y3740150D01*
X-2413863Y3739692D01*
X-2423312Y3737660D01*
X-2432253Y3734104D01*
X-2440482Y3729024D01*
X-2447696Y3722674D01*
X-2453792Y3715156D01*
X-2458466Y3706723D01*
X-2461666Y3697630D01*
X-2463292Y3688130D01*
X-2463292Y3678478D01*
X-2461666Y3668979D01*
X-2458466Y3659886D01*
X-2455316Y3654196D01*
X-2454046Y3650183D01*
X-2454554Y3646017D01*
X-2456688Y3642360D01*
X-2460091Y3639921D01*
X-2464206Y3639058D01*
X-2476296Y3639159D01*
X-2480157Y3639921D01*
X-2483459Y3642156D01*
X-2485644Y3645458D01*
X-2486406Y3649319D01*
X-2486406Y3689096D01*
X-2487218Y3697579D01*
X-2489555Y3705250D01*
X-2493314Y3712311D01*
X-2498750Y3718864D01*
X-2634894Y3855059D01*
X-2637028Y3858107D01*
X-2637840Y3861765D01*
X-2637332Y3865473D01*
X-2635554Y3868724D01*
X-2627528Y3878427D01*
X-2619705Y3890721D01*
X-2613507Y3903878D01*
X-2609037Y3917696D01*
X-2606294Y3932021D01*
X-2605379Y3946550D01*
X-2606294Y3961079D01*
X-2609037Y3975354D01*
X-2613507Y3989222D01*
X-2619705Y4002379D01*
X-2627528Y4014673D01*
X-2636774Y4025849D01*
X-2647391Y4035856D01*
X-2659176Y4044391D01*
X-2671927Y4051401D01*
X-2685440Y4056735D01*
X-2699562Y4060393D01*
X-2713990Y4062222D01*
X-2728518Y4062222D01*
X-2742996Y4060393D01*
X-2757068Y4056735D01*
X-2770632Y4051401D01*
X-2783382Y4044391D01*
X-2795117Y4035856D01*
X-2805734Y4025849D01*
X-2815031Y4014673D01*
X-2822803Y4002379D01*
X-2829001Y3989222D01*
X-2833522Y3975354D01*
X-2836265Y3961079D01*
X-2837180Y3946550D01*
X-2836265Y3932021D01*
X-2833522Y3917696D01*
X-2829001Y3903878D01*
X-2822803Y3890721D01*
X-2815031Y3878427D01*
X-2805734Y3867200D01*
X-2795117Y3857244D01*
X-2783382Y3848709D01*
X-2770632Y3841699D01*
X-2757068Y3836314D01*
X-2742996Y3832707D01*
X-2729585Y3831031D01*
X-2726385Y3830065D01*
X-2723642Y3828135D01*
X-2709113Y3813606D01*
X-2706776Y3809949D01*
X-2706166Y3805682D01*
X-2707386Y3801516D01*
X-2710230Y3798265D01*
X-2714193Y3796487D01*
X-2721762Y3794810D01*
X-2730703Y3791254D01*
X-2738932Y3786174D01*
X-2741371Y3784041D01*
X-2744470Y3782161D01*
X-2748026Y3781501D01*
X-3181908Y3779265D01*
X-3190392Y3778402D01*
X-3198063Y3776014D01*
X-3205073Y3772204D01*
X-3211372Y3767023D01*
X-3215436Y3762197D01*
X-3299917Y3646779D01*
X-3302152Y3644544D01*
X-3304997Y3643122D01*
X-3308096Y3642614D01*
X-3371138Y3642614D01*
X-3377488Y3641902D01*
X-3382264Y3640836D01*
X-3387039Y3641902D01*
X-3393338Y3642614D01*
X-3517188Y3642614D01*
X-3523538Y3641902D01*
X-3528974Y3639972D01*
X-3533901Y3636924D01*
X-3537965Y3632809D01*
X-3541064Y3627932D01*
X-3542944Y3622446D01*
X-3543655Y3616147D01*
X-3543655Y3492246D01*
X-3542944Y3485946D01*
X-3541064Y3480460D01*
X-3537965Y3475583D01*
X-3533901Y3471468D01*
X-3528974Y3468420D01*
X-3523538Y3466490D01*
X-3517188Y3465779D01*
X-3393338Y3465779D01*
X-3387039Y3466490D01*
X-3382213Y3467557D01*
X-3377488Y3466490D01*
X-3371138Y3465779D01*
X-3247288Y3465779D01*
X-3240989Y3466490D01*
X-3236214Y3467557D01*
X-3231438Y3466490D01*
X-3225088Y3465779D01*
X-3101238Y3465779D01*
X-3094939Y3466490D01*
X-3089452Y3468420D01*
X-3084576Y3471468D01*
X-3080461Y3475583D01*
X-3077362Y3480460D01*
X-3075482Y3485946D01*
X-3074771Y3492246D01*
X-3074771Y3616147D01*
X-3075482Y3622446D01*
X-3077362Y3627932D01*
X-3080461Y3632809D01*
X-3084576Y3636924D01*
X-3089452Y3639972D01*
X-3094939Y3641902D01*
X-3101238Y3642614D01*
X-3181553Y3642614D01*
X-3185871Y3643579D01*
X-3189376Y3646322D01*
X-3191408Y3650234D01*
X-3191510Y3654704D01*
X-3189732Y3658768D01*
X-3164382Y3693414D01*
X-3162147Y3695649D01*
X-3159353Y3697071D01*
X-3156254Y3697579D01*
X-2748432Y3699662D01*
X-2744825Y3699052D01*
X-2741676Y3697122D01*
X-2738932Y3694734D01*
X-2730703Y3689654D01*
X-2721762Y3686098D01*
X-2712313Y3684066D01*
X-2702661Y3683609D01*
X-2693111Y3684879D01*
X-2683916Y3687673D01*
X-2675280Y3692042D01*
X-2667508Y3697782D01*
X-2660853Y3704742D01*
X-2655468Y3712718D01*
X-2651455Y3721506D01*
X-2648813Y3731666D01*
X-2646934Y3735425D01*
X-2643632Y3738118D01*
X-2639568Y3739235D01*
X-2635351Y3738575D01*
X-2631795Y3736289D01*
X-2571191Y3675634D01*
X-2568956Y3672332D01*
X-2568194Y3668471D01*
X-2568194Y3649319D01*
X-2568956Y3645408D01*
X-2571191Y3642106D01*
X-2574493Y3639921D01*
X-2578354Y3639159D01*
X-2589225Y3639159D01*
X-2595575Y3638448D01*
X-2601010Y3636518D01*
X-2605938Y3633470D01*
X-2610002Y3629355D01*
X-2613101Y3624478D01*
X-2614980Y3618992D01*
X-2615692Y3612692D01*
X-2615692Y3488791D01*
X-2614980Y3482492D01*
X-2613101Y3477006D01*
X-2610002Y3472129D01*
X-2605938Y3468014D01*
X-2601010Y3464966D01*
X-2595575Y3463036D01*
X-2589225Y3462324D01*
X-2479852Y3462324D01*
X-2475941Y3461562D01*
X-2472639Y3459378D01*
X-2470454Y3456076D01*
X-2469692Y3452164D01*
X-2469692Y3341979D01*
X-2468981Y3335629D01*
X-2467051Y3330194D01*
X-2463952Y3325266D01*
X-2459888Y3321202D01*
X-2454960Y3318103D01*
X-2449525Y3316173D01*
G37*
G36*
X566064Y3321202D02*
G01*
X722426Y3321202D01*
X728726Y3321913D01*
X734212Y3323844D01*
X739089Y3326892D01*
X743204Y3331006D01*
X746252Y3335883D01*
X748182Y3341370D01*
X748893Y3347669D01*
X748893Y3504031D01*
X748182Y3510330D01*
X746252Y3515817D01*
X743204Y3520694D01*
X739089Y3524808D01*
X734212Y3527856D01*
X728726Y3529787D01*
X722426Y3530498D01*
X566064Y3530498D01*
X559765Y3529787D01*
X554278Y3527856D01*
X549402Y3524808D01*
X545287Y3520694D01*
X542239Y3515817D01*
X540308Y3510330D01*
X539597Y3504031D01*
X539597Y3347669D01*
X540308Y3341370D01*
X542239Y3335883D01*
X545287Y3331006D01*
X549402Y3326892D01*
X554278Y3323844D01*
X559765Y3321913D01*
G37*
G36*
X-3752545Y3465626D02*
G01*
X-3742994Y3466846D01*
X-3733800Y3469690D01*
X-3725164Y3474008D01*
X-3717391Y3479749D01*
X-3710736Y3486708D01*
X-3705351Y3494735D01*
X-3701338Y3503523D01*
X-3698951Y3512820D01*
X-3698087Y3522421D01*
X-3698951Y3532073D01*
X-3701338Y3541369D01*
X-3705351Y3550158D01*
X-3710736Y3558184D01*
X-3717391Y3565144D01*
X-3725164Y3570884D01*
X-3733800Y3575202D01*
X-3742994Y3578047D01*
X-3752545Y3579266D01*
X-3762197Y3578860D01*
X-3771646Y3576828D01*
X-3780586Y3573221D01*
X-3788816Y3568192D01*
X-3796029Y3561791D01*
X-3802126Y3554272D01*
X-3806799Y3545890D01*
X-3810000Y3536797D01*
X-3811625Y3527247D01*
X-3811625Y3517646D01*
X-3810000Y3508095D01*
X-3806799Y3499002D01*
X-3802126Y3490620D01*
X-3796029Y3483101D01*
X-3788816Y3476701D01*
X-3780586Y3471672D01*
X-3771646Y3468065D01*
X-3762197Y3466033D01*
G37*
G36*
X-423011Y3747109D02*
G01*
X-413461Y3748379D01*
X-404266Y3751173D01*
X-395630Y3755542D01*
X-387858Y3761282D01*
X-381203Y3768242D01*
X-375818Y3776218D01*
X-371805Y3785006D01*
X-369417Y3794353D01*
X-368554Y3803954D01*
X-369417Y3813556D01*
X-371805Y3822903D01*
X-375259Y3830523D01*
X-376174Y3834637D01*
X-375361Y3838752D01*
X-372922Y3842156D01*
X-369316Y3844340D01*
X-365150Y3844848D01*
X-361137Y3843629D01*
X-357632Y3841699D01*
X-344068Y3836314D01*
X-329996Y3832707D01*
X-315518Y3830878D01*
X-300990Y3830878D01*
X-286562Y3832707D01*
X-272440Y3836314D01*
X-258927Y3841699D01*
X-246176Y3848709D01*
X-234391Y3857244D01*
X-223774Y3867200D01*
X-214528Y3878427D01*
X-206705Y3890721D01*
X-200507Y3903878D01*
X-196037Y3917696D01*
X-193294Y3932021D01*
X-192379Y3946550D01*
X-193294Y3961079D01*
X-196037Y3975354D01*
X-200507Y3989222D01*
X-206705Y4002379D01*
X-214528Y4014673D01*
X-223774Y4025849D01*
X-234391Y4035856D01*
X-246176Y4044391D01*
X-258927Y4051401D01*
X-272440Y4056735D01*
X-286562Y4060393D01*
X-300990Y4062222D01*
X-315518Y4062222D01*
X-329996Y4060393D01*
X-344068Y4056735D01*
X-357632Y4051401D01*
X-370382Y4044391D01*
X-382117Y4035856D01*
X-392734Y4025849D01*
X-402031Y4014673D01*
X-409803Y4002379D01*
X-416001Y3989222D01*
X-420522Y3975354D01*
X-423265Y3961079D01*
X-424180Y3946550D01*
X-423265Y3932021D01*
X-420522Y3917696D01*
X-416001Y3903878D01*
X-409803Y3890721D01*
X-402031Y3878427D01*
X-398830Y3874566D01*
X-396849Y3870756D01*
X-396646Y3866438D01*
X-398221Y3862476D01*
X-401320Y3859479D01*
X-405333Y3858006D01*
X-409651Y3858361D01*
X-413461Y3859529D01*
X-423011Y3860800D01*
X-432663Y3860342D01*
X-442112Y3858310D01*
X-451053Y3854754D01*
X-459282Y3849674D01*
X-466496Y3843324D01*
X-472592Y3835806D01*
X-477266Y3827373D01*
X-480466Y3818280D01*
X-482092Y3808780D01*
X-482092Y3799128D01*
X-480466Y3789629D01*
X-477266Y3780536D01*
X-472592Y3772103D01*
X-466496Y3764584D01*
X-459282Y3758234D01*
X-451053Y3753154D01*
X-442112Y3749598D01*
X-432663Y3747566D01*
G37*
G36*
X-3826713Y3830624D02*
G01*
X-3647846Y3830624D01*
X-3641496Y3831336D01*
X-3636060Y3833266D01*
X-3631133Y3836314D01*
X-3627069Y3840429D01*
X-3623970Y3845306D01*
X-3622090Y3850792D01*
X-3621379Y3857091D01*
X-3621379Y4035958D01*
X-3622090Y4042308D01*
X-3623970Y4047744D01*
X-3627069Y4052671D01*
X-3631133Y4056735D01*
X-3636060Y4059834D01*
X-3641496Y4061714D01*
X-3647846Y4062425D01*
X-3826713Y4062425D01*
X-3833012Y4061714D01*
X-3838498Y4059834D01*
X-3843375Y4056735D01*
X-3847490Y4052671D01*
X-3850538Y4047744D01*
X-3852468Y4042308D01*
X-3853179Y4035958D01*
X-3853179Y3857091D01*
X-3852468Y3850792D01*
X-3850538Y3845306D01*
X-3847490Y3840429D01*
X-3843375Y3836314D01*
X-3838498Y3833266D01*
X-3833012Y3831336D01*
G37*
G36*
X700481Y3830878D02*
G01*
X715010Y3830878D01*
X729437Y3832707D01*
X743559Y3836314D01*
X757072Y3841699D01*
X769823Y3848709D01*
X781608Y3857244D01*
X792226Y3867200D01*
X801471Y3878427D01*
X809294Y3890721D01*
X815492Y3903878D01*
X819962Y3917696D01*
X822706Y3932021D01*
X823620Y3946550D01*
X822706Y3961079D01*
X819962Y3975354D01*
X815492Y3989222D01*
X809294Y4002379D01*
X801471Y4014673D01*
X792226Y4025849D01*
X781608Y4035856D01*
X769823Y4044391D01*
X757072Y4051401D01*
X743559Y4056735D01*
X729437Y4060393D01*
X715010Y4062222D01*
X700481Y4062222D01*
X686003Y4060393D01*
X671931Y4056735D01*
X658368Y4051401D01*
X645617Y4044391D01*
X633882Y4035856D01*
X623265Y4025849D01*
X613968Y4014673D01*
X606196Y4002379D01*
X599998Y3989222D01*
X595477Y3975354D01*
X592734Y3961079D01*
X591820Y3946550D01*
X592734Y3932021D01*
X595477Y3917696D01*
X599998Y3903878D01*
X606196Y3890721D01*
X613968Y3878427D01*
X623265Y3867200D01*
X633882Y3857244D01*
X645617Y3848709D01*
X658368Y3841699D01*
X671931Y3836314D01*
X686003Y3832707D01*
G37*
G36*
X446481Y3830878D02*
G01*
X461009Y3830878D01*
X475437Y3832707D01*
X489559Y3836314D01*
X503072Y3841699D01*
X515823Y3848709D01*
X527608Y3857244D01*
X538226Y3867200D01*
X547471Y3878427D01*
X555294Y3890721D01*
X561492Y3903878D01*
X565962Y3917696D01*
X568706Y3932021D01*
X569620Y3946550D01*
X568706Y3961079D01*
X565962Y3975354D01*
X561492Y3989222D01*
X555294Y4002379D01*
X547471Y4014673D01*
X538226Y4025849D01*
X527608Y4035856D01*
X515823Y4044391D01*
X503072Y4051401D01*
X489559Y4056735D01*
X475437Y4060393D01*
X461009Y4062222D01*
X446481Y4062222D01*
X432003Y4060393D01*
X417931Y4056735D01*
X404368Y4051401D01*
X391617Y4044391D01*
X379882Y4035856D01*
X369265Y4025849D01*
X359968Y4014673D01*
X352196Y4002379D01*
X345998Y3989222D01*
X341477Y3975354D01*
X338734Y3961079D01*
X337820Y3946550D01*
X338734Y3932021D01*
X341477Y3917696D01*
X345998Y3903878D01*
X352196Y3890721D01*
X359968Y3878427D01*
X369265Y3867200D01*
X379882Y3857244D01*
X391617Y3848709D01*
X404368Y3841699D01*
X417931Y3836314D01*
X432003Y3832707D01*
G37*
G36*
X-823518Y3830878D02*
G01*
X-808990Y3830878D01*
X-794562Y3832707D01*
X-780440Y3836314D01*
X-766927Y3841699D01*
X-754176Y3848709D01*
X-742391Y3857244D01*
X-731774Y3867200D01*
X-722528Y3878427D01*
X-714705Y3890721D01*
X-708507Y3903878D01*
X-704037Y3917696D01*
X-701294Y3932021D01*
X-700379Y3946550D01*
X-701294Y3961079D01*
X-704037Y3975354D01*
X-708507Y3989222D01*
X-714705Y4002379D01*
X-722528Y4014673D01*
X-731774Y4025849D01*
X-742391Y4035856D01*
X-754176Y4044391D01*
X-766927Y4051401D01*
X-780440Y4056735D01*
X-794562Y4060393D01*
X-808990Y4062222D01*
X-823518Y4062222D01*
X-837996Y4060393D01*
X-852068Y4056735D01*
X-865632Y4051401D01*
X-878382Y4044391D01*
X-890117Y4035856D01*
X-900734Y4025849D01*
X-910031Y4014673D01*
X-917803Y4002379D01*
X-924001Y3989222D01*
X-928522Y3975354D01*
X-931265Y3961079D01*
X-932180Y3946550D01*
X-931265Y3932021D01*
X-928522Y3917696D01*
X-924001Y3903878D01*
X-917803Y3890721D01*
X-910031Y3878427D01*
X-900734Y3867200D01*
X-890117Y3857244D01*
X-878382Y3848709D01*
X-865632Y3841699D01*
X-852068Y3836314D01*
X-837996Y3832707D01*
G37*
G36*
X-2474518Y3830878D02*
G01*
X-2459990Y3830878D01*
X-2445562Y3832707D01*
X-2431440Y3836314D01*
X-2417927Y3841699D01*
X-2405176Y3848709D01*
X-2393391Y3857244D01*
X-2382774Y3867200D01*
X-2373528Y3878427D01*
X-2365705Y3890721D01*
X-2359507Y3903878D01*
X-2355037Y3917696D01*
X-2352294Y3932021D01*
X-2351379Y3946550D01*
X-2352294Y3961079D01*
X-2355037Y3975354D01*
X-2359507Y3989222D01*
X-2365705Y4002379D01*
X-2373528Y4014673D01*
X-2382774Y4025849D01*
X-2393391Y4035856D01*
X-2405176Y4044391D01*
X-2417927Y4051401D01*
X-2431440Y4056735D01*
X-2445562Y4060393D01*
X-2459990Y4062222D01*
X-2474518Y4062222D01*
X-2488996Y4060393D01*
X-2503068Y4056735D01*
X-2516632Y4051401D01*
X-2529382Y4044391D01*
X-2541117Y4035856D01*
X-2551734Y4025849D01*
X-2561031Y4014673D01*
X-2568803Y4002379D01*
X-2575001Y3989222D01*
X-2579522Y3975354D01*
X-2582265Y3961079D01*
X-2583180Y3946550D01*
X-2582265Y3932021D01*
X-2579522Y3917696D01*
X-2575001Y3903878D01*
X-2568803Y3890721D01*
X-2561031Y3878427D01*
X-2551734Y3867200D01*
X-2541117Y3857244D01*
X-2529382Y3848709D01*
X-2516632Y3841699D01*
X-2503068Y3836314D01*
X-2488996Y3832707D01*
G37*
G36*
X-3236518Y3830878D02*
G01*
X-3221990Y3830878D01*
X-3207562Y3832707D01*
X-3193440Y3836314D01*
X-3179927Y3841699D01*
X-3167176Y3848709D01*
X-3155391Y3857244D01*
X-3144774Y3867200D01*
X-3135528Y3878427D01*
X-3127705Y3890721D01*
X-3121507Y3903878D01*
X-3117037Y3917696D01*
X-3114294Y3932021D01*
X-3113379Y3946550D01*
X-3114294Y3961079D01*
X-3117037Y3975354D01*
X-3121507Y3989222D01*
X-3127705Y4002379D01*
X-3135528Y4014673D01*
X-3144774Y4025849D01*
X-3155391Y4035856D01*
X-3167176Y4044391D01*
X-3179927Y4051401D01*
X-3193440Y4056735D01*
X-3207562Y4060393D01*
X-3221990Y4062222D01*
X-3236518Y4062222D01*
X-3250996Y4060393D01*
X-3265068Y4056735D01*
X-3278632Y4051401D01*
X-3291382Y4044391D01*
X-3303117Y4035856D01*
X-3313734Y4025849D01*
X-3323031Y4014673D01*
X-3330803Y4002379D01*
X-3337001Y3989222D01*
X-3341522Y3975354D01*
X-3344265Y3961079D01*
X-3345179Y3946550D01*
X-3344265Y3932021D01*
X-3341522Y3917696D01*
X-3337001Y3903878D01*
X-3330803Y3890721D01*
X-3323031Y3878427D01*
X-3313734Y3867200D01*
X-3303117Y3857244D01*
X-3291382Y3848709D01*
X-3278632Y3841699D01*
X-3265068Y3836314D01*
X-3250996Y3832707D01*
G37*
G36*
X-3490518Y3830878D02*
G01*
X-3475990Y3830878D01*
X-3461562Y3832707D01*
X-3447440Y3836314D01*
X-3433927Y3841699D01*
X-3421176Y3848709D01*
X-3409391Y3857244D01*
X-3398774Y3867200D01*
X-3389528Y3878427D01*
X-3381705Y3890721D01*
X-3375507Y3903878D01*
X-3371037Y3917696D01*
X-3368294Y3932021D01*
X-3367379Y3946550D01*
X-3368294Y3961079D01*
X-3371037Y3975354D01*
X-3375507Y3989222D01*
X-3381705Y4002379D01*
X-3389528Y4014673D01*
X-3398774Y4025849D01*
X-3409391Y4035856D01*
X-3421176Y4044391D01*
X-3433927Y4051401D01*
X-3447440Y4056735D01*
X-3461562Y4060393D01*
X-3475990Y4062222D01*
X-3490518Y4062222D01*
X-3504996Y4060393D01*
X-3519068Y4056735D01*
X-3532632Y4051401D01*
X-3545382Y4044391D01*
X-3557117Y4035856D01*
X-3567734Y4025849D01*
X-3577031Y4014673D01*
X-3584803Y4002379D01*
X-3591001Y3989222D01*
X-3595522Y3975354D01*
X-3598265Y3961079D01*
X-3599179Y3946550D01*
X-3598265Y3932021D01*
X-3595522Y3917696D01*
X-3591001Y3903878D01*
X-3584803Y3890721D01*
X-3577031Y3878427D01*
X-3567734Y3867200D01*
X-3557117Y3857244D01*
X-3545382Y3848709D01*
X-3532632Y3841699D01*
X-3519068Y3836314D01*
X-3504996Y3832707D01*
G37*

%LPD*%
G36*
X-4323943Y1385417D02*
G01*
X-4387443Y1334617D01*
X-4387443Y680567D01*
X-4323943Y629767D01*
X-3390493Y629767D01*
X-3365093Y655167D01*
X-3365093Y1360017D01*
X-3390493Y1385417D01*
G37*
G36*
X-3384550Y2921254D02*
G01*
X-4330700Y2914904D01*
X-4387850Y2883154D01*
X-4387850Y2191004D01*
X-4337050Y2140204D01*
X-3381654Y2143150D01*
X-3356254Y2181250D01*
X-3359150Y2889504D01*
G37*
G36*
X-4343400Y2114804D02*
G01*
X-4387850Y2070354D01*
X-4387850Y1448054D01*
X-4356100Y1409954D01*
X-3407054Y1406550D01*
X-3359150Y1467104D01*
X-3359150Y2083054D01*
X-3403600Y2114804D01*
G37*
D10*
X-1377950Y31750D02*
G01*
X-1377950Y76200D01*
X-1320800Y133350D01*
X-1377944Y-114297D02*
G01*
X-1263644Y-114297D01*
X-1257300Y-120642D01*
D11*
X-824890Y-513961D02*
G01*
X-824890Y-399153D01*
X-748944Y-323207D01*
X-564794Y-323207D01*
X-520598Y-367911D01*
X-520598Y-475861D01*
X-31750Y2743487D02*
G01*
X-31750Y2629938D01*
X844925Y1753262D01*
X844925Y1315112D01*
X825875Y1296062D01*
X546204Y612140D02*
G01*
X546204Y-761613D01*
X453745Y-854067D01*
X-19050Y3492787D02*
G01*
X-247545Y3264291D01*
X-247545Y2441074D01*
X546204Y1647324D01*
X546204Y612140D01*
X152501Y2584838D02*
G01*
X152501Y2581790D01*
X957935Y1776102D01*
X957935Y1179228D01*
X875436Y1096728D01*
X127000Y3638837D02*
G01*
X57150Y3708687D01*
X-6344Y3708687D01*
X25501Y2876938D02*
G01*
X-6248Y2876938D01*
X-31648Y2851538D01*
X-31648Y2743588D01*
X-2721254Y3946532D02*
G01*
X-2721254Y3883540D01*
X-2527300Y3689586D01*
X-2527300Y3549937D01*
X-18948Y3143638D02*
G01*
X-126898Y3061088D01*
X-126898Y2632590D01*
X745845Y1759846D01*
X745845Y-854067D01*
X707745Y-854067D01*
X133197Y3143638D02*
G01*
X133197Y3080138D01*
X171805Y3042038D01*
X381101Y3042038D01*
X495401Y3156338D01*
X628751Y3156338D01*
X644245Y3171832D01*
X199745Y3946532D02*
G01*
X393692Y3752596D01*
X393692Y3226069D01*
X304904Y3137286D01*
X266804Y3137286D01*
X273050Y3143531D01*
X273050Y3143537D01*
X273050Y3492787D02*
G01*
X273050Y3670566D01*
X139692Y3803924D01*
X50792Y3803924D01*
X-54254Y3946532D01*
X-1790598Y3580772D02*
G01*
X-1790598Y3518288D01*
X-1720748Y3448438D01*
X-1663598Y3448438D01*
X-1447698Y3232538D01*
X-562254Y-854067D02*
G01*
X-562254Y-650359D01*
X-685698Y-526661D01*
X-685698Y-475861D01*
X127000Y2724437D02*
G01*
X152405Y2699031D01*
X152405Y2584737D01*
X-2235200Y3549937D02*
G01*
X-2225532Y3559604D01*
X-2225532Y3934254D01*
X-2213254Y3946532D01*
X-565150Y3549937D02*
G01*
X-565150Y3946532D01*
X-562254Y3946532D01*
X234942Y2876824D02*
G01*
X245546Y2887428D01*
X392836Y2887428D01*
X127000Y3492787D02*
G01*
X127000Y3435642D01*
X254005Y3308637D01*
D10*
X-1911350Y-609312D02*
G01*
X-1911350Y-774971D01*
X-1832254Y-854067D01*
D11*
X-692157Y2025924D02*
G01*
X-793757Y2127524D01*
X-793757Y2133894D01*
X-800100Y2140237D01*
X-692157Y2025924D02*
G01*
X-628657Y1962429D01*
X-628657Y1860829D01*
X-844550Y1644937D01*
X-152400Y-475962D02*
G01*
X-152400Y-641083D01*
X-54254Y-739228D01*
X-54254Y-854067D01*
X-368300Y-475962D02*
G01*
X-368300Y-666483D01*
X-355607Y-679175D01*
X-355607Y-806709D01*
X-308254Y-854067D01*
X-800110Y2140226D02*
G01*
X-876310Y2216426D01*
X-876310Y2222776D01*
X-889010Y2235476D01*
X152400Y-475962D02*
G01*
X199745Y-523308D01*
X199745Y-854067D01*
X-888898Y2235588D02*
G01*
X-1231798Y2578488D01*
X-1231798Y3575438D01*
X-1085850Y3581687D02*
G01*
X-1070254Y3597282D01*
X-1070254Y3946532D01*
X-1959254Y3946532D02*
G01*
X-1959254Y3604191D01*
X-1936750Y3581687D01*
X-1705254Y3946532D02*
G01*
X-1705254Y3762921D01*
X-1644650Y3702316D01*
X-1644650Y3581687D01*
X-2381250Y3403887D02*
G01*
X-2095494Y3403887D01*
X-2070094Y3378487D01*
X-2381250Y3549937D02*
G01*
X-2406644Y3575331D01*
X-2406644Y3683287D01*
D12*
X-1131161Y1452328D02*
G01*
X-610463Y1452328D01*
X-350113Y1712678D01*
X-13614Y1534802D02*
G01*
X0Y273337D01*
X0Y273337D01*
D11*
X161645Y2905132D02*
G01*
X161645Y2982602D01*
X579475Y2982602D01*
X644245Y2917832D01*
X-419100Y3549937D02*
G01*
X-419100Y3505481D01*
X-520595Y3403986D01*
X-520595Y2826136D01*
X-272948Y3550038D02*
G01*
X-272948Y3728092D01*
X-54254Y3946532D01*
X-1377950Y3581687D02*
G01*
X-1422407Y3626144D01*
X-1422407Y3917690D01*
X-1451254Y3946532D01*
D10*
X-2031895Y-450463D02*
G01*
X-2057300Y-450463D01*
X-2063750Y-456912D01*
X-2063750Y-831562D01*
X-2086254Y-854067D01*
X-1061313Y-351071D02*
G01*
X-1167155Y-456912D01*
X-1911344Y-456912D01*
X-1167155Y-456912D02*
G01*
X-1090955Y-456912D01*
X-1061313Y-427271D01*
D11*
X-2704995Y3740792D02*
G01*
X-3182213Y3738328D01*
X-3316963Y3554178D01*
X-3309213Y3554178D01*
X0Y0D02*
G01*
X0Y-18559D01*
X203304Y-221863D01*
X203304Y-850513D01*
X199745Y-854067D01*
X0Y120937D02*
G01*
X0Y0D01*
X-767994Y438812D02*
G01*
X-780694Y451512D01*
X-933074Y451512D01*
X-640974Y572162D02*
G01*
X-653674Y584862D01*
X-767994Y584862D01*
X-767994Y292762D02*
G01*
X-748281Y273050D01*
X-622300Y273050D01*
D12*
X-825494Y2806987D02*
G01*
X-825494Y2355578D01*
X-244754Y1774832D01*
X-244754Y-81587D01*
X0Y-326341D01*
X0Y-476242D01*
D13*
G01*
X-1911350Y-456912D03*
G01*
X-2063750Y-456912D03*
G01*
X-1911350Y-609312D03*
G01*
X-685800Y-475962D03*
G01*
X-520700Y-475962D03*
G01*
X-368300Y-475962D03*
G01*
X-152400Y-475962D03*
G01*
X0Y-476242D03*
G01*
X152400Y-475962D03*
G01*
X-1085850Y3550724D03*
G01*
X-1231900Y3550724D03*
G01*
X-1377950Y3550724D03*
G01*
X-298450Y3549937D03*
G01*
X-444500Y3549937D03*
G01*
X-590550Y3549937D03*
G01*
X-1644650Y3550724D03*
G01*
X-1790700Y3550724D03*
G01*
X-1936750Y3550724D03*
G01*
X-2235200Y3550724D03*
G01*
X-2381250Y3550724D03*
G01*
X-2527300Y3550724D03*
G01*
X-2381250Y3403887D03*
G01*
X0Y273337D03*
G01*
X0Y120937D03*
G01*
X273050Y3143537D03*
G01*
X127000Y3143511D03*
G01*
X-19024Y3143537D03*
G01*
X-19050Y3492787D03*
G01*
X127000Y3492787D03*
G01*
X273050Y3492787D03*
G01*
X127000Y3638837D03*
G01*
X-19024Y2876837D03*
G01*
X127000Y2876811D03*
G01*
X273075Y2876837D03*
G01*
X127000Y2724437D03*
G01*
X-3455263Y3554178D03*
G01*
X-3309213Y3554178D03*
G01*
X-3163163Y3554178D03*
G01*
X-767994Y292742D03*
G01*
X-767994Y438792D03*
G01*
X-767994Y584842D03*
G01*
X-1377950Y31757D03*
G01*
X-1377950Y-114292D03*
D14*
G01*
X-4170781Y-634712D03*
D16*
G01*
X-4170781Y-475912D03*
G01*
X-4170781Y-793513D03*
G01*
X-4011980Y-634712D03*
G01*
X-4329582Y-634712D03*
G01*
X-4058488Y-522419D03*
G01*
X-4283075Y-522419D03*
G01*
X-4283075Y-747006D03*
G01*
X-4058488Y-747006D03*
D14*
G01*
X-4170781Y127287D03*
D16*
G01*
X-4170781Y286087D03*
G01*
X-4170781Y-31513D03*
G01*
X-4011980Y127287D03*
G01*
X-4329582Y127287D03*
G01*
X-4058488Y239580D03*
G01*
X-4283075Y239580D03*
G01*
X-4283075Y14993D03*
G01*
X-4058488Y14993D03*
D14*
G01*
X-4170781Y980727D03*
D16*
G01*
X-4170781Y1139527D03*
G01*
X-4170781Y821926D03*
G01*
X-4011980Y980727D03*
G01*
X-4329582Y980727D03*
G01*
X-4058488Y1093020D03*
G01*
X-4283075Y1093020D03*
G01*
X-4283075Y868433D03*
G01*
X-4058488Y868433D03*
D14*
G01*
X-4170781Y1730738D03*
D16*
G01*
X-4170781Y1889539D03*
G01*
X-4170781Y1571937D03*
G01*
X-4011980Y1730738D03*
G01*
X-4329582Y1730738D03*
G01*
X-4058488Y1843031D03*
G01*
X-4283075Y1843031D03*
G01*
X-4283075Y1618444D03*
G01*
X-4058488Y1618444D03*
D14*
G01*
X-4170781Y2480724D03*
D16*
G01*
X-4170781Y2639524D03*
G01*
X-4170781Y2321923D03*
G01*
X-4011980Y2480724D03*
G01*
X-4329582Y2480724D03*
G01*
X-4058488Y2593017D03*
G01*
X-4283075Y2593017D03*
G01*
X-4283075Y2368430D03*
G01*
X-4058488Y2368430D03*
D17*
G01*
X-1070254Y3946532D03*
D18*
G01*
X-816254Y3946532D03*
G01*
X-562254Y3946532D03*
G01*
X-308254Y3946532D03*
G01*
X-54254Y3946532D03*
G01*
X199745Y3946532D03*
G01*
X453745Y3946532D03*
G01*
X707745Y3946532D03*
G01*
X-1451254Y3946532D03*
G01*
X-1705254Y3946532D03*
G01*
X-1959254Y3946532D03*
G01*
X-2213254Y3946532D03*
G01*
X-2467254Y3946532D03*
G01*
X-2721254Y3946532D03*
G01*
X-2975254Y3946532D03*
G01*
X-3229254Y3946532D03*
G01*
X-3483254Y3946532D03*
D17*
G01*
X-3737254Y3946532D03*
D18*
G01*
X707745Y-854067D03*
G01*
X453745Y-854067D03*
G01*
X199745Y-854067D03*
G01*
X-54254Y-854067D03*
G01*
X-308254Y-854067D03*
D17*
G01*
X-562254Y-854067D03*
G01*
X-2848254Y-854067D03*
D18*
G01*
X-2594254Y-854067D03*
G01*
X-2340254Y-854067D03*
G01*
X-2086254Y-854067D03*
G01*
X-1832254Y-854067D03*
G01*
X-1578254Y-854067D03*
G01*
X-1324254Y-854067D03*
G01*
X-1070254Y-854067D03*
D19*
G01*
X644245Y2409832D03*
G01*
X644245Y2663832D03*
G01*
X644245Y2917832D03*
G01*
X644245Y3171832D03*
D20*
G01*
X644245Y3425832D03*
D21*
G01*
X1009345Y-408068D03*
G01*
X1009345Y2391925D03*
D22*
G01*
X-1828800Y2502187D03*
G01*
X-1847748Y2343538D03*
G01*
X-1826666Y1922406D03*
G01*
X-1827682Y1289438D03*
G01*
X-1827682Y895738D03*
G01*
X-1830222Y751720D03*
D23*
G01*
X-2451100Y1632237D03*
G01*
X-2609850Y1625887D03*
G01*
X-2527300Y1632237D03*
G01*
X-1290447Y1838332D03*
G01*
X-1138047Y1990732D03*
G01*
X-1138047Y1685932D03*
G01*
X-985647Y1838332D03*
G01*
X-1136650Y1835437D03*
G01*
X-2349500Y2318037D03*
G01*
X-2311400Y2260887D03*
G01*
X-2085340Y2258347D03*
G01*
X-2120900Y2197387D03*
G01*
X-2159000Y2141507D03*
G01*
X-2127250Y2311687D03*
G01*
X-2235200Y2144047D03*
G01*
X-2306320Y2144047D03*
G01*
X-2085340Y2138967D03*
G01*
X-2343150Y2203737D03*
G01*
X-2273300Y2311687D03*
G01*
X-2235200Y2255807D03*
G01*
X-2273300Y2199927D03*
G01*
X-2197100Y2311687D03*
G01*
X-2164080Y2253267D03*
G01*
X-2197100Y2197387D03*
G01*
X-2603500Y1498887D03*
G01*
X-2451100Y1492537D03*
G01*
X-2482850Y1562387D03*
G01*
X-2527300Y1492537D03*
G01*
X-2559888Y1560177D03*
G01*
X-2565400Y1429037D03*
G01*
X-2482850Y1422687D03*
G01*
X-2609850Y1359187D03*
G01*
X-2527300Y1359187D03*
G01*
X-2457450Y1359187D03*
G01*
X-3422650Y2229137D03*
G01*
X-3422650Y2318037D03*
G01*
X-4019550Y2216157D03*
G01*
X-3689350Y2647957D03*
G01*
X-3810000Y2635257D03*
G01*
X-3397250Y2647957D03*
G01*
X-3486150Y2368837D03*
G01*
X-3486150Y2279937D03*
G01*
X-3435350Y1778287D03*
G01*
X-3435350Y1689387D03*
G01*
X-3435350Y1587787D03*
G01*
X-3435350Y1486187D03*
G01*
X-3498850Y1829087D03*
G01*
X-3498850Y1740187D03*
G01*
X-3498850Y1638587D03*
G01*
X-3498850Y1536987D03*
G01*
X-3854551Y1175824D03*
G01*
X-3702151Y1264724D03*
G01*
X-3702151Y1163124D03*
G01*
X-3854551Y1074224D03*
G01*
X-3854551Y1264724D03*
G01*
X-3777538Y1320121D03*
G01*
X-3777538Y1218521D03*
G01*
X-3777538Y1116921D03*
G01*
X-3549650Y2229137D03*
G01*
X-3549650Y2318037D03*
G01*
X-3911600Y2654307D03*
G01*
X-3676650Y2857507D03*
G01*
X-3562350Y1778287D03*
G01*
X-3562350Y1689387D03*
G01*
X-3562350Y1587787D03*
G01*
X-3562350Y1486187D03*
G01*
X-3930751Y1226624D03*
G01*
X-3930751Y1315524D03*
G01*
X-3702151Y1074224D03*
G01*
X-4006951Y1264724D03*
G01*
X-2489200Y2889537D03*
G01*
X-2340254Y2854332D03*
G01*
X-2279650Y2933987D03*
G01*
X-2247900Y2857787D03*
G01*
X-2178050Y2933987D03*
G01*
X-2146300Y2857787D03*
G01*
X-1822450Y228887D03*
G01*
X-1758950Y317787D03*
G01*
X-1670050Y317787D03*
G01*
X-1720850Y228887D03*
G01*
X-1619250Y228887D03*
G01*
X-1771650Y-75912D03*
G01*
X-1670050Y-75912D03*
G01*
X-1720850Y-164812D03*
G01*
X-1631950Y-164812D03*
G01*
X-1568450Y-75912D03*
G01*
X-1670050Y2984787D03*
G01*
X-1771650Y2984787D03*
G01*
X-1873250Y2984787D03*
G01*
X-1771650Y3391187D03*
G01*
X-1860550Y3391187D03*
G01*
X-825500Y2806987D03*
D24*
G01*
X-2705100Y3740437D03*
G01*
X-1061313Y-351071D03*
G01*
X-425450Y3340387D03*
G01*
X898245Y161932D03*
G01*
X390245Y1685932D03*
G01*
X390245Y161932D03*
G01*
X-64363Y2398478D03*
G01*
X0Y1962437D03*
G01*
X-117754Y161932D03*
G01*
X330200Y755657D03*
G01*
X898245Y669932D03*
G01*
X-625754Y669932D03*
G01*
X-625754Y161932D03*
G01*
X-330200Y3232437D03*
G01*
X-1093063Y3211278D03*
G01*
X-1133754Y669932D03*
G01*
X-1133754Y161932D03*
G01*
X-1296263Y-338371D03*
G01*
X390245Y1177932D03*
G01*
X-1276350Y3861087D03*
G01*
X-1320800Y3441987D03*
D23*
G01*
X-2044319Y2313719D03*
G01*
X-2006219Y2256569D03*
G01*
X-2050669Y2199419D03*
G01*
X-1968119Y2199419D03*
G01*
X-2012569Y2142269D03*
D24*
G01*
X-1524000Y1867187D03*
G01*
X-609600Y3003837D03*
G01*
X-400050Y984537D03*
G01*
X-844550Y1644937D03*
D23*
G01*
X-2552700Y292387D03*
G01*
X-2641600Y292387D03*
G01*
X-2743200Y292387D03*
G01*
X-2514600Y368587D03*
G01*
X-2603500Y368587D03*
G01*
X-2705100Y368587D03*
G01*
X-2654300Y432087D03*
G01*
X-2552700Y432087D03*
G01*
X-2743200Y432087D03*
G01*
X-2473960Y433077D03*
G01*
X-2777820Y369120D03*
G01*
X-2096846Y2936908D03*
G01*
X-2451100Y2959387D03*
G01*
X-2540000Y2959387D03*
G01*
X-2622550Y2959387D03*
G01*
X-2673350Y2895887D03*
G01*
X-2578100Y2889537D03*
G01*
X-2857500Y2743487D03*
G01*
X-2863850Y2603787D03*
G01*
X-2774950Y2743487D03*
G01*
X-2774950Y2603787D03*
G01*
X-2870200Y1562387D03*
G01*
X-2787650Y1562387D03*
G01*
X-2870200Y1422687D03*
G01*
X-2787650Y1422687D03*
G01*
X-2876550Y1136937D03*
G01*
X-2787650Y1136937D03*
G01*
X-2787650Y1003587D03*
G01*
X-2876550Y1003587D03*
G01*
X-2628900Y1206787D03*
G01*
X-2546350Y1206787D03*
G01*
X-2463495Y1211816D03*
G01*
X-2501900Y1155987D03*
G01*
X-2584450Y1155987D03*
G01*
X-2622550Y1098837D03*
G01*
X-2540000Y1098837D03*
G01*
X-2463800Y1092487D03*
G01*
X-2501900Y1028987D03*
G01*
X-2578100Y1035337D03*
G01*
X-2628900Y978187D03*
G01*
X-2546350Y971837D03*
G01*
X-2463800Y978187D03*
G01*
X-2843606Y1645648D03*
G01*
X-2722245Y1646588D03*
G01*
X-2768600Y1225837D03*
G01*
X-2876550Y1225811D03*
G01*
X-2444750Y2826037D03*
G01*
X-2527300Y2826037D03*
G01*
X-2612009Y2824894D03*
G01*
X-2562047Y2759184D03*
G01*
X-2485009Y2761394D03*
G01*
X-2605659Y2697894D03*
G01*
X-2529459Y2691544D03*
G01*
X-2768600Y2895887D03*
G01*
X-2482850Y2629187D03*
G01*
X-2565400Y2629187D03*
G01*
X-2609850Y2565687D03*
G01*
X-2527300Y2565687D03*
G01*
X-2857500Y2895887D03*
G01*
X-2810510Y2964136D03*
G01*
X-2713609Y2960377D03*
G01*
X-2018919Y1780319D03*
G01*
X-1974469Y1837469D03*
G01*
X-2057019Y1837469D03*
G01*
X-2012569Y1894619D03*
G01*
X-2050669Y1951769D03*
G01*
X-2203450Y1835437D03*
G01*
X-2170430Y1891317D03*
G01*
X-2203450Y1949737D03*
G01*
X-2279650Y1837977D03*
G01*
X-2241550Y1893857D03*
G01*
X-2279650Y1949737D03*
G01*
X-2349500Y1835437D03*
G01*
X-2091690Y1777017D03*
G01*
X-2312670Y1782097D03*
G01*
X-2241550Y1782097D03*
G01*
X-2133600Y1949737D03*
G01*
X-2165350Y1779557D03*
G01*
X-2127250Y1835437D03*
G01*
X-2091690Y1896397D03*
G01*
X-2317750Y1898937D03*
G01*
X-2349500Y1962437D03*
G01*
X-2006219Y510319D03*
G01*
X-1961769Y567469D03*
G01*
X-2044319Y567469D03*
G01*
X-1999869Y624619D03*
G01*
X-2037969Y681769D03*
G01*
X-2190750Y565437D03*
G01*
X-2157730Y621317D03*
G01*
X-2190750Y679737D03*
G01*
X-2266950Y567977D03*
G01*
X-2228850Y623857D03*
G01*
X-2266950Y679737D03*
G01*
X-2343150Y565437D03*
G01*
X-2078990Y507017D03*
G01*
X-2299970Y512097D03*
G01*
X-2228850Y512097D03*
G01*
X-2120900Y679737D03*
G01*
X-2152650Y509557D03*
G01*
X-2114550Y565437D03*
G01*
X-2078990Y626397D03*
G01*
X-2305050Y628937D03*
G01*
X-2343150Y679737D03*
G01*
X-2448229Y2701196D03*
G01*
X-2451100Y2565687D03*
D24*
G01*
X-2012950Y1213137D03*
G01*
X-2012950Y1124237D03*
G01*
X-2012950Y1035337D03*
G01*
X-1993925Y1441737D03*
G01*
X-2082825Y1441737D03*
G01*
X-2171725Y1441737D03*
G01*
X-2012950Y2578387D03*
G01*
X-2012950Y2660937D03*
G01*
X-2012950Y2743487D03*
G01*
X-1492250Y2565687D03*
G01*
X-1619250Y2692687D03*
G01*
X-1625600Y2400587D03*
D23*
G01*
X-1955800Y686087D03*
G01*
X-1917700Y628937D03*
G01*
X-1879600Y571787D03*
G01*
X-1924050Y514637D03*
G01*
X-1962150Y1956087D03*
G01*
X-1924050Y1898937D03*
G01*
X-1885950Y1841787D03*
G01*
X-1930400Y1784637D03*
G01*
X-1955800Y2311687D03*
G01*
X-1917700Y2254537D03*
G01*
X-1879600Y2197387D03*
G01*
X-1924050Y2140237D03*
D24*
G01*
X-4141063Y2982678D03*
G01*
X-2780919Y3366168D03*
D23*
G01*
X-1968500Y1727487D03*
G01*
X-1879600Y1733837D03*
G01*
X-1847850Y508287D03*
G01*
X-2952750Y2266957D03*
G01*
X-2952750Y2368557D03*
G01*
X-3260572Y2312449D03*
G01*
X-3260572Y2223549D03*
G01*
X-3197072Y2274349D03*
G01*
X-3197072Y2363249D03*
G01*
X-3016250Y2317757D03*
G01*
X-3016250Y2216157D03*
G01*
X-3079750Y2266957D03*
G01*
X-3079750Y2368557D03*
G01*
X-3133572Y2312449D03*
G01*
X-3133572Y2223549D03*
G01*
X-2908300Y717557D03*
G01*
X-2908300Y819157D03*
G01*
X-3130194Y1232110D03*
G01*
X-3130194Y1321010D03*
G01*
X-3193694Y1270210D03*
G01*
X-3193694Y1181310D03*
G01*
X-2971800Y768357D03*
G01*
X-3035300Y717557D03*
G01*
X-3035300Y819157D03*
G01*
X-3257194Y1232110D03*
G01*
X-3257194Y1321010D03*
D24*
G01*
X-2730500Y2349787D03*
G01*
X-2641600Y2349787D03*
G01*
X-2641600Y2229137D03*
G01*
X-2736850Y2229137D03*
G01*
X-2730500Y1981487D03*
G01*
X-2635250Y1981487D03*
G01*
X-2635250Y1848137D03*
G01*
X-2730500Y1848137D03*
G01*
X-2749550Y730537D03*
G01*
X-2641600Y730537D03*
G01*
X-2641600Y578137D03*
G01*
X-2749550Y578137D03*
D23*
G01*
X-3708298Y2787606D03*
G01*
X-3759098Y2851106D03*
G01*
X-3759098Y2724106D03*
G01*
X-3860698Y2724106D03*
G01*
X-3809898Y2787606D03*
G01*
X-3860698Y2851106D03*
G01*
X-3911498Y2787606D03*
G01*
X-3962298Y2724106D03*
G01*
X-4051198Y2724106D03*
G01*
X-4000398Y2787606D03*
G01*
X-3962298Y2851106D03*
G01*
X-4051198Y2851106D03*
G01*
X-3613150Y1911637D03*
G01*
X-3670300Y2070387D03*
G01*
X-3670300Y1962437D03*
G01*
X-3606800Y2019587D03*
G01*
X-3731260Y2018317D03*
G01*
X-3494938Y2012906D03*
G01*
X-3431438Y1962106D03*
G01*
X-3431438Y1860506D03*
G01*
X-3494938Y1911306D03*
G01*
X-3558438Y1860506D03*
G01*
X-3558438Y1962106D03*
G01*
X-3548278Y2073866D03*
G01*
X-3433978Y2073866D03*
G01*
X-3673652Y676384D03*
G01*
X-3826052Y676384D03*
G01*
X-3749040Y719081D03*
G01*
X-3673652Y765284D03*
G01*
X-3891737Y722434D03*
G01*
X-3968750Y679737D03*
G01*
X-4090289Y1316540D03*
G01*
X-3778250Y1022637D03*
D24*
G01*
X-889000Y2235487D03*
G01*
X-800100Y2140237D03*
G01*
X-692150Y2025937D03*
G01*
X-527050Y2514887D03*
G01*
X-2070100Y3378487D03*
G01*
X-520700Y2826037D03*
G01*
X-1447800Y3232437D03*
G01*
X-527050Y2298987D03*
G01*
X-2406650Y3683287D03*
G01*
X-419100Y1422687D03*
G01*
X254000Y3308637D03*
G01*
X392836Y2887428D03*
G01*
X-6350Y3708687D03*
G01*
X-31750Y2743487D03*
G01*
X152400Y2584737D03*
G01*
X-425450Y3803937D03*
G01*
X-191363Y3636728D03*
G01*
X-959713Y3471628D03*
G01*
X-730250Y3549937D03*
D23*
G01*
X-2684526Y233433D03*
G01*
X-2590800Y222537D03*
D24*
G01*
X234086Y2106378D03*
D23*
G01*
X-3937000Y800107D03*
G01*
X-3841750Y781057D03*
G01*
X-4076700Y692157D03*
G01*
X-3390900Y895357D03*
G01*
X-3441903Y1164165D03*
G01*
X-3594303Y1176865D03*
G01*
X-3517290Y1219563D03*
G01*
X-3441903Y1265765D03*
G01*
X-3517290Y1321163D03*
G01*
X-3594303Y1265765D03*
G01*
X-3651859Y1333482D03*
G01*
X-3708400Y1797337D03*
G01*
X-3771900Y1556037D03*
G01*
X-3771900Y1657637D03*
G01*
X-3771900Y1746537D03*
G01*
X-3708400Y1505237D03*
G01*
X-3708400Y1606837D03*
G01*
X-3708400Y1708437D03*
G01*
X-3683000Y1873537D03*
G01*
X-3644900Y1556037D03*
G01*
X-3644900Y1657637D03*
G01*
X-3644900Y1746537D03*
G01*
X-3988841Y2019510D03*
G01*
X-3927881Y1963630D03*
G01*
X-3927881Y2071580D03*
G01*
X-3870731Y1912830D03*
G01*
X-3864381Y2020780D03*
G01*
X-3816019Y1963300D03*
G01*
X-3805859Y2075060D03*
G01*
X-3816019Y1861700D03*
G01*
X-3749243Y1916005D03*
G01*
X-3739921Y2573002D03*
G01*
X-3739921Y2471402D03*
G01*
X-3739921Y2369802D03*
G01*
X-3739921Y2280902D03*
G01*
X-3676421Y2331702D03*
G01*
X-3676421Y2420602D03*
G01*
X-3676421Y2522202D03*
G01*
X-3676650Y2235487D03*
G01*
X-3937000Y2317757D03*
G01*
X-3930650Y2222507D03*
G01*
X-3612921Y2369802D03*
G01*
X-3612921Y2280902D03*
G01*
X-3801973Y2235487D03*
G01*
X-3801745Y2522202D03*
G01*
X-3801745Y2420602D03*
G01*
X-3801745Y2331702D03*
G01*
X-3865245Y2280902D03*
G01*
X-3865245Y2369802D03*
G01*
X-3865245Y2471402D03*
G01*
X-3865245Y2573002D03*
G01*
X-3778758Y838258D03*
G01*
X-3702659Y889845D03*
G01*
X-3778046Y932543D03*
G01*
X-3855059Y889845D03*
G01*
X-3855059Y991445D03*
G01*
X-3702659Y978745D03*
G01*
X-1949450Y3391187D03*
G01*
X-1924050Y3048287D03*
G01*
X-1822450Y3048287D03*
G01*
X-1720850Y3048287D03*
D24*
G01*
X-13563Y1534878D03*
G01*
X-1131163Y1452328D03*
G01*
X-350113Y1712678D03*
G01*
X-1137513Y937978D03*
G01*
X-3314319Y3213768D03*
G01*
X-1061313Y-427271D03*
G01*
X-1352550Y-622292D03*
G01*
X-3028569Y-196181D03*
G01*
X-824814Y-513961D03*
G01*
X-2990469Y3283618D03*
G01*
X-3455263Y3554178D03*
G01*
X-3163163Y3554178D03*
G01*
X-4179163Y3979628D03*
G01*
X-4191863Y3458928D03*
G01*
X-3912463Y3954228D03*
G01*
X-3823563Y3027128D03*
G01*
X-3754983Y3522428D03*
G01*
X-3823563Y3681178D03*
G01*
X875436Y1096728D03*
G01*
X837336Y988778D03*
G01*
X825880Y1296068D03*
G01*
X819530Y1200818D03*
G01*
X-3123819Y3099468D03*
G01*
X-3339719Y3029618D03*
G01*
X-3314319Y3391568D03*
G01*
X-3111119Y3391568D03*
G01*
X-3009519Y-75531D03*
G01*
X-933069Y451518D03*
G01*
X546201Y612147D03*
G01*
X0Y7D03*
G01*
X-640969Y572168D03*
G01*
X-622300Y273057D03*
G01*
X-1257300Y-114292D03*
G01*
X-1560601Y439681D03*
G01*
X-1320800Y133357D03*
M02*
