G04 Layer: TopPasteMaskLayer*
G04 EasyEDA v6.5.44, 2024-08-23 15:43:18*
G04 30d174a4fb68472d9a5c4a5b8d6f4b16,2865ae9118a24060a17af6d01c9bcc73,10*
G04 Gerber Generator version 0.2*
G04 Scale: 100 percent, Rotated: No, Reflected: No *
G04 Dimensions in millimeters *
G04 leading zeros omitted , absolute positions ,4 integer and 5 decimal *
%FSLAX45Y45*%
%MOMM*%

%AMMACRO1*21,1,$1,$2,0,0,$3*%
%ADD10MACRO1,0.8X0.9X-135.0000*%
%ADD11R,4.3000X1.6000*%
%ADD12R,0.8000X0.9000*%
%ADD13MACRO1,0.8X0.9X135.0000*%
%ADD14R,0.8999X1.0000*%
%ADD15MACRO1,3.2004X3.2004X-45.0000*%
%ADD16MACRO1,0.762X0.287X-45.0014*%
%ADD17MACRO1,0.762X0.287X-45.0000*%
%ADD18MACRO1,0.762X0.287X-44.9986*%
%ADD19MACRO1,0.287X0.762X-45.0036*%
%ADD20MACRO1,0.287X0.762X-45.0072*%
%ADD21MACRO1,0.287X0.762X-44.9964*%
%ADD22MACRO1,0.287X0.762X-45.0000*%
%ADD23O,0.5684012X1.950212*%
%ADD24R,0.9000X0.8000*%
%ADD25R,1.0000X0.8999*%
%ADD26R,0.0115X0.8999*%

%LPD*%
G36*
X568909Y-683768D02*
G01*
X512318Y-740359D01*
X512318Y-747420D01*
X568909Y-804011D01*
X575970Y-804011D01*
X592074Y-787857D01*
X565912Y-761695D01*
X589280Y-738378D01*
X615442Y-764540D01*
X632561Y-747420D01*
X632561Y-740359D01*
X575970Y-683768D01*
G37*
G36*
X682040Y-796899D02*
G01*
X664921Y-814019D01*
X691794Y-840892D01*
X668477Y-864209D01*
X641604Y-837387D01*
X625449Y-853490D01*
X625449Y-860552D01*
X681329Y-916432D01*
X688390Y-916432D01*
X744982Y-859840D01*
X744982Y-852779D01*
X689102Y-796899D01*
G37*
G36*
X629666Y-2590393D02*
G01*
X624636Y-2595372D01*
X624636Y-2675382D01*
X629666Y-2680411D01*
X652475Y-2680411D01*
X652475Y-2643378D01*
X685444Y-2643378D01*
X685444Y-2680411D01*
X709676Y-2680411D01*
X714654Y-2675382D01*
X714654Y-2595372D01*
X709676Y-2590393D01*
G37*
G36*
X629666Y-2749397D02*
G01*
X624636Y-2754376D01*
X624636Y-2834386D01*
X629666Y-2839415D01*
X709676Y-2839415D01*
X714654Y-2834386D01*
X714654Y-2754376D01*
X709676Y-2749397D01*
X686866Y-2749397D01*
X686866Y-2786380D01*
X653846Y-2786380D01*
X653846Y-2749397D01*
G37*
G36*
X794766Y-2749397D02*
G01*
X789736Y-2754376D01*
X789736Y-2834386D01*
X794766Y-2839415D01*
X874776Y-2839415D01*
X879754Y-2834386D01*
X879754Y-2754376D01*
X874776Y-2749397D01*
X851966Y-2749397D01*
X851966Y-2786380D01*
X818946Y-2786380D01*
X818946Y-2749397D01*
G37*
G36*
X794766Y-2590393D02*
G01*
X789736Y-2595372D01*
X789736Y-2675382D01*
X794766Y-2680411D01*
X817575Y-2680411D01*
X817575Y-2643378D01*
X850544Y-2643378D01*
X850544Y-2680411D01*
X874776Y-2680411D01*
X879754Y-2675382D01*
X879754Y-2595372D01*
X874776Y-2590393D01*
G37*
G36*
X1213866Y-2749397D02*
G01*
X1208836Y-2754376D01*
X1208836Y-2834386D01*
X1213866Y-2839415D01*
X1293876Y-2839415D01*
X1298854Y-2834386D01*
X1298854Y-2754376D01*
X1293876Y-2749397D01*
X1271066Y-2749397D01*
X1271066Y-2786380D01*
X1238046Y-2786380D01*
X1238046Y-2749397D01*
G37*
G36*
X1213866Y-2590393D02*
G01*
X1208836Y-2595372D01*
X1208836Y-2675382D01*
X1213866Y-2680411D01*
X1236675Y-2680411D01*
X1236675Y-2643378D01*
X1269644Y-2643378D01*
X1269644Y-2680411D01*
X1293876Y-2680411D01*
X1298854Y-2675382D01*
X1298854Y-2595372D01*
X1293876Y-2590393D01*
G37*
G36*
X1036066Y-2749397D02*
G01*
X1031036Y-2754376D01*
X1031036Y-2834386D01*
X1036066Y-2839415D01*
X1116076Y-2839415D01*
X1121054Y-2834386D01*
X1121054Y-2754376D01*
X1116076Y-2749397D01*
X1093266Y-2749397D01*
X1093266Y-2786380D01*
X1060246Y-2786380D01*
X1060246Y-2749397D01*
G37*
G36*
X1036066Y-2590393D02*
G01*
X1031036Y-2595372D01*
X1031036Y-2675382D01*
X1036066Y-2680411D01*
X1058875Y-2680411D01*
X1058875Y-2643378D01*
X1091844Y-2643378D01*
X1091844Y-2680411D01*
X1116076Y-2680411D01*
X1121054Y-2675382D01*
X1121054Y-2595372D01*
X1116076Y-2590393D01*
G37*
G36*
X280924Y-958189D02*
G01*
X275894Y-963168D01*
X275894Y-985977D01*
X312928Y-985977D01*
X312928Y-1018997D01*
X275894Y-1018997D01*
X275894Y-1043178D01*
X280924Y-1048207D01*
X360934Y-1048207D01*
X365912Y-1043178D01*
X365912Y-963168D01*
X360934Y-958189D01*
G37*
G36*
X121920Y-958189D02*
G01*
X116890Y-963168D01*
X116890Y-1043178D01*
X121920Y-1048207D01*
X201930Y-1048207D01*
X206908Y-1043178D01*
X206908Y-1020368D01*
X169926Y-1020368D01*
X169926Y-987399D01*
X206908Y-987399D01*
X206908Y-963168D01*
X201930Y-958189D01*
G37*
G36*
X274574Y-1123289D02*
G01*
X269544Y-1128268D01*
X269544Y-1151077D01*
X306578Y-1151077D01*
X306578Y-1184097D01*
X269544Y-1184097D01*
X269544Y-1208278D01*
X274574Y-1213307D01*
X354584Y-1213307D01*
X359562Y-1208278D01*
X359562Y-1128268D01*
X354584Y-1123289D01*
G37*
G36*
X115570Y-1123289D02*
G01*
X110540Y-1128268D01*
X110540Y-1208278D01*
X115570Y-1213307D01*
X195580Y-1213307D01*
X200558Y-1208278D01*
X200558Y-1185468D01*
X163576Y-1185468D01*
X163576Y-1152499D01*
X200558Y-1152499D01*
X200558Y-1128268D01*
X195580Y-1123289D01*
G37*
G36*
X1195222Y-945591D02*
G01*
X1190193Y-950620D01*
X1190193Y-973378D01*
X1227226Y-973378D01*
X1227226Y-1006398D01*
X1190193Y-1006398D01*
X1190193Y-1030579D01*
X1195222Y-1035608D01*
X1275181Y-1035608D01*
X1280210Y-1030579D01*
X1280210Y-950620D01*
X1275181Y-945591D01*
G37*
G36*
X1036218Y-945591D02*
G01*
X1031189Y-950620D01*
X1031189Y-1030579D01*
X1036218Y-1035608D01*
X1116177Y-1035608D01*
X1121206Y-1030579D01*
X1121206Y-1007821D01*
X1084224Y-1007821D01*
X1084224Y-974801D01*
X1121206Y-974801D01*
X1121206Y-950620D01*
X1116177Y-945591D01*
G37*
G36*
X706120Y-1383639D02*
G01*
X701090Y-1388618D01*
X701090Y-1468628D01*
X706120Y-1473606D01*
X786079Y-1473606D01*
X791108Y-1468628D01*
X791108Y-1445818D01*
X754126Y-1445818D01*
X754126Y-1412849D01*
X791108Y-1412849D01*
X791108Y-1388618D01*
X786079Y-1383639D01*
G37*
G36*
X865124Y-1383639D02*
G01*
X860094Y-1388618D01*
X860094Y-1411427D01*
X897128Y-1411427D01*
X897128Y-1444447D01*
X860094Y-1444447D01*
X860094Y-1468628D01*
X865124Y-1473606D01*
X945083Y-1473606D01*
X950112Y-1468628D01*
X950112Y-1388618D01*
X945083Y-1383639D01*
G37*
G36*
X480720Y-1196543D02*
G01*
X475691Y-1201572D01*
X475691Y-1281531D01*
X480720Y-1286560D01*
X560679Y-1286560D01*
X565708Y-1281531D01*
X565708Y-1201572D01*
X560679Y-1196543D01*
X537921Y-1196543D01*
X537921Y-1233576D01*
X504901Y-1233576D01*
X504901Y-1196543D01*
G37*
G36*
X480720Y-1037539D02*
G01*
X475691Y-1042568D01*
X475691Y-1122527D01*
X480720Y-1127556D01*
X503478Y-1127556D01*
X503478Y-1090523D01*
X536498Y-1090523D01*
X536498Y-1127556D01*
X560679Y-1127556D01*
X565708Y-1122527D01*
X565708Y-1042568D01*
X560679Y-1037539D01*
G37*
G36*
X-1215948Y70612D02*
G01*
X-1215948Y35610D01*
X-1145946Y35610D01*
X-1145946Y70612D01*
G37*
G36*
X-1215948Y5638D02*
G01*
X-1215948Y-29362D01*
X-1145946Y-29362D01*
X-1145946Y5638D01*
G37*
G36*
X-1215948Y-59385D02*
G01*
X-1215948Y-94386D01*
X-1145946Y-94386D01*
X-1145946Y-59385D01*
G37*
G36*
X-1215948Y-124358D02*
G01*
X-1215948Y-159359D01*
X-1145946Y-159359D01*
X-1145946Y-124358D01*
G37*
G36*
X-1525930Y73202D02*
G01*
X-1525930Y33020D01*
X-1468882Y33020D01*
X-1468882Y8128D01*
X-1525930Y8128D01*
X-1525930Y-31851D01*
X-1468882Y-31851D01*
X-1468882Y-56896D01*
X-1525930Y-56896D01*
X-1525930Y-97028D01*
X-1468882Y-97028D01*
X-1468882Y-121920D01*
X-1525930Y-121920D01*
X-1525930Y-162001D01*
X-1276096Y-162001D01*
X-1276096Y73202D01*
G37*
G36*
X-1719427Y256590D02*
G01*
X-1719427Y221589D01*
X-1649425Y221589D01*
X-1649425Y256590D01*
G37*
G36*
X-1719427Y321614D02*
G01*
X-1719427Y286613D01*
X-1649425Y286613D01*
X-1649425Y321614D01*
G37*
G36*
X-1719427Y386588D02*
G01*
X-1719427Y351586D01*
X-1649425Y351586D01*
X-1649425Y386588D01*
G37*
G36*
X-1719427Y451612D02*
G01*
X-1719427Y416610D01*
X-1649425Y416610D01*
X-1649425Y451612D01*
G37*
G36*
X-1589227Y454202D02*
G01*
X-1589227Y218998D01*
X-1339443Y218998D01*
X-1339443Y259181D01*
X-1396441Y259181D01*
X-1396441Y284073D01*
X-1339443Y284073D01*
X-1339443Y324104D01*
X-1396441Y324104D01*
X-1396441Y349097D01*
X-1339443Y349097D01*
X-1339443Y389229D01*
X-1396441Y389229D01*
X-1396441Y414121D01*
X-1339443Y414121D01*
X-1339443Y454202D01*
G37*
G36*
X-1737055Y-918210D02*
G01*
X-1737055Y-953211D01*
X-1667103Y-953211D01*
X-1667103Y-918210D01*
G37*
G36*
X-1737055Y-853186D02*
G01*
X-1737055Y-888187D01*
X-1667103Y-888187D01*
X-1667103Y-853186D01*
G37*
G36*
X-1737055Y-788212D02*
G01*
X-1737055Y-823214D01*
X-1667103Y-823214D01*
X-1667103Y-788212D01*
G37*
G36*
X-1737055Y-723188D02*
G01*
X-1737055Y-758190D01*
X-1667103Y-758190D01*
X-1667103Y-723188D01*
G37*
G36*
X-1606905Y-720598D02*
G01*
X-1606905Y-955802D01*
X-1357122Y-955802D01*
X-1357122Y-915619D01*
X-1414119Y-915619D01*
X-1414119Y-890727D01*
X-1357122Y-890727D01*
X-1357122Y-850696D01*
X-1414119Y-850696D01*
X-1414119Y-825703D01*
X-1357122Y-825703D01*
X-1357122Y-785571D01*
X-1414119Y-785571D01*
X-1414119Y-760679D01*
X-1357122Y-760679D01*
X-1357122Y-720598D01*
G37*
G36*
X-1209446Y-297738D02*
G01*
X-1209446Y-332740D01*
X-1139494Y-332740D01*
X-1139494Y-297738D01*
G37*
G36*
X-1209446Y-362762D02*
G01*
X-1209446Y-397764D01*
X-1139494Y-397764D01*
X-1139494Y-362762D01*
G37*
G36*
X-1209446Y-427735D02*
G01*
X-1209446Y-462737D01*
X-1139494Y-462737D01*
X-1139494Y-427735D01*
G37*
G36*
X-1209446Y-492759D02*
G01*
X-1209446Y-527761D01*
X-1139494Y-527761D01*
X-1139494Y-492759D01*
G37*
G36*
X-1519428Y-295148D02*
G01*
X-1519428Y-335330D01*
X-1462430Y-335330D01*
X-1462430Y-360222D01*
X-1519428Y-360222D01*
X-1519428Y-400253D01*
X-1462430Y-400253D01*
X-1462430Y-425246D01*
X-1519428Y-425246D01*
X-1519428Y-465378D01*
X-1462430Y-465378D01*
X-1462430Y-490270D01*
X-1519428Y-490270D01*
X-1519428Y-530352D01*
X-1269644Y-530352D01*
X-1269644Y-295148D01*
G37*
G36*
X-1730705Y-1337310D02*
G01*
X-1730705Y-1372311D01*
X-1660753Y-1372311D01*
X-1660753Y-1337310D01*
G37*
G36*
X-1730705Y-1272286D02*
G01*
X-1730705Y-1307287D01*
X-1660753Y-1307287D01*
X-1660753Y-1272286D01*
G37*
G36*
X-1730705Y-1207312D02*
G01*
X-1730705Y-1242314D01*
X-1660753Y-1242314D01*
X-1660753Y-1207312D01*
G37*
G36*
X-1730705Y-1142288D02*
G01*
X-1730705Y-1177290D01*
X-1660753Y-1177290D01*
X-1660753Y-1142288D01*
G37*
G36*
X-1600555Y-1139698D02*
G01*
X-1600555Y-1374902D01*
X-1350772Y-1374902D01*
X-1350772Y-1334719D01*
X-1407769Y-1334719D01*
X-1407769Y-1309827D01*
X-1350772Y-1309827D01*
X-1350772Y-1269796D01*
X-1407769Y-1269796D01*
X-1407769Y-1244803D01*
X-1350772Y-1244803D01*
X-1350772Y-1204671D01*
X-1407769Y-1204671D01*
X-1407769Y-1179779D01*
X-1350772Y-1179779D01*
X-1350772Y-1139698D01*
G37*
G36*
X-1215796Y-1561388D02*
G01*
X-1215796Y-1596390D01*
X-1145844Y-1596390D01*
X-1145844Y-1561388D01*
G37*
G36*
X-1215796Y-1626412D02*
G01*
X-1215796Y-1661414D01*
X-1145844Y-1661414D01*
X-1145844Y-1626412D01*
G37*
G36*
X-1215796Y-1691386D02*
G01*
X-1215796Y-1726387D01*
X-1145844Y-1726387D01*
X-1145844Y-1691386D01*
G37*
G36*
X-1215796Y-1756410D02*
G01*
X-1215796Y-1791411D01*
X-1145844Y-1791411D01*
X-1145844Y-1756410D01*
G37*
G36*
X-1525778Y-1558798D02*
G01*
X-1525778Y-1598980D01*
X-1468780Y-1598980D01*
X-1468780Y-1623872D01*
X-1525778Y-1623872D01*
X-1525778Y-1663903D01*
X-1468780Y-1663903D01*
X-1468780Y-1688896D01*
X-1525778Y-1688896D01*
X-1525778Y-1729028D01*
X-1468780Y-1729028D01*
X-1468780Y-1753920D01*
X-1525778Y-1753920D01*
X-1525778Y-1794002D01*
X-1275994Y-1794002D01*
X-1275994Y-1558798D01*
G37*
G36*
X1598168Y1140104D02*
G01*
X1593138Y1135126D01*
X1593138Y1112316D01*
X1630172Y1112316D01*
X1630172Y1079296D01*
X1593138Y1079296D01*
X1593138Y1055116D01*
X1598168Y1050086D01*
X1678178Y1050086D01*
X1683156Y1055116D01*
X1683156Y1135126D01*
X1678178Y1140104D01*
G37*
G36*
X1439164Y1140104D02*
G01*
X1434134Y1135126D01*
X1434134Y1055116D01*
X1439164Y1050086D01*
X1518158Y1050086D01*
X1523136Y1055116D01*
X1523136Y1079296D01*
X1485138Y1079296D01*
X1485138Y1112316D01*
X1523136Y1112316D01*
X1523136Y1135126D01*
X1518158Y1140104D01*
G37*
G36*
X1598168Y809904D02*
G01*
X1593138Y804926D01*
X1593138Y782116D01*
X1630172Y782116D01*
X1630172Y749096D01*
X1593138Y749096D01*
X1593138Y724916D01*
X1598168Y719886D01*
X1678178Y719886D01*
X1683156Y724916D01*
X1683156Y804926D01*
X1678178Y809904D01*
G37*
G36*
X1439164Y809904D02*
G01*
X1434134Y804926D01*
X1434134Y724916D01*
X1439164Y719886D01*
X1518158Y719886D01*
X1523136Y724916D01*
X1523136Y749096D01*
X1485138Y749096D01*
X1485138Y782116D01*
X1523136Y782116D01*
X1523136Y804926D01*
X1518158Y809904D01*
G37*
G36*
X1598168Y479704D02*
G01*
X1593138Y474726D01*
X1593138Y451916D01*
X1630172Y451916D01*
X1630172Y418896D01*
X1593138Y418896D01*
X1593138Y394716D01*
X1598168Y389686D01*
X1678178Y389686D01*
X1683156Y394716D01*
X1683156Y474726D01*
X1678178Y479704D01*
G37*
G36*
X1439164Y479704D02*
G01*
X1434134Y474726D01*
X1434134Y394716D01*
X1439164Y389686D01*
X1518158Y389686D01*
X1523136Y394716D01*
X1523136Y418896D01*
X1485138Y418896D01*
X1485138Y451916D01*
X1523136Y451916D01*
X1523136Y474726D01*
X1518158Y479704D01*
G37*
G36*
X-2491232Y1419504D02*
G01*
X-2496261Y1414526D01*
X-2496261Y1391716D01*
X-2459228Y1391716D01*
X-2459228Y1358696D01*
X-2496261Y1358696D01*
X-2496261Y1334516D01*
X-2491232Y1329486D01*
X-2411222Y1329486D01*
X-2406243Y1334516D01*
X-2406243Y1414526D01*
X-2411222Y1419504D01*
G37*
G36*
X-2650236Y1419504D02*
G01*
X-2655265Y1414526D01*
X-2655265Y1334516D01*
X-2650236Y1329486D01*
X-2571242Y1329486D01*
X-2566263Y1334516D01*
X-2566263Y1358696D01*
X-2604262Y1358696D01*
X-2604262Y1391716D01*
X-2566263Y1391716D01*
X-2566263Y1414526D01*
X-2571242Y1419504D01*
G37*
G36*
X-2148332Y1419504D02*
G01*
X-2153361Y1414526D01*
X-2153361Y1391716D01*
X-2116328Y1391716D01*
X-2116328Y1358696D01*
X-2153361Y1358696D01*
X-2153361Y1334516D01*
X-2148332Y1329486D01*
X-2068322Y1329486D01*
X-2063343Y1334516D01*
X-2063343Y1414526D01*
X-2068322Y1419504D01*
G37*
G36*
X-2307336Y1419504D02*
G01*
X-2312365Y1414526D01*
X-2312365Y1334516D01*
X-2307336Y1329486D01*
X-2228342Y1329486D01*
X-2223363Y1334516D01*
X-2223363Y1358696D01*
X-2261362Y1358696D01*
X-2261362Y1391716D01*
X-2223363Y1391716D01*
X-2223363Y1414526D01*
X-2228342Y1419504D01*
G37*
G36*
X-2723134Y-2279497D02*
G01*
X-2728163Y-2284476D01*
X-2728163Y-2364486D01*
X-2723134Y-2369515D01*
X-2643124Y-2369515D01*
X-2638145Y-2364486D01*
X-2638145Y-2284476D01*
X-2643124Y-2279497D01*
X-2665933Y-2279497D01*
X-2665933Y-2316480D01*
X-2698953Y-2316480D01*
X-2698953Y-2279497D01*
G37*
G36*
X-2723134Y-2120493D02*
G01*
X-2728163Y-2125522D01*
X-2728163Y-2204516D01*
X-2723134Y-2209495D01*
X-2698953Y-2209495D01*
X-2698953Y-2171496D01*
X-2665933Y-2171496D01*
X-2665933Y-2209495D01*
X-2643124Y-2209495D01*
X-2638145Y-2204516D01*
X-2638145Y-2125522D01*
X-2643124Y-2120493D01*
G37*
D10*
G01*
X-144746Y579153D03*
G01*
X-45753Y678146D03*
D11*
G01*
X-342153Y-2260589D03*
G01*
X-1016751Y-2260589D03*
G01*
X-450103Y819160D03*
G01*
X-1124701Y819160D03*
D10*
G01*
X204503Y-30446D03*
G01*
X303496Y68546D03*
G01*
X-17746Y439453D03*
G01*
X81246Y538446D03*
D12*
G01*
X-831687Y285760D03*
G01*
X-971692Y285760D03*
G01*
X-1003442Y-749289D03*
G01*
X-863437Y-749289D03*
G01*
X-857087Y-1187439D03*
G01*
X-997092Y-1187439D03*
D13*
G01*
X718853Y-636303D03*
G01*
X817846Y-735296D03*
D12*
G01*
X155458Y231505D03*
G01*
X15453Y231505D03*
D14*
G01*
X149971Y-1339839D03*
G01*
X319948Y-1339839D03*
D15*
G01*
X182765Y-492394D03*
D16*
G01*
X132293Y-194431D03*
D17*
G01*
X96937Y-229787D03*
G01*
X61581Y-265142D03*
D16*
G01*
X26228Y-300497D03*
D18*
G01*
X-9130Y-335856D03*
D17*
G01*
X-44485Y-371210D03*
D18*
G01*
X-79841Y-406566D03*
D17*
G01*
X-115195Y-441921D03*
D19*
G01*
X-115195Y-542865D03*
D20*
G01*
X-79838Y-578220D03*
D19*
G01*
X-44484Y-613577D03*
D21*
G01*
X-9130Y-648933D03*
D22*
G01*
X26228Y-684288D03*
G01*
X61582Y-719644D03*
D19*
G01*
X96937Y-754999D03*
D21*
G01*
X132293Y-790355D03*
D16*
G01*
X233238Y-790356D03*
D18*
G01*
X268593Y-755001D03*
D17*
G01*
X303950Y-719645D03*
D18*
G01*
X339303Y-684291D03*
D17*
G01*
X374661Y-648931D03*
D16*
G01*
X410016Y-613577D03*
D17*
G01*
X445372Y-578222D03*
G01*
X480726Y-542866D03*
D21*
G01*
X480726Y-441923D03*
G01*
X445369Y-406567D03*
G01*
X410015Y-371210D03*
G01*
X374661Y-335855D03*
G01*
X339303Y-300499D03*
G01*
X303949Y-265144D03*
D22*
G01*
X268593Y-229788D03*
D21*
G01*
X233238Y-194433D03*
D23*
G01*
X-2222489Y447050D03*
G01*
X-2095489Y447050D03*
G01*
X-1968489Y447050D03*
G01*
X-1841489Y447050D03*
G01*
X-2222489Y988070D03*
G01*
X-2095489Y988070D03*
G01*
X-1968489Y988070D03*
G01*
X-1841489Y988070D03*
G01*
X-1835139Y-1501129D03*
G01*
X-1962139Y-1501129D03*
G01*
X-2089139Y-1501129D03*
G01*
X-2216139Y-1501129D03*
G01*
X-1835139Y-2042149D03*
G01*
X-1962139Y-2042149D03*
G01*
X-2089139Y-2042149D03*
G01*
X-2216139Y-2042149D03*
D24*
G01*
X-2451089Y965337D03*
G01*
X-2451089Y825357D03*
G01*
X-1644639Y-2171842D03*
G01*
X-1644639Y-2031862D03*
G01*
X-1670039Y1016137D03*
G01*
X-1670039Y876157D03*
D12*
G01*
X-2114412Y-2292339D03*
G01*
X-2254392Y-2292339D03*
D25*
G01*
X-2505344Y-2342682D03*
G01*
X-2505344Y-2172680D03*
M02*
