G04 Layer: TopSilkscreenLayer*
G04 EasyEDA v6.5.44, 2024-08-23 15:43:18*
G04 30d174a4fb68472d9a5c4a5b8d6f4b16,2865ae9118a24060a17af6d01c9bcc73,10*
G04 Gerber Generator version 0.2*
G04 Scale: 100 percent, Rotated: No, Reflected: No *
G04 Dimensions in millimeters *
G04 leading zeros omitted , absolute positions ,4 integer and 5 decimal *
%FSLAX45Y45*%
%MOMM*%

%ADD10C,0.2540*%
%ADD11C,0.8000*%
%ADD12C,0.2000*%
%ADD13C,0.1000*%
%ADD14C,0.2032*%
%ADD15C,0.1524*%
%ADD16C,0.1520*%
%ADD17C,0.1500*%
%ADD18C,0.2030*%
%ADD19C,0.3000*%
%ADD20C,0.0198*%

%LPD*%
D10*
X-885179Y-2900949D02*
G01*
X-845301Y-2900949D01*
X-866891Y-2929905D01*
X-855969Y-2929905D01*
X-848857Y-2933715D01*
X-845301Y-2937271D01*
X-841491Y-2948193D01*
X-841491Y-2955305D01*
X-845301Y-2966227D01*
X-852413Y-2973593D01*
X-863335Y-2977149D01*
X-874257Y-2977149D01*
X-885179Y-2973593D01*
X-888735Y-2970037D01*
X-892545Y-2962671D01*
X-813805Y-2959115D02*
G01*
X-817615Y-2962671D01*
X-813805Y-2966227D01*
X-810249Y-2962671D01*
X-813805Y-2959115D01*
X-779007Y-2900949D02*
G01*
X-738875Y-2900949D01*
X-760719Y-2929905D01*
X-749797Y-2929905D01*
X-742685Y-2933715D01*
X-738875Y-2937271D01*
X-735319Y-2948193D01*
X-735319Y-2955305D01*
X-738875Y-2966227D01*
X-746241Y-2973593D01*
X-757163Y-2977149D01*
X-768085Y-2977149D01*
X-779007Y-2973593D01*
X-782563Y-2970037D01*
X-786373Y-2962671D01*
X-711443Y-2900949D02*
G01*
X-682233Y-2977149D01*
X-653277Y-2900949D02*
G01*
X-682233Y-2977149D01*
X-2832851Y-3199145D02*
G01*
X-2832851Y-3280933D01*
X-2873745Y-3240039D02*
G01*
X-2791957Y-3240039D01*
X174444Y-2900934D02*
G01*
X203400Y-2977134D01*
X232610Y-2900934D02*
G01*
X203400Y-2977134D01*
X256486Y-2900934D02*
G01*
X256486Y-2977134D01*
X280616Y-2900934D02*
G01*
X280616Y-2977134D01*
X280616Y-2900934D02*
G01*
X331416Y-2977134D01*
X331416Y-2900934D02*
G01*
X331416Y-2977134D01*
X-189232Y-2903448D02*
G01*
X-193804Y-2894304D01*
X-202948Y-2885160D01*
X-212092Y-2880588D01*
X-230126Y-2880588D01*
X-239270Y-2885160D01*
X-248414Y-2894304D01*
X-252986Y-2903448D01*
X-257558Y-2917164D01*
X-257558Y-2939770D01*
X-252986Y-2953486D01*
X-248414Y-2962630D01*
X-239270Y-2971520D01*
X-230126Y-2976092D01*
X-212092Y-2976092D01*
X-202948Y-2971520D01*
X-193804Y-2962630D01*
X-189232Y-2953486D01*
X-189232Y-2939770D01*
X-212092Y-2939770D02*
G01*
X-189232Y-2939770D01*
X-159260Y-2880588D02*
G01*
X-159260Y-2976092D01*
X-159260Y-2880588D02*
G01*
X-95760Y-2976092D01*
X-95760Y-2880588D02*
G01*
X-95760Y-2976092D01*
X-65534Y-2880588D02*
G01*
X-65534Y-2976092D01*
X-65534Y-2880588D02*
G01*
X-33784Y-2880588D01*
X-20322Y-2885160D01*
X-11178Y-2894304D01*
X-6606Y-2903448D01*
X-2034Y-2917164D01*
X-2034Y-2939770D01*
X-6606Y-2953486D01*
X-11178Y-2962630D01*
X-20322Y-2971520D01*
X-33784Y-2976092D01*
X-65534Y-2976092D01*
X-518670Y-2900959D02*
G01*
X-554992Y-2900959D01*
X-558548Y-2933725D01*
X-554992Y-2929915D01*
X-544070Y-2926359D01*
X-533148Y-2926359D01*
X-522226Y-2929915D01*
X-514860Y-2937281D01*
X-511304Y-2948203D01*
X-511304Y-2955315D01*
X-514860Y-2966237D01*
X-522226Y-2973603D01*
X-533148Y-2977159D01*
X-544070Y-2977159D01*
X-554992Y-2973603D01*
X-558548Y-2970047D01*
X-562358Y-2962681D01*
X-487428Y-2900959D02*
G01*
X-458218Y-2977159D01*
X-429262Y-2900959D02*
G01*
X-458218Y-2977159D01*
X-1656361Y1252212D02*
G01*
X-1665505Y1247640D01*
X-1674649Y1238496D01*
X-1679221Y1229352D01*
X-1679221Y1211318D01*
X-1674649Y1202174D01*
X-1665505Y1193030D01*
X-1656361Y1188458D01*
X-1642899Y1183886D01*
X-1620039Y1183886D01*
X-1606323Y1188458D01*
X-1597433Y1193030D01*
X-1588289Y1202174D01*
X-1583717Y1211318D01*
X-1583717Y1229352D01*
X-1588289Y1238496D01*
X-1597433Y1247640D01*
X-1606323Y1252212D01*
X-1620039Y1252212D01*
X-1620039Y1229352D02*
G01*
X-1620039Y1252212D01*
X-1679221Y1282184D02*
G01*
X-1583717Y1282184D01*
X-1679221Y1282184D02*
G01*
X-1583717Y1345684D01*
X-1679221Y1345684D02*
G01*
X-1583717Y1345684D01*
X-1679221Y1375910D02*
G01*
X-1583717Y1375910D01*
X-1679221Y1375910D02*
G01*
X-1679221Y1407660D01*
X-1674649Y1421376D01*
X-1665505Y1430266D01*
X-1656361Y1434838D01*
X-1642899Y1439410D01*
X-1620039Y1439410D01*
X-1606323Y1434838D01*
X-1597433Y1430266D01*
X-1588289Y1421376D01*
X-1583717Y1407660D01*
X-1583717Y1375910D01*
X-2784858Y-2492273D02*
G01*
X-2741170Y-2606827D01*
X-2697482Y-2492273D02*
G01*
X-2741170Y-2606827D01*
X-2579626Y-2519451D02*
G01*
X-2585214Y-2508529D01*
X-2596136Y-2497607D01*
X-2607058Y-2492273D01*
X-2628648Y-2492273D01*
X-2639570Y-2497607D01*
X-2650492Y-2508529D01*
X-2656080Y-2519451D01*
X-2661414Y-2535961D01*
X-2661414Y-2563139D01*
X-2656080Y-2579395D01*
X-2650492Y-2590317D01*
X-2639570Y-2601239D01*
X-2628648Y-2606827D01*
X-2607058Y-2606827D01*
X-2596136Y-2601239D01*
X-2585214Y-2590317D01*
X-2579626Y-2579395D01*
X-2461770Y-2519451D02*
G01*
X-2467358Y-2508529D01*
X-2478280Y-2497607D01*
X-2489202Y-2492273D01*
X-2511046Y-2492273D01*
X-2521968Y-2497607D01*
X-2532636Y-2508529D01*
X-2538224Y-2519451D01*
X-2543558Y-2535961D01*
X-2543558Y-2563139D01*
X-2538224Y-2579395D01*
X-2532636Y-2590317D01*
X-2521968Y-2601239D01*
X-2511046Y-2606827D01*
X-2489202Y-2606827D01*
X-2478280Y-2601239D01*
X-2467358Y-2590317D01*
X-2461770Y-2579395D01*
X-1979056Y-2519568D02*
G01*
X-1984390Y-2508646D01*
X-1995312Y-2497724D01*
X-2006234Y-2492136D01*
X-2028078Y-2492136D01*
X-2039000Y-2497724D01*
X-2049922Y-2508646D01*
X-2055510Y-2519568D01*
X-2060844Y-2535824D01*
X-2060844Y-2563002D01*
X-2055510Y-2579512D01*
X-2049922Y-2590434D01*
X-2039000Y-2601356D01*
X-2028078Y-2606690D01*
X-2006234Y-2606690D01*
X-1995312Y-2601356D01*
X-1984390Y-2590434D01*
X-1979056Y-2579512D01*
X-1979056Y-2563002D01*
X-2006234Y-2563002D02*
G01*
X-1979056Y-2563002D01*
X-1942988Y-2492136D02*
G01*
X-1942988Y-2606690D01*
X-1942988Y-2492136D02*
G01*
X-1866788Y-2606690D01*
X-1866788Y-2492136D02*
G01*
X-1866788Y-2606690D01*
X-1830720Y-2492136D02*
G01*
X-1830720Y-2606690D01*
X-1830720Y-2492136D02*
G01*
X-1792366Y-2492136D01*
X-1776110Y-2497724D01*
X-1765188Y-2508646D01*
X-1759854Y-2519568D01*
X-1754266Y-2535824D01*
X-1754266Y-2563002D01*
X-1759854Y-2579512D01*
X-1765188Y-2590434D01*
X-1776110Y-2601356D01*
X-1792366Y-2606690D01*
X-1830720Y-2606690D01*
X1503588Y-1949338D02*
G01*
X1649130Y-1893966D01*
X1503588Y-1838594D02*
G01*
X1649130Y-1893966D01*
X1531274Y-1792874D02*
G01*
X1524416Y-1778904D01*
X1503588Y-1758330D01*
X1649130Y-1758330D01*
X1614332Y-1705498D02*
G01*
X1621444Y-1712610D01*
X1628302Y-1705498D01*
X1621444Y-1698640D01*
X1614332Y-1705498D01*
X1538132Y-1646062D02*
G01*
X1531274Y-1646062D01*
X1517304Y-1639204D01*
X1510446Y-1632092D01*
X1503588Y-1618376D01*
X1503588Y-1590690D01*
X1510446Y-1576720D01*
X1517304Y-1569862D01*
X1531274Y-1563004D01*
X1545244Y-1563004D01*
X1558960Y-1569862D01*
X1579788Y-1583578D01*
X1649130Y-1652920D01*
X1649130Y-1555892D01*
X1395333Y-2879994D02*
G01*
X1633839Y-2879994D01*
X1395333Y-2879994D02*
G01*
X1395333Y-2800492D01*
X1406763Y-2766456D01*
X1429369Y-2743596D01*
X1451975Y-2732166D01*
X1486265Y-2720990D01*
X1542907Y-2720990D01*
X1577197Y-2732166D01*
X1599803Y-2743596D01*
X1622663Y-2766456D01*
X1633839Y-2800492D01*
X1633839Y-2879994D01*
X1474835Y-2645806D02*
G01*
X1633839Y-2645806D01*
X1542907Y-2645806D02*
G01*
X1508871Y-2634630D01*
X1486265Y-2611770D01*
X1474835Y-2589164D01*
X1474835Y-2554874D01*
X1395333Y-2479944D02*
G01*
X1406763Y-2468514D01*
X1395333Y-2457338D01*
X1383903Y-2468514D01*
X1395333Y-2479944D01*
X1474835Y-2468514D02*
G01*
X1633839Y-2468514D01*
X1474835Y-2382154D02*
G01*
X1633839Y-2314082D01*
X1474835Y-2246010D02*
G01*
X1633839Y-2314082D01*
X1542907Y-2170826D02*
G01*
X1542907Y-2034428D01*
X1520301Y-2034428D01*
X1497441Y-2045858D01*
X1486265Y-2057288D01*
X1474835Y-2079894D01*
X1474835Y-2114184D01*
X1486265Y-2136790D01*
X1508871Y-2159650D01*
X1542907Y-2170826D01*
X1565767Y-2170826D01*
X1599803Y-2159650D01*
X1622663Y-2136790D01*
X1633839Y-2114184D01*
X1633839Y-2079894D01*
X1622663Y-2057288D01*
X1599803Y-2034428D01*
X-27807Y-2615844D02*
G01*
X-50413Y-2638704D01*
X-61843Y-2672740D01*
X-61843Y-2718206D01*
X-50413Y-2752242D01*
X-27807Y-2774848D01*
X-4947Y-2774848D01*
X17658Y-2763672D01*
X29088Y-2752242D01*
X40518Y-2729382D01*
X63124Y-2661310D01*
X74554Y-2638704D01*
X85984Y-2627274D01*
X108590Y-2615844D01*
X142880Y-2615844D01*
X165486Y-2638704D01*
X176916Y-2672740D01*
X176916Y-2718206D01*
X165486Y-2752242D01*
X142880Y-2774848D01*
X-61843Y-2540914D02*
G01*
X-50413Y-2529484D01*
X-61843Y-2518054D01*
X-73019Y-2529484D01*
X-61843Y-2540914D01*
X17658Y-2529484D02*
G01*
X176916Y-2529484D01*
X17658Y-2443124D02*
G01*
X176916Y-2443124D01*
X63124Y-2443124D02*
G01*
X29088Y-2409088D01*
X17658Y-2386228D01*
X17658Y-2352192D01*
X29088Y-2329586D01*
X63124Y-2318156D01*
X176916Y-2318156D01*
X63124Y-2318156D02*
G01*
X29088Y-2284120D01*
X17658Y-2261260D01*
X17658Y-2227224D01*
X29088Y-2204618D01*
X63124Y-2193188D01*
X176916Y-2193188D01*
X17658Y-2118258D02*
G01*
X256418Y-2118258D01*
X51948Y-2118258D02*
G01*
X29088Y-2095398D01*
X17658Y-2072792D01*
X17658Y-2038502D01*
X29088Y-2015896D01*
X51948Y-1993036D01*
X85984Y-1981860D01*
X108590Y-1981860D01*
X142880Y-1993036D01*
X165486Y-2015896D01*
X176916Y-2038502D01*
X176916Y-2072792D01*
X165486Y-2095398D01*
X142880Y-2118258D01*
X-61843Y-1906676D02*
G01*
X176916Y-1906676D01*
X85984Y-1831746D02*
G01*
X85984Y-1695348D01*
X63124Y-1695348D01*
X40518Y-1706778D01*
X29088Y-1718208D01*
X17658Y-1740814D01*
X17658Y-1774850D01*
X29088Y-1797710D01*
X51948Y-1820316D01*
X85984Y-1831746D01*
X108590Y-1831746D01*
X142880Y-1820316D01*
X165486Y-1797710D01*
X176916Y-1774850D01*
X176916Y-1740814D01*
X165486Y-1718208D01*
X142880Y-1695348D01*
D11*
X293756Y-2343048D02*
G01*
X532516Y-2343048D01*
X293756Y-2343048D02*
G01*
X293756Y-2195474D01*
X407548Y-2343048D02*
G01*
X407548Y-2252370D01*
X293756Y-2052218D02*
G01*
X305186Y-2075078D01*
X327792Y-2097684D01*
X350652Y-2109114D01*
X384688Y-2120544D01*
X441584Y-2120544D01*
X475620Y-2109114D01*
X498480Y-2097684D01*
X521086Y-2075078D01*
X532516Y-2052218D01*
X532516Y-2006752D01*
X521086Y-1984146D01*
X498480Y-1961286D01*
X475620Y-1949856D01*
X441584Y-1938680D01*
X384688Y-1938680D01*
X350652Y-1949856D01*
X327792Y-1961286D01*
X305186Y-1984146D01*
X293756Y-2006752D01*
X293756Y-2052218D01*
X350652Y-1693062D02*
G01*
X327792Y-1704492D01*
X305186Y-1727352D01*
X293756Y-1749958D01*
X293756Y-1795424D01*
X305186Y-1818284D01*
X327792Y-1840890D01*
X350652Y-1852320D01*
X384688Y-1863496D01*
X441584Y-1863496D01*
X475620Y-1852320D01*
X498480Y-1840890D01*
X521086Y-1818284D01*
X532516Y-1795424D01*
X532516Y-1749958D01*
X521086Y-1727352D01*
X498480Y-1704492D01*
X475620Y-1693062D01*
D10*
X1775317Y-2856372D02*
G01*
X1870821Y-2892694D01*
X1775317Y-2856372D02*
G01*
X1870821Y-2820050D01*
X1838817Y-2878978D02*
G01*
X1838817Y-2833512D01*
X1807067Y-2790078D02*
G01*
X1870821Y-2790078D01*
X1834245Y-2790078D02*
G01*
X1820783Y-2785506D01*
X1811639Y-2776362D01*
X1807067Y-2767218D01*
X1807067Y-2753502D01*
X1775317Y-2669174D02*
G01*
X1870821Y-2669174D01*
X1820783Y-2669174D02*
G01*
X1811639Y-2678064D01*
X1807067Y-2687208D01*
X1807067Y-2700924D01*
X1811639Y-2710068D01*
X1820783Y-2718958D01*
X1834245Y-2723530D01*
X1843389Y-2723530D01*
X1857105Y-2718958D01*
X1866249Y-2710068D01*
X1870821Y-2700924D01*
X1870821Y-2687208D01*
X1866249Y-2678064D01*
X1857105Y-2669174D01*
X1807067Y-2638948D02*
G01*
X1852533Y-2638948D01*
X1866249Y-2634630D01*
X1870821Y-2625486D01*
X1870821Y-2611770D01*
X1866249Y-2602626D01*
X1852533Y-2589164D01*
X1807067Y-2589164D02*
G01*
X1870821Y-2589164D01*
X1775317Y-2558938D02*
G01*
X1779889Y-2554620D01*
X1775317Y-2550048D01*
X1770745Y-2554620D01*
X1775317Y-2558938D01*
X1807067Y-2554620D02*
G01*
X1870821Y-2554620D01*
X1807067Y-2520076D02*
G01*
X1870821Y-2520076D01*
X1825355Y-2520076D02*
G01*
X1811639Y-2506360D01*
X1807067Y-2497216D01*
X1807067Y-2483500D01*
X1811639Y-2474610D01*
X1825355Y-2470038D01*
X1870821Y-2470038D01*
X1807067Y-2417206D02*
G01*
X1811639Y-2426350D01*
X1820783Y-2435494D01*
X1834245Y-2440066D01*
X1843389Y-2440066D01*
X1857105Y-2435494D01*
X1866249Y-2426350D01*
X1870821Y-2417206D01*
X1870821Y-2403490D01*
X1866249Y-2394600D01*
X1857105Y-2385456D01*
X1843389Y-2380884D01*
X1834245Y-2380884D01*
X1820783Y-2385456D01*
X1811639Y-2394600D01*
X1807067Y-2403490D01*
X1807067Y-2417206D01*
X1775317Y-2280808D02*
G01*
X1870821Y-2280808D01*
X1775317Y-2217308D02*
G01*
X1870821Y-2217308D01*
X1820783Y-2280808D02*
G01*
X1820783Y-2217308D01*
X1834245Y-2187336D02*
G01*
X1834245Y-2132726D01*
X1825355Y-2132726D01*
X1816211Y-2137298D01*
X1811639Y-2141870D01*
X1807067Y-2150760D01*
X1807067Y-2164476D01*
X1811639Y-2173620D01*
X1820783Y-2182764D01*
X1834245Y-2187336D01*
X1843389Y-2187336D01*
X1857105Y-2182764D01*
X1866249Y-2173620D01*
X1870821Y-2164476D01*
X1870821Y-2150760D01*
X1866249Y-2141870D01*
X1857105Y-2132726D01*
X1807067Y-2048144D02*
G01*
X1870821Y-2048144D01*
X1820783Y-2048144D02*
G01*
X1811639Y-2057288D01*
X1807067Y-2066432D01*
X1807067Y-2079894D01*
X1811639Y-2089038D01*
X1820783Y-2098182D01*
X1834245Y-2102754D01*
X1843389Y-2102754D01*
X1857105Y-2098182D01*
X1866249Y-2089038D01*
X1870821Y-2079894D01*
X1870821Y-2066432D01*
X1866249Y-2057288D01*
X1857105Y-2048144D01*
X1775317Y-1963562D02*
G01*
X1870821Y-1963562D01*
X1820783Y-1963562D02*
G01*
X1811639Y-1972706D01*
X1807067Y-1981850D01*
X1807067Y-1995312D01*
X1811639Y-2004456D01*
X1820783Y-2013600D01*
X1834245Y-2018172D01*
X1843389Y-2018172D01*
X1857105Y-2013600D01*
X1866249Y-2004456D01*
X1870821Y-1995312D01*
X1870821Y-1981850D01*
X1866249Y-1972706D01*
X1857105Y-1963562D01*
X1834245Y-1933590D02*
G01*
X1834245Y-1878980D01*
X1825355Y-1878980D01*
X1816211Y-1883552D01*
X1811639Y-1888124D01*
X1807067Y-1897268D01*
X1807067Y-1910984D01*
X1811639Y-1919874D01*
X1820783Y-1929018D01*
X1834245Y-1933590D01*
X1843389Y-1933590D01*
X1857105Y-1929018D01*
X1866249Y-1919874D01*
X1870821Y-1910984D01*
X1870821Y-1897268D01*
X1866249Y-1888124D01*
X1857105Y-1878980D01*
X1807067Y-1849008D02*
G01*
X1870821Y-1849008D01*
X1834245Y-1849008D02*
G01*
X1820783Y-1844436D01*
X1811639Y-1835546D01*
X1807067Y-1826402D01*
X1807067Y-1812686D01*
X1820783Y-1732676D02*
G01*
X1811639Y-1737248D01*
X1807067Y-1750964D01*
X1807067Y-1764426D01*
X1811639Y-1778142D01*
X1820783Y-1782714D01*
X1829673Y-1778142D01*
X1834245Y-1768998D01*
X1838817Y-1746392D01*
X1843389Y-1737248D01*
X1852533Y-1732676D01*
X1857105Y-1732676D01*
X1866249Y-1737248D01*
X1870821Y-1750964D01*
X1870821Y-1764426D01*
X1866249Y-1778142D01*
X1857105Y-1782714D01*
X1775317Y-1632600D02*
G01*
X1870821Y-1632600D01*
X1775317Y-1632600D02*
G01*
X1775317Y-1591706D01*
X1779889Y-1578244D01*
X1784461Y-1573672D01*
X1793351Y-1569100D01*
X1802495Y-1569100D01*
X1811639Y-1573672D01*
X1816211Y-1578244D01*
X1820783Y-1591706D01*
X1820783Y-1632600D01*
X1820783Y-1600850D02*
G01*
X1870821Y-1569100D01*
X1775317Y-1529984D02*
G01*
X1775317Y-1479946D01*
X1811639Y-1507124D01*
X1811639Y-1493662D01*
X1816211Y-1484518D01*
X1820783Y-1479946D01*
X1834245Y-1475374D01*
X1843389Y-1475374D01*
X1857105Y-1479946D01*
X1866249Y-1489090D01*
X1870821Y-1502806D01*
X1870821Y-1516268D01*
X1866249Y-1529984D01*
X1861677Y-1534556D01*
X1852533Y-1539128D01*
X1976739Y-2892694D02*
G01*
X2072243Y-2892694D01*
X1976739Y-2892694D02*
G01*
X1976739Y-2851800D01*
X1981311Y-2838084D01*
X1985883Y-2833512D01*
X1995027Y-2828940D01*
X2004171Y-2828940D01*
X2013315Y-2833512D01*
X2017633Y-2838084D01*
X2022205Y-2851800D01*
X2022205Y-2892694D02*
G01*
X2022205Y-2851800D01*
X2026777Y-2838084D01*
X2031349Y-2833512D01*
X2040493Y-2828940D01*
X2054209Y-2828940D01*
X2063099Y-2833512D01*
X2067671Y-2838084D01*
X2072243Y-2851800D01*
X2072243Y-2892694D01*
X1976739Y-2798968D02*
G01*
X2072243Y-2798968D01*
X2072243Y-2798968D02*
G01*
X2072243Y-2744612D01*
X1976739Y-2714386D02*
G01*
X2072243Y-2714386D01*
X1976739Y-2714386D02*
G01*
X1976739Y-2682636D01*
X1981311Y-2669174D01*
X1990455Y-2660030D01*
X1999599Y-2655458D01*
X2013315Y-2650886D01*
X2035921Y-2650886D01*
X2049637Y-2655458D01*
X2058781Y-2660030D01*
X2067671Y-2669174D01*
X2072243Y-2682636D01*
X2072243Y-2714386D01*
X1999599Y-2552588D02*
G01*
X1990455Y-2557160D01*
X1981311Y-2566304D01*
X1976739Y-2575448D01*
X1976739Y-2593482D01*
X1981311Y-2602626D01*
X1990455Y-2611770D01*
X1999599Y-2616342D01*
X2013315Y-2620914D01*
X2035921Y-2620914D01*
X2049637Y-2616342D01*
X2058781Y-2611770D01*
X2067671Y-2602626D01*
X2072243Y-2593482D01*
X2072243Y-2575448D01*
X2067671Y-2566304D01*
X2058781Y-2557160D01*
X2049637Y-2552588D01*
X2008743Y-2452766D02*
G01*
X2072243Y-2452766D01*
X2026777Y-2452766D02*
G01*
X2013315Y-2439050D01*
X2008743Y-2429906D01*
X2008743Y-2416444D01*
X2013315Y-2407300D01*
X2026777Y-2402728D01*
X2072243Y-2402728D01*
X2026777Y-2402728D02*
G01*
X2013315Y-2389012D01*
X2008743Y-2379868D01*
X2008743Y-2366406D01*
X2013315Y-2357262D01*
X2026777Y-2352690D01*
X2072243Y-2352690D01*
X2008743Y-2299858D02*
G01*
X2013315Y-2309002D01*
X2022205Y-2318146D01*
X2035921Y-2322718D01*
X2045065Y-2322718D01*
X2058781Y-2318146D01*
X2067671Y-2309002D01*
X2072243Y-2299858D01*
X2072243Y-2286396D01*
X2067671Y-2277252D01*
X2058781Y-2268108D01*
X2045065Y-2263536D01*
X2035921Y-2263536D01*
X2022205Y-2268108D01*
X2013315Y-2277252D01*
X2008743Y-2286396D01*
X2008743Y-2299858D01*
X1976739Y-2219848D02*
G01*
X2054209Y-2219848D01*
X2067671Y-2215530D01*
X2072243Y-2206386D01*
X2072243Y-2197242D01*
X2008743Y-2233564D02*
G01*
X2008743Y-2201814D01*
X2008743Y-2144410D02*
G01*
X2013315Y-2153554D01*
X2022205Y-2162698D01*
X2035921Y-2167270D01*
X2045065Y-2167270D01*
X2058781Y-2162698D01*
X2067671Y-2153554D01*
X2072243Y-2144410D01*
X2072243Y-2130948D01*
X2067671Y-2121804D01*
X2058781Y-2112660D01*
X2045065Y-2108088D01*
X2035921Y-2108088D01*
X2022205Y-2112660D01*
X2013315Y-2121804D01*
X2008743Y-2130948D01*
X2008743Y-2144410D01*
X2008743Y-2078116D02*
G01*
X2072243Y-2078116D01*
X2035921Y-2078116D02*
G01*
X2022205Y-2073544D01*
X2013315Y-2064400D01*
X2008743Y-2055510D01*
X2008743Y-2041794D01*
X1958705Y-1909968D02*
G01*
X1967849Y-1919112D01*
X1981311Y-1928256D01*
X1999599Y-1937146D01*
X2022205Y-1941718D01*
X2040493Y-1941718D01*
X2063099Y-1937146D01*
X2081387Y-1928256D01*
X2095103Y-1919112D01*
X2103993Y-1909968D01*
X1976739Y-1870852D02*
G01*
X1976739Y-1820814D01*
X2013315Y-1848246D01*
X2013315Y-1834530D01*
X2017633Y-1825386D01*
X2022205Y-1820814D01*
X2035921Y-1816242D01*
X2045065Y-1816242D01*
X2058781Y-1820814D01*
X2067671Y-1829958D01*
X2072243Y-1843674D01*
X2072243Y-1857136D01*
X2067671Y-1870852D01*
X2063099Y-1875424D01*
X2054209Y-1879996D01*
X1976739Y-1759092D02*
G01*
X1981311Y-1772808D01*
X1995027Y-1781698D01*
X2017633Y-1786270D01*
X2031349Y-1786270D01*
X2054209Y-1781698D01*
X2067671Y-1772808D01*
X2072243Y-1759092D01*
X2072243Y-1749948D01*
X2067671Y-1736232D01*
X2054209Y-1727342D01*
X2031349Y-1722770D01*
X2017633Y-1722770D01*
X1995027Y-1727342D01*
X1981311Y-1736232D01*
X1976739Y-1749948D01*
X1976739Y-1759092D01*
X1976739Y-1586372D02*
G01*
X2072243Y-1622694D01*
X1976739Y-1586372D02*
G01*
X2072243Y-1550050D01*
X2040493Y-1608978D02*
G01*
X2040493Y-1563512D01*
X2008743Y-1520078D02*
G01*
X2072243Y-1520078D01*
X2026777Y-1520078D02*
G01*
X2013315Y-1506362D01*
X2008743Y-1497218D01*
X2008743Y-1483502D01*
X2013315Y-1474612D01*
X2026777Y-1470040D01*
X2072243Y-1470040D01*
X2026777Y-1470040D02*
G01*
X2013315Y-1456324D01*
X2008743Y-1447180D01*
X2008743Y-1433718D01*
X2013315Y-1424574D01*
X2026777Y-1420002D01*
X2072243Y-1420002D01*
X2008743Y-1390030D02*
G01*
X2103993Y-1390030D01*
X2022205Y-1390030D02*
G01*
X2013315Y-1380886D01*
X2008743Y-1371742D01*
X2008743Y-1358026D01*
X2013315Y-1349136D01*
X2022205Y-1339992D01*
X2035921Y-1335420D01*
X2045065Y-1335420D01*
X2058781Y-1339992D01*
X2067671Y-1349136D01*
X2072243Y-1358026D01*
X2072243Y-1371742D01*
X2067671Y-1380886D01*
X2058781Y-1390030D01*
X2022205Y-1255410D02*
G01*
X2013315Y-1259982D01*
X2008743Y-1273698D01*
X2008743Y-1287160D01*
X2013315Y-1300876D01*
X2022205Y-1305448D01*
X2031349Y-1300876D01*
X2035921Y-1291732D01*
X2040493Y-1269126D01*
X2045065Y-1259982D01*
X2054209Y-1255410D01*
X2058781Y-1255410D01*
X2067671Y-1259982D01*
X2072243Y-1273698D01*
X2072243Y-1287160D01*
X2067671Y-1300876D01*
X2058781Y-1305448D01*
X2008743Y-1155334D02*
G01*
X2072243Y-1155334D01*
X2026777Y-1155334D02*
G01*
X2013315Y-1141872D01*
X2008743Y-1132728D01*
X2008743Y-1119012D01*
X2013315Y-1109868D01*
X2026777Y-1105296D01*
X2072243Y-1105296D01*
X2026777Y-1105296D02*
G01*
X2013315Y-1091834D01*
X2008743Y-1082690D01*
X2008743Y-1068974D01*
X2013315Y-1060084D01*
X2026777Y-1055512D01*
X2072243Y-1055512D01*
X2008743Y-970930D02*
G01*
X2072243Y-970930D01*
X2022205Y-970930D02*
G01*
X2013315Y-980074D01*
X2008743Y-988964D01*
X2008743Y-1002680D01*
X2013315Y-1011824D01*
X2022205Y-1020968D01*
X2035921Y-1025540D01*
X2045065Y-1025540D01*
X2058781Y-1020968D01*
X2067671Y-1011824D01*
X2072243Y-1002680D01*
X2072243Y-988964D01*
X2067671Y-980074D01*
X2058781Y-970930D01*
X2008743Y-940958D02*
G01*
X2072243Y-890920D01*
X2008743Y-890920D02*
G01*
X2072243Y-940958D01*
X1958705Y-860948D02*
G01*
X1967849Y-851804D01*
X1981311Y-842660D01*
X1999599Y-833516D01*
X2022205Y-828944D01*
X2040493Y-828944D01*
X2063099Y-833516D01*
X2081387Y-842660D01*
X2095103Y-851804D01*
X2103993Y-860948D01*
X2178415Y-2472578D02*
G01*
X2273919Y-2472578D01*
X2178415Y-2472578D02*
G01*
X2178415Y-2413650D01*
X2223881Y-2472578D02*
G01*
X2223881Y-2436256D01*
X2273919Y-2472578D02*
G01*
X2273919Y-2413650D01*
X2210165Y-2383678D02*
G01*
X2273919Y-2383678D01*
X2228453Y-2383678D02*
G01*
X2214737Y-2369962D01*
X2210165Y-2360818D01*
X2210165Y-2347356D01*
X2214737Y-2338212D01*
X2228453Y-2333640D01*
X2273919Y-2333640D01*
X2223881Y-2249058D02*
G01*
X2214737Y-2258202D01*
X2210165Y-2267346D01*
X2210165Y-2280808D01*
X2214737Y-2289952D01*
X2223881Y-2299096D01*
X2237597Y-2303668D01*
X2246741Y-2303668D01*
X2260203Y-2299096D01*
X2269347Y-2289952D01*
X2273919Y-2280808D01*
X2273919Y-2267346D01*
X2269347Y-2258202D01*
X2260203Y-2249058D01*
X2210165Y-2196226D02*
G01*
X2214737Y-2205370D01*
X2223881Y-2214514D01*
X2237597Y-2219086D01*
X2246741Y-2219086D01*
X2260203Y-2214514D01*
X2269347Y-2205370D01*
X2273919Y-2196226D01*
X2273919Y-2182764D01*
X2269347Y-2173620D01*
X2260203Y-2164476D01*
X2246741Y-2159904D01*
X2237597Y-2159904D01*
X2223881Y-2164476D01*
X2214737Y-2173620D01*
X2210165Y-2182764D01*
X2210165Y-2196226D01*
X2178415Y-2075322D02*
G01*
X2273919Y-2075322D01*
X2223881Y-2075322D02*
G01*
X2214737Y-2084466D01*
X2210165Y-2093610D01*
X2210165Y-2107326D01*
X2214737Y-2116216D01*
X2223881Y-2125360D01*
X2237597Y-2129932D01*
X2246741Y-2129932D01*
X2260203Y-2125360D01*
X2269347Y-2116216D01*
X2273919Y-2107326D01*
X2273919Y-2093610D01*
X2269347Y-2084466D01*
X2260203Y-2075322D01*
X2237597Y-2045350D02*
G01*
X2237597Y-1990994D01*
X2228453Y-1990994D01*
X2219309Y-1995312D01*
X2214737Y-1999884D01*
X2210165Y-2009028D01*
X2210165Y-2022744D01*
X2214737Y-2031888D01*
X2223881Y-2040778D01*
X2237597Y-2045350D01*
X2246741Y-2045350D01*
X2260203Y-2040778D01*
X2269347Y-2031888D01*
X2273919Y-2022744D01*
X2273919Y-2009028D01*
X2269347Y-1999884D01*
X2260203Y-1990994D01*
X2210165Y-1960768D02*
G01*
X2273919Y-1960768D01*
X2237597Y-1960768D02*
G01*
X2223881Y-1956450D01*
X2214737Y-1947306D01*
X2210165Y-1938162D01*
X2210165Y-1924446D01*
X2160381Y-1812686D02*
G01*
X2305669Y-1894474D01*
X2178415Y-1782714D02*
G01*
X2273919Y-1782714D01*
X2178415Y-1718960D02*
G01*
X2273919Y-1718960D01*
X2223881Y-1782714D02*
G01*
X2223881Y-1718960D01*
X2210165Y-1634632D02*
G01*
X2273919Y-1634632D01*
X2223881Y-1634632D02*
G01*
X2214737Y-1643522D01*
X2210165Y-1652666D01*
X2210165Y-1666382D01*
X2214737Y-1675526D01*
X2223881Y-1684416D01*
X2237597Y-1688988D01*
X2246741Y-1688988D01*
X2260203Y-1684416D01*
X2269347Y-1675526D01*
X2273919Y-1666382D01*
X2273919Y-1652666D01*
X2269347Y-1643522D01*
X2260203Y-1634632D01*
X2178415Y-1604406D02*
G01*
X2273919Y-1604406D01*
X2178415Y-1574434D02*
G01*
X2273919Y-1574434D01*
X2402697Y-2404506D02*
G01*
X2393807Y-2409078D01*
X2384663Y-2418222D01*
X2380091Y-2427366D01*
X2380091Y-2445400D01*
X2384663Y-2454544D01*
X2393807Y-2463688D01*
X2402697Y-2468260D01*
X2416413Y-2472578D01*
X2439019Y-2472578D01*
X2452735Y-2468260D01*
X2461879Y-2463688D01*
X2471023Y-2454544D01*
X2475595Y-2445400D01*
X2475595Y-2427366D01*
X2471023Y-2418222D01*
X2461879Y-2409078D01*
X2452735Y-2404506D01*
X2411841Y-2374534D02*
G01*
X2457307Y-2374534D01*
X2471023Y-2369962D01*
X2475595Y-2360818D01*
X2475595Y-2347356D01*
X2471023Y-2338212D01*
X2457307Y-2324496D01*
X2411841Y-2324496D02*
G01*
X2475595Y-2324496D01*
X2411841Y-2294524D02*
G01*
X2475595Y-2294524D01*
X2439019Y-2294524D02*
G01*
X2425557Y-2289952D01*
X2416413Y-2280808D01*
X2411841Y-2271664D01*
X2411841Y-2258202D01*
X2411841Y-2228230D02*
G01*
X2475595Y-2228230D01*
X2439019Y-2228230D02*
G01*
X2425557Y-2223658D01*
X2416413Y-2214514D01*
X2411841Y-2205370D01*
X2411841Y-2191908D01*
X2439019Y-2161682D02*
G01*
X2439019Y-2107326D01*
X2430129Y-2107326D01*
X2420985Y-2111898D01*
X2416413Y-2116216D01*
X2411841Y-2125360D01*
X2411841Y-2139076D01*
X2416413Y-2148220D01*
X2425557Y-2157364D01*
X2439019Y-2161682D01*
X2448163Y-2161682D01*
X2461879Y-2157364D01*
X2471023Y-2148220D01*
X2475595Y-2139076D01*
X2475595Y-2125360D01*
X2471023Y-2116216D01*
X2461879Y-2107326D01*
X2411841Y-2077354D02*
G01*
X2475595Y-2077354D01*
X2430129Y-2077354D02*
G01*
X2416413Y-2063638D01*
X2411841Y-2054494D01*
X2411841Y-2040778D01*
X2416413Y-2031888D01*
X2430129Y-2027316D01*
X2475595Y-2027316D01*
X2380091Y-1983628D02*
G01*
X2457307Y-1983628D01*
X2471023Y-1979056D01*
X2475595Y-1969912D01*
X2475595Y-1960768D01*
X2411841Y-1997344D02*
G01*
X2411841Y-1965340D01*
X2393807Y-1797192D02*
G01*
X2384663Y-1806336D01*
X2380091Y-1820052D01*
X2380091Y-1838086D01*
X2384663Y-1851802D01*
X2393807Y-1860946D01*
X2402697Y-1860946D01*
X2411841Y-1856374D01*
X2416413Y-1851802D01*
X2420985Y-1842658D01*
X2430129Y-1815480D01*
X2434701Y-1806336D01*
X2439019Y-1801764D01*
X2448163Y-1797192D01*
X2461879Y-1797192D01*
X2471023Y-1806336D01*
X2475595Y-1820052D01*
X2475595Y-1838086D01*
X2471023Y-1851802D01*
X2461879Y-1860946D01*
X2439019Y-1767220D02*
G01*
X2439019Y-1712610D01*
X2430129Y-1712610D01*
X2420985Y-1717182D01*
X2416413Y-1721754D01*
X2411841Y-1730898D01*
X2411841Y-1744614D01*
X2416413Y-1753504D01*
X2425557Y-1762648D01*
X2439019Y-1767220D01*
X2448163Y-1767220D01*
X2461879Y-1762648D01*
X2471023Y-1753504D01*
X2475595Y-1744614D01*
X2475595Y-1730898D01*
X2471023Y-1721754D01*
X2461879Y-1712610D01*
X2411841Y-1682638D02*
G01*
X2475595Y-1682638D01*
X2430129Y-1682638D02*
G01*
X2416413Y-1669176D01*
X2411841Y-1660032D01*
X2411841Y-1646316D01*
X2416413Y-1637172D01*
X2430129Y-1632600D01*
X2475595Y-1632600D01*
X2425557Y-1552590D02*
G01*
X2416413Y-1557162D01*
X2411841Y-1570878D01*
X2411841Y-1584594D01*
X2416413Y-1598056D01*
X2425557Y-1602628D01*
X2434701Y-1598056D01*
X2439019Y-1589166D01*
X2443591Y-1566306D01*
X2448163Y-1557162D01*
X2457307Y-1552590D01*
X2461879Y-1552590D01*
X2471023Y-1557162D01*
X2475595Y-1570878D01*
X2475595Y-1584594D01*
X2471023Y-1598056D01*
X2461879Y-1602628D01*
X2439019Y-1522618D02*
G01*
X2439019Y-1468262D01*
X2430129Y-1468262D01*
X2420985Y-1472580D01*
X2416413Y-1477152D01*
X2411841Y-1486296D01*
X2411841Y-1500012D01*
X2416413Y-1509156D01*
X2425557Y-1518046D01*
X2439019Y-1522618D01*
X2448163Y-1522618D01*
X2461879Y-1518046D01*
X2471023Y-1509156D01*
X2475595Y-1500012D01*
X2475595Y-1486296D01*
X2471023Y-1477152D01*
X2461879Y-1468262D01*
X2380091Y-1368186D02*
G01*
X2475595Y-1368186D01*
X2411841Y-1338214D02*
G01*
X2475595Y-1338214D01*
X2430129Y-1338214D02*
G01*
X2416413Y-1324498D01*
X2411841Y-1315354D01*
X2411841Y-1301892D01*
X2416413Y-1292748D01*
X2430129Y-1288176D01*
X2475595Y-1288176D01*
X2380091Y-1258204D02*
G01*
X2475595Y-1258204D01*
X2380091Y-1228232D02*
G01*
X2384663Y-1223660D01*
X2380091Y-1219088D01*
X2375519Y-1223660D01*
X2380091Y-1228232D01*
X2411841Y-1223660D02*
G01*
X2475595Y-1223660D01*
X2411841Y-1189116D02*
G01*
X2475595Y-1189116D01*
X2430129Y-1189116D02*
G01*
X2416413Y-1175400D01*
X2411841Y-1166256D01*
X2411841Y-1152794D01*
X2416413Y-1143650D01*
X2430129Y-1139078D01*
X2475595Y-1139078D01*
X2439019Y-1109106D02*
G01*
X2439019Y-1054496D01*
X2430129Y-1054496D01*
X2420985Y-1059068D01*
X2416413Y-1063640D01*
X2411841Y-1072784D01*
X2411841Y-1086246D01*
X2416413Y-1095390D01*
X2425557Y-1104534D01*
X2439019Y-1109106D01*
X2448163Y-1109106D01*
X2461879Y-1104534D01*
X2471023Y-1095390D01*
X2475595Y-1086246D01*
X2475595Y-1072784D01*
X2471023Y-1063640D01*
X2461879Y-1054496D01*
X1536700Y113537D02*
G01*
X1573022Y18034D01*
X1609344Y113537D02*
G01*
X1573022Y18034D01*
X1639315Y113537D02*
G01*
X1639315Y18034D01*
X1639315Y113537D02*
G01*
X1671320Y113537D01*
X1684782Y108965D01*
X1693926Y100076D01*
X1698498Y90931D01*
X1703070Y77215D01*
X1703070Y54610D01*
X1698498Y40894D01*
X1693926Y31750D01*
X1684782Y22605D01*
X1671320Y18034D01*
X1639315Y18034D01*
X1733042Y113537D02*
G01*
X1733042Y18034D01*
X1733042Y113537D02*
G01*
X1764792Y113537D01*
X1778508Y108965D01*
X1787652Y100076D01*
X1792224Y90931D01*
X1796796Y77215D01*
X1796796Y54610D01*
X1792224Y40894D01*
X1787652Y31750D01*
X1778508Y22605D01*
X1764792Y18034D01*
X1733042Y18034D01*
X1601327Y297037D02*
G01*
X1597009Y306181D01*
X1587865Y315071D01*
X1578721Y319643D01*
X1560433Y319643D01*
X1551543Y315071D01*
X1542399Y306181D01*
X1537827Y297037D01*
X1533255Y283321D01*
X1533255Y260715D01*
X1537827Y246999D01*
X1542399Y237855D01*
X1551543Y228711D01*
X1560433Y224139D01*
X1578721Y224139D01*
X1587865Y228711D01*
X1597009Y237855D01*
X1601327Y246999D01*
X1601327Y260715D01*
X1578721Y260715D02*
G01*
X1601327Y260715D01*
X1631553Y319643D02*
G01*
X1631553Y224139D01*
X1631553Y319643D02*
G01*
X1695053Y224139D01*
X1695053Y319643D02*
G01*
X1695053Y224139D01*
X1725025Y319643D02*
G01*
X1725025Y224139D01*
X1725025Y319643D02*
G01*
X1756775Y319643D01*
X1770491Y315071D01*
X1779635Y306181D01*
X1784207Y297037D01*
X1788779Y283321D01*
X1788779Y260715D01*
X1784207Y246999D01*
X1779635Y237855D01*
X1770491Y228711D01*
X1756775Y224139D01*
X1725025Y224139D01*
X1733550Y621537D02*
G01*
X1733550Y526034D01*
X1711055Y929243D02*
G01*
X1711055Y833739D01*
X1711055Y929243D02*
G01*
X1751949Y929243D01*
X1765665Y924671D01*
X1770237Y920099D01*
X1774809Y911209D01*
X1774809Y902065D01*
X1770237Y892921D01*
X1765665Y888349D01*
X1751949Y883777D01*
X1711055Y883777D02*
G01*
X1751949Y883777D01*
X1765665Y879205D01*
X1770237Y874887D01*
X1774809Y865743D01*
X1774809Y852027D01*
X1770237Y842883D01*
X1765665Y838311D01*
X1751949Y833739D01*
X1711055Y833739D01*
X1747377Y1234043D02*
G01*
X1711055Y1138539D01*
X1747377Y1234043D02*
G01*
X1783699Y1138539D01*
X1724771Y1170543D02*
G01*
X1770237Y1170543D01*
D12*
X1162050Y-381762D02*
G01*
X1198372Y-477265D01*
X1234694Y-381762D02*
G01*
X1198372Y-477265D01*
X1264665Y-381762D02*
G01*
X1264665Y-477265D01*
X1264665Y-381762D02*
G01*
X1296415Y-381762D01*
X1310132Y-386334D01*
X1319276Y-395478D01*
X1323848Y-404622D01*
X1328420Y-418084D01*
X1328420Y-440944D01*
X1323848Y-454405D01*
X1319276Y-463550D01*
X1310132Y-472694D01*
X1296415Y-477265D01*
X1264665Y-477265D01*
X1421892Y-395478D02*
G01*
X1412748Y-386334D01*
X1399286Y-381762D01*
X1380998Y-381762D01*
X1367282Y-386334D01*
X1358392Y-395478D01*
X1358392Y-404622D01*
X1362964Y-413512D01*
X1367282Y-418084D01*
X1376426Y-422655D01*
X1403858Y-431800D01*
X1412748Y-436372D01*
X1417320Y-440944D01*
X1421892Y-450088D01*
X1421892Y-463550D01*
X1412748Y-472694D01*
X1399286Y-477265D01*
X1380998Y-477265D01*
X1367282Y-472694D01*
X1358392Y-463550D01*
X1362456Y-560578D02*
G01*
X1353565Y-551434D01*
X1344422Y-546862D01*
X1330706Y-546862D01*
X1321562Y-551434D01*
X1312418Y-560578D01*
X1308100Y-574294D01*
X1308100Y-583438D01*
X1312418Y-596900D01*
X1321562Y-606044D01*
X1330706Y-610615D01*
X1344422Y-610615D01*
X1353565Y-606044D01*
X1362456Y-596900D01*
X1415288Y-546862D02*
G01*
X1406144Y-551434D01*
X1397000Y-560578D01*
X1392428Y-574294D01*
X1392428Y-583438D01*
X1397000Y-596900D01*
X1406144Y-606044D01*
X1415288Y-610615D01*
X1429004Y-610615D01*
X1437894Y-606044D01*
X1447038Y-596900D01*
X1451610Y-583438D01*
X1451610Y-574294D01*
X1447038Y-560578D01*
X1437894Y-551434D01*
X1429004Y-546862D01*
X1415288Y-546862D01*
X1481582Y-546862D02*
G01*
X1481582Y-610615D01*
X1481582Y-565150D02*
G01*
X1495298Y-551434D01*
X1504442Y-546862D01*
X1517904Y-546862D01*
X1527048Y-551434D01*
X1531620Y-565150D01*
X1531620Y-610615D01*
X1597914Y-515112D02*
G01*
X1588770Y-515112D01*
X1579880Y-519684D01*
X1575308Y-533400D01*
X1575308Y-610615D01*
X1561592Y-546862D02*
G01*
X1593342Y-546862D01*
X1627886Y-515112D02*
G01*
X1632458Y-519684D01*
X1637030Y-515112D01*
X1632458Y-510539D01*
X1627886Y-515112D01*
X1632458Y-546862D02*
G01*
X1632458Y-610615D01*
X1721612Y-546862D02*
G01*
X1721612Y-619760D01*
X1717040Y-633222D01*
X1712468Y-637794D01*
X1703324Y-642365D01*
X1689862Y-642365D01*
X1680718Y-637794D01*
X1721612Y-560578D02*
G01*
X1712468Y-551434D01*
X1703324Y-546862D01*
X1689862Y-546862D01*
X1680718Y-551434D01*
X1671574Y-560578D01*
X1667002Y-574294D01*
X1667002Y-583438D01*
X1671574Y-596900D01*
X1680718Y-606044D01*
X1689862Y-610615D01*
X1703324Y-610615D01*
X1712468Y-606044D01*
X1721612Y-596900D01*
D13*
X1240536Y-697738D02*
G01*
X1238250Y-693165D01*
X1233678Y-688594D01*
X1229106Y-686307D01*
X1219962Y-686307D01*
X1215390Y-688594D01*
X1210818Y-693165D01*
X1208786Y-697738D01*
X1206500Y-704342D01*
X1206500Y-715772D01*
X1208786Y-722630D01*
X1210818Y-727202D01*
X1215390Y-731773D01*
X1219962Y-734060D01*
X1229106Y-734060D01*
X1233678Y-731773D01*
X1238250Y-727202D01*
X1240536Y-722630D01*
X1240536Y-715772D01*
X1229106Y-715772D02*
G01*
X1240536Y-715772D01*
X1255522Y-686307D02*
G01*
X1255522Y-734060D01*
X1255522Y-686307D02*
G01*
X1287272Y-734060D01*
X1287272Y-686307D02*
G01*
X1287272Y-734060D01*
X1302258Y-686307D02*
G01*
X1302258Y-734060D01*
X1302258Y-686307D02*
G01*
X1318260Y-686307D01*
X1325118Y-688594D01*
X1329690Y-693165D01*
X1331722Y-697738D01*
X1334008Y-704342D01*
X1334008Y-715772D01*
X1331722Y-722630D01*
X1329690Y-727202D01*
X1325118Y-731773D01*
X1318260Y-734060D01*
X1302258Y-734060D01*
X1231900Y-794257D02*
G01*
X1209040Y-842010D01*
X1200150Y-794257D02*
G01*
X1231900Y-794257D01*
X1274064Y-794257D02*
G01*
X1251458Y-794257D01*
X1249172Y-814578D01*
X1251458Y-812292D01*
X1258315Y-810005D01*
X1264920Y-810005D01*
X1271778Y-812292D01*
X1276350Y-816863D01*
X1278636Y-823722D01*
X1278636Y-828294D01*
X1276350Y-835152D01*
X1271778Y-839723D01*
X1264920Y-842010D01*
X1258315Y-842010D01*
X1251458Y-839723D01*
X1249172Y-837438D01*
X1246886Y-832865D01*
X1293622Y-794257D02*
G01*
X1293622Y-842010D01*
X1316482Y-810005D02*
G01*
X1293622Y-832865D01*
X1302765Y-823722D02*
G01*
X1318768Y-842010D01*
X1333754Y-821436D02*
G01*
X1374648Y-821436D01*
X1423670Y-805688D02*
G01*
X1421384Y-801115D01*
X1416812Y-796544D01*
X1412240Y-794257D01*
X1403096Y-794257D01*
X1398778Y-796544D01*
X1394206Y-801115D01*
X1391920Y-805688D01*
X1389634Y-812292D01*
X1389634Y-823722D01*
X1391920Y-830580D01*
X1394206Y-835152D01*
X1398778Y-839723D01*
X1403096Y-842010D01*
X1412240Y-842010D01*
X1416812Y-839723D01*
X1421384Y-835152D01*
X1423670Y-830580D01*
X1423670Y-823722D01*
X1412240Y-823722D02*
G01*
X1423670Y-823722D01*
X1438656Y-794257D02*
G01*
X1438656Y-842010D01*
X1438656Y-794257D02*
G01*
X1470406Y-842010D01*
X1470406Y-794257D02*
G01*
X1470406Y-842010D01*
X1485392Y-794257D02*
G01*
X1485392Y-842010D01*
X1485392Y-794257D02*
G01*
X1501394Y-794257D01*
X1508252Y-796544D01*
X1512824Y-801115D01*
X1515110Y-805688D01*
X1517396Y-812292D01*
X1517396Y-823722D01*
X1515110Y-830580D01*
X1512824Y-835152D01*
X1508252Y-839723D01*
X1501394Y-842010D01*
X1485392Y-842010D01*
X1085850Y-559307D02*
G01*
X1103884Y-607060D01*
X1122172Y-559307D02*
G01*
X1103884Y-607060D01*
X1137158Y-559307D02*
G01*
X1137158Y-607060D01*
X1137158Y-559307D02*
G01*
X1152906Y-559307D01*
X1159764Y-561594D01*
X1164336Y-566165D01*
X1166622Y-570738D01*
X1168908Y-577342D01*
X1168908Y-588772D01*
X1166622Y-595630D01*
X1164336Y-600202D01*
X1159764Y-604773D01*
X1152906Y-607060D01*
X1137158Y-607060D01*
X1183894Y-559307D02*
G01*
X1183894Y-607060D01*
X1183894Y-559307D02*
G01*
X1199896Y-559307D01*
X1206754Y-561594D01*
X1211072Y-566165D01*
X1213358Y-570738D01*
X1215644Y-577342D01*
X1215644Y-588772D01*
X1213358Y-595630D01*
X1211072Y-600202D01*
X1206754Y-604773D01*
X1199896Y-607060D01*
X1183894Y-607060D01*
D12*
X603341Y-1531020D02*
G01*
X603341Y-1626524D01*
X633313Y-1531020D02*
G01*
X633313Y-1626524D01*
X633313Y-1531020D02*
G01*
X665063Y-1531020D01*
X678779Y-1535592D01*
X687669Y-1544736D01*
X692241Y-1553880D01*
X696813Y-1567342D01*
X696813Y-1590202D01*
X692241Y-1603664D01*
X687669Y-1612808D01*
X678779Y-1621952D01*
X665063Y-1626524D01*
X633313Y-1626524D01*
X726785Y-1531020D02*
G01*
X726785Y-1626524D01*
X726785Y-1531020D02*
G01*
X767679Y-1531020D01*
X781395Y-1535592D01*
X785967Y-1540164D01*
X790539Y-1549308D01*
X790539Y-1558452D01*
X785967Y-1567342D01*
X781395Y-1571914D01*
X767679Y-1576486D01*
X726785Y-1576486D01*
X758789Y-1576486D02*
G01*
X790539Y-1626524D01*
X820511Y-1531020D02*
G01*
X820511Y-1626524D01*
X850483Y-1531020D02*
G01*
X886805Y-1626524D01*
X923127Y-1531020D02*
G01*
X886805Y-1626524D01*
X953353Y-1531020D02*
G01*
X953353Y-1626524D01*
X953353Y-1531020D02*
G01*
X1012281Y-1531020D01*
X953353Y-1576486D02*
G01*
X989675Y-1576486D01*
X953353Y-1626524D02*
G01*
X1012281Y-1626524D01*
X791047Y-1697136D02*
G01*
X782157Y-1687992D01*
X773013Y-1683420D01*
X759297Y-1683420D01*
X750153Y-1687992D01*
X741009Y-1697136D01*
X736691Y-1710852D01*
X736691Y-1719996D01*
X741009Y-1733458D01*
X750153Y-1742602D01*
X759297Y-1747174D01*
X773013Y-1747174D01*
X782157Y-1742602D01*
X791047Y-1733458D01*
X843879Y-1683420D02*
G01*
X834735Y-1687992D01*
X825591Y-1697136D01*
X821019Y-1710852D01*
X821019Y-1719996D01*
X825591Y-1733458D01*
X834735Y-1742602D01*
X843879Y-1747174D01*
X857595Y-1747174D01*
X866485Y-1742602D01*
X875629Y-1733458D01*
X880201Y-1719996D01*
X880201Y-1710852D01*
X875629Y-1697136D01*
X866485Y-1687992D01*
X857595Y-1683420D01*
X843879Y-1683420D01*
X910173Y-1683420D02*
G01*
X910173Y-1747174D01*
X910173Y-1701708D02*
G01*
X923889Y-1687992D01*
X933033Y-1683420D01*
X946495Y-1683420D01*
X955639Y-1687992D01*
X960211Y-1701708D01*
X960211Y-1747174D01*
X1026505Y-1651670D02*
G01*
X1017361Y-1651670D01*
X1008471Y-1656242D01*
X1003899Y-1669958D01*
X1003899Y-1747174D01*
X990183Y-1683420D02*
G01*
X1021933Y-1683420D01*
X1056477Y-1651670D02*
G01*
X1061049Y-1656242D01*
X1065621Y-1651670D01*
X1061049Y-1647098D01*
X1056477Y-1651670D01*
X1061049Y-1683420D02*
G01*
X1061049Y-1747174D01*
X1150203Y-1683420D02*
G01*
X1150203Y-1756318D01*
X1145631Y-1769780D01*
X1141059Y-1774352D01*
X1131915Y-1778924D01*
X1118453Y-1778924D01*
X1109309Y-1774352D01*
X1150203Y-1697136D02*
G01*
X1141059Y-1687992D01*
X1131915Y-1683420D01*
X1118453Y-1683420D01*
X1109309Y-1687992D01*
X1100165Y-1697136D01*
X1095593Y-1710852D01*
X1095593Y-1719996D01*
X1100165Y-1733458D01*
X1109309Y-1742602D01*
X1118453Y-1747174D01*
X1131915Y-1747174D01*
X1141059Y-1742602D01*
X1150203Y-1733458D01*
D13*
X977981Y-1152545D02*
G01*
X982299Y-1150259D01*
X989157Y-1143401D01*
X989157Y-1191153D01*
X1015573Y-1143401D02*
G01*
X1008715Y-1145687D01*
X1006429Y-1150259D01*
X1006429Y-1154831D01*
X1008715Y-1159149D01*
X1013287Y-1161435D01*
X1022431Y-1163721D01*
X1029289Y-1166007D01*
X1033861Y-1170579D01*
X1036147Y-1175151D01*
X1036147Y-1182009D01*
X1033861Y-1186581D01*
X1031575Y-1188867D01*
X1024717Y-1191153D01*
X1015573Y-1191153D01*
X1008715Y-1188867D01*
X1006429Y-1186581D01*
X1004143Y-1182009D01*
X1004143Y-1175151D01*
X1006429Y-1170579D01*
X1011001Y-1166007D01*
X1017859Y-1163721D01*
X1027003Y-1161435D01*
X1031575Y-1159149D01*
X1033861Y-1154831D01*
X1033861Y-1150259D01*
X1031575Y-1145687D01*
X1024717Y-1143401D01*
X1015573Y-1143401D01*
X1051133Y-1143401D02*
G01*
X1051133Y-1191153D01*
X1073739Y-1159149D02*
G01*
X1051133Y-1182009D01*
X1060023Y-1172865D02*
G01*
X1076025Y-1191153D01*
X1091011Y-1170579D02*
G01*
X1131905Y-1170579D01*
X1146891Y-1143401D02*
G01*
X1165179Y-1191153D01*
X1183213Y-1143401D02*
G01*
X1165179Y-1191153D01*
X1198199Y-1143401D02*
G01*
X1198199Y-1191153D01*
X1198199Y-1143401D02*
G01*
X1214201Y-1143401D01*
X1221059Y-1145687D01*
X1225631Y-1150259D01*
X1227917Y-1154831D01*
X1230203Y-1161435D01*
X1230203Y-1172865D01*
X1227917Y-1179723D01*
X1225631Y-1184295D01*
X1221059Y-1188867D01*
X1214201Y-1191153D01*
X1198199Y-1191153D01*
X1245189Y-1143401D02*
G01*
X1245189Y-1191153D01*
X1245189Y-1143401D02*
G01*
X1260937Y-1143401D01*
X1267795Y-1145687D01*
X1272367Y-1150259D01*
X1274653Y-1154831D01*
X1276939Y-1161435D01*
X1276939Y-1172865D01*
X1274653Y-1179723D01*
X1272367Y-1184295D01*
X1267795Y-1188867D01*
X1260937Y-1191153D01*
X1245189Y-1191153D01*
X865977Y-1027821D02*
G01*
X863691Y-1023249D01*
X859119Y-1018677D01*
X854547Y-1016391D01*
X845403Y-1016391D01*
X840831Y-1018677D01*
X836259Y-1023249D01*
X834227Y-1027821D01*
X831941Y-1034425D01*
X831941Y-1045855D01*
X834227Y-1052713D01*
X836259Y-1057285D01*
X840831Y-1061857D01*
X845403Y-1064143D01*
X854547Y-1064143D01*
X859119Y-1061857D01*
X863691Y-1057285D01*
X865977Y-1052713D01*
X865977Y-1045855D01*
X854547Y-1045855D02*
G01*
X865977Y-1045855D01*
X880963Y-1016391D02*
G01*
X880963Y-1064143D01*
X880963Y-1016391D02*
G01*
X912713Y-1064143D01*
X912713Y-1016391D02*
G01*
X912713Y-1064143D01*
X927699Y-1016391D02*
G01*
X927699Y-1064143D01*
X927699Y-1016391D02*
G01*
X943701Y-1016391D01*
X950559Y-1018677D01*
X955131Y-1023249D01*
X957163Y-1027821D01*
X959449Y-1034425D01*
X959449Y-1045855D01*
X957163Y-1052713D01*
X955131Y-1057285D01*
X950559Y-1061857D01*
X943701Y-1064143D01*
X927699Y-1064143D01*
X838291Y-1270391D02*
G01*
X856325Y-1318143D01*
X874613Y-1270391D02*
G01*
X856325Y-1318143D01*
X889599Y-1270391D02*
G01*
X889599Y-1318143D01*
X889599Y-1270391D02*
G01*
X905347Y-1270391D01*
X912205Y-1272677D01*
X916777Y-1277249D01*
X919063Y-1281821D01*
X921349Y-1288425D01*
X921349Y-1299855D01*
X919063Y-1306713D01*
X916777Y-1311285D01*
X912205Y-1315857D01*
X905347Y-1318143D01*
X889599Y-1318143D01*
X936335Y-1270391D02*
G01*
X936335Y-1318143D01*
X936335Y-1270391D02*
G01*
X952337Y-1270391D01*
X959195Y-1272677D01*
X963513Y-1277249D01*
X965799Y-1281821D01*
X968085Y-1288425D01*
X968085Y-1299855D01*
X965799Y-1306713D01*
X963513Y-1311285D01*
X959195Y-1315857D01*
X952337Y-1318143D01*
X936335Y-1318143D01*
D10*
X-484258Y-57922D02*
G01*
X-520834Y-153426D01*
X-484258Y-57922D02*
G01*
X-447936Y-153426D01*
X-507118Y-121422D02*
G01*
X-461652Y-121422D01*
X-417964Y-57922D02*
G01*
X-417964Y-153426D01*
X-417964Y-153426D02*
G01*
X-363354Y-153426D01*
X-516026Y348589D02*
G01*
X-552348Y253085D01*
X-516026Y348589D02*
G01*
X-479704Y253085D01*
X-538886Y284835D02*
G01*
X-493420Y284835D01*
X-449732Y348589D02*
G01*
X-449732Y253085D01*
X-385978Y348589D02*
G01*
X-385978Y253085D01*
X-449732Y303123D02*
G01*
X-385978Y303123D01*
X-514248Y-476910D02*
G01*
X-514248Y-572414D01*
X-514248Y-476910D02*
G01*
X-473354Y-476910D01*
X-459892Y-481482D01*
X-455320Y-486054D01*
X-450748Y-495198D01*
X-450748Y-504342D01*
X-455320Y-513232D01*
X-459892Y-517804D01*
X-473354Y-522376D01*
X-514248Y-522376D02*
G01*
X-473354Y-522376D01*
X-459892Y-526948D01*
X-455320Y-531520D01*
X-450748Y-540664D01*
X-450748Y-554126D01*
X-455320Y-563270D01*
X-459892Y-567842D01*
X-473354Y-572414D01*
X-514248Y-572414D01*
X-420776Y-476910D02*
G01*
X-420776Y-572414D01*
X-357022Y-476910D02*
G01*
X-357022Y-572414D01*
X-420776Y-522376D02*
G01*
X-357022Y-522376D01*
X-406298Y-997610D02*
G01*
X-406298Y-1093114D01*
X-406298Y-997610D02*
G01*
X-365404Y-997610D01*
X-351942Y-1002182D01*
X-347370Y-1006754D01*
X-342798Y-1015898D01*
X-342798Y-1025042D01*
X-347370Y-1033932D01*
X-351942Y-1038504D01*
X-365404Y-1043076D01*
X-406298Y-1043076D02*
G01*
X-365404Y-1043076D01*
X-351942Y-1047648D01*
X-347370Y-1052220D01*
X-342798Y-1061364D01*
X-342798Y-1074826D01*
X-347370Y-1083970D01*
X-351942Y-1088542D01*
X-365404Y-1093114D01*
X-406298Y-1093114D01*
X-312826Y-997610D02*
G01*
X-312826Y-1093114D01*
X-312826Y-1093114D02*
G01*
X-258216Y-1093114D01*
X-420776Y-1306220D02*
G01*
X-425348Y-1297076D01*
X-434492Y-1287932D01*
X-443382Y-1283360D01*
X-461670Y-1283360D01*
X-470814Y-1287932D01*
X-479958Y-1297076D01*
X-484530Y-1306220D01*
X-488848Y-1319682D01*
X-488848Y-1342542D01*
X-484530Y-1356004D01*
X-479958Y-1365148D01*
X-470814Y-1374292D01*
X-461670Y-1378864D01*
X-443382Y-1378864D01*
X-434492Y-1374292D01*
X-425348Y-1365148D01*
X-420776Y-1356004D01*
X-390804Y-1283360D02*
G01*
X-390804Y-1378864D01*
X-327050Y-1283360D02*
G01*
X-327050Y-1378864D01*
X-390804Y-1328826D02*
G01*
X-327050Y-1328826D01*
X-414426Y-1674520D02*
G01*
X-418998Y-1665376D01*
X-428142Y-1656232D01*
X-437032Y-1651660D01*
X-455320Y-1651660D01*
X-464464Y-1656232D01*
X-473608Y-1665376D01*
X-478180Y-1674520D01*
X-482498Y-1687982D01*
X-482498Y-1710842D01*
X-478180Y-1724304D01*
X-473608Y-1733448D01*
X-464464Y-1742592D01*
X-455320Y-1747164D01*
X-437032Y-1747164D01*
X-428142Y-1742592D01*
X-418998Y-1733448D01*
X-414426Y-1724304D01*
X-384454Y-1651660D02*
G01*
X-384454Y-1747164D01*
X-384454Y-1747164D02*
G01*
X-329844Y-1747164D01*
D14*
X-2374026Y-2070242D02*
G01*
X-2374026Y-2135520D01*
X-2406538Y-2102754D02*
G01*
X-2341260Y-2102754D01*
X394573Y-1441592D02*
G01*
X394573Y-1506870D01*
X362061Y-1474104D02*
G01*
X427339Y-1474104D01*
D10*
X2014677Y1308089D02*
G01*
X2091131Y1308089D01*
X2014677Y1308089D02*
G01*
X2014677Y1340855D01*
X2018487Y1351777D01*
X2022043Y1355333D01*
X2029409Y1358889D01*
X2036521Y1358889D01*
X2043887Y1355333D01*
X2047443Y1351777D01*
X2051253Y1340855D01*
X2051253Y1308089D01*
X2051253Y1333489D02*
G01*
X2091131Y1358889D01*
X2014677Y1383019D02*
G01*
X2091131Y1433819D01*
X2014677Y1433819D02*
G01*
X2091131Y1383019D01*
X1760664Y1333553D02*
G01*
X1837118Y1333553D01*
X1760664Y1308153D02*
G01*
X1760664Y1358953D01*
X1760664Y1383083D02*
G01*
X1837118Y1433883D01*
X1760664Y1433883D02*
G01*
X1837118Y1383083D01*
X-761916Y1322682D02*
G01*
X-761916Y1398882D01*
X-761916Y1322682D02*
G01*
X-791126Y1398882D01*
X-820082Y1322682D02*
G01*
X-791126Y1398882D01*
X-820082Y1322682D02*
G01*
X-820082Y1398882D01*
X-866056Y1322682D02*
G01*
X-858690Y1326238D01*
X-851324Y1333604D01*
X-847768Y1340716D01*
X-844212Y1351638D01*
X-844212Y1369926D01*
X-847768Y1380848D01*
X-851324Y1387960D01*
X-858690Y1395326D01*
X-866056Y1398882D01*
X-880534Y1398882D01*
X-887900Y1395326D01*
X-895012Y1387960D01*
X-898822Y1380848D01*
X-902378Y1369926D01*
X-902378Y1351638D01*
X-898822Y1340716D01*
X-895012Y1333604D01*
X-887900Y1326238D01*
X-880534Y1322682D01*
X-866056Y1322682D01*
X-977308Y1333604D02*
G01*
X-969942Y1326238D01*
X-959020Y1322682D01*
X-944542Y1322682D01*
X-933620Y1326238D01*
X-926254Y1333604D01*
X-926254Y1340716D01*
X-930064Y1348082D01*
X-933620Y1351638D01*
X-940986Y1355448D01*
X-962830Y1362560D01*
X-969942Y1366116D01*
X-973498Y1369926D01*
X-977308Y1377038D01*
X-977308Y1387960D01*
X-969942Y1395326D01*
X-959020Y1398882D01*
X-944542Y1398882D01*
X-933620Y1395326D01*
X-926254Y1387960D01*
X-1001184Y1322682D02*
G01*
X-1001184Y1398882D01*
X-1191935Y1206586D02*
G01*
X-1115735Y1206586D01*
X-1191935Y1206586D02*
G01*
X-1115735Y1235542D01*
X-1191935Y1264752D02*
G01*
X-1115735Y1235542D01*
X-1191935Y1264752D02*
G01*
X-1115735Y1264752D01*
X-1191935Y1288628D02*
G01*
X-1115735Y1288628D01*
X-1181013Y1363558D02*
G01*
X-1188379Y1356192D01*
X-1191935Y1345524D01*
X-1191935Y1330792D01*
X-1188379Y1319870D01*
X-1181013Y1312758D01*
X-1173901Y1312758D01*
X-1166535Y1316314D01*
X-1162979Y1319870D01*
X-1159169Y1327236D01*
X-1152057Y1349080D01*
X-1148247Y1356192D01*
X-1144691Y1360002D01*
X-1137579Y1363558D01*
X-1126657Y1363558D01*
X-1119291Y1356192D01*
X-1115735Y1345524D01*
X-1115735Y1330792D01*
X-1119291Y1319870D01*
X-1126657Y1312758D01*
X-1191935Y1409532D02*
G01*
X-1188379Y1402166D01*
X-1181013Y1394800D01*
X-1173901Y1391244D01*
X-1162979Y1387688D01*
X-1144691Y1387688D01*
X-1133769Y1391244D01*
X-1126657Y1394800D01*
X-1119291Y1402166D01*
X-1115735Y1409532D01*
X-1115735Y1424010D01*
X-1119291Y1431122D01*
X-1126657Y1438488D01*
X-1133769Y1442044D01*
X-1144691Y1445854D01*
X-1162979Y1445854D01*
X-1173901Y1442044D01*
X-1181013Y1438488D01*
X-1188379Y1431122D01*
X-1191935Y1424010D01*
X-1191935Y1409532D01*
X-1422293Y1282694D02*
G01*
X-1429659Y1275582D01*
X-1433215Y1264660D01*
X-1433215Y1250182D01*
X-1429659Y1239260D01*
X-1422293Y1231894D01*
X-1415181Y1231894D01*
X-1407815Y1235450D01*
X-1404259Y1239260D01*
X-1400449Y1246372D01*
X-1393337Y1268216D01*
X-1389781Y1275582D01*
X-1385971Y1279138D01*
X-1378859Y1282694D01*
X-1367937Y1282694D01*
X-1360571Y1275582D01*
X-1357015Y1264660D01*
X-1357015Y1250182D01*
X-1360571Y1239260D01*
X-1367937Y1231894D01*
X-1415181Y1361434D02*
G01*
X-1422293Y1357624D01*
X-1429659Y1350512D01*
X-1433215Y1343146D01*
X-1433215Y1328668D01*
X-1429659Y1321302D01*
X-1422293Y1314190D01*
X-1415181Y1310380D01*
X-1404259Y1306824D01*
X-1385971Y1306824D01*
X-1375049Y1310380D01*
X-1367937Y1314190D01*
X-1360571Y1321302D01*
X-1357015Y1328668D01*
X-1357015Y1343146D01*
X-1360571Y1350512D01*
X-1367937Y1357624D01*
X-1375049Y1361434D01*
X-1433215Y1385310D02*
G01*
X-1357015Y1385310D01*
X-1433215Y1436364D02*
G01*
X-1382415Y1385310D01*
X-1400449Y1403598D02*
G01*
X-1357015Y1436364D01*
X-2787467Y1244584D02*
G01*
X-2794833Y1251950D01*
X-2805755Y1255506D01*
X-2820233Y1255506D01*
X-2831155Y1251950D01*
X-2838521Y1244584D01*
X-2838521Y1237218D01*
X-2834711Y1230106D01*
X-2831155Y1226296D01*
X-2823789Y1222740D01*
X-2802199Y1215374D01*
X-2794833Y1211818D01*
X-2791277Y1208262D01*
X-2787467Y1200896D01*
X-2787467Y1189974D01*
X-2794833Y1182862D01*
X-2805755Y1179052D01*
X-2820233Y1179052D01*
X-2831155Y1182862D01*
X-2838521Y1189974D01*
X-2708981Y1237218D02*
G01*
X-2712537Y1244584D01*
X-2719903Y1251950D01*
X-2727269Y1255506D01*
X-2741747Y1255506D01*
X-2749113Y1251950D01*
X-2756225Y1244584D01*
X-2759781Y1237218D01*
X-2763591Y1226296D01*
X-2763591Y1208262D01*
X-2759781Y1197340D01*
X-2756225Y1189974D01*
X-2749113Y1182862D01*
X-2741747Y1179052D01*
X-2727269Y1179052D01*
X-2719903Y1182862D01*
X-2712537Y1189974D01*
X-2708981Y1197340D01*
X-2685105Y1255506D02*
G01*
X-2685105Y1179052D01*
X-2685105Y1179052D02*
G01*
X-2641417Y1179052D01*
X-2025522Y1250866D02*
G01*
X-2032888Y1258232D01*
X-2043810Y1261788D01*
X-2058288Y1261788D01*
X-2069210Y1258232D01*
X-2076576Y1250866D01*
X-2076576Y1243754D01*
X-2072766Y1236388D01*
X-2069210Y1232832D01*
X-2061844Y1229022D01*
X-2040000Y1221910D01*
X-2032888Y1218100D01*
X-2029078Y1214544D01*
X-2025522Y1207178D01*
X-2025522Y1196510D01*
X-2032888Y1189144D01*
X-2043810Y1185588D01*
X-2058288Y1185588D01*
X-2069210Y1189144D01*
X-2076576Y1196510D01*
X-2001646Y1261788D02*
G01*
X-2001646Y1185588D01*
X-2001646Y1261788D02*
G01*
X-1975992Y1261788D01*
X-1965070Y1258232D01*
X-1957959Y1250866D01*
X-1954402Y1243754D01*
X-1950592Y1232832D01*
X-1950592Y1214544D01*
X-1954402Y1203622D01*
X-1957959Y1196510D01*
X-1965070Y1189144D01*
X-1975992Y1185588D01*
X-2001646Y1185588D01*
X-1897506Y1261788D02*
G01*
X-1926716Y1185588D01*
X-1897506Y1261788D02*
G01*
X-1868550Y1185588D01*
X-1915794Y1210988D02*
G01*
X-1879472Y1210988D01*
X954133Y228749D02*
G01*
X945042Y219659D01*
X940495Y206021D01*
X940495Y187840D01*
X945042Y174203D01*
X954133Y165112D01*
X963223Y165112D01*
X972314Y169659D01*
X976858Y174203D01*
X981405Y183294D01*
X990495Y210565D01*
X995042Y219659D01*
X999586Y224203D01*
X1008677Y228749D01*
X1022314Y228749D01*
X1031405Y219659D01*
X1035951Y206021D01*
X1035951Y187840D01*
X1031405Y174203D01*
X1022314Y165112D01*
X972314Y281475D02*
G01*
X976858Y272384D01*
X985949Y263293D01*
X999586Y258749D01*
X1008677Y258749D01*
X1022314Y263293D01*
X1031405Y272384D01*
X1035951Y281475D01*
X1035951Y295112D01*
X1031405Y304203D01*
X1022314Y313293D01*
X1008677Y317840D01*
X999586Y317840D01*
X985949Y313293D01*
X976858Y304203D01*
X972314Y295112D01*
X972314Y281475D01*
X940495Y347840D02*
G01*
X1035951Y347840D01*
X940495Y432386D02*
G01*
X1035951Y432386D01*
X985949Y432386D02*
G01*
X976858Y423293D01*
X972314Y414202D01*
X972314Y400568D01*
X976858Y391477D01*
X985949Y382384D01*
X999586Y377840D01*
X1008677Y377840D01*
X1022314Y382384D01*
X1031405Y391477D01*
X1035951Y400568D01*
X1035951Y414202D01*
X1031405Y423293D01*
X1022314Y432386D01*
X999586Y462386D02*
G01*
X999586Y516930D01*
X990495Y516930D01*
X981405Y512386D01*
X976858Y507839D01*
X972314Y498749D01*
X972314Y485112D01*
X976858Y476021D01*
X985949Y466930D01*
X999586Y462386D01*
X1008677Y462386D01*
X1022314Y466930D01*
X1031405Y476021D01*
X1035951Y485112D01*
X1035951Y498749D01*
X1031405Y507839D01*
X1022314Y516930D01*
X972314Y546930D02*
G01*
X1035951Y546930D01*
X999586Y546930D02*
G01*
X985949Y551477D01*
X976858Y560567D01*
X972314Y569658D01*
X972314Y583295D01*
X940495Y696930D02*
G01*
X1017767Y696930D01*
X1031405Y701476D01*
X1035951Y710567D01*
X1035951Y719658D01*
X972314Y683295D02*
G01*
X972314Y715114D01*
X972314Y772386D02*
G01*
X976858Y763295D01*
X985949Y754204D01*
X999586Y749658D01*
X1008677Y749658D01*
X1022314Y754204D01*
X1031405Y763295D01*
X1035951Y772386D01*
X1035951Y786023D01*
X1031405Y795113D01*
X1022314Y804204D01*
X1008677Y808748D01*
X999586Y808748D01*
X985949Y804204D01*
X976858Y795113D01*
X972314Y786023D01*
X972314Y772386D01*
X1201186Y165112D02*
G01*
X1201186Y219659D01*
X1192095Y219659D01*
X1183005Y215112D01*
X1178458Y210565D01*
X1173914Y201475D01*
X1173914Y187840D01*
X1178458Y178749D01*
X1187551Y169659D01*
X1201186Y165112D01*
X1210276Y165112D01*
X1223914Y169659D01*
X1233004Y178749D01*
X1237551Y187840D01*
X1237551Y201475D01*
X1233004Y210565D01*
X1223914Y219659D01*
X1173914Y249659D02*
G01*
X1237551Y249659D01*
X1192095Y249659D02*
G01*
X1178458Y263293D01*
X1173914Y272384D01*
X1173914Y286021D01*
X1178458Y295112D01*
X1192095Y299659D01*
X1237551Y299659D01*
X1173914Y384202D02*
G01*
X1237551Y384202D01*
X1187551Y384202D02*
G01*
X1178458Y375112D01*
X1173914Y366021D01*
X1173914Y352384D01*
X1178458Y343293D01*
X1187551Y334203D01*
X1201186Y329658D01*
X1210276Y329658D01*
X1223914Y334203D01*
X1233004Y343293D01*
X1237551Y352384D01*
X1237551Y366021D01*
X1233004Y375112D01*
X1223914Y384202D01*
X1142095Y414202D02*
G01*
X1237551Y414202D01*
X1187551Y414202D02*
G01*
X1178458Y423293D01*
X1173914Y432386D01*
X1173914Y446021D01*
X1178458Y455112D01*
X1187551Y464202D01*
X1201186Y468749D01*
X1210276Y468749D01*
X1223914Y464202D01*
X1233004Y455112D01*
X1237551Y446021D01*
X1237551Y432386D01*
X1233004Y423293D01*
X1223914Y414202D01*
X1142095Y498749D02*
G01*
X1237551Y498749D01*
X1201186Y528749D02*
G01*
X1201186Y583295D01*
X1192095Y583295D01*
X1183005Y578749D01*
X1178458Y574202D01*
X1173914Y565111D01*
X1173914Y551477D01*
X1178458Y542386D01*
X1187551Y533295D01*
X1201186Y528749D01*
X1210276Y528749D01*
X1223914Y533295D01*
X1233004Y542386D01*
X1237551Y551477D01*
X1237551Y565111D01*
X1233004Y574202D01*
X1223914Y583295D01*
X1173914Y683295D02*
G01*
X1269367Y683295D01*
X1187551Y683295D02*
G01*
X1178458Y692386D01*
X1173914Y701476D01*
X1173914Y715114D01*
X1178458Y724204D01*
X1187551Y733295D01*
X1201186Y737839D01*
X1210276Y737839D01*
X1223914Y733295D01*
X1233004Y724204D01*
X1237551Y715114D01*
X1237551Y701476D01*
X1233004Y692386D01*
X1223914Y683295D01*
X1173914Y767839D02*
G01*
X1219367Y767839D01*
X1233004Y772386D01*
X1237551Y781476D01*
X1237551Y795113D01*
X1233004Y804204D01*
X1219367Y817839D01*
X1173914Y817839D02*
G01*
X1237551Y817839D01*
X1142095Y847839D02*
G01*
X1237551Y847839D01*
X1142095Y877839D02*
G01*
X1237551Y877839D01*
X1173914Y907839D02*
G01*
X1219367Y907839D01*
X1233004Y912385D01*
X1237551Y921476D01*
X1237551Y935113D01*
X1233004Y944204D01*
X1219367Y957841D01*
X1173914Y957841D02*
G01*
X1237551Y957841D01*
X1173914Y987841D02*
G01*
X1269367Y987841D01*
X1187551Y987841D02*
G01*
X1178458Y996932D01*
X1173914Y1006022D01*
X1173914Y1019657D01*
X1178458Y1028748D01*
X1187551Y1037841D01*
X1201186Y1042385D01*
X1210276Y1042385D01*
X1223914Y1037841D01*
X1233004Y1028748D01*
X1237551Y1019657D01*
X1237551Y1006022D01*
X1233004Y996932D01*
X1223914Y987841D01*
X1187551Y1122385D02*
G01*
X1178458Y1117841D01*
X1173914Y1104204D01*
X1173914Y1090566D01*
X1178458Y1076932D01*
X1187551Y1072385D01*
X1196642Y1076932D01*
X1201186Y1086022D01*
X1205732Y1108750D01*
X1210276Y1117841D01*
X1219367Y1122385D01*
X1223914Y1122385D01*
X1233004Y1117841D01*
X1237551Y1104204D01*
X1237551Y1090566D01*
X1233004Y1076932D01*
X1223914Y1072385D01*
X-1670151Y-2483993D02*
G01*
X-1670151Y-2626995D01*
X-1624939Y-2531745D02*
G01*
X-1624939Y-2626995D01*
X-1624939Y-2558922D02*
G01*
X-1604619Y-2538348D01*
X-1590903Y-2531745D01*
X-1570583Y-2531745D01*
X-1556867Y-2538348D01*
X-1550009Y-2558922D01*
X-1550009Y-2626995D01*
X-1505051Y-2531745D02*
G01*
X-1505051Y-2674747D01*
X-1505051Y-2552064D02*
G01*
X-1491335Y-2538348D01*
X-1477873Y-2531745D01*
X-1457299Y-2531745D01*
X-1443583Y-2538348D01*
X-1430121Y-2552064D01*
X-1423263Y-2572638D01*
X-1423263Y-2586101D01*
X-1430121Y-2606675D01*
X-1443583Y-2620137D01*
X-1457299Y-2626995D01*
X-1477873Y-2626995D01*
X-1491335Y-2620137D01*
X-1505051Y-2606675D01*
X-1378305Y-2531745D02*
G01*
X-1378305Y-2599817D01*
X-1371447Y-2620137D01*
X-1357731Y-2626995D01*
X-1337411Y-2626995D01*
X-1323695Y-2620137D01*
X-1303121Y-2599817D01*
X-1303121Y-2531745D02*
G01*
X-1303121Y-2626995D01*
X-1237843Y-2483993D02*
G01*
X-1237843Y-2599817D01*
X-1230985Y-2620137D01*
X-1217269Y-2626995D01*
X-1203807Y-2626995D01*
X-1258163Y-2531745D02*
G01*
X-1210411Y-2531745D01*
X-1635861Y-2731643D02*
G01*
X-1656435Y-2738247D01*
X-1663293Y-2751963D01*
X-1663293Y-2765679D01*
X-1656435Y-2779395D01*
X-1642719Y-2785998D01*
X-1615541Y-2792856D01*
X-1594967Y-2799714D01*
X-1581505Y-2813430D01*
X-1574647Y-2826893D01*
X-1574647Y-2847467D01*
X-1581505Y-2861182D01*
X-1588363Y-2867787D01*
X-1608683Y-2874645D01*
X-1635861Y-2874645D01*
X-1656435Y-2867787D01*
X-1663293Y-2861182D01*
X-1670151Y-2847467D01*
X-1670151Y-2826893D01*
X-1663293Y-2813430D01*
X-1649577Y-2799714D01*
X-1629257Y-2792856D01*
X-1601825Y-2785998D01*
X-1588363Y-2779395D01*
X-1581505Y-2765679D01*
X-1581505Y-2751963D01*
X-1588363Y-2738247D01*
X-1608683Y-2731643D01*
X-1635861Y-2731643D01*
X-1529689Y-2813430D02*
G01*
X-1407007Y-2813430D01*
X-1348333Y-2731643D02*
G01*
X-1273149Y-2731643D01*
X-1314043Y-2785998D01*
X-1293723Y-2785998D01*
X-1280007Y-2792856D01*
X-1273149Y-2799714D01*
X-1266545Y-2820288D01*
X-1266545Y-2833751D01*
X-1273149Y-2854325D01*
X-1286865Y-2867787D01*
X-1307439Y-2874645D01*
X-1327759Y-2874645D01*
X-1348333Y-2867787D01*
X-1354937Y-2861182D01*
X-1361795Y-2847467D01*
X-1139545Y-2731643D02*
G01*
X-1207871Y-2731643D01*
X-1214729Y-2792856D01*
X-1207871Y-2785998D01*
X-1187297Y-2779395D01*
X-1166977Y-2779395D01*
X-1146403Y-2785998D01*
X-1132687Y-2799714D01*
X-1126083Y-2820288D01*
X-1126083Y-2833751D01*
X-1132687Y-2854325D01*
X-1146403Y-2867787D01*
X-1166977Y-2874645D01*
X-1187297Y-2874645D01*
X-1207871Y-2867787D01*
X-1214729Y-2861182D01*
X-1221333Y-2847467D01*
X-1080871Y-2731643D02*
G01*
X-1026515Y-2874645D01*
X-971905Y-2731643D02*
G01*
X-1026515Y-2874645D01*
D15*
X-2558938Y-963488D02*
G01*
X-2558938Y-1072454D01*
X-2558938Y-963488D02*
G01*
X-2517282Y-1072454D01*
X-2475880Y-963488D02*
G01*
X-2517282Y-1072454D01*
X-2475880Y-963488D02*
G01*
X-2475880Y-1072454D01*
X-2441590Y-984316D02*
G01*
X-2431176Y-978982D01*
X-2415428Y-963488D01*
X-2415428Y-1072454D01*
X-2558938Y-263489D02*
G01*
X-2558938Y-372455D01*
X-2558938Y-263489D02*
G01*
X-2517282Y-372455D01*
X-2475880Y-263489D02*
G01*
X-2517282Y-372455D01*
X-2475880Y-263489D02*
G01*
X-2475880Y-372455D01*
X-2436256Y-289397D02*
G01*
X-2436256Y-284317D01*
X-2431176Y-273903D01*
X-2425842Y-268569D01*
X-2415428Y-263489D01*
X-2394854Y-263489D01*
X-2384440Y-268569D01*
X-2379106Y-273903D01*
X-2374026Y-284317D01*
X-2374026Y-294731D01*
X-2379106Y-305145D01*
X-2389520Y-320639D01*
X-2441590Y-372455D01*
X-2368692Y-372455D01*
X-2558938Y436509D02*
G01*
X-2558938Y327543D01*
X-2558938Y436509D02*
G01*
X-2517282Y327543D01*
X-2475880Y436509D02*
G01*
X-2517282Y327543D01*
X-2475880Y436509D02*
G01*
X-2475880Y327543D01*
X-2431176Y436509D02*
G01*
X-2374026Y436509D01*
X-2405268Y394853D01*
X-2389520Y394853D01*
X-2379106Y389773D01*
X-2374026Y384693D01*
X-2368692Y368945D01*
X-2368692Y358531D01*
X-2374026Y343037D01*
X-2384440Y332623D01*
X-2399934Y327543D01*
X-2415428Y327543D01*
X-2431176Y332623D01*
X-2436256Y337703D01*
X-2441590Y348117D01*
G36*
X-1032256Y-2368499D02*
G01*
X-1032256Y-2534513D01*
X-1007364Y-2534513D01*
X-1007364Y-2368499D01*
G37*
G36*
X-1069594Y-2439060D02*
G01*
X-1069594Y-2463952D01*
X-970026Y-2463952D01*
X-970026Y-2439060D01*
G37*
G36*
X-394004Y-2439060D02*
G01*
X-394004Y-2463952D01*
X-294386Y-2463952D01*
X-294386Y-2439060D01*
G37*
G36*
X-1140206Y711250D02*
G01*
X-1140206Y545236D01*
X-1115314Y545236D01*
X-1115314Y711250D01*
G37*
G36*
X-1177544Y640689D02*
G01*
X-1177544Y615797D01*
X-1077976Y615797D01*
X-1077976Y640689D01*
G37*
G36*
X-501954Y640689D02*
G01*
X-501954Y615797D01*
X-402336Y615797D01*
X-402336Y640689D01*
G37*
G36*
X246938Y-1303883D02*
G01*
X220979Y-1339850D01*
X245973Y-1375867D01*
G37*
G36*
X-2541320Y-2245664D02*
G01*
X-2505354Y-2271674D01*
X-2469337Y-2246680D01*
G37*
X645223Y-723249D02*
G01*
X577420Y-655447D01*
X483997Y-748870D01*
X551799Y-816673D01*
X705500Y-783526D02*
G01*
X773303Y-851329D01*
X679879Y-944753D01*
X612076Y-876950D01*
X735716Y-2672273D02*
G01*
X735716Y-2576385D01*
X603595Y-2576385D01*
X603595Y-2672273D01*
X735716Y-2757515D02*
G01*
X735716Y-2853402D01*
X603595Y-2853402D01*
X603595Y-2757515D01*
X768695Y-2757515D02*
G01*
X768695Y-2853402D01*
X900816Y-2853402D01*
X900816Y-2757515D01*
X768695Y-2672273D02*
G01*
X768695Y-2576385D01*
X900816Y-2576385D01*
X900816Y-2672273D01*
X1187795Y-2757515D02*
G01*
X1187795Y-2853402D01*
X1319916Y-2853402D01*
X1319916Y-2757515D01*
X1187795Y-2672273D02*
G01*
X1187795Y-2576385D01*
X1319916Y-2576385D01*
X1319916Y-2672273D01*
X1009995Y-2757515D02*
G01*
X1009995Y-2853402D01*
X1142116Y-2853402D01*
X1142116Y-2757515D01*
X1009995Y-2672273D02*
G01*
X1009995Y-2576385D01*
X1142116Y-2576385D01*
X1142116Y-2672273D01*
X284032Y-1069248D02*
G01*
X379920Y-1069248D01*
X379920Y-937127D01*
X284032Y-937127D01*
X198790Y-1069248D02*
G01*
X102903Y-1069248D01*
X102903Y-937127D01*
X198790Y-937127D01*
X277682Y-1234348D02*
G01*
X373570Y-1234348D01*
X373570Y-1102227D01*
X277682Y-1102227D01*
X192440Y-1234348D02*
G01*
X96553Y-1234348D01*
X96553Y-1102227D01*
X192440Y-1102227D01*
X1198321Y-1056660D02*
G01*
X1294208Y-1056660D01*
X1294208Y-924539D01*
X1198321Y-924539D01*
X1113078Y-1056660D02*
G01*
X1017191Y-1056660D01*
X1017191Y-924539D01*
X1113078Y-924539D01*
X782980Y-1362562D02*
G01*
X687092Y-1362562D01*
X687092Y-1494683D01*
X782980Y-1494683D01*
X868222Y-1362562D02*
G01*
X964110Y-1362562D01*
X964110Y-1494683D01*
X868222Y-1494683D01*
X454639Y-1204671D02*
G01*
X454639Y-1300558D01*
X586760Y-1300558D01*
X586760Y-1204671D01*
X454639Y-1119428D02*
G01*
X454639Y-1023541D01*
X586760Y-1023541D01*
X586760Y-1119428D01*
D10*
X-165270Y502091D02*
G01*
X-221841Y558662D01*
X-64889Y558655D02*
G01*
X-121455Y502086D01*
X-165275Y659038D02*
G01*
X-221841Y602472D01*
X-23756Y598965D02*
G01*
X32811Y655533D01*
X32811Y699350D02*
G01*
X-23754Y755916D01*
X-124137Y699345D02*
G01*
X-67569Y755914D01*
D16*
X-261879Y-2353170D02*
G01*
X-261879Y-2677779D01*
X-1102126Y-2162586D02*
G01*
X-1102126Y-2011603D01*
X-1102126Y-2509596D02*
G01*
X-1102126Y-2358613D01*
X-261879Y-1837977D02*
G01*
X-261879Y-2162586D01*
D15*
X-261879Y-1837977D02*
G01*
X-928499Y-1837977D01*
X-1102126Y-2011603D01*
X-261879Y-2683222D02*
G01*
X-928499Y-2683222D01*
X-1102126Y-2509596D01*
D16*
X-369829Y726579D02*
G01*
X-369829Y401970D01*
X-1210076Y917163D02*
G01*
X-1210076Y1068146D01*
X-1210076Y570153D02*
G01*
X-1210076Y721136D01*
X-369829Y1241772D02*
G01*
X-369829Y917163D01*
D15*
X-369829Y1241772D02*
G01*
X-1036449Y1241772D01*
X-1210076Y1068146D01*
X-369829Y396527D02*
G01*
X-1036449Y396527D01*
X-1210076Y570153D01*
D16*
X-1505447Y121109D02*
G01*
X-1505447Y91721D01*
X-1175445Y-176903D02*
G01*
X-1175445Y-208889D01*
X-1505447Y-208889D01*
X-1505447Y-179504D01*
X-1505447Y121109D02*
G01*
X-1175445Y121109D01*
X-1175445Y89120D01*
X-1359910Y171112D02*
G01*
X-1359910Y200499D01*
X-1689912Y469125D02*
G01*
X-1689912Y501111D01*
X-1359910Y501111D01*
X-1359910Y471726D01*
X-1359910Y171112D02*
G01*
X-1689912Y171112D01*
X-1689912Y203100D01*
X-1377571Y-1003698D02*
G01*
X-1377571Y-974310D01*
X-1707573Y-705685D02*
G01*
X-1707573Y-673699D01*
X-1377571Y-673699D01*
X-1377571Y-703084D01*
X-1377571Y-1003698D02*
G01*
X-1707573Y-1003698D01*
X-1707573Y-971710D01*
X-1498978Y-247251D02*
G01*
X-1498978Y-276639D01*
X-1168976Y-545264D02*
G01*
X-1168976Y-577250D01*
X-1498978Y-577250D01*
X-1498978Y-547865D01*
X-1498978Y-247251D02*
G01*
X-1168976Y-247251D01*
X-1168976Y-279239D01*
X-1371221Y-1422798D02*
G01*
X-1371221Y-1393410D01*
X-1701223Y-1124785D02*
G01*
X-1701223Y-1092799D01*
X-1371221Y-1092799D01*
X-1371221Y-1122184D01*
X-1371221Y-1422798D02*
G01*
X-1701223Y-1422798D01*
X-1701223Y-1390810D01*
X-1505328Y-1510901D02*
G01*
X-1505328Y-1540289D01*
X-1175326Y-1808914D02*
G01*
X-1175326Y-1840900D01*
X-1505328Y-1840900D01*
X-1505328Y-1811515D01*
X-1505328Y-1510901D02*
G01*
X-1175326Y-1510901D01*
X-1175326Y-1542889D01*
D10*
X183979Y-107508D02*
G01*
X127408Y-50937D01*
X284360Y-50944D02*
G01*
X227794Y-107513D01*
X183974Y49438D02*
G01*
X127408Y-7127D01*
X325493Y-10634D02*
G01*
X382061Y45933D01*
X382061Y89750D02*
G01*
X325495Y146316D01*
X225112Y89745D02*
G01*
X281680Y146314D01*
X-38270Y362391D02*
G01*
X-94841Y418962D01*
X62110Y418955D02*
G01*
X5544Y362386D01*
X-38275Y519338D02*
G01*
X-94841Y462772D01*
X103243Y459265D02*
G01*
X159811Y515833D01*
X159811Y559650D02*
G01*
X103245Y616216D01*
X2862Y559645D02*
G01*
X59430Y616214D01*
X-762698Y325727D02*
G01*
X-762698Y245724D01*
X-873673Y356712D02*
G01*
X-793676Y356712D01*
X-873673Y214746D02*
G01*
X-793676Y214746D01*
X-931263Y357294D02*
G01*
X-1011262Y357294D01*
X-1042245Y326311D02*
G01*
X-1042245Y246313D01*
X-931263Y215333D02*
G01*
X-1011262Y215333D01*
X-1072451Y-789277D02*
G01*
X-1072451Y-709274D01*
X-961476Y-820262D02*
G01*
X-1041473Y-820262D01*
X-961476Y-678296D02*
G01*
X-1041473Y-678296D01*
X-903886Y-820844D02*
G01*
X-823887Y-820844D01*
X-792904Y-789861D02*
G01*
X-792904Y-709863D01*
X-903886Y-678883D02*
G01*
X-823887Y-678883D01*
X-788098Y-1147472D02*
G01*
X-788098Y-1227475D01*
X-899073Y-1116487D02*
G01*
X-819076Y-1116487D01*
X-899073Y-1258453D02*
G01*
X-819076Y-1258453D01*
X-956663Y-1115905D02*
G01*
X-1036662Y-1115905D01*
X-1067645Y-1146888D02*
G01*
X-1067645Y-1226886D01*
X-956663Y-1257866D02*
G01*
X-1036662Y-1257866D01*
X-2768043Y-2642235D02*
G01*
X-2768043Y-3402233D01*
X-1768043Y-3402233D01*
X-1768043Y-2642235D01*
X-2768043Y-2642235D01*
X641791Y-615779D02*
G01*
X698362Y-559208D01*
X698355Y-716160D02*
G01*
X641786Y-659594D01*
X798738Y-615774D02*
G01*
X742172Y-559208D01*
X738665Y-757293D02*
G01*
X795233Y-813861D01*
X839050Y-813861D02*
G01*
X895616Y-757295D01*
X839045Y-656912D02*
G01*
X895614Y-713480D01*
X224457Y271482D02*
G01*
X224457Y191480D01*
X113482Y302468D02*
G01*
X193479Y302468D01*
X113482Y160502D02*
G01*
X193479Y160502D01*
X55892Y303049D02*
G01*
X-24107Y303049D01*
X-55090Y272067D02*
G01*
X-55090Y192069D01*
X55892Y161089D02*
G01*
X-24107Y161089D01*
D17*
X197949Y-1412849D02*
G01*
X82951Y-1412849D01*
X82951Y-1267851D01*
X202951Y-1267851D01*
X264949Y-1266850D02*
G01*
X388950Y-1266850D01*
X388950Y-1411848D01*
X264949Y-1411848D01*
X82951Y-1412849D02*
G01*
X79949Y-1412849D01*
X59949Y-1392849D01*
X59949Y-1290850D01*
X62951Y-1287851D01*
X82951Y-1267851D01*
D10*
X-144340Y-518843D02*
G01*
X-170787Y-492394D01*
X182765Y-845947D02*
G01*
X158295Y-821474D01*
X510049Y-466128D02*
G01*
X536318Y-492394D01*
X182765Y-138841D02*
G01*
X209212Y-165290D01*
X-146136Y-467743D02*
G01*
X-170787Y-492394D01*
X182765Y-138841D02*
G01*
X156316Y-165287D01*
X207416Y-821293D02*
G01*
X182765Y-845947D01*
X536318Y-492394D02*
G01*
X509869Y-518840D01*
D15*
X1601276Y1029045D02*
G01*
X1697164Y1029045D01*
X1697164Y1161166D01*
X1601276Y1161166D01*
X1516034Y1029045D02*
G01*
X1420147Y1029045D01*
X1420147Y1161166D01*
X1516034Y1161166D01*
X1601276Y698845D02*
G01*
X1697164Y698845D01*
X1697164Y830966D01*
X1601276Y830966D01*
X1516034Y698845D02*
G01*
X1420147Y698845D01*
X1420147Y830966D01*
X1516034Y830966D01*
X1601276Y368645D02*
G01*
X1697164Y368645D01*
X1697164Y500766D01*
X1601276Y500766D01*
X1516034Y368645D02*
G01*
X1420147Y368645D01*
X1420147Y500766D01*
X1516034Y500766D01*
D10*
X-2281999Y567550D02*
G01*
X-2281999Y644893D01*
X-2281999Y867549D02*
G01*
X-2281999Y790178D01*
X-2281999Y867549D02*
G01*
X-2281999Y908050D01*
X-2272858Y908050D01*
X-1782000Y567550D02*
G01*
X-1782000Y527050D01*
X-1791141Y527050D01*
X-2281999Y567550D02*
G01*
X-2281999Y527050D01*
X-2272858Y527050D01*
X-1782000Y867549D02*
G01*
X-1782000Y908050D01*
X-1791141Y908050D01*
X-1782000Y867549D02*
G01*
X-1782000Y567550D01*
X-1775650Y-1621650D02*
G01*
X-1775650Y-1698993D01*
X-1775650Y-1921649D02*
G01*
X-1775650Y-1844278D01*
X-1775650Y-1921649D02*
G01*
X-1775650Y-1962150D01*
X-1784791Y-1962150D01*
X-2275649Y-1621650D02*
G01*
X-2275649Y-1581150D01*
X-2266508Y-1581150D01*
X-1775650Y-1621650D02*
G01*
X-1775650Y-1581150D01*
X-1784791Y-1581150D01*
X-2275649Y-1921649D02*
G01*
X-2275649Y-1962150D01*
X-2266508Y-1962150D01*
X-2275649Y-1921649D02*
G01*
X-2275649Y-1621650D01*
X-2491077Y1034351D02*
G01*
X-2411074Y1034351D01*
X-2522062Y923376D02*
G01*
X-2522062Y1003373D01*
X-2380096Y923376D02*
G01*
X-2380096Y1003373D01*
X-2522644Y865786D02*
G01*
X-2522644Y785787D01*
X-2491661Y754804D02*
G01*
X-2411663Y754804D01*
X-2380683Y865786D02*
G01*
X-2380683Y785787D01*
X-1604672Y-2240851D02*
G01*
X-1684675Y-2240851D01*
X-1573687Y-2129876D02*
G01*
X-1573687Y-2209873D01*
X-1715653Y-2129876D02*
G01*
X-1715653Y-2209873D01*
X-1573105Y-2072286D02*
G01*
X-1573105Y-1992287D01*
X-1604088Y-1961304D02*
G01*
X-1684086Y-1961304D01*
X-1715066Y-2072286D02*
G01*
X-1715066Y-1992287D01*
X-1710027Y1085151D02*
G01*
X-1630024Y1085151D01*
X-1741012Y974176D02*
G01*
X-1741012Y1054173D01*
X-1599046Y974176D02*
G01*
X-1599046Y1054173D01*
X-1741594Y916586D02*
G01*
X-1741594Y836587D01*
X-1710611Y805604D02*
G01*
X-1630613Y805604D01*
X-1599633Y916586D02*
G01*
X-1599633Y836587D01*
X-2045398Y-2252372D02*
G01*
X-2045398Y-2332375D01*
X-2156373Y-2221387D02*
G01*
X-2076376Y-2221387D01*
X-2156373Y-2363353D02*
G01*
X-2076376Y-2363353D01*
X-2213963Y-2220805D02*
G01*
X-2293962Y-2220805D01*
X-2324945Y-2251788D02*
G01*
X-2324945Y-2331786D01*
X-2213963Y-2362766D02*
G01*
X-2293962Y-2362766D01*
D17*
X-2432344Y-2294694D02*
G01*
X-2432344Y-2409692D01*
X-2577343Y-2409692D01*
X-2577343Y-2289693D01*
X-2578343Y-2227694D02*
G01*
X-2578343Y-2103694D01*
X-2433345Y-2103694D01*
X-2433345Y-2227694D01*
X-2432344Y-2409692D02*
G01*
X-2432344Y-2412695D01*
X-2452344Y-2432695D01*
X-2554343Y-2432695D01*
X-2557343Y-2429692D01*
X-2577343Y-2409692D01*
D15*
X-2488123Y1308445D02*
G01*
X-2392235Y1308445D01*
X-2392235Y1440566D01*
X-2488123Y1440566D01*
X-2573365Y1308445D02*
G01*
X-2669252Y1308445D01*
X-2669252Y1440566D01*
X-2573365Y1440566D01*
X-2145223Y1308445D02*
G01*
X-2049335Y1308445D01*
X-2049335Y1440566D01*
X-2145223Y1440566D01*
X-2230465Y1308445D02*
G01*
X-2326352Y1308445D01*
X-2326352Y1440566D01*
X-2230465Y1440566D01*
X-2749204Y-2287615D02*
G01*
X-2749204Y-2383502D01*
X-2617083Y-2383502D01*
X-2617083Y-2287615D01*
X-2749204Y-2202373D02*
G01*
X-2749204Y-2106485D01*
X-2617083Y-2106485D01*
X-2617083Y-2202373D01*
D10*
X98546Y1737791D02*
G01*
X2180541Y1737791D01*
X2180539Y1737791D02*
G01*
X2180541Y1493799D01*
X2180541Y1493799D02*
G01*
X98546Y1493799D01*
X98546Y1493799D02*
G01*
X98544Y1737791D01*
D14*
X-2352956Y1742795D02*
G01*
X-2543456Y1742795D01*
X-2543456Y1488795D01*
X-3456Y1488795D01*
X-3456Y1742795D01*
D18*
X-3456Y1742795D02*
G01*
X-2352956Y1742795D01*
D14*
X822043Y-3057804D02*
G01*
X631543Y-3057804D01*
X631543Y-3311804D01*
X2155543Y-3311804D01*
X2155543Y-3057804D01*
D18*
X2155543Y-3057804D02*
G01*
X822043Y-3057804D01*
D10*
X-1679453Y-3062808D02*
G01*
X402541Y-3062808D01*
X402539Y-3062808D02*
G01*
X402541Y-3306800D01*
X402541Y-3306800D02*
G01*
X-1679453Y-3306800D01*
X-1679453Y-3306800D02*
G01*
X-1679455Y-3062808D01*
X2092055Y-47894D02*
G01*
X2092055Y1031605D01*
X2092055Y963261D02*
G01*
X1838055Y963261D01*
X2092055Y1031605D02*
G01*
X2092055Y1222105D01*
X1838055Y1222105D01*
X1838055Y-47894D01*
X2092055Y-47894D01*
G75*
G01*
X32817Y699353D02*
G02*
X32817Y655536I-21908J-21908D01*
G75*
G01*
X-67569Y755922D02*
G02*
X-23752Y755919I21907J-21909D01*
G75*
G01*
X-121453Y502092D02*
G02*
X-165270Y502092I-21908J21908D01*
G75*
G01*
X-221839Y558660D02*
G02*
X-221839Y602475I21909J21908D01*
G75*
G01*
X382067Y89753D02*
G02*
X382067Y45936I-21908J-21908D01*
G75*
G01*
X281681Y146322D02*
G02*
X325498Y146319I21907J-21909D01*
G75*
G01*
X227797Y-107508D02*
G02*
X183980Y-107508I-21908J21908D01*
G75*
G01*
X127411Y-50940D02*
G02*
X127411Y-7125I21909J21908D01*
G75*
G01*
X159817Y559653D02*
G02*
X159817Y515836I-21908J-21908D01*
G75*
G01*
X59431Y616222D02*
G02*
X103248Y616219I21907J-21909D01*
G75*
G01*
X5547Y362392D02*
G02*
X-38270Y362392I-21908J21908D01*
G75*
G01*
X-94839Y418960D02*
G02*
X-94839Y462775I21909J21908D01*
G75*
G01*
X-1042251Y326311D02*
G02*
X-1011268Y357297I30983J3D01*
G75*
G01*
X-1011268Y215328D02*
G02*
X-1042251Y246314I0J30983D01*
G75*
G01*
X-793681Y356713D02*
G02*
X-762698Y325727I0J-30983D01*
G75*
G01*
X-762698Y245730D02*
G02*
X-793679Y214747I-30983J0D01*
G75*
G01*
X-792899Y-789861D02*
G02*
X-823882Y-820844I-30983J0D01*
G75*
G01*
X-823882Y-678878D02*
G02*
X-792899Y-709864I0J-30983D01*
G75*
G01*
X-1041469Y-820263D02*
G02*
X-1072451Y-789277I0J30983D01*
G75*
G01*
X-1072451Y-709280D02*
G02*
X-1041469Y-678297I30982J0D01*
G75*
G01*
X-1067651Y-1146889D02*
G02*
X-1036668Y-1115906I30983J0D01*
G75*
G01*
X-1036668Y-1257872D02*
G02*
X-1067651Y-1226886I0J30983D01*
G75*
G01*
X-819081Y-1116487D02*
G02*
X-788098Y-1147473I0J-30983D01*
G75*
G01*
X-788098Y-1227470D02*
G02*
X-819081Y-1258453I-30983J0D01*
G75*
G01*
X839053Y-813867D02*
G02*
X795236Y-813867I-21908J21908D01*
G75*
G01*
X895622Y-713481D02*
G02*
X895619Y-757298I-21909J-21907D01*
G75*
G01*
X641792Y-659597D02*
G02*
X641792Y-615780I21908J21908D01*
G75*
G01*
X698360Y-559211D02*
G02*
X742175Y-559211I21908J-21909D01*
G75*
G01*
X-55095Y272067D02*
G02*
X-24112Y303050I30983J0D01*
G75*
G01*
X-24112Y161084D02*
G02*
X-55095Y192070I0J30983D01*
G75*
G01*
X193474Y302468D02*
G02*
X224457Y271483I0J-30983D01*
G75*
G01*
X224457Y191486D02*
G02*
X193474Y160503I-30983J0D01*
G75*
G01*
X-2281999Y644893D02*
G03*
X-2281509Y790179I-3981J72657D01*
G75*
G01*
X-1775650Y-1698993D02*
G03*
X-1776141Y-1844279I3980J-72657D01*
G75*
G01*
X-2491661Y754799D02*
G02*
X-2522644Y785782I0J30983D01*
G75*
G01*
X-2380678Y785782D02*
G02*
X-2411664Y754799I-30983J0D01*
G75*
G01*
X-2522063Y1003369D02*
G02*
X-2491077Y1034351I30983J0D01*
G75*
G01*
X-2411080Y1034351D02*
G02*
X-2380097Y1003369I0J-30982D01*
G75*
G01*
X-1604089Y-1961299D02*
G02*
X-1573106Y-1992282I0J-30983D01*
G75*
G01*
X-1715072Y-1992282D02*
G02*
X-1684086Y-1961299I30983J0D01*
G75*
G01*
X-1573687Y-2209869D02*
G02*
X-1604673Y-2240851I-30983J0D01*
G75*
G01*
X-1684670Y-2240851D02*
G02*
X-1715653Y-2209869I0J30982D01*
G75*
G01*
X-1710611Y805599D02*
G02*
X-1741594Y836582I0J30983D01*
G75*
G01*
X-1599628Y836582D02*
G02*
X-1630614Y805599I-30983J0D01*
G75*
G01*
X-1741013Y1054169D02*
G02*
X-1710027Y1085151I30983J0D01*
G75*
G01*
X-1630030Y1085151D02*
G02*
X-1599047Y1054169I0J-30982D01*
G75*
G01*
X-2324951Y-2251789D02*
G02*
X-2293968Y-2220806I30983J0D01*
G75*
G01*
X-2293968Y-2362772D02*
G02*
X-2324951Y-2331786I0J30983D01*
G75*
G01*
X-2076381Y-2221387D02*
G02*
X-2045398Y-2252373I0J-30983D01*
G75*
G01*
X-2045398Y-2332370D02*
G02*
X-2076381Y-2363353I-30983J0D01*
D12*
G75*
G01
X-1129426Y-195900D02*
G03X-1129426Y-195900I-10008J0D01*
G75*
G01
X-1715912Y488122D02*
G03X-1715912Y488122I-10008J0D01*
G75*
G01
X-1733565Y-686704D02*
G03X-1733565Y-686704I-10008J0D01*
G75*
G01
X-1122949Y-564251D02*
G03X-1122949Y-564251I-10008J0D01*
G75*
G01
X-1727215Y-1105804D02*
G03X-1727215Y-1105804I-10008J0D01*
G75*
G01
X-1129299Y-1827901D02*
G03X-1129299Y-1827901I-10008J0D01*
D10*
G75*
G01
X154849Y-105349D02*
G03X154849Y-105349I-8890J0D01*
D19*
G75*
G01
X-2270978Y450860D02*
G03X-2270978Y450860I-15011J0D01*
G75*
G01
X-1756628Y-1504940D02*
G03X-1756628Y-1504940I-15011J0D01*
M02*
