G04 Layer: BoardOutlineLayer*
G04 EasyEDA v6.5.57, 2026-08-14 15:25:13*
G04 ebc703f97e3148f1b7392a4f0a1a7df2,2865ae9118a24060a17af6d01c9bcc73,10*
G04 Gerber Generator version 0.2*
G04 Scale: 100 percent, Rotated: No, Reflected: No *
G04 Dimensions in millimeters *
G04 leading zeros omitted , absolute positions ,4 integer and 5 decimal *
%FSLAX45Y45*%
%MOMM*%

%ADD10C,0.2540*%
%ADD11C,0.0146*%
D10*
X1322072Y-608078D02*
G01*
X1322072Y2591925D01*
X-3915054Y4200532D02*
G01*
X-4226204Y4200532D01*
X-4406798Y4019938D01*
X-4406798Y-894961D01*
X-4193946Y-1108067D01*
X-4067454Y-1108067D01*
X859383Y4204596D02*
G01*
X-3889654Y4204596D01*
X-3889654Y4200532D01*
X-4067467Y-1108077D02*
G01*
X859332Y-1120815D01*
X1318285Y2600967D02*
G01*
X1318336Y2600942D01*
X1022070Y2897207D01*
X1022070Y4021792D01*
X1022070Y4041935D01*
X868382Y-1117041D02*
G01*
X868339Y-1117084D01*
X1018341Y-967082D01*
X1018298Y-967125D01*
X1022073Y-958075D02*
G01*
X1022073Y-913353D01*
X1318341Y-617085D01*
X1318298Y-617128D01*
X1018341Y4050931D02*
G01*
X868339Y4200928D01*
G75*
G01*
X868340Y4200929D02*
G03*
X859333Y4204660I-9008J-9007D01*
G75*
G01*
X1022073Y4041925D02*
G03*
X1018342Y4050932I-12738J-1D01*
G75*
G01*
X1322073Y2591925D02*
G03*
X1318298Y2600975I-12739J0D01*
G75*
G01*
X1318298Y-617129D02*
G03*
X1322073Y-608079I-8964J9051D01*
G75*
G01*
X1018299Y-967125D02*
G03*
X1022073Y-958075I-8964J9050D01*
G75*
G01*
X859333Y-1120816D02*
G03*
X868383Y-1117041I-1J12738D01*

%LPD*%
M02*
