G04 Layer: TopSolderMaskLayer*
G04 EasyEDA v6.5.57, 2026-08-14 15:25:13*
G04 ebc703f97e3148f1b7392a4f0a1a7df2,2865ae9118a24060a17af6d01c9bcc73,10*
G04 Gerber Generator version 0.2*
G04 Scale: 100 percent, Rotated: No, Reflected: No *
G04 Dimensions in millimeters *
G04 leading zeros omitted , absolute positions ,4 integer and 5 decimal *
%FSLAX45Y45*%
%MOMM*%

%AMMACRO1*4,1,8,-0.4243,-0.4828,-0.454,-0.453,-0.454,0.4531,-0.4243,0.4828,0.4243,0.4828,0.454,0.4531,0.454,-0.453,0.4243,-0.4828,-0.4243,-0.4828,0*%
%AMMACRO2*4,1,8,-0.4711,-0.4508,-0.5008,-0.421,-0.5008,0.4211,-0.4711,0.4508,0.471,0.4508,0.5008,0.4211,0.5008,-0.421,0.471,-0.4508,-0.4711,-0.4508,0*%
%AMMACRO3*4,1,8,-3.2711,-3.0508,-3.3008,-3.021,-3.3008,3.0211,-3.2711,3.0508,3.271,3.0508,3.3008,3.0211,3.3008,-3.021,3.271,-3.0508,-3.2711,-3.0508,0*%
%AMMACRO4*4,1,8,-1.4211,-0.7008,-1.4508,-0.671,-1.4508,0.6711,-1.4211,0.7008,1.421,0.7008,1.4508,0.6711,1.4508,-0.671,1.421,-0.7008,-1.4211,-0.7008,0*%
%AMMACRO5*4,1,8,-0.9211,-0.8508,-0.9508,-0.821,-0.9508,0.8211,-0.9211,0.8508,0.921,0.8508,0.9508,0.8211,0.9508,-0.821,0.921,-0.8508,-0.9211,-0.8508,0*%
%AMMACRO6*4,1,8,-0.5211,-0.5008,-0.5508,-0.471,-0.5508,0.471,-0.5211,0.5008,0.521,0.5008,0.5508,0.471,0.5508,-0.471,0.521,-0.5008,-0.5211,-0.5008,0*%
%AMMACRO7*4,1,8,-0.0564,-0.7225,-0.7225,-0.0564,-0.7225,-0.0143,0.0143,0.7225,0.0564,0.7225,0.7225,0.0564,0.7225,0.0143,-0.0143,-0.7225,-0.0564,-0.7225,0*%
%AMMACRO8*4,1,8,-0.4531,-0.454,-0.4828,-0.4243,-0.4828,0.4243,-0.4531,0.454,0.453,0.454,0.4828,0.4243,0.4828,-0.4243,0.453,-0.454,-0.4531,-0.454,0*%
%AMMACRO9*4,1,8,-0.7961,-0.3508,-0.8258,-0.321,-0.8258,0.3211,-0.7961,0.3508,0.796,0.3508,0.8258,0.3211,0.8258,-0.321,0.796,-0.3508,-0.7961,-0.3508,0*%
%AMMACRO10*4,1,8,-1.0211,-0.8008,-1.0508,-0.771,-1.0508,0.7711,-1.0211,0.8008,1.021,0.8008,1.0508,0.7711,1.0508,-0.771,1.021,-0.8008,-1.0211,-0.8008,0*%
%AMMACRO11*4,1,8,-0.796,-0.3508,-0.8258,-0.321,-0.8258,0.3211,-0.796,0.3508,0.796,0.3508,0.8258,0.3211,0.8258,-0.321,0.796,-0.3508,-0.796,-0.3508,0*%
%AMMACRO12*4,1,8,-0.9211,-0.6508,-0.9508,-0.621,-0.9508,0.6211,-0.9211,0.6508,0.921,0.6508,0.9508,0.6211,0.9508,-0.621,0.921,-0.6508,-0.9211,-0.6508,0*%
%AMMACRO13*4,1,8,-0.0414,-0.6414,-0.6414,-0.0414,-0.6414,0.0007,-0.0007,0.6414,0.0414,0.6414,0.6414,0.0414,0.6414,-0.0007,0.0007,-0.6414,-0.0414,-0.6414,0*%
%AMMACRO14*4,1,8,-0.0564,-0.6518,-0.6518,-0.0564,-0.6518,-0.0143,0.0143,0.6518,0.0564,0.6518,0.6518,0.0564,0.6518,0.0143,-0.0143,-0.6518,-0.0564,-0.6518,0*%
%AMMACRO15*4,1,8,-0.4211,-0.5008,-0.4508,-0.471,-0.4508,0.4711,-0.4211,0.5008,0.421,0.5008,0.4508,0.4711,0.4508,-0.471,0.421,-0.5008,-0.4211,-0.5008,0*%
%AMMACRO16*4,1,8,0.0143,-0.6518,-0.6518,0.0143,-0.6518,0.0564,-0.0564,0.6518,-0.0143,0.6518,0.6518,-0.0143,0.6518,-0.0564,0.0564,-0.6518,0.0143,-0.6518,0*%
%AMMACRO17*4,1,8,-0.4243,-0.4828,-0.4541,-0.453,-0.4541,0.4531,-0.4243,0.4828,0.4243,0.4828,0.4541,0.4531,0.4541,-0.453,0.4243,-0.4828,-0.4243,-0.4828,0*%
%AMMACRO18*4,1,8,-2.1711,-0.8508,-2.2008,-0.821,-2.2008,0.8211,-2.1711,0.8508,2.171,0.8508,2.2008,0.8211,2.2008,-0.821,2.171,-0.8508,-2.1711,-0.8508,0*%
%AMMACRO19*4,1,8,-0.3711,-0.2258,-0.4008,-0.196,-0.4008,0.1961,-0.3711,0.2258,0.371,0.2258,0.4008,0.1961,0.4008,-0.196,0.371,-0.2258,-0.3711,-0.2258,0*%
%AMMACRO20*4,1,8,-0.021,-2.3138,-2.3138,-0.021,-2.3138,0.021,-0.021,2.3138,0.021,2.3138,2.3138,0.021,2.3138,-0.021,0.021,-2.3138,-0.021,-2.3138,0*%
%AMMACRO21*4,1,8,0.1469,-0.4217,-0.4217,0.1469,-0.4217,0.189,-0.189,0.4217,-0.1469,0.4217,0.4217,-0.1469,0.4217,-0.189,0.189,-0.4217,0.1469,-0.4217,0*%
%AMMACRO22*4,1,8,-0.189,-0.4217,-0.4217,-0.189,-0.4217,-0.1469,0.1469,0.4217,0.189,0.4217,0.4217,0.189,0.4217,0.1469,-0.1469,-0.4217,-0.189,-0.4217,0*%
%AMMACRO23*4,1,8,-0.9211,-0.9508,-0.9508,-0.921,-0.9508,0.9211,-0.9211,0.9508,0.921,0.9508,0.9508,0.9211,0.9508,-0.921,0.921,-0.9508,-0.9211,-0.9508,0*%
%AMMACRO24*4,1,8,-0.8085,-0.8382,-0.8382,-0.8084,-0.8382,0.8085,-0.8085,0.8382,0.8084,0.8382,0.8382,0.8085,0.8382,-0.8084,0.8084,-0.8382,-0.8085,-0.8382,0*%
%ADD10MACRO1*%
%ADD11MACRO2*%
%ADD12MACRO3*%
%ADD13MACRO4*%
%ADD14O,1.555598X0.454609*%
%ADD15O,0.0131X0.454609*%
%ADD16O,0.454609X1.555598*%
%ADD17MACRO5*%
%ADD18MACRO6*%
%ADD19MACRO7*%
%ADD20MACRO8*%
%ADD21MACRO9*%
%ADD22MACRO10*%
%ADD23MACRO11*%
%ADD24MACRO12*%
%ADD25MACRO13*%
%ADD26MACRO14*%
%ADD27MACRO15*%
%ADD28MACRO16*%
%ADD29MACRO17*%
%ADD30C,4.1016*%
%ADD31C,0.6100*%
%ADD32MACRO18*%
%ADD33MACRO19*%
%ADD34MACRO20*%
%ADD35MACRO21*%
%ADD36MACRO22*%
%ADD37MACRO23*%
%ADD38C,1.9016*%
%ADD39C,1.9620*%
%ADD40C,1.6764*%
%ADD41MACRO24*%
%ADD42C,3.4032*%
%ADD43C,0.7016*%

%LPD*%
D10*
G01*
X-96102Y3579578D03*
G01*
X-96102Y3249378D03*
G01*
X-96102Y2906478D03*
G01*
X18197Y3579578D03*
G01*
X18197Y3249378D03*
G01*
X18197Y2906478D03*
D11*
G01*
X-1454150Y-285600D03*
G01*
X-1454150Y-425599D03*
D12*
G01*
X-388353Y-342900D03*
D13*
G01*
X-1046736Y-115620D03*
G01*
X-1046736Y-570179D03*
D14*
G01*
X-3581654Y3203303D03*
G01*
X-3581654Y3138279D03*
G01*
X-3581654Y3073280D03*
G01*
X-3581654Y3008282D03*
G01*
X-2996234Y3203303D03*
G01*
X-2996234Y3138279D03*
G01*
X-2996234Y3073280D03*
G01*
X-2996234Y3008282D03*
D16*
G01*
X-3229533Y509252D03*
G01*
X-3294557Y509252D03*
G01*
X-3359556Y509252D03*
G01*
X-3424555Y509252D03*
G01*
X-3229533Y-76166D03*
G01*
X-3294557Y-76166D03*
G01*
X-3359556Y-76166D03*
G01*
X-3424555Y-76166D03*
D17*
G01*
X-3196955Y1001699D03*
G01*
X-3516950Y1001699D03*
G01*
X-3203305Y2538399D03*
G01*
X-3523300Y2538399D03*
D18*
G01*
X-2636100Y-359765D03*
G01*
X-2636100Y-189765D03*
D19*
G01*
X-36000Y1792380D03*
G01*
X-156208Y1912588D03*
D20*
G01*
X-1460124Y590337D03*
G01*
X-1460124Y439687D03*
G01*
X-1301374Y439687D03*
G01*
X-1301374Y590337D03*
D11*
G01*
X-3073024Y159263D03*
G01*
X-3073024Y299262D03*
G01*
X-2806324Y3131063D03*
G01*
X-2806324Y3271062D03*
D17*
G01*
X-3202929Y2767662D03*
G01*
X-3522924Y2767662D03*
G01*
X-3196955Y773099D03*
G01*
X-3516950Y773099D03*
D21*
G01*
X745185Y897534D03*
G01*
X745185Y997534D03*
G01*
X745185Y1097534D03*
G01*
X745185Y1197533D03*
G01*
X745185Y1297533D03*
G01*
X745185Y1397533D03*
D22*
G01*
X1132685Y1527524D03*
G01*
X1132685Y767535D03*
D21*
G01*
X-3883761Y3502555D03*
G01*
X-3883761Y3602555D03*
G01*
X-3883809Y3302541D03*
D23*
G01*
X-3883808Y3402538D03*
D24*
G01*
X-4271312Y3732578D03*
G01*
X-4271360Y3172571D03*
D25*
G01*
X-169852Y1678467D03*
G01*
X-276377Y1784992D03*
D26*
G01*
X-684508Y1630925D03*
G01*
X-585514Y1531931D03*
D27*
G01*
X-1165354Y2562232D03*
G01*
X-1305354Y2562232D03*
D28*
G01*
X-1116196Y2300392D03*
G01*
X-1017202Y2399386D03*
D29*
G01*
X-1218333Y1130576D03*
G01*
X-1067686Y1130576D03*
D30*
G01*
X-4170781Y-634712D03*
D31*
G01*
X-4170781Y-475912D03*
G01*
X-4170781Y-793513D03*
G01*
X-4011980Y-634712D03*
G01*
X-4329582Y-634712D03*
G01*
X-4058488Y-522419D03*
G01*
X-4283075Y-522419D03*
G01*
X-4283075Y-747006D03*
G01*
X-4058488Y-747006D03*
D30*
G01*
X-4170781Y127287D03*
D31*
G01*
X-4170781Y286087D03*
G01*
X-4170781Y-31513D03*
G01*
X-4011980Y127287D03*
G01*
X-4329582Y127287D03*
G01*
X-4058488Y239580D03*
G01*
X-4283075Y239580D03*
G01*
X-4283075Y14993D03*
G01*
X-4058488Y14993D03*
D29*
G01*
X-761987Y1318978D03*
G01*
X-611339Y1318978D03*
D25*
G01*
X-562127Y1759592D03*
G01*
X-455602Y1653067D03*
D29*
G01*
X-610486Y1143276D03*
G01*
X-761133Y1143276D03*
G01*
X-1224683Y1314726D03*
G01*
X-1074036Y1314726D03*
D28*
G01*
X-1465558Y2909881D03*
G01*
X-1366564Y3008875D03*
D32*
G01*
X-1662960Y70126D03*
G01*
X-2337559Y70126D03*
G01*
X-1770910Y3257826D03*
G01*
X-2445509Y3257826D03*
G36*
X-2846745Y2163658D02*
G01*
X-2847243Y2163683D01*
X-2847736Y2163754D01*
X-2848221Y2163876D01*
X-2848688Y2164044D01*
X-2849140Y2164257D01*
X-2849567Y2164514D01*
X-2849968Y2164811D01*
X-2850337Y2165146D01*
X-2850672Y2165515D01*
X-2850969Y2165916D01*
X-2851226Y2166343D01*
X-2851439Y2166795D01*
X-2851607Y2167262D01*
X-2851729Y2167747D01*
X-2851800Y2168240D01*
X-2851825Y2168738D01*
X-2851825Y2208817D01*
X-2851800Y2209314D01*
X-2851729Y2209807D01*
X-2851607Y2210292D01*
X-2851439Y2210760D01*
X-2851226Y2211212D01*
X-2850969Y2211638D01*
X-2850672Y2212040D01*
X-2850337Y2212408D01*
X-2849968Y2212743D01*
X-2849567Y2213041D01*
X-2849140Y2213297D01*
X-2848688Y2213510D01*
X-2848221Y2213678D01*
X-2847736Y2213800D01*
X-2847243Y2213871D01*
X-2846745Y2213897D01*
X-2794797Y2213897D01*
X-2794797Y2228629D01*
X-2846745Y2228629D01*
X-2847243Y2228654D01*
X-2847736Y2228725D01*
X-2848221Y2228847D01*
X-2848688Y2229015D01*
X-2849140Y2229228D01*
X-2849567Y2229485D01*
X-2849968Y2229782D01*
X-2850337Y2230117D01*
X-2850672Y2230485D01*
X-2850969Y2230887D01*
X-2851226Y2231313D01*
X-2851439Y2231765D01*
X-2851607Y2232233D01*
X-2851729Y2232718D01*
X-2851800Y2233211D01*
X-2851825Y2233709D01*
X-2851825Y2273841D01*
X-2851800Y2274338D01*
X-2851729Y2274831D01*
X-2851607Y2275316D01*
X-2851439Y2275784D01*
X-2851226Y2276236D01*
X-2850969Y2276662D01*
X-2850672Y2277064D01*
X-2850337Y2277432D01*
X-2849968Y2277767D01*
X-2849567Y2278065D01*
X-2849140Y2278321D01*
X-2848688Y2278534D01*
X-2848221Y2278702D01*
X-2847736Y2278824D01*
X-2847243Y2278895D01*
X-2846745Y2278921D01*
X-2794797Y2278921D01*
X-2794797Y2293769D01*
X-2846745Y2293769D01*
X-2847243Y2293795D01*
X-2847736Y2293866D01*
X-2848221Y2293988D01*
X-2848688Y2294155D01*
X-2849140Y2294369D01*
X-2849567Y2294625D01*
X-2849968Y2294923D01*
X-2850337Y2295258D01*
X-2850672Y2295626D01*
X-2850969Y2296027D01*
X-2851226Y2296454D01*
X-2851439Y2296906D01*
X-2851607Y2297374D01*
X-2851729Y2297859D01*
X-2851800Y2298352D01*
X-2851825Y2298849D01*
X-2851825Y2338865D01*
X-2851800Y2339362D01*
X-2851729Y2339855D01*
X-2851607Y2340340D01*
X-2851439Y2340808D01*
X-2851226Y2341260D01*
X-2850969Y2341686D01*
X-2850672Y2342088D01*
X-2850337Y2342456D01*
X-2849968Y2342791D01*
X-2849567Y2343089D01*
X-2849140Y2343345D01*
X-2848688Y2343558D01*
X-2848221Y2343726D01*
X-2847736Y2343848D01*
X-2847243Y2343919D01*
X-2846745Y2343945D01*
X-2794797Y2343945D01*
X-2794797Y2358677D01*
X-2846745Y2358677D01*
X-2847243Y2358702D01*
X-2847736Y2358773D01*
X-2848221Y2358895D01*
X-2848688Y2359063D01*
X-2849140Y2359276D01*
X-2849567Y2359532D01*
X-2849968Y2359830D01*
X-2850337Y2360165D01*
X-2850672Y2360533D01*
X-2850969Y2360935D01*
X-2851226Y2361361D01*
X-2851439Y2361813D01*
X-2851607Y2362281D01*
X-2851729Y2362766D01*
X-2851800Y2363259D01*
X-2851825Y2363757D01*
X-2851825Y2403937D01*
X-2851800Y2404435D01*
X-2851729Y2404927D01*
X-2851607Y2405413D01*
X-2851439Y2405880D01*
X-2851226Y2406332D01*
X-2850969Y2406759D01*
X-2850672Y2407160D01*
X-2850337Y2407528D01*
X-2849968Y2407864D01*
X-2849567Y2408161D01*
X-2849140Y2408417D01*
X-2848688Y2408631D01*
X-2848221Y2408798D01*
X-2847736Y2408920D01*
X-2847243Y2408991D01*
X-2846745Y2409017D01*
X-2596931Y2409017D01*
X-2596433Y2408991D01*
X-2595940Y2408920D01*
X-2595455Y2408798D01*
X-2594988Y2408631D01*
X-2594536Y2408417D01*
X-2594109Y2408161D01*
X-2593708Y2407864D01*
X-2593340Y2407528D01*
X-2593004Y2407160D01*
X-2592707Y2406759D01*
X-2592451Y2406332D01*
X-2592237Y2405880D01*
X-2592070Y2405413D01*
X-2591948Y2404927D01*
X-2591876Y2404435D01*
X-2591851Y2403937D01*
X-2591851Y2168738D01*
X-2591876Y2168240D01*
X-2591948Y2167747D01*
X-2592070Y2167262D01*
X-2592237Y2166795D01*
X-2592451Y2166343D01*
X-2592707Y2165916D01*
X-2593004Y2165515D01*
X-2593340Y2165146D01*
X-2593708Y2164811D01*
X-2594109Y2164514D01*
X-2594536Y2164257D01*
X-2594988Y2164044D01*
X-2595455Y2163876D01*
X-2595940Y2163754D01*
X-2596433Y2163683D01*
X-2596931Y2163658D01*
G37*
D33*
G01*
X-2501750Y2188839D03*
G01*
X-2501750Y2253838D03*
G01*
X-2501750Y2318837D03*
G01*
X-2501750Y2383835D03*
G36*
X-2910047Y2544658D02*
G01*
X-2910545Y2544683D01*
X-2911038Y2544754D01*
X-2911523Y2544876D01*
X-2911990Y2545044D01*
X-2912442Y2545257D01*
X-2912869Y2545514D01*
X-2913270Y2545811D01*
X-2913639Y2546146D01*
X-2913974Y2546515D01*
X-2914271Y2546916D01*
X-2914528Y2547343D01*
X-2914741Y2547795D01*
X-2914909Y2548262D01*
X-2915031Y2548747D01*
X-2915102Y2549240D01*
X-2915127Y2549738D01*
X-2915127Y2784937D01*
X-2915102Y2785435D01*
X-2915031Y2785927D01*
X-2914909Y2786413D01*
X-2914741Y2786880D01*
X-2914528Y2787332D01*
X-2914271Y2787759D01*
X-2913974Y2788160D01*
X-2913639Y2788528D01*
X-2913270Y2788864D01*
X-2912869Y2789161D01*
X-2912442Y2789417D01*
X-2911990Y2789631D01*
X-2911523Y2789798D01*
X-2911038Y2789920D01*
X-2910545Y2789991D01*
X-2910047Y2790017D01*
X-2660233Y2790017D01*
X-2659735Y2789991D01*
X-2659242Y2789920D01*
X-2658757Y2789798D01*
X-2658290Y2789631D01*
X-2657838Y2789417D01*
X-2657411Y2789161D01*
X-2657010Y2788864D01*
X-2656641Y2788528D01*
X-2656306Y2788160D01*
X-2656009Y2787759D01*
X-2655752Y2787332D01*
X-2655539Y2786880D01*
X-2655371Y2786413D01*
X-2655249Y2785927D01*
X-2655178Y2785435D01*
X-2655153Y2784937D01*
X-2655153Y2744858D01*
X-2655178Y2744360D01*
X-2655249Y2743868D01*
X-2655371Y2743382D01*
X-2655539Y2742915D01*
X-2655752Y2742463D01*
X-2656009Y2742036D01*
X-2656306Y2741635D01*
X-2656641Y2741267D01*
X-2657010Y2740931D01*
X-2657411Y2740634D01*
X-2657838Y2740378D01*
X-2658290Y2740164D01*
X-2658757Y2739997D01*
X-2659242Y2739875D01*
X-2659735Y2739804D01*
X-2660233Y2739778D01*
X-2712181Y2739778D01*
X-2712181Y2725046D01*
X-2660233Y2725046D01*
X-2659735Y2725021D01*
X-2659242Y2724950D01*
X-2658757Y2724828D01*
X-2658290Y2724660D01*
X-2657838Y2724447D01*
X-2657411Y2724190D01*
X-2657010Y2723893D01*
X-2656641Y2723558D01*
X-2656306Y2723189D01*
X-2656009Y2722788D01*
X-2655752Y2722361D01*
X-2655539Y2721909D01*
X-2655371Y2721442D01*
X-2655249Y2720957D01*
X-2655178Y2720464D01*
X-2655153Y2719966D01*
X-2655153Y2679834D01*
X-2655178Y2679336D01*
X-2655249Y2678844D01*
X-2655371Y2678358D01*
X-2655539Y2677891D01*
X-2655752Y2677439D01*
X-2656009Y2677012D01*
X-2656306Y2676611D01*
X-2656641Y2676243D01*
X-2657010Y2675907D01*
X-2657411Y2675610D01*
X-2657838Y2675354D01*
X-2658290Y2675140D01*
X-2658757Y2674973D01*
X-2659242Y2674851D01*
X-2659735Y2674780D01*
X-2660233Y2674754D01*
X-2712181Y2674754D01*
X-2712181Y2659905D01*
X-2660233Y2659905D01*
X-2659735Y2659880D01*
X-2659242Y2659809D01*
X-2658757Y2659687D01*
X-2658290Y2659519D01*
X-2657838Y2659306D01*
X-2657411Y2659049D01*
X-2657010Y2658752D01*
X-2656641Y2658417D01*
X-2656306Y2658049D01*
X-2656009Y2657647D01*
X-2655752Y2657221D01*
X-2655539Y2656768D01*
X-2655371Y2656301D01*
X-2655249Y2655816D01*
X-2655178Y2655323D01*
X-2655153Y2654825D01*
X-2655153Y2614810D01*
X-2655178Y2614312D01*
X-2655249Y2613820D01*
X-2655371Y2613334D01*
X-2655539Y2612867D01*
X-2655752Y2612415D01*
X-2656009Y2611988D01*
X-2656306Y2611587D01*
X-2656641Y2611219D01*
X-2657010Y2610883D01*
X-2657411Y2610586D01*
X-2657838Y2610330D01*
X-2658290Y2610116D01*
X-2658757Y2609949D01*
X-2659242Y2609827D01*
X-2659735Y2609756D01*
X-2660233Y2609730D01*
X-2712181Y2609730D01*
X-2712181Y2594998D01*
X-2660233Y2594998D01*
X-2659735Y2594973D01*
X-2659242Y2594902D01*
X-2658757Y2594780D01*
X-2658290Y2594612D01*
X-2657838Y2594399D01*
X-2657411Y2594142D01*
X-2657010Y2593845D01*
X-2656641Y2593510D01*
X-2656306Y2593141D01*
X-2656009Y2592740D01*
X-2655752Y2592313D01*
X-2655539Y2591861D01*
X-2655371Y2591394D01*
X-2655249Y2590909D01*
X-2655178Y2590416D01*
X-2655153Y2589918D01*
X-2655153Y2549738D01*
X-2655178Y2549240D01*
X-2655249Y2548747D01*
X-2655371Y2548262D01*
X-2655539Y2547795D01*
X-2655752Y2547343D01*
X-2656009Y2546916D01*
X-2656306Y2546515D01*
X-2656641Y2546146D01*
X-2657010Y2545811D01*
X-2657411Y2545514D01*
X-2657838Y2545257D01*
X-2658290Y2545044D01*
X-2658757Y2544876D01*
X-2659242Y2544754D01*
X-2659735Y2544683D01*
X-2660233Y2544658D01*
G37*
G01*
X-3005228Y2764835D03*
G01*
X-3005228Y2699837D03*
G01*
X-3005228Y2634838D03*
G01*
X-3005228Y2569839D03*
G36*
X-2927708Y1369847D02*
G01*
X-2928205Y1369872D01*
X-2928698Y1369943D01*
X-2929183Y1370065D01*
X-2929651Y1370233D01*
X-2930103Y1370446D01*
X-2930530Y1370703D01*
X-2930931Y1371000D01*
X-2931299Y1371335D01*
X-2931634Y1371704D01*
X-2931932Y1372105D01*
X-2932188Y1372532D01*
X-2932402Y1372984D01*
X-2932569Y1373451D01*
X-2932691Y1373936D01*
X-2932762Y1374429D01*
X-2932788Y1374927D01*
X-2932788Y1610126D01*
X-2932762Y1610624D01*
X-2932691Y1611116D01*
X-2932569Y1611602D01*
X-2932402Y1612069D01*
X-2932188Y1612521D01*
X-2931932Y1612948D01*
X-2931634Y1613349D01*
X-2931299Y1613717D01*
X-2930931Y1614053D01*
X-2930530Y1614350D01*
X-2930103Y1614606D01*
X-2929651Y1614820D01*
X-2929183Y1614987D01*
X-2928698Y1615109D01*
X-2928205Y1615180D01*
X-2927708Y1615206D01*
X-2677894Y1615206D01*
X-2677396Y1615180D01*
X-2676903Y1615109D01*
X-2676418Y1614987D01*
X-2675950Y1614820D01*
X-2675498Y1614606D01*
X-2675072Y1614350D01*
X-2674670Y1614053D01*
X-2674302Y1613717D01*
X-2673967Y1613349D01*
X-2673670Y1612948D01*
X-2673413Y1612521D01*
X-2673200Y1612069D01*
X-2673032Y1611602D01*
X-2672910Y1611116D01*
X-2672839Y1610624D01*
X-2672814Y1610126D01*
X-2672814Y1570047D01*
X-2672839Y1569549D01*
X-2672910Y1569057D01*
X-2673032Y1568571D01*
X-2673200Y1568104D01*
X-2673413Y1567652D01*
X-2673670Y1567225D01*
X-2673967Y1566824D01*
X-2674302Y1566456D01*
X-2674670Y1566120D01*
X-2675072Y1565823D01*
X-2675498Y1565567D01*
X-2675950Y1565353D01*
X-2676418Y1565186D01*
X-2676903Y1565064D01*
X-2677396Y1564993D01*
X-2677894Y1564967D01*
X-2729842Y1564967D01*
X-2729842Y1550235D01*
X-2677894Y1550235D01*
X-2677396Y1550210D01*
X-2676903Y1550139D01*
X-2676418Y1550017D01*
X-2675950Y1549849D01*
X-2675498Y1549636D01*
X-2675072Y1549379D01*
X-2674670Y1549082D01*
X-2674302Y1548747D01*
X-2673967Y1548378D01*
X-2673670Y1547977D01*
X-2673413Y1547550D01*
X-2673200Y1547098D01*
X-2673032Y1546631D01*
X-2672910Y1546146D01*
X-2672839Y1545653D01*
X-2672814Y1545155D01*
X-2672814Y1505023D01*
X-2672839Y1504525D01*
X-2672910Y1504033D01*
X-2673032Y1503547D01*
X-2673200Y1503080D01*
X-2673413Y1502628D01*
X-2673670Y1502201D01*
X-2673967Y1501800D01*
X-2674302Y1501432D01*
X-2674670Y1501096D01*
X-2675072Y1500799D01*
X-2675498Y1500543D01*
X-2675950Y1500329D01*
X-2676418Y1500162D01*
X-2676903Y1500040D01*
X-2677396Y1499969D01*
X-2677894Y1499943D01*
X-2729842Y1499943D01*
X-2729842Y1485094D01*
X-2677894Y1485094D01*
X-2677396Y1485069D01*
X-2676903Y1484998D01*
X-2676418Y1484876D01*
X-2675950Y1484708D01*
X-2675498Y1484495D01*
X-2675072Y1484238D01*
X-2674670Y1483941D01*
X-2674302Y1483606D01*
X-2673967Y1483238D01*
X-2673670Y1482836D01*
X-2673413Y1482410D01*
X-2673200Y1481957D01*
X-2673032Y1481490D01*
X-2672910Y1481005D01*
X-2672839Y1480512D01*
X-2672814Y1480014D01*
X-2672814Y1439999D01*
X-2672839Y1439501D01*
X-2672910Y1439009D01*
X-2673032Y1438523D01*
X-2673200Y1438056D01*
X-2673413Y1437604D01*
X-2673670Y1437177D01*
X-2673967Y1436776D01*
X-2674302Y1436408D01*
X-2674670Y1436072D01*
X-2675072Y1435775D01*
X-2675498Y1435519D01*
X-2675950Y1435305D01*
X-2676418Y1435138D01*
X-2676903Y1435016D01*
X-2677396Y1434945D01*
X-2677894Y1434919D01*
X-2729842Y1434919D01*
X-2729842Y1420187D01*
X-2677894Y1420187D01*
X-2677396Y1420162D01*
X-2676903Y1420091D01*
X-2676418Y1419969D01*
X-2675950Y1419801D01*
X-2675498Y1419588D01*
X-2675072Y1419331D01*
X-2674670Y1419034D01*
X-2674302Y1418699D01*
X-2673967Y1418330D01*
X-2673670Y1417929D01*
X-2673413Y1417502D01*
X-2673200Y1417050D01*
X-2673032Y1416583D01*
X-2672910Y1416098D01*
X-2672839Y1415605D01*
X-2672814Y1415107D01*
X-2672814Y1374927D01*
X-2672839Y1374429D01*
X-2672910Y1373936D01*
X-2673032Y1373451D01*
X-2673200Y1372984D01*
X-2673413Y1372532D01*
X-2673670Y1372105D01*
X-2673967Y1371704D01*
X-2674302Y1371335D01*
X-2674670Y1371000D01*
X-2675072Y1370703D01*
X-2675498Y1370446D01*
X-2675950Y1370233D01*
X-2676418Y1370065D01*
X-2676903Y1369943D01*
X-2677396Y1369872D01*
X-2677894Y1369847D01*
G37*
G01*
X-3022889Y1590024D03*
G01*
X-3022889Y1525026D03*
G01*
X-3022889Y1460027D03*
G01*
X-3022889Y1395028D03*
G36*
X-2840276Y1795297D02*
G01*
X-2840774Y1795322D01*
X-2841266Y1795393D01*
X-2841752Y1795515D01*
X-2842219Y1795683D01*
X-2842671Y1795896D01*
X-2843098Y1796153D01*
X-2843499Y1796450D01*
X-2843867Y1796785D01*
X-2844203Y1797154D01*
X-2844500Y1797555D01*
X-2844756Y1797982D01*
X-2844970Y1798434D01*
X-2845137Y1798901D01*
X-2845259Y1799386D01*
X-2845330Y1799879D01*
X-2845356Y1800377D01*
X-2845356Y1840456D01*
X-2845330Y1840953D01*
X-2845259Y1841446D01*
X-2845137Y1841931D01*
X-2844970Y1842399D01*
X-2844756Y1842851D01*
X-2844500Y1843278D01*
X-2844203Y1843679D01*
X-2843867Y1844047D01*
X-2843499Y1844382D01*
X-2843098Y1844680D01*
X-2842671Y1844936D01*
X-2842219Y1845149D01*
X-2841752Y1845317D01*
X-2841266Y1845439D01*
X-2840774Y1845510D01*
X-2840276Y1845536D01*
X-2788328Y1845536D01*
X-2788328Y1860268D01*
X-2840276Y1860268D01*
X-2840774Y1860293D01*
X-2841266Y1860364D01*
X-2841752Y1860486D01*
X-2842219Y1860654D01*
X-2842671Y1860867D01*
X-2843098Y1861124D01*
X-2843499Y1861421D01*
X-2843867Y1861756D01*
X-2844203Y1862124D01*
X-2844500Y1862526D01*
X-2844756Y1862952D01*
X-2844970Y1863404D01*
X-2845137Y1863872D01*
X-2845259Y1864357D01*
X-2845330Y1864850D01*
X-2845356Y1865348D01*
X-2845356Y1905480D01*
X-2845330Y1905977D01*
X-2845259Y1906470D01*
X-2845137Y1906955D01*
X-2844970Y1907423D01*
X-2844756Y1907875D01*
X-2844500Y1908302D01*
X-2844203Y1908703D01*
X-2843867Y1909071D01*
X-2843499Y1909406D01*
X-2843098Y1909704D01*
X-2842671Y1909960D01*
X-2842219Y1910173D01*
X-2841752Y1910341D01*
X-2841266Y1910463D01*
X-2840774Y1910534D01*
X-2840276Y1910560D01*
X-2788328Y1910560D01*
X-2788328Y1925408D01*
X-2840276Y1925408D01*
X-2840774Y1925434D01*
X-2841266Y1925505D01*
X-2841752Y1925627D01*
X-2842219Y1925794D01*
X-2842671Y1926008D01*
X-2843098Y1926264D01*
X-2843499Y1926562D01*
X-2843867Y1926897D01*
X-2844203Y1927265D01*
X-2844500Y1927666D01*
X-2844756Y1928093D01*
X-2844970Y1928545D01*
X-2845137Y1929013D01*
X-2845259Y1929498D01*
X-2845330Y1929991D01*
X-2845356Y1930488D01*
X-2845356Y1970504D01*
X-2845330Y1971001D01*
X-2845259Y1971494D01*
X-2845137Y1971979D01*
X-2844970Y1972447D01*
X-2844756Y1972899D01*
X-2844500Y1973326D01*
X-2844203Y1973727D01*
X-2843867Y1974095D01*
X-2843499Y1974430D01*
X-2843098Y1974728D01*
X-2842671Y1974984D01*
X-2842219Y1975197D01*
X-2841752Y1975365D01*
X-2841266Y1975487D01*
X-2840774Y1975558D01*
X-2840276Y1975584D01*
X-2788328Y1975584D01*
X-2788328Y1990316D01*
X-2840276Y1990316D01*
X-2840774Y1990341D01*
X-2841266Y1990412D01*
X-2841752Y1990534D01*
X-2842219Y1990702D01*
X-2842671Y1990915D01*
X-2843098Y1991172D01*
X-2843499Y1991469D01*
X-2843867Y1991804D01*
X-2844203Y1992172D01*
X-2844500Y1992574D01*
X-2844756Y1993000D01*
X-2844970Y1993452D01*
X-2845137Y1993920D01*
X-2845259Y1994405D01*
X-2845330Y1994898D01*
X-2845356Y1995396D01*
X-2845356Y2035576D01*
X-2845330Y2036074D01*
X-2845259Y2036566D01*
X-2845137Y2037052D01*
X-2844970Y2037519D01*
X-2844756Y2037971D01*
X-2844500Y2038398D01*
X-2844203Y2038799D01*
X-2843867Y2039167D01*
X-2843499Y2039503D01*
X-2843098Y2039800D01*
X-2842671Y2040056D01*
X-2842219Y2040270D01*
X-2841752Y2040437D01*
X-2841266Y2040559D01*
X-2840774Y2040630D01*
X-2840276Y2040656D01*
X-2590462Y2040656D01*
X-2589964Y2040630D01*
X-2589471Y2040559D01*
X-2588986Y2040437D01*
X-2588519Y2040270D01*
X-2588066Y2040056D01*
X-2587640Y2039800D01*
X-2587238Y2039503D01*
X-2586870Y2039167D01*
X-2586535Y2038799D01*
X-2586238Y2038398D01*
X-2585981Y2037971D01*
X-2585768Y2037519D01*
X-2585600Y2037052D01*
X-2585478Y2036566D01*
X-2585407Y2036074D01*
X-2585382Y2035576D01*
X-2585382Y1800377D01*
X-2585407Y1799879D01*
X-2585478Y1799386D01*
X-2585600Y1798901D01*
X-2585768Y1798434D01*
X-2585981Y1797982D01*
X-2586238Y1797555D01*
X-2586535Y1797154D01*
X-2586870Y1796785D01*
X-2587238Y1796450D01*
X-2587640Y1796153D01*
X-2588066Y1795896D01*
X-2588519Y1795683D01*
X-2588986Y1795515D01*
X-2589471Y1795393D01*
X-2589964Y1795322D01*
X-2590462Y1795297D01*
G37*
G01*
X-2495280Y1820478D03*
G01*
X-2495280Y1885477D03*
G01*
X-2495280Y1950476D03*
G01*
X-2495280Y2015474D03*
G36*
X-2921358Y950747D02*
G01*
X-2921855Y950772D01*
X-2922348Y950843D01*
X-2922833Y950965D01*
X-2923301Y951133D01*
X-2923753Y951346D01*
X-2924180Y951603D01*
X-2924581Y951900D01*
X-2924949Y952235D01*
X-2925284Y952604D01*
X-2925582Y953005D01*
X-2925838Y953432D01*
X-2926052Y953884D01*
X-2926219Y954351D01*
X-2926341Y954836D01*
X-2926412Y955329D01*
X-2926438Y955827D01*
X-2926438Y1191026D01*
X-2926412Y1191524D01*
X-2926341Y1192016D01*
X-2926219Y1192502D01*
X-2926052Y1192969D01*
X-2925838Y1193421D01*
X-2925582Y1193848D01*
X-2925284Y1194249D01*
X-2924949Y1194617D01*
X-2924581Y1194953D01*
X-2924180Y1195250D01*
X-2923753Y1195506D01*
X-2923301Y1195720D01*
X-2922833Y1195887D01*
X-2922348Y1196009D01*
X-2921855Y1196080D01*
X-2921358Y1196106D01*
X-2671544Y1196106D01*
X-2671046Y1196080D01*
X-2670553Y1196009D01*
X-2670068Y1195887D01*
X-2669600Y1195720D01*
X-2669148Y1195506D01*
X-2668722Y1195250D01*
X-2668320Y1194953D01*
X-2667952Y1194617D01*
X-2667617Y1194249D01*
X-2667320Y1193848D01*
X-2667063Y1193421D01*
X-2666850Y1192969D01*
X-2666682Y1192502D01*
X-2666560Y1192016D01*
X-2666489Y1191524D01*
X-2666464Y1191026D01*
X-2666464Y1150947D01*
X-2666489Y1150449D01*
X-2666560Y1149957D01*
X-2666682Y1149471D01*
X-2666850Y1149004D01*
X-2667063Y1148552D01*
X-2667320Y1148125D01*
X-2667617Y1147724D01*
X-2667952Y1147356D01*
X-2668320Y1147020D01*
X-2668722Y1146723D01*
X-2669148Y1146467D01*
X-2669600Y1146253D01*
X-2670068Y1146086D01*
X-2670553Y1145964D01*
X-2671046Y1145893D01*
X-2671544Y1145867D01*
X-2723492Y1145867D01*
X-2723492Y1131135D01*
X-2671544Y1131135D01*
X-2671046Y1131110D01*
X-2670553Y1131039D01*
X-2670068Y1130917D01*
X-2669600Y1130749D01*
X-2669148Y1130536D01*
X-2668722Y1130279D01*
X-2668320Y1129982D01*
X-2667952Y1129647D01*
X-2667617Y1129278D01*
X-2667320Y1128877D01*
X-2667063Y1128450D01*
X-2666850Y1127998D01*
X-2666682Y1127531D01*
X-2666560Y1127046D01*
X-2666489Y1126553D01*
X-2666464Y1126055D01*
X-2666464Y1085923D01*
X-2666489Y1085425D01*
X-2666560Y1084933D01*
X-2666682Y1084447D01*
X-2666850Y1083980D01*
X-2667063Y1083528D01*
X-2667320Y1083101D01*
X-2667617Y1082700D01*
X-2667952Y1082332D01*
X-2668320Y1081996D01*
X-2668722Y1081699D01*
X-2669148Y1081443D01*
X-2669600Y1081229D01*
X-2670068Y1081062D01*
X-2670553Y1080940D01*
X-2671046Y1080869D01*
X-2671544Y1080843D01*
X-2723492Y1080843D01*
X-2723492Y1065994D01*
X-2671544Y1065994D01*
X-2671046Y1065969D01*
X-2670553Y1065898D01*
X-2670068Y1065776D01*
X-2669600Y1065608D01*
X-2669148Y1065395D01*
X-2668722Y1065138D01*
X-2668320Y1064841D01*
X-2667952Y1064506D01*
X-2667617Y1064138D01*
X-2667320Y1063736D01*
X-2667063Y1063310D01*
X-2666850Y1062857D01*
X-2666682Y1062390D01*
X-2666560Y1061905D01*
X-2666489Y1061412D01*
X-2666464Y1060914D01*
X-2666464Y1020899D01*
X-2666489Y1020401D01*
X-2666560Y1019909D01*
X-2666682Y1019423D01*
X-2666850Y1018956D01*
X-2667063Y1018504D01*
X-2667320Y1018077D01*
X-2667617Y1017676D01*
X-2667952Y1017308D01*
X-2668320Y1016972D01*
X-2668722Y1016675D01*
X-2669148Y1016419D01*
X-2669600Y1016205D01*
X-2670068Y1016038D01*
X-2670553Y1015916D01*
X-2671046Y1015845D01*
X-2671544Y1015819D01*
X-2723492Y1015819D01*
X-2723492Y1001087D01*
X-2671544Y1001087D01*
X-2671046Y1001062D01*
X-2670553Y1000991D01*
X-2670068Y1000869D01*
X-2669600Y1000701D01*
X-2669148Y1000488D01*
X-2668722Y1000231D01*
X-2668320Y999934D01*
X-2667952Y999599D01*
X-2667617Y999230D01*
X-2667320Y998829D01*
X-2667063Y998402D01*
X-2666850Y997950D01*
X-2666682Y997483D01*
X-2666560Y996998D01*
X-2666489Y996505D01*
X-2666464Y996007D01*
X-2666464Y955827D01*
X-2666489Y955329D01*
X-2666560Y954836D01*
X-2666682Y954351D01*
X-2666850Y953884D01*
X-2667063Y953432D01*
X-2667320Y953005D01*
X-2667617Y952604D01*
X-2667952Y952235D01*
X-2668320Y951900D01*
X-2668722Y951603D01*
X-2669148Y951346D01*
X-2669600Y951133D01*
X-2670068Y950965D01*
X-2670553Y950843D01*
X-2671046Y950772D01*
X-2671544Y950747D01*
G37*
G01*
X-3016539Y1170924D03*
G01*
X-3016539Y1105926D03*
G01*
X-3016539Y1040927D03*
G01*
X-3016539Y975928D03*
G36*
X-2846626Y531647D02*
G01*
X-2847124Y531672D01*
X-2847616Y531743D01*
X-2848102Y531865D01*
X-2848569Y532033D01*
X-2849021Y532246D01*
X-2849448Y532503D01*
X-2849849Y532800D01*
X-2850217Y533135D01*
X-2850553Y533504D01*
X-2850850Y533905D01*
X-2851106Y534332D01*
X-2851320Y534784D01*
X-2851487Y535251D01*
X-2851609Y535736D01*
X-2851680Y536229D01*
X-2851706Y536727D01*
X-2851706Y576806D01*
X-2851680Y577303D01*
X-2851609Y577796D01*
X-2851487Y578281D01*
X-2851320Y578749D01*
X-2851106Y579201D01*
X-2850850Y579628D01*
X-2850553Y580029D01*
X-2850217Y580397D01*
X-2849849Y580732D01*
X-2849448Y581030D01*
X-2849021Y581286D01*
X-2848569Y581499D01*
X-2848102Y581667D01*
X-2847616Y581789D01*
X-2847124Y581860D01*
X-2846626Y581886D01*
X-2794678Y581886D01*
X-2794678Y596618D01*
X-2846626Y596618D01*
X-2847124Y596643D01*
X-2847616Y596714D01*
X-2848102Y596836D01*
X-2848569Y597004D01*
X-2849021Y597217D01*
X-2849448Y597474D01*
X-2849849Y597771D01*
X-2850217Y598106D01*
X-2850553Y598474D01*
X-2850850Y598876D01*
X-2851106Y599302D01*
X-2851320Y599754D01*
X-2851487Y600222D01*
X-2851609Y600707D01*
X-2851680Y601200D01*
X-2851706Y601698D01*
X-2851706Y641830D01*
X-2851680Y642327D01*
X-2851609Y642820D01*
X-2851487Y643305D01*
X-2851320Y643773D01*
X-2851106Y644225D01*
X-2850850Y644652D01*
X-2850553Y645053D01*
X-2850217Y645421D01*
X-2849849Y645756D01*
X-2849448Y646054D01*
X-2849021Y646310D01*
X-2848569Y646523D01*
X-2848102Y646691D01*
X-2847616Y646813D01*
X-2847124Y646884D01*
X-2846626Y646910D01*
X-2794678Y646910D01*
X-2794678Y661758D01*
X-2846626Y661758D01*
X-2847124Y661784D01*
X-2847616Y661855D01*
X-2848102Y661977D01*
X-2848569Y662144D01*
X-2849021Y662358D01*
X-2849448Y662614D01*
X-2849849Y662912D01*
X-2850217Y663247D01*
X-2850553Y663615D01*
X-2850850Y664016D01*
X-2851106Y664443D01*
X-2851320Y664895D01*
X-2851487Y665363D01*
X-2851609Y665848D01*
X-2851680Y666341D01*
X-2851706Y666838D01*
X-2851706Y706854D01*
X-2851680Y707351D01*
X-2851609Y707844D01*
X-2851487Y708329D01*
X-2851320Y708797D01*
X-2851106Y709249D01*
X-2850850Y709676D01*
X-2850553Y710077D01*
X-2850217Y710445D01*
X-2849849Y710780D01*
X-2849448Y711078D01*
X-2849021Y711334D01*
X-2848569Y711547D01*
X-2848102Y711715D01*
X-2847616Y711837D01*
X-2847124Y711908D01*
X-2846626Y711934D01*
X-2794678Y711934D01*
X-2794678Y726666D01*
X-2846626Y726666D01*
X-2847124Y726691D01*
X-2847616Y726762D01*
X-2848102Y726884D01*
X-2848569Y727052D01*
X-2849021Y727265D01*
X-2849448Y727522D01*
X-2849849Y727819D01*
X-2850217Y728154D01*
X-2850553Y728522D01*
X-2850850Y728924D01*
X-2851106Y729350D01*
X-2851320Y729802D01*
X-2851487Y730270D01*
X-2851609Y730755D01*
X-2851680Y731248D01*
X-2851706Y731746D01*
X-2851706Y771926D01*
X-2851680Y772424D01*
X-2851609Y772916D01*
X-2851487Y773402D01*
X-2851320Y773869D01*
X-2851106Y774321D01*
X-2850850Y774748D01*
X-2850553Y775149D01*
X-2850217Y775517D01*
X-2849849Y775853D01*
X-2849448Y776150D01*
X-2849021Y776406D01*
X-2848569Y776620D01*
X-2848102Y776787D01*
X-2847616Y776909D01*
X-2847124Y776980D01*
X-2846626Y777006D01*
X-2596812Y777006D01*
X-2596314Y776980D01*
X-2595821Y776909D01*
X-2595336Y776787D01*
X-2594869Y776620D01*
X-2594416Y776406D01*
X-2593990Y776150D01*
X-2593588Y775853D01*
X-2593220Y775517D01*
X-2592885Y775149D01*
X-2592588Y774748D01*
X-2592331Y774321D01*
X-2592118Y773869D01*
X-2591950Y773402D01*
X-2591828Y772916D01*
X-2591757Y772424D01*
X-2591732Y771926D01*
X-2591732Y536727D01*
X-2591757Y536229D01*
X-2591828Y535736D01*
X-2591950Y535251D01*
X-2592118Y534784D01*
X-2592331Y534332D01*
X-2592588Y533905D01*
X-2592885Y533504D01*
X-2593220Y533135D01*
X-2593588Y532800D01*
X-2593990Y532503D01*
X-2594416Y532246D01*
X-2594869Y532033D01*
X-2595336Y531865D01*
X-2595821Y531743D01*
X-2596314Y531672D01*
X-2596812Y531647D01*
G37*
G01*
X-2501630Y556828D03*
G01*
X-2501630Y621827D03*
G01*
X-2501630Y686826D03*
G01*
X-2501630Y751824D03*
D28*
G01*
X-1338558Y2770181D03*
G01*
X-1239564Y2869175D03*
D27*
G01*
X-2152510Y2616476D03*
G01*
X-2292510Y2616476D03*
G01*
X-2324260Y1581426D03*
G01*
X-2184260Y1581426D03*
G01*
X-2177910Y1143276D03*
G01*
X-2317910Y1143276D03*
D34*
G01*
X-1138045Y1838333D03*
D35*
G01*
X-1188516Y2136296D03*
G01*
X-1223872Y2100940D03*
G01*
X-1259229Y2065585D03*
G01*
X-1294584Y2030230D03*
G01*
X-1329940Y1994871D03*
G01*
X-1365295Y1959517D03*
G01*
X-1400651Y1924161D03*
G01*
X-1436006Y1888806D03*
D36*
G01*
X-1436008Y1787862D03*
G01*
X-1400652Y1752507D03*
G01*
X-1365296Y1717150D03*
G01*
X-1329942Y1681794D03*
G01*
X-1294583Y1646439D03*
G01*
X-1259229Y1611083D03*
G01*
X-1223873Y1575728D03*
G01*
X-1188518Y1540372D03*
D35*
G01*
X-1087574Y1540371D03*
G01*
X-1052219Y1575727D03*
G01*
X-1016862Y1611082D03*
G01*
X-981506Y1646436D03*
G01*
X-946151Y1681796D03*
G01*
X-910795Y1717150D03*
G01*
X-875440Y1752506D03*
G01*
X-840084Y1787861D03*
D36*
G01*
X-840083Y1888804D03*
G01*
X-875438Y1924160D03*
G01*
X-910794Y1959517D03*
G01*
X-946148Y1994872D03*
G01*
X-981508Y2030228D03*
G01*
X-1016862Y2065583D03*
G01*
X-1052217Y2100939D03*
G01*
X-1087573Y2136294D03*
D10*
G01*
X313170Y3425832D03*
G01*
X162520Y3425832D03*
G01*
X313170Y3095632D03*
G01*
X162520Y3095632D03*
G01*
X313170Y2765432D03*
G01*
X162520Y2765432D03*
D30*
G01*
X-4170781Y980727D03*
D31*
G01*
X-4170781Y1139527D03*
G01*
X-4170781Y821926D03*
G01*
X-4011980Y980727D03*
G01*
X-4329582Y980727D03*
G01*
X-4058488Y1093020D03*
G01*
X-4283075Y1093020D03*
G01*
X-4283075Y868433D03*
G01*
X-4058488Y868433D03*
D30*
G01*
X-4170781Y1730738D03*
D31*
G01*
X-4170781Y1889539D03*
G01*
X-4170781Y1571937D03*
G01*
X-4011980Y1730738D03*
G01*
X-4329582Y1730738D03*
G01*
X-4058488Y1843031D03*
G01*
X-4283075Y1843031D03*
G01*
X-4283075Y1618444D03*
G01*
X-4058488Y1618444D03*
D30*
G01*
X-4170781Y2480724D03*
D31*
G01*
X-4170781Y2639524D03*
G01*
X-4170781Y2321923D03*
G01*
X-4011980Y2480724D03*
G01*
X-4329582Y2480724D03*
G01*
X-4058488Y2593017D03*
G01*
X-4283075Y2593017D03*
G01*
X-4283075Y2368430D03*
G01*
X-4058488Y2368430D03*
D20*
G01*
X-3391763Y3731103D03*
G01*
X-3391763Y3580453D03*
G01*
X-3213963Y3724753D03*
G01*
X-3213963Y3574103D03*
D25*
G01*
X-2816377Y102242D03*
G01*
X-2709852Y-4282D03*
D37*
G01*
X-1070267Y3946522D03*
D38*
G01*
X-816254Y3946532D03*
G01*
X-562254Y3946532D03*
G01*
X-308254Y3946532D03*
G01*
X-54254Y3946532D03*
G01*
X199745Y3946532D03*
G01*
X453745Y3946532D03*
G01*
X707745Y3946532D03*
D39*
G01*
X-1451254Y3946532D03*
G01*
X-1705254Y3946532D03*
G01*
X-1959254Y3946532D03*
G01*
X-2213254Y3946532D03*
G01*
X-2467254Y3946532D03*
G01*
X-2721254Y3946532D03*
G01*
X-2975254Y3946532D03*
G01*
X-3229254Y3946532D03*
G01*
X-3483254Y3946532D03*
D37*
G01*
X-3737254Y3946532D03*
D38*
G01*
X707745Y-854067D03*
G01*
X453745Y-854067D03*
G01*
X199745Y-854067D03*
G01*
X-54254Y-854067D03*
G01*
X-308254Y-854067D03*
D37*
G01*
X-562254Y-854067D03*
G01*
X-2848267Y-854077D03*
D38*
G01*
X-2594254Y-854067D03*
G01*
X-2340254Y-854067D03*
G01*
X-2086254Y-854067D03*
G01*
X-1832254Y-854067D03*
G01*
X-1578254Y-854067D03*
G01*
X-1324254Y-854067D03*
G01*
X-1070254Y-854067D03*
D40*
G01*
X644245Y2409832D03*
G01*
X644245Y2663832D03*
G01*
X644245Y2917832D03*
G01*
X644245Y3171832D03*
D41*
G01*
X644245Y3425832D03*
D42*
G01*
X1009345Y-408068D03*
G01*
X1009345Y2391925D03*
D43*
G01*
X-1828800Y2502187D03*
G01*
X-1847748Y2343538D03*
G01*
X-1826666Y1922406D03*
G01*
X-1827682Y1289438D03*
G01*
X-1827682Y895738D03*
G01*
X-1830222Y751720D03*
M02*
