G04 Layer: TopLayer*
G04 EasyEDA v6.5.57, 2026-08-14 15:25:13*
G04 ebc703f97e3148f1b7392a4f0a1a7df2,2865ae9118a24060a17af6d01c9bcc73,10*
G04 Gerber Generator version 0.2*
G04 Scale: 100 percent, Rotated: No, Reflected: No *
G04 Dimensions in millimeters *
G04 leading zeros omitted , absolute positions ,4 integer and 5 decimal *
%FSLAX45Y45*%
%MOMM*%

%AMMACRO1*21,1,$1,$2,0,0,$3*%
%AMMACRO2*4,1,22,1.2491,-1.176,-0.6788,-1.176,-0.6788,-1.176,-1.2491,-1.176,-1.2491,-0.7752,-0.6788,-0.7752,-0.6788,-0.5263,-1.2491,-0.5263,-1.2491,-0.125,-0.6788,-0.125,-0.6788,0.1251,-1.2491,0.1251,-1.2491,0.5253,-0.6788,0.5253,-0.6788,0.7742,-1.2491,0.7742,-0.6788,0.7742,-1.2491,0.7742,-1.2491,1.176,-0.6788,1.176,-0.6788,1.176,1.2491,1.176,1.2491,-1.176,0*%
%AMMACRO3*4,1,22,-1.2491,1.176,0.6788,1.176,0.6788,1.176,1.2491,1.176,1.2491,0.7752,0.6788,0.7752,0.6788,0.5263,1.2491,0.5263,1.2491,0.125,0.6788,0.125,0.6788,-0.1251,1.2491,-0.1251,1.2491,-0.5253,0.6788,-0.5253,0.6788,-0.7742,1.2491,-0.7742,0.6788,-0.7742,1.2491,-0.7742,1.2491,-1.176,0.6788,-1.176,0.6788,-1.176,-1.2491,-1.176,-1.2491,1.176,0*%
%ADD10C,0.5000*%
%ADD11C,0.3000*%
%ADD12C,0.2000*%
%ADD13C,0.2540*%
%ADD14C,0.3300*%
%ADD15C,0.0146*%
%ADD16MACRO1,0.864X0.8065X-90.0000*%
%ADD17MACRO1,0.864X0.8065X90.0000*%
%ADD18R,0.9000X0.8000*%
%ADD19R,6.5000X6.0000*%
%ADD20R,2.8000X1.3000*%
%ADD21O,1.453998X0.353009*%
%ADD22O,0.353009X1.453998*%
%ADD23R,1.8000X1.6000*%
%ADD24R,1.0000X0.8999*%
%ADD25MACRO1,1X0.8999X-135.0000*%
%ADD26MACRO1,0.864X0.8065X0.0000*%
%ADD27R,0.8640X0.8065*%
%ADD28R,1.5500X0.6000*%
%ADD29R,2.0000X1.5000*%
%ADD30R,1.8000X1.2000*%
%ADD31MACRO1,0.864X0.8065X45.0000*%
%ADD32MACRO1,0.8X0.9X135.0000*%
%ADD33R,0.8000X0.9000*%
%ADD34MACRO1,0.8X0.9X-135.0000*%
%ADD35MACRO1,0.864X0.8065X-135.0000*%
%ADD36R,4.3000X1.6000*%
%ADD37MACRO2*%
%ADD38R,0.7000X0.3500*%
%ADD39MACRO3*%
%ADD40MACRO1,3.2004X3.2004X-45.0000*%
%ADD41MACRO1,0.762X0.287X-45.0014*%
%ADD42MACRO1,0.762X0.287X-45.0000*%
%ADD43MACRO1,0.762X0.287X-44.9986*%
%ADD44MACRO1,0.287X0.762X-45.0036*%
%ADD45MACRO1,0.287X0.762X-45.0072*%
%ADD46MACRO1,0.287X0.762X-44.9964*%
%ADD47MACRO1,0.287X0.762X-45.0000*%
%ADD48C,4.0000*%
%ADD49C,0.6100*%
%ADD50R,1.8000X1.8000*%
%ADD51C,1.8000*%
%ADD52C,1.5748*%
%ADD53R,1.5748X1.5748*%
%ADD54C,3.2000*%
%ADD55C,0.6000*%
%ADD56C,0.6096*%
%ADD57C,0.6200*%

%LPD*%
G36*
X-3337712Y2917190D02*
G01*
X-3341420Y2918409D01*
X-3344418Y2920949D01*
X-3360826Y2941421D01*
X-3365347Y2945892D01*
X-3370224Y2948990D01*
X-3375710Y2950870D01*
X-3378657Y2951226D01*
X-3382213Y2952242D01*
X-3385159Y2954528D01*
X-3387039Y2957677D01*
X-3387750Y2961284D01*
X-3387750Y3035452D01*
X-3388563Y3043936D01*
X-3390900Y3051606D01*
X-3394659Y3058668D01*
X-3400094Y3065221D01*
X-3414877Y3080054D01*
X-3417112Y3083356D01*
X-3417874Y3087268D01*
X-3417112Y3091129D01*
X-3414877Y3094431D01*
X-3411575Y3096615D01*
X-3407714Y3097428D01*
X-3367989Y3097428D01*
X-3364077Y3096615D01*
X-3360775Y3094431D01*
X-3246780Y2980436D01*
X-3244596Y2977184D01*
X-3243834Y2973273D01*
X-3243834Y2951022D01*
X-3244596Y2947111D01*
X-3246780Y2943809D01*
X-3250082Y2941624D01*
X-3253994Y2940862D01*
X-3301441Y2940862D01*
X-3307740Y2940151D01*
X-3313226Y2938221D01*
X-3318103Y2935173D01*
X-3322320Y2930906D01*
X-3324707Y2927451D01*
X-3327704Y2922219D01*
X-3330244Y2919272D01*
X-3333750Y2917494D01*
G37*

%LPD*%
G36*
X-1373733Y2352395D02*
G01*
X-1377797Y2354173D01*
X-1380744Y2357577D01*
X-1381963Y2359914D01*
X-1387398Y2366467D01*
X-1781708Y2760827D01*
X-1783943Y2764129D01*
X-1784705Y2768041D01*
X-1783943Y2771902D01*
X-1781708Y2775204D01*
X-1778406Y2777388D01*
X-1774545Y2778201D01*
X-1554175Y2778201D01*
X-1550365Y2777439D01*
X-1547114Y2775356D01*
X-1413306Y2646578D01*
X-1411020Y2643225D01*
X-1410208Y2639263D01*
X-1410208Y2464358D01*
X-1409547Y2458313D01*
X-1407617Y2452878D01*
X-1404569Y2447950D01*
X-1402435Y2445562D01*
X-1364589Y2407716D01*
X-1362354Y2404414D01*
X-1361592Y2400554D01*
X-1361592Y2362352D01*
X-1362557Y2358034D01*
X-1365300Y2354529D01*
X-1369314Y2352497D01*
G37*

%LPD*%
G36*
X-1467002Y2195626D02*
G01*
X-1470914Y2196388D01*
X-1474216Y2198573D01*
X-1769973Y2494381D01*
X-1772005Y2497328D01*
X-1772920Y2500782D01*
X-1773783Y2511958D01*
X-1776323Y2521305D01*
X-1780438Y2530144D01*
X-1786026Y2538120D01*
X-1792884Y2544978D01*
X-1800860Y2550566D01*
X-1809699Y2554681D01*
X-1819097Y2557221D01*
X-1828800Y2558084D01*
X-1838502Y2557221D01*
X-1847900Y2554681D01*
X-1856739Y2550566D01*
X-1864715Y2544978D01*
X-1871624Y2538120D01*
X-1875180Y2533853D01*
X-1878075Y2532380D01*
X-1881276Y2531872D01*
X-2190496Y2531872D01*
X-2194102Y2532532D01*
X-2197252Y2534412D01*
X-2199487Y2537307D01*
X-2200554Y2540812D01*
X-2200351Y2544470D01*
X-2199741Y2546908D01*
X-2199487Y2550414D01*
X-2199487Y2755442D01*
X-2198573Y2759760D01*
X-2195830Y2763266D01*
X-2180742Y2775813D01*
X-2177694Y2777591D01*
X-2174240Y2778201D01*
X-1918970Y2778201D01*
X-1915109Y2777388D01*
X-1911807Y2775204D01*
X-1459839Y2323236D01*
X-1457604Y2319934D01*
X-1456842Y2316073D01*
X-1456842Y2205786D01*
X-1457604Y2201875D01*
X-1459839Y2198573D01*
X-1463141Y2196388D01*
G37*

%LPD*%
G36*
X-1930247Y1623822D02*
G01*
X-1934159Y1624584D01*
X-1937461Y1626768D01*
X-2050592Y1739900D01*
X-2056841Y1744980D01*
X-2063496Y1748383D01*
X-2070862Y1750364D01*
X-2076754Y1750822D01*
X-2542032Y1750822D01*
X-2545943Y1751584D01*
X-2549245Y1753768D01*
X-2551430Y1757070D01*
X-2552192Y1760982D01*
X-2552192Y1964131D01*
X-2551480Y1967941D01*
X-2549398Y1971141D01*
X-2546248Y1973376D01*
X-2542489Y1974291D01*
X-2538679Y1973732D01*
X-2536037Y1972818D01*
X-2529738Y1972106D01*
X-2460853Y1972106D01*
X-2454554Y1972818D01*
X-2449068Y1974697D01*
X-2444191Y1977796D01*
X-2440076Y1981860D01*
X-2437028Y1986788D01*
X-2435453Y1990445D01*
X-2434031Y1992223D01*
X-2420061Y2006244D01*
X-2416759Y2008428D01*
X-2412847Y2009190D01*
X-1968449Y2009190D01*
X-1964537Y2008428D01*
X-1961235Y2006244D01*
X-1885492Y1930450D01*
X-1883105Y1926742D01*
X-1881682Y1912721D01*
X-1879142Y1903323D01*
X-1875028Y1894484D01*
X-1869439Y1886508D01*
X-1862582Y1879650D01*
X-1854606Y1874062D01*
X-1845767Y1869948D01*
X-1836369Y1867407D01*
X-1822348Y1865985D01*
X-1818639Y1863598D01*
X-1596186Y1641144D01*
X-1594002Y1637842D01*
X-1593189Y1633982D01*
X-1594002Y1630070D01*
X-1596186Y1626768D01*
X-1599488Y1624584D01*
X-1603349Y1623822D01*
G37*

%LPD*%
G36*
X-2383282Y1325372D02*
G01*
X-2387193Y1326134D01*
X-2390495Y1328318D01*
X-2392680Y1331620D01*
X-2393442Y1335532D01*
X-2393442Y1431188D01*
X-2392476Y1435506D01*
X-2389784Y1439011D01*
X-2374696Y1451559D01*
X-2371648Y1453337D01*
X-2368194Y1453946D01*
X-2299004Y1453946D01*
X-2292959Y1454607D01*
X-2287473Y1456537D01*
X-2282545Y1459585D01*
X-2280208Y1461719D01*
X-2255215Y1486712D01*
X-2251405Y1491488D01*
X-2248865Y1496669D01*
X-2247595Y1502359D01*
X-2247392Y1505508D01*
X-2247392Y1663446D01*
X-2247849Y1667764D01*
X-2247442Y1671980D01*
X-2245309Y1675638D01*
X-2241905Y1678127D01*
X-2237740Y1678990D01*
X-2095449Y1678990D01*
X-2091537Y1678228D01*
X-2088235Y1676044D01*
X-1975104Y1562912D01*
X-1968855Y1557832D01*
X-1962200Y1554429D01*
X-1954834Y1552448D01*
X-1948942Y1551990D01*
X-1535023Y1551990D01*
X-1531162Y1551228D01*
X-1527860Y1549044D01*
X-1525676Y1545742D01*
X-1524863Y1541830D01*
X-1525676Y1537970D01*
X-1527860Y1534668D01*
X-1734159Y1328318D01*
X-1737461Y1326134D01*
X-1741373Y1325372D01*
X-1780692Y1325372D01*
X-1784553Y1326134D01*
X-1787855Y1328318D01*
X-1791766Y1332230D01*
X-1799742Y1337818D01*
X-1808581Y1341932D01*
X-1817979Y1344472D01*
X-1827682Y1345336D01*
X-1837385Y1344472D01*
X-1846783Y1341932D01*
X-1855622Y1337818D01*
X-1863598Y1332230D01*
X-1867509Y1328318D01*
X-1870811Y1326134D01*
X-1874672Y1325372D01*
G37*

%LPD*%
G36*
X-2387904Y931671D02*
G01*
X-2392121Y932586D01*
X-2395575Y935126D01*
X-2397658Y938885D01*
X-2397963Y943203D01*
X-2394153Y953414D01*
X-2393442Y959713D01*
X-2393442Y998982D01*
X-2392426Y1003350D01*
X-2389632Y1006906D01*
X-2381300Y1013561D01*
X-2378303Y1015237D01*
X-2374950Y1015796D01*
X-2311857Y1015796D01*
X-2307132Y1016203D01*
X-2301443Y1017828D01*
X-2295906Y1020927D01*
X-2252014Y1052271D01*
X-2246731Y1057351D01*
X-2243683Y1062228D01*
X-2241753Y1067714D01*
X-2241042Y1074013D01*
X-2241042Y1231646D01*
X-2241753Y1237945D01*
X-2242515Y1240028D01*
X-2243074Y1243838D01*
X-2242159Y1247597D01*
X-2239924Y1250746D01*
X-2236673Y1252829D01*
X-2232914Y1253540D01*
X-1874672Y1253540D01*
X-1870811Y1252778D01*
X-1867509Y1250594D01*
X-1863598Y1246682D01*
X-1855622Y1241094D01*
X-1846783Y1236980D01*
X-1837385Y1234440D01*
X-1827682Y1233576D01*
X-1817979Y1234440D01*
X-1808581Y1236980D01*
X-1799742Y1241094D01*
X-1791766Y1246682D01*
X-1787855Y1250594D01*
X-1784553Y1252778D01*
X-1780692Y1253540D01*
X-1722780Y1253540D01*
X-1714804Y1254404D01*
X-1707692Y1256690D01*
X-1701088Y1260500D01*
X-1696618Y1264361D01*
X-1577136Y1383792D01*
X-1573834Y1385976D01*
X-1569974Y1386789D01*
X-1566062Y1385976D01*
X-1562760Y1383792D01*
X-1560576Y1380490D01*
X-1559814Y1376629D01*
X-1559814Y1124407D01*
X-1560576Y1120495D01*
X-1562760Y1117193D01*
X-1745335Y934618D01*
X-1748637Y932434D01*
X-1752549Y931671D01*
X-1780692Y931671D01*
X-1784553Y932434D01*
X-1787855Y934618D01*
X-1791766Y938530D01*
X-1799742Y944118D01*
X-1808581Y948232D01*
X-1817979Y950772D01*
X-1827682Y951636D01*
X-1837385Y950772D01*
X-1846783Y948232D01*
X-1855622Y944118D01*
X-1863598Y938530D01*
X-1867509Y934618D01*
X-1870811Y932434D01*
X-1874672Y931671D01*
G37*

%LPD*%
G36*
X796645Y-1057249D02*
G01*
X-4186936Y-1041095D01*
X-4190695Y-1040384D01*
X-4193946Y-1038301D01*
X-4353001Y-885342D01*
X-4355287Y-881989D01*
X-4356100Y-878027D01*
X-4353915Y-33223D01*
X-4353102Y-29362D01*
X-4350918Y-26060D01*
X-4347616Y-23876D01*
X-4343755Y-23063D01*
X-4339844Y-23876D01*
X-4336542Y-26060D01*
X-4322978Y-39624D01*
X-4306925Y-52984D01*
X-4289704Y-64769D01*
X-4271467Y-74930D01*
X-4252417Y-83362D01*
X-4232605Y-89966D01*
X-4212285Y-94742D01*
X-4191609Y-97637D01*
X-4170781Y-98602D01*
X-4149953Y-97637D01*
X-4129278Y-94742D01*
X-4108958Y-89966D01*
X-4089196Y-83362D01*
X-4070096Y-74930D01*
X-4051858Y-64769D01*
X-4034637Y-52984D01*
X-4018584Y-39624D01*
X-4003852Y-24892D01*
X-3990543Y-8839D01*
X-3978706Y8382D01*
X-3968597Y26619D01*
X-3960164Y45669D01*
X-3953510Y65481D01*
X-3948734Y85801D01*
X-3945839Y106426D01*
X-3944874Y127304D01*
X-3945839Y148132D01*
X-3948734Y168808D01*
X-3953510Y189128D01*
X-3960164Y208889D01*
X-3968597Y227990D01*
X-3978706Y246227D01*
X-3990543Y263448D01*
X-4003852Y279501D01*
X-4018584Y294233D01*
X-4034637Y307543D01*
X-4051858Y319379D01*
X-4070096Y329488D01*
X-4089196Y337921D01*
X-4108958Y344576D01*
X-4129278Y349351D01*
X-4149953Y352247D01*
X-4170781Y353212D01*
X-4191609Y352247D01*
X-4212285Y349351D01*
X-4232605Y344576D01*
X-4252417Y337921D01*
X-4271467Y329488D01*
X-4289704Y319379D01*
X-4306925Y307543D01*
X-4322978Y294233D01*
X-4335729Y281482D01*
X-4339031Y279298D01*
X-4342942Y278536D01*
X-4346803Y279298D01*
X-4350105Y281482D01*
X-4352290Y284784D01*
X-4353052Y288696D01*
X-4352239Y602030D01*
X-4351528Y605739D01*
X-4349546Y608939D01*
X-4346498Y611174D01*
X-4342841Y612140D01*
X-4339082Y611733D01*
X-4329277Y605688D01*
X-4323791Y603758D01*
X-4317441Y603046D01*
X-3419957Y603046D01*
X-3416046Y602284D01*
X-3412744Y600049D01*
X-3403447Y590702D01*
X-3401212Y587451D01*
X-3400450Y583539D01*
X-3400856Y577494D01*
X-3402329Y572312D01*
X-3403092Y563829D01*
X-3403092Y454659D01*
X-3402329Y446227D01*
X-3400094Y438505D01*
X-3396538Y431292D01*
X-3391712Y424891D01*
X-3385769Y419506D01*
X-3378962Y415239D01*
X-3371443Y412343D01*
X-3363569Y410870D01*
X-3355543Y410870D01*
X-3347618Y412343D01*
X-3340150Y415239D01*
X-3332429Y420065D01*
X-3328924Y421436D01*
X-3325164Y421436D01*
X-3321659Y420065D01*
X-3313937Y415239D01*
X-3306470Y412343D01*
X-3298545Y410870D01*
X-3290519Y410870D01*
X-3282645Y412343D01*
X-3275177Y415239D01*
X-3267405Y420065D01*
X-3263900Y421436D01*
X-3260191Y421436D01*
X-3256686Y420065D01*
X-3248914Y415239D01*
X-3241446Y412343D01*
X-3233572Y410870D01*
X-3225546Y410870D01*
X-3217621Y412343D01*
X-3210153Y415239D01*
X-3203295Y419506D01*
X-3197402Y424891D01*
X-3192526Y431292D01*
X-3188970Y438505D01*
X-3186785Y446227D01*
X-3185972Y454659D01*
X-3185972Y563829D01*
X-3186785Y572312D01*
X-3188970Y579983D01*
X-3193135Y588264D01*
X-3194253Y592277D01*
X-3193643Y596341D01*
X-3191510Y599846D01*
X-3188106Y602183D01*
X-3184093Y603046D01*
X-3026918Y603046D01*
X-3023057Y602284D01*
X-3019755Y600049D01*
X-3017520Y596747D01*
X-3016758Y592886D01*
X-3016656Y538175D01*
X-3015488Y532180D01*
X-3013100Y526897D01*
X-3009646Y522274D01*
X-3004769Y518159D01*
X-2967583Y493420D01*
X-2961944Y490474D01*
X-2956153Y489000D01*
X-2952394Y488746D01*
X-2842666Y488746D01*
X-2838754Y487984D01*
X-2835503Y485749D01*
X-2833268Y482447D01*
X-2832506Y478586D01*
X-2833268Y474675D01*
X-2835503Y471373D01*
X-2839618Y467258D01*
X-2842717Y462381D01*
X-2844596Y456895D01*
X-2845308Y450596D01*
X-2845308Y267258D01*
X-2844647Y261213D01*
X-2842717Y255778D01*
X-2839669Y250850D01*
X-2837535Y248462D01*
X-2799740Y210667D01*
X-2789834Y200456D01*
X-2787700Y197154D01*
X-2786989Y193294D01*
X-2787802Y189433D01*
X-2790393Y185775D01*
X-2793847Y183540D01*
X-2797962Y182880D01*
X-2801975Y183845D01*
X-2805785Y185724D01*
X-2811424Y186994D01*
X-2817215Y186994D01*
X-2822854Y185724D01*
X-2828086Y183184D01*
X-2833065Y179222D01*
X-2893364Y118922D01*
X-2897327Y113995D01*
X-2899816Y108762D01*
X-2901137Y103124D01*
X-2901137Y97332D01*
X-2899816Y91694D01*
X-2897327Y86461D01*
X-2893364Y81483D01*
X-2837129Y25298D01*
X-2832150Y21336D01*
X-2826969Y18796D01*
X-2821279Y17526D01*
X-2815539Y17526D01*
X-2809849Y18796D01*
X-2804058Y21590D01*
X-2800045Y22606D01*
X-2795981Y21894D01*
X-2792476Y19608D01*
X-2790190Y16154D01*
X-2789529Y12039D01*
X-2790494Y8026D01*
X-2793288Y2235D01*
X-2794609Y-3403D01*
X-2794609Y-9194D01*
X-2793288Y-14833D01*
X-2790799Y-20066D01*
X-2786837Y-25044D01*
X-2730601Y-81229D01*
X-2725623Y-85191D01*
X-2720441Y-87731D01*
X-2714802Y-89001D01*
X-2709011Y-89001D01*
X-2703372Y-87731D01*
X-2697124Y-84734D01*
X-2693162Y-83718D01*
X-2689098Y-84378D01*
X-2685643Y-86512D01*
X-2680157Y-91846D01*
X-2677820Y-95148D01*
X-2677007Y-99161D01*
X-2677007Y-108813D01*
X-2677668Y-112420D01*
X-2679598Y-115570D01*
X-2682494Y-117856D01*
X-2686050Y-118922D01*
X-2691841Y-119532D01*
X-2697327Y-121462D01*
X-2702204Y-124561D01*
X-2706319Y-128625D01*
X-2709367Y-133553D01*
X-2711297Y-138988D01*
X-2712008Y-145338D01*
X-2712008Y-234188D01*
X-2711297Y-240487D01*
X-2709367Y-245973D01*
X-2706319Y-250850D01*
X-2702204Y-254965D01*
X-2697327Y-258013D01*
X-2691841Y-259943D01*
X-2685542Y-260654D01*
X-2586685Y-260654D01*
X-2580335Y-259943D01*
X-2574899Y-258013D01*
X-2569972Y-254965D01*
X-2565908Y-250850D01*
X-2562809Y-245973D01*
X-2560929Y-240487D01*
X-2560167Y-234188D01*
X-2560167Y-145338D01*
X-2560929Y-138988D01*
X-2562809Y-133553D01*
X-2566263Y-128016D01*
X-2567736Y-124155D01*
X-2567482Y-119989D01*
X-2565603Y-116281D01*
X-2562402Y-113639D01*
X-2558440Y-112471D01*
X-2554325Y-113030D01*
X-2552090Y-113792D01*
X-2545791Y-114503D01*
X-2172004Y-114503D01*
X-2165959Y-113842D01*
X-2160524Y-111963D01*
X-2157526Y-110286D01*
X-2086356Y-64871D01*
X-2081936Y-60655D01*
X-2078786Y-55778D01*
X-2076754Y-50342D01*
X-2075942Y-44043D01*
X-2073554Y87376D01*
X-2072741Y91135D01*
X-2070557Y94386D01*
X-1769160Y395833D01*
X-1765858Y398018D01*
X-1761947Y398780D01*
X-1603705Y398780D01*
X-1600149Y398119D01*
X-1596999Y396240D01*
X-1594408Y393954D01*
X-1586230Y388924D01*
X-1577238Y385318D01*
X-1567840Y383286D01*
X-1558188Y382879D01*
X-1548638Y384098D01*
X-1539392Y386943D01*
X-1537360Y387959D01*
X-1533753Y388975D01*
X-1530045Y388670D01*
X-1526692Y387045D01*
X-1523542Y383286D01*
X-1519428Y379171D01*
X-1514551Y376123D01*
X-1509064Y374192D01*
X-1502765Y373481D01*
X-1417472Y373481D01*
X-1411173Y374192D01*
X-1405686Y376123D01*
X-1400810Y379171D01*
X-1396695Y383286D01*
X-1393647Y388162D01*
X-1391716Y393649D01*
X-1391005Y399948D01*
X-1391005Y479450D01*
X-1391716Y485800D01*
X-1393647Y491235D01*
X-1396695Y496163D01*
X-1400810Y500227D01*
X-1405686Y503326D01*
X-1411782Y505459D01*
X-1415338Y507593D01*
X-1417726Y510946D01*
X-1418590Y515010D01*
X-1417726Y519074D01*
X-1415338Y522478D01*
X-1411782Y524611D01*
X-1405686Y526745D01*
X-1400810Y529844D01*
X-1396695Y533908D01*
X-1393647Y538835D01*
X-1392275Y542645D01*
X-1390142Y546201D01*
X-1386789Y548589D01*
X-1382725Y549452D01*
X-1378813Y549452D01*
X-1374749Y548589D01*
X-1371346Y546201D01*
X-1369212Y542645D01*
X-1367840Y538835D01*
X-1364792Y533908D01*
X-1360678Y529844D01*
X-1355801Y526745D01*
X-1350314Y524814D01*
X-1344015Y524103D01*
X-1258722Y524103D01*
X-1252423Y524814D01*
X-1246936Y526745D01*
X-1242060Y529844D01*
X-1237945Y533908D01*
X-1234897Y538835D01*
X-1233525Y542645D01*
X-1231392Y546201D01*
X-1228039Y548589D01*
X-1223975Y549452D01*
X-1093063Y549452D01*
X-1089152Y548690D01*
X-1085900Y546506D01*
X-992733Y453339D01*
X-990853Y450799D01*
X-989888Y447801D01*
X-988110Y437184D01*
X-984910Y428091D01*
X-980186Y419709D01*
X-974140Y412191D01*
X-966876Y405790D01*
X-958697Y400761D01*
X-949706Y397154D01*
X-940308Y395122D01*
X-930656Y394716D01*
X-921105Y395935D01*
X-911860Y398780D01*
X-903274Y403098D01*
X-895502Y408838D01*
X-888796Y415798D01*
X-883412Y423824D01*
X-879449Y432612D01*
X-877011Y441909D01*
X-876198Y451510D01*
X-877011Y461162D01*
X-879449Y470458D01*
X-883412Y479247D01*
X-888796Y487273D01*
X-895502Y494233D01*
X-903274Y499973D01*
X-911860Y504291D01*
X-921105Y507136D01*
X-928827Y508101D01*
X-931976Y509066D01*
X-934719Y510997D01*
X-1042619Y618947D01*
X-1049223Y624332D01*
X-1056284Y628091D01*
X-1063955Y630428D01*
X-1072388Y631291D01*
X-1223975Y631291D01*
X-1228039Y632104D01*
X-1231392Y634542D01*
X-1233576Y638098D01*
X-1234897Y641908D01*
X-1237945Y646785D01*
X-1242060Y650900D01*
X-1246936Y653948D01*
X-1252423Y655878D01*
X-1258722Y656590D01*
X-1344015Y656590D01*
X-1350314Y655878D01*
X-1355801Y653948D01*
X-1360678Y650900D01*
X-1364792Y646785D01*
X-1367840Y641908D01*
X-1369212Y638098D01*
X-1371346Y634542D01*
X-1374698Y632104D01*
X-1378762Y631291D01*
X-1382725Y631291D01*
X-1386789Y632104D01*
X-1390142Y634542D01*
X-1392326Y638098D01*
X-1393647Y641908D01*
X-1396695Y646785D01*
X-1400810Y650900D01*
X-1405686Y653948D01*
X-1411173Y655878D01*
X-1417472Y656590D01*
X-1502765Y656590D01*
X-1509064Y655878D01*
X-1514551Y653948D01*
X-1519428Y650900D01*
X-1523542Y646785D01*
X-1526590Y641908D01*
X-1528521Y636422D01*
X-1529232Y630123D01*
X-1529232Y550621D01*
X-1528521Y544271D01*
X-1526590Y538835D01*
X-1523542Y533908D01*
X-1519428Y529844D01*
X-1514551Y526745D01*
X-1508455Y524611D01*
X-1504899Y522478D01*
X-1502511Y519074D01*
X-1501648Y515010D01*
X-1502511Y510946D01*
X-1504899Y507593D01*
X-1508455Y505459D01*
X-1514551Y503326D01*
X-1519428Y500227D01*
X-1523542Y496163D01*
X-1526692Y492353D01*
X-1530045Y490728D01*
X-1533753Y490423D01*
X-1537360Y491439D01*
X-1539392Y492455D01*
X-1548638Y495300D01*
X-1558188Y496519D01*
X-1567840Y496112D01*
X-1577238Y494080D01*
X-1586230Y490474D01*
X-1594408Y485444D01*
X-1596999Y483158D01*
X-1600149Y481279D01*
X-1603756Y480618D01*
X-1782622Y480618D01*
X-1791106Y479755D01*
X-1798726Y477418D01*
X-1805787Y473659D01*
X-1812391Y468274D01*
X-2053539Y227126D01*
X-2056841Y224891D01*
X-2060803Y224129D01*
X-2064715Y224942D01*
X-2068017Y227228D01*
X-2070150Y230581D01*
X-2070862Y234492D01*
X-2069642Y306070D01*
X-2070658Y312166D01*
X-2072843Y317550D01*
X-2076500Y322732D01*
X-2126589Y379018D01*
X-2131314Y383286D01*
X-2136343Y386080D01*
X-2142083Y387756D01*
X-2146300Y388162D01*
X-2325268Y390855D01*
X-2329027Y391617D01*
X-2332278Y393801D01*
X-2397658Y459282D01*
X-2437485Y505714D01*
X-2441295Y509422D01*
X-2446223Y512521D01*
X-2451709Y514451D01*
X-2458008Y515162D01*
X-2542692Y515162D01*
X-2546908Y516077D01*
X-2550312Y518617D01*
X-2552395Y522376D01*
X-2552750Y526694D01*
X-2551277Y530707D01*
X-2548483Y535127D01*
X-2546553Y540613D01*
X-2545842Y546912D01*
X-2545842Y698296D01*
X-2545080Y702157D01*
X-2542895Y705459D01*
X-2539593Y707644D01*
X-2535682Y708456D01*
X-2467203Y708456D01*
X-2460904Y709168D01*
X-2455418Y711047D01*
X-2450338Y714248D01*
X-2447696Y715416D01*
X-2444902Y715822D01*
X-1877212Y715822D01*
X-1873351Y715060D01*
X-1870049Y712876D01*
X-1866138Y708964D01*
X-1858162Y703376D01*
X-1849323Y699262D01*
X-1839925Y696722D01*
X-1830222Y695858D01*
X-1820519Y696722D01*
X-1811121Y699262D01*
X-1802282Y703376D01*
X-1794306Y708964D01*
X-1790395Y712876D01*
X-1787093Y715060D01*
X-1783232Y715822D01*
X-1628292Y715822D01*
X-1620316Y716686D01*
X-1613204Y718972D01*
X-1606600Y722782D01*
X-1602130Y726643D01*
X-1371904Y956868D01*
X-1366824Y963117D01*
X-1363421Y969771D01*
X-1361440Y977137D01*
X-1360982Y983030D01*
X-1360982Y1383639D01*
X-1360220Y1387551D01*
X-1358036Y1390853D01*
X-1237386Y1511452D01*
X-1235100Y1513179D01*
X-1232154Y1514246D01*
X-1226921Y1516786D01*
X-1221943Y1520748D01*
X-1168857Y1573834D01*
X-1165199Y1578406D01*
X-1163980Y1579422D01*
X-1162405Y1583994D01*
X-1161084Y1589633D01*
X-1161084Y1595424D01*
X-1162405Y1601063D01*
X-1164894Y1606296D01*
X-1168857Y1611274D01*
X-1188364Y1630730D01*
X-1193342Y1634693D01*
X-1197559Y1637385D01*
X-1200251Y1641652D01*
X-1204214Y1646631D01*
X-1223721Y1666087D01*
X-1228699Y1670050D01*
X-1232916Y1672742D01*
X-1235608Y1677009D01*
X-1239570Y1681988D01*
X-1259078Y1701444D01*
X-1264056Y1705406D01*
X-1268272Y1708099D01*
X-1270965Y1712366D01*
X-1274927Y1717344D01*
X-1294434Y1736801D01*
X-1299413Y1740763D01*
X-1303629Y1743456D01*
X-1306322Y1747723D01*
X-1310284Y1752701D01*
X-1329791Y1772157D01*
X-1334770Y1776120D01*
X-1338986Y1778812D01*
X-1341678Y1783080D01*
X-1345641Y1788058D01*
X-1365148Y1807514D01*
X-1370126Y1811477D01*
X-1375308Y1814017D01*
X-1380947Y1815287D01*
X-1386738Y1815287D01*
X-1392377Y1814017D01*
X-1397609Y1811477D01*
X-1402588Y1807514D01*
X-1455674Y1754428D01*
X-1459636Y1749501D01*
X-1460804Y1747062D01*
X-1462735Y1744268D01*
X-1510385Y1696618D01*
X-1513687Y1694434D01*
X-1517599Y1693672D01*
X-1542897Y1693672D01*
X-1546809Y1694434D01*
X-1550111Y1696618D01*
X-1767839Y1914398D01*
X-1770227Y1918106D01*
X-1771650Y1932127D01*
X-1774189Y1941525D01*
X-1778304Y1950364D01*
X-1783892Y1958339D01*
X-1790750Y1965198D01*
X-1798726Y1970786D01*
X-1807565Y1974900D01*
X-1816963Y1977440D01*
X-1830984Y1978863D01*
X-1834692Y1981250D01*
X-1923592Y2070100D01*
X-1929841Y2075180D01*
X-1936496Y2078583D01*
X-1943862Y2080564D01*
X-1949754Y2081022D01*
X-2431440Y2081022D01*
X-2439416Y2080158D01*
X-2446528Y2077872D01*
X-2453132Y2074062D01*
X-2457602Y2070201D01*
X-2465933Y2061870D01*
X-2469235Y2059686D01*
X-2473147Y2058924D01*
X-2529738Y2058924D01*
X-2536037Y2058212D01*
X-2538679Y2057247D01*
X-2542489Y2056688D01*
X-2546248Y2057603D01*
X-2549398Y2059838D01*
X-2551480Y2063089D01*
X-2552192Y2066848D01*
X-2552192Y2089150D01*
X-2552852Y2095195D01*
X-2554782Y2100681D01*
X-2557881Y2105609D01*
X-2569210Y2117191D01*
X-2571394Y2120493D01*
X-2572207Y2124354D01*
X-2571394Y2128266D01*
X-2569210Y2131568D01*
X-2560015Y2140762D01*
X-2556205Y2145538D01*
X-2553665Y2150719D01*
X-2552395Y2156409D01*
X-2552192Y2159558D01*
X-2552192Y2330907D01*
X-2551328Y2335022D01*
X-2548788Y2338476D01*
X-2545130Y2340559D01*
X-2540914Y2340965D01*
X-2536190Y2340457D01*
X-2467356Y2340457D01*
X-2461006Y2341168D01*
X-2455570Y2343048D01*
X-2450541Y2346198D01*
X-2447950Y2347366D01*
X-2445105Y2347772D01*
X-1913280Y2347772D01*
X-1909622Y2347112D01*
X-1906422Y2345131D01*
X-1904187Y2342134D01*
X-1903171Y2338527D01*
X-1902764Y2333853D01*
X-1900224Y2324455D01*
X-1896110Y2315616D01*
X-1890522Y2307640D01*
X-1883664Y2300782D01*
X-1875688Y2295194D01*
X-1866849Y2291080D01*
X-1857451Y2288540D01*
X-1847748Y2287676D01*
X-1838045Y2288540D01*
X-1828088Y2291334D01*
X-1824075Y2292248D01*
X-1820011Y2291537D01*
X-1816607Y2289302D01*
X-1464919Y1937613D01*
X-1463192Y1935378D01*
X-1462125Y1932432D01*
X-1459636Y1927199D01*
X-1455674Y1922272D01*
X-1402588Y1869186D01*
X-1397609Y1865223D01*
X-1392377Y1862683D01*
X-1386738Y1861413D01*
X-1380947Y1861413D01*
X-1375308Y1862683D01*
X-1370126Y1865223D01*
X-1365148Y1869186D01*
X-1345641Y1888642D01*
X-1341678Y1893620D01*
X-1338986Y1897888D01*
X-1334770Y1900580D01*
X-1329791Y1904542D01*
X-1310284Y1923999D01*
X-1306322Y1928977D01*
X-1303629Y1933244D01*
X-1299413Y1935937D01*
X-1294434Y1939899D01*
X-1274927Y1959356D01*
X-1270965Y1964334D01*
X-1268272Y1968601D01*
X-1264056Y1971293D01*
X-1259078Y1975256D01*
X-1239570Y1994712D01*
X-1235608Y1999691D01*
X-1232916Y2003958D01*
X-1228699Y2006650D01*
X-1223721Y2010613D01*
X-1204214Y2030069D01*
X-1200251Y2035048D01*
X-1197559Y2039315D01*
X-1193342Y2042007D01*
X-1188364Y2045970D01*
X-1168857Y2065426D01*
X-1164894Y2070404D01*
X-1162202Y2074672D01*
X-1157986Y2077364D01*
X-1153007Y2081326D01*
X-1145235Y2089099D01*
X-1141933Y2091283D01*
X-1138021Y2092045D01*
X-1134160Y2091283D01*
X-1130858Y2089099D01*
X-1123086Y2081326D01*
X-1118108Y2077364D01*
X-1112875Y2074824D01*
X-1107236Y2073554D01*
X-1101496Y2073554D01*
X-1095806Y2074824D01*
X-1090625Y2077364D01*
X-1088136Y2079345D01*
X-1084376Y2081225D01*
X-1080160Y2081428D01*
X-1076248Y2079904D01*
X-1073251Y2076907D01*
X-1071778Y2072995D01*
X-1071981Y2068830D01*
X-1073861Y2065070D01*
X-1075842Y2062581D01*
X-1078331Y2057349D01*
X-1079652Y2051710D01*
X-1079652Y2045919D01*
X-1078331Y2040280D01*
X-1075842Y2035048D01*
X-1071880Y2030069D01*
X-1052372Y2010613D01*
X-1047394Y2006650D01*
X-1043178Y2003958D01*
X-1040485Y1999691D01*
X-1036523Y1994712D01*
X-1017016Y1975256D01*
X-1012037Y1971293D01*
X-1007821Y1968601D01*
X-1005128Y1964334D01*
X-1001166Y1959356D01*
X-981659Y1939899D01*
X-976680Y1935937D01*
X-972464Y1933244D01*
X-969771Y1928977D01*
X-965809Y1923999D01*
X-946302Y1904542D01*
X-941324Y1900580D01*
X-937107Y1897888D01*
X-934415Y1893620D01*
X-930452Y1888642D01*
X-910945Y1869186D01*
X-905967Y1865223D01*
X-901750Y1862531D01*
X-899058Y1858264D01*
X-895096Y1853285D01*
X-887323Y1845513D01*
X-885088Y1842262D01*
X-884326Y1838350D01*
X-885088Y1834438D01*
X-887323Y1831187D01*
X-895096Y1823415D01*
X-899058Y1818436D01*
X-901547Y1813204D01*
X-902868Y1807565D01*
X-902868Y1801774D01*
X-901547Y1796135D01*
X-899058Y1790903D01*
X-897077Y1788414D01*
X-895197Y1784654D01*
X-894994Y1780489D01*
X-896467Y1776526D01*
X-899464Y1773580D01*
X-903376Y1772056D01*
X-907592Y1772259D01*
X-911352Y1774139D01*
X-913841Y1776120D01*
X-919073Y1778660D01*
X-924712Y1779930D01*
X-930503Y1779930D01*
X-936142Y1778660D01*
X-941324Y1776120D01*
X-946302Y1772157D01*
X-965809Y1752701D01*
X-969771Y1747723D01*
X-972464Y1743456D01*
X-976680Y1740763D01*
X-981659Y1736801D01*
X-1001166Y1717344D01*
X-1005128Y1712366D01*
X-1007821Y1708099D01*
X-1012037Y1705406D01*
X-1017016Y1701444D01*
X-1036523Y1681988D01*
X-1040485Y1677009D01*
X-1043178Y1672742D01*
X-1047394Y1670050D01*
X-1052372Y1666087D01*
X-1071880Y1646631D01*
X-1075842Y1641652D01*
X-1078534Y1637385D01*
X-1082751Y1634693D01*
X-1087729Y1630730D01*
X-1107236Y1611274D01*
X-1111199Y1606296D01*
X-1113840Y1602028D01*
X-1118108Y1599336D01*
X-1123086Y1595374D01*
X-1142593Y1575917D01*
X-1146200Y1571345D01*
X-1147470Y1570278D01*
X-1149045Y1565706D01*
X-1150366Y1560068D01*
X-1150366Y1554276D01*
X-1149045Y1548638D01*
X-1144371Y1539646D01*
X-1143914Y1535988D01*
X-1144778Y1532382D01*
X-1146860Y1529334D01*
X-1151737Y1524457D01*
X-1156868Y1518208D01*
X-1160424Y1511554D01*
X-1163777Y1500073D01*
X-1166063Y1497076D01*
X-1172210Y1491691D01*
X-1178306Y1484172D01*
X-1182979Y1475790D01*
X-1186180Y1466697D01*
X-1187805Y1457147D01*
X-1187805Y1447546D01*
X-1186180Y1437995D01*
X-1182979Y1428902D01*
X-1178306Y1420520D01*
X-1172210Y1413002D01*
X-1164996Y1406601D01*
X-1156766Y1401572D01*
X-1147826Y1397965D01*
X-1133043Y1394968D01*
X-1129893Y1392682D01*
X-1127810Y1389430D01*
X-1127099Y1385570D01*
X-1127912Y1381760D01*
X-1130096Y1378559D01*
X-1134567Y1374038D01*
X-1137666Y1369161D01*
X-1139545Y1363675D01*
X-1140256Y1357376D01*
X-1140256Y1272133D01*
X-1139545Y1265783D01*
X-1137666Y1260348D01*
X-1134567Y1255420D01*
X-1130452Y1251356D01*
X-1125575Y1248257D01*
X-1120089Y1246327D01*
X-1113790Y1245616D01*
X-1034287Y1245616D01*
X-1027937Y1246327D01*
X-1022502Y1248257D01*
X-1017574Y1251356D01*
X-1015695Y1253236D01*
X-1012444Y1255420D01*
X-1008532Y1256182D01*
X-1004620Y1255420D01*
X-1001369Y1253236D01*
X-999134Y1249934D01*
X-998372Y1246022D01*
X-998372Y1204315D01*
X-999286Y1200099D01*
X-1001826Y1196644D01*
X-1005586Y1194562D01*
X-1009903Y1194206D01*
X-1013917Y1195679D01*
X-1016152Y1197102D01*
X-1021587Y1198981D01*
X-1027937Y1199692D01*
X-1107440Y1199692D01*
X-1113739Y1198981D01*
X-1119225Y1197102D01*
X-1124102Y1194003D01*
X-1128217Y1189888D01*
X-1131316Y1185011D01*
X-1133195Y1179525D01*
X-1133906Y1173226D01*
X-1133906Y1087983D01*
X-1133195Y1081633D01*
X-1131316Y1076198D01*
X-1128217Y1071270D01*
X-1124102Y1067206D01*
X-1119225Y1064107D01*
X-1113739Y1062177D01*
X-1107440Y1061466D01*
X-1027937Y1061466D01*
X-1021587Y1062177D01*
X-1016152Y1064107D01*
X-1011224Y1067206D01*
X-1007160Y1071270D01*
X-1004062Y1076198D01*
X-1002182Y1081633D01*
X-1001014Y1086561D01*
X-999032Y1089355D01*
X-996187Y1091285D01*
X-992886Y1092200D01*
X-986028Y1092911D01*
X-978814Y1095095D01*
X-972108Y1098651D01*
X-965911Y1103782D01*
X-932840Y1136853D01*
X-928878Y1141628D01*
X-925626Y1144219D01*
X-921562Y1145286D01*
X-917397Y1144625D01*
X-913841Y1142339D01*
X-887882Y1116380D01*
X-881634Y1111250D01*
X-874979Y1107694D01*
X-867765Y1105509D01*
X-859739Y1104696D01*
X-836879Y1104696D01*
X-833272Y1104036D01*
X-830122Y1102106D01*
X-827887Y1099210D01*
X-826668Y1094333D01*
X-824737Y1088898D01*
X-821639Y1083970D01*
X-817575Y1079906D01*
X-812647Y1076807D01*
X-807212Y1074877D01*
X-800862Y1074166D01*
X-721360Y1074166D01*
X-715060Y1074877D01*
X-709574Y1076807D01*
X-704697Y1079906D01*
X-700582Y1083970D01*
X-697534Y1088898D01*
X-695604Y1094333D01*
X-694893Y1100683D01*
X-694893Y1185926D01*
X-695604Y1192225D01*
X-697534Y1197711D01*
X-700582Y1202588D01*
X-704697Y1206703D01*
X-709574Y1209802D01*
X-715060Y1211681D01*
X-721360Y1212392D01*
X-800862Y1212392D01*
X-807212Y1211681D01*
X-812647Y1209802D01*
X-817575Y1206703D01*
X-821639Y1202588D01*
X-824737Y1197711D01*
X-826668Y1192225D01*
X-827887Y1187399D01*
X-830122Y1184503D01*
X-833272Y1182573D01*
X-836879Y1181912D01*
X-840028Y1181912D01*
X-843889Y1182674D01*
X-847191Y1184910D01*
X-854608Y1192326D01*
X-856843Y1195628D01*
X-857605Y1199489D01*
X-857605Y1461617D01*
X-856843Y1465478D01*
X-854608Y1468780D01*
X-851357Y1471015D01*
X-847445Y1471777D01*
X-843534Y1471015D01*
X-840282Y1468780D01*
X-803554Y1432102D01*
X-801370Y1428800D01*
X-800608Y1424940D01*
X-800608Y1397203D01*
X-801420Y1393139D01*
X-803859Y1389786D01*
X-807415Y1387602D01*
X-813511Y1385468D01*
X-818438Y1382420D01*
X-822502Y1378305D01*
X-825601Y1373428D01*
X-827532Y1367942D01*
X-828243Y1361643D01*
X-828243Y1276350D01*
X-827532Y1270050D01*
X-825601Y1264564D01*
X-822502Y1259687D01*
X-818438Y1255572D01*
X-813511Y1252524D01*
X-808075Y1250594D01*
X-801725Y1249883D01*
X-722223Y1249883D01*
X-715924Y1250594D01*
X-710438Y1252524D01*
X-705561Y1255572D01*
X-701446Y1259687D01*
X-698398Y1264564D01*
X-696468Y1270050D01*
X-695756Y1276350D01*
X-695756Y1361643D01*
X-696468Y1367942D01*
X-698398Y1373428D01*
X-701446Y1378305D01*
X-705561Y1382420D01*
X-710438Y1385468D01*
X-716584Y1387602D01*
X-720140Y1389786D01*
X-722528Y1393139D01*
X-723392Y1397203D01*
X-723392Y1444599D01*
X-724154Y1452626D01*
X-726389Y1459890D01*
X-729945Y1466545D01*
X-735025Y1472793D01*
X-802944Y1540713D01*
X-805180Y1544015D01*
X-805942Y1547876D01*
X-805942Y1599234D01*
X-805230Y1603044D01*
X-803097Y1606296D01*
X-800303Y1609242D01*
X-794918Y1617218D01*
X-790905Y1626006D01*
X-790295Y1628495D01*
X-788416Y1632254D01*
X-785622Y1634591D01*
X-787501Y1637944D01*
X-787958Y1641906D01*
X-787654Y1644954D01*
X-788517Y1655013D01*
X-788060Y1659077D01*
X-785977Y1662633D01*
X-782675Y1665071D01*
X-778713Y1666036D01*
X-774649Y1665325D01*
X-771245Y1663039D01*
X-765302Y1657096D01*
X-763219Y1654098D01*
X-762304Y1650492D01*
X-762812Y1646834D01*
X-764540Y1643583D01*
X-766470Y1641144D01*
X-768654Y1636623D01*
X-771093Y1633423D01*
X-772820Y1632407D01*
X-771144Y1630019D01*
X-770280Y1624482D01*
X-769010Y1618843D01*
X-766470Y1613662D01*
X-762508Y1608683D01*
X-706780Y1552905D01*
X-701802Y1548942D01*
X-696569Y1546453D01*
X-690930Y1545132D01*
X-685139Y1545132D01*
X-679500Y1546453D01*
X-674268Y1548942D01*
X-669290Y1552905D01*
X-606501Y1615744D01*
X-602488Y1620723D01*
X-599998Y1625955D01*
X-598728Y1631594D01*
X-598728Y1637385D01*
X-599998Y1643024D01*
X-602691Y1648561D01*
X-603656Y1652574D01*
X-602996Y1656689D01*
X-600710Y1660143D01*
X-585876Y1674977D01*
X-582422Y1677212D01*
X-578307Y1677924D01*
X-574294Y1676907D01*
X-572719Y1676146D01*
X-567029Y1674875D01*
X-561289Y1674875D01*
X-555599Y1676146D01*
X-549808Y1678939D01*
X-545795Y1679956D01*
X-541731Y1679244D01*
X-538226Y1676958D01*
X-535940Y1673504D01*
X-535279Y1669389D01*
X-536244Y1665376D01*
X-539038Y1659585D01*
X-540359Y1653946D01*
X-540359Y1648155D01*
X-539038Y1642516D01*
X-536549Y1637283D01*
X-532587Y1632305D01*
X-476351Y1576120D01*
X-471373Y1572158D01*
X-466191Y1569618D01*
X-460552Y1568348D01*
X-454761Y1568348D01*
X-449122Y1569618D01*
X-443890Y1572158D01*
X-438912Y1576120D01*
X-401116Y1613916D01*
X-399135Y1615440D01*
X-393547Y1617472D01*
X-386892Y1621028D01*
X-380644Y1626158D01*
X-362915Y1643837D01*
X-359664Y1646072D01*
X-355752Y1646834D01*
X-351840Y1646072D01*
X-348589Y1643837D01*
X-218998Y1514297D01*
X-212801Y1509166D01*
X-206095Y1505610D01*
X-198882Y1503426D01*
X-190855Y1502613D01*
X-65227Y1502613D01*
X-60807Y1501648D01*
X-57302Y1498854D01*
X-54610Y1495552D01*
X-47396Y1489151D01*
X-39166Y1484122D01*
X-30226Y1480515D01*
X-20777Y1478483D01*
X-11125Y1478076D01*
X-1574Y1479296D01*
X7620Y1482140D01*
X16256Y1486458D01*
X24028Y1492199D01*
X30683Y1499158D01*
X36068Y1507185D01*
X40081Y1515973D01*
X42468Y1525270D01*
X43332Y1534871D01*
X42468Y1544523D01*
X40081Y1553819D01*
X36068Y1562608D01*
X30683Y1570634D01*
X24028Y1577594D01*
X16256Y1583334D01*
X7620Y1587652D01*
X-1574Y1590497D01*
X-11125Y1591716D01*
X-20777Y1591310D01*
X-30226Y1589278D01*
X-39166Y1585671D01*
X-46177Y1581353D01*
X-48717Y1580235D01*
X-51511Y1579829D01*
X-151282Y1579829D01*
X-155346Y1580692D01*
X-158750Y1583080D01*
X-160883Y1586636D01*
X-161391Y1590751D01*
X-160274Y1594764D01*
X-157632Y1597964D01*
X-153162Y1601520D01*
X-92862Y1661820D01*
X-88900Y1666748D01*
X-86410Y1671980D01*
X-85090Y1677619D01*
X-85090Y1684426D01*
X-84328Y1688338D01*
X-82143Y1691589D01*
X-69240Y1704492D01*
X-66192Y1706625D01*
X-62636Y1707489D01*
X-58978Y1707032D01*
X-55727Y1705254D01*
X-53289Y1703324D01*
X-48056Y1700834D01*
X-42418Y1699564D01*
X-36626Y1699564D01*
X-30988Y1700834D01*
X-25806Y1703324D01*
X-20828Y1707286D01*
X49072Y1777187D01*
X53035Y1782165D01*
X55575Y1787398D01*
X56845Y1793036D01*
X56845Y1798828D01*
X55575Y1804466D01*
X53035Y1809699D01*
X49072Y1814677D01*
X-13716Y1877466D01*
X-18694Y1881428D01*
X-23926Y1883968D01*
X-29565Y1885238D01*
X-35356Y1885238D01*
X-40995Y1883968D01*
X-46228Y1881428D01*
X-51206Y1877466D01*
X-121107Y1807565D01*
X-125069Y1802587D01*
X-127558Y1797405D01*
X-128828Y1791766D01*
X-128828Y1785975D01*
X-127558Y1780336D01*
X-125069Y1775104D01*
X-123088Y1772615D01*
X-121361Y1769364D01*
X-120853Y1765706D01*
X-121767Y1762150D01*
X-123850Y1759102D01*
X-131114Y1751838D01*
X-134416Y1749653D01*
X-138277Y1748840D01*
X-142189Y1749653D01*
X-145491Y1751838D01*
X-149098Y1755444D01*
X-154076Y1759407D01*
X-159258Y1761947D01*
X-164947Y1763217D01*
X-170688Y1763217D01*
X-176377Y1761947D01*
X-182168Y1759153D01*
X-186182Y1758137D01*
X-190246Y1758848D01*
X-193751Y1761134D01*
X-196037Y1764588D01*
X-196697Y1768703D01*
X-195732Y1772716D01*
X-192938Y1778507D01*
X-191617Y1784146D01*
X-191617Y1789938D01*
X-192938Y1795576D01*
X-195427Y1800809D01*
X-199390Y1805787D01*
X-250190Y1856536D01*
X-252374Y1859838D01*
X-253136Y1863699D01*
X-252374Y1867611D01*
X-250190Y1870913D01*
X-246888Y1873097D01*
X-242976Y1873859D01*
X-229057Y1873859D01*
X-225145Y1873097D01*
X-221843Y1870913D01*
X-178460Y1827530D01*
X-173482Y1823567D01*
X-168300Y1821027D01*
X-162661Y1819757D01*
X-156870Y1819757D01*
X-151231Y1821027D01*
X-145999Y1823567D01*
X-141020Y1827530D01*
X-71120Y1897430D01*
X-67157Y1902409D01*
X-64617Y1907590D01*
X-63347Y1913229D01*
X-63347Y1919020D01*
X-64617Y1924659D01*
X-67157Y1929892D01*
X-71120Y1934870D01*
X-133959Y1997710D01*
X-138938Y2001672D01*
X-144119Y2004161D01*
X-149758Y2005482D01*
X-155549Y2005482D01*
X-161188Y2004161D01*
X-166420Y2001672D01*
X-171399Y1997710D01*
X-214985Y1954072D01*
X-218287Y1951888D01*
X-222199Y1951075D01*
X-408736Y1951075D01*
X-416763Y1950313D01*
X-423976Y1948129D01*
X-430682Y1944573D01*
X-436880Y1939442D01*
X-534111Y1842211D01*
X-537616Y1839925D01*
X-541680Y1839264D01*
X-545693Y1840230D01*
X-551535Y1843074D01*
X-557174Y1844344D01*
X-562965Y1844344D01*
X-568604Y1843074D01*
X-573836Y1840534D01*
X-578815Y1836572D01*
X-639114Y1776272D01*
X-643077Y1771345D01*
X-645566Y1766112D01*
X-646887Y1760474D01*
X-646887Y1754682D01*
X-645566Y1749043D01*
X-643077Y1743811D01*
X-641248Y1741525D01*
X-639521Y1738274D01*
X-639064Y1734616D01*
X-639927Y1731060D01*
X-642010Y1728012D01*
X-655320Y1714754D01*
X-658774Y1712468D01*
X-662889Y1711756D01*
X-666902Y1712772D01*
X-672439Y1715414D01*
X-678078Y1716735D01*
X-683869Y1716735D01*
X-689508Y1715414D01*
X-694690Y1712925D01*
X-697179Y1710943D01*
X-700430Y1709216D01*
X-704088Y1708759D01*
X-707644Y1709623D01*
X-710692Y1711706D01*
X-777392Y1778406D01*
X-779373Y1781200D01*
X-781100Y1784857D01*
X-785063Y1789785D01*
X-825855Y1830578D01*
X-828040Y1833880D01*
X-828802Y1837740D01*
X-828040Y1841652D01*
X-825855Y1844954D01*
X-822553Y1847138D01*
X-818641Y1847900D01*
X-646582Y1847900D01*
X-638149Y1848713D01*
X-630478Y1851050D01*
X-623417Y1854809D01*
X-616864Y1860194D01*
X-314401Y2161743D01*
X-308813Y2168448D01*
X-305054Y2175510D01*
X-302717Y2183180D01*
X-301904Y2191664D01*
X-301904Y3015945D01*
X-302717Y3024378D01*
X-305054Y3032048D01*
X-308813Y3039110D01*
X-314198Y3045714D01*
X-846988Y3578504D01*
X-849223Y3581806D01*
X-849985Y3585667D01*
X-849223Y3589578D01*
X-846988Y3592880D01*
X-843686Y3595065D01*
X-839825Y3595827D01*
X-234492Y3595827D01*
X-230886Y3595166D01*
X-227787Y3593287D01*
X-225196Y3591001D01*
X-216966Y3585972D01*
X-208025Y3582365D01*
X-198577Y3580333D01*
X-188925Y3579926D01*
X-179374Y3581146D01*
X-175463Y3582365D01*
X-171704Y3582771D01*
X-168097Y3581806D01*
X-165049Y3579520D01*
X-163017Y3576320D01*
X-162356Y3572611D01*
X-162356Y3536950D01*
X-161645Y3530650D01*
X-159715Y3525164D01*
X-156616Y3520287D01*
X-152552Y3516172D01*
X-144170Y3510940D01*
X-141884Y3507587D01*
X-141071Y3503625D01*
X-141071Y3389172D01*
X-141833Y3385261D01*
X-144068Y3382010D01*
X-147320Y3379774D01*
X-151231Y3379012D01*
X-379628Y3379012D01*
X-383590Y3379825D01*
X-395630Y3388817D01*
X-404266Y3393186D01*
X-413461Y3395979D01*
X-423011Y3397250D01*
X-432663Y3396792D01*
X-442112Y3394760D01*
X-451053Y3391204D01*
X-459282Y3386124D01*
X-466496Y3379774D01*
X-472592Y3372256D01*
X-477266Y3363823D01*
X-480466Y3354730D01*
X-482092Y3345230D01*
X-482092Y3335578D01*
X-480466Y3326079D01*
X-477266Y3316986D01*
X-472592Y3308553D01*
X-466496Y3301034D01*
X-459282Y3294684D01*
X-451053Y3289604D01*
X-442112Y3286048D01*
X-432663Y3284016D01*
X-423011Y3283559D01*
X-413461Y3284829D01*
X-404266Y3287623D01*
X-395630Y3291992D01*
X-383590Y3300984D01*
X-379628Y3301796D01*
X-172516Y3301796D01*
X-168605Y3301034D01*
X-165303Y3298799D01*
X-163118Y3295548D01*
X-162356Y3291636D01*
X-162356Y3206750D01*
X-161645Y3200450D01*
X-159715Y3194964D01*
X-156616Y3190087D01*
X-152552Y3185972D01*
X-147624Y3182924D01*
X-141528Y3180791D01*
X-137972Y3178606D01*
X-135585Y3175254D01*
X-134721Y3171190D01*
X-134721Y2984703D01*
X-135585Y2980639D01*
X-137972Y2977286D01*
X-141528Y2975102D01*
X-147624Y2972968D01*
X-152552Y2969920D01*
X-156616Y2965805D01*
X-159715Y2960928D01*
X-161645Y2955442D01*
X-162356Y2949143D01*
X-162356Y2863850D01*
X-161645Y2857550D01*
X-159715Y2852064D01*
X-156616Y2847187D01*
X-152552Y2843072D01*
X-147624Y2840024D01*
X-142189Y2838094D01*
X-135839Y2837383D01*
X-56337Y2837383D01*
X-50038Y2838094D01*
X-40843Y2841498D01*
X-37084Y2841498D01*
X-27889Y2838094D01*
X-21539Y2837383D01*
X28498Y2837383D01*
X32359Y2836621D01*
X35661Y2834436D01*
X93319Y2776778D01*
X95504Y2773476D01*
X96266Y2769565D01*
X96266Y2722829D01*
X96977Y2716479D01*
X98907Y2711043D01*
X102006Y2706116D01*
X106070Y2702052D01*
X110998Y2698953D01*
X116433Y2697073D01*
X122783Y2696362D01*
X202285Y2696362D01*
X208584Y2697073D01*
X214071Y2698953D01*
X218948Y2702052D01*
X223062Y2706116D01*
X226110Y2711043D01*
X228244Y2717088D01*
X230378Y2720644D01*
X233781Y2723083D01*
X237845Y2723896D01*
X241909Y2723083D01*
X245313Y2720644D01*
X247446Y2717088D01*
X249580Y2711043D01*
X252628Y2706116D01*
X256743Y2702052D01*
X261620Y2698953D01*
X267106Y2697073D01*
X273405Y2696362D01*
X341731Y2696362D01*
X345592Y2695549D01*
X348894Y2693365D01*
X351129Y2690063D01*
X351891Y2686202D01*
X351891Y2348128D01*
X352704Y2339644D01*
X355041Y2331974D01*
X358800Y2324912D01*
X364236Y2318359D01*
X490524Y2192070D01*
X497078Y2186635D01*
X504139Y2182876D01*
X511809Y2180539D01*
X520293Y2179726D01*
X670102Y2179726D01*
X673963Y2178913D01*
X677265Y2176729D01*
X712114Y2141880D01*
X714349Y2138578D01*
X715111Y2134717D01*
X715111Y1463649D01*
X714349Y1459738D01*
X712114Y1456436D01*
X708812Y1454251D01*
X704951Y1453489D01*
X668274Y1453489D01*
X661924Y1452778D01*
X656488Y1450848D01*
X651560Y1447749D01*
X647496Y1443685D01*
X644398Y1438757D01*
X642467Y1433322D01*
X641756Y1426972D01*
X641756Y1368145D01*
X642467Y1361795D01*
X644398Y1356360D01*
X646531Y1352956D01*
X647903Y1349451D01*
X647903Y1345692D01*
X646531Y1342136D01*
X644398Y1338783D01*
X642467Y1333296D01*
X641756Y1326997D01*
X641756Y1268120D01*
X642467Y1261821D01*
X644398Y1256334D01*
X646531Y1252982D01*
X647903Y1249476D01*
X647903Y1245666D01*
X646531Y1242161D01*
X644398Y1238758D01*
X642467Y1233322D01*
X641756Y1226972D01*
X641756Y1168146D01*
X642467Y1161796D01*
X644398Y1156360D01*
X646531Y1152956D01*
X647903Y1149451D01*
X647903Y1145692D01*
X646531Y1142136D01*
X644398Y1138783D01*
X642467Y1133297D01*
X641756Y1126998D01*
X641756Y1068120D01*
X642467Y1061821D01*
X644398Y1056335D01*
X646531Y1052982D01*
X647903Y1049477D01*
X647903Y1045667D01*
X646531Y1042162D01*
X644398Y1038758D01*
X642467Y1033322D01*
X641756Y1026972D01*
X641756Y968146D01*
X642467Y961796D01*
X644398Y956360D01*
X647496Y951433D01*
X651560Y947369D01*
X656488Y944270D01*
X661924Y942390D01*
X668274Y941679D01*
X802944Y941679D01*
X805688Y941273D01*
X808278Y940155D01*
X811733Y938021D01*
X820674Y934415D01*
X830122Y932383D01*
X839774Y931976D01*
X849325Y933196D01*
X858519Y936040D01*
X867156Y940358D01*
X874928Y946099D01*
X881583Y953058D01*
X886968Y961085D01*
X890981Y969873D01*
X893368Y979169D01*
X894232Y988771D01*
X893368Y998423D01*
X890981Y1007719D01*
X887018Y1016508D01*
X880922Y1025448D01*
X879398Y1028903D01*
X879246Y1032662D01*
X880516Y1036269D01*
X883005Y1039114D01*
X886358Y1040892D01*
X896670Y1043990D01*
X905256Y1048308D01*
X913028Y1054049D01*
X919683Y1061008D01*
X925068Y1069035D01*
X929081Y1077823D01*
X931468Y1087120D01*
X932332Y1096721D01*
X931468Y1106373D01*
X929081Y1115669D01*
X925068Y1124458D01*
X919683Y1132484D01*
X913028Y1139444D01*
X905256Y1145184D01*
X896619Y1149502D01*
X887425Y1152347D01*
X877874Y1153566D01*
X875487Y1153464D01*
X871067Y1154277D01*
X867460Y1156817D01*
X865276Y1160729D01*
X864971Y1165148D01*
X866597Y1169314D01*
X869187Y1173124D01*
X873150Y1181912D01*
X875588Y1191209D01*
X876401Y1200810D01*
X875588Y1210462D01*
X873150Y1219758D01*
X869187Y1228547D01*
X863803Y1236573D01*
X862177Y1238199D01*
X859942Y1241856D01*
X859383Y1246073D01*
X860653Y1250188D01*
X863447Y1253388D01*
X870153Y1260348D01*
X875537Y1268374D01*
X879500Y1277162D01*
X881938Y1286459D01*
X882751Y1296060D01*
X881938Y1305712D01*
X879500Y1315008D01*
X875537Y1323797D01*
X870153Y1331823D01*
X863447Y1338783D01*
X855675Y1344523D01*
X851865Y1346454D01*
X848969Y1348638D01*
X847039Y1351737D01*
X846277Y1355293D01*
X846836Y1358849D01*
X847902Y1361795D01*
X848614Y1368145D01*
X848614Y1426972D01*
X847902Y1433322D01*
X845972Y1438757D01*
X842873Y1443685D01*
X838809Y1447749D01*
X833882Y1450848D01*
X828446Y1452778D01*
X822096Y1453489D01*
X807059Y1453489D01*
X803198Y1454251D01*
X799896Y1456436D01*
X797712Y1459738D01*
X796899Y1463649D01*
X796899Y2155342D01*
X796086Y2163826D01*
X793750Y2171496D01*
X789990Y2178558D01*
X784555Y2185111D01*
X720496Y2249170D01*
X713943Y2254605D01*
X706882Y2258364D01*
X699211Y2260701D01*
X690727Y2261514D01*
X540918Y2261514D01*
X537057Y2262276D01*
X533755Y2264511D01*
X436676Y2361590D01*
X434492Y2364892D01*
X433679Y2368753D01*
X433679Y2844088D01*
X434441Y2847898D01*
X442468Y2859735D01*
X446481Y2868523D01*
X448868Y2877820D01*
X449732Y2887421D01*
X448868Y2897073D01*
X446481Y2906369D01*
X444449Y2910890D01*
X443534Y2914802D01*
X444246Y2918764D01*
X446430Y2922168D01*
X449732Y2924403D01*
X453694Y2925216D01*
X529640Y2925216D01*
X533349Y2924505D01*
X536549Y2922473D01*
X538784Y2919425D01*
X539750Y2915716D01*
X540512Y2904185D01*
X543204Y2890774D01*
X547573Y2877820D01*
X553618Y2865526D01*
X561238Y2854147D01*
X570280Y2843885D01*
X580542Y2834843D01*
X591921Y2827223D01*
X604215Y2821178D01*
X617169Y2816809D01*
X630580Y2814116D01*
X644245Y2813202D01*
X657910Y2814116D01*
X671322Y2816809D01*
X684276Y2821178D01*
X696569Y2827223D01*
X707948Y2834843D01*
X718210Y2843885D01*
X727252Y2854147D01*
X734872Y2865526D01*
X740918Y2877820D01*
X745286Y2890774D01*
X747979Y2904185D01*
X748893Y2917850D01*
X747979Y2931515D01*
X745286Y2944926D01*
X740918Y2957880D01*
X734872Y2970174D01*
X727252Y2981553D01*
X718210Y2991815D01*
X707948Y3000857D01*
X696569Y3008477D01*
X684276Y3014522D01*
X671322Y3018891D01*
X657910Y3021584D01*
X644245Y3022498D01*
X630580Y3021584D01*
X617169Y3018891D01*
X604215Y3014522D01*
X591210Y3008071D01*
X586740Y3007055D01*
X360730Y3007055D01*
X356514Y3007969D01*
X354685Y3009341D01*
X352856Y3007614D01*
X340360Y3003854D01*
X333298Y3000095D01*
X326694Y2994710D01*
X284632Y2952597D01*
X279196Y2946044D01*
X275437Y2938983D01*
X273100Y2931312D01*
X272288Y2922828D01*
X272288Y2842869D01*
X271424Y2838805D01*
X269036Y2835402D01*
X265480Y2833268D01*
X261620Y2831947D01*
X256743Y2828848D01*
X252628Y2824784D01*
X249580Y2819857D01*
X247446Y2813812D01*
X245313Y2810256D01*
X241909Y2807817D01*
X237845Y2807004D01*
X233781Y2807817D01*
X230378Y2810256D01*
X228244Y2813812D01*
X226110Y2819857D01*
X223062Y2824784D01*
X218948Y2828848D01*
X214071Y2831947D01*
X208584Y2833827D01*
X202285Y2834538D01*
X148945Y2834538D01*
X145034Y2835351D01*
X141732Y2837535D01*
X87426Y2891891D01*
X85191Y2895193D01*
X84429Y2899054D01*
X84429Y2949143D01*
X83718Y2955442D01*
X81788Y2960928D01*
X78740Y2965805D01*
X74625Y2969920D01*
X69748Y2972968D01*
X64262Y2974898D01*
X57962Y2975610D01*
X-21539Y2975610D01*
X-27889Y2974898D01*
X-37084Y2971495D01*
X-40843Y2971495D01*
X-50698Y2975152D01*
X-54254Y2977286D01*
X-56641Y2980639D01*
X-57505Y2984703D01*
X-57505Y3171190D01*
X-56641Y3175254D01*
X-54254Y3178606D01*
X-50698Y3180740D01*
X-40843Y3184398D01*
X-37084Y3184398D01*
X-27889Y3180994D01*
X-21539Y3180283D01*
X28498Y3180283D01*
X32359Y3179521D01*
X35661Y3177336D01*
X93319Y3119678D01*
X95504Y3116376D01*
X96266Y3112465D01*
X96266Y3053029D01*
X96977Y3046679D01*
X98907Y3041243D01*
X102006Y3036316D01*
X106070Y3032252D01*
X110998Y3029153D01*
X116433Y3027273D01*
X122783Y3026562D01*
X202285Y3026562D01*
X208584Y3027273D01*
X214071Y3029153D01*
X218948Y3032252D01*
X223062Y3036316D01*
X226110Y3041243D01*
X228244Y3047288D01*
X230378Y3050844D01*
X233781Y3053283D01*
X237845Y3054096D01*
X241909Y3053283D01*
X245313Y3050844D01*
X247446Y3047288D01*
X249580Y3041243D01*
X252628Y3036316D01*
X256743Y3032252D01*
X261620Y3029153D01*
X267106Y3027273D01*
X273405Y3026562D01*
X347675Y3026562D01*
X351942Y3025597D01*
X353720Y3024225D01*
X355193Y3025698D01*
X364693Y3029153D01*
X369620Y3032252D01*
X373684Y3036316D01*
X376783Y3041243D01*
X378714Y3046679D01*
X379425Y3053029D01*
X379425Y3114903D01*
X380187Y3118764D01*
X382371Y3122066D01*
X390550Y3130245D01*
X393852Y3132480D01*
X397764Y3133242D01*
X540562Y3133242D01*
X544220Y3132531D01*
X547420Y3130550D01*
X549656Y3127552D01*
X553618Y3119526D01*
X561238Y3108147D01*
X570280Y3097885D01*
X580542Y3088843D01*
X591921Y3081223D01*
X604215Y3075178D01*
X617169Y3070809D01*
X630580Y3068116D01*
X644245Y3067202D01*
X657910Y3068116D01*
X671322Y3070809D01*
X684276Y3075178D01*
X696569Y3081223D01*
X707948Y3088843D01*
X718210Y3097885D01*
X727252Y3108147D01*
X734872Y3119526D01*
X740918Y3131820D01*
X745286Y3144774D01*
X747979Y3158185D01*
X748893Y3171850D01*
X747979Y3185515D01*
X745286Y3198926D01*
X740918Y3211880D01*
X734872Y3224174D01*
X727252Y3235553D01*
X718210Y3245815D01*
X707948Y3254857D01*
X696569Y3262477D01*
X684276Y3268522D01*
X671322Y3272891D01*
X657910Y3275584D01*
X644245Y3276498D01*
X630580Y3275584D01*
X617169Y3272891D01*
X604215Y3268522D01*
X591921Y3262477D01*
X580542Y3254857D01*
X570280Y3245815D01*
X561238Y3235553D01*
X553618Y3224174D01*
X549656Y3216148D01*
X547420Y3213150D01*
X544220Y3211169D01*
X540562Y3210458D01*
X378053Y3210458D01*
X370027Y3209645D01*
X362813Y3207461D01*
X356108Y3203905D01*
X349910Y3198774D01*
X318820Y3167735D01*
X315518Y3165551D01*
X311658Y3164738D01*
X273405Y3164738D01*
X267106Y3164027D01*
X261620Y3162147D01*
X256743Y3159048D01*
X252628Y3154984D01*
X249580Y3150057D01*
X247446Y3144012D01*
X245313Y3140456D01*
X241909Y3138017D01*
X237845Y3137204D01*
X233781Y3138017D01*
X230378Y3140456D01*
X228244Y3144012D01*
X226110Y3150057D01*
X223062Y3154984D01*
X218948Y3159048D01*
X214071Y3162147D01*
X208584Y3164027D01*
X202285Y3164738D01*
X161645Y3164738D01*
X157734Y3165551D01*
X154432Y3167735D01*
X87426Y3234791D01*
X85191Y3238093D01*
X84429Y3241954D01*
X84429Y3292043D01*
X83718Y3298342D01*
X81788Y3303828D01*
X78740Y3308705D01*
X74625Y3312820D01*
X69748Y3315868D01*
X64262Y3317798D01*
X57962Y3318510D01*
X-21539Y3318510D01*
X-27889Y3317798D01*
X-37084Y3314395D01*
X-40843Y3314395D01*
X-50038Y3317798D01*
X-54813Y3318357D01*
X-58369Y3319424D01*
X-61264Y3321659D01*
X-63195Y3324809D01*
X-63855Y3328415D01*
X-63855Y3500577D01*
X-63195Y3504184D01*
X-61264Y3507333D01*
X-58369Y3509568D01*
X-54813Y3510635D01*
X-50038Y3511194D01*
X-40843Y3514598D01*
X-37084Y3514598D01*
X-27889Y3511194D01*
X-21539Y3510483D01*
X28498Y3510483D01*
X32359Y3509721D01*
X35661Y3507536D01*
X93319Y3449878D01*
X95504Y3446576D01*
X96266Y3442665D01*
X96266Y3383229D01*
X96977Y3376879D01*
X98907Y3371443D01*
X102006Y3366515D01*
X106070Y3362451D01*
X110998Y3359353D01*
X116433Y3357473D01*
X122783Y3356762D01*
X198729Y3356762D01*
X202844Y3355848D01*
X206248Y3353409D01*
X208381Y3349751D01*
X208838Y3345586D01*
X207568Y3341573D01*
X202184Y3332022D01*
X198983Y3322980D01*
X197358Y3313480D01*
X197358Y3303828D01*
X198983Y3294329D01*
X202184Y3285236D01*
X206857Y3276803D01*
X212953Y3269284D01*
X220167Y3262934D01*
X228396Y3257854D01*
X237337Y3254298D01*
X246786Y3252266D01*
X256438Y3251809D01*
X265988Y3253079D01*
X275183Y3255873D01*
X283819Y3260242D01*
X291592Y3265982D01*
X298246Y3272942D01*
X303631Y3280918D01*
X307644Y3289706D01*
X310032Y3299053D01*
X310896Y3308654D01*
X310032Y3318256D01*
X307644Y3327603D01*
X303631Y3336391D01*
X300583Y3340912D01*
X299008Y3344926D01*
X299262Y3349294D01*
X301294Y3353155D01*
X304749Y3355797D01*
X309016Y3356762D01*
X352907Y3356762D01*
X359257Y3357473D01*
X364693Y3359353D01*
X369620Y3362451D01*
X373684Y3366515D01*
X376783Y3371443D01*
X378714Y3376879D01*
X379882Y3381756D01*
X382168Y3384651D01*
X385318Y3386582D01*
X388924Y3387242D01*
X529437Y3387242D01*
X533349Y3386480D01*
X536600Y3384245D01*
X538835Y3380994D01*
X539597Y3377082D01*
X539597Y3347669D01*
X540308Y3341370D01*
X542239Y3335883D01*
X545287Y3331006D01*
X549402Y3326892D01*
X554278Y3323844D01*
X559765Y3321913D01*
X566064Y3321202D01*
X722426Y3321202D01*
X728726Y3321913D01*
X734212Y3323844D01*
X739089Y3326892D01*
X743204Y3331006D01*
X746252Y3335883D01*
X748182Y3341370D01*
X748893Y3347669D01*
X748893Y3504031D01*
X748182Y3510330D01*
X746252Y3515817D01*
X743204Y3520694D01*
X739089Y3524808D01*
X734212Y3527856D01*
X728726Y3529787D01*
X722426Y3530498D01*
X566064Y3530498D01*
X559765Y3529787D01*
X554278Y3527856D01*
X549402Y3524808D01*
X545287Y3520694D01*
X542239Y3515817D01*
X540308Y3510330D01*
X539597Y3504031D01*
X539597Y3474618D01*
X538835Y3470706D01*
X536600Y3467455D01*
X533349Y3465220D01*
X529437Y3464458D01*
X388924Y3464458D01*
X385318Y3465118D01*
X382168Y3467049D01*
X379882Y3469944D01*
X378714Y3474821D01*
X376783Y3480257D01*
X373684Y3485184D01*
X369620Y3489248D01*
X364693Y3492347D01*
X359257Y3494227D01*
X352907Y3494938D01*
X273405Y3494938D01*
X267106Y3494227D01*
X261620Y3492347D01*
X256743Y3489248D01*
X252628Y3485184D01*
X249580Y3480257D01*
X247446Y3474212D01*
X245313Y3470656D01*
X241909Y3468217D01*
X237845Y3467404D01*
X233781Y3468217D01*
X230378Y3470656D01*
X228244Y3474212D01*
X226110Y3480257D01*
X223062Y3485184D01*
X218948Y3489248D01*
X214071Y3492347D01*
X208584Y3494227D01*
X202285Y3494938D01*
X161645Y3494938D01*
X157734Y3495751D01*
X154432Y3497935D01*
X87426Y3564991D01*
X85191Y3568293D01*
X84429Y3572154D01*
X84429Y3622243D01*
X83718Y3628542D01*
X81788Y3634028D01*
X78740Y3638905D01*
X74625Y3643020D01*
X69748Y3646068D01*
X64262Y3647998D01*
X57962Y3648710D01*
X38455Y3648710D01*
X34594Y3649472D01*
X31292Y3651605D01*
X29108Y3654856D01*
X28295Y3658717D01*
X29006Y3662578D01*
X31089Y3665880D01*
X37896Y3672992D01*
X43281Y3680968D01*
X47294Y3689756D01*
X49682Y3699103D01*
X50546Y3708704D01*
X49682Y3718306D01*
X47294Y3727653D01*
X43281Y3736441D01*
X37896Y3744417D01*
X31242Y3751376D01*
X23469Y3757117D01*
X14833Y3761486D01*
X5638Y3764279D01*
X-3911Y3765550D01*
X-13563Y3765092D01*
X-23012Y3763060D01*
X-31953Y3759504D01*
X-40182Y3754424D01*
X-42773Y3752138D01*
X-45872Y3750259D01*
X-49479Y3749598D01*
X-373532Y3749598D01*
X-375767Y3749751D01*
X-379476Y3750665D01*
X-382574Y3752951D01*
X-384606Y3756151D01*
X-385318Y3759962D01*
X-384556Y3763670D01*
X-382473Y3766921D01*
X-381203Y3768242D01*
X-375818Y3776218D01*
X-371805Y3785006D01*
X-369417Y3794353D01*
X-368554Y3803954D01*
X-369417Y3813556D01*
X-371805Y3822903D01*
X-375259Y3830523D01*
X-376174Y3834637D01*
X-375361Y3838752D01*
X-372922Y3842156D01*
X-369316Y3844340D01*
X-365150Y3844848D01*
X-361137Y3843629D01*
X-357632Y3841699D01*
X-344068Y3836314D01*
X-329996Y3832707D01*
X-315518Y3830878D01*
X-300990Y3830878D01*
X-286562Y3832707D01*
X-272440Y3836314D01*
X-258927Y3841699D01*
X-246176Y3848709D01*
X-234391Y3857244D01*
X-223774Y3867200D01*
X-214528Y3878427D01*
X-206705Y3890721D01*
X-200507Y3903878D01*
X-196037Y3917696D01*
X-193294Y3932021D01*
X-192379Y3946550D01*
X-193294Y3961079D01*
X-196037Y3975354D01*
X-200507Y3989222D01*
X-206705Y4002379D01*
X-214528Y4014673D01*
X-223774Y4025849D01*
X-234391Y4035856D01*
X-246176Y4044391D01*
X-258927Y4051401D01*
X-272440Y4056735D01*
X-286562Y4060393D01*
X-300990Y4062222D01*
X-315518Y4062222D01*
X-329996Y4060393D01*
X-344068Y4056735D01*
X-357632Y4051401D01*
X-370382Y4044391D01*
X-382117Y4035856D01*
X-392734Y4025849D01*
X-402031Y4014673D01*
X-409803Y4002379D01*
X-416001Y3989222D01*
X-420522Y3975354D01*
X-423265Y3961079D01*
X-424180Y3946550D01*
X-423265Y3932021D01*
X-420522Y3917696D01*
X-416001Y3903878D01*
X-409803Y3890721D01*
X-402031Y3878427D01*
X-398830Y3874566D01*
X-396849Y3870756D01*
X-396646Y3866438D01*
X-398221Y3862476D01*
X-401320Y3859479D01*
X-405333Y3858006D01*
X-409651Y3858361D01*
X-413461Y3859529D01*
X-423011Y3860800D01*
X-432663Y3860342D01*
X-442112Y3858310D01*
X-451053Y3854754D01*
X-459282Y3849674D01*
X-466496Y3843324D01*
X-472592Y3835806D01*
X-479806Y3822801D01*
X-483158Y3820414D01*
X-487222Y3819550D01*
X-515518Y3819550D01*
X-519430Y3820363D01*
X-522732Y3822547D01*
X-524916Y3825900D01*
X-525678Y3829812D01*
X-524865Y3833723D01*
X-522630Y3837025D01*
X-519277Y3839159D01*
X-512927Y3841699D01*
X-500176Y3848709D01*
X-488391Y3857244D01*
X-477774Y3867200D01*
X-468528Y3878427D01*
X-460705Y3890721D01*
X-454507Y3903878D01*
X-450037Y3917696D01*
X-447293Y3932021D01*
X-446379Y3946550D01*
X-447293Y3961079D01*
X-450037Y3975354D01*
X-454507Y3989222D01*
X-460705Y4002379D01*
X-468528Y4014673D01*
X-477774Y4025849D01*
X-488391Y4035856D01*
X-500176Y4044391D01*
X-512927Y4051401D01*
X-526440Y4056735D01*
X-540562Y4060393D01*
X-554990Y4062222D01*
X-569518Y4062222D01*
X-583996Y4060393D01*
X-598068Y4056735D01*
X-611632Y4051401D01*
X-624382Y4044391D01*
X-636117Y4035856D01*
X-646734Y4025849D01*
X-656031Y4014673D01*
X-663803Y4002379D01*
X-670001Y3989222D01*
X-674522Y3975354D01*
X-677265Y3961079D01*
X-678180Y3946550D01*
X-677265Y3932021D01*
X-674522Y3917696D01*
X-670001Y3903878D01*
X-663803Y3890721D01*
X-656031Y3878427D01*
X-646734Y3867200D01*
X-636117Y3857244D01*
X-624382Y3848709D01*
X-611632Y3841699D01*
X-605282Y3839159D01*
X-601929Y3837025D01*
X-599643Y3833723D01*
X-598830Y3829812D01*
X-599592Y3825900D01*
X-601776Y3822547D01*
X-605078Y3820363D01*
X-608990Y3819550D01*
X-769518Y3819550D01*
X-773430Y3820363D01*
X-776732Y3822547D01*
X-778916Y3825900D01*
X-779678Y3829812D01*
X-778865Y3833723D01*
X-776630Y3837025D01*
X-773277Y3839159D01*
X-766927Y3841699D01*
X-754176Y3848709D01*
X-742391Y3857244D01*
X-731774Y3867200D01*
X-722528Y3878427D01*
X-714705Y3890721D01*
X-708507Y3903878D01*
X-704037Y3917696D01*
X-701294Y3932021D01*
X-700379Y3946550D01*
X-701294Y3961079D01*
X-704037Y3975354D01*
X-708507Y3989222D01*
X-714705Y4002379D01*
X-722528Y4014673D01*
X-731774Y4025849D01*
X-742391Y4035856D01*
X-754176Y4044391D01*
X-766927Y4051401D01*
X-780440Y4056735D01*
X-794562Y4060393D01*
X-808990Y4062222D01*
X-823518Y4062222D01*
X-837996Y4060393D01*
X-852068Y4056735D01*
X-865632Y4051401D01*
X-878382Y4044391D01*
X-890117Y4035856D01*
X-900734Y4025849D01*
X-910031Y4014673D01*
X-917803Y4002379D01*
X-924001Y3989222D01*
X-928522Y3975354D01*
X-931265Y3961079D01*
X-932180Y3946550D01*
X-931265Y3932021D01*
X-928522Y3917696D01*
X-924001Y3903878D01*
X-917803Y3890721D01*
X-910031Y3878427D01*
X-900734Y3867200D01*
X-890117Y3857244D01*
X-878382Y3848709D01*
X-865632Y3841699D01*
X-859282Y3839159D01*
X-855929Y3837025D01*
X-853643Y3833723D01*
X-852830Y3829812D01*
X-853592Y3825900D01*
X-855776Y3822547D01*
X-859078Y3820363D01*
X-862990Y3819550D01*
X-956411Y3819550D01*
X-960272Y3820312D01*
X-963574Y3822547D01*
X-965758Y3825849D01*
X-966571Y3829710D01*
X-965758Y3833622D01*
X-963574Y3836924D01*
X-960069Y3840429D01*
X-956970Y3845306D01*
X-955090Y3850792D01*
X-954379Y3857091D01*
X-954379Y4035958D01*
X-955090Y4042308D01*
X-956970Y4047744D01*
X-960069Y4052671D01*
X-964133Y4056735D01*
X-969060Y4059834D01*
X-974496Y4061714D01*
X-980846Y4062425D01*
X-1159713Y4062425D01*
X-1166012Y4061714D01*
X-1171498Y4059834D01*
X-1176375Y4056735D01*
X-1180490Y4052671D01*
X-1183538Y4047744D01*
X-1185468Y4042308D01*
X-1186180Y4035958D01*
X-1186180Y3857091D01*
X-1185468Y3850792D01*
X-1183538Y3845306D01*
X-1180490Y3840429D01*
X-1176934Y3836924D01*
X-1174750Y3833622D01*
X-1173988Y3829710D01*
X-1174750Y3825849D01*
X-1176934Y3822547D01*
X-1180236Y3820312D01*
X-1184148Y3819550D01*
X-1404518Y3819550D01*
X-1408430Y3820363D01*
X-1411732Y3822547D01*
X-1413916Y3825900D01*
X-1414678Y3829812D01*
X-1413865Y3833723D01*
X-1411630Y3837025D01*
X-1408277Y3839159D01*
X-1401927Y3841699D01*
X-1389176Y3848709D01*
X-1377391Y3857244D01*
X-1366774Y3867200D01*
X-1357528Y3878427D01*
X-1349705Y3890721D01*
X-1343507Y3903878D01*
X-1339037Y3917696D01*
X-1336294Y3932021D01*
X-1335379Y3946550D01*
X-1336294Y3961079D01*
X-1339037Y3975354D01*
X-1343507Y3989222D01*
X-1349705Y4002379D01*
X-1357528Y4014673D01*
X-1366774Y4025849D01*
X-1377391Y4035856D01*
X-1389176Y4044391D01*
X-1401927Y4051401D01*
X-1415440Y4056735D01*
X-1429562Y4060393D01*
X-1443990Y4062222D01*
X-1458518Y4062222D01*
X-1472996Y4060393D01*
X-1487068Y4056735D01*
X-1500632Y4051401D01*
X-1513382Y4044391D01*
X-1525117Y4035856D01*
X-1535734Y4025849D01*
X-1545031Y4014673D01*
X-1552803Y4002379D01*
X-1559001Y3989222D01*
X-1563522Y3975354D01*
X-1566265Y3961079D01*
X-1567180Y3946550D01*
X-1566265Y3932021D01*
X-1563522Y3917696D01*
X-1559001Y3903878D01*
X-1552803Y3890721D01*
X-1545031Y3878427D01*
X-1535734Y3867200D01*
X-1525117Y3857244D01*
X-1513382Y3848709D01*
X-1500632Y3841699D01*
X-1494282Y3839159D01*
X-1490929Y3837025D01*
X-1488643Y3833723D01*
X-1487830Y3829812D01*
X-1488592Y3825900D01*
X-1490776Y3822547D01*
X-1494078Y3820363D01*
X-1497990Y3819550D01*
X-1658518Y3819550D01*
X-1662430Y3820363D01*
X-1665732Y3822547D01*
X-1667916Y3825900D01*
X-1668678Y3829812D01*
X-1667865Y3833723D01*
X-1665630Y3837025D01*
X-1662277Y3839159D01*
X-1655927Y3841699D01*
X-1643176Y3848709D01*
X-1631391Y3857244D01*
X-1620774Y3867200D01*
X-1611528Y3878427D01*
X-1603705Y3890721D01*
X-1597507Y3903878D01*
X-1593037Y3917696D01*
X-1590294Y3932021D01*
X-1589379Y3946550D01*
X-1590294Y3961079D01*
X-1593037Y3975354D01*
X-1597507Y3989222D01*
X-1603705Y4002379D01*
X-1611528Y4014673D01*
X-1620774Y4025849D01*
X-1631391Y4035856D01*
X-1643176Y4044391D01*
X-1655927Y4051401D01*
X-1669440Y4056735D01*
X-1683562Y4060393D01*
X-1697989Y4062222D01*
X-1712518Y4062222D01*
X-1726996Y4060393D01*
X-1741068Y4056735D01*
X-1754632Y4051401D01*
X-1767382Y4044391D01*
X-1779117Y4035856D01*
X-1789734Y4025849D01*
X-1799031Y4014673D01*
X-1806803Y4002379D01*
X-1813001Y3989222D01*
X-1817522Y3975354D01*
X-1820265Y3961079D01*
X-1821180Y3946550D01*
X-1820265Y3932021D01*
X-1817522Y3917696D01*
X-1813001Y3903878D01*
X-1806803Y3890721D01*
X-1799031Y3878427D01*
X-1789734Y3867200D01*
X-1779117Y3857244D01*
X-1767382Y3848709D01*
X-1754632Y3841699D01*
X-1748282Y3839159D01*
X-1744929Y3837025D01*
X-1742643Y3833723D01*
X-1741830Y3829812D01*
X-1742592Y3825900D01*
X-1744776Y3822547D01*
X-1748078Y3820363D01*
X-1751990Y3819550D01*
X-1912518Y3819550D01*
X-1916430Y3820363D01*
X-1919732Y3822547D01*
X-1921916Y3825900D01*
X-1922678Y3829812D01*
X-1921865Y3833723D01*
X-1919630Y3837025D01*
X-1916277Y3839159D01*
X-1909927Y3841699D01*
X-1897176Y3848709D01*
X-1885391Y3857244D01*
X-1874774Y3867200D01*
X-1865528Y3878427D01*
X-1857705Y3890721D01*
X-1851507Y3903878D01*
X-1847037Y3917696D01*
X-1844293Y3932021D01*
X-1843379Y3946550D01*
X-1844293Y3961079D01*
X-1847037Y3975354D01*
X-1851507Y3989222D01*
X-1857705Y4002379D01*
X-1865528Y4014673D01*
X-1874774Y4025849D01*
X-1885391Y4035856D01*
X-1897176Y4044391D01*
X-1909927Y4051401D01*
X-1923440Y4056735D01*
X-1937562Y4060393D01*
X-1951989Y4062222D01*
X-1966518Y4062222D01*
X-1980996Y4060393D01*
X-1995068Y4056735D01*
X-2008632Y4051401D01*
X-2021382Y4044391D01*
X-2033117Y4035856D01*
X-2043734Y4025849D01*
X-2053031Y4014673D01*
X-2060803Y4002379D01*
X-2067001Y3989222D01*
X-2071522Y3975354D01*
X-2074265Y3961079D01*
X-2075180Y3946550D01*
X-2074265Y3932021D01*
X-2071522Y3917696D01*
X-2067001Y3903878D01*
X-2060803Y3890721D01*
X-2053031Y3878427D01*
X-2043734Y3867200D01*
X-2033117Y3857244D01*
X-2021382Y3848709D01*
X-2008632Y3841699D01*
X-2002282Y3839159D01*
X-1998929Y3837025D01*
X-1996643Y3833723D01*
X-1995830Y3829812D01*
X-1996592Y3825900D01*
X-1998776Y3822547D01*
X-2002078Y3820363D01*
X-2005990Y3819550D01*
X-2024227Y3819550D01*
X-2028088Y3820312D01*
X-2031390Y3822547D01*
X-2102866Y3894023D01*
X-2104999Y3897071D01*
X-2105863Y3900678D01*
X-2105355Y3904335D01*
X-2101037Y3917696D01*
X-2098294Y3932021D01*
X-2097379Y3946550D01*
X-2098294Y3961079D01*
X-2101037Y3975354D01*
X-2105507Y3989222D01*
X-2111705Y4002379D01*
X-2119528Y4014673D01*
X-2128774Y4025849D01*
X-2139391Y4035856D01*
X-2151176Y4044391D01*
X-2163927Y4051401D01*
X-2177440Y4056735D01*
X-2191562Y4060393D01*
X-2205990Y4062222D01*
X-2220518Y4062222D01*
X-2234996Y4060393D01*
X-2249068Y4056735D01*
X-2262632Y4051401D01*
X-2275382Y4044391D01*
X-2287117Y4035856D01*
X-2297734Y4025849D01*
X-2307031Y4014673D01*
X-2314803Y4002379D01*
X-2321001Y3989222D01*
X-2325522Y3975354D01*
X-2328265Y3961079D01*
X-2329180Y3946550D01*
X-2328265Y3932021D01*
X-2325522Y3917696D01*
X-2321001Y3903878D01*
X-2314803Y3890721D01*
X-2307031Y3878427D01*
X-2297734Y3867200D01*
X-2287117Y3857244D01*
X-2275382Y3848709D01*
X-2262632Y3841699D01*
X-2249068Y3836314D01*
X-2234996Y3832707D01*
X-2220518Y3830878D01*
X-2205990Y3830878D01*
X-2191562Y3832707D01*
X-2177440Y3836314D01*
X-2171801Y3838549D01*
X-2167940Y3839260D01*
X-2164130Y3838498D01*
X-2160879Y3836314D01*
X-2091588Y3767074D01*
X-2089404Y3763772D01*
X-2088642Y3759860D01*
X-2089404Y3755999D01*
X-2091588Y3752697D01*
X-2094890Y3750462D01*
X-2098802Y3749700D01*
X-2208377Y3749700D01*
X-2212238Y3750462D01*
X-2215540Y3752697D01*
X-2356866Y3894023D01*
X-2358999Y3897071D01*
X-2359863Y3900678D01*
X-2359355Y3904335D01*
X-2355037Y3917696D01*
X-2352294Y3932021D01*
X-2351379Y3946550D01*
X-2352294Y3961079D01*
X-2355037Y3975354D01*
X-2359507Y3989222D01*
X-2365705Y4002379D01*
X-2373528Y4014673D01*
X-2382774Y4025849D01*
X-2393391Y4035856D01*
X-2405176Y4044391D01*
X-2417927Y4051401D01*
X-2431440Y4056735D01*
X-2445562Y4060393D01*
X-2459990Y4062222D01*
X-2474518Y4062222D01*
X-2488996Y4060393D01*
X-2503068Y4056735D01*
X-2516632Y4051401D01*
X-2529382Y4044391D01*
X-2541117Y4035856D01*
X-2551734Y4025849D01*
X-2561031Y4014673D01*
X-2568803Y4002379D01*
X-2575001Y3989222D01*
X-2579522Y3975354D01*
X-2582265Y3961079D01*
X-2583180Y3946550D01*
X-2582265Y3932021D01*
X-2579522Y3917696D01*
X-2575001Y3903878D01*
X-2568803Y3890721D01*
X-2561031Y3878427D01*
X-2551734Y3867200D01*
X-2541117Y3857244D01*
X-2529382Y3848709D01*
X-2516632Y3841699D01*
X-2503068Y3836314D01*
X-2488996Y3832707D01*
X-2474518Y3830878D01*
X-2459990Y3830878D01*
X-2445562Y3832707D01*
X-2431440Y3836314D01*
X-2425801Y3838549D01*
X-2421940Y3839260D01*
X-2418130Y3838498D01*
X-2414879Y3836314D01*
X-2399233Y3820668D01*
X-2396998Y3817365D01*
X-2396236Y3813454D01*
X-2396998Y3809593D01*
X-2399233Y3806291D01*
X-2402484Y3804056D01*
X-2406396Y3803294D01*
X-2515971Y3803294D01*
X-2519832Y3804056D01*
X-2523134Y3806291D01*
X-2610866Y3894023D01*
X-2612999Y3897071D01*
X-2613863Y3900678D01*
X-2613355Y3904335D01*
X-2609037Y3917696D01*
X-2606294Y3932021D01*
X-2605379Y3946550D01*
X-2606294Y3961079D01*
X-2609037Y3975354D01*
X-2613507Y3989222D01*
X-2619705Y4002379D01*
X-2627528Y4014673D01*
X-2636774Y4025849D01*
X-2647391Y4035856D01*
X-2659176Y4044391D01*
X-2671927Y4051401D01*
X-2685440Y4056735D01*
X-2699562Y4060393D01*
X-2713990Y4062222D01*
X-2728518Y4062222D01*
X-2742996Y4060393D01*
X-2757068Y4056735D01*
X-2770632Y4051401D01*
X-2783382Y4044391D01*
X-2795117Y4035856D01*
X-2805734Y4025849D01*
X-2815031Y4014673D01*
X-2822803Y4002379D01*
X-2829001Y3989222D01*
X-2833522Y3975354D01*
X-2836265Y3961079D01*
X-2837180Y3946550D01*
X-2836265Y3932021D01*
X-2833522Y3917696D01*
X-2829001Y3903878D01*
X-2822803Y3890721D01*
X-2815031Y3878427D01*
X-2805734Y3867200D01*
X-2795117Y3857244D01*
X-2783382Y3848709D01*
X-2770632Y3841699D01*
X-2757068Y3836314D01*
X-2742996Y3832707D01*
X-2728518Y3830878D01*
X-2713990Y3830878D01*
X-2699562Y3832707D01*
X-2685440Y3836314D01*
X-2679801Y3838549D01*
X-2675940Y3839260D01*
X-2672130Y3838498D01*
X-2668879Y3836314D01*
X-2566365Y3733850D01*
X-2559812Y3728415D01*
X-2552750Y3724656D01*
X-2545080Y3722319D01*
X-2536596Y3721506D01*
X-2467559Y3721506D01*
X-2463749Y3720744D01*
X-2460498Y3718661D01*
X-2458262Y3715461D01*
X-2457399Y3711701D01*
X-2457958Y3707892D01*
X-2461717Y3697579D01*
X-2463292Y3688130D01*
X-2463292Y3678478D01*
X-2461666Y3668979D01*
X-2458466Y3659886D01*
X-2453792Y3651453D01*
X-2447696Y3643934D01*
X-2440482Y3637584D01*
X-2432253Y3632504D01*
X-2423312Y3628948D01*
X-2413863Y3626916D01*
X-2411780Y3626815D01*
X-2408123Y3625951D01*
X-2405024Y3623818D01*
X-2321610Y3540404D01*
X-2315057Y3535019D01*
X-2307996Y3531260D01*
X-2300325Y3528923D01*
X-2291842Y3528060D01*
X-916533Y3528060D01*
X-912621Y3527298D01*
X-909319Y3525113D01*
X-386689Y3002483D01*
X-384454Y2999181D01*
X-383692Y2995269D01*
X-383692Y2212340D01*
X-384505Y2208479D01*
X-386689Y2205177D01*
X-659993Y1932686D01*
X-663295Y1930501D01*
X-667156Y1929739D01*
X-706018Y1929739D01*
X-709879Y1930501D01*
X-713181Y1932686D01*
X-715365Y1935988D01*
X-716178Y1939899D01*
X-715365Y1943760D01*
X-713181Y1947062D01*
X-693775Y1966468D01*
X-691083Y1968398D01*
X-687882Y1969363D01*
X-680161Y1970379D01*
X-670966Y1973173D01*
X-662330Y1977542D01*
X-654558Y1983282D01*
X-647903Y1990242D01*
X-642518Y1998218D01*
X-638505Y2007006D01*
X-636117Y2016353D01*
X-635254Y2025954D01*
X-636117Y2035556D01*
X-638505Y2044903D01*
X-642518Y2053691D01*
X-647903Y2061667D01*
X-654558Y2068626D01*
X-662330Y2074367D01*
X-670712Y2078634D01*
X-673760Y2080920D01*
X-675690Y2084222D01*
X-676300Y2087981D01*
X-675487Y2091689D01*
X-673354Y2094890D01*
X-528675Y2239518D01*
X-525983Y2241448D01*
X-522782Y2242413D01*
X-515061Y2243429D01*
X-505866Y2246223D01*
X-497230Y2250592D01*
X-489458Y2256332D01*
X-482803Y2263292D01*
X-477418Y2271268D01*
X-473405Y2280056D01*
X-471017Y2289403D01*
X-470154Y2299004D01*
X-471017Y2308606D01*
X-473405Y2317953D01*
X-477418Y2326741D01*
X-482803Y2334717D01*
X-489458Y2341676D01*
X-497230Y2347417D01*
X-505866Y2351786D01*
X-515061Y2354580D01*
X-524611Y2355850D01*
X-534263Y2355392D01*
X-543712Y2353360D01*
X-552653Y2349804D01*
X-560882Y2344724D01*
X-568096Y2338374D01*
X-574192Y2330856D01*
X-578866Y2322423D01*
X-582066Y2313330D01*
X-583844Y2302713D01*
X-584860Y2299766D01*
X-586689Y2297226D01*
X-729437Y2154478D01*
X-732993Y2152192D01*
X-737158Y2151532D01*
X-741273Y2152650D01*
X-744524Y2155291D01*
X-750468Y2167991D01*
X-755853Y2175967D01*
X-762508Y2182926D01*
X-774293Y2191512D01*
X-776224Y2194763D01*
X-776833Y2198573D01*
X-776020Y2202281D01*
X-773887Y2205431D01*
X-597306Y2381961D01*
X-591921Y2388565D01*
X-588162Y2395626D01*
X-585825Y2403297D01*
X-585012Y2411730D01*
X-585012Y2572715D01*
X-584200Y2576576D01*
X-582015Y2579878D01*
X-492150Y2669794D01*
X-486714Y2676347D01*
X-482955Y2683408D01*
X-480618Y2691079D01*
X-479806Y2699562D01*
X-479806Y2782773D01*
X-479043Y2786532D01*
X-471068Y2798318D01*
X-467055Y2807106D01*
X-464667Y2816453D01*
X-463804Y2826054D01*
X-464667Y2835656D01*
X-467055Y2845003D01*
X-471068Y2853791D01*
X-476453Y2861767D01*
X-483108Y2868726D01*
X-490880Y2874467D01*
X-499516Y2878836D01*
X-508711Y2881630D01*
X-518261Y2882900D01*
X-527913Y2882442D01*
X-537362Y2880410D01*
X-546303Y2876854D01*
X-554532Y2871774D01*
X-561746Y2865424D01*
X-567842Y2857906D01*
X-572516Y2849473D01*
X-575716Y2840380D01*
X-577342Y2830880D01*
X-577342Y2821228D01*
X-575716Y2811729D01*
X-572516Y2802636D01*
X-567842Y2794203D01*
X-563880Y2789326D01*
X-562203Y2786329D01*
X-561594Y2782925D01*
X-561594Y2720187D01*
X-562356Y2716326D01*
X-564591Y2713024D01*
X-654456Y2623108D01*
X-659892Y2616555D01*
X-663651Y2609494D01*
X-665988Y2601823D01*
X-666800Y2593340D01*
X-666800Y2432405D01*
X-667562Y2428494D01*
X-669798Y2425192D01*
X-827582Y2267407D01*
X-831342Y2265019D01*
X-835710Y2264511D01*
X-839978Y2265883D01*
X-843178Y2268931D01*
X-844753Y2271217D01*
X-851408Y2278176D01*
X-859180Y2283917D01*
X-867816Y2288286D01*
X-877011Y2291080D01*
X-886561Y2292350D01*
X-896213Y2291892D01*
X-905662Y2289860D01*
X-914603Y2286304D01*
X-922832Y2281224D01*
X-930046Y2274874D01*
X-936142Y2267356D01*
X-940816Y2258923D01*
X-944016Y2249830D01*
X-945794Y2239213D01*
X-946810Y2236266D01*
X-948639Y2233726D01*
X-968248Y2214067D01*
X-973683Y2207514D01*
X-977442Y2200452D01*
X-979779Y2192782D01*
X-980592Y2184298D01*
X-980592Y2163826D01*
X-981405Y2159965D01*
X-983589Y2156663D01*
X-1011986Y2128367D01*
X-1015339Y2126132D01*
X-1019352Y2125370D01*
X-1023264Y2126234D01*
X-1026566Y2128621D01*
X-1028700Y2132025D01*
X-1029309Y2136038D01*
X-1028293Y2139950D01*
X-1026109Y2144572D01*
X-1024788Y2150211D01*
X-1024788Y2156002D01*
X-1026109Y2161641D01*
X-1028598Y2166874D01*
X-1032560Y2171852D01*
X-1040942Y2180234D01*
X-1043178Y2183536D01*
X-1043940Y2187397D01*
X-1043178Y2191308D01*
X-1040942Y2194610D01*
X-988872Y2246731D01*
X-983437Y2253284D01*
X-979678Y2260346D01*
X-977341Y2268016D01*
X-976528Y2276500D01*
X-976528Y2335580D01*
X-975715Y2339492D01*
X-973531Y2342794D01*
X-939190Y2377135D01*
X-935228Y2382113D01*
X-932687Y2387346D01*
X-931418Y2392984D01*
X-931418Y2398776D01*
X-932687Y2404414D01*
X-935228Y2409596D01*
X-939190Y2414574D01*
X-1002030Y2477414D01*
X-1007008Y2481376D01*
X-1012190Y2483916D01*
X-1017828Y2485186D01*
X-1023619Y2485186D01*
X-1029258Y2483916D01*
X-1034491Y2481376D01*
X-1039469Y2477414D01*
X-1095248Y2421636D01*
X-1099210Y2416657D01*
X-1101699Y2411476D01*
X-1102969Y2405837D01*
X-1102969Y2400046D01*
X-1102512Y2397861D01*
X-1102410Y2393797D01*
X-1103934Y2390038D01*
X-1106830Y2387142D01*
X-1110589Y2385618D01*
X-1114653Y2385720D01*
X-1116838Y2386177D01*
X-1122629Y2386177D01*
X-1128268Y2384907D01*
X-1133449Y2382418D01*
X-1138428Y2378456D01*
X-1194206Y2322677D01*
X-1198168Y2317699D01*
X-1200556Y2312822D01*
X-1202842Y2309672D01*
X-1206195Y2307691D01*
X-1210005Y2307082D01*
X-1213815Y2307945D01*
X-1216964Y2310130D01*
X-1219098Y2313381D01*
X-1219860Y2317191D01*
X-1219860Y2356967D01*
X-1219047Y2360828D01*
X-1216863Y2364130D01*
X-1136700Y2444343D01*
X-1131265Y2450896D01*
X-1127506Y2457958D01*
X-1125169Y2465628D01*
X-1124356Y2474112D01*
X-1124356Y2483205D01*
X-1123492Y2487269D01*
X-1121105Y2490622D01*
X-1117549Y2492756D01*
X-1114145Y2493975D01*
X-1109268Y2497023D01*
X-1105154Y2501138D01*
X-1102055Y2506014D01*
X-1100175Y2511501D01*
X-1099464Y2517800D01*
X-1099464Y2606700D01*
X-1100175Y2612999D01*
X-1102055Y2618486D01*
X-1105154Y2623362D01*
X-1109268Y2627477D01*
X-1114145Y2630525D01*
X-1119632Y2632456D01*
X-1125931Y2633167D01*
X-1204772Y2633167D01*
X-1211122Y2632456D01*
X-1216558Y2630525D01*
X-1219962Y2628392D01*
X-1224026Y2626918D01*
X-1228344Y2627274D01*
X-1232103Y2629408D01*
X-1234694Y2632913D01*
X-1235557Y2637129D01*
X-1234287Y2733903D01*
X-1233932Y2777286D01*
X-1234592Y2783382D01*
X-1236472Y2788869D01*
X-1239520Y2793796D01*
X-1241348Y2795930D01*
X-1254150Y2809290D01*
X-1456893Y3024682D01*
X-1461058Y3028289D01*
X-1466189Y3031134D01*
X-1471726Y3032760D01*
X-1477518Y3033115D01*
X-1483766Y3032048D01*
X-1572006Y3006852D01*
X-1578660Y3003854D01*
X-1583182Y3000248D01*
X-1587195Y2995320D01*
X-1620672Y2942640D01*
X-1622958Y2940151D01*
X-1625904Y2938526D01*
X-1629257Y2937967D01*
X-1931924Y2937967D01*
X-1935632Y2938627D01*
X-1938832Y2940608D01*
X-2162098Y3146044D01*
X-2164435Y3149244D01*
X-2165350Y3153156D01*
X-2171192Y3328009D01*
X-2172106Y3334258D01*
X-2174189Y3339642D01*
X-2177999Y3345230D01*
X-2221738Y3395218D01*
X-2225344Y3398621D01*
X-2230323Y3401771D01*
X-2235809Y3403701D01*
X-2242108Y3404412D01*
X-2660091Y3404412D01*
X-2666390Y3403701D01*
X-2671876Y3401771D01*
X-2676753Y3398723D01*
X-2681020Y3394456D01*
X-2683052Y3391509D01*
X-2721914Y3326536D01*
X-2723946Y3320745D01*
X-2724658Y3314446D01*
X-2724658Y3195269D01*
X-2725420Y3191408D01*
X-2727655Y3188106D01*
X-2730957Y3185871D01*
X-2734818Y3185109D01*
X-2738729Y3185871D01*
X-2742031Y3188106D01*
X-2745232Y3191306D01*
X-2750108Y3194354D01*
X-2755595Y3196285D01*
X-2761894Y3196996D01*
X-2850743Y3196996D01*
X-2857093Y3196285D01*
X-2862529Y3194354D01*
X-2867456Y3191306D01*
X-2871520Y3187192D01*
X-2874619Y3182315D01*
X-2876499Y3176828D01*
X-2877210Y3170529D01*
X-2877210Y3140659D01*
X-2878023Y3136798D01*
X-2880207Y3133496D01*
X-2896514Y3117189D01*
X-2899765Y3115005D01*
X-2903677Y3114243D01*
X-2925267Y3114243D01*
X-2928010Y3114598D01*
X-2933192Y3116072D01*
X-2941675Y3116884D01*
X-3050844Y3116884D01*
X-3063138Y3115665D01*
X-3066643Y3116580D01*
X-3069590Y3118612D01*
X-3071622Y3121609D01*
X-3074162Y3127197D01*
X-3079546Y3135223D01*
X-3086252Y3142183D01*
X-3094024Y3147923D01*
X-3102610Y3152241D01*
X-3111855Y3155086D01*
X-3121406Y3156305D01*
X-3131058Y3155899D01*
X-3140456Y3153867D01*
X-3149447Y3150260D01*
X-3157626Y3145231D01*
X-3164890Y3138830D01*
X-3170936Y3131312D01*
X-3175660Y3122930D01*
X-3178860Y3113836D01*
X-3180486Y3104286D01*
X-3180486Y3094685D01*
X-3178860Y3085134D01*
X-3175660Y3076041D01*
X-3170936Y3067659D01*
X-3164890Y3060141D01*
X-3157626Y3053740D01*
X-3149447Y3048711D01*
X-3140456Y3045104D01*
X-3131058Y3043072D01*
X-3128975Y3042970D01*
X-3125317Y3042158D01*
X-3122218Y3040024D01*
X-3097580Y3015437D01*
X-3095396Y3012135D01*
X-3094634Y3008223D01*
X-3094634Y3004312D01*
X-3093161Y2996387D01*
X-3090265Y2988919D01*
X-3085998Y2982061D01*
X-3080613Y2976168D01*
X-3074212Y2971292D01*
X-3066999Y2967736D01*
X-3059277Y2965551D01*
X-3050844Y2964738D01*
X-2961843Y2964738D01*
X-2957677Y2963875D01*
X-2954274Y2961335D01*
X-2952191Y2957626D01*
X-2951784Y2953410D01*
X-2954883Y2944774D01*
X-2956915Y2941370D01*
X-2960065Y2938983D01*
X-2963926Y2937967D01*
X-2967837Y2938526D01*
X-2972409Y2940151D01*
X-2978708Y2940862D01*
X-3151835Y2940862D01*
X-3155746Y2941624D01*
X-3159048Y2943809D01*
X-3161233Y2947111D01*
X-3161995Y2951022D01*
X-3161995Y2993948D01*
X-3162858Y3002381D01*
X-3165195Y3010052D01*
X-3168954Y3017113D01*
X-3174339Y3023717D01*
X-3317544Y3166872D01*
X-3324098Y3172307D01*
X-3331159Y3176066D01*
X-3338829Y3178403D01*
X-3347313Y3179216D01*
X-3474770Y3179216D01*
X-3479088Y3180181D01*
X-3482594Y3182874D01*
X-3484626Y3186836D01*
X-3484778Y3191256D01*
X-3483254Y3199282D01*
X-3483254Y3207308D01*
X-3484727Y3215233D01*
X-3487623Y3222701D01*
X-3491890Y3229559D01*
X-3497275Y3235452D01*
X-3503676Y3240328D01*
X-3510889Y3243884D01*
X-3518611Y3246069D01*
X-3527044Y3246882D01*
X-3636213Y3246882D01*
X-3644696Y3246069D01*
X-3652418Y3243884D01*
X-3659581Y3240328D01*
X-3666032Y3235452D01*
X-3671417Y3229559D01*
X-3675634Y3222701D01*
X-3678529Y3215233D01*
X-3680002Y3207308D01*
X-3680002Y3199282D01*
X-3678529Y3191408D01*
X-3675634Y3183940D01*
X-3670808Y3176168D01*
X-3669436Y3172663D01*
X-3669436Y3168954D01*
X-3670808Y3165449D01*
X-3675634Y3157677D01*
X-3678529Y3150209D01*
X-3680002Y3142335D01*
X-3680002Y3134309D01*
X-3678529Y3126384D01*
X-3675634Y3118916D01*
X-3670808Y3111195D01*
X-3669436Y3107690D01*
X-3669436Y3103930D01*
X-3670808Y3100425D01*
X-3675634Y3092704D01*
X-3678529Y3085236D01*
X-3680002Y3077311D01*
X-3680002Y3069285D01*
X-3678529Y3061411D01*
X-3675634Y3053892D01*
X-3671417Y3047085D01*
X-3666032Y3041142D01*
X-3659581Y3036316D01*
X-3652418Y3032709D01*
X-3644696Y3030524D01*
X-3636213Y3029762D01*
X-3527044Y3029762D01*
X-3518611Y3030524D01*
X-3513429Y3031998D01*
X-3510686Y3032404D01*
X-3487115Y3032404D01*
X-3483254Y3031591D01*
X-3479952Y3029407D01*
X-3472535Y3021990D01*
X-3470300Y3018688D01*
X-3469538Y3014827D01*
X-3469538Y2961081D01*
X-3470300Y2957220D01*
X-3472484Y2953918D01*
X-3475786Y2951734D01*
X-3479647Y2950921D01*
X-4327601Y2945231D01*
X-4334256Y2944266D01*
X-4338675Y2944469D01*
X-4342536Y2946501D01*
X-4345228Y2950006D01*
X-4346143Y2954274D01*
X-4343400Y4002582D01*
X-4342536Y4006748D01*
X-4339996Y4010151D01*
X-4181195Y4150614D01*
X-4178046Y4152544D01*
X-4174439Y4153204D01*
X830580Y4137050D01*
X834440Y4136288D01*
X837692Y4134104D01*
X946048Y4025747D01*
X948283Y4022445D01*
X949045Y4018534D01*
X949045Y2855366D01*
X949756Y2853639D01*
X1238148Y2565247D01*
X1240383Y2561945D01*
X1241145Y2558034D01*
X1241145Y-583133D01*
X1240383Y-587044D01*
X1238148Y-590346D01*
X949756Y-878738D01*
X949045Y-880465D01*
X949045Y-926033D01*
X948283Y-929944D01*
X946048Y-933246D01*
X825042Y-1054252D01*
X821740Y-1056487D01*
X817829Y-1057249D01*
G37*

%LPC*%
G36*
X-651713Y-969975D02*
G01*
X-472846Y-969975D01*
X-466496Y-969264D01*
X-461060Y-967333D01*
X-456133Y-964285D01*
X-452069Y-960170D01*
X-448970Y-955294D01*
X-447090Y-949807D01*
X-446379Y-943508D01*
X-446379Y-764641D01*
X-447090Y-758291D01*
X-448970Y-752856D01*
X-452069Y-747928D01*
X-456133Y-743864D01*
X-461060Y-740765D01*
X-466496Y-738886D01*
X-472846Y-738174D01*
X-651713Y-738174D01*
X-658012Y-738886D01*
X-663498Y-740765D01*
X-668375Y-743864D01*
X-672490Y-747928D01*
X-675538Y-752856D01*
X-677468Y-758291D01*
X-678180Y-764641D01*
X-678180Y-943508D01*
X-677468Y-949807D01*
X-675538Y-955294D01*
X-672490Y-960170D01*
X-668375Y-964285D01*
X-663498Y-967333D01*
X-658012Y-969264D01*
G37*
G36*
X-2937713Y-969975D02*
G01*
X-2758846Y-969975D01*
X-2752496Y-969264D01*
X-2747060Y-967333D01*
X-2742133Y-964285D01*
X-2738069Y-960170D01*
X-2734970Y-955294D01*
X-2733090Y-949807D01*
X-2732379Y-943508D01*
X-2732379Y-764641D01*
X-2733090Y-758291D01*
X-2734970Y-752856D01*
X-2738069Y-747928D01*
X-2742133Y-743864D01*
X-2747060Y-740765D01*
X-2752496Y-738886D01*
X-2758846Y-738174D01*
X-2937713Y-738174D01*
X-2944012Y-738886D01*
X-2949498Y-740765D01*
X-2954375Y-743864D01*
X-2958490Y-747928D01*
X-2961538Y-752856D01*
X-2963468Y-758291D01*
X-2964180Y-764641D01*
X-2964180Y-943508D01*
X-2963468Y-949807D01*
X-2961538Y-955294D01*
X-2958490Y-960170D01*
X-2954375Y-964285D01*
X-2949498Y-967333D01*
X-2944012Y-969264D01*
G37*
G36*
X700481Y-969721D02*
G01*
X715010Y-969721D01*
X729437Y-967892D01*
X743559Y-964285D01*
X757072Y-958900D01*
X769823Y-951890D01*
X781608Y-943356D01*
X792226Y-933399D01*
X801471Y-922172D01*
X809294Y-909878D01*
X815492Y-896721D01*
X819962Y-882903D01*
X822706Y-868578D01*
X823620Y-854049D01*
X822706Y-839520D01*
X819962Y-825246D01*
X815492Y-811377D01*
X809294Y-798220D01*
X801471Y-785926D01*
X792226Y-774750D01*
X781608Y-764743D01*
X769823Y-756208D01*
X757072Y-749198D01*
X743559Y-743864D01*
X729437Y-740206D01*
X715010Y-738378D01*
X700481Y-738378D01*
X686003Y-740206D01*
X671931Y-743864D01*
X658368Y-749198D01*
X645617Y-756208D01*
X633882Y-764743D01*
X623265Y-774750D01*
X613968Y-785926D01*
X606196Y-798220D01*
X599998Y-811377D01*
X595477Y-825246D01*
X592734Y-839520D01*
X591820Y-854049D01*
X592734Y-868578D01*
X595477Y-882903D01*
X599998Y-896721D01*
X606196Y-909878D01*
X613968Y-922172D01*
X623265Y-933399D01*
X633882Y-943356D01*
X645617Y-951890D01*
X658368Y-958900D01*
X671931Y-964285D01*
X686003Y-967892D01*
G37*
G36*
X-315518Y-969721D02*
G01*
X-300990Y-969721D01*
X-286562Y-967892D01*
X-272440Y-964285D01*
X-258927Y-958900D01*
X-246176Y-951890D01*
X-234391Y-943356D01*
X-223774Y-933399D01*
X-214528Y-922172D01*
X-206705Y-909878D01*
X-200507Y-896721D01*
X-196037Y-882903D01*
X-193294Y-868578D01*
X-192379Y-854049D01*
X-193294Y-839520D01*
X-196037Y-825246D01*
X-200507Y-811377D01*
X-206705Y-798220D01*
X-214528Y-785926D01*
X-223774Y-774750D01*
X-234391Y-764743D01*
X-246176Y-756208D01*
X-258927Y-749198D01*
X-272440Y-743864D01*
X-286562Y-740206D01*
X-300990Y-738378D01*
X-315518Y-738378D01*
X-329996Y-740206D01*
X-344068Y-743864D01*
X-357632Y-749198D01*
X-370382Y-756208D01*
X-382117Y-764743D01*
X-392734Y-774750D01*
X-402031Y-785926D01*
X-409803Y-798220D01*
X-416001Y-811377D01*
X-420522Y-825246D01*
X-423265Y-839520D01*
X-424180Y-854049D01*
X-423265Y-868578D01*
X-420522Y-882903D01*
X-416001Y-896721D01*
X-409803Y-909878D01*
X-402031Y-922172D01*
X-392734Y-933399D01*
X-382117Y-943356D01*
X-370382Y-951890D01*
X-357632Y-958900D01*
X-344068Y-964285D01*
X-329996Y-967892D01*
G37*
G36*
X-2093518Y-969721D02*
G01*
X-2078989Y-969721D01*
X-2064562Y-967892D01*
X-2050440Y-964285D01*
X-2036927Y-958900D01*
X-2024176Y-951890D01*
X-2012391Y-943356D01*
X-2001774Y-933399D01*
X-1992528Y-922172D01*
X-1984705Y-909878D01*
X-1978507Y-896721D01*
X-1974037Y-882903D01*
X-1971293Y-868578D01*
X-1970379Y-854049D01*
X-1971293Y-839520D01*
X-1974037Y-825246D01*
X-1978507Y-811377D01*
X-1984705Y-798220D01*
X-1992528Y-785926D01*
X-2001774Y-774750D01*
X-2012391Y-764743D01*
X-2024176Y-756208D01*
X-2036927Y-749198D01*
X-2050440Y-743864D01*
X-2064562Y-740206D01*
X-2078989Y-738378D01*
X-2093518Y-738378D01*
X-2107996Y-740206D01*
X-2122068Y-743864D01*
X-2135632Y-749198D01*
X-2148382Y-756208D01*
X-2160117Y-764743D01*
X-2170734Y-774750D01*
X-2180031Y-785926D01*
X-2187803Y-798220D01*
X-2194001Y-811377D01*
X-2198522Y-825246D01*
X-2201265Y-839520D01*
X-2202180Y-854049D01*
X-2201265Y-868578D01*
X-2198522Y-882903D01*
X-2194001Y-896721D01*
X-2187803Y-909878D01*
X-2180031Y-922172D01*
X-2170734Y-933399D01*
X-2160117Y-943356D01*
X-2148382Y-951890D01*
X-2135632Y-958900D01*
X-2122068Y-964285D01*
X-2107996Y-967892D01*
G37*
G36*
X-2601518Y-969721D02*
G01*
X-2586990Y-969721D01*
X-2572562Y-967892D01*
X-2558440Y-964285D01*
X-2544927Y-958900D01*
X-2532176Y-951890D01*
X-2520391Y-943356D01*
X-2509774Y-933399D01*
X-2500528Y-922172D01*
X-2492705Y-909878D01*
X-2486507Y-896721D01*
X-2482037Y-882903D01*
X-2479294Y-868578D01*
X-2478379Y-854049D01*
X-2479294Y-839520D01*
X-2482037Y-825246D01*
X-2486507Y-811377D01*
X-2492705Y-798220D01*
X-2500528Y-785926D01*
X-2509774Y-774750D01*
X-2520391Y-764743D01*
X-2532176Y-756208D01*
X-2544927Y-749198D01*
X-2558440Y-743864D01*
X-2572562Y-740206D01*
X-2586990Y-738378D01*
X-2601518Y-738378D01*
X-2615996Y-740206D01*
X-2630068Y-743864D01*
X-2643632Y-749198D01*
X-2656382Y-756208D01*
X-2668117Y-764743D01*
X-2678734Y-774750D01*
X-2688031Y-785926D01*
X-2695803Y-798220D01*
X-2702001Y-811377D01*
X-2706522Y-825246D01*
X-2709265Y-839520D01*
X-2710180Y-854049D01*
X-2709265Y-868578D01*
X-2706522Y-882903D01*
X-2702001Y-896721D01*
X-2695803Y-909878D01*
X-2688031Y-922172D01*
X-2678734Y-933399D01*
X-2668117Y-943356D01*
X-2656382Y-951890D01*
X-2643632Y-958900D01*
X-2630068Y-964285D01*
X-2615996Y-967892D01*
G37*
G36*
X-1839518Y-969721D02*
G01*
X-1824989Y-969721D01*
X-1810562Y-967892D01*
X-1796440Y-964285D01*
X-1782927Y-958900D01*
X-1770176Y-951890D01*
X-1758391Y-943356D01*
X-1747774Y-933399D01*
X-1738528Y-922172D01*
X-1730705Y-909878D01*
X-1724507Y-896721D01*
X-1720037Y-882903D01*
X-1717293Y-868578D01*
X-1716379Y-854049D01*
X-1717293Y-839520D01*
X-1720037Y-825246D01*
X-1724507Y-811377D01*
X-1730705Y-798220D01*
X-1738528Y-785926D01*
X-1747774Y-774750D01*
X-1758391Y-764743D01*
X-1770176Y-756208D01*
X-1782927Y-749198D01*
X-1796440Y-743864D01*
X-1810562Y-740206D01*
X-1824989Y-738378D01*
X-1839518Y-738378D01*
X-1853996Y-740206D01*
X-1868068Y-743864D01*
X-1881632Y-749198D01*
X-1894382Y-756208D01*
X-1906117Y-764743D01*
X-1916734Y-774750D01*
X-1926031Y-785926D01*
X-1933803Y-798220D01*
X-1940001Y-811377D01*
X-1944522Y-825246D01*
X-1947265Y-839520D01*
X-1948180Y-854049D01*
X-1947265Y-868578D01*
X-1944522Y-882903D01*
X-1940001Y-896721D01*
X-1933803Y-909878D01*
X-1926031Y-922172D01*
X-1916734Y-933399D01*
X-1906117Y-943356D01*
X-1894382Y-951890D01*
X-1881632Y-958900D01*
X-1868068Y-964285D01*
X-1853996Y-967892D01*
G37*
G36*
X446481Y-969721D02*
G01*
X461009Y-969721D01*
X475437Y-967892D01*
X489559Y-964285D01*
X503072Y-958900D01*
X515823Y-951890D01*
X527608Y-943356D01*
X538226Y-933399D01*
X547471Y-922172D01*
X555294Y-909878D01*
X561492Y-896721D01*
X565962Y-882903D01*
X568706Y-868578D01*
X569620Y-854049D01*
X568706Y-839520D01*
X565962Y-825246D01*
X561492Y-811377D01*
X555294Y-798220D01*
X547471Y-785926D01*
X538226Y-774750D01*
X527608Y-764743D01*
X515823Y-756208D01*
X503072Y-749198D01*
X489559Y-743864D01*
X475437Y-740206D01*
X461009Y-738378D01*
X446481Y-738378D01*
X432003Y-740206D01*
X417931Y-743864D01*
X404368Y-749198D01*
X391617Y-756208D01*
X379882Y-764743D01*
X369265Y-774750D01*
X359968Y-785926D01*
X352196Y-798220D01*
X345998Y-811377D01*
X341477Y-825246D01*
X338734Y-839520D01*
X337820Y-854049D01*
X338734Y-868578D01*
X341477Y-882903D01*
X345998Y-896721D01*
X352196Y-909878D01*
X359968Y-922172D01*
X369265Y-933399D01*
X379882Y-943356D01*
X391617Y-951890D01*
X404368Y-958900D01*
X417931Y-964285D01*
X432003Y-967892D01*
G37*
G36*
X-61518Y-969721D02*
G01*
X-46990Y-969721D01*
X-32562Y-967892D01*
X-18440Y-964285D01*
X-4927Y-958900D01*
X7823Y-951890D01*
X19608Y-943356D01*
X30226Y-933399D01*
X39471Y-922172D01*
X47294Y-909878D01*
X53492Y-896721D01*
X57962Y-882903D01*
X60706Y-868578D01*
X61620Y-854049D01*
X60706Y-839520D01*
X57962Y-825246D01*
X53492Y-811377D01*
X47294Y-798220D01*
X39471Y-785926D01*
X30226Y-774750D01*
X19608Y-764743D01*
X7823Y-756208D01*
X-4927Y-749198D01*
X-18440Y-743864D01*
X-32562Y-740206D01*
X-46990Y-738378D01*
X-61518Y-738378D01*
X-75996Y-740206D01*
X-90068Y-743864D01*
X-103632Y-749198D01*
X-116382Y-756208D01*
X-128117Y-764743D01*
X-138734Y-774750D01*
X-148031Y-785926D01*
X-155803Y-798220D01*
X-162001Y-811377D01*
X-166522Y-825246D01*
X-169265Y-839520D01*
X-170180Y-854049D01*
X-169265Y-868578D01*
X-166522Y-882903D01*
X-162001Y-896721D01*
X-155803Y-909878D01*
X-148031Y-922172D01*
X-138734Y-933399D01*
X-128117Y-943356D01*
X-116382Y-951890D01*
X-103632Y-958900D01*
X-90068Y-964285D01*
X-75996Y-967892D01*
G37*
G36*
X-2347518Y-969721D02*
G01*
X-2332990Y-969721D01*
X-2318562Y-967892D01*
X-2304440Y-964285D01*
X-2290927Y-958900D01*
X-2278176Y-951890D01*
X-2266391Y-943356D01*
X-2255774Y-933399D01*
X-2246528Y-922172D01*
X-2238705Y-909878D01*
X-2232507Y-896721D01*
X-2228037Y-882903D01*
X-2225294Y-868578D01*
X-2224379Y-854049D01*
X-2225294Y-839520D01*
X-2228037Y-825246D01*
X-2232507Y-811377D01*
X-2238705Y-798220D01*
X-2246528Y-785926D01*
X-2255774Y-774750D01*
X-2266391Y-764743D01*
X-2278176Y-756208D01*
X-2290927Y-749198D01*
X-2304440Y-743864D01*
X-2318562Y-740206D01*
X-2332990Y-738378D01*
X-2347518Y-738378D01*
X-2361996Y-740206D01*
X-2376068Y-743864D01*
X-2389632Y-749198D01*
X-2402382Y-756208D01*
X-2414117Y-764743D01*
X-2424734Y-774750D01*
X-2434031Y-785926D01*
X-2441803Y-798220D01*
X-2448001Y-811377D01*
X-2452522Y-825246D01*
X-2455265Y-839520D01*
X-2456180Y-854049D01*
X-2455265Y-868578D01*
X-2452522Y-882903D01*
X-2448001Y-896721D01*
X-2441803Y-909878D01*
X-2434031Y-922172D01*
X-2424734Y-933399D01*
X-2414117Y-943356D01*
X-2402382Y-951890D01*
X-2389632Y-958900D01*
X-2376068Y-964285D01*
X-2361996Y-967892D01*
G37*
G36*
X192481Y-969721D02*
G01*
X207010Y-969721D01*
X221437Y-967892D01*
X235559Y-964285D01*
X249072Y-958900D01*
X261823Y-951890D01*
X273608Y-943356D01*
X284226Y-933399D01*
X293471Y-922172D01*
X301294Y-909878D01*
X307492Y-896721D01*
X311962Y-882903D01*
X314706Y-868578D01*
X315620Y-854049D01*
X314706Y-839520D01*
X311962Y-825246D01*
X307492Y-811377D01*
X301294Y-798220D01*
X293471Y-785926D01*
X284226Y-774750D01*
X273608Y-764743D01*
X261823Y-756208D01*
X249072Y-749198D01*
X235559Y-743864D01*
X221437Y-740206D01*
X207010Y-738378D01*
X192481Y-738378D01*
X178003Y-740206D01*
X163931Y-743864D01*
X150368Y-749198D01*
X137617Y-756208D01*
X125882Y-764743D01*
X115265Y-774750D01*
X105968Y-785926D01*
X98196Y-798220D01*
X91998Y-811377D01*
X87477Y-825246D01*
X84734Y-839520D01*
X83820Y-854049D01*
X84734Y-868578D01*
X87477Y-882903D01*
X91998Y-896721D01*
X98196Y-909878D01*
X105968Y-922172D01*
X115265Y-933399D01*
X125882Y-943356D01*
X137617Y-951890D01*
X150368Y-958900D01*
X163931Y-964285D01*
X178003Y-967892D01*
G37*
G36*
X-1077518Y-969721D02*
G01*
X-1062990Y-969721D01*
X-1048562Y-967892D01*
X-1034440Y-964285D01*
X-1020927Y-958900D01*
X-1008176Y-951890D01*
X-996391Y-943356D01*
X-985774Y-933399D01*
X-976528Y-922172D01*
X-968705Y-909878D01*
X-962507Y-896721D01*
X-958037Y-882903D01*
X-955294Y-868578D01*
X-954379Y-854049D01*
X-955294Y-839520D01*
X-958037Y-825246D01*
X-962507Y-811377D01*
X-968705Y-798220D01*
X-976528Y-785926D01*
X-985774Y-774750D01*
X-992632Y-768299D01*
X-995019Y-764946D01*
X-995832Y-760882D01*
X-995832Y-671220D01*
X-995070Y-667359D01*
X-992886Y-664057D01*
X-989584Y-661822D01*
X-985672Y-661060D01*
X-907287Y-661060D01*
X-900988Y-660349D01*
X-895502Y-658469D01*
X-890625Y-655370D01*
X-886510Y-651256D01*
X-883462Y-646379D01*
X-881532Y-640892D01*
X-880821Y-634593D01*
X-880821Y-562610D01*
X-880110Y-558800D01*
X-878027Y-555599D01*
X-874877Y-553364D01*
X-871118Y-552450D01*
X-867308Y-553008D01*
X-863955Y-554990D01*
X-858621Y-559663D01*
X-850442Y-564743D01*
X-841451Y-568299D01*
X-832053Y-570331D01*
X-822401Y-570788D01*
X-812850Y-569518D01*
X-803605Y-566724D01*
X-795020Y-562356D01*
X-787247Y-556615D01*
X-780542Y-549656D01*
X-775157Y-541680D01*
X-771194Y-532892D01*
X-768756Y-523544D01*
X-767943Y-513943D01*
X-768756Y-504342D01*
X-771194Y-494995D01*
X-775157Y-486206D01*
X-780542Y-478231D01*
X-787247Y-471271D01*
X-795020Y-465531D01*
X-803605Y-461162D01*
X-812850Y-458368D01*
X-822401Y-457098D01*
X-832053Y-457555D01*
X-841451Y-459587D01*
X-850442Y-463143D01*
X-858621Y-468223D01*
X-865886Y-474573D01*
X-871931Y-482092D01*
X-873099Y-484174D01*
X-875487Y-487070D01*
X-878738Y-488899D01*
X-882446Y-489407D01*
X-886104Y-488543D01*
X-889152Y-486409D01*
X-890625Y-484936D01*
X-895502Y-481888D01*
X-900988Y-479958D01*
X-907287Y-479247D01*
X-1008938Y-479247D01*
X-1013206Y-478332D01*
X-1016660Y-475691D01*
X-1018743Y-471830D01*
X-1018946Y-467461D01*
X-1017371Y-463397D01*
X-1011682Y-454964D01*
X-1007668Y-446176D01*
X-1005281Y-436880D01*
X-1004417Y-427278D01*
X-1005281Y-417626D01*
X-1007668Y-408330D01*
X-1011682Y-399542D01*
X-1014831Y-394817D01*
X-1016355Y-391160D01*
X-1016355Y-387146D01*
X-1014831Y-383489D01*
X-1011682Y-378764D01*
X-1007668Y-369976D01*
X-1005281Y-360680D01*
X-1004417Y-351078D01*
X-1005281Y-341426D01*
X-1007668Y-332130D01*
X-1011682Y-323342D01*
X-1017066Y-315315D01*
X-1023721Y-308356D01*
X-1031494Y-302615D01*
X-1040130Y-298297D01*
X-1049324Y-295452D01*
X-1058875Y-294233D01*
X-1068527Y-294640D01*
X-1077976Y-296672D01*
X-1086916Y-300278D01*
X-1095146Y-305308D01*
X-1102360Y-311708D01*
X-1108456Y-319227D01*
X-1113129Y-327609D01*
X-1116330Y-336702D01*
X-1117955Y-346252D01*
X-1117955Y-355854D01*
X-1116330Y-365404D01*
X-1113129Y-374497D01*
X-1107998Y-383641D01*
X-1107033Y-386029D01*
X-1106728Y-389686D01*
X-1107033Y-392277D01*
X-1107998Y-394665D01*
X-1113129Y-403809D01*
X-1116330Y-412902D01*
X-1117955Y-422452D01*
X-1117955Y-432054D01*
X-1116330Y-441604D01*
X-1113129Y-450697D01*
X-1108456Y-459079D01*
X-1105509Y-462686D01*
X-1103731Y-466039D01*
X-1103274Y-469798D01*
X-1104239Y-473456D01*
X-1106474Y-476504D01*
X-1109675Y-478535D01*
X-1113434Y-479247D01*
X-1186180Y-479247D01*
X-1192479Y-479958D01*
X-1197965Y-481888D01*
X-1202842Y-484936D01*
X-1206957Y-489051D01*
X-1208938Y-492201D01*
X-1211376Y-494893D01*
X-1214628Y-496519D01*
X-1218234Y-496925D01*
X-1221740Y-496062D01*
X-1224686Y-493979D01*
X-1328928Y-389737D01*
X-1332382Y-386588D01*
X-1335887Y-383895D01*
X-1339646Y-381508D01*
X-1343609Y-379476D01*
X-1347673Y-377748D01*
X-1351940Y-376428D01*
X-1356258Y-375462D01*
X-1360678Y-374904D01*
X-1365300Y-374700D01*
X-1380032Y-374700D01*
X-1383385Y-374091D01*
X-1386382Y-372465D01*
X-1388922Y-369468D01*
X-1393037Y-365353D01*
X-1397914Y-362305D01*
X-1403400Y-360375D01*
X-1409700Y-359664D01*
X-1498600Y-359664D01*
X-1504899Y-360375D01*
X-1510385Y-362305D01*
X-1515262Y-365353D01*
X-1519377Y-369468D01*
X-1522425Y-374345D01*
X-1524355Y-379831D01*
X-1525066Y-386130D01*
X-1525066Y-465023D01*
X-1524355Y-471322D01*
X-1522425Y-476808D01*
X-1519377Y-481685D01*
X-1515262Y-485800D01*
X-1510385Y-488848D01*
X-1504899Y-490778D01*
X-1498600Y-491490D01*
X-1409700Y-491490D01*
X-1403400Y-490778D01*
X-1397914Y-488848D01*
X-1393037Y-485800D01*
X-1388872Y-482701D01*
X-1384960Y-481939D01*
X-1381099Y-482701D01*
X-1377797Y-484885D01*
X-1256690Y-605993D01*
X-1253236Y-609142D01*
X-1249730Y-611835D01*
X-1245971Y-614222D01*
X-1242009Y-616305D01*
X-1237945Y-617982D01*
X-1233678Y-619302D01*
X-1229360Y-620268D01*
X-1222705Y-620877D01*
X-1218844Y-621690D01*
X-1215593Y-623874D01*
X-1213408Y-627176D01*
X-1212646Y-631037D01*
X-1212646Y-634593D01*
X-1211935Y-640892D01*
X-1210005Y-646379D01*
X-1206957Y-651256D01*
X-1202842Y-655370D01*
X-1197965Y-658469D01*
X-1192479Y-660349D01*
X-1186180Y-661060D01*
X-1107795Y-661060D01*
X-1103934Y-661822D01*
X-1100632Y-664057D01*
X-1098448Y-667359D01*
X-1097635Y-671220D01*
X-1097635Y-733806D01*
X-1098600Y-738124D01*
X-1101344Y-741629D01*
X-1106068Y-743864D01*
X-1119632Y-749198D01*
X-1132382Y-756208D01*
X-1144117Y-764743D01*
X-1154734Y-774750D01*
X-1164031Y-785926D01*
X-1171803Y-798220D01*
X-1178001Y-811377D01*
X-1182522Y-825246D01*
X-1185265Y-839520D01*
X-1186180Y-854049D01*
X-1185265Y-868578D01*
X-1182522Y-882903D01*
X-1178001Y-896721D01*
X-1171803Y-909878D01*
X-1164031Y-922172D01*
X-1154734Y-933399D01*
X-1144117Y-943356D01*
X-1132382Y-951890D01*
X-1119632Y-958900D01*
X-1106068Y-964285D01*
X-1091996Y-967892D01*
G37*
G36*
X999947Y-593699D02*
G01*
X1018743Y-593699D01*
X1037488Y-591820D01*
X1055928Y-588010D01*
X1073912Y-582371D01*
X1091234Y-574954D01*
X1107694Y-565810D01*
X1123137Y-555040D01*
X1137412Y-542798D01*
X1150416Y-529132D01*
X1161897Y-514248D01*
X1171905Y-498246D01*
X1180185Y-481380D01*
X1186738Y-463702D01*
X1191412Y-445465D01*
X1194308Y-426872D01*
X1195222Y-408076D01*
X1194308Y-389229D01*
X1191412Y-370636D01*
X1186738Y-352399D01*
X1180185Y-334721D01*
X1171905Y-317855D01*
X1161897Y-301853D01*
X1150416Y-286969D01*
X1137412Y-273304D01*
X1123137Y-261061D01*
X1107694Y-250291D01*
X1091234Y-241147D01*
X1073912Y-233730D01*
X1055928Y-228092D01*
X1037488Y-224282D01*
X1018743Y-222402D01*
X999947Y-222402D01*
X981202Y-224282D01*
X962761Y-228092D01*
X944778Y-233730D01*
X927455Y-241147D01*
X910996Y-250291D01*
X895553Y-261061D01*
X881278Y-273304D01*
X868273Y-286969D01*
X856792Y-301853D01*
X846785Y-317855D01*
X838504Y-334721D01*
X831951Y-352399D01*
X827278Y-370636D01*
X824382Y-389229D01*
X823468Y-408076D01*
X824382Y-426872D01*
X827278Y-445465D01*
X831951Y-463702D01*
X838504Y-481380D01*
X846785Y-498246D01*
X856792Y-514248D01*
X868273Y-529132D01*
X881278Y-542798D01*
X895553Y-555040D01*
X910996Y-565810D01*
X927455Y-574954D01*
X944778Y-582371D01*
X962761Y-588010D01*
X981202Y-591820D01*
G37*
G36*
X-3026156Y-252984D02*
G01*
X-3016605Y-251764D01*
X-3007360Y-248920D01*
X-2998774Y-244602D01*
X-2991002Y-238861D01*
X-2984296Y-231902D01*
X-2978912Y-223875D01*
X-2974949Y-215087D01*
X-2972511Y-205790D01*
X-2971698Y-196189D01*
X-2972511Y-186537D01*
X-2974949Y-177241D01*
X-2978912Y-168452D01*
X-2984296Y-160426D01*
X-2991002Y-153466D01*
X-2998114Y-148234D01*
X-3001010Y-144881D01*
X-3002178Y-140563D01*
X-3001467Y-136194D01*
X-2998876Y-132537D01*
X-2995015Y-130352D01*
X-2988310Y-128270D01*
X-2979724Y-123952D01*
X-2971952Y-118211D01*
X-2965246Y-111252D01*
X-2959862Y-103225D01*
X-2955899Y-94437D01*
X-2953461Y-85140D01*
X-2952648Y-75539D01*
X-2953461Y-65887D01*
X-2955899Y-56591D01*
X-2959862Y-47802D01*
X-2965246Y-39776D01*
X-2971952Y-32816D01*
X-2979724Y-27076D01*
X-2988310Y-22758D01*
X-3001213Y-18897D01*
X-3003905Y-16967D01*
X-3052470Y31597D01*
X-3054654Y34848D01*
X-3055416Y38760D01*
X-3054654Y42672D01*
X-3052470Y45923D01*
X-3044444Y53949D01*
X-3039059Y60553D01*
X-3035249Y67614D01*
X-3032963Y75234D01*
X-3032048Y84836D01*
X-3031185Y88188D01*
X-3029204Y91033D01*
X-3026410Y93014D01*
X-3022295Y94081D01*
X-3016808Y96012D01*
X-3011932Y99110D01*
X-3007817Y103174D01*
X-3004718Y108102D01*
X-3002838Y113537D01*
X-3002127Y119837D01*
X-3002127Y198729D01*
X-3002838Y205028D01*
X-3004718Y210515D01*
X-3007817Y215392D01*
X-3011932Y219506D01*
X-3016808Y222554D01*
X-3022295Y224485D01*
X-3028594Y225196D01*
X-3117443Y225196D01*
X-3123793Y224485D01*
X-3129229Y222554D01*
X-3134156Y219506D01*
X-3138220Y215392D01*
X-3141319Y210515D01*
X-3143199Y205028D01*
X-3143910Y198729D01*
X-3143910Y119837D01*
X-3143199Y113537D01*
X-3141319Y108102D01*
X-3138220Y103174D01*
X-3129991Y95148D01*
X-3128568Y91135D01*
X-3128924Y86868D01*
X-3131007Y83108D01*
X-3134461Y80568D01*
X-3138627Y79654D01*
X-3326536Y79654D01*
X-3335020Y78841D01*
X-3342690Y76504D01*
X-3349751Y72745D01*
X-3356305Y67310D01*
X-3388106Y35509D01*
X-3393541Y28956D01*
X-3396183Y23977D01*
X-3398469Y21082D01*
X-3401618Y19253D01*
X-3405225Y18592D01*
X-3408832Y19304D01*
X-3412642Y20777D01*
X-3420516Y22250D01*
X-3428542Y22250D01*
X-3436467Y20777D01*
X-3443935Y17881D01*
X-3450793Y13614D01*
X-3456686Y8229D01*
X-3461562Y1828D01*
X-3465118Y-5384D01*
X-3467303Y-13106D01*
X-3468115Y-21539D01*
X-3468115Y-130708D01*
X-3467303Y-139192D01*
X-3465118Y-146913D01*
X-3461562Y-154076D01*
X-3456686Y-160528D01*
X-3450793Y-165912D01*
X-3443935Y-170129D01*
X-3436467Y-173024D01*
X-3428542Y-174498D01*
X-3420516Y-174498D01*
X-3412642Y-173024D01*
X-3405174Y-170129D01*
X-3397402Y-165303D01*
X-3393897Y-163931D01*
X-3390188Y-163931D01*
X-3386683Y-165303D01*
X-3378911Y-170129D01*
X-3371443Y-173024D01*
X-3363569Y-174498D01*
X-3355543Y-174498D01*
X-3347618Y-173024D01*
X-3340150Y-170129D01*
X-3333343Y-165912D01*
X-3327400Y-160528D01*
X-3322523Y-154076D01*
X-3318967Y-146913D01*
X-3316782Y-139192D01*
X-3315970Y-130708D01*
X-3315970Y-21539D01*
X-3316681Y-13919D01*
X-3316122Y-9550D01*
X-3313074Y-5130D01*
X-3309772Y-2946D01*
X-3305911Y-2133D01*
X-3282442Y-2133D01*
X-3278327Y-2997D01*
X-3274923Y-5486D01*
X-3272790Y-9093D01*
X-3272332Y-13258D01*
X-3273094Y-21539D01*
X-3273094Y-130708D01*
X-3272332Y-139192D01*
X-3270097Y-146913D01*
X-3266541Y-154076D01*
X-3261715Y-160528D01*
X-3255772Y-165912D01*
X-3248964Y-170129D01*
X-3241446Y-173024D01*
X-3233572Y-174498D01*
X-3225546Y-174498D01*
X-3217621Y-173024D01*
X-3210153Y-170129D01*
X-3203295Y-165912D01*
X-3197402Y-160528D01*
X-3192526Y-154076D01*
X-3188970Y-146913D01*
X-3186785Y-139192D01*
X-3185972Y-130708D01*
X-3185972Y-127203D01*
X-3185210Y-123291D01*
X-3183026Y-120040D01*
X-3179724Y-117805D01*
X-3175812Y-117043D01*
X-3169767Y-117043D01*
X-3165856Y-117805D01*
X-3162554Y-120040D01*
X-3088233Y-194360D01*
X-3086354Y-196900D01*
X-3085388Y-199898D01*
X-3083610Y-210515D01*
X-3080410Y-219608D01*
X-3075686Y-227990D01*
X-3069640Y-235508D01*
X-3062376Y-241909D01*
X-3054197Y-246938D01*
X-3045206Y-250545D01*
X-3035808Y-252577D01*
G37*
G36*
X-1186180Y-206502D02*
G01*
X-907287Y-206502D01*
X-900988Y-205790D01*
X-895502Y-203911D01*
X-890625Y-200812D01*
X-886510Y-196697D01*
X-883462Y-191820D01*
X-881532Y-186334D01*
X-880821Y-180035D01*
X-880821Y-51155D01*
X-881532Y-44856D01*
X-883462Y-39370D01*
X-886510Y-34493D01*
X-890625Y-30378D01*
X-895502Y-27330D01*
X-900988Y-25400D01*
X-907287Y-24688D01*
X-1186180Y-24688D01*
X-1192479Y-25400D01*
X-1197965Y-27330D01*
X-1202842Y-30378D01*
X-1206957Y-34493D01*
X-1210005Y-39370D01*
X-1211935Y-44856D01*
X-1212646Y-51155D01*
X-1212646Y-54508D01*
X-1213408Y-58419D01*
X-1215644Y-61722D01*
X-1218895Y-63906D01*
X-1222806Y-64668D01*
X-1229715Y-64414D01*
X-1236116Y-61518D01*
X-1245311Y-58674D01*
X-1254861Y-57454D01*
X-1264513Y-57861D01*
X-1273962Y-59893D01*
X-1282903Y-63500D01*
X-1291132Y-68529D01*
X-1298346Y-74930D01*
X-1304442Y-82448D01*
X-1309116Y-90830D01*
X-1312316Y-99923D01*
X-1313942Y-109474D01*
X-1313942Y-119075D01*
X-1312316Y-128625D01*
X-1309116Y-137718D01*
X-1304442Y-146100D01*
X-1298346Y-153619D01*
X-1291132Y-160020D01*
X-1282903Y-165049D01*
X-1273505Y-168808D01*
X-1270711Y-169722D01*
X-1261719Y-171297D01*
X-1252880Y-171297D01*
X-1244041Y-169722D01*
X-1236065Y-167030D01*
X-1232814Y-166522D01*
X-1222806Y-166522D01*
X-1218895Y-167284D01*
X-1215644Y-169468D01*
X-1213408Y-172770D01*
X-1212646Y-176682D01*
X-1212646Y-180035D01*
X-1211935Y-186334D01*
X-1210005Y-191820D01*
X-1206957Y-196697D01*
X-1202842Y-200812D01*
X-1197965Y-203911D01*
X-1192479Y-205790D01*
G37*
G36*
X2438Y-56794D02*
G01*
X11988Y-55575D01*
X21183Y-52730D01*
X29819Y-48412D01*
X37592Y-42672D01*
X44246Y-35712D01*
X49631Y-27686D01*
X53644Y-18897D01*
X56032Y-9601D01*
X56896Y0D01*
X56032Y9652D01*
X53644Y18948D01*
X49631Y27736D01*
X44246Y35763D01*
X37592Y42722D01*
X29819Y48463D01*
X21183Y52781D01*
X11988Y55626D01*
X2438Y56845D01*
X-7213Y56438D01*
X-16662Y54406D01*
X-25603Y50800D01*
X-33832Y45770D01*
X-41046Y39370D01*
X-47142Y31851D01*
X-51816Y23469D01*
X-55016Y14376D01*
X-56641Y4826D01*
X-56641Y-4775D01*
X-55016Y-14325D01*
X-51816Y-23418D01*
X-47142Y-31800D01*
X-41046Y-39319D01*
X-33832Y-45720D01*
X-25603Y-50749D01*
X-16662Y-54356D01*
X-7213Y-56388D01*
G37*
G36*
X-1318361Y76555D02*
G01*
X-1308811Y77774D01*
X-1299616Y80619D01*
X-1290980Y84937D01*
X-1283208Y90678D01*
X-1276553Y97637D01*
X-1271168Y105664D01*
X-1267155Y114452D01*
X-1264767Y123748D01*
X-1263904Y133350D01*
X-1264767Y143002D01*
X-1267155Y152298D01*
X-1271168Y161086D01*
X-1276553Y169113D01*
X-1283208Y176072D01*
X-1290980Y181813D01*
X-1299616Y186131D01*
X-1308811Y188976D01*
X-1318361Y190195D01*
X-1328013Y189788D01*
X-1337462Y187756D01*
X-1346403Y184150D01*
X-1354632Y179120D01*
X-1361846Y172720D01*
X-1367942Y165201D01*
X-1372616Y156819D01*
X-1375816Y147726D01*
X-1377442Y138176D01*
X-1377442Y128574D01*
X-1375816Y119024D01*
X-1372616Y109931D01*
X-1367942Y101549D01*
X-1361846Y94030D01*
X-1354632Y87630D01*
X-1346403Y82600D01*
X-1337462Y78994D01*
X-1328013Y76962D01*
G37*
G36*
X-619861Y216255D02*
G01*
X-610311Y217474D01*
X-601116Y220319D01*
X-592480Y224637D01*
X-584708Y230378D01*
X-578053Y237337D01*
X-572668Y245364D01*
X-568655Y254152D01*
X-566267Y263448D01*
X-565404Y273050D01*
X-566267Y282702D01*
X-568655Y291998D01*
X-572668Y300786D01*
X-578053Y308813D01*
X-584708Y315772D01*
X-592480Y321513D01*
X-601116Y325831D01*
X-610311Y328676D01*
X-619861Y329895D01*
X-629513Y329488D01*
X-638962Y327456D01*
X-647903Y323850D01*
X-656132Y318820D01*
X-663346Y312420D01*
X-669442Y304901D01*
X-674116Y296519D01*
X-677316Y287426D01*
X-678942Y277876D01*
X-678942Y268274D01*
X-677316Y258724D01*
X-674116Y249631D01*
X-669442Y241249D01*
X-663346Y233730D01*
X-656132Y227329D01*
X-647903Y222300D01*
X-638962Y218694D01*
X-629513Y216662D01*
G37*
G36*
X-638556Y515366D02*
G01*
X-629005Y516585D01*
X-619760Y519430D01*
X-611174Y523748D01*
X-603402Y529488D01*
X-596696Y536448D01*
X-591312Y544474D01*
X-587349Y553262D01*
X-584911Y562559D01*
X-584098Y572160D01*
X-584911Y581812D01*
X-587349Y591108D01*
X-591312Y599897D01*
X-596696Y607923D01*
X-603402Y614883D01*
X-611174Y620623D01*
X-619760Y624941D01*
X-629005Y627786D01*
X-638556Y629005D01*
X-648208Y628599D01*
X-657606Y626567D01*
X-666597Y622960D01*
X-674776Y617931D01*
X-682040Y611530D01*
X-688086Y604012D01*
X-692810Y595630D01*
X-696010Y586536D01*
X-697636Y576986D01*
X-697636Y567385D01*
X-696010Y557834D01*
X-692810Y548741D01*
X-688086Y540359D01*
X-682040Y532841D01*
X-674776Y526440D01*
X-666597Y521411D01*
X-657606Y517804D01*
X-648208Y515772D01*
G37*
G36*
X548640Y555345D02*
G01*
X558190Y556564D01*
X567385Y559409D01*
X576021Y563727D01*
X583793Y569468D01*
X590448Y576427D01*
X595833Y584454D01*
X599846Y593242D01*
X602234Y602538D01*
X603097Y612140D01*
X602234Y621792D01*
X599846Y631088D01*
X595833Y639876D01*
X590448Y647903D01*
X583793Y654862D01*
X576021Y660603D01*
X567385Y664921D01*
X558190Y667766D01*
X548640Y668985D01*
X538988Y668578D01*
X529539Y666546D01*
X520598Y662940D01*
X512368Y657910D01*
X505155Y651510D01*
X499059Y643991D01*
X494385Y635609D01*
X491185Y626516D01*
X489559Y616966D01*
X489559Y607364D01*
X491185Y597814D01*
X494385Y588721D01*
X499059Y580339D01*
X505155Y572820D01*
X512368Y566420D01*
X520598Y561390D01*
X529539Y557784D01*
X538988Y555752D01*
G37*
G36*
X999947Y2206294D02*
G01*
X1018743Y2206294D01*
X1037488Y2208174D01*
X1055928Y2211984D01*
X1073912Y2217623D01*
X1091234Y2225040D01*
X1107694Y2234184D01*
X1123137Y2244953D01*
X1137412Y2257196D01*
X1150416Y2270861D01*
X1161897Y2285746D01*
X1171905Y2301748D01*
X1180185Y2318613D01*
X1186738Y2336292D01*
X1191412Y2354529D01*
X1194308Y2373122D01*
X1195222Y2391918D01*
X1194308Y2410764D01*
X1191412Y2429357D01*
X1186738Y2447594D01*
X1180185Y2465273D01*
X1171905Y2482138D01*
X1161897Y2498140D01*
X1150416Y2513025D01*
X1137412Y2526690D01*
X1123137Y2538933D01*
X1107694Y2549702D01*
X1091234Y2558846D01*
X1073912Y2566263D01*
X1055928Y2571902D01*
X1037488Y2575712D01*
X1018743Y2577592D01*
X999947Y2577592D01*
X981202Y2575712D01*
X962761Y2571902D01*
X944778Y2566263D01*
X927455Y2558846D01*
X910996Y2549702D01*
X895553Y2538933D01*
X881278Y2526690D01*
X868273Y2513025D01*
X856792Y2498140D01*
X846785Y2482138D01*
X838504Y2465273D01*
X831951Y2447594D01*
X827278Y2429357D01*
X824382Y2410764D01*
X823468Y2391918D01*
X824382Y2373122D01*
X827278Y2354529D01*
X831951Y2336292D01*
X838504Y2318613D01*
X846785Y2301748D01*
X856792Y2285746D01*
X868273Y2270861D01*
X881278Y2257196D01*
X895553Y2244953D01*
X910996Y2234184D01*
X927455Y2225040D01*
X944778Y2217623D01*
X962761Y2211984D01*
X981202Y2208174D01*
G37*
G36*
X644245Y2305202D02*
G01*
X657910Y2306116D01*
X671322Y2308809D01*
X684276Y2313178D01*
X696569Y2319223D01*
X707948Y2326843D01*
X718210Y2335885D01*
X727252Y2346147D01*
X734872Y2357526D01*
X740918Y2369820D01*
X745286Y2382774D01*
X747979Y2396185D01*
X748893Y2409850D01*
X747979Y2423515D01*
X745286Y2436926D01*
X740918Y2449880D01*
X734872Y2462174D01*
X727252Y2473553D01*
X718210Y2483815D01*
X707948Y2492857D01*
X696569Y2500477D01*
X684276Y2506522D01*
X671322Y2510891D01*
X657910Y2513584D01*
X644245Y2514498D01*
X630580Y2513584D01*
X617169Y2510891D01*
X604215Y2506522D01*
X591921Y2500477D01*
X580542Y2492857D01*
X570280Y2483815D01*
X561238Y2473553D01*
X553618Y2462174D01*
X547573Y2449880D01*
X543204Y2436926D01*
X540512Y2423515D01*
X539597Y2409850D01*
X540512Y2396185D01*
X543204Y2382774D01*
X547573Y2369820D01*
X553618Y2357526D01*
X561238Y2346147D01*
X570280Y2335885D01*
X580542Y2326843D01*
X591921Y2319223D01*
X604215Y2313178D01*
X617169Y2308809D01*
X630580Y2306116D01*
G37*
G36*
X154838Y2527909D02*
G01*
X164388Y2529179D01*
X173583Y2531973D01*
X182219Y2536342D01*
X189992Y2542082D01*
X196646Y2549042D01*
X202031Y2557018D01*
X206044Y2565806D01*
X208432Y2575153D01*
X209296Y2584754D01*
X208432Y2594356D01*
X206044Y2603703D01*
X202031Y2612491D01*
X196646Y2620467D01*
X189992Y2627426D01*
X182219Y2633167D01*
X173583Y2637536D01*
X164388Y2640330D01*
X154838Y2641600D01*
X145186Y2641142D01*
X135737Y2639110D01*
X126796Y2635554D01*
X118567Y2630474D01*
X111353Y2624124D01*
X105257Y2616606D01*
X100584Y2608173D01*
X97383Y2599080D01*
X95758Y2589580D01*
X95758Y2579928D01*
X97383Y2570429D01*
X100584Y2561336D01*
X105257Y2552903D01*
X111353Y2545384D01*
X118567Y2539034D01*
X126796Y2533954D01*
X135737Y2530398D01*
X145186Y2528366D01*
G37*
G36*
X-29311Y2686659D02*
G01*
X-19761Y2687929D01*
X-10566Y2690723D01*
X-1930Y2695092D01*
X5842Y2700832D01*
X12496Y2707792D01*
X17881Y2715768D01*
X21894Y2724556D01*
X24282Y2733903D01*
X25146Y2743504D01*
X24282Y2753106D01*
X21894Y2762453D01*
X17881Y2771241D01*
X12496Y2779217D01*
X5842Y2786176D01*
X-1930Y2791917D01*
X-10566Y2796286D01*
X-19761Y2799080D01*
X-29311Y2800350D01*
X-38963Y2799892D01*
X-48412Y2797860D01*
X-57353Y2794304D01*
X-65582Y2789224D01*
X-72796Y2782874D01*
X-78892Y2775356D01*
X-83566Y2766923D01*
X-86766Y2757830D01*
X-88392Y2748330D01*
X-88392Y2738678D01*
X-86766Y2729179D01*
X-83566Y2720086D01*
X-78892Y2711653D01*
X-72796Y2704134D01*
X-65582Y2697784D01*
X-57353Y2692704D01*
X-48412Y2689148D01*
X-38963Y2687116D01*
G37*
G36*
X-825500Y2750667D02*
G01*
X-815695Y2751531D01*
X-806246Y2754071D01*
X-797306Y2758186D01*
X-789279Y2763824D01*
X-782320Y2770784D01*
X-776681Y2778810D01*
X-772566Y2787751D01*
X-770026Y2797200D01*
X-769162Y2807004D01*
X-770026Y2816809D01*
X-772566Y2826258D01*
X-776681Y2835198D01*
X-782320Y2843225D01*
X-789279Y2850184D01*
X-797306Y2855823D01*
X-806246Y2859938D01*
X-815695Y2862478D01*
X-825500Y2863342D01*
X-835304Y2862478D01*
X-844753Y2859938D01*
X-853694Y2855823D01*
X-861720Y2850184D01*
X-868680Y2843225D01*
X-874318Y2835198D01*
X-878433Y2826258D01*
X-880973Y2816809D01*
X-881837Y2807004D01*
X-880973Y2797200D01*
X-878433Y2787751D01*
X-874318Y2778810D01*
X-868680Y2770784D01*
X-861720Y2763824D01*
X-853694Y2758186D01*
X-844753Y2754071D01*
X-835304Y2751531D01*
G37*
G36*
X-3050844Y3159760D02*
G01*
X-2941675Y3159760D01*
X-2933192Y3160522D01*
X-2925470Y3162757D01*
X-2918307Y3166313D01*
X-2911856Y3171139D01*
X-2906471Y3177082D01*
X-2902254Y3183890D01*
X-2899359Y3191408D01*
X-2897886Y3199282D01*
X-2897886Y3207308D01*
X-2899359Y3215233D01*
X-2902254Y3222701D01*
X-2906471Y3229559D01*
X-2911856Y3235452D01*
X-2918307Y3240328D01*
X-2925470Y3243884D01*
X-2932531Y3245916D01*
X-2936392Y3247948D01*
X-2938983Y3251403D01*
X-2939948Y3255619D01*
X-2939034Y3259836D01*
X-2936849Y3264712D01*
X-2934411Y3274009D01*
X-2933598Y3283610D01*
X-2934411Y3293262D01*
X-2936849Y3302558D01*
X-2940812Y3311347D01*
X-2946196Y3319373D01*
X-2952902Y3326333D01*
X-2960674Y3332073D01*
X-2969260Y3336391D01*
X-2978505Y3339236D01*
X-2988056Y3340455D01*
X-2997708Y3340049D01*
X-3007106Y3338017D01*
X-3016097Y3334410D01*
X-3024276Y3329381D01*
X-3031540Y3322980D01*
X-3037586Y3315462D01*
X-3042310Y3307079D01*
X-3045510Y3297986D01*
X-3047136Y3288436D01*
X-3047136Y3278835D01*
X-3045510Y3269284D01*
X-3042361Y3260344D01*
X-3041751Y3256737D01*
X-3042513Y3253130D01*
X-3044494Y3250031D01*
X-3047441Y3247847D01*
X-3050997Y3246831D01*
X-3059277Y3246069D01*
X-3066999Y3243884D01*
X-3074212Y3240328D01*
X-3080613Y3235452D01*
X-3085998Y3229559D01*
X-3090265Y3222701D01*
X-3093161Y3215233D01*
X-3094634Y3207308D01*
X-3094634Y3199282D01*
X-3093161Y3191408D01*
X-3090265Y3183890D01*
X-3085998Y3177082D01*
X-3080613Y3171139D01*
X-3074212Y3166313D01*
X-3066999Y3162757D01*
X-3059277Y3160522D01*
G37*
G36*
X-1445361Y3175609D02*
G01*
X-1435811Y3176879D01*
X-1426616Y3179673D01*
X-1417980Y3184042D01*
X-1410208Y3189782D01*
X-1403553Y3196742D01*
X-1398168Y3204718D01*
X-1394155Y3213506D01*
X-1391767Y3222853D01*
X-1390904Y3232454D01*
X-1391767Y3242056D01*
X-1394155Y3251403D01*
X-1398168Y3260191D01*
X-1403553Y3268167D01*
X-1410208Y3275126D01*
X-1417980Y3280867D01*
X-1426616Y3285236D01*
X-1435811Y3288029D01*
X-1445361Y3289300D01*
X-1455013Y3288842D01*
X-1464462Y3286810D01*
X-1473403Y3283254D01*
X-1481632Y3278174D01*
X-1488846Y3271824D01*
X-1494942Y3264306D01*
X-1499616Y3255873D01*
X-1502816Y3246780D01*
X-1504442Y3237280D01*
X-1504442Y3227628D01*
X-1502816Y3218129D01*
X-1499616Y3209036D01*
X-1494942Y3200603D01*
X-1488846Y3193084D01*
X-1481632Y3186734D01*
X-1473403Y3181654D01*
X-1464462Y3178098D01*
X-1455013Y3176066D01*
G37*
G36*
X-3960723Y3246678D02*
G01*
X-3806901Y3246678D01*
X-3800551Y3247390D01*
X-3795115Y3249269D01*
X-3790187Y3252368D01*
X-3786124Y3256483D01*
X-3783025Y3261360D01*
X-3781094Y3266795D01*
X-3780383Y3273145D01*
X-3780383Y3332022D01*
X-3781094Y3338322D01*
X-3783025Y3343808D01*
X-3784447Y3345992D01*
X-3785870Y3350056D01*
X-3785565Y3354324D01*
X-3783482Y3358083D01*
X-3780028Y3360674D01*
X-3775811Y3361588D01*
X-3753510Y3361588D01*
X-3745026Y3362401D01*
X-3737356Y3364737D01*
X-3730294Y3368497D01*
X-3723741Y3373932D01*
X-3529025Y3568649D01*
X-3525469Y3570935D01*
X-3521252Y3571595D01*
X-3517137Y3570478D01*
X-3513886Y3567785D01*
X-3512007Y3563975D01*
X-3511905Y3549396D01*
X-3510279Y3539845D01*
X-3507079Y3530752D01*
X-3502406Y3522370D01*
X-3496310Y3514851D01*
X-3489096Y3508451D01*
X-3480866Y3503422D01*
X-3471926Y3499815D01*
X-3462477Y3497783D01*
X-3452825Y3497376D01*
X-3443274Y3498596D01*
X-3434079Y3501440D01*
X-3425444Y3505758D01*
X-3416808Y3512210D01*
X-3413912Y3513734D01*
X-3410712Y3514242D01*
X-3349142Y3514242D01*
X-3342792Y3514953D01*
X-3337356Y3516884D01*
X-3332429Y3519932D01*
X-3328365Y3524046D01*
X-3325266Y3528923D01*
X-3323386Y3534410D01*
X-3322675Y3540709D01*
X-3322675Y3604666D01*
X-3321862Y3608527D01*
X-3319678Y3611829D01*
X-3316376Y3614013D01*
X-3312515Y3614826D01*
X-3293211Y3614826D01*
X-3289350Y3614013D01*
X-3286048Y3611829D01*
X-3283864Y3608527D01*
X-3283051Y3604666D01*
X-3283051Y3534359D01*
X-3282340Y3528060D01*
X-3280460Y3522573D01*
X-3277362Y3517696D01*
X-3273298Y3513582D01*
X-3268370Y3510534D01*
X-3262934Y3508603D01*
X-3256584Y3507892D01*
X-3198926Y3507892D01*
X-3196132Y3507486D01*
X-3193592Y3506368D01*
X-3188766Y3503422D01*
X-3179826Y3499815D01*
X-3170377Y3497783D01*
X-3160725Y3497376D01*
X-3151174Y3498596D01*
X-3141980Y3501440D01*
X-3133344Y3505758D01*
X-3125571Y3511499D01*
X-3118916Y3518458D01*
X-3113532Y3526485D01*
X-3109518Y3535273D01*
X-3107131Y3544570D01*
X-3106267Y3554171D01*
X-3107131Y3563823D01*
X-3109518Y3573119D01*
X-3113532Y3581908D01*
X-3118916Y3589934D01*
X-3125571Y3596894D01*
X-3133344Y3602634D01*
X-3139287Y3605631D01*
X-3141980Y3607612D01*
X-3143910Y3610356D01*
X-3144824Y3613556D01*
X-3145586Y3620211D01*
X-3147466Y3625646D01*
X-3150565Y3630574D01*
X-3154629Y3634638D01*
X-3159556Y3637737D01*
X-3165602Y3639870D01*
X-3169158Y3642004D01*
X-3171596Y3645408D01*
X-3172409Y3649421D01*
X-3171596Y3653485D01*
X-3169158Y3656888D01*
X-3165602Y3659022D01*
X-3159556Y3661156D01*
X-3154629Y3664254D01*
X-3150565Y3668318D01*
X-3147466Y3673246D01*
X-3145586Y3678682D01*
X-3144875Y3685032D01*
X-3144875Y3764534D01*
X-3145586Y3770833D01*
X-3147466Y3776319D01*
X-3150565Y3781196D01*
X-3154629Y3785311D01*
X-3159556Y3788359D01*
X-3164992Y3790289D01*
X-3171342Y3791000D01*
X-3210915Y3791000D01*
X-3214776Y3791762D01*
X-3218078Y3793998D01*
X-3237636Y3813556D01*
X-3239871Y3816858D01*
X-3240633Y3820718D01*
X-3239871Y3824630D01*
X-3237636Y3827881D01*
X-3234334Y3830116D01*
X-3230473Y3830878D01*
X-3221990Y3830878D01*
X-3207562Y3832707D01*
X-3193440Y3836314D01*
X-3179927Y3841699D01*
X-3167176Y3848709D01*
X-3155391Y3857244D01*
X-3144774Y3867200D01*
X-3135528Y3878427D01*
X-3127705Y3890721D01*
X-3121507Y3903878D01*
X-3117037Y3917696D01*
X-3114294Y3932021D01*
X-3113379Y3946550D01*
X-3114294Y3961079D01*
X-3117037Y3975354D01*
X-3121507Y3989222D01*
X-3127705Y4002379D01*
X-3135528Y4014673D01*
X-3144774Y4025849D01*
X-3155391Y4035856D01*
X-3167176Y4044391D01*
X-3179927Y4051401D01*
X-3193440Y4056735D01*
X-3207562Y4060393D01*
X-3221990Y4062222D01*
X-3236518Y4062222D01*
X-3250996Y4060393D01*
X-3265068Y4056735D01*
X-3278632Y4051401D01*
X-3291382Y4044391D01*
X-3303117Y4035856D01*
X-3313734Y4025849D01*
X-3323031Y4014673D01*
X-3330803Y4002379D01*
X-3337001Y3989222D01*
X-3341522Y3975354D01*
X-3344265Y3961079D01*
X-3345179Y3946550D01*
X-3344265Y3932021D01*
X-3341624Y3918305D01*
X-3341776Y3913886D01*
X-3343757Y3909923D01*
X-3347262Y3907231D01*
X-3351631Y3906265D01*
X-3360928Y3906265D01*
X-3365246Y3907231D01*
X-3368751Y3909923D01*
X-3370783Y3913886D01*
X-3370884Y3918305D01*
X-3368294Y3932021D01*
X-3367379Y3946550D01*
X-3368294Y3961079D01*
X-3371037Y3975354D01*
X-3375507Y3989222D01*
X-3381705Y4002379D01*
X-3389528Y4014673D01*
X-3398774Y4025849D01*
X-3409391Y4035856D01*
X-3421176Y4044391D01*
X-3433927Y4051401D01*
X-3447440Y4056735D01*
X-3461562Y4060393D01*
X-3475990Y4062222D01*
X-3490518Y4062222D01*
X-3504996Y4060393D01*
X-3519068Y4056735D01*
X-3532632Y4051401D01*
X-3545382Y4044391D01*
X-3557117Y4035856D01*
X-3567734Y4025849D01*
X-3577031Y4014673D01*
X-3584803Y4002379D01*
X-3591001Y3989222D01*
X-3595522Y3975354D01*
X-3598265Y3961079D01*
X-3599179Y3946550D01*
X-3598265Y3932021D01*
X-3595522Y3917696D01*
X-3591001Y3903878D01*
X-3584803Y3890721D01*
X-3577031Y3878427D01*
X-3567734Y3867200D01*
X-3557117Y3857244D01*
X-3545382Y3848709D01*
X-3532632Y3841699D01*
X-3519068Y3836314D01*
X-3504996Y3832707D01*
X-3490518Y3830878D01*
X-3475990Y3830878D01*
X-3461562Y3832707D01*
X-3447440Y3836314D01*
X-3441750Y3838600D01*
X-3438245Y3839311D01*
X-3434689Y3838752D01*
X-3431590Y3836974D01*
X-3424732Y3831386D01*
X-3417671Y3827576D01*
X-3410000Y3825290D01*
X-3401568Y3824427D01*
X-3368446Y3824427D01*
X-3364585Y3823665D01*
X-3361283Y3821480D01*
X-3354527Y3814673D01*
X-3352292Y3811422D01*
X-3351529Y3807510D01*
X-3352292Y3803599D01*
X-3354527Y3800348D01*
X-3357829Y3798112D01*
X-3361690Y3797350D01*
X-3434384Y3797350D01*
X-3440734Y3796639D01*
X-3446170Y3794709D01*
X-3451098Y3791661D01*
X-3455162Y3787546D01*
X-3458260Y3782669D01*
X-3459581Y3778859D01*
X-3461715Y3775303D01*
X-3465118Y3772865D01*
X-3469182Y3772052D01*
X-3585667Y3772052D01*
X-3589528Y3772814D01*
X-3592829Y3774998D01*
X-3636264Y3818432D01*
X-3638346Y3821429D01*
X-3639210Y3824935D01*
X-3638804Y3828542D01*
X-3637178Y3831793D01*
X-3634486Y3834231D01*
X-3631133Y3836314D01*
X-3627069Y3840429D01*
X-3623970Y3845306D01*
X-3622090Y3850792D01*
X-3621379Y3857091D01*
X-3621379Y4035958D01*
X-3622090Y4042308D01*
X-3623970Y4047744D01*
X-3627069Y4052671D01*
X-3631133Y4056735D01*
X-3636060Y4059834D01*
X-3641496Y4061714D01*
X-3647846Y4062425D01*
X-3826713Y4062425D01*
X-3833012Y4061714D01*
X-3838498Y4059834D01*
X-3843375Y4056735D01*
X-3847490Y4052671D01*
X-3850538Y4047744D01*
X-3852468Y4042308D01*
X-3853179Y4035958D01*
X-3853179Y3948582D01*
X-3853942Y3944721D01*
X-3856126Y3941419D01*
X-4042613Y3754932D01*
X-4048048Y3748328D01*
X-4051808Y3741267D01*
X-4054144Y3733596D01*
X-4054957Y3725164D01*
X-4054957Y3338779D01*
X-4054144Y3330346D01*
X-4051808Y3322675D01*
X-4048048Y3315614D01*
X-4042613Y3309010D01*
X-4007612Y3274009D01*
X-4001008Y3268573D01*
X-3993946Y3264814D01*
X-3988714Y3263239D01*
X-3985463Y3261563D01*
X-3983075Y3258921D01*
X-3981500Y3256483D01*
X-3977436Y3252368D01*
X-3972509Y3249269D01*
X-3967073Y3247390D01*
G37*
G36*
X-2067661Y3321659D02*
G01*
X-2058111Y3322929D01*
X-2048916Y3325723D01*
X-2040280Y3330092D01*
X-2032507Y3335832D01*
X-2025853Y3342792D01*
X-2020468Y3350768D01*
X-2016455Y3359556D01*
X-2014067Y3368903D01*
X-2013204Y3378504D01*
X-2014067Y3388106D01*
X-2016455Y3397453D01*
X-2020468Y3406241D01*
X-2025853Y3414217D01*
X-2032507Y3421176D01*
X-2040280Y3426917D01*
X-2048916Y3431286D01*
X-2058111Y3434079D01*
X-2067661Y3435350D01*
X-2077313Y3434892D01*
X-2086762Y3432860D01*
X-2095703Y3429304D01*
X-2103932Y3424224D01*
X-2111146Y3417874D01*
X-2117242Y3410356D01*
X-2121916Y3401923D01*
X-2125116Y3392830D01*
X-2126742Y3383330D01*
X-2126742Y3373678D01*
X-2125116Y3364179D01*
X-2121916Y3355086D01*
X-2117242Y3346653D01*
X-2111146Y3339134D01*
X-2103932Y3332784D01*
X-2095703Y3327704D01*
X-2086762Y3324148D01*
X-2077313Y3322116D01*
G37*
G36*
X-2702661Y3683609D02*
G01*
X-2693111Y3684879D01*
X-2683916Y3687673D01*
X-2675280Y3692042D01*
X-2667508Y3697782D01*
X-2660853Y3704742D01*
X-2655468Y3712718D01*
X-2651455Y3721506D01*
X-2649067Y3730853D01*
X-2648204Y3740454D01*
X-2649067Y3750056D01*
X-2651455Y3759403D01*
X-2655468Y3768191D01*
X-2660853Y3776167D01*
X-2667508Y3783126D01*
X-2675280Y3788867D01*
X-2683916Y3793236D01*
X-2693111Y3796029D01*
X-2702661Y3797300D01*
X-2712313Y3796842D01*
X-2721762Y3794810D01*
X-2730703Y3791254D01*
X-2738932Y3786174D01*
X-2746146Y3779824D01*
X-2752242Y3772306D01*
X-2756916Y3763873D01*
X-2760116Y3754780D01*
X-2761742Y3745280D01*
X-2761742Y3735628D01*
X-2760116Y3726129D01*
X-2756916Y3717036D01*
X-2752242Y3708603D01*
X-2746146Y3701084D01*
X-2738932Y3694734D01*
X-2730703Y3689654D01*
X-2721762Y3686098D01*
X-2712313Y3684066D01*
G37*
G36*
X-61518Y3830878D02*
G01*
X-46990Y3830878D01*
X-32562Y3832707D01*
X-18440Y3836314D01*
X-4927Y3841699D01*
X7823Y3848709D01*
X19608Y3857244D01*
X30226Y3867200D01*
X39471Y3878427D01*
X47294Y3890721D01*
X53492Y3903878D01*
X57962Y3917696D01*
X60706Y3932021D01*
X61620Y3946550D01*
X60706Y3961079D01*
X57962Y3975354D01*
X53492Y3989222D01*
X47294Y4002379D01*
X39471Y4014673D01*
X30226Y4025849D01*
X19608Y4035856D01*
X7823Y4044391D01*
X-4927Y4051401D01*
X-18440Y4056735D01*
X-32562Y4060393D01*
X-46990Y4062222D01*
X-61518Y4062222D01*
X-75996Y4060393D01*
X-90068Y4056735D01*
X-103632Y4051401D01*
X-116382Y4044391D01*
X-128117Y4035856D01*
X-138734Y4025849D01*
X-148031Y4014673D01*
X-155803Y4002379D01*
X-162001Y3989222D01*
X-166522Y3975354D01*
X-169265Y3961079D01*
X-170180Y3946550D01*
X-169265Y3932021D01*
X-166522Y3917696D01*
X-162001Y3903878D01*
X-155803Y3890721D01*
X-148031Y3878427D01*
X-138734Y3867200D01*
X-128117Y3857244D01*
X-116382Y3848709D01*
X-103632Y3841699D01*
X-90068Y3836314D01*
X-75996Y3832707D01*
G37*
G36*
X700481Y3830878D02*
G01*
X715010Y3830878D01*
X729437Y3832707D01*
X743559Y3836314D01*
X757072Y3841699D01*
X769823Y3848709D01*
X781608Y3857244D01*
X792226Y3867200D01*
X801471Y3878427D01*
X809294Y3890721D01*
X815492Y3903878D01*
X819962Y3917696D01*
X822706Y3932021D01*
X823620Y3946550D01*
X822706Y3961079D01*
X819962Y3975354D01*
X815492Y3989222D01*
X809294Y4002379D01*
X801471Y4014673D01*
X792226Y4025849D01*
X781608Y4035856D01*
X769823Y4044391D01*
X757072Y4051401D01*
X743559Y4056735D01*
X729437Y4060393D01*
X715010Y4062222D01*
X700481Y4062222D01*
X686003Y4060393D01*
X671931Y4056735D01*
X658368Y4051401D01*
X645617Y4044391D01*
X633882Y4035856D01*
X623265Y4025849D01*
X613968Y4014673D01*
X606196Y4002379D01*
X599998Y3989222D01*
X595477Y3975354D01*
X592734Y3961079D01*
X591820Y3946550D01*
X592734Y3932021D01*
X595477Y3917696D01*
X599998Y3903878D01*
X606196Y3890721D01*
X613968Y3878427D01*
X623265Y3867200D01*
X633882Y3857244D01*
X645617Y3848709D01*
X658368Y3841699D01*
X671931Y3836314D01*
X686003Y3832707D01*
G37*
G36*
X192481Y3830878D02*
G01*
X207010Y3830878D01*
X221437Y3832707D01*
X235559Y3836314D01*
X249072Y3841699D01*
X261823Y3848709D01*
X273608Y3857244D01*
X284226Y3867200D01*
X293471Y3878427D01*
X301294Y3890721D01*
X307492Y3903878D01*
X311962Y3917696D01*
X314706Y3932021D01*
X315620Y3946550D01*
X314706Y3961079D01*
X311962Y3975354D01*
X307492Y3989222D01*
X301294Y4002379D01*
X293471Y4014673D01*
X284226Y4025849D01*
X273608Y4035856D01*
X261823Y4044391D01*
X249072Y4051401D01*
X235559Y4056735D01*
X221437Y4060393D01*
X207010Y4062222D01*
X192481Y4062222D01*
X178003Y4060393D01*
X163931Y4056735D01*
X150368Y4051401D01*
X137617Y4044391D01*
X125882Y4035856D01*
X115265Y4025849D01*
X105968Y4014673D01*
X98196Y4002379D01*
X91998Y3989222D01*
X87477Y3975354D01*
X84734Y3961079D01*
X83820Y3946550D01*
X84734Y3932021D01*
X87477Y3917696D01*
X91998Y3903878D01*
X98196Y3890721D01*
X105968Y3878427D01*
X115265Y3867200D01*
X125882Y3857244D01*
X137617Y3848709D01*
X150368Y3841699D01*
X163931Y3836314D01*
X178003Y3832707D01*
G37*
G36*
X446481Y3830878D02*
G01*
X461009Y3830878D01*
X475437Y3832707D01*
X489559Y3836314D01*
X503072Y3841699D01*
X515823Y3848709D01*
X527608Y3857244D01*
X538226Y3867200D01*
X547471Y3878427D01*
X555294Y3890721D01*
X561492Y3903878D01*
X565962Y3917696D01*
X568706Y3932021D01*
X569620Y3946550D01*
X568706Y3961079D01*
X565962Y3975354D01*
X561492Y3989222D01*
X555294Y4002379D01*
X547471Y4014673D01*
X538226Y4025849D01*
X527608Y4035856D01*
X515823Y4044391D01*
X503072Y4051401D01*
X489559Y4056735D01*
X475437Y4060393D01*
X461009Y4062222D01*
X446481Y4062222D01*
X432003Y4060393D01*
X417931Y4056735D01*
X404368Y4051401D01*
X391617Y4044391D01*
X379882Y4035856D01*
X369265Y4025849D01*
X359968Y4014673D01*
X352196Y4002379D01*
X345998Y3989222D01*
X341477Y3975354D01*
X338734Y3961079D01*
X337820Y3946550D01*
X338734Y3932021D01*
X341477Y3917696D01*
X345998Y3903878D01*
X352196Y3890721D01*
X359968Y3878427D01*
X369265Y3867200D01*
X379882Y3857244D01*
X391617Y3848709D01*
X404368Y3841699D01*
X417931Y3836314D01*
X432003Y3832707D01*
G37*

%LPD*%
G36*
X-3690467Y3527653D02*
G01*
X-3694582Y3528771D01*
X-3697833Y3531412D01*
X-3699764Y3535222D01*
X-3701338Y3541369D01*
X-3705351Y3550158D01*
X-3710736Y3558184D01*
X-3717391Y3565144D01*
X-3725164Y3570884D01*
X-3733800Y3575202D01*
X-3742994Y3578047D01*
X-3752545Y3579266D01*
X-3762197Y3578860D01*
X-3771646Y3576828D01*
X-3780586Y3573221D01*
X-3788765Y3568192D01*
X-3797046Y3560775D01*
X-3800703Y3558692D01*
X-3804920Y3558286D01*
X-3806850Y3558489D01*
X-3960672Y3558489D01*
X-3966057Y3558743D01*
X-3969765Y3560876D01*
X-3972255Y3564280D01*
X-3973169Y3568446D01*
X-3973169Y3704488D01*
X-3972356Y3708400D01*
X-3970172Y3711701D01*
X-3850436Y3831437D01*
X-3847287Y3833571D01*
X-3843528Y3834384D01*
X-3839768Y3833825D01*
X-3832961Y3831336D01*
X-3826713Y3830624D01*
X-3768344Y3830624D01*
X-3764483Y3829862D01*
X-3761181Y3827678D01*
X-3636060Y3702558D01*
X-3629507Y3697173D01*
X-3622446Y3693363D01*
X-3614775Y3691077D01*
X-3606292Y3690213D01*
X-3547618Y3690213D01*
X-3543757Y3689451D01*
X-3540455Y3687267D01*
X-3538270Y3683965D01*
X-3537458Y3680053D01*
X-3538270Y3676192D01*
X-3540455Y3672890D01*
X-3682746Y3530600D01*
X-3686301Y3528314D01*
G37*

%LPD*%
G36*
X-3381400Y2925673D02*
G01*
X-4327550Y2919323D01*
X-4384700Y2887573D01*
X-4384700Y2195423D01*
X-4333900Y2144623D01*
X-3378504Y2147519D01*
X-3353104Y2185619D01*
X-3356000Y2893923D01*
G37*
G36*
X-2762250Y489204D02*
G01*
X-2819400Y451104D01*
X-2819400Y266954D01*
X-2781300Y228854D01*
X-2597150Y38354D01*
X-2597150Y-50546D01*
X-2546350Y-88646D01*
X-2171700Y-88646D01*
X-2101850Y-44196D01*
X-2095500Y305054D01*
X-2146300Y362204D01*
X-2340254Y365150D01*
X-2416454Y441350D01*
X-2457450Y489204D01*
G37*
G36*
X-4318000Y1384554D02*
G01*
X-4381500Y1333754D01*
X-4381500Y679704D01*
X-4318000Y628904D01*
X-3384550Y628904D01*
X-3359150Y654304D01*
X-3359150Y1359154D01*
X-3384550Y1384554D01*
G37*
G36*
X-3302000Y2914904D02*
G01*
X-3327400Y2870454D01*
X-3327400Y2178304D01*
X-3289300Y2140204D01*
X-2597150Y2140204D01*
X-2578100Y2159254D01*
X-2578100Y2445004D01*
X-2603500Y2464054D01*
X-2990850Y2464054D01*
X-3073400Y2540254D01*
X-3073400Y2597404D01*
X-3060700Y2610104D01*
X-2959100Y2610104D01*
X-2952750Y2616454D01*
X-2952750Y2895854D01*
X-2978150Y2914904D01*
G37*
G36*
X-3302000Y1384554D02*
G01*
X-3327400Y1359154D01*
X-3327400Y660654D01*
X-3295650Y628904D01*
X-3009900Y628904D01*
X-2990850Y609854D01*
X-2990850Y540004D01*
X-2952750Y514604D01*
X-2597150Y514604D01*
X-2571750Y546354D01*
X-2571750Y844803D01*
X-2609850Y863853D01*
X-3009900Y863853D01*
X-3079750Y933703D01*
X-3079750Y997203D01*
X-3054350Y1009903D01*
X-2971800Y1009903D01*
X-2965450Y1022603D01*
X-2965450Y1219454D01*
X-3054350Y1308354D01*
X-3060700Y1346454D01*
X-3098800Y1384554D01*
G37*
G36*
X-2895600Y1676654D02*
G01*
X-2933700Y1644904D01*
X-2933700Y1346454D01*
X-2908300Y1321054D01*
X-2438400Y1321054D01*
X-2419350Y1333754D01*
X-2419350Y1448054D01*
X-2381250Y1479804D01*
X-2298700Y1479804D01*
X-2273300Y1505204D01*
X-2273300Y1663954D01*
X-2305050Y1676654D01*
G37*
G36*
X-2895600Y1257554D02*
G01*
X-2940050Y1219454D01*
X-2940050Y959103D01*
X-2914650Y933703D01*
X-2451100Y933703D01*
X-2419350Y959103D01*
X-2419350Y1016253D01*
X-2387600Y1041653D01*
X-2311400Y1041653D01*
X-2266950Y1073404D01*
X-2266950Y1232154D01*
X-2311400Y1257554D01*
G37*
G36*
X-2895600Y1016253D02*
G01*
X-2902813Y1009091D01*
X-2787650Y1016253D01*
G37*
G36*
X-2660650Y3378454D02*
G01*
X-2698750Y3314954D01*
X-2698750Y3067304D01*
X-2762250Y3010154D01*
X-2879445Y3007258D01*
X-2930245Y2937408D01*
X-2930245Y2550058D01*
X-2911195Y2531008D01*
X-2257145Y2531008D01*
X-2225395Y2550058D01*
X-2225395Y2772308D01*
X-2187295Y2804058D01*
X-1539595Y2804058D01*
X-1384300Y2654554D01*
X-1384300Y2464054D01*
X-1327150Y2406904D01*
X-1308100Y2406904D01*
X-1263650Y2464054D01*
X-1260195Y2734208D01*
X-1259840Y2777744D01*
X-1272895Y2791358D01*
X-1476095Y3007258D01*
X-1564995Y2981858D01*
X-1609445Y2912008D01*
X-1945995Y2912008D01*
X-2190750Y3137154D01*
X-2197100Y3327654D01*
X-2241550Y3378454D01*
G37*
G36*
X-2609850Y2121154D02*
G01*
X-4337050Y2114804D01*
X-4387850Y2076704D01*
X-4387850Y1448054D01*
X-4349750Y1409954D01*
X-3404870Y1412494D01*
X-3244850Y1409954D01*
X-3079750Y1409954D01*
X-3060700Y1435354D01*
X-2971800Y1435354D01*
X-2965450Y1448054D01*
X-2965450Y1676654D01*
X-2927350Y1708404D01*
X-2590800Y1708404D01*
X-2578100Y1727454D01*
X-2578100Y2089404D01*
G37*
D10*
X-1046751Y-115618D02*
G01*
X-1252275Y-115618D01*
X-1257300Y-120642D01*
X-1454150Y-425602D02*
G01*
X-1365097Y-425602D01*
X-1220520Y-570179D01*
X-1046746Y-570179D01*
X-1046746Y-570179D02*
G01*
X-1046746Y-830559D01*
X-1070254Y-854067D01*
D11*
X-3117496Y38740D02*
G01*
X-3073019Y83218D01*
X-3073019Y159265D01*
X-2996214Y3073300D02*
G01*
X-2882521Y3073300D01*
X-2824759Y3131065D01*
X-2806319Y3131065D01*
X-3009544Y-75557D02*
G01*
X-3009544Y-69207D01*
X-3117494Y38742D01*
X-3327044Y38742D01*
X-3359556Y6230D01*
X-3359556Y-76065D01*
X-3359536Y-76146D02*
G01*
X-3424534Y-76146D01*
X-3028569Y-196181D02*
G01*
X-3148601Y-76149D01*
X-3229516Y-76149D01*
X-3581552Y3073280D02*
G01*
X-3465982Y3073280D01*
X-3428644Y3035942D01*
X-3428644Y2934342D01*
X-3522878Y2840108D01*
X-3522878Y2767718D01*
X-2996336Y3073280D02*
G01*
X-3097682Y3073280D01*
X-3123844Y3099442D01*
X-2996214Y3008302D02*
G01*
X-3032653Y3008302D01*
X-3123819Y3099468D01*
X-2990474Y3283612D02*
G01*
X-2996214Y3277872D01*
X-2996214Y3203323D01*
X-3294532Y509150D02*
G01*
X-3295294Y661042D01*
X-3516960Y773107D02*
G01*
X-3516960Y762096D01*
X-3359541Y604677D01*
X-3359541Y509272D01*
X-3581633Y3138299D02*
G01*
X-3346810Y3138299D01*
X-3202919Y2994408D01*
X-3202919Y2767662D01*
X392785Y2887352D02*
G01*
X392785Y2347602D01*
X519785Y2220602D01*
X691235Y2220602D01*
X756005Y2155832D01*
X756005Y1401452D01*
X313181Y2765432D02*
G01*
X313181Y2923319D01*
X355975Y2966112D01*
X595965Y2966112D01*
X644245Y2917832D01*
X745083Y1097414D02*
G01*
X875385Y1096652D01*
X-2467254Y3946532D02*
G01*
X-2229512Y3708786D01*
X-374545Y3708786D01*
X-374446Y3708687D01*
X-6350Y3708687D01*
X-2721254Y3946532D02*
G01*
X-2537104Y3762382D01*
X-2377846Y3762382D01*
X-2258461Y3643002D01*
X-2252184Y3636728D01*
X-191363Y3636728D01*
X-342795Y2191136D02*
G01*
X-342795Y3016412D01*
X-895357Y3568974D01*
X-2292337Y3568974D01*
X-2406650Y3683287D01*
X-3883812Y3402464D02*
G01*
X-3753002Y3402464D01*
X-3499764Y3655702D01*
X-3258464Y3655702D01*
X-3214014Y3700152D01*
X-3214014Y3724790D01*
X-3737254Y3946532D02*
G01*
X-3793159Y3946532D01*
X-4014063Y3725628D01*
X-4014063Y3338278D01*
X-3978325Y3302541D01*
X-3883812Y3302541D01*
X-3213963Y3724765D02*
G01*
X-3213963Y3731978D01*
X-3347313Y3865328D01*
X-3402050Y3865328D01*
X-3483254Y3946532D01*
X-3391763Y3731115D02*
G01*
X-3606800Y3731115D01*
X-3737254Y3861569D01*
X-3737254Y3946532D01*
X-3754986Y3522428D02*
G01*
X-3774848Y3502566D01*
X-3883761Y3502566D01*
D12*
X-1365402Y1717174D02*
G01*
X-1494688Y1587888D01*
X-1949348Y1587888D01*
X-2076348Y1714888D01*
X-2635148Y1714888D01*
X-2660548Y1740288D01*
X-1259230Y1611002D02*
G01*
X-1460398Y1410088D01*
X-1460398Y1041788D01*
X-1676298Y825888D01*
X-3060598Y825888D01*
X-1400708Y1752480D02*
G01*
X-1403756Y1752480D01*
X-1498498Y1657738D01*
X-1561998Y1657738D01*
X-1826666Y1922406D01*
X-1827682Y895738D02*
G01*
X-2958998Y895738D01*
X-3016656Y953142D01*
X-3016656Y976002D01*
X-3022879Y1395026D02*
G01*
X-3022879Y1359669D01*
X-2952645Y1289436D01*
X-1827677Y1289436D01*
D11*
X-981504Y2030227D02*
G01*
X-879904Y2131827D01*
X-879904Y2157227D01*
X-625904Y2411227D01*
X-625904Y2593827D01*
X-520700Y2699031D01*
X-520700Y2826037D01*
X-2213254Y3946532D02*
G01*
X-2045360Y3778638D01*
X-450748Y3778638D01*
X-425348Y3804038D01*
D13*
X644245Y3425832D02*
G01*
X313283Y3425832D01*
D11*
X-2146198Y2857888D02*
G01*
X-2146198Y2819788D01*
X-1898548Y2819788D01*
X-1415948Y2337188D01*
X-1415948Y2151514D01*
X-1294536Y2030102D01*
D12*
X-1830222Y751720D02*
G01*
X-2501544Y751720D01*
X-1826666Y1922406D02*
G01*
X-1949348Y2045088D01*
X-2431948Y2045088D01*
X-2461666Y2015370D01*
X-2495194Y2015370D01*
X-1827682Y1289438D02*
G01*
X-1722272Y1289438D01*
X-1329842Y1681868D01*
X-1847748Y2343538D02*
G01*
X-1820062Y2343538D01*
X-1400708Y1924184D01*
D11*
X-1259230Y2065662D02*
G01*
X-1320698Y2127130D01*
X-1320698Y2451488D01*
D14*
X-2146294Y2857787D02*
G01*
X-2124354Y2879732D01*
D12*
X-2501544Y2383670D02*
G01*
X-1888134Y2383670D01*
X-1847748Y2343538D01*
X-1294536Y1646562D02*
G01*
X-1523898Y1416438D01*
X-1523898Y1105288D01*
X-1733448Y895738D01*
X-1827682Y895738D01*
D13*
X-840127Y1787786D02*
G01*
X-840127Y1786539D01*
X-684504Y1630916D01*
X644245Y3171832D02*
G01*
X377545Y3171832D01*
X313283Y3107570D01*
X313283Y3095632D01*
D11*
X-1165250Y2562232D02*
G01*
X-1165250Y2473586D01*
X-1260754Y2378082D01*
X-1260754Y2137798D01*
X-1223924Y2100968D01*
X-946144Y1994875D02*
G01*
X-800783Y2140237D01*
X-800100Y2140237D01*
X-1188618Y2136274D02*
G01*
X-1188618Y2240922D01*
X-1123848Y2305692D01*
X-1017422Y2399164D02*
G01*
X-1017422Y2275974D01*
X-1087526Y2205870D01*
X-1087526Y2136274D01*
X-875436Y1924184D02*
G01*
X-824382Y1975238D01*
X-742960Y1975126D01*
X-692048Y2026038D01*
X-1016914Y2065662D02*
G01*
X-939698Y2142624D01*
X-939698Y2184788D01*
X-888898Y2235588D01*
X-840079Y1888802D02*
G01*
X-646074Y1888802D01*
X-342910Y2191026D01*
D13*
X-844550Y1644937D02*
G01*
X-844550Y1650977D01*
X-910747Y1717174D01*
D12*
X-1223924Y1575696D02*
G01*
X-1396898Y1402722D01*
X-1396898Y982606D01*
X-1627784Y751720D01*
X-1830222Y751720D01*
X-1365402Y1959490D02*
G01*
X-1844446Y2438788D01*
X-2622448Y2438788D01*
D13*
X-761136Y1143292D02*
G01*
X-860226Y1143292D01*
X-896213Y1179278D01*
X-896213Y1561142D01*
X-981506Y1646435D01*
X-844550Y1644937D02*
G01*
X-844550Y1527665D01*
X-761989Y1445105D01*
X-761989Y1318994D01*
X-684504Y1630916D02*
G01*
X-562127Y1753293D01*
X-562127Y1759592D01*
X-455594Y1653067D02*
G01*
X-408302Y1653067D01*
X-276377Y1784992D01*
X-169849Y1678465D02*
G01*
X-149865Y1678465D01*
X-36047Y1792282D01*
X-156210Y1912475D02*
G01*
X-409244Y1912475D01*
X-562129Y1759590D01*
X-1087577Y1540365D02*
G01*
X-1087577Y1534015D01*
X-1124813Y1496778D01*
X-1124813Y1465028D01*
X-350113Y1712678D02*
G01*
X-350113Y1699978D01*
X-191363Y1541228D01*
X-19913Y1541228D01*
X-13563Y1534878D01*
X-1016914Y1611002D02*
G01*
X-959764Y1553852D01*
X-959764Y1164470D01*
X-993546Y1130688D01*
X-1067714Y1130688D01*
X-1052220Y1575696D02*
G01*
X-1010564Y1534040D01*
X-1010564Y1378338D01*
X-1074064Y1314838D01*
X-102463Y3585928D02*
G01*
X-102463Y3255728D01*
X-96113Y2912828D02*
G01*
X-96113Y3255728D01*
X-425450Y3340387D02*
G01*
X-102463Y3340387D01*
X18186Y3579578D02*
G01*
X162509Y3435256D01*
X162509Y3425832D01*
X18186Y3249378D02*
G01*
X162509Y3105056D01*
X162509Y3095632D01*
X18186Y2906478D02*
G01*
X159232Y2765432D01*
X162509Y2765432D01*
D11*
X-910798Y1959516D02*
G01*
X-809198Y2061116D01*
X-764921Y2061116D01*
X-527050Y2298987D01*
X-2709859Y-4274D02*
G01*
X-2636113Y-78021D01*
X-2636113Y-189870D01*
X-2816504Y102242D02*
G01*
X-2684424Y233306D01*
D12*
X-3005226Y2569852D02*
G01*
X-3005226Y2554612D01*
X-2946298Y2495938D01*
X-1822348Y2495938D01*
X-1329842Y2003432D01*
X-1329842Y1994796D01*
D11*
X-1460124Y590349D02*
G01*
X-1301374Y590349D01*
X-1460124Y439676D02*
G01*
X-1560611Y439676D01*
X-1560611Y439676D02*
G01*
X-1783110Y439676D01*
X-2152650Y70137D01*
X-2337562Y70137D01*
X-1301374Y590349D02*
G01*
X-1071910Y590349D01*
X-933074Y451512D01*
D16*
G01*
X-96102Y3579578D03*
G01*
X-96102Y3249378D03*
G01*
X-96102Y2906478D03*
D17*
G01*
X18197Y3579578D03*
G01*
X18197Y3249378D03*
D16*
G01*
X18197Y2906478D03*
D18*
G01*
X-1454150Y-285589D03*
G01*
X-1454150Y-425594D03*
D19*
G01*
X-388340Y-342892D03*
D20*
G01*
X-1046734Y-115613D03*
G01*
X-1046734Y-570171D03*
D21*
G01*
X-3581654Y3203303D03*
G01*
X-3581654Y3138279D03*
G01*
X-3581654Y3073280D03*
G01*
X-3581654Y3008282D03*
G01*
X-2996234Y3203303D03*
G01*
X-2996234Y3138279D03*
G01*
X-2996234Y3073280D03*
G01*
X-2996234Y3008282D03*
D22*
G01*
X-3229533Y509252D03*
G01*
X-3294557Y509252D03*
G01*
X-3359556Y509252D03*
G01*
X-3424555Y509252D03*
G01*
X-3229533Y-76166D03*
G01*
X-3294557Y-76166D03*
G01*
X-3359556Y-76166D03*
G01*
X-3424555Y-76166D03*
D23*
G01*
X-3196945Y1001707D03*
G01*
X-3516960Y1001707D03*
G01*
X-3203295Y2538407D03*
G01*
X-3523310Y2538407D03*
D24*
G01*
X-2636088Y-359757D03*
G01*
X-2636088Y-189755D03*
D25*
G01*
X-35999Y1792378D03*
G01*
X-156207Y1912586D03*
D26*
G01*
X-1460124Y590337D03*
D27*
G01*
X-1460119Y439681D03*
D26*
G01*
X-1301374Y439687D03*
D27*
G01*
X-1301369Y590329D03*
D18*
G01*
X-3073019Y159265D03*
G01*
X-3073019Y299270D03*
G01*
X-2806319Y3131065D03*
G01*
X-2806319Y3271070D03*
D23*
G01*
X-3202940Y2767667D03*
G01*
X-3522929Y2767667D03*
G01*
X-3196945Y773107D03*
G01*
X-3516960Y773107D03*
D28*
G01*
X745185Y897542D03*
G01*
X745185Y997541D03*
G01*
X745185Y1097541D03*
G01*
X745185Y1197541D03*
G01*
X745185Y1297541D03*
G01*
X745185Y1397541D03*
D29*
G01*
X1132687Y1527512D03*
G01*
X1132687Y767544D03*
D28*
G01*
X-3883761Y3502566D03*
G01*
X-3883761Y3602565D03*
G01*
X-3883812Y3302541D03*
G01*
X-3883812Y3402540D03*
D30*
G01*
X-4271314Y3732588D03*
G01*
X-4271365Y3172569D03*
D31*
G01*
X-169851Y1678466D03*
G01*
X-276376Y1784991D03*
D32*
G01*
X-684507Y1630923D03*
G01*
X-585513Y1531929D03*
D33*
G01*
X-1165352Y2562232D03*
G01*
X-1305356Y2562232D03*
D34*
G01*
X-1116195Y2300391D03*
G01*
X-1017201Y2399385D03*
D16*
G01*
X-1218333Y1130576D03*
G01*
X-1067686Y1130576D03*
G01*
X-761987Y1318978D03*
G01*
X-611339Y1318978D03*
D35*
G01*
X-562126Y1759591D03*
G01*
X-455601Y1653066D03*
D17*
G01*
X-610486Y1143276D03*
G01*
X-761133Y1143276D03*
D16*
G01*
X-1224683Y1314726D03*
G01*
X-1074036Y1314726D03*
D34*
G01*
X-1465557Y2909879D03*
G01*
X-1366563Y3008873D03*
D36*
G01*
X-1662963Y70137D03*
G01*
X-2337562Y70137D03*
G01*
X-1770913Y3257837D03*
G01*
X-2445512Y3257837D03*
D37*
G01*
X-2721838Y2286337D03*
D38*
G01*
X-2501747Y2188827D03*
G01*
X-2501747Y2253851D03*
G01*
X-2501747Y2318824D03*
G01*
X-2501747Y2383823D03*
D39*
G01*
X-2785140Y2667337D03*
D38*
G01*
X-3005226Y2764823D03*
G01*
X-3005226Y2699824D03*
G01*
X-3005226Y2634851D03*
G01*
X-3005226Y2569827D03*
D39*
G01*
X-2802801Y1492526D03*
D38*
G01*
X-3022879Y1590022D03*
G01*
X-3022879Y1525023D03*
G01*
X-3022879Y1460025D03*
G01*
X-3022879Y1395026D03*
D37*
G01*
X-2715369Y1917976D03*
D38*
G01*
X-2495270Y1820476D03*
G01*
X-2495270Y1885475D03*
G01*
X-2495270Y1950473D03*
G01*
X-2495270Y2015472D03*
D39*
G01*
X-2796451Y1073426D03*
D38*
G01*
X-3016529Y1170922D03*
G01*
X-3016529Y1105923D03*
G01*
X-3016529Y1040925D03*
G01*
X-3016529Y975926D03*
D37*
G01*
X-2721719Y654326D03*
D38*
G01*
X-2501620Y556826D03*
G01*
X-2501620Y621825D03*
G01*
X-2501620Y686823D03*
G01*
X-2501620Y751822D03*
D34*
G01*
X-1338557Y2770179D03*
G01*
X-1239563Y2869173D03*
D33*
G01*
X-2152497Y2616487D03*
G01*
X-2292502Y2616487D03*
G01*
X-2324252Y1581437D03*
G01*
X-2184247Y1581437D03*
G01*
X-2177897Y1143287D03*
G01*
X-2317902Y1143287D03*
D40*
G01*
X-1138044Y1838332D03*
D41*
G01*
X-1188516Y2136294D03*
D42*
G01*
X-1223872Y2100939D03*
G01*
X-1259229Y2065583D03*
D41*
G01*
X-1294582Y2030229D03*
D43*
G01*
X-1329940Y1994870D03*
D42*
G01*
X-1365295Y1959516D03*
D43*
G01*
X-1400651Y1924160D03*
D42*
G01*
X-1436005Y1888804D03*
D44*
G01*
X-1436005Y1787861D03*
D45*
G01*
X-1400648Y1752506D03*
D44*
G01*
X-1365294Y1717149D03*
D46*
G01*
X-1329940Y1681793D03*
D47*
G01*
X-1294582Y1646438D03*
G01*
X-1259227Y1611082D03*
D44*
G01*
X-1223872Y1575727D03*
D46*
G01*
X-1188516Y1540371D03*
D41*
G01*
X-1087572Y1540370D03*
D43*
G01*
X-1052216Y1575725D03*
D42*
G01*
X-1016859Y1611081D03*
D43*
G01*
X-981506Y1646435D03*
D42*
G01*
X-946148Y1681794D03*
D41*
G01*
X-910793Y1717149D03*
D42*
G01*
X-875437Y1752504D03*
G01*
X-840083Y1787860D03*
D46*
G01*
X-840083Y1888803D03*
G01*
X-875440Y1924159D03*
G01*
X-910794Y1959516D03*
G01*
X-946148Y1994871D03*
G01*
X-981506Y2030227D03*
G01*
X-1016861Y2065582D03*
D47*
G01*
X-1052216Y2100938D03*
D46*
G01*
X-1087572Y2136293D03*
D17*
G01*
X313170Y3425832D03*
G01*
X162520Y3425832D03*
G01*
X313170Y3095632D03*
G01*
X162520Y3095632D03*
G01*
X313170Y2765432D03*
G01*
X162520Y2765432D03*
D26*
G01*
X-3391763Y3731103D03*
D27*
G01*
X-3391763Y3580442D03*
D26*
G01*
X-3213963Y3724753D03*
D27*
G01*
X-3213963Y3574092D03*
D35*
G01*
X-2816376Y102241D03*
G01*
X-2709851Y-4283D03*
D48*
G01*
X-4170781Y-634712D03*
D49*
G01*
X-4170781Y-475912D03*
G01*
X-4170781Y-793513D03*
G01*
X-4011980Y-634712D03*
G01*
X-4329582Y-634712D03*
G01*
X-4058488Y-522419D03*
G01*
X-4283075Y-522419D03*
G01*
X-4283075Y-747006D03*
G01*
X-4058488Y-747006D03*
D48*
G01*
X-4170781Y127287D03*
D49*
G01*
X-4170781Y286087D03*
G01*
X-4170781Y-31513D03*
G01*
X-4011980Y127287D03*
G01*
X-4329582Y127287D03*
G01*
X-4058488Y239580D03*
G01*
X-4283075Y239580D03*
G01*
X-4283075Y14993D03*
G01*
X-4058488Y14993D03*
D48*
G01*
X-4170781Y980727D03*
D49*
G01*
X-4170781Y1139527D03*
G01*
X-4170781Y821926D03*
G01*
X-4011980Y980727D03*
G01*
X-4329582Y980727D03*
G01*
X-4058488Y1093020D03*
G01*
X-4283075Y1093020D03*
G01*
X-4283075Y868433D03*
G01*
X-4058488Y868433D03*
D48*
G01*
X-4170781Y1730738D03*
D49*
G01*
X-4170781Y1889539D03*
G01*
X-4170781Y1571937D03*
G01*
X-4011980Y1730738D03*
G01*
X-4329582Y1730738D03*
G01*
X-4058488Y1843031D03*
G01*
X-4283075Y1843031D03*
G01*
X-4283075Y1618444D03*
G01*
X-4058488Y1618444D03*
D48*
G01*
X-4170781Y2480724D03*
D49*
G01*
X-4170781Y2639524D03*
G01*
X-4170781Y2321923D03*
G01*
X-4011980Y2480724D03*
G01*
X-4329582Y2480724D03*
G01*
X-4058488Y2593017D03*
G01*
X-4283075Y2593017D03*
G01*
X-4283075Y2368430D03*
G01*
X-4058488Y2368430D03*
D50*
G01*
X-1070254Y3946532D03*
D51*
G01*
X-816254Y3946532D03*
G01*
X-562254Y3946532D03*
G01*
X-308254Y3946532D03*
G01*
X-54254Y3946532D03*
G01*
X199745Y3946532D03*
G01*
X453745Y3946532D03*
G01*
X707745Y3946532D03*
G01*
X-1451254Y3946532D03*
G01*
X-1705254Y3946532D03*
G01*
X-1959254Y3946532D03*
G01*
X-2213254Y3946532D03*
G01*
X-2467254Y3946532D03*
G01*
X-2721254Y3946532D03*
G01*
X-2975254Y3946532D03*
G01*
X-3229254Y3946532D03*
G01*
X-3483254Y3946532D03*
D50*
G01*
X-3737254Y3946532D03*
D51*
G01*
X707745Y-854067D03*
G01*
X453745Y-854067D03*
G01*
X199745Y-854067D03*
G01*
X-54254Y-854067D03*
G01*
X-308254Y-854067D03*
D50*
G01*
X-562254Y-854067D03*
G01*
X-2848254Y-854067D03*
D51*
G01*
X-2594254Y-854067D03*
G01*
X-2340254Y-854067D03*
G01*
X-2086254Y-854067D03*
G01*
X-1832254Y-854067D03*
G01*
X-1578254Y-854067D03*
G01*
X-1324254Y-854067D03*
G01*
X-1070254Y-854067D03*
D52*
G01*
X644245Y2409832D03*
G01*
X644245Y2663832D03*
G01*
X644245Y2917832D03*
G01*
X644245Y3171832D03*
D53*
G01*
X644245Y3425832D03*
D54*
G01*
X1009345Y-408068D03*
G01*
X1009345Y2391925D03*
D55*
G01*
X-1828800Y2502187D03*
G01*
X-1847748Y2343538D03*
G01*
X-1826666Y1922406D03*
G01*
X-1827682Y1289438D03*
G01*
X-1827682Y895738D03*
G01*
X-1830222Y751720D03*
D56*
G01*
X-2451100Y1632237D03*
G01*
X-2609850Y1625887D03*
G01*
X-2527300Y1632237D03*
G01*
X-1290447Y1838332D03*
G01*
X-1138047Y1990732D03*
G01*
X-1138047Y1685932D03*
G01*
X-985647Y1838332D03*
G01*
X-1136650Y1835437D03*
G01*
X-2349500Y2318037D03*
G01*
X-2311400Y2260887D03*
G01*
X-2085340Y2258347D03*
G01*
X-2120900Y2197387D03*
G01*
X-2159000Y2141507D03*
G01*
X-2127250Y2311687D03*
G01*
X-2235200Y2144047D03*
G01*
X-2306320Y2144047D03*
G01*
X-2085340Y2138967D03*
G01*
X-2343150Y2203737D03*
G01*
X-2273300Y2311687D03*
G01*
X-2235200Y2255807D03*
G01*
X-2273300Y2199927D03*
G01*
X-2197100Y2311687D03*
G01*
X-2164080Y2253267D03*
G01*
X-2197100Y2197387D03*
G01*
X-2603500Y1498887D03*
G01*
X-2451100Y1492537D03*
G01*
X-2482850Y1562387D03*
G01*
X-2527300Y1492537D03*
G01*
X-2559888Y1560177D03*
G01*
X-2565400Y1429037D03*
G01*
X-2482850Y1422687D03*
G01*
X-2609850Y1359187D03*
G01*
X-2527300Y1359187D03*
G01*
X-2457450Y1359187D03*
G01*
X-3422650Y2229137D03*
G01*
X-3422650Y2318037D03*
G01*
X-4019550Y2216157D03*
G01*
X-3689350Y2647957D03*
G01*
X-3810000Y2635257D03*
G01*
X-3397250Y2647957D03*
G01*
X-3486150Y2368837D03*
G01*
X-3486150Y2279937D03*
G01*
X-3435350Y1778287D03*
G01*
X-3435350Y1689387D03*
G01*
X-3435350Y1587787D03*
G01*
X-3435350Y1486187D03*
G01*
X-3498850Y1829087D03*
G01*
X-3498850Y1740187D03*
G01*
X-3498850Y1638587D03*
G01*
X-3498850Y1536987D03*
G01*
X-3854551Y1175824D03*
G01*
X-3702151Y1264724D03*
G01*
X-3702151Y1163124D03*
G01*
X-3854551Y1074224D03*
G01*
X-3854551Y1264724D03*
G01*
X-3777538Y1320121D03*
G01*
X-3777538Y1218521D03*
G01*
X-3777538Y1116921D03*
G01*
X-3549650Y2229137D03*
G01*
X-3549650Y2318037D03*
G01*
X-3911600Y2654307D03*
G01*
X-3676650Y2857507D03*
G01*
X-3562350Y1778287D03*
G01*
X-3562350Y1689387D03*
G01*
X-3562350Y1587787D03*
G01*
X-3562350Y1486187D03*
G01*
X-3930751Y1226624D03*
G01*
X-3930751Y1315524D03*
G01*
X-3702151Y1074224D03*
G01*
X-4006951Y1264724D03*
G01*
X-2489200Y2889537D03*
G01*
X-2340254Y2854332D03*
G01*
X-2279650Y2933987D03*
G01*
X-2247900Y2857787D03*
G01*
X-2178050Y2933987D03*
G01*
X-2146300Y2857787D03*
G01*
X-1822450Y228887D03*
G01*
X-1758950Y317787D03*
G01*
X-1670050Y317787D03*
G01*
X-1720850Y228887D03*
G01*
X-1619250Y228887D03*
G01*
X-1771650Y-75912D03*
G01*
X-1670050Y-75912D03*
G01*
X-1720850Y-164812D03*
G01*
X-1631950Y-164812D03*
G01*
X-1568450Y-75912D03*
G01*
X-1670050Y2984787D03*
G01*
X-1771650Y2984787D03*
G01*
X-1873250Y2984787D03*
G01*
X-1771650Y3391187D03*
G01*
X-1860550Y3391187D03*
G01*
X-825500Y2806987D03*
D57*
G01*
X-2705100Y3740437D03*
G01*
X-1061313Y-351071D03*
G01*
X-425450Y3340387D03*
G01*
X898245Y161932D03*
G01*
X390245Y1685932D03*
G01*
X390245Y161932D03*
G01*
X-64363Y2398478D03*
G01*
X0Y1962437D03*
G01*
X-117754Y161932D03*
G01*
X330200Y755657D03*
G01*
X898245Y669932D03*
G01*
X-625754Y669932D03*
G01*
X-625754Y161932D03*
G01*
X-330200Y3232437D03*
G01*
X-1093063Y3211278D03*
G01*
X-1133754Y669932D03*
G01*
X-1133754Y161932D03*
G01*
X-1296263Y-338371D03*
G01*
X390245Y1177932D03*
G01*
X-1276350Y3861087D03*
G01*
X-1320800Y3441987D03*
D56*
G01*
X-2044319Y2313719D03*
G01*
X-2006219Y2256569D03*
G01*
X-2050669Y2199419D03*
G01*
X-1968119Y2199419D03*
G01*
X-2012569Y2142269D03*
D57*
G01*
X-1524000Y1867187D03*
G01*
X-609600Y3003837D03*
G01*
X-400050Y984537D03*
G01*
X-844550Y1644937D03*
D56*
G01*
X-2552700Y292387D03*
G01*
X-2641600Y292387D03*
G01*
X-2743200Y292387D03*
G01*
X-2514600Y368587D03*
G01*
X-2603500Y368587D03*
G01*
X-2705100Y368587D03*
G01*
X-2654300Y432087D03*
G01*
X-2552700Y432087D03*
G01*
X-2743200Y432087D03*
G01*
X-2473960Y433077D03*
G01*
X-2777820Y369120D03*
G01*
X-2096846Y2936908D03*
G01*
X-2451100Y2959387D03*
G01*
X-2540000Y2959387D03*
G01*
X-2622550Y2959387D03*
G01*
X-2673350Y2895887D03*
G01*
X-2578100Y2889537D03*
G01*
X-2857500Y2743487D03*
G01*
X-2863850Y2603787D03*
G01*
X-2774950Y2743487D03*
G01*
X-2774950Y2603787D03*
G01*
X-2870200Y1562387D03*
G01*
X-2787650Y1562387D03*
G01*
X-2870200Y1422687D03*
G01*
X-2787650Y1422687D03*
G01*
X-2876550Y1136937D03*
G01*
X-2787650Y1136937D03*
G01*
X-2787650Y1003587D03*
G01*
X-2876550Y1003587D03*
G01*
X-2628900Y1206787D03*
G01*
X-2546350Y1206787D03*
G01*
X-2463495Y1211816D03*
G01*
X-2501900Y1155987D03*
G01*
X-2584450Y1155987D03*
G01*
X-2622550Y1098837D03*
G01*
X-2540000Y1098837D03*
G01*
X-2463800Y1092487D03*
G01*
X-2501900Y1028987D03*
G01*
X-2578100Y1035337D03*
G01*
X-2628900Y978187D03*
G01*
X-2546350Y971837D03*
G01*
X-2463800Y978187D03*
G01*
X-2843606Y1645648D03*
G01*
X-2722245Y1646588D03*
G01*
X-2768600Y1225837D03*
G01*
X-2876550Y1225811D03*
G01*
X-2444750Y2826037D03*
G01*
X-2527300Y2826037D03*
G01*
X-2612009Y2824894D03*
G01*
X-2562047Y2759184D03*
G01*
X-2485009Y2761394D03*
G01*
X-2605659Y2697894D03*
G01*
X-2529459Y2691544D03*
G01*
X-2768600Y2895887D03*
G01*
X-2482850Y2629187D03*
G01*
X-2565400Y2629187D03*
G01*
X-2609850Y2565687D03*
G01*
X-2527300Y2565687D03*
G01*
X-2857500Y2895887D03*
G01*
X-2810510Y2964136D03*
G01*
X-2713609Y2960377D03*
G01*
X-2018919Y1780319D03*
G01*
X-1974469Y1837469D03*
G01*
X-2057019Y1837469D03*
G01*
X-2012569Y1894619D03*
G01*
X-2050669Y1951769D03*
G01*
X-2203450Y1835437D03*
G01*
X-2170430Y1891317D03*
G01*
X-2203450Y1949737D03*
G01*
X-2279650Y1837977D03*
G01*
X-2241550Y1893857D03*
G01*
X-2279650Y1949737D03*
G01*
X-2349500Y1835437D03*
G01*
X-2091690Y1777017D03*
G01*
X-2312670Y1782097D03*
G01*
X-2241550Y1782097D03*
G01*
X-2133600Y1949737D03*
G01*
X-2165350Y1779557D03*
G01*
X-2127250Y1835437D03*
G01*
X-2091690Y1896397D03*
G01*
X-2317750Y1898937D03*
G01*
X-2349500Y1962437D03*
G01*
X-2006219Y510319D03*
G01*
X-1961769Y567469D03*
G01*
X-2044319Y567469D03*
G01*
X-1999869Y624619D03*
G01*
X-2037969Y681769D03*
G01*
X-2190750Y565437D03*
G01*
X-2157730Y621317D03*
G01*
X-2190750Y679737D03*
G01*
X-2266950Y567977D03*
G01*
X-2228850Y623857D03*
G01*
X-2266950Y679737D03*
G01*
X-2343150Y565437D03*
G01*
X-2078990Y507017D03*
G01*
X-2299970Y512097D03*
G01*
X-2228850Y512097D03*
G01*
X-2120900Y679737D03*
G01*
X-2152650Y509557D03*
G01*
X-2114550Y565437D03*
G01*
X-2078990Y626397D03*
G01*
X-2305050Y628937D03*
G01*
X-2343150Y679737D03*
G01*
X-2448229Y2701196D03*
G01*
X-2451100Y2565687D03*
D57*
G01*
X-2012950Y1213137D03*
G01*
X-2012950Y1124237D03*
G01*
X-2012950Y1035337D03*
G01*
X-1993925Y1441737D03*
G01*
X-2082825Y1441737D03*
G01*
X-2171725Y1441737D03*
G01*
X-2012950Y2578387D03*
G01*
X-2012950Y2660937D03*
G01*
X-2012950Y2743487D03*
G01*
X-1492250Y2565687D03*
G01*
X-1619250Y2692687D03*
G01*
X-1625600Y2400587D03*
D56*
G01*
X-1955800Y686087D03*
G01*
X-1917700Y628937D03*
G01*
X-1879600Y571787D03*
G01*
X-1924050Y514637D03*
G01*
X-1962150Y1956087D03*
G01*
X-1924050Y1898937D03*
G01*
X-1885950Y1841787D03*
G01*
X-1930400Y1784637D03*
G01*
X-1955800Y2311687D03*
G01*
X-1917700Y2254537D03*
G01*
X-1879600Y2197387D03*
G01*
X-1924050Y2140237D03*
D57*
G01*
X-4141063Y2982678D03*
G01*
X-2780919Y3366168D03*
D56*
G01*
X-1968500Y1727487D03*
G01*
X-1879600Y1733837D03*
G01*
X-1847850Y508287D03*
G01*
X-2952750Y2266957D03*
G01*
X-2952750Y2368557D03*
G01*
X-3260572Y2312449D03*
G01*
X-3260572Y2223549D03*
G01*
X-3197072Y2274349D03*
G01*
X-3197072Y2363249D03*
G01*
X-3016250Y2317757D03*
G01*
X-3016250Y2216157D03*
G01*
X-3079750Y2266957D03*
G01*
X-3079750Y2368557D03*
G01*
X-3133572Y2312449D03*
G01*
X-3133572Y2223549D03*
G01*
X-2908300Y717557D03*
G01*
X-2908300Y819157D03*
G01*
X-3130194Y1232110D03*
G01*
X-3130194Y1321010D03*
G01*
X-3193694Y1270210D03*
G01*
X-3193694Y1181310D03*
G01*
X-2971800Y768357D03*
G01*
X-3035300Y717557D03*
G01*
X-3035300Y819157D03*
G01*
X-3257194Y1232110D03*
G01*
X-3257194Y1321010D03*
D57*
G01*
X-2730500Y2349787D03*
G01*
X-2641600Y2349787D03*
G01*
X-2641600Y2229137D03*
G01*
X-2736850Y2229137D03*
G01*
X-2730500Y1981487D03*
G01*
X-2635250Y1981487D03*
G01*
X-2635250Y1848137D03*
G01*
X-2730500Y1848137D03*
G01*
X-2749550Y730537D03*
G01*
X-2641600Y730537D03*
G01*
X-2641600Y578137D03*
G01*
X-2749550Y578137D03*
D56*
G01*
X-3708298Y2787606D03*
G01*
X-3759098Y2851106D03*
G01*
X-3759098Y2724106D03*
G01*
X-3860698Y2724106D03*
G01*
X-3809898Y2787606D03*
G01*
X-3860698Y2851106D03*
G01*
X-3911498Y2787606D03*
G01*
X-3962298Y2724106D03*
G01*
X-4051198Y2724106D03*
G01*
X-4000398Y2787606D03*
G01*
X-3962298Y2851106D03*
G01*
X-4051198Y2851106D03*
G01*
X-3613150Y1911637D03*
G01*
X-3670300Y2070387D03*
G01*
X-3670300Y1962437D03*
G01*
X-3606800Y2019587D03*
G01*
X-3731260Y2018317D03*
G01*
X-3494938Y2012906D03*
G01*
X-3431438Y1962106D03*
G01*
X-3431438Y1860506D03*
G01*
X-3494938Y1911306D03*
G01*
X-3558438Y1860506D03*
G01*
X-3558438Y1962106D03*
G01*
X-3548278Y2073866D03*
G01*
X-3433978Y2073866D03*
G01*
X-3673652Y676384D03*
G01*
X-3826052Y676384D03*
G01*
X-3749040Y719081D03*
G01*
X-3673652Y765284D03*
G01*
X-3891737Y722434D03*
G01*
X-3968750Y679737D03*
G01*
X-4090289Y1316540D03*
G01*
X-3778250Y1022637D03*
D57*
G01*
X-889000Y2235487D03*
G01*
X-800100Y2140237D03*
G01*
X-692150Y2025937D03*
G01*
X-527050Y2514887D03*
G01*
X-2070100Y3378487D03*
G01*
X-520700Y2826037D03*
G01*
X-1447800Y3232437D03*
G01*
X-527050Y2298987D03*
G01*
X-2406650Y3683287D03*
G01*
X-419100Y1422687D03*
G01*
X254000Y3308637D03*
G01*
X392836Y2887428D03*
G01*
X-6350Y3708687D03*
G01*
X-31750Y2743487D03*
G01*
X152400Y2584737D03*
G01*
X-425450Y3803937D03*
G01*
X-191363Y3636728D03*
G01*
X-959713Y3471628D03*
G01*
X-730250Y3549937D03*
D56*
G01*
X-2684526Y233433D03*
G01*
X-2590800Y222537D03*
D57*
G01*
X234086Y2106378D03*
D56*
G01*
X-3937000Y800107D03*
G01*
X-3841750Y781057D03*
G01*
X-4076700Y692157D03*
G01*
X-3390900Y895357D03*
G01*
X-3441903Y1164165D03*
G01*
X-3594303Y1176865D03*
G01*
X-3517290Y1219563D03*
G01*
X-3441903Y1265765D03*
G01*
X-3517290Y1321163D03*
G01*
X-3594303Y1265765D03*
G01*
X-3651859Y1333482D03*
G01*
X-3708400Y1797337D03*
G01*
X-3771900Y1556037D03*
G01*
X-3771900Y1657637D03*
G01*
X-3771900Y1746537D03*
G01*
X-3708400Y1505237D03*
G01*
X-3708400Y1606837D03*
G01*
X-3708400Y1708437D03*
G01*
X-3683000Y1873537D03*
G01*
X-3644900Y1556037D03*
G01*
X-3644900Y1657637D03*
G01*
X-3644900Y1746537D03*
G01*
X-3988841Y2019510D03*
G01*
X-3927881Y1963630D03*
G01*
X-3927881Y2071580D03*
G01*
X-3870731Y1912830D03*
G01*
X-3864381Y2020780D03*
G01*
X-3816019Y1963300D03*
G01*
X-3805859Y2075060D03*
G01*
X-3816019Y1861700D03*
G01*
X-3749243Y1916005D03*
G01*
X-3739921Y2573002D03*
G01*
X-3739921Y2471402D03*
G01*
X-3739921Y2369802D03*
G01*
X-3739921Y2280902D03*
G01*
X-3676421Y2331702D03*
G01*
X-3676421Y2420602D03*
G01*
X-3676421Y2522202D03*
G01*
X-3676650Y2235487D03*
G01*
X-3937000Y2317757D03*
G01*
X-3930650Y2222507D03*
G01*
X-3612921Y2369802D03*
G01*
X-3612921Y2280902D03*
G01*
X-3801973Y2235487D03*
G01*
X-3801745Y2522202D03*
G01*
X-3801745Y2420602D03*
G01*
X-3801745Y2331702D03*
G01*
X-3865245Y2280902D03*
G01*
X-3865245Y2369802D03*
G01*
X-3865245Y2471402D03*
G01*
X-3865245Y2573002D03*
G01*
X-3778758Y838258D03*
G01*
X-3702659Y889845D03*
G01*
X-3778046Y932543D03*
G01*
X-3855059Y889845D03*
G01*
X-3855059Y991445D03*
G01*
X-3702659Y978745D03*
G01*
X-1949450Y3391187D03*
G01*
X-1924050Y3048287D03*
G01*
X-1822450Y3048287D03*
G01*
X-1720850Y3048287D03*
D57*
G01*
X-13563Y1534878D03*
G01*
X-1131163Y1452328D03*
G01*
X-350113Y1712678D03*
G01*
X-1137513Y937978D03*
G01*
X-3314319Y3213768D03*
G01*
X-1061313Y-427271D03*
G01*
X-1352550Y-622292D03*
G01*
X-3028569Y-196181D03*
G01*
X-824814Y-513961D03*
G01*
X-2990469Y3283618D03*
G01*
X-3455263Y3554178D03*
G01*
X-3163163Y3554178D03*
G01*
X-4179163Y3979628D03*
G01*
X-4191863Y3458928D03*
G01*
X-3912463Y3954228D03*
G01*
X-3823563Y3027128D03*
G01*
X-3754983Y3522428D03*
G01*
X-3823563Y3681178D03*
G01*
X875436Y1096728D03*
G01*
X837336Y988778D03*
G01*
X825880Y1296068D03*
G01*
X819530Y1200818D03*
G01*
X-3123819Y3099468D03*
G01*
X-3339719Y3029618D03*
G01*
X-3314319Y3391568D03*
G01*
X-3111119Y3391568D03*
G01*
X-3009519Y-75531D03*
G01*
X-933069Y451518D03*
G01*
X546201Y612147D03*
G01*
X0Y7D03*
G01*
X-640969Y572168D03*
G01*
X-622300Y273057D03*
G01*
X-1257300Y-114292D03*
G01*
X-1560601Y439681D03*
G01*
X-1320800Y133357D03*
M02*
