G04 Layer: BottomSolderMaskLayer*
G04 EasyEDA v6.5.44, 2024-08-23 15:43:18*
G04 30d174a4fb68472d9a5c4a5b8d6f4b16,2865ae9118a24060a17af6d01c9bcc73,10*
G04 Gerber Generator version 0.2*
G04 Scale: 100 percent, Rotated: No, Reflected: No *
G04 Dimensions in millimeters *
G04 leading zeros omitted , absolute positions ,4 integer and 5 decimal *
%FSLAX45Y45*%
%MOMM*%

%AMMACRO1*4,1,8,-0.4243,-0.4828,-0.454,-0.453,-0.454,0.4531,-0.4243,0.4828,0.4243,0.4828,0.454,0.4531,0.454,-0.453,0.4243,-0.4828,-0.4243,-0.4828,0*%
%AMMACRO2*4,1,8,-0.4531,-0.454,-0.4828,-0.4243,-0.4828,0.4243,-0.4531,0.454,0.453,0.454,0.4828,0.4243,0.4828,-0.4243,0.453,-0.454,-0.4531,-0.454,0*%
%AMMACRO3*4,1,8,-0.4243,-0.4541,-0.4541,-0.4243,-0.4541,0.4243,-0.4243,0.4541,0.4243,0.4541,0.4541,0.4243,0.4541,-0.4243,0.4243,-0.4541,-0.4243,-0.4541,0*%
%AMMACRO4*4,1,8,-0.9211,-0.9508,-0.9508,-0.921,-0.9508,0.9211,-0.9211,0.9508,0.921,0.9508,0.9508,0.9211,0.9508,-0.921,0.921,-0.9508,-0.9211,-0.9508,0*%
%AMMACRO5*4,1,8,-0.8085,-0.8382,-0.8382,-0.8084,-0.8382,0.8085,-0.8085,0.8382,0.8084,0.8382,0.8382,0.8085,0.8382,-0.8084,0.8084,-0.8382,-0.8085,-0.8382,0*%
%ADD10MACRO1*%
%ADD11MACRO2*%
%ADD12MACRO3*%
%ADD13C,4.1016*%
%ADD14C,0.6100*%
%ADD15MACRO4*%
%ADD16C,1.9016*%
%ADD17C,1.9620*%
%ADD18C,1.6764*%
%ADD19MACRO5*%
%ADD20C,3.4032*%
%ADD21C,0.7016*%

%LPD*%
D10*
G01*
X-590558Y-2781294D03*
G01*
X-711208Y-2781294D03*
G01*
X-590558Y-2908294D03*
D11*
G01*
X704839Y-2806703D03*
G01*
X819129Y-2806719D03*
G01*
X927089Y-2806703D03*
G01*
X1168389Y-2806703D03*
G01*
X1282679Y-2806719D03*
G01*
X1390639Y-2806703D03*
G01*
X196839Y1249993D03*
G01*
X88905Y1250003D03*
G01*
X-25410Y1249993D03*
G01*
X990589Y1249993D03*
G01*
X882655Y1250003D03*
G01*
X768339Y1249993D03*
G01*
X-355610Y1249993D03*
G01*
X-469894Y1250003D03*
G01*
X-584210Y1249993D03*
G01*
X-955532Y1249993D03*
G01*
X-1063467Y1250003D03*
G01*
X-1177782Y1249993D03*
G01*
X-1060444Y1149356D03*
D10*
G01*
X1295406Y-2038355D03*
G01*
X1295421Y-2146315D03*
D11*
G01*
X1555744Y812801D03*
G01*
X1450002Y812791D03*
D12*
G01*
X1346200Y812800D03*
D11*
G01*
X1346205Y1162048D03*
G01*
X1449992Y1162058D03*
G01*
X1555755Y1162048D03*
G01*
X1449992Y1263646D03*
G01*
X1346202Y546098D03*
G01*
X1450002Y546088D03*
G01*
X1555752Y546098D03*
G01*
X1450002Y444503D03*
D13*
G01*
X-2018045Y-3022234D03*
G01*
X-2518044Y-3022234D03*
G01*
X-2558938Y-1332804D03*
D14*
G01*
X-2558938Y-1174003D03*
G01*
X-2558938Y-1491604D03*
G01*
X-2400137Y-1332804D03*
G01*
X-2717739Y-1332804D03*
G01*
X-2446644Y-1220510D03*
G01*
X-2671231Y-1220510D03*
G01*
X-2671231Y-1445097D03*
G01*
X-2446644Y-1445097D03*
D13*
G01*
X-2558938Y-632805D03*
D14*
G01*
X-2558938Y-474004D03*
G01*
X-2558938Y-791606D03*
G01*
X-2400137Y-632805D03*
G01*
X-2717739Y-632805D03*
G01*
X-2446644Y-520512D03*
G01*
X-2671231Y-520512D03*
G01*
X-2671231Y-745098D03*
G01*
X-2446644Y-745098D03*
D13*
G01*
X-2558938Y67193D03*
D14*
G01*
X-2558938Y225993D03*
G01*
X-2558938Y-91607D03*
G01*
X-2400137Y67193D03*
G01*
X-2717739Y67193D03*
G01*
X-2446644Y179486D03*
G01*
X-2671231Y179486D03*
G01*
X-2671231Y-45100D03*
G01*
X-2446644Y-45100D03*
D15*
G01*
X250543Y1615795D03*
D16*
G01*
X504555Y1615805D03*
G01*
X758555Y1615805D03*
G01*
X1012555Y1615805D03*
G01*
X1266555Y1615805D03*
G01*
X1520555Y1615805D03*
G01*
X1774555Y1615805D03*
G01*
X2028555Y1615805D03*
D17*
G01*
X-130444Y1615805D03*
G01*
X-384444Y1615805D03*
G01*
X-638444Y1615805D03*
G01*
X-892444Y1615805D03*
G01*
X-1146444Y1615805D03*
G01*
X-1400444Y1615805D03*
G01*
X-1654444Y1615805D03*
G01*
X-1908444Y1615805D03*
G01*
X-2162444Y1615805D03*
D15*
G01*
X-2416444Y1615805D03*
D16*
G01*
X2028555Y-3184794D03*
G01*
X1774555Y-3184794D03*
G01*
X1520555Y-3184794D03*
G01*
X1266555Y-3184794D03*
G01*
X1012555Y-3184794D03*
D15*
G01*
X758555Y-3184794D03*
G01*
X-1527456Y-3184804D03*
D16*
G01*
X-1273444Y-3184794D03*
G01*
X-1019444Y-3184794D03*
G01*
X-765444Y-3184794D03*
G01*
X-511444Y-3184794D03*
G01*
X-257444Y-3184794D03*
G01*
X-3444Y-3184794D03*
G01*
X250555Y-3184794D03*
D18*
G01*
X1965055Y79105D03*
G01*
X1965055Y333105D03*
G01*
X1965055Y587105D03*
G01*
X1965055Y841105D03*
D19*
G01*
X1965055Y1095105D03*
D20*
G01*
X2330155Y-2738795D03*
G01*
X2330155Y61198D03*
D21*
G01*
X-507989Y171460D03*
G01*
X-526938Y12811D03*
G01*
X-505856Y-408320D03*
G01*
X-506872Y-1041288D03*
G01*
X-506872Y-1434988D03*
G01*
X-509412Y-1579006D03*
M02*
