G04 Layer: BottomLayer*
G04 EasyEDA v6.5.44, 2024-08-23 15:43:18*
G04 30d174a4fb68472d9a5c4a5b8d6f4b16,2865ae9118a24060a17af6d01c9bcc73,10*
G04 Gerber Generator version 0.2*
G04 Scale: 100 percent, Rotated: No, Reflected: No *
G04 Dimensions in millimeters *
G04 leading zeros omitted , absolute positions ,4 integer and 5 decimal *
%FSLAX45Y45*%
%MOMM*%

%AMMACRO1*21,1,$1,$2,0,0,$3*%
%ADD10C,0.3000*%
%ADD11C,0.2540*%
%ADD12MACRO1,0.864X0.8065X-90.0000*%
%ADD13MACRO1,0.864X0.8065X0.0000*%
%ADD14R,0.8065X0.8065*%
%ADD15C,4.0000*%
%ADD16C,0.6100*%
%ADD17R,1.8000X1.8000*%
%ADD18C,1.8000*%
%ADD19C,1.5748*%
%ADD20R,1.5748X1.5748*%
%ADD21C,3.2000*%
%ADD22C,0.6000*%
%ADD23C,0.6096*%
%ADD24C,0.6200*%
%ADD25C,0.0174*%

%LPD*%
G36*
X-2707233Y-3359150D02*
G01*
X-2711145Y-3358387D01*
X-2714447Y-3356203D01*
X-2803753Y-3266897D01*
X-2805938Y-3263595D01*
X-2806700Y-3259683D01*
X-2806700Y-1844598D01*
X-2806293Y-1841652D01*
X-2805023Y-1838960D01*
X-2733852Y-1732229D01*
X-2731617Y-1729841D01*
X-2728671Y-1728266D01*
X-2725420Y-1727707D01*
X-2172258Y-1727707D01*
X-2166924Y-1727200D01*
X-2141220Y-1727200D01*
X-2139340Y-1726438D01*
X-2013610Y-1569262D01*
X-2012950Y-1567789D01*
X-2012746Y-1545336D01*
X-2012442Y-1542440D01*
X-2012442Y-1512366D01*
X-2010714Y-1318514D01*
X-2009800Y-1314450D01*
X-2007412Y-1311097D01*
X-2003856Y-1308963D01*
X-1999742Y-1308455D01*
X-1995779Y-1309624D01*
X-1992579Y-1312265D01*
X-1990699Y-1315974D01*
X-1989328Y-1321104D01*
X-1985213Y-1329994D01*
X-1979574Y-1338072D01*
X-1972614Y-1344980D01*
X-1964588Y-1350619D01*
X-1955647Y-1354785D01*
X-1946198Y-1357325D01*
X-1936394Y-1358188D01*
X-1926589Y-1357325D01*
X-1917141Y-1354785D01*
X-1908200Y-1350619D01*
X-1900174Y-1344980D01*
X-1893214Y-1338072D01*
X-1887575Y-1329994D01*
X-1883460Y-1321104D01*
X-1882698Y-1318361D01*
X-1880666Y-1314450D01*
X-1877212Y-1311757D01*
X-1872894Y-1310843D01*
X-1868576Y-1311757D01*
X-1865122Y-1314450D01*
X-1863089Y-1318361D01*
X-1862328Y-1321104D01*
X-1858213Y-1329994D01*
X-1852574Y-1338072D01*
X-1845614Y-1344980D01*
X-1837588Y-1350619D01*
X-1828647Y-1354785D01*
X-1819198Y-1357325D01*
X-1809394Y-1358188D01*
X-1799589Y-1357325D01*
X-1790141Y-1354785D01*
X-1781200Y-1350619D01*
X-1773174Y-1344980D01*
X-1766214Y-1338072D01*
X-1760575Y-1329994D01*
X-1756460Y-1321104D01*
X-1753920Y-1311605D01*
X-1753057Y-1301851D01*
X-1753920Y-1292047D01*
X-1756460Y-1282547D01*
X-1760575Y-1273657D01*
X-1766214Y-1265580D01*
X-1773631Y-1258214D01*
X-1775815Y-1254912D01*
X-1776577Y-1251051D01*
X-1775815Y-1247140D01*
X-1773631Y-1243838D01*
X-1766214Y-1236472D01*
X-1760575Y-1228394D01*
X-1756460Y-1219504D01*
X-1753920Y-1210005D01*
X-1753057Y-1200251D01*
X-1753920Y-1190447D01*
X-1756460Y-1180947D01*
X-1760575Y-1172057D01*
X-1766214Y-1163980D01*
X-1773631Y-1156614D01*
X-1775815Y-1153312D01*
X-1776577Y-1149451D01*
X-1775815Y-1145540D01*
X-1773631Y-1142238D01*
X-1766214Y-1134872D01*
X-1760575Y-1126794D01*
X-1756460Y-1117904D01*
X-1753920Y-1108405D01*
X-1753057Y-1098651D01*
X-1753920Y-1088847D01*
X-1756460Y-1079347D01*
X-1760575Y-1070457D01*
X-1769465Y-1058062D01*
X-1770227Y-1054201D01*
X-1769465Y-1050290D01*
X-1760575Y-1037894D01*
X-1756460Y-1029004D01*
X-1753920Y-1019505D01*
X-1753057Y-1009751D01*
X-1753920Y-999947D01*
X-1756460Y-990447D01*
X-1760575Y-981557D01*
X-1766214Y-973480D01*
X-1773174Y-966571D01*
X-1781200Y-960932D01*
X-1790141Y-956767D01*
X-1799589Y-954227D01*
X-1809394Y-953363D01*
X-1819198Y-954227D01*
X-1828647Y-956767D01*
X-1837588Y-960932D01*
X-1845614Y-966571D01*
X-1852574Y-973480D01*
X-1858213Y-981557D01*
X-1862328Y-990447D01*
X-1863089Y-993190D01*
X-1865122Y-997102D01*
X-1868576Y-999794D01*
X-1872894Y-1000709D01*
X-1877212Y-999794D01*
X-1880666Y-997102D01*
X-1882698Y-993190D01*
X-1883460Y-990447D01*
X-1887575Y-981557D01*
X-1893214Y-973480D01*
X-1900174Y-966571D01*
X-1908200Y-960932D01*
X-1917141Y-956767D01*
X-1926589Y-954227D01*
X-1936394Y-953363D01*
X-1946198Y-954227D01*
X-1955647Y-956767D01*
X-1964588Y-960932D01*
X-1972614Y-966571D01*
X-1979574Y-973480D01*
X-1985213Y-981557D01*
X-1988312Y-988212D01*
X-1990598Y-991362D01*
X-1993950Y-993394D01*
X-1997811Y-994054D01*
X-2001621Y-993190D01*
X-2004822Y-990955D01*
X-2006955Y-987653D01*
X-2007666Y-983792D01*
X-2000097Y-150672D01*
X-1999284Y-146812D01*
X-1997100Y-143560D01*
X-1993798Y-141376D01*
X-1989937Y-140614D01*
X-1986025Y-141376D01*
X-1982774Y-143560D01*
X-1976018Y-150368D01*
X-1967941Y-156006D01*
X-1959051Y-160121D01*
X-1949551Y-162661D01*
X-1939747Y-163525D01*
X-1929993Y-162661D01*
X-1920493Y-160121D01*
X-1911604Y-156006D01*
X-1903526Y-150368D01*
X-1896618Y-143408D01*
X-1890979Y-135382D01*
X-1886813Y-126441D01*
X-1886102Y-123698D01*
X-1884070Y-119837D01*
X-1880565Y-117144D01*
X-1876247Y-116179D01*
X-1871980Y-117144D01*
X-1868474Y-119837D01*
X-1866442Y-123698D01*
X-1865731Y-126441D01*
X-1861566Y-135382D01*
X-1855927Y-143408D01*
X-1849018Y-150368D01*
X-1840941Y-156006D01*
X-1832051Y-160121D01*
X-1822551Y-162661D01*
X-1812747Y-163525D01*
X-1802993Y-162661D01*
X-1793493Y-160121D01*
X-1784604Y-156006D01*
X-1776526Y-150368D01*
X-1769618Y-143408D01*
X-1763979Y-135382D01*
X-1759813Y-126441D01*
X-1757273Y-116992D01*
X-1756410Y-107187D01*
X-1757273Y-97383D01*
X-1759813Y-87934D01*
X-1763979Y-78994D01*
X-1772869Y-66649D01*
X-1773631Y-62738D01*
X-1772869Y-58826D01*
X-1763979Y-46482D01*
X-1759813Y-37541D01*
X-1757273Y-28092D01*
X-1756410Y-18288D01*
X-1757273Y-8483D01*
X-1759813Y965D01*
X-1763979Y9906D01*
X-1769618Y17932D01*
X-1776984Y25349D01*
X-1779219Y28600D01*
X-1779981Y32512D01*
X-1779219Y36423D01*
X-1776984Y39674D01*
X-1769618Y47091D01*
X-1763979Y55117D01*
X-1759813Y64058D01*
X-1757273Y73507D01*
X-1756410Y83312D01*
X-1757273Y93116D01*
X-1759813Y102565D01*
X-1763979Y111506D01*
X-1769618Y119532D01*
X-1776984Y126949D01*
X-1779219Y130200D01*
X-1779981Y134112D01*
X-1779219Y138023D01*
X-1776984Y141274D01*
X-1769618Y148691D01*
X-1763979Y156718D01*
X-1759813Y165658D01*
X-1757273Y175107D01*
X-1756410Y184912D01*
X-1757273Y194716D01*
X-1759813Y204165D01*
X-1763979Y213106D01*
X-1769618Y221132D01*
X-1776526Y228092D01*
X-1784604Y233730D01*
X-1793493Y237845D01*
X-1802993Y240385D01*
X-1812747Y241249D01*
X-1816658Y242417D01*
X-1819808Y245059D01*
X-1821637Y248767D01*
X-1823313Y254965D01*
X-1827479Y263906D01*
X-1833118Y271932D01*
X-1840026Y278892D01*
X-1848104Y284530D01*
X-1856993Y288645D01*
X-1866493Y291185D01*
X-1876247Y292049D01*
X-1886051Y291185D01*
X-1895551Y288645D01*
X-1904441Y284530D01*
X-1912518Y278892D01*
X-1919427Y271932D01*
X-1925066Y263906D01*
X-1929231Y254965D01*
X-1930907Y248767D01*
X-1932736Y245059D01*
X-1935886Y242417D01*
X-1939798Y241249D01*
X-1949551Y240385D01*
X-1959051Y237845D01*
X-1967941Y233730D01*
X-1976018Y228092D01*
X-1979320Y224790D01*
X-1982622Y222554D01*
X-1986534Y221792D01*
X-1990394Y222605D01*
X-1993696Y224840D01*
X-1995881Y228142D01*
X-1996643Y232054D01*
X-1993950Y529234D01*
X-1993138Y533095D01*
X-1990953Y536346D01*
X-1857197Y670102D01*
X-1853895Y672338D01*
X-1849983Y673100D01*
X-778916Y673100D01*
X-775055Y672338D01*
X-771753Y670102D01*
X-726897Y625246D01*
X-724662Y621944D01*
X-723900Y618083D01*
X-723900Y531469D01*
X-724763Y527405D01*
X-727151Y524001D01*
X-1097737Y178511D01*
X-1098550Y176784D01*
X-1098550Y-1965045D01*
X-1099108Y-1968347D01*
X-1100683Y-1971243D01*
X-1247952Y-2161489D01*
X-1250137Y-2163572D01*
X-1252880Y-2164943D01*
X-1255877Y-2165400D01*
X-1764334Y-2171700D01*
X-1766011Y-2172411D01*
X-2272588Y-2691688D01*
X-2273300Y-2693365D01*
X-2273300Y-3285083D01*
X-2274062Y-3288995D01*
X-2276297Y-3292297D01*
X-2340203Y-3356203D01*
X-2343505Y-3358387D01*
X-2347366Y-3359150D01*
G37*

%LPC*%
G36*
X-1426311Y-1809445D02*
G01*
X-1416761Y-1808175D01*
X-1407566Y-1805381D01*
X-1398930Y-1801012D01*
X-1391158Y-1795272D01*
X-1384503Y-1788312D01*
X-1383233Y-1786432D01*
X-1380540Y-1783740D01*
X-1377086Y-1782216D01*
X-1373327Y-1782064D01*
X-1369771Y-1783283D01*
X-1366875Y-1785721D01*
X-1361846Y-1791970D01*
X-1354632Y-1798320D01*
X-1346403Y-1803400D01*
X-1337462Y-1806956D01*
X-1328013Y-1808988D01*
X-1318361Y-1809445D01*
X-1308811Y-1808175D01*
X-1299616Y-1805381D01*
X-1290980Y-1801012D01*
X-1283208Y-1795272D01*
X-1276553Y-1788312D01*
X-1271168Y-1780336D01*
X-1267155Y-1771548D01*
X-1264767Y-1762201D01*
X-1263904Y-1752600D01*
X-1264767Y-1742998D01*
X-1267155Y-1733651D01*
X-1271168Y-1724863D01*
X-1276553Y-1716887D01*
X-1283208Y-1709928D01*
X-1290980Y-1704187D01*
X-1299616Y-1699818D01*
X-1308811Y-1697024D01*
X-1318361Y-1695754D01*
X-1328013Y-1696212D01*
X-1337462Y-1698243D01*
X-1346403Y-1701800D01*
X-1354632Y-1706880D01*
X-1361846Y-1713230D01*
X-1366875Y-1719478D01*
X-1369771Y-1721916D01*
X-1373327Y-1723136D01*
X-1377086Y-1722983D01*
X-1380540Y-1721459D01*
X-1383233Y-1718767D01*
X-1384503Y-1716887D01*
X-1391158Y-1709928D01*
X-1398930Y-1704187D01*
X-1407566Y-1699818D01*
X-1416761Y-1697024D01*
X-1426311Y-1695754D01*
X-1435963Y-1696212D01*
X-1445412Y-1698243D01*
X-1454353Y-1701800D01*
X-1462582Y-1706880D01*
X-1469796Y-1713230D01*
X-1475892Y-1720748D01*
X-1480566Y-1729181D01*
X-1483766Y-1738274D01*
X-1485392Y-1747774D01*
X-1485392Y-1757425D01*
X-1483766Y-1766925D01*
X-1480566Y-1776018D01*
X-1475892Y-1784451D01*
X-1469796Y-1791970D01*
X-1462582Y-1798320D01*
X-1454353Y-1803400D01*
X-1445412Y-1806956D01*
X-1435963Y-1808988D01*
G37*
G36*
X-1426311Y-1657045D02*
G01*
X-1416761Y-1655775D01*
X-1407566Y-1652981D01*
X-1398930Y-1648612D01*
X-1391158Y-1642872D01*
X-1384503Y-1635912D01*
X-1383233Y-1634032D01*
X-1380540Y-1631340D01*
X-1377086Y-1629816D01*
X-1373327Y-1629664D01*
X-1369771Y-1630883D01*
X-1366875Y-1633321D01*
X-1361846Y-1639570D01*
X-1354632Y-1645920D01*
X-1346403Y-1651000D01*
X-1337462Y-1654556D01*
X-1328013Y-1656588D01*
X-1318361Y-1657045D01*
X-1308811Y-1655775D01*
X-1299616Y-1652981D01*
X-1290980Y-1648612D01*
X-1283208Y-1642872D01*
X-1276553Y-1635912D01*
X-1271168Y-1627936D01*
X-1267155Y-1619148D01*
X-1264767Y-1609801D01*
X-1263904Y-1600200D01*
X-1264767Y-1590598D01*
X-1267155Y-1581251D01*
X-1271168Y-1572463D01*
X-1276553Y-1564487D01*
X-1283208Y-1557528D01*
X-1290980Y-1551787D01*
X-1299616Y-1547418D01*
X-1308811Y-1544624D01*
X-1318361Y-1543354D01*
X-1328013Y-1543812D01*
X-1337462Y-1545844D01*
X-1346403Y-1549400D01*
X-1354632Y-1554480D01*
X-1361846Y-1560830D01*
X-1366875Y-1567078D01*
X-1369771Y-1569516D01*
X-1373327Y-1570736D01*
X-1377086Y-1570583D01*
X-1380540Y-1569059D01*
X-1383233Y-1566367D01*
X-1384503Y-1564487D01*
X-1391158Y-1557528D01*
X-1398930Y-1551787D01*
X-1407566Y-1547418D01*
X-1416761Y-1544624D01*
X-1426311Y-1543354D01*
X-1435963Y-1543812D01*
X-1445412Y-1545844D01*
X-1454353Y-1549400D01*
X-1462582Y-1554480D01*
X-1469796Y-1560830D01*
X-1475892Y-1568348D01*
X-1480566Y-1576781D01*
X-1483766Y-1585874D01*
X-1485392Y-1595374D01*
X-1485392Y-1605026D01*
X-1483766Y-1614525D01*
X-1480566Y-1623618D01*
X-1475892Y-1632051D01*
X-1469796Y-1639570D01*
X-1462582Y-1645920D01*
X-1454353Y-1651000D01*
X-1445412Y-1654556D01*
X-1435963Y-1656588D01*
G37*
G36*
X-1407261Y-539445D02*
G01*
X-1397711Y-538175D01*
X-1388516Y-535381D01*
X-1379880Y-531012D01*
X-1372108Y-525272D01*
X-1369517Y-522579D01*
X-1366367Y-520344D01*
X-1362608Y-519480D01*
X-1358798Y-520039D01*
X-1355496Y-521970D01*
X-1348282Y-528320D01*
X-1340053Y-533400D01*
X-1331112Y-536956D01*
X-1321663Y-538988D01*
X-1312011Y-539445D01*
X-1302461Y-538175D01*
X-1293266Y-535381D01*
X-1284630Y-531012D01*
X-1276858Y-525272D01*
X-1270203Y-518312D01*
X-1264818Y-510336D01*
X-1260805Y-501548D01*
X-1258417Y-492201D01*
X-1257554Y-482600D01*
X-1258417Y-472998D01*
X-1260805Y-463651D01*
X-1264818Y-454863D01*
X-1270203Y-446887D01*
X-1276858Y-439928D01*
X-1284630Y-434187D01*
X-1293266Y-429818D01*
X-1302461Y-427024D01*
X-1310284Y-426008D01*
X-1314246Y-424637D01*
X-1315821Y-423164D01*
X-1317650Y-424738D01*
X-1320850Y-426008D01*
X-1331112Y-428243D01*
X-1340053Y-431800D01*
X-1348282Y-436880D01*
X-1355496Y-443230D01*
X-1358798Y-445160D01*
X-1362608Y-445719D01*
X-1366367Y-444855D01*
X-1369517Y-442620D01*
X-1372108Y-439928D01*
X-1379880Y-434187D01*
X-1388516Y-429818D01*
X-1397711Y-427024D01*
X-1405534Y-426008D01*
X-1409496Y-424637D01*
X-1411071Y-423164D01*
X-1412900Y-424738D01*
X-1416100Y-426008D01*
X-1426362Y-428243D01*
X-1435303Y-431800D01*
X-1443532Y-436880D01*
X-1450746Y-443230D01*
X-1456842Y-450748D01*
X-1461516Y-459181D01*
X-1464716Y-468274D01*
X-1466342Y-477774D01*
X-1466342Y-487426D01*
X-1464716Y-496925D01*
X-1461516Y-506018D01*
X-1456842Y-514451D01*
X-1450746Y-521970D01*
X-1443532Y-528320D01*
X-1435303Y-533400D01*
X-1426362Y-536956D01*
X-1416913Y-538988D01*
G37*
G36*
X-1411071Y-408686D02*
G01*
X-1409496Y-407212D01*
X-1405534Y-405841D01*
X-1397711Y-404825D01*
X-1388516Y-402031D01*
X-1379880Y-397662D01*
X-1372108Y-391922D01*
X-1369517Y-389229D01*
X-1366367Y-386994D01*
X-1362608Y-386130D01*
X-1358798Y-386689D01*
X-1355496Y-388620D01*
X-1348282Y-394970D01*
X-1340053Y-400050D01*
X-1331112Y-403606D01*
X-1320850Y-405841D01*
X-1317650Y-407111D01*
X-1315821Y-408686D01*
X-1314246Y-407212D01*
X-1310284Y-405841D01*
X-1302461Y-404825D01*
X-1293266Y-402031D01*
X-1284630Y-397662D01*
X-1276858Y-391922D01*
X-1270203Y-384962D01*
X-1264818Y-376986D01*
X-1260805Y-368198D01*
X-1258417Y-358851D01*
X-1257554Y-349250D01*
X-1258417Y-339648D01*
X-1260805Y-330301D01*
X-1264818Y-321513D01*
X-1270203Y-313537D01*
X-1276858Y-306578D01*
X-1284630Y-300837D01*
X-1293266Y-296468D01*
X-1302461Y-293674D01*
X-1312011Y-292404D01*
X-1321663Y-292862D01*
X-1331112Y-294894D01*
X-1340053Y-298450D01*
X-1348282Y-303530D01*
X-1355496Y-309880D01*
X-1358798Y-311810D01*
X-1362608Y-312369D01*
X-1366367Y-311505D01*
X-1369517Y-309270D01*
X-1372108Y-306578D01*
X-1379880Y-300837D01*
X-1388516Y-296468D01*
X-1397711Y-293674D01*
X-1407261Y-292404D01*
X-1416913Y-292862D01*
X-1426362Y-294894D01*
X-1435303Y-298450D01*
X-1443532Y-303530D01*
X-1450746Y-309880D01*
X-1456842Y-317398D01*
X-1461516Y-325831D01*
X-1464716Y-334924D01*
X-1466342Y-344424D01*
X-1466342Y-354076D01*
X-1464716Y-363575D01*
X-1461516Y-372668D01*
X-1456842Y-381101D01*
X-1450746Y-388620D01*
X-1443532Y-394970D01*
X-1435303Y-400050D01*
X-1426362Y-403606D01*
X-1416100Y-405841D01*
X-1412900Y-407111D01*
G37*
G36*
X-1413611Y-158445D02*
G01*
X-1404061Y-157175D01*
X-1394866Y-154381D01*
X-1386230Y-150012D01*
X-1378458Y-144272D01*
X-1375867Y-141579D01*
X-1372717Y-139344D01*
X-1368958Y-138480D01*
X-1365148Y-139039D01*
X-1361846Y-140970D01*
X-1354632Y-147320D01*
X-1346403Y-152400D01*
X-1337462Y-155956D01*
X-1328013Y-157988D01*
X-1318361Y-158445D01*
X-1308811Y-157175D01*
X-1299616Y-154381D01*
X-1290980Y-150012D01*
X-1283208Y-144272D01*
X-1276553Y-137312D01*
X-1271168Y-129336D01*
X-1267155Y-120548D01*
X-1264767Y-111201D01*
X-1263904Y-101600D01*
X-1264767Y-91998D01*
X-1267155Y-82651D01*
X-1271168Y-73863D01*
X-1276553Y-65887D01*
X-1283208Y-58928D01*
X-1290980Y-53187D01*
X-1296568Y-50342D01*
X-1300022Y-47498D01*
X-1301902Y-43484D01*
X-1301902Y-39065D01*
X-1300022Y-35052D01*
X-1296568Y-32207D01*
X-1290980Y-29362D01*
X-1283208Y-23622D01*
X-1276553Y-16662D01*
X-1271168Y-8686D01*
X-1267155Y101D01*
X-1264767Y9448D01*
X-1263904Y19050D01*
X-1264767Y28651D01*
X-1267155Y37998D01*
X-1271168Y46786D01*
X-1276553Y54762D01*
X-1283208Y61722D01*
X-1290980Y67462D01*
X-1299616Y71831D01*
X-1308811Y74625D01*
X-1318361Y75895D01*
X-1328013Y75438D01*
X-1337462Y73406D01*
X-1346403Y69850D01*
X-1354632Y64769D01*
X-1358392Y61467D01*
X-1361338Y59639D01*
X-1364691Y58928D01*
X-1368094Y59385D01*
X-1371193Y60960D01*
X-1379931Y67513D01*
X-1388516Y71831D01*
X-1397711Y74625D01*
X-1407261Y75895D01*
X-1416913Y75438D01*
X-1426362Y73406D01*
X-1435303Y69850D01*
X-1443532Y64769D01*
X-1450746Y58419D01*
X-1456842Y50901D01*
X-1461516Y42468D01*
X-1464716Y33375D01*
X-1466342Y23876D01*
X-1466342Y14224D01*
X-1464716Y4724D01*
X-1461516Y-4368D01*
X-1456842Y-12801D01*
X-1450746Y-20320D01*
X-1443532Y-26670D01*
X-1436217Y-31191D01*
X-1433017Y-34290D01*
X-1431493Y-38455D01*
X-1431848Y-42875D01*
X-1434084Y-46736D01*
X-1437741Y-49225D01*
X-1441653Y-50800D01*
X-1449882Y-55880D01*
X-1457096Y-62230D01*
X-1463192Y-69748D01*
X-1467866Y-78181D01*
X-1471066Y-87274D01*
X-1472692Y-96774D01*
X-1472692Y-106426D01*
X-1471066Y-115925D01*
X-1467866Y-125018D01*
X-1463192Y-133451D01*
X-1457096Y-140970D01*
X-1449882Y-147320D01*
X-1441653Y-152400D01*
X-1432712Y-155956D01*
X-1423263Y-157988D01*
G37*

%LPD*%
G36*
X2130145Y-3375304D02*
G01*
X-2286558Y-3363722D01*
X-2290470Y-3362909D01*
X-2293721Y-3360724D01*
X-2295956Y-3357422D01*
X-2296718Y-3353562D01*
X-2295906Y-3349650D01*
X-2293721Y-3346348D01*
X-2255215Y-3307842D01*
X-2251405Y-3303066D01*
X-2248865Y-3297885D01*
X-2247595Y-3292195D01*
X-2247392Y-3289046D01*
X-2247392Y-2707081D01*
X-2246630Y-2703271D01*
X-2244496Y-2700020D01*
X-1757222Y-2200503D01*
X-1753920Y-2198268D01*
X-1750060Y-2197455D01*
X-1251204Y-2191258D01*
X-1244904Y-2190496D01*
X-1239469Y-2188514D01*
X-1234592Y-2185365D01*
X-1230172Y-2180844D01*
X-1078382Y-1984806D01*
X-1075283Y-1979777D01*
X-1073353Y-1974240D01*
X-1072642Y-1967941D01*
X-1072642Y162102D01*
X-1071829Y166166D01*
X-1069441Y169519D01*
X-706678Y507695D01*
X-702513Y512521D01*
X-699820Y517651D01*
X-698296Y523443D01*
X-697992Y527405D01*
X-697992Y621995D01*
X-698652Y628040D01*
X-700582Y633526D01*
X-703681Y638454D01*
X-705815Y640791D01*
X-756208Y691184D01*
X-760933Y694994D01*
X-766165Y697534D01*
X-771804Y698804D01*
X-775004Y699008D01*
X-1853946Y699008D01*
X-1859991Y698347D01*
X-1865426Y696417D01*
X-1870354Y693318D01*
X-1872742Y691184D01*
X-2007971Y556006D01*
X-2011375Y553720D01*
X-2015388Y553008D01*
X-2019350Y553923D01*
X-2022652Y556310D01*
X-2027885Y565048D01*
X-2033117Y570128D01*
X-2083003Y607517D01*
X-2087676Y610362D01*
X-2093214Y612292D01*
X-2099513Y613003D01*
X-2784246Y613003D01*
X-2789580Y612495D01*
X-2796743Y610057D01*
X-2800553Y609549D01*
X-2804261Y610514D01*
X-2807360Y612749D01*
X-2809443Y615950D01*
X-2810154Y619709D01*
X-2810154Y1700479D01*
X-2809392Y1704390D01*
X-2807157Y1707692D01*
X-2698851Y1815998D01*
X-2695549Y1818233D01*
X-2691638Y1818995D01*
X2164029Y1818995D01*
X2167940Y1818233D01*
X2171242Y1815998D01*
X2279548Y1707692D01*
X2281783Y1704390D01*
X2282545Y1700479D01*
X2282545Y537311D01*
X2283256Y535584D01*
X2571648Y247192D01*
X2573883Y243890D01*
X2574645Y239979D01*
X2574645Y-2901188D01*
X2573883Y-2905099D01*
X2571648Y-2908401D01*
X2283256Y-3196793D01*
X2282545Y-3198520D01*
X2282545Y-3244088D01*
X2281783Y-3247999D01*
X2279548Y-3251301D01*
X2158542Y-3372307D01*
X2155240Y-3374542D01*
X2151329Y-3375304D01*
G37*

%LPC*%
G36*
X-1616913Y-3300729D02*
G01*
X-1438046Y-3300729D01*
X-1431696Y-3300018D01*
X-1426260Y-3298088D01*
X-1421333Y-3295040D01*
X-1417269Y-3290925D01*
X-1414170Y-3286048D01*
X-1412290Y-3280562D01*
X-1411579Y-3274263D01*
X-1411579Y-3095396D01*
X-1412290Y-3089046D01*
X-1414170Y-3083610D01*
X-1417269Y-3078683D01*
X-1421333Y-3074619D01*
X-1426260Y-3071520D01*
X-1431696Y-3069640D01*
X-1438046Y-3068929D01*
X-1616913Y-3068929D01*
X-1623212Y-3069640D01*
X-1628698Y-3071520D01*
X-1633575Y-3074619D01*
X-1637690Y-3078683D01*
X-1640738Y-3083610D01*
X-1642668Y-3089046D01*
X-1643380Y-3095396D01*
X-1643380Y-3274263D01*
X-1642668Y-3280562D01*
X-1640738Y-3286048D01*
X-1637690Y-3290925D01*
X-1633575Y-3295040D01*
X-1628698Y-3298088D01*
X-1623212Y-3300018D01*
G37*
G36*
X669086Y-3300729D02*
G01*
X847953Y-3300729D01*
X854303Y-3300018D01*
X859739Y-3298088D01*
X864666Y-3295040D01*
X868730Y-3290925D01*
X871829Y-3286048D01*
X873709Y-3280562D01*
X874420Y-3274263D01*
X874420Y-3095396D01*
X873709Y-3089046D01*
X871829Y-3083610D01*
X868730Y-3078683D01*
X864666Y-3074619D01*
X859739Y-3071520D01*
X854303Y-3069640D01*
X847953Y-3068929D01*
X809599Y-3068929D01*
X805738Y-3068116D01*
X802436Y-3065932D01*
X800252Y-3062630D01*
X799439Y-3058769D01*
X799439Y-2981553D01*
X798626Y-2973070D01*
X796290Y-2965450D01*
X792530Y-2958388D01*
X787095Y-2951784D01*
X742391Y-2907030D01*
X740156Y-2903728D01*
X739394Y-2899867D01*
X739394Y-2882950D01*
X740054Y-2879293D01*
X741984Y-2876143D01*
X744880Y-2873908D01*
X748436Y-2872841D01*
X753770Y-2872232D01*
X758596Y-2870555D01*
X761949Y-2869996D01*
X765302Y-2870555D01*
X770178Y-2872232D01*
X776478Y-2872943D01*
X861771Y-2872943D01*
X868070Y-2872232D01*
X873150Y-2871063D01*
X876452Y-2871622D01*
X879348Y-2872638D01*
X882903Y-2874772D01*
X885342Y-2878124D01*
X886206Y-2882239D01*
X886206Y-2971292D01*
X887018Y-2979775D01*
X889355Y-2987446D01*
X893114Y-2994507D01*
X898499Y-3001111D01*
X921308Y-3023870D01*
X923493Y-3027172D01*
X924306Y-3031083D01*
X924306Y-3106369D01*
X923696Y-3109823D01*
X921969Y-3112871D01*
X918768Y-3116681D01*
X910996Y-3128975D01*
X904798Y-3142132D01*
X900277Y-3156000D01*
X897534Y-3170275D01*
X896619Y-3184804D01*
X897534Y-3199333D01*
X900277Y-3213658D01*
X904798Y-3227476D01*
X910996Y-3240633D01*
X918768Y-3252927D01*
X928065Y-3264153D01*
X938682Y-3274110D01*
X950417Y-3282645D01*
X963168Y-3289655D01*
X976731Y-3295040D01*
X990803Y-3298647D01*
X1005281Y-3300476D01*
X1019810Y-3300476D01*
X1034237Y-3298647D01*
X1048359Y-3295040D01*
X1061872Y-3289655D01*
X1074623Y-3282645D01*
X1086408Y-3274110D01*
X1097026Y-3264153D01*
X1106271Y-3252927D01*
X1114094Y-3240633D01*
X1120292Y-3227476D01*
X1124762Y-3213658D01*
X1127506Y-3199333D01*
X1128420Y-3184804D01*
X1127506Y-3170275D01*
X1124762Y-3156000D01*
X1120292Y-3142132D01*
X1114094Y-3128975D01*
X1106271Y-3116681D01*
X1097026Y-3105505D01*
X1086408Y-3095498D01*
X1074623Y-3086963D01*
X1061872Y-3079953D01*
X1048359Y-3074619D01*
X1034237Y-3070961D01*
X1019810Y-3069132D01*
X1016253Y-3069132D01*
X1012393Y-3068370D01*
X1009091Y-3066186D01*
X1006856Y-3062884D01*
X1006094Y-3058972D01*
X1006094Y-3010408D01*
X1005281Y-3001924D01*
X1002944Y-2994253D01*
X999185Y-2987192D01*
X993749Y-2980639D01*
X970991Y-2957830D01*
X968756Y-2954528D01*
X967994Y-2950667D01*
X967994Y-2882239D01*
X968857Y-2878124D01*
X971245Y-2874772D01*
X974852Y-2872638D01*
X981506Y-2870301D01*
X986383Y-2867253D01*
X990498Y-2863138D01*
X993546Y-2858262D01*
X995476Y-2852775D01*
X996187Y-2846476D01*
X996187Y-2766974D01*
X995476Y-2760624D01*
X993546Y-2755188D01*
X990498Y-2750261D01*
X986383Y-2746197D01*
X981506Y-2743098D01*
X976020Y-2741168D01*
X969721Y-2740456D01*
X884428Y-2740456D01*
X878128Y-2741168D01*
X873048Y-2742387D01*
X869746Y-2741828D01*
X866851Y-2740812D01*
X863295Y-2738678D01*
X860856Y-2735275D01*
X860044Y-2731211D01*
X860044Y-2508758D01*
X859180Y-2500274D01*
X856843Y-2492603D01*
X853084Y-2485542D01*
X847699Y-2478938D01*
X815035Y-2446324D01*
X813003Y-2443429D01*
X812139Y-2440025D01*
X811682Y-2435148D01*
X809294Y-2425801D01*
X805281Y-2417013D01*
X799896Y-2409037D01*
X793242Y-2402078D01*
X785469Y-2396337D01*
X776833Y-2391968D01*
X767638Y-2389174D01*
X758088Y-2387904D01*
X748436Y-2388362D01*
X738987Y-2390394D01*
X730046Y-2393950D01*
X721817Y-2399030D01*
X714603Y-2405380D01*
X708507Y-2412898D01*
X703834Y-2421331D01*
X700633Y-2430424D01*
X699008Y-2439924D01*
X699008Y-2449576D01*
X700633Y-2459075D01*
X703834Y-2468168D01*
X708507Y-2476601D01*
X714603Y-2484120D01*
X721817Y-2490470D01*
X730046Y-2495550D01*
X738987Y-2499106D01*
X748436Y-2501138D01*
X750468Y-2501239D01*
X754126Y-2502103D01*
X757224Y-2504236D01*
X775208Y-2522220D01*
X777443Y-2525522D01*
X778205Y-2529382D01*
X778205Y-2731211D01*
X777341Y-2735275D01*
X774954Y-2738678D01*
X771347Y-2740812D01*
X765302Y-2742895D01*
X762000Y-2743454D01*
X758647Y-2742895D01*
X753770Y-2741168D01*
X747471Y-2740456D01*
X662178Y-2740456D01*
X655878Y-2741168D01*
X650392Y-2743098D01*
X645515Y-2746197D01*
X641400Y-2750261D01*
X638352Y-2755188D01*
X636422Y-2760624D01*
X635711Y-2766974D01*
X635711Y-2846476D01*
X636422Y-2852775D01*
X638352Y-2858262D01*
X641400Y-2863138D01*
X645515Y-2867253D01*
X654354Y-2872587D01*
X656742Y-2875991D01*
X657606Y-2880055D01*
X657606Y-2920492D01*
X658418Y-2928975D01*
X660755Y-2936646D01*
X664514Y-2943707D01*
X669899Y-2950311D01*
X714654Y-2995015D01*
X716889Y-2998317D01*
X717651Y-3002229D01*
X717651Y-3058769D01*
X716889Y-3062630D01*
X714654Y-3065932D01*
X711352Y-3068116D01*
X707491Y-3068929D01*
X669086Y-3068929D01*
X662787Y-3069640D01*
X657301Y-3071520D01*
X652424Y-3074619D01*
X648309Y-3078683D01*
X645261Y-3083610D01*
X643331Y-3089046D01*
X642620Y-3095396D01*
X642620Y-3274263D01*
X643331Y-3280562D01*
X645261Y-3286048D01*
X648309Y-3290925D01*
X652424Y-3295040D01*
X657301Y-3298088D01*
X662787Y-3300018D01*
G37*
G36*
X243281Y-3300476D02*
G01*
X257810Y-3300476D01*
X272237Y-3298647D01*
X286359Y-3295040D01*
X299872Y-3289655D01*
X312623Y-3282645D01*
X324408Y-3274110D01*
X335026Y-3264153D01*
X344271Y-3252927D01*
X352094Y-3240633D01*
X358292Y-3227476D01*
X362762Y-3213658D01*
X365506Y-3199333D01*
X366420Y-3184804D01*
X365506Y-3170275D01*
X362762Y-3156000D01*
X358292Y-3142132D01*
X352094Y-3128975D01*
X344271Y-3116681D01*
X335026Y-3105505D01*
X324408Y-3095498D01*
X312623Y-3086963D01*
X299872Y-3079953D01*
X286359Y-3074619D01*
X272237Y-3070961D01*
X257810Y-3069132D01*
X243281Y-3069132D01*
X228803Y-3070961D01*
X214731Y-3074619D01*
X201168Y-3079953D01*
X188417Y-3086963D01*
X176682Y-3095498D01*
X166065Y-3105505D01*
X156768Y-3116681D01*
X148996Y-3128975D01*
X142798Y-3142132D01*
X138277Y-3156000D01*
X135534Y-3170275D01*
X134620Y-3184804D01*
X135534Y-3199333D01*
X138277Y-3213658D01*
X142798Y-3227476D01*
X148996Y-3240633D01*
X156768Y-3252927D01*
X166065Y-3264153D01*
X176682Y-3274110D01*
X188417Y-3282645D01*
X201168Y-3289655D01*
X214731Y-3295040D01*
X228803Y-3298647D01*
G37*
G36*
X-1280718Y-3300476D02*
G01*
X-1266190Y-3300476D01*
X-1251762Y-3298647D01*
X-1237640Y-3295040D01*
X-1224127Y-3289655D01*
X-1211376Y-3282645D01*
X-1199591Y-3274110D01*
X-1188974Y-3264153D01*
X-1179728Y-3252927D01*
X-1171905Y-3240633D01*
X-1165707Y-3227476D01*
X-1161237Y-3213658D01*
X-1158494Y-3199333D01*
X-1157579Y-3184804D01*
X-1158494Y-3170275D01*
X-1161237Y-3156000D01*
X-1165707Y-3142132D01*
X-1171905Y-3128975D01*
X-1179728Y-3116681D01*
X-1188974Y-3105505D01*
X-1199591Y-3095498D01*
X-1211376Y-3086963D01*
X-1224127Y-3079953D01*
X-1237640Y-3074619D01*
X-1251762Y-3070961D01*
X-1266190Y-3069132D01*
X-1280718Y-3069132D01*
X-1295196Y-3070961D01*
X-1309268Y-3074619D01*
X-1322832Y-3079953D01*
X-1335582Y-3086963D01*
X-1347317Y-3095498D01*
X-1357934Y-3105505D01*
X-1367231Y-3116681D01*
X-1375003Y-3128975D01*
X-1381201Y-3142132D01*
X-1385722Y-3156000D01*
X-1388465Y-3170275D01*
X-1389380Y-3184804D01*
X-1388465Y-3199333D01*
X-1385722Y-3213658D01*
X-1381201Y-3227476D01*
X-1375003Y-3240633D01*
X-1367231Y-3252927D01*
X-1357934Y-3264153D01*
X-1347317Y-3274110D01*
X-1335582Y-3282645D01*
X-1322832Y-3289655D01*
X-1309268Y-3295040D01*
X-1295196Y-3298647D01*
G37*
G36*
X-1026718Y-3300476D02*
G01*
X-1012190Y-3300476D01*
X-997762Y-3298647D01*
X-983640Y-3295040D01*
X-970127Y-3289655D01*
X-957376Y-3282645D01*
X-945591Y-3274110D01*
X-934974Y-3264153D01*
X-925728Y-3252927D01*
X-917905Y-3240633D01*
X-911707Y-3227476D01*
X-907237Y-3213658D01*
X-904494Y-3199333D01*
X-903579Y-3184804D01*
X-904494Y-3170275D01*
X-907237Y-3156000D01*
X-911707Y-3142132D01*
X-917905Y-3128975D01*
X-925728Y-3116681D01*
X-934974Y-3105505D01*
X-945591Y-3095498D01*
X-957376Y-3086963D01*
X-970127Y-3079953D01*
X-983640Y-3074619D01*
X-997762Y-3070961D01*
X-1012190Y-3069132D01*
X-1026718Y-3069132D01*
X-1041196Y-3070961D01*
X-1055268Y-3074619D01*
X-1068832Y-3079953D01*
X-1081582Y-3086963D01*
X-1093317Y-3095498D01*
X-1103934Y-3105505D01*
X-1113231Y-3116681D01*
X-1121003Y-3128975D01*
X-1127201Y-3142132D01*
X-1131722Y-3156000D01*
X-1134465Y-3170275D01*
X-1135380Y-3184804D01*
X-1134465Y-3199333D01*
X-1131722Y-3213658D01*
X-1127201Y-3227476D01*
X-1121003Y-3240633D01*
X-1113231Y-3252927D01*
X-1103934Y-3264153D01*
X-1093317Y-3274110D01*
X-1081582Y-3282645D01*
X-1068832Y-3289655D01*
X-1055268Y-3295040D01*
X-1041196Y-3298647D01*
G37*
G36*
X-772718Y-3300476D02*
G01*
X-758190Y-3300476D01*
X-743762Y-3298647D01*
X-729640Y-3295040D01*
X-716127Y-3289655D01*
X-703376Y-3282645D01*
X-691591Y-3274110D01*
X-680974Y-3264153D01*
X-671728Y-3252927D01*
X-663905Y-3240633D01*
X-657707Y-3227476D01*
X-653237Y-3213658D01*
X-650494Y-3199333D01*
X-649579Y-3184804D01*
X-650494Y-3170275D01*
X-653237Y-3156000D01*
X-657707Y-3142132D01*
X-663905Y-3128975D01*
X-670915Y-3117951D01*
X-672084Y-3115360D01*
X-672490Y-3112516D01*
X-672490Y-2968853D01*
X-671576Y-2964586D01*
X-668934Y-2961132D01*
X-665124Y-2959100D01*
X-660806Y-2958795D01*
X-656742Y-2960319D01*
X-653745Y-2963418D01*
X-651103Y-2967634D01*
X-646988Y-2971698D01*
X-642112Y-2974797D01*
X-635863Y-2976981D01*
X-632307Y-2979115D01*
X-629920Y-2982518D01*
X-629056Y-2986582D01*
X-629056Y-3105302D01*
X-628243Y-3113328D01*
X-626059Y-3120542D01*
X-622503Y-3127248D01*
X-620014Y-3130245D01*
X-618185Y-3133598D01*
X-617728Y-3137357D01*
X-623722Y-3156000D01*
X-626465Y-3170275D01*
X-627380Y-3184804D01*
X-626465Y-3199333D01*
X-623722Y-3213658D01*
X-619201Y-3227476D01*
X-613003Y-3240633D01*
X-605231Y-3252927D01*
X-595934Y-3264153D01*
X-585317Y-3274110D01*
X-573582Y-3282645D01*
X-560832Y-3289655D01*
X-547268Y-3295040D01*
X-533196Y-3298647D01*
X-518718Y-3300476D01*
X-504190Y-3300476D01*
X-489762Y-3298647D01*
X-475640Y-3295040D01*
X-462127Y-3289655D01*
X-449376Y-3282645D01*
X-437591Y-3274110D01*
X-426974Y-3264153D01*
X-417728Y-3252927D01*
X-409905Y-3240633D01*
X-403707Y-3227476D01*
X-399237Y-3213658D01*
X-396494Y-3199333D01*
X-395579Y-3184804D01*
X-396494Y-3170275D01*
X-399237Y-3156000D01*
X-403707Y-3142132D01*
X-409905Y-3128975D01*
X-417728Y-3116681D01*
X-426974Y-3105505D01*
X-437591Y-3095498D01*
X-449376Y-3086963D01*
X-462127Y-3079953D01*
X-475640Y-3074619D01*
X-489762Y-3070961D01*
X-504190Y-3069132D01*
X-518718Y-3069132D01*
X-533196Y-3070961D01*
X-539140Y-3072536D01*
X-542848Y-3072790D01*
X-546354Y-3071672D01*
X-549249Y-3069437D01*
X-551180Y-3066288D01*
X-551840Y-3062681D01*
X-551840Y-2986481D01*
X-550976Y-2982417D01*
X-548589Y-2979013D01*
X-545033Y-2976880D01*
X-539038Y-2974797D01*
X-534111Y-2971698D01*
X-530047Y-2967634D01*
X-526948Y-2962706D01*
X-525068Y-2957271D01*
X-524357Y-2950921D01*
X-524357Y-2865678D01*
X-525068Y-2859328D01*
X-526948Y-2853893D01*
X-529285Y-2850235D01*
X-530656Y-2846679D01*
X-530656Y-2842920D01*
X-529285Y-2839415D01*
X-526948Y-2835706D01*
X-525068Y-2830271D01*
X-524357Y-2823921D01*
X-524357Y-2738678D01*
X-525068Y-2732328D01*
X-526948Y-2726893D01*
X-530047Y-2722016D01*
X-537006Y-2715310D01*
X-538683Y-2712110D01*
X-539089Y-2708503D01*
X-538226Y-2704998D01*
X-534009Y-2695752D01*
X-531622Y-2686405D01*
X-530758Y-2676804D01*
X-531622Y-2667203D01*
X-534009Y-2657856D01*
X-538022Y-2649067D01*
X-543407Y-2641092D01*
X-550062Y-2634132D01*
X-557834Y-2628392D01*
X-566470Y-2624023D01*
X-575665Y-2621229D01*
X-585216Y-2619959D01*
X-594868Y-2620416D01*
X-604316Y-2622448D01*
X-613257Y-2626004D01*
X-621487Y-2631084D01*
X-627380Y-2636266D01*
X-630682Y-2638247D01*
X-634492Y-2638806D01*
X-638251Y-2637891D01*
X-641400Y-2635656D01*
X-642924Y-2634132D01*
X-650697Y-2628392D01*
X-659282Y-2624023D01*
X-668528Y-2621229D01*
X-678078Y-2619959D01*
X-687730Y-2620416D01*
X-697128Y-2622448D01*
X-706120Y-2626004D01*
X-714298Y-2631084D01*
X-721563Y-2637434D01*
X-727608Y-2644952D01*
X-732332Y-2653385D01*
X-735533Y-2662478D01*
X-737158Y-2671978D01*
X-737158Y-2681630D01*
X-735533Y-2691130D01*
X-732891Y-2698648D01*
X-732282Y-2702458D01*
X-733196Y-2706217D01*
X-735431Y-2709367D01*
X-738682Y-2711450D01*
X-742442Y-2712212D01*
X-750976Y-2712212D01*
X-757275Y-2712923D01*
X-762762Y-2714802D01*
X-767638Y-2717901D01*
X-771753Y-2722016D01*
X-774801Y-2726893D01*
X-776732Y-2732328D01*
X-777443Y-2738678D01*
X-777443Y-2823921D01*
X-776732Y-2830271D01*
X-774801Y-2835706D01*
X-771753Y-2840634D01*
X-767638Y-2844698D01*
X-762762Y-2847797D01*
X-756513Y-2849981D01*
X-752957Y-2852115D01*
X-750570Y-2855518D01*
X-749706Y-2859582D01*
X-749706Y-3058972D01*
X-750468Y-3062884D01*
X-752703Y-3066186D01*
X-755954Y-3068370D01*
X-759866Y-3069132D01*
X-772718Y-3069132D01*
X-787196Y-3070961D01*
X-801268Y-3074619D01*
X-814832Y-3079953D01*
X-827582Y-3086963D01*
X-839317Y-3095498D01*
X-849934Y-3105505D01*
X-859231Y-3116681D01*
X-867003Y-3128975D01*
X-873201Y-3142132D01*
X-877722Y-3156000D01*
X-880465Y-3170275D01*
X-881380Y-3184804D01*
X-880465Y-3199333D01*
X-877722Y-3213658D01*
X-873201Y-3227476D01*
X-867003Y-3240633D01*
X-859231Y-3252927D01*
X-849934Y-3264153D01*
X-839317Y-3274110D01*
X-827582Y-3282645D01*
X-814832Y-3289655D01*
X-801268Y-3295040D01*
X-787196Y-3298647D01*
G37*
G36*
X1259281Y-3300476D02*
G01*
X1273810Y-3300476D01*
X1288237Y-3298647D01*
X1302359Y-3295040D01*
X1315872Y-3289655D01*
X1328623Y-3282645D01*
X1340408Y-3274110D01*
X1351026Y-3264153D01*
X1360271Y-3252927D01*
X1368094Y-3240633D01*
X1374292Y-3227476D01*
X1378762Y-3213658D01*
X1381506Y-3199333D01*
X1382420Y-3184804D01*
X1381506Y-3170275D01*
X1378762Y-3156000D01*
X1374292Y-3142132D01*
X1368094Y-3128975D01*
X1360271Y-3116681D01*
X1351026Y-3105505D01*
X1340408Y-3095498D01*
X1328623Y-3086963D01*
X1315872Y-3079953D01*
X1313840Y-3079140D01*
X1310741Y-3077210D01*
X1308506Y-3074263D01*
X1307490Y-3070707D01*
X1306626Y-3061970D01*
X1304290Y-3054350D01*
X1300530Y-3047288D01*
X1295095Y-3040684D01*
X1212291Y-2957830D01*
X1210056Y-2954528D01*
X1209294Y-2950667D01*
X1209294Y-2882239D01*
X1210157Y-2878124D01*
X1212545Y-2874772D01*
X1216152Y-2872638D01*
X1222197Y-2870504D01*
X1225499Y-2869996D01*
X1228852Y-2870555D01*
X1233728Y-2872232D01*
X1240028Y-2872943D01*
X1325321Y-2872943D01*
X1331620Y-2872232D01*
X1336649Y-2871063D01*
X1341678Y-2872232D01*
X1347978Y-2872943D01*
X1394815Y-2872943D01*
X1398676Y-2873705D01*
X1401978Y-2875940D01*
X1476654Y-2950565D01*
X1478889Y-2953867D01*
X1479651Y-2957779D01*
X1479651Y-3069691D01*
X1478838Y-3073654D01*
X1476603Y-3076956D01*
X1473200Y-3079140D01*
X1471168Y-3079953D01*
X1458417Y-3086963D01*
X1446682Y-3095498D01*
X1436065Y-3105505D01*
X1426768Y-3116681D01*
X1418996Y-3128975D01*
X1412798Y-3142132D01*
X1408277Y-3156000D01*
X1405534Y-3170275D01*
X1404620Y-3184804D01*
X1405534Y-3199333D01*
X1408277Y-3213658D01*
X1412798Y-3227476D01*
X1418996Y-3240633D01*
X1426768Y-3252927D01*
X1436065Y-3264153D01*
X1446682Y-3274110D01*
X1458417Y-3282645D01*
X1471168Y-3289655D01*
X1484731Y-3295040D01*
X1498803Y-3298647D01*
X1513281Y-3300476D01*
X1527810Y-3300476D01*
X1542237Y-3298647D01*
X1556359Y-3295040D01*
X1569872Y-3289655D01*
X1582623Y-3282645D01*
X1594408Y-3274110D01*
X1605026Y-3264153D01*
X1614271Y-3252927D01*
X1622094Y-3240633D01*
X1628292Y-3227476D01*
X1632762Y-3213658D01*
X1635506Y-3199333D01*
X1636420Y-3184804D01*
X1635506Y-3170275D01*
X1632762Y-3156000D01*
X1628292Y-3142132D01*
X1622094Y-3128975D01*
X1614271Y-3116681D01*
X1605026Y-3105505D01*
X1594408Y-3095498D01*
X1582623Y-3086963D01*
X1570278Y-3080156D01*
X1567484Y-3077921D01*
X1565656Y-3074822D01*
X1564995Y-3071266D01*
X1564995Y-2553106D01*
X1564182Y-2544622D01*
X1561846Y-2536952D01*
X1558086Y-2529890D01*
X1552702Y-2523337D01*
X1339392Y-2310282D01*
X1337208Y-2306980D01*
X1336395Y-2303068D01*
X1336395Y-2223719D01*
X1337259Y-2219655D01*
X1339646Y-2216251D01*
X1343202Y-2214118D01*
X1346962Y-2212797D01*
X1351838Y-2209749D01*
X1355953Y-2205634D01*
X1359001Y-2200757D01*
X1360932Y-2195271D01*
X1361643Y-2188972D01*
X1361643Y-2103678D01*
X1360932Y-2097379D01*
X1359763Y-2092299D01*
X1360932Y-2087321D01*
X1361643Y-2080971D01*
X1361643Y-1995728D01*
X1360932Y-1989429D01*
X1359001Y-1983943D01*
X1355902Y-1979066D01*
X1351838Y-1974951D01*
X1346911Y-1971903D01*
X1343101Y-1970532D01*
X1339545Y-1968398D01*
X1337157Y-1964994D01*
X1336294Y-1960930D01*
X1336294Y-1853031D01*
X1337056Y-1849272D01*
X1345031Y-1837486D01*
X1349044Y-1828698D01*
X1351432Y-1819351D01*
X1352296Y-1809750D01*
X1351432Y-1800148D01*
X1349044Y-1790801D01*
X1345031Y-1782013D01*
X1339646Y-1774037D01*
X1332992Y-1767078D01*
X1325219Y-1761337D01*
X1316583Y-1756968D01*
X1307388Y-1754174D01*
X1297838Y-1752904D01*
X1288186Y-1753362D01*
X1278737Y-1755393D01*
X1269796Y-1758950D01*
X1261567Y-1764030D01*
X1254353Y-1770380D01*
X1248257Y-1777898D01*
X1243584Y-1786331D01*
X1240383Y-1795424D01*
X1238758Y-1804924D01*
X1238758Y-1814575D01*
X1240383Y-1824075D01*
X1243584Y-1833168D01*
X1248257Y-1841601D01*
X1252220Y-1846478D01*
X1253896Y-1849475D01*
X1254506Y-1852879D01*
X1254506Y-1960930D01*
X1253642Y-1964994D01*
X1251254Y-1968398D01*
X1247698Y-1970532D01*
X1243838Y-1971903D01*
X1238961Y-1974951D01*
X1234846Y-1979066D01*
X1231798Y-1983943D01*
X1229868Y-1989429D01*
X1229156Y-1995728D01*
X1229156Y-2080971D01*
X1229868Y-2087321D01*
X1231036Y-2092350D01*
X1229868Y-2097379D01*
X1229156Y-2103678D01*
X1229156Y-2188972D01*
X1229868Y-2195271D01*
X1231798Y-2200757D01*
X1234897Y-2205634D01*
X1238961Y-2209749D01*
X1243888Y-2212797D01*
X1247800Y-2214168D01*
X1251356Y-2216302D01*
X1253744Y-2219706D01*
X1254607Y-2223770D01*
X1254607Y-2323744D01*
X1255420Y-2332228D01*
X1257757Y-2339898D01*
X1261516Y-2346960D01*
X1266901Y-2353513D01*
X1480210Y-2566568D01*
X1482394Y-2569870D01*
X1483207Y-2573782D01*
X1483207Y-2816860D01*
X1482445Y-2820771D01*
X1480210Y-2824073D01*
X1476908Y-2826258D01*
X1473047Y-2827020D01*
X1469136Y-2826258D01*
X1465834Y-2824073D01*
X1462735Y-2820924D01*
X1460500Y-2817622D01*
X1459738Y-2813761D01*
X1459738Y-2766974D01*
X1459026Y-2760624D01*
X1457096Y-2755188D01*
X1454048Y-2750261D01*
X1449933Y-2746197D01*
X1445056Y-2743098D01*
X1439570Y-2741168D01*
X1433271Y-2740456D01*
X1347978Y-2740456D01*
X1341678Y-2741168D01*
X1336598Y-2742387D01*
X1333296Y-2741828D01*
X1330401Y-2740812D01*
X1326845Y-2738678D01*
X1324406Y-2735275D01*
X1323594Y-2731211D01*
X1323594Y-2578608D01*
X1322730Y-2570124D01*
X1320393Y-2562453D01*
X1316634Y-2555392D01*
X1311249Y-2548788D01*
X1259535Y-2497124D01*
X1257503Y-2494229D01*
X1256639Y-2490825D01*
X1256182Y-2485948D01*
X1253794Y-2476601D01*
X1249781Y-2467813D01*
X1244396Y-2459837D01*
X1237742Y-2452878D01*
X1229969Y-2447137D01*
X1221333Y-2442768D01*
X1212138Y-2439974D01*
X1202588Y-2438704D01*
X1192936Y-2439162D01*
X1183487Y-2441194D01*
X1174546Y-2444750D01*
X1166317Y-2449830D01*
X1159103Y-2456180D01*
X1153007Y-2463698D01*
X1148334Y-2472131D01*
X1145133Y-2481224D01*
X1143508Y-2490724D01*
X1143508Y-2500376D01*
X1145133Y-2509875D01*
X1148334Y-2518968D01*
X1153007Y-2527401D01*
X1159103Y-2534920D01*
X1166317Y-2541270D01*
X1174546Y-2546350D01*
X1183487Y-2549906D01*
X1192936Y-2551938D01*
X1194968Y-2552039D01*
X1198626Y-2552903D01*
X1201724Y-2555036D01*
X1238758Y-2592070D01*
X1240993Y-2595372D01*
X1241755Y-2599232D01*
X1241755Y-2731211D01*
X1240891Y-2735275D01*
X1238504Y-2738678D01*
X1234897Y-2740812D01*
X1228852Y-2742895D01*
X1225550Y-2743454D01*
X1222197Y-2742895D01*
X1217320Y-2741168D01*
X1211021Y-2740456D01*
X1125728Y-2740456D01*
X1119428Y-2741168D01*
X1113942Y-2743098D01*
X1109065Y-2746197D01*
X1104950Y-2750261D01*
X1101902Y-2755188D01*
X1099972Y-2760624D01*
X1099261Y-2766974D01*
X1099261Y-2846476D01*
X1099972Y-2852775D01*
X1101902Y-2858262D01*
X1104950Y-2863138D01*
X1109065Y-2867253D01*
X1113942Y-2870301D01*
X1120648Y-2872638D01*
X1124204Y-2874772D01*
X1126642Y-2878124D01*
X1127506Y-2882239D01*
X1127506Y-2971292D01*
X1128318Y-2979775D01*
X1130655Y-2987446D01*
X1134414Y-2994507D01*
X1139799Y-3001111D01*
X1208582Y-3069844D01*
X1210716Y-3072942D01*
X1211529Y-3076600D01*
X1211021Y-3080308D01*
X1209192Y-3083560D01*
X1206296Y-3085947D01*
X1204417Y-3086963D01*
X1192682Y-3095498D01*
X1182065Y-3105505D01*
X1172768Y-3116681D01*
X1164996Y-3128975D01*
X1158798Y-3142132D01*
X1154277Y-3156000D01*
X1151534Y-3170275D01*
X1150620Y-3184804D01*
X1151534Y-3199333D01*
X1154277Y-3213658D01*
X1158798Y-3227476D01*
X1164996Y-3240633D01*
X1172768Y-3252927D01*
X1182065Y-3264153D01*
X1192682Y-3274110D01*
X1204417Y-3282645D01*
X1217168Y-3289655D01*
X1230731Y-3295040D01*
X1244803Y-3298647D01*
G37*
G36*
X2021281Y-3300476D02*
G01*
X2035810Y-3300476D01*
X2050237Y-3298647D01*
X2064359Y-3295040D01*
X2077872Y-3289655D01*
X2090623Y-3282645D01*
X2102408Y-3274110D01*
X2113026Y-3264153D01*
X2122271Y-3252927D01*
X2130094Y-3240633D01*
X2136292Y-3227476D01*
X2140762Y-3213658D01*
X2143506Y-3199333D01*
X2144420Y-3184804D01*
X2143506Y-3170275D01*
X2140762Y-3156000D01*
X2136292Y-3142132D01*
X2130094Y-3128975D01*
X2122271Y-3116681D01*
X2113026Y-3105505D01*
X2102408Y-3095498D01*
X2090623Y-3086963D01*
X2077872Y-3079953D01*
X2075891Y-3079140D01*
X2072487Y-3076956D01*
X2070252Y-3073654D01*
X2069439Y-3069742D01*
X2069439Y-511403D01*
X2068626Y-502920D01*
X2066289Y-495300D01*
X2062530Y-488238D01*
X2057095Y-481634D01*
X1263091Y312420D01*
X1260856Y315722D01*
X1260094Y319582D01*
X1260094Y348437D01*
X1261110Y352806D01*
X1263853Y356311D01*
X1267917Y358292D01*
X1272387Y358343D01*
X1281836Y356311D01*
X1291437Y355904D01*
X1301038Y357124D01*
X1310233Y359968D01*
X1318869Y364286D01*
X1326591Y370027D01*
X1333296Y376986D01*
X1338681Y385013D01*
X1342644Y393801D01*
X1345082Y403148D01*
X1345488Y407974D01*
X1346403Y411378D01*
X1348435Y414274D01*
X1363522Y429361D01*
X1366824Y431596D01*
X1370736Y432358D01*
X1374597Y431596D01*
X1377899Y429361D01*
X1380134Y426110D01*
X1380896Y422198D01*
X1380896Y404723D01*
X1381607Y398424D01*
X1383487Y392938D01*
X1386586Y388061D01*
X1390700Y383946D01*
X1395577Y380898D01*
X1401064Y378968D01*
X1407363Y378256D01*
X1422146Y378256D01*
X1426006Y377494D01*
X1429308Y375259D01*
X1431544Y372008D01*
X1432306Y368096D01*
X1432306Y335229D01*
X1431696Y331825D01*
X1430020Y328828D01*
X1426057Y323951D01*
X1421384Y315518D01*
X1418132Y306425D01*
X1416507Y296926D01*
X1416507Y287274D01*
X1418132Y277774D01*
X1421384Y268681D01*
X1426057Y260248D01*
X1432153Y252729D01*
X1439367Y246379D01*
X1447596Y241300D01*
X1456537Y237693D01*
X1465986Y235661D01*
X1475587Y235254D01*
X1485188Y236474D01*
X1494383Y239318D01*
X1503019Y243636D01*
X1510741Y249377D01*
X1517446Y256336D01*
X1522831Y264363D01*
X1526794Y273151D01*
X1529232Y282498D01*
X1530045Y292100D01*
X1529232Y301701D01*
X1526794Y311048D01*
X1522831Y319836D01*
X1514856Y331571D01*
X1514094Y335381D01*
X1514094Y386283D01*
X1514500Y389077D01*
X1516481Y392938D01*
X1518412Y398424D01*
X1519123Y404723D01*
X1519123Y469696D01*
X1519885Y473608D01*
X1522069Y476859D01*
X1525371Y479094D01*
X1529283Y479856D01*
X1598371Y479856D01*
X1604670Y480568D01*
X1610156Y482498D01*
X1615033Y485546D01*
X1619148Y489661D01*
X1624634Y498348D01*
X1628444Y500735D01*
X1632864Y501243D01*
X1637131Y499821D01*
X1644446Y495300D01*
X1653387Y491693D01*
X1662836Y489661D01*
X1672437Y489254D01*
X1682038Y490474D01*
X1691233Y493318D01*
X1699869Y497636D01*
X1707591Y503377D01*
X1714296Y510336D01*
X1719681Y518363D01*
X1723643Y527151D01*
X1726082Y536498D01*
X1726895Y546100D01*
X1726082Y555701D01*
X1723643Y565048D01*
X1722729Y567131D01*
X1721815Y571093D01*
X1722526Y575056D01*
X1724710Y578408D01*
X1728012Y580694D01*
X1731975Y581507D01*
X1851355Y581507D01*
X1854809Y580898D01*
X1857806Y579170D01*
X1860092Y576580D01*
X1861362Y573328D01*
X1864004Y560019D01*
X1868373Y547065D01*
X1874418Y534771D01*
X1882038Y523392D01*
X1891080Y513130D01*
X1901342Y504088D01*
X1912721Y496468D01*
X1925015Y490423D01*
X1937969Y486054D01*
X1951380Y483362D01*
X1965045Y482447D01*
X1978710Y483362D01*
X1992122Y486054D01*
X2005075Y490423D01*
X2017369Y496468D01*
X2028748Y504088D01*
X2039010Y513130D01*
X2048052Y523392D01*
X2055672Y534771D01*
X2061718Y547065D01*
X2066086Y560019D01*
X2068779Y573430D01*
X2069693Y587095D01*
X2068779Y600760D01*
X2066086Y614172D01*
X2061718Y627126D01*
X2055672Y639419D01*
X2048052Y650798D01*
X2039010Y661060D01*
X2028748Y670102D01*
X2017369Y677722D01*
X2005075Y683768D01*
X1992122Y688136D01*
X1978710Y690829D01*
X1965045Y691743D01*
X1951380Y690829D01*
X1937969Y688136D01*
X1925015Y683768D01*
X1912721Y677722D01*
X1901342Y670102D01*
X1896465Y665835D01*
X1893366Y663956D01*
X1889760Y663295D01*
X1720037Y663295D01*
X1715770Y664260D01*
X1712264Y666902D01*
X1710232Y670814D01*
X1710029Y675182D01*
X1711655Y679246D01*
X1714906Y682244D01*
X1719072Y683564D01*
X1722577Y683920D01*
X1730248Y686257D01*
X1737309Y690016D01*
X1743862Y695452D01*
X1830171Y781710D01*
X1833473Y783894D01*
X1837334Y784707D01*
X1871725Y784707D01*
X1875028Y784148D01*
X1877923Y782574D01*
X1880209Y780186D01*
X1882038Y777392D01*
X1891080Y767130D01*
X1901342Y758088D01*
X1912721Y750468D01*
X1925015Y744423D01*
X1937969Y740054D01*
X1951380Y737362D01*
X1965045Y736447D01*
X1978710Y737362D01*
X1992122Y740054D01*
X2005075Y744423D01*
X2017369Y750468D01*
X2028748Y758088D01*
X2039010Y767130D01*
X2048052Y777392D01*
X2055672Y788771D01*
X2061718Y801065D01*
X2066086Y814019D01*
X2068779Y827430D01*
X2069693Y841095D01*
X2068779Y854760D01*
X2066086Y868171D01*
X2061718Y881126D01*
X2055672Y893419D01*
X2048052Y904798D01*
X2039010Y915060D01*
X2028748Y924102D01*
X2017369Y931722D01*
X2005075Y937768D01*
X1992122Y942136D01*
X1978710Y944829D01*
X1965045Y945743D01*
X1951380Y944829D01*
X1937969Y942136D01*
X1925015Y937768D01*
X1912721Y931722D01*
X1901342Y924102D01*
X1891080Y915060D01*
X1882038Y904798D01*
X1874418Y893419D01*
X1868373Y881126D01*
X1865782Y873404D01*
X1863648Y869797D01*
X1860245Y867359D01*
X1856130Y866495D01*
X1816709Y866495D01*
X1808225Y865682D01*
X1800555Y863346D01*
X1793493Y859586D01*
X1786940Y854151D01*
X1700631Y767892D01*
X1697329Y765657D01*
X1693468Y764895D01*
X1666443Y764895D01*
X1662531Y765657D01*
X1659280Y767892D01*
X1657045Y771194D01*
X1656283Y775055D01*
X1657045Y778967D01*
X1659280Y782269D01*
X1724101Y847140D01*
X1729536Y853694D01*
X1733296Y860755D01*
X1735632Y868426D01*
X1736445Y876909D01*
X1736445Y1440281D01*
X1735632Y1448765D01*
X1733296Y1456436D01*
X1729536Y1463497D01*
X1724101Y1470050D01*
X1630933Y1563268D01*
X1628800Y1566316D01*
X1627936Y1569923D01*
X1628444Y1573580D01*
X1632762Y1586941D01*
X1635506Y1601266D01*
X1636420Y1615795D01*
X1635506Y1630324D01*
X1632762Y1644599D01*
X1628292Y1658467D01*
X1622094Y1671624D01*
X1614271Y1683918D01*
X1605026Y1695094D01*
X1594408Y1705102D01*
X1582623Y1713636D01*
X1569872Y1720646D01*
X1556359Y1725980D01*
X1542237Y1729638D01*
X1527810Y1731467D01*
X1513281Y1731467D01*
X1498803Y1729638D01*
X1484731Y1725980D01*
X1471168Y1720646D01*
X1458417Y1713636D01*
X1446682Y1705102D01*
X1436065Y1695094D01*
X1426768Y1683918D01*
X1418996Y1671624D01*
X1412798Y1658467D01*
X1408277Y1644599D01*
X1405534Y1630324D01*
X1404620Y1615795D01*
X1405534Y1601266D01*
X1408277Y1586941D01*
X1412798Y1573123D01*
X1418996Y1559966D01*
X1426768Y1547672D01*
X1436065Y1536446D01*
X1446682Y1526489D01*
X1458417Y1517954D01*
X1471168Y1510944D01*
X1484731Y1505559D01*
X1498803Y1501952D01*
X1513281Y1500124D01*
X1527810Y1500124D01*
X1542237Y1501952D01*
X1556359Y1505559D01*
X1561998Y1507794D01*
X1565859Y1508506D01*
X1569669Y1507744D01*
X1572920Y1505559D01*
X1651660Y1426819D01*
X1653895Y1423517D01*
X1654657Y1419656D01*
X1654657Y897534D01*
X1653895Y893673D01*
X1651660Y890371D01*
X1632000Y870712D01*
X1628698Y868527D01*
X1624838Y867765D01*
X1620926Y868527D01*
X1617624Y870712D01*
X1615033Y873302D01*
X1610156Y876401D01*
X1604670Y878332D01*
X1598371Y879043D01*
X1513128Y879043D01*
X1502867Y877519D01*
X1498955Y878281D01*
X1492605Y878992D01*
X1407464Y878992D01*
X1399438Y877976D01*
X1388821Y879043D01*
X1303578Y879043D01*
X1297228Y878332D01*
X1291793Y876401D01*
X1286865Y873302D01*
X1282801Y869238D01*
X1279702Y864311D01*
X1277772Y858875D01*
X1277061Y852525D01*
X1277061Y805738D01*
X1276299Y801827D01*
X1274114Y798576D01*
X1190599Y715060D01*
X1185214Y708507D01*
X1181455Y701446D01*
X1179118Y693775D01*
X1178306Y685292D01*
X1178306Y298958D01*
X1179118Y290474D01*
X1181455Y282803D01*
X1185214Y275742D01*
X1190599Y269138D01*
X1984654Y-524865D01*
X1986889Y-528167D01*
X1987651Y-532079D01*
X1987651Y-3069691D01*
X1986838Y-3073654D01*
X1984603Y-3076956D01*
X1981200Y-3079140D01*
X1979168Y-3079953D01*
X1966417Y-3086963D01*
X1954682Y-3095498D01*
X1944065Y-3105505D01*
X1934768Y-3116681D01*
X1926996Y-3128975D01*
X1920798Y-3142132D01*
X1916277Y-3156000D01*
X1913534Y-3170275D01*
X1912620Y-3184804D01*
X1913534Y-3199333D01*
X1916277Y-3213658D01*
X1920798Y-3227476D01*
X1926996Y-3240633D01*
X1934768Y-3252927D01*
X1944065Y-3264153D01*
X1954682Y-3274110D01*
X1966417Y-3282645D01*
X1979168Y-3289655D01*
X1992731Y-3295040D01*
X2006803Y-3298647D01*
G37*
G36*
X1767281Y-3300476D02*
G01*
X1781810Y-3300476D01*
X1796237Y-3298647D01*
X1810359Y-3295040D01*
X1823872Y-3289655D01*
X1836623Y-3282645D01*
X1848408Y-3274110D01*
X1859025Y-3264153D01*
X1868271Y-3252927D01*
X1876094Y-3240633D01*
X1882292Y-3227476D01*
X1886762Y-3213658D01*
X1889506Y-3199333D01*
X1890420Y-3184804D01*
X1889506Y-3170275D01*
X1886762Y-3156000D01*
X1882444Y-3142640D01*
X1881936Y-3138932D01*
X1882800Y-3135325D01*
X1884934Y-3132277D01*
X1895551Y-3121609D01*
X1900986Y-3115056D01*
X1904746Y-3107994D01*
X1907082Y-3100324D01*
X1907895Y-3091840D01*
X1907895Y-683920D01*
X1907082Y-675436D01*
X1904746Y-667766D01*
X1900986Y-660704D01*
X1895551Y-654151D01*
X1822399Y-580948D01*
X1820113Y-577443D01*
X1819452Y-573328D01*
X1820519Y-569264D01*
X1823110Y-565962D01*
X1826818Y-564032D01*
X1830984Y-563727D01*
X1843887Y-568756D01*
X1853336Y-570788D01*
X1862937Y-571195D01*
X1872538Y-569976D01*
X1881733Y-567131D01*
X1890369Y-562813D01*
X1898091Y-557072D01*
X1904796Y-550113D01*
X1910181Y-542086D01*
X1914143Y-533298D01*
X1916582Y-523951D01*
X1917395Y-514350D01*
X1916582Y-504748D01*
X1914143Y-495401D01*
X1910181Y-486613D01*
X1904796Y-478637D01*
X1898091Y-471678D01*
X1890369Y-465937D01*
X1881733Y-461568D01*
X1872538Y-458774D01*
X1862937Y-457555D01*
X1853336Y-457962D01*
X1843887Y-459993D01*
X1834946Y-463600D01*
X1826717Y-468630D01*
X1819503Y-475030D01*
X1813407Y-482498D01*
X1808734Y-490931D01*
X1805482Y-500024D01*
X1803857Y-509524D01*
X1803857Y-519176D01*
X1805482Y-528675D01*
X1808734Y-537768D01*
X1810359Y-540715D01*
X1811578Y-544677D01*
X1811172Y-548792D01*
X1809140Y-552348D01*
X1805838Y-554837D01*
X1801825Y-555853D01*
X1797761Y-555142D01*
X1794306Y-552856D01*
X1117142Y124307D01*
X1114958Y127609D01*
X1114145Y131470D01*
X1114145Y867968D01*
X1114958Y871829D01*
X1117142Y875131D01*
X1334820Y1092809D01*
X1338122Y1095044D01*
X1342034Y1095806D01*
X1388821Y1095806D01*
X1396288Y1096670D01*
X1402638Y1096314D01*
X1406550Y1095248D01*
X1409700Y1092708D01*
X1411630Y1089152D01*
X1412240Y1087069D01*
X1415999Y1080008D01*
X1421434Y1073454D01*
X1515160Y979678D01*
X1516989Y977188D01*
X1518005Y974191D01*
X1519783Y963523D01*
X1522984Y954481D01*
X1527657Y946048D01*
X1533753Y938530D01*
X1540967Y932180D01*
X1549196Y927100D01*
X1558137Y923493D01*
X1567586Y921461D01*
X1577187Y921054D01*
X1586788Y922274D01*
X1595983Y925118D01*
X1604619Y929436D01*
X1612341Y935177D01*
X1619046Y942136D01*
X1624431Y950163D01*
X1628394Y958951D01*
X1630832Y968298D01*
X1631645Y977900D01*
X1630832Y987501D01*
X1628394Y996848D01*
X1624431Y1005636D01*
X1619046Y1013612D01*
X1612341Y1020571D01*
X1604619Y1026312D01*
X1595983Y1030681D01*
X1586788Y1033475D01*
X1579067Y1034491D01*
X1575917Y1035405D01*
X1573174Y1037386D01*
X1532077Y1078484D01*
X1529892Y1081735D01*
X1529130Y1085646D01*
X1529892Y1089558D01*
X1532077Y1092809D01*
X1535379Y1095044D01*
X1539290Y1095806D01*
X1598371Y1095806D01*
X1604721Y1096518D01*
X1610156Y1098448D01*
X1615033Y1101496D01*
X1619148Y1105611D01*
X1622247Y1110488D01*
X1624126Y1115974D01*
X1624838Y1122273D01*
X1624838Y1201775D01*
X1624126Y1208125D01*
X1622247Y1213561D01*
X1619148Y1218488D01*
X1615033Y1222552D01*
X1610156Y1225651D01*
X1603552Y1227937D01*
X1599996Y1230071D01*
X1597609Y1233474D01*
X1596745Y1237538D01*
X1596745Y1326743D01*
X1595932Y1335227D01*
X1593596Y1342898D01*
X1589836Y1349959D01*
X1584401Y1356512D01*
X1496212Y1444701D01*
X1489659Y1450136D01*
X1482598Y1453896D01*
X1474927Y1456232D01*
X1466443Y1457045D01*
X1458925Y1457045D01*
X1454658Y1458010D01*
X1451152Y1460652D01*
X1372006Y1554378D01*
X1370126Y1557680D01*
X1369618Y1561490D01*
X1370584Y1565249D01*
X1374292Y1573123D01*
X1378762Y1586941D01*
X1381506Y1601266D01*
X1382420Y1615795D01*
X1381506Y1630324D01*
X1378762Y1644599D01*
X1374292Y1658467D01*
X1368094Y1671624D01*
X1360271Y1683918D01*
X1351026Y1695094D01*
X1340408Y1705102D01*
X1328623Y1713636D01*
X1315872Y1720646D01*
X1302359Y1725980D01*
X1288237Y1729638D01*
X1273810Y1731467D01*
X1259281Y1731467D01*
X1244803Y1729638D01*
X1230731Y1725980D01*
X1217168Y1720646D01*
X1204417Y1713636D01*
X1192682Y1705102D01*
X1182065Y1695094D01*
X1172768Y1683918D01*
X1164996Y1671624D01*
X1158798Y1658467D01*
X1154277Y1644599D01*
X1151534Y1630324D01*
X1150620Y1615795D01*
X1151534Y1601266D01*
X1154277Y1586941D01*
X1158798Y1573123D01*
X1164996Y1559966D01*
X1172768Y1547672D01*
X1182065Y1536446D01*
X1192682Y1526489D01*
X1195781Y1524254D01*
X1198676Y1521002D01*
X1199946Y1516837D01*
X1199337Y1512519D01*
X1197000Y1508810D01*
X1007364Y1319174D01*
X1004062Y1316990D01*
X1000150Y1316228D01*
X947928Y1316228D01*
X941628Y1315516D01*
X936650Y1314348D01*
X931621Y1315516D01*
X925271Y1316228D01*
X840028Y1316228D01*
X833678Y1315516D01*
X828802Y1313789D01*
X825500Y1313230D01*
X822147Y1313789D01*
X816152Y1315872D01*
X812596Y1318006D01*
X810209Y1321409D01*
X809345Y1325473D01*
X809345Y1505712D01*
X810006Y1509268D01*
X811834Y1512366D01*
X814628Y1514652D01*
X820623Y1517954D01*
X832408Y1526489D01*
X843026Y1536446D01*
X852271Y1547672D01*
X860094Y1559966D01*
X866292Y1573123D01*
X870762Y1586941D01*
X873506Y1601266D01*
X874420Y1615795D01*
X873506Y1630324D01*
X870762Y1644599D01*
X866292Y1658467D01*
X860094Y1671624D01*
X852271Y1683918D01*
X843026Y1695094D01*
X832408Y1705102D01*
X820623Y1713636D01*
X807872Y1720646D01*
X794359Y1725980D01*
X780237Y1729638D01*
X765810Y1731467D01*
X751281Y1731467D01*
X736803Y1729638D01*
X722731Y1725980D01*
X709168Y1720646D01*
X696417Y1713636D01*
X684682Y1705102D01*
X674065Y1695094D01*
X664768Y1683918D01*
X656996Y1671624D01*
X650798Y1658467D01*
X646277Y1644599D01*
X643534Y1630324D01*
X642620Y1615795D01*
X643534Y1601266D01*
X646277Y1586941D01*
X650798Y1573123D01*
X656996Y1559966D01*
X664768Y1547672D01*
X674065Y1536446D01*
X684682Y1526489D01*
X696417Y1517954D01*
X709168Y1510944D01*
X721106Y1506220D01*
X724509Y1504035D01*
X726744Y1500682D01*
X727557Y1496771D01*
X727557Y1325524D01*
X726694Y1321409D01*
X724255Y1318006D01*
X720648Y1315872D01*
X713892Y1313586D01*
X709015Y1310538D01*
X704900Y1306423D01*
X701852Y1301546D01*
X699922Y1296060D01*
X699211Y1289761D01*
X699211Y1210208D01*
X699922Y1203909D01*
X701852Y1198422D01*
X704900Y1193546D01*
X709015Y1189431D01*
X713892Y1186383D01*
X719378Y1184452D01*
X725678Y1183741D01*
X810971Y1183741D01*
X817270Y1184452D01*
X822147Y1186180D01*
X825500Y1186738D01*
X828852Y1186180D01*
X833170Y1184656D01*
X836676Y1182573D01*
X839063Y1179271D01*
X839978Y1175308D01*
X839216Y1171295D01*
X836980Y1167892D01*
X771652Y1102512D01*
X766216Y1095959D01*
X762457Y1088898D01*
X760120Y1081227D01*
X759307Y1072743D01*
X759307Y538530D01*
X758698Y535178D01*
X757021Y532180D01*
X752957Y527151D01*
X748284Y518718D01*
X745083Y509625D01*
X743458Y500126D01*
X743458Y490474D01*
X745083Y480974D01*
X748284Y471881D01*
X752957Y463448D01*
X759053Y455930D01*
X766267Y449580D01*
X774496Y444500D01*
X783437Y440943D01*
X792886Y438912D01*
X802538Y438454D01*
X812088Y439724D01*
X821283Y442518D01*
X829919Y446887D01*
X837692Y452628D01*
X844346Y459587D01*
X849731Y467563D01*
X853744Y476351D01*
X856132Y485698D01*
X856996Y495300D01*
X856132Y504901D01*
X853744Y514248D01*
X849731Y523036D01*
X841857Y534720D01*
X841095Y538480D01*
X841095Y959408D01*
X841857Y963168D01*
X843940Y966419D01*
X847090Y968654D01*
X850849Y969568D01*
X854659Y968959D01*
X857961Y967028D01*
X861517Y963930D01*
X869746Y958850D01*
X878687Y955243D01*
X888136Y953211D01*
X897737Y952804D01*
X907338Y954024D01*
X916533Y956868D01*
X925169Y961186D01*
X932891Y966927D01*
X939596Y973886D01*
X944981Y981913D01*
X948944Y990701D01*
X951382Y1000048D01*
X952195Y1009650D01*
X951382Y1019251D01*
X948944Y1028598D01*
X944981Y1037386D01*
X939596Y1045362D01*
X932891Y1052322D01*
X925169Y1058062D01*
X916533Y1062431D01*
X907338Y1065225D01*
X897737Y1066444D01*
X888136Y1066038D01*
X878687Y1064006D01*
X874877Y1062482D01*
X871016Y1061770D01*
X867105Y1062532D01*
X863853Y1064768D01*
X861669Y1068070D01*
X860907Y1071930D01*
X861720Y1075791D01*
X863904Y1079093D01*
X911301Y1126540D01*
X916736Y1133094D01*
X920496Y1140155D01*
X922832Y1147826D01*
X923645Y1156309D01*
X923645Y1174496D01*
X924509Y1178560D01*
X926896Y1181963D01*
X930452Y1184097D01*
X933246Y1185062D01*
X936599Y1185621D01*
X941628Y1184452D01*
X947928Y1183741D01*
X1033221Y1183741D01*
X1039520Y1184452D01*
X1045006Y1186383D01*
X1049883Y1189431D01*
X1053998Y1193546D01*
X1057046Y1198422D01*
X1058976Y1203909D01*
X1059688Y1210208D01*
X1059688Y1251610D01*
X1060450Y1255522D01*
X1062685Y1258824D01*
X1273149Y1469288D01*
X1278534Y1475892D01*
X1282293Y1482953D01*
X1284630Y1490573D01*
X1284986Y1494231D01*
X1286205Y1498142D01*
X1288897Y1501241D01*
X1292606Y1503070D01*
X1299260Y1504797D01*
X1303020Y1505000D01*
X1306626Y1503883D01*
X1309573Y1501495D01*
X1364792Y1436116D01*
X1366774Y1432458D01*
X1367078Y1428242D01*
X1365707Y1424279D01*
X1362811Y1421231D01*
X1358950Y1419606D01*
X1354785Y1419656D01*
X1350975Y1421384D01*
X1344269Y1426362D01*
X1335633Y1430731D01*
X1326438Y1433525D01*
X1316837Y1434744D01*
X1307236Y1434338D01*
X1297787Y1432306D01*
X1288846Y1428699D01*
X1280617Y1423670D01*
X1273403Y1417269D01*
X1267307Y1409801D01*
X1262634Y1401368D01*
X1259382Y1392275D01*
X1257757Y1382776D01*
X1257757Y1373124D01*
X1259382Y1363624D01*
X1262634Y1354531D01*
X1267307Y1346098D01*
X1273403Y1338580D01*
X1280617Y1332230D01*
X1288846Y1327150D01*
X1297787Y1323543D01*
X1307236Y1321511D01*
X1316837Y1321104D01*
X1325778Y1322273D01*
X1328826Y1322171D01*
X1331772Y1321206D01*
X1334211Y1319377D01*
X1377899Y1275689D01*
X1380083Y1272387D01*
X1380896Y1268526D01*
X1380896Y1238453D01*
X1380083Y1234541D01*
X1377899Y1231239D01*
X1374597Y1229055D01*
X1370736Y1228293D01*
X1303578Y1228293D01*
X1297228Y1227582D01*
X1291793Y1225651D01*
X1286865Y1222552D01*
X1282801Y1218488D01*
X1279702Y1213561D01*
X1277823Y1208125D01*
X1277112Y1201775D01*
X1277112Y1154988D01*
X1276299Y1151128D01*
X1274114Y1147826D01*
X1044702Y918362D01*
X1039266Y911809D01*
X1035507Y904748D01*
X1033170Y897077D01*
X1032357Y888593D01*
X1032357Y110845D01*
X1033170Y102362D01*
X1035507Y94691D01*
X1039266Y87630D01*
X1044702Y81076D01*
X1823110Y-697382D01*
X1825345Y-700684D01*
X1826107Y-704545D01*
X1826107Y-3065881D01*
X1825345Y-3069742D01*
X1823161Y-3073044D01*
X1819910Y-3075228D01*
X1816049Y-3076041D01*
X1812188Y-3075330D01*
X1810359Y-3074619D01*
X1796237Y-3070961D01*
X1781810Y-3069132D01*
X1767281Y-3069132D01*
X1752803Y-3070961D01*
X1738731Y-3074619D01*
X1725168Y-3079953D01*
X1712417Y-3086963D01*
X1700682Y-3095498D01*
X1690065Y-3105505D01*
X1680768Y-3116681D01*
X1672996Y-3128975D01*
X1666798Y-3142132D01*
X1662277Y-3156000D01*
X1659534Y-3170275D01*
X1658620Y-3184804D01*
X1659534Y-3199333D01*
X1662277Y-3213658D01*
X1666798Y-3227476D01*
X1672996Y-3240633D01*
X1680768Y-3252927D01*
X1690065Y-3264153D01*
X1700682Y-3274110D01*
X1712417Y-3282645D01*
X1725168Y-3289655D01*
X1738731Y-3295040D01*
X1752803Y-3298647D01*
G37*
G36*
X2320747Y-2924454D02*
G01*
X2339543Y-2924454D01*
X2358288Y-2922574D01*
X2376728Y-2918764D01*
X2394712Y-2913126D01*
X2412034Y-2905709D01*
X2428494Y-2896565D01*
X2443937Y-2885795D01*
X2458212Y-2873552D01*
X2471216Y-2859887D01*
X2482697Y-2845003D01*
X2492705Y-2829001D01*
X2500985Y-2812135D01*
X2507538Y-2794457D01*
X2512212Y-2776220D01*
X2515108Y-2757627D01*
X2516022Y-2738831D01*
X2515108Y-2719984D01*
X2512212Y-2701391D01*
X2507538Y-2683154D01*
X2500985Y-2665476D01*
X2492705Y-2648610D01*
X2482697Y-2632608D01*
X2471216Y-2617724D01*
X2458212Y-2604058D01*
X2443937Y-2591816D01*
X2428494Y-2581046D01*
X2412034Y-2571902D01*
X2394712Y-2564485D01*
X2376728Y-2558846D01*
X2358288Y-2555036D01*
X2339543Y-2553157D01*
X2320747Y-2553157D01*
X2302002Y-2555036D01*
X2283561Y-2558846D01*
X2265578Y-2564485D01*
X2248255Y-2571902D01*
X2231796Y-2581046D01*
X2216353Y-2591816D01*
X2202078Y-2604058D01*
X2189073Y-2617724D01*
X2177592Y-2632608D01*
X2167585Y-2648610D01*
X2159304Y-2665476D01*
X2152751Y-2683154D01*
X2148078Y-2701391D01*
X2145182Y-2719984D01*
X2144268Y-2738831D01*
X2145182Y-2757627D01*
X2148078Y-2776220D01*
X2152751Y-2794457D01*
X2159304Y-2812135D01*
X2167585Y-2829001D01*
X2177592Y-2845003D01*
X2189073Y-2859887D01*
X2202078Y-2873552D01*
X2216353Y-2885795D01*
X2231796Y-2896565D01*
X2248255Y-2905709D01*
X2265578Y-2913126D01*
X2283561Y-2918764D01*
X2302002Y-2922574D01*
G37*
G36*
X1076045Y-2491841D02*
G01*
X1085850Y-2490978D01*
X1095298Y-2488438D01*
X1104239Y-2484323D01*
X1112266Y-2478684D01*
X1119225Y-2471724D01*
X1124864Y-2463698D01*
X1128979Y-2454757D01*
X1131519Y-2445308D01*
X1132382Y-2435504D01*
X1131519Y-2425700D01*
X1128979Y-2416251D01*
X1124864Y-2407310D01*
X1119225Y-2399284D01*
X1117650Y-2397709D01*
X1115415Y-2394407D01*
X1114653Y-2390495D01*
X1114653Y-556412D01*
X1113840Y-548386D01*
X1111656Y-541172D01*
X1108100Y-534466D01*
X1102969Y-528269D01*
X536905Y37846D01*
X534670Y41148D01*
X533908Y45059D01*
X533908Y431241D01*
X534670Y435152D01*
X536905Y438454D01*
X538480Y440029D01*
X544118Y448056D01*
X548233Y456996D01*
X550773Y466445D01*
X551637Y476250D01*
X550773Y486054D01*
X548233Y495503D01*
X544118Y504443D01*
X538480Y512470D01*
X531520Y519430D01*
X523493Y525068D01*
X514553Y529183D01*
X505104Y531723D01*
X495300Y532587D01*
X485495Y531723D01*
X476046Y529183D01*
X467106Y525068D01*
X459079Y519430D01*
X452120Y512470D01*
X446481Y504443D01*
X442366Y495503D01*
X439826Y486054D01*
X438962Y476250D01*
X439826Y466445D01*
X442366Y456996D01*
X446481Y448056D01*
X452120Y440029D01*
X453694Y438454D01*
X455930Y435152D01*
X456692Y431241D01*
X456692Y25349D01*
X457504Y17322D01*
X459689Y10109D01*
X463245Y3403D01*
X468376Y-2794D01*
X1034440Y-568909D01*
X1036675Y-572211D01*
X1037437Y-576122D01*
X1037437Y-2390495D01*
X1036675Y-2394407D01*
X1034440Y-2397709D01*
X1032865Y-2399284D01*
X1027226Y-2407310D01*
X1023112Y-2416251D01*
X1020571Y-2425700D01*
X1019708Y-2435504D01*
X1020571Y-2445308D01*
X1023112Y-2454757D01*
X1027226Y-2463698D01*
X1032865Y-2471724D01*
X1039825Y-2478684D01*
X1047851Y-2484323D01*
X1056792Y-2488438D01*
X1066241Y-2490978D01*
G37*
G36*
X-509422Y-1634896D02*
G01*
X-499719Y-1634032D01*
X-490321Y-1631492D01*
X-481482Y-1627378D01*
X-473506Y-1621790D01*
X-466648Y-1614932D01*
X-461060Y-1606956D01*
X-456946Y-1598117D01*
X-454406Y-1588719D01*
X-453542Y-1579016D01*
X-454406Y-1569313D01*
X-456946Y-1559915D01*
X-461060Y-1551076D01*
X-466648Y-1543100D01*
X-473506Y-1536242D01*
X-481482Y-1530654D01*
X-490321Y-1526540D01*
X-499719Y-1524000D01*
X-509422Y-1523136D01*
X-519125Y-1524000D01*
X-528523Y-1526540D01*
X-537362Y-1530654D01*
X-545338Y-1536242D01*
X-552196Y-1543100D01*
X-557784Y-1551076D01*
X-561898Y-1559915D01*
X-564438Y-1569313D01*
X-565302Y-1579016D01*
X-564438Y-1588719D01*
X-561898Y-1598117D01*
X-557784Y-1606956D01*
X-552196Y-1614932D01*
X-545338Y-1621790D01*
X-537362Y-1627378D01*
X-528523Y-1631492D01*
X-519125Y-1634032D01*
G37*
G36*
X-506882Y-1490878D02*
G01*
X-497179Y-1490014D01*
X-487781Y-1487474D01*
X-478942Y-1483360D01*
X-470966Y-1477772D01*
X-464108Y-1470914D01*
X-458520Y-1462938D01*
X-454406Y-1454099D01*
X-451866Y-1444701D01*
X-451002Y-1434998D01*
X-451866Y-1425295D01*
X-454406Y-1415897D01*
X-458520Y-1407058D01*
X-464108Y-1399082D01*
X-470966Y-1392224D01*
X-478942Y-1386636D01*
X-487781Y-1382522D01*
X-497179Y-1379982D01*
X-506882Y-1379118D01*
X-516585Y-1379982D01*
X-525983Y-1382522D01*
X-534822Y-1386636D01*
X-542798Y-1392224D01*
X-549656Y-1399082D01*
X-555244Y-1407058D01*
X-559358Y-1415897D01*
X-561898Y-1425295D01*
X-562762Y-1434998D01*
X-561898Y-1444701D01*
X-559358Y-1454099D01*
X-555244Y-1462938D01*
X-549656Y-1470914D01*
X-542798Y-1477772D01*
X-534822Y-1483360D01*
X-525983Y-1487474D01*
X-516585Y-1490014D01*
G37*
G36*
X548640Y-1485493D02*
G01*
X558190Y-1484223D01*
X567385Y-1481429D01*
X576021Y-1477060D01*
X583793Y-1471320D01*
X590448Y-1464360D01*
X595833Y-1456385D01*
X599846Y-1447596D01*
X602234Y-1438249D01*
X603097Y-1428648D01*
X602234Y-1419047D01*
X599846Y-1409700D01*
X595833Y-1400911D01*
X587857Y-1389126D01*
X587095Y-1385366D01*
X587095Y-916381D01*
X587908Y-912520D01*
X590092Y-909218D01*
X874674Y-624636D01*
X877366Y-622706D01*
X880567Y-621741D01*
X888288Y-620776D01*
X897483Y-617931D01*
X906119Y-613613D01*
X913841Y-607872D01*
X920546Y-600913D01*
X925931Y-592886D01*
X929894Y-584098D01*
X932332Y-574751D01*
X933145Y-565150D01*
X932332Y-555548D01*
X929894Y-546201D01*
X925931Y-537413D01*
X920546Y-529437D01*
X913841Y-522478D01*
X906119Y-516737D01*
X897483Y-512368D01*
X888288Y-509574D01*
X878687Y-508355D01*
X869086Y-508762D01*
X859637Y-510793D01*
X850696Y-514400D01*
X842467Y-519430D01*
X835253Y-525830D01*
X829157Y-533298D01*
X824484Y-541731D01*
X821283Y-550824D01*
X819505Y-561441D01*
X818489Y-564438D01*
X816660Y-566928D01*
X517651Y-865987D01*
X512216Y-872540D01*
X508457Y-879602D01*
X506120Y-887272D01*
X505307Y-895756D01*
X505307Y-1385519D01*
X504698Y-1388922D01*
X503021Y-1391920D01*
X499059Y-1396796D01*
X494385Y-1405229D01*
X491185Y-1414322D01*
X489559Y-1423822D01*
X489559Y-1433474D01*
X491185Y-1442974D01*
X494385Y-1452067D01*
X499059Y-1460500D01*
X505155Y-1468018D01*
X512368Y-1474368D01*
X520598Y-1479448D01*
X529539Y-1483004D01*
X538988Y-1485036D01*
G37*
G36*
X-506882Y-1097178D02*
G01*
X-497179Y-1096314D01*
X-487781Y-1093774D01*
X-478942Y-1089660D01*
X-470966Y-1084072D01*
X-464108Y-1077214D01*
X-458520Y-1069238D01*
X-454406Y-1060399D01*
X-451866Y-1051001D01*
X-451002Y-1041298D01*
X-451866Y-1031595D01*
X-454406Y-1022197D01*
X-458520Y-1013358D01*
X-464108Y-1005382D01*
X-470966Y-998524D01*
X-478942Y-992936D01*
X-487781Y-988821D01*
X-497179Y-986282D01*
X-506882Y-985418D01*
X-516585Y-986282D01*
X-525983Y-988821D01*
X-534822Y-992936D01*
X-542798Y-998524D01*
X-549656Y-1005382D01*
X-555244Y-1013358D01*
X-559358Y-1022197D01*
X-561898Y-1031595D01*
X-562762Y-1041298D01*
X-561898Y-1051001D01*
X-559358Y-1060399D01*
X-555244Y-1069238D01*
X-549656Y-1077214D01*
X-542798Y-1084072D01*
X-534822Y-1089660D01*
X-525983Y-1093774D01*
X-516585Y-1096314D01*
G37*
G36*
X478688Y-742645D02*
G01*
X488238Y-741375D01*
X497433Y-738581D01*
X506069Y-734212D01*
X513842Y-728472D01*
X520496Y-721512D01*
X525881Y-713536D01*
X529894Y-704748D01*
X532282Y-695401D01*
X532739Y-690575D01*
X533603Y-687171D01*
X535635Y-684225D01*
X720699Y-499211D01*
X726135Y-492607D01*
X729894Y-485546D01*
X732231Y-477875D01*
X733044Y-469392D01*
X733044Y-368808D01*
X732231Y-360324D01*
X729894Y-352653D01*
X726135Y-345592D01*
X720699Y-339039D01*
X688035Y-306374D01*
X686003Y-303479D01*
X685139Y-300024D01*
X684682Y-295198D01*
X682294Y-285851D01*
X678281Y-277063D01*
X672896Y-269087D01*
X666242Y-262128D01*
X658469Y-256387D01*
X649833Y-252018D01*
X640638Y-249224D01*
X632917Y-248208D01*
X629716Y-247243D01*
X627024Y-245313D01*
X580491Y-198831D01*
X578154Y-195122D01*
X576732Y-180898D01*
X574344Y-171551D01*
X570331Y-162763D01*
X564946Y-154787D01*
X558292Y-147828D01*
X550519Y-142087D01*
X541883Y-137718D01*
X532688Y-134924D01*
X524967Y-133908D01*
X521766Y-132943D01*
X519074Y-131013D01*
X491591Y-103581D01*
X489254Y-99872D01*
X487832Y-85648D01*
X485444Y-76301D01*
X481431Y-67513D01*
X476046Y-59537D01*
X469392Y-52578D01*
X461619Y-46837D01*
X452983Y-42468D01*
X443788Y-39674D01*
X436321Y-38709D01*
X433120Y-37744D01*
X430428Y-35814D01*
X132892Y261721D01*
X130708Y265023D01*
X129895Y268884D01*
X129895Y1174496D01*
X130759Y1178560D01*
X133146Y1181963D01*
X136702Y1184097D01*
X139496Y1185062D01*
X142849Y1185621D01*
X147878Y1184452D01*
X154178Y1183741D01*
X239471Y1183741D01*
X245770Y1184452D01*
X251256Y1186383D01*
X256133Y1189431D01*
X260248Y1193546D01*
X263296Y1198422D01*
X265226Y1203909D01*
X265938Y1210208D01*
X265938Y1251610D01*
X266700Y1255522D01*
X268935Y1258824D01*
X279095Y1269034D01*
X284530Y1275588D01*
X288290Y1282649D01*
X290626Y1290320D01*
X291439Y1298803D01*
X291439Y1489710D01*
X292252Y1493621D01*
X294436Y1496923D01*
X297738Y1499108D01*
X301599Y1499870D01*
X339953Y1499870D01*
X346303Y1500581D01*
X351739Y1502511D01*
X356666Y1505559D01*
X360730Y1509674D01*
X363829Y1514551D01*
X365709Y1520037D01*
X366420Y1526336D01*
X366420Y1705203D01*
X365709Y1711553D01*
X363829Y1716989D01*
X360730Y1721916D01*
X356666Y1725980D01*
X351739Y1729079D01*
X346303Y1730959D01*
X339953Y1731670D01*
X161086Y1731670D01*
X154787Y1730959D01*
X149301Y1729079D01*
X144424Y1725980D01*
X140309Y1721916D01*
X137261Y1716989D01*
X135331Y1711553D01*
X134620Y1705203D01*
X134620Y1526336D01*
X135331Y1520037D01*
X137261Y1514551D01*
X140309Y1509674D01*
X144424Y1505559D01*
X149301Y1502511D01*
X154787Y1500581D01*
X161086Y1499870D01*
X199491Y1499870D01*
X203352Y1499108D01*
X206654Y1496923D01*
X208889Y1493621D01*
X209651Y1489710D01*
X209651Y1326388D01*
X208889Y1322476D01*
X206654Y1319174D01*
X203352Y1316990D01*
X199491Y1316228D01*
X154178Y1316228D01*
X147878Y1315516D01*
X142900Y1314348D01*
X137871Y1315516D01*
X131521Y1316228D01*
X46278Y1316228D01*
X39928Y1315516D01*
X35102Y1313789D01*
X31699Y1313230D01*
X28346Y1313789D01*
X23520Y1315516D01*
X17221Y1316228D01*
X-34950Y1316228D01*
X-38862Y1316990D01*
X-42164Y1319174D01*
X-57708Y1334770D01*
X-59943Y1338072D01*
X-60706Y1341932D01*
X-60706Y1518310D01*
X-59842Y1522374D01*
X-57454Y1525778D01*
X-45974Y1536446D01*
X-36728Y1547672D01*
X-28905Y1559966D01*
X-22707Y1573123D01*
X-18237Y1586941D01*
X-15494Y1601266D01*
X-14579Y1615795D01*
X-15494Y1630324D01*
X-18237Y1644599D01*
X-22707Y1658467D01*
X-28905Y1671624D01*
X-36728Y1683918D01*
X-45974Y1695094D01*
X-56591Y1705102D01*
X-68376Y1713636D01*
X-81127Y1720646D01*
X-94640Y1725980D01*
X-108762Y1729638D01*
X-123189Y1731467D01*
X-137718Y1731467D01*
X-152196Y1729638D01*
X-166268Y1725980D01*
X-179832Y1720646D01*
X-192582Y1713636D01*
X-204317Y1705102D01*
X-214934Y1695094D01*
X-224231Y1683918D01*
X-232003Y1671624D01*
X-238201Y1658467D01*
X-242722Y1644599D01*
X-245465Y1630324D01*
X-246379Y1615795D01*
X-245465Y1601266D01*
X-242722Y1586941D01*
X-238201Y1573123D01*
X-232003Y1559966D01*
X-224231Y1547672D01*
X-214934Y1536446D01*
X-204317Y1526489D01*
X-192582Y1517954D01*
X-179832Y1510944D01*
X-166268Y1505559D01*
X-147929Y1500733D01*
X-145034Y1498498D01*
X-143154Y1495348D01*
X-142494Y1491792D01*
X-142494Y1321308D01*
X-141681Y1312824D01*
X-139344Y1305153D01*
X-135585Y1298092D01*
X-130200Y1291488D01*
X-97485Y1258824D01*
X-95300Y1255522D01*
X-94538Y1251661D01*
X-94538Y1210208D01*
X-93827Y1203909D01*
X-91897Y1198422D01*
X-88849Y1193546D01*
X-84734Y1189431D01*
X-79857Y1186383D01*
X-74371Y1184452D01*
X-68072Y1183741D01*
X17221Y1183741D01*
X23520Y1184452D01*
X28397Y1186180D01*
X31750Y1186738D01*
X35052Y1186180D01*
X41198Y1184097D01*
X44805Y1181963D01*
X47244Y1178560D01*
X48107Y1174496D01*
X48107Y248259D01*
X48920Y239775D01*
X51257Y232105D01*
X55016Y225044D01*
X60452Y218490D01*
X372160Y-93268D01*
X373989Y-95808D01*
X375005Y-98806D01*
X376783Y-109626D01*
X379984Y-118668D01*
X384657Y-127101D01*
X390753Y-134620D01*
X397967Y-140970D01*
X406196Y-146050D01*
X415137Y-149606D01*
X420878Y-150876D01*
X423621Y-151892D01*
X425958Y-153619D01*
X461060Y-188722D01*
X462889Y-191262D01*
X463905Y-194259D01*
X465683Y-204825D01*
X468884Y-213918D01*
X473557Y-222351D01*
X479653Y-229870D01*
X486867Y-236220D01*
X495096Y-241300D01*
X504037Y-244856D01*
X509778Y-246125D01*
X512521Y-247142D01*
X514858Y-248869D01*
X569010Y-303022D01*
X570839Y-305562D01*
X571855Y-308559D01*
X573633Y-319125D01*
X576834Y-328218D01*
X581507Y-336651D01*
X587603Y-344170D01*
X594817Y-350520D01*
X603046Y-355600D01*
X611987Y-359156D01*
X621436Y-361188D01*
X623468Y-361289D01*
X627126Y-362153D01*
X630224Y-364286D01*
X648258Y-382270D01*
X650443Y-385572D01*
X651256Y-389483D01*
X651256Y-448767D01*
X650443Y-452628D01*
X648258Y-455930D01*
X477875Y-626313D01*
X474776Y-628446D01*
X471119Y-629310D01*
X469036Y-629412D01*
X459587Y-631444D01*
X450646Y-635000D01*
X442417Y-640080D01*
X435203Y-646430D01*
X429107Y-653948D01*
X424434Y-662381D01*
X421233Y-671474D01*
X419608Y-680974D01*
X419608Y-690626D01*
X421233Y-700125D01*
X424434Y-709218D01*
X429107Y-717651D01*
X435203Y-725170D01*
X442417Y-731520D01*
X450646Y-736600D01*
X459587Y-740156D01*
X469036Y-742188D01*
G37*
G36*
X-505866Y-464210D02*
G01*
X-496163Y-463346D01*
X-486765Y-460806D01*
X-477926Y-456692D01*
X-469950Y-451104D01*
X-463092Y-444246D01*
X-457504Y-436270D01*
X-453390Y-427431D01*
X-450850Y-418033D01*
X-449986Y-408330D01*
X-450850Y-398627D01*
X-453390Y-389229D01*
X-457504Y-380390D01*
X-463092Y-372414D01*
X-469950Y-365556D01*
X-477926Y-359968D01*
X-486765Y-355854D01*
X-496163Y-353314D01*
X-505866Y-352450D01*
X-515569Y-353314D01*
X-524967Y-355854D01*
X-533806Y-359968D01*
X-541782Y-365556D01*
X-548640Y-372414D01*
X-554228Y-380390D01*
X-558342Y-389229D01*
X-560882Y-398627D01*
X-561746Y-408330D01*
X-560882Y-418033D01*
X-558342Y-427431D01*
X-554228Y-436270D01*
X-548640Y-444246D01*
X-541782Y-451104D01*
X-533806Y-456692D01*
X-524967Y-460806D01*
X-515569Y-463346D01*
G37*
G36*
X2320747Y-124460D02*
G01*
X2339543Y-124460D01*
X2358288Y-122580D01*
X2376728Y-118770D01*
X2394712Y-113131D01*
X2412034Y-105714D01*
X2428494Y-96570D01*
X2443937Y-85801D01*
X2458212Y-73558D01*
X2471216Y-59893D01*
X2482697Y-45008D01*
X2492705Y-29006D01*
X2500985Y-12141D01*
X2507538Y5537D01*
X2512212Y23774D01*
X2515108Y42367D01*
X2516022Y61163D01*
X2515108Y80010D01*
X2512212Y98602D01*
X2507538Y116839D01*
X2500985Y134518D01*
X2492705Y151384D01*
X2482697Y167386D01*
X2471216Y182270D01*
X2458212Y195935D01*
X2443937Y208178D01*
X2428494Y218948D01*
X2412034Y228092D01*
X2394712Y235508D01*
X2376728Y241147D01*
X2358288Y244957D01*
X2339543Y246837D01*
X2320747Y246837D01*
X2302002Y244957D01*
X2283561Y241147D01*
X2265578Y235508D01*
X2248255Y228092D01*
X2231796Y218948D01*
X2216353Y208178D01*
X2202078Y195935D01*
X2189073Y182270D01*
X2177592Y167386D01*
X2167585Y151384D01*
X2159304Y134518D01*
X2152751Y116839D01*
X2148078Y98602D01*
X2145182Y80010D01*
X2144268Y61163D01*
X2145182Y42367D01*
X2148078Y23774D01*
X2152751Y5537D01*
X2159304Y-12141D01*
X2167585Y-29006D01*
X2177592Y-45008D01*
X2189073Y-59893D01*
X2202078Y-73558D01*
X2216353Y-85801D01*
X2231796Y-96570D01*
X2248255Y-105714D01*
X2265578Y-113131D01*
X2283561Y-118770D01*
X2302002Y-122580D01*
G37*
G36*
X796137Y-88595D02*
G01*
X805738Y-87376D01*
X814933Y-84531D01*
X823569Y-80213D01*
X831291Y-74472D01*
X837996Y-67513D01*
X843381Y-59486D01*
X847344Y-50698D01*
X849782Y-41351D01*
X850595Y-31750D01*
X849782Y-22148D01*
X847344Y-12801D01*
X843381Y-4013D01*
X837996Y3962D01*
X831291Y10922D01*
X823569Y16662D01*
X814933Y21031D01*
X805738Y23825D01*
X796137Y25044D01*
X786536Y24638D01*
X777087Y22606D01*
X768146Y18999D01*
X759917Y13970D01*
X752703Y7569D01*
X746607Y101D01*
X741934Y-8331D01*
X738682Y-17424D01*
X737057Y-26924D01*
X737057Y-36576D01*
X738682Y-46075D01*
X741934Y-55168D01*
X746607Y-63601D01*
X752703Y-71120D01*
X759917Y-77470D01*
X768146Y-82550D01*
X777087Y-86156D01*
X786536Y-88188D01*
G37*
G36*
X-526948Y-43078D02*
G01*
X-517245Y-42214D01*
X-507847Y-39674D01*
X-499008Y-35560D01*
X-491032Y-29971D01*
X-484174Y-23114D01*
X-478586Y-15138D01*
X-474472Y-6299D01*
X-471932Y3098D01*
X-471068Y12801D01*
X-471932Y22504D01*
X-474472Y31902D01*
X-478586Y40741D01*
X-484174Y48717D01*
X-491032Y55575D01*
X-499008Y61163D01*
X-507847Y65278D01*
X-517245Y67818D01*
X-526948Y68681D01*
X-536651Y67818D01*
X-546049Y65278D01*
X-554888Y61163D01*
X-562864Y55575D01*
X-569722Y48717D01*
X-575310Y40741D01*
X-579424Y31902D01*
X-581964Y22504D01*
X-582828Y12801D01*
X-581964Y3098D01*
X-579424Y-6299D01*
X-575310Y-15138D01*
X-569722Y-23114D01*
X-562864Y-29971D01*
X-554888Y-35560D01*
X-546049Y-39674D01*
X-536651Y-42214D01*
G37*
G36*
X1965045Y-25552D02*
G01*
X1978710Y-24638D01*
X1992122Y-21945D01*
X2005075Y-17576D01*
X2017369Y-11531D01*
X2028748Y-3911D01*
X2039010Y5130D01*
X2048052Y15392D01*
X2055672Y26771D01*
X2061718Y39065D01*
X2066086Y52019D01*
X2068779Y65430D01*
X2069693Y79095D01*
X2068779Y92760D01*
X2066086Y106172D01*
X2061718Y119126D01*
X2055672Y131419D01*
X2048052Y142798D01*
X2039010Y153060D01*
X2028748Y162102D01*
X2017369Y169722D01*
X2005075Y175768D01*
X1992122Y180136D01*
X1978710Y182829D01*
X1965045Y183743D01*
X1951380Y182829D01*
X1937969Y180136D01*
X1925015Y175768D01*
X1912721Y169722D01*
X1901342Y162102D01*
X1891080Y153060D01*
X1882038Y142798D01*
X1874418Y131419D01*
X1868373Y119126D01*
X1864004Y106172D01*
X1861312Y92760D01*
X1860397Y79095D01*
X1861312Y65430D01*
X1864004Y52019D01*
X1868373Y39065D01*
X1874418Y26771D01*
X1882038Y15392D01*
X1891080Y5130D01*
X1901342Y-3911D01*
X1912721Y-11531D01*
X1925015Y-17576D01*
X1937969Y-21945D01*
X1951380Y-24638D01*
G37*
G36*
X-508000Y115570D02*
G01*
X-498297Y116433D01*
X-488899Y118922D01*
X-480059Y123037D01*
X-472084Y128625D01*
X-465226Y135534D01*
X-459638Y143510D01*
X-455523Y152349D01*
X-452983Y161747D01*
X-452120Y171450D01*
X-452983Y181152D01*
X-455523Y190550D01*
X-459638Y199390D01*
X-465226Y207365D01*
X-472084Y214223D01*
X-480059Y219811D01*
X-488899Y223926D01*
X-498297Y226466D01*
X-508000Y227329D01*
X-517702Y226466D01*
X-527100Y223926D01*
X-535940Y219811D01*
X-543915Y214223D01*
X-550824Y207365D01*
X-556412Y199390D01*
X-560527Y190550D01*
X-563016Y181152D01*
X-563880Y171450D01*
X-563016Y161747D01*
X-560527Y152349D01*
X-556412Y143510D01*
X-550824Y135534D01*
X-543915Y128625D01*
X-535940Y123037D01*
X-527100Y118922D01*
X-517702Y116433D01*
G37*
G36*
X-2182012Y736904D02*
G01*
X-2172411Y738124D01*
X-2163216Y740968D01*
X-2154580Y745286D01*
X-2146858Y751027D01*
X-2140153Y757986D01*
X-2134768Y766013D01*
X-2130806Y774801D01*
X-2128367Y784148D01*
X-2127554Y793750D01*
X-2128367Y803351D01*
X-2130806Y812698D01*
X-2134768Y821486D01*
X-2140153Y829462D01*
X-2146858Y836421D01*
X-2154580Y842162D01*
X-2163216Y846531D01*
X-2172411Y849325D01*
X-2182012Y850544D01*
X-2191613Y850137D01*
X-2201062Y848106D01*
X-2210003Y844499D01*
X-2218232Y839469D01*
X-2225446Y833069D01*
X-2231542Y825601D01*
X-2236216Y817168D01*
X-2239467Y808075D01*
X-2241092Y798576D01*
X-2241092Y788924D01*
X-2239467Y779424D01*
X-2236216Y770331D01*
X-2231542Y761898D01*
X-2225446Y754380D01*
X-2218232Y748030D01*
X-2210003Y742950D01*
X-2201062Y739343D01*
X-2191613Y737311D01*
G37*
G36*
X-124561Y844854D02*
G01*
X-115011Y846124D01*
X-105816Y848918D01*
X-97180Y853287D01*
X-89408Y859028D01*
X-82753Y865987D01*
X-77368Y873963D01*
X-73355Y882751D01*
X-70967Y892098D01*
X-70104Y901700D01*
X-70967Y911301D01*
X-73355Y920648D01*
X-77368Y929436D01*
X-82753Y937412D01*
X-89408Y944371D01*
X-97180Y950112D01*
X-105816Y954481D01*
X-115011Y957275D01*
X-122732Y958291D01*
X-125933Y959256D01*
X-128625Y961186D01*
X-332638Y1165199D01*
X-335889Y1168958D01*
X-337007Y1172921D01*
X-336397Y1177036D01*
X-334264Y1180541D01*
X-330911Y1182928D01*
X-326847Y1183741D01*
X-312978Y1183741D01*
X-306679Y1184452D01*
X-301193Y1186383D01*
X-296316Y1189431D01*
X-292201Y1193546D01*
X-289153Y1198422D01*
X-287223Y1203909D01*
X-286512Y1210208D01*
X-286512Y1289761D01*
X-287223Y1296060D01*
X-289153Y1301546D01*
X-292201Y1306423D01*
X-296316Y1310538D01*
X-301193Y1313586D01*
X-307848Y1315872D01*
X-311454Y1318006D01*
X-313842Y1321409D01*
X-314706Y1325473D01*
X-314706Y1402842D01*
X-315518Y1411325D01*
X-317855Y1418996D01*
X-321614Y1426057D01*
X-327050Y1432610D01*
X-340563Y1446174D01*
X-342747Y1449425D01*
X-343560Y1453337D01*
X-343560Y1500682D01*
X-342747Y1504645D01*
X-340512Y1507947D01*
X-337108Y1510131D01*
X-335127Y1510944D01*
X-322376Y1517954D01*
X-310591Y1526489D01*
X-299974Y1536446D01*
X-290728Y1547672D01*
X-282905Y1559966D01*
X-276707Y1573123D01*
X-272237Y1586941D01*
X-269494Y1601266D01*
X-268579Y1615795D01*
X-269494Y1630324D01*
X-272237Y1644599D01*
X-276707Y1658467D01*
X-282905Y1671624D01*
X-290728Y1683918D01*
X-299974Y1695094D01*
X-310591Y1705102D01*
X-322376Y1713636D01*
X-335127Y1720646D01*
X-348640Y1725980D01*
X-362762Y1729638D01*
X-377190Y1731467D01*
X-391718Y1731467D01*
X-406196Y1729638D01*
X-420268Y1725980D01*
X-433832Y1720646D01*
X-446582Y1713636D01*
X-458317Y1705102D01*
X-468934Y1695094D01*
X-478231Y1683918D01*
X-486003Y1671624D01*
X-492201Y1658467D01*
X-496722Y1644599D01*
X-499465Y1630324D01*
X-500380Y1615795D01*
X-499465Y1601266D01*
X-496722Y1586941D01*
X-492201Y1573123D01*
X-486003Y1559966D01*
X-478231Y1547672D01*
X-468934Y1536446D01*
X-458317Y1526489D01*
X-446582Y1517954D01*
X-433832Y1510944D01*
X-431800Y1510131D01*
X-428396Y1507947D01*
X-426161Y1504594D01*
X-425348Y1500682D01*
X-425348Y1432661D01*
X-424535Y1424228D01*
X-422198Y1416558D01*
X-418439Y1409496D01*
X-413004Y1402892D01*
X-399491Y1389380D01*
X-397306Y1386078D01*
X-396494Y1382166D01*
X-396494Y1325473D01*
X-397357Y1321409D01*
X-399796Y1318006D01*
X-403352Y1315872D01*
X-409448Y1313789D01*
X-412750Y1313230D01*
X-416102Y1313789D01*
X-420928Y1315516D01*
X-427278Y1316228D01*
X-512521Y1316228D01*
X-518871Y1315516D01*
X-523697Y1313789D01*
X-527100Y1313230D01*
X-530453Y1313789D01*
X-535279Y1315516D01*
X-541578Y1316228D01*
X-587400Y1316228D01*
X-591261Y1316990D01*
X-594563Y1319174D01*
X-596747Y1322476D01*
X-597560Y1326388D01*
X-597560Y1500682D01*
X-596747Y1504645D01*
X-594512Y1507947D01*
X-591108Y1510131D01*
X-589127Y1510944D01*
X-576376Y1517954D01*
X-564591Y1526489D01*
X-553974Y1536446D01*
X-544728Y1547672D01*
X-536905Y1559966D01*
X-530707Y1573123D01*
X-526237Y1586941D01*
X-523493Y1601266D01*
X-522579Y1615795D01*
X-523493Y1630324D01*
X-526237Y1644599D01*
X-530707Y1658467D01*
X-536905Y1671624D01*
X-544728Y1683918D01*
X-553974Y1695094D01*
X-564591Y1705102D01*
X-576376Y1713636D01*
X-589127Y1720646D01*
X-602640Y1725980D01*
X-616762Y1729638D01*
X-631190Y1731467D01*
X-645718Y1731467D01*
X-660196Y1729638D01*
X-674268Y1725980D01*
X-687832Y1720646D01*
X-700582Y1713636D01*
X-712317Y1705102D01*
X-722934Y1695094D01*
X-732231Y1683918D01*
X-740003Y1671624D01*
X-746201Y1658467D01*
X-750722Y1644599D01*
X-753465Y1630324D01*
X-754380Y1615795D01*
X-753465Y1601266D01*
X-750722Y1586941D01*
X-746201Y1573123D01*
X-740003Y1559966D01*
X-732231Y1547672D01*
X-722934Y1536446D01*
X-712317Y1526489D01*
X-700582Y1517954D01*
X-687832Y1510944D01*
X-685800Y1510131D01*
X-682396Y1507947D01*
X-680161Y1504594D01*
X-679348Y1500682D01*
X-679348Y1299311D01*
X-678535Y1290878D01*
X-676198Y1283208D01*
X-672439Y1276146D01*
X-667004Y1269542D01*
X-656285Y1258824D01*
X-654100Y1255522D01*
X-653338Y1251661D01*
X-653338Y1210208D01*
X-652627Y1203909D01*
X-650697Y1198422D01*
X-647649Y1193546D01*
X-643534Y1189431D01*
X-638657Y1186383D01*
X-633171Y1184452D01*
X-626872Y1183741D01*
X-541578Y1183741D01*
X-535279Y1184452D01*
X-530402Y1186180D01*
X-527050Y1186738D01*
X-523697Y1186180D01*
X-517651Y1184097D01*
X-514096Y1181963D01*
X-511657Y1178560D01*
X-510793Y1174496D01*
X-510793Y1162558D01*
X-509981Y1154074D01*
X-507644Y1146403D01*
X-503885Y1139342D01*
X-498500Y1132738D01*
X-473811Y1108049D01*
X-467207Y1102664D01*
X-460146Y1098905D01*
X-452475Y1096568D01*
X-443992Y1095705D01*
X-383082Y1095705D01*
X-379222Y1094943D01*
X-375920Y1092758D01*
X-186639Y903478D01*
X-184810Y900937D01*
X-183794Y897991D01*
X-182016Y887323D01*
X-178816Y878281D01*
X-174142Y869848D01*
X-168046Y862330D01*
X-160832Y855980D01*
X-152603Y850900D01*
X-143662Y847344D01*
X-134213Y845312D01*
G37*
G36*
X-943711Y984554D02*
G01*
X-934161Y985824D01*
X-924966Y988618D01*
X-916330Y992987D01*
X-908558Y998728D01*
X-901903Y1005687D01*
X-896518Y1013663D01*
X-892505Y1022451D01*
X-890117Y1031798D01*
X-889253Y1041400D01*
X-890117Y1051001D01*
X-892505Y1060348D01*
X-896518Y1069136D01*
X-901903Y1077112D01*
X-908558Y1084072D01*
X-916330Y1089812D01*
X-924966Y1094181D01*
X-934161Y1096975D01*
X-943711Y1098245D01*
X-946708Y1098092D01*
X-950823Y1098753D01*
X-954328Y1101039D01*
X-988364Y1135126D01*
X-990549Y1138377D01*
X-991362Y1142288D01*
X-991362Y1173581D01*
X-990549Y1177493D01*
X-988364Y1180795D01*
X-985062Y1182979D01*
X-981202Y1183741D01*
X-912926Y1183741D01*
X-906576Y1184452D01*
X-901141Y1186383D01*
X-896213Y1189431D01*
X-892149Y1193546D01*
X-889050Y1198422D01*
X-887171Y1203909D01*
X-886409Y1210208D01*
X-886409Y1257046D01*
X-885647Y1260906D01*
X-883462Y1264208D01*
X-876147Y1271524D01*
X-870762Y1278077D01*
X-867003Y1285138D01*
X-864666Y1292809D01*
X-863803Y1301292D01*
X-863803Y1495856D01*
X-863041Y1499768D01*
X-860755Y1503121D01*
X-857402Y1505305D01*
X-843127Y1510944D01*
X-830376Y1517954D01*
X-818591Y1526489D01*
X-807974Y1536446D01*
X-798728Y1547672D01*
X-790905Y1559966D01*
X-784707Y1573123D01*
X-780237Y1586941D01*
X-777494Y1601266D01*
X-776579Y1615795D01*
X-777494Y1630324D01*
X-780237Y1644599D01*
X-784707Y1658467D01*
X-790905Y1671624D01*
X-798728Y1683918D01*
X-807974Y1695094D01*
X-818591Y1705102D01*
X-830376Y1713636D01*
X-843127Y1720646D01*
X-856640Y1725980D01*
X-870762Y1729638D01*
X-885190Y1731467D01*
X-899718Y1731467D01*
X-914196Y1729638D01*
X-928268Y1725980D01*
X-941832Y1720646D01*
X-954582Y1713636D01*
X-966317Y1705102D01*
X-976934Y1695094D01*
X-986231Y1683918D01*
X-994003Y1671624D01*
X-1000201Y1658467D01*
X-1004722Y1644599D01*
X-1007465Y1630324D01*
X-1008380Y1615795D01*
X-1007465Y1601266D01*
X-1004722Y1586941D01*
X-1000201Y1573123D01*
X-994003Y1559966D01*
X-986231Y1547672D01*
X-976934Y1536446D01*
X-966317Y1526489D01*
X-954582Y1517954D01*
X-950925Y1515922D01*
X-948131Y1513687D01*
X-946302Y1510588D01*
X-945642Y1507032D01*
X-945642Y1326388D01*
X-946403Y1322476D01*
X-948639Y1319174D01*
X-951890Y1316990D01*
X-955802Y1316228D01*
X-998169Y1316228D01*
X-1004519Y1315516D01*
X-1009497Y1314348D01*
X-1014526Y1315516D01*
X-1020826Y1316228D01*
X-1024331Y1316228D01*
X-1028293Y1317040D01*
X-1031595Y1319276D01*
X-1033780Y1322679D01*
X-1034491Y1326642D01*
X-1033627Y1330553D01*
X-1032256Y1333601D01*
X-1029817Y1342948D01*
X-1029004Y1352550D01*
X-1029817Y1362151D01*
X-1032256Y1371498D01*
X-1036218Y1380286D01*
X-1041603Y1388262D01*
X-1048308Y1395222D01*
X-1056030Y1400962D01*
X-1064666Y1405331D01*
X-1073861Y1408125D01*
X-1083462Y1409344D01*
X-1093063Y1408938D01*
X-1102512Y1406906D01*
X-1111453Y1403299D01*
X-1119682Y1398270D01*
X-1126896Y1391869D01*
X-1132992Y1384401D01*
X-1137666Y1375968D01*
X-1139647Y1370431D01*
X-1141730Y1366926D01*
X-1145032Y1364538D01*
X-1148994Y1363624D01*
X-1153007Y1364386D01*
X-1156411Y1366621D01*
X-1314094Y1524304D01*
X-1316228Y1527352D01*
X-1317040Y1531010D01*
X-1316532Y1534718D01*
X-1314754Y1537970D01*
X-1306728Y1547672D01*
X-1298905Y1559966D01*
X-1292707Y1573123D01*
X-1288237Y1586941D01*
X-1285494Y1601266D01*
X-1284579Y1615795D01*
X-1285494Y1630324D01*
X-1288237Y1644599D01*
X-1292707Y1658467D01*
X-1298905Y1671624D01*
X-1306728Y1683918D01*
X-1315974Y1695094D01*
X-1326591Y1705102D01*
X-1338376Y1713636D01*
X-1351127Y1720646D01*
X-1364640Y1725980D01*
X-1378762Y1729638D01*
X-1393190Y1731467D01*
X-1407718Y1731467D01*
X-1422196Y1729638D01*
X-1436268Y1725980D01*
X-1449832Y1720646D01*
X-1462582Y1713636D01*
X-1474317Y1705102D01*
X-1484934Y1695094D01*
X-1494231Y1683918D01*
X-1502003Y1671624D01*
X-1508201Y1658467D01*
X-1512722Y1644599D01*
X-1515465Y1630324D01*
X-1516380Y1615795D01*
X-1515465Y1601266D01*
X-1512722Y1586941D01*
X-1508201Y1573123D01*
X-1502003Y1559966D01*
X-1494231Y1547672D01*
X-1484934Y1536446D01*
X-1474317Y1526489D01*
X-1462582Y1517954D01*
X-1449832Y1510944D01*
X-1436268Y1505559D01*
X-1422196Y1501952D01*
X-1408785Y1500276D01*
X-1405585Y1499311D01*
X-1402842Y1497380D01*
X-1388313Y1482852D01*
X-1385976Y1479194D01*
X-1385366Y1474927D01*
X-1386586Y1470761D01*
X-1389430Y1467510D01*
X-1393393Y1465732D01*
X-1400962Y1464056D01*
X-1409903Y1460500D01*
X-1418132Y1455420D01*
X-1425346Y1449070D01*
X-1431442Y1441551D01*
X-1436116Y1433118D01*
X-1439316Y1424025D01*
X-1440942Y1414526D01*
X-1440942Y1404874D01*
X-1439316Y1395374D01*
X-1436116Y1386281D01*
X-1431442Y1377848D01*
X-1425346Y1370330D01*
X-1418132Y1363980D01*
X-1409903Y1358900D01*
X-1400962Y1355344D01*
X-1391513Y1353312D01*
X-1381861Y1352854D01*
X-1372311Y1354124D01*
X-1363116Y1356918D01*
X-1354480Y1361287D01*
X-1346708Y1367028D01*
X-1340053Y1373987D01*
X-1334668Y1381963D01*
X-1330655Y1390751D01*
X-1328013Y1400911D01*
X-1326134Y1404670D01*
X-1322832Y1407363D01*
X-1318768Y1408480D01*
X-1314551Y1407820D01*
X-1310995Y1405534D01*
X-1233170Y1327658D01*
X-1231087Y1324660D01*
X-1230223Y1321155D01*
X-1230630Y1317548D01*
X-1232255Y1314297D01*
X-1234948Y1311859D01*
X-1237081Y1310538D01*
X-1241196Y1306423D01*
X-1244295Y1301546D01*
X-1246174Y1296060D01*
X-1246886Y1289761D01*
X-1246886Y1210208D01*
X-1246174Y1203909D01*
X-1244295Y1198422D01*
X-1241196Y1193546D01*
X-1237081Y1189431D01*
X-1232204Y1186383D01*
X-1226769Y1184452D01*
X-1220419Y1183741D01*
X-1139698Y1183741D01*
X-1135837Y1182979D01*
X-1132535Y1180795D01*
X-1130350Y1177493D01*
X-1129538Y1173581D01*
X-1129538Y1109573D01*
X-1128826Y1103274D01*
X-1126947Y1097788D01*
X-1123848Y1092911D01*
X-1119784Y1088796D01*
X-1114856Y1085748D01*
X-1109421Y1083818D01*
X-1103071Y1083106D01*
X-1056284Y1083106D01*
X-1052423Y1082344D01*
X-1049121Y1080160D01*
X-1004519Y1035558D01*
X-1002690Y1033068D01*
X-1001725Y1030071D01*
X-1001166Y1027074D01*
X-997966Y1017981D01*
X-993292Y1009548D01*
X-987196Y1002030D01*
X-979982Y995680D01*
X-971753Y990600D01*
X-962812Y987044D01*
X-953363Y985012D01*
G37*
G36*
X1886864Y990447D02*
G01*
X2043226Y990447D01*
X2049525Y991158D01*
X2055012Y993089D01*
X2059889Y996137D01*
X2064004Y1000252D01*
X2067052Y1005128D01*
X2068982Y1010615D01*
X2069693Y1016914D01*
X2069693Y1173276D01*
X2068982Y1179576D01*
X2067052Y1185062D01*
X2064004Y1189939D01*
X2059889Y1194054D01*
X2055012Y1197102D01*
X2049525Y1199032D01*
X2043226Y1199743D01*
X1886864Y1199743D01*
X1880565Y1199032D01*
X1875078Y1197102D01*
X1870202Y1194054D01*
X1866087Y1189939D01*
X1863039Y1185062D01*
X1861108Y1179576D01*
X1860397Y1173276D01*
X1860397Y1016914D01*
X1861108Y1010615D01*
X1863039Y1005128D01*
X1866087Y1000252D01*
X1870202Y996137D01*
X1875078Y993089D01*
X1880565Y991158D01*
G37*
G36*
X1170940Y1175156D02*
G01*
X1180490Y1176426D01*
X1189685Y1179220D01*
X1198321Y1183589D01*
X1206093Y1189329D01*
X1212748Y1196289D01*
X1218133Y1204264D01*
X1222146Y1213053D01*
X1224534Y1222400D01*
X1225397Y1232001D01*
X1224534Y1241602D01*
X1222146Y1250950D01*
X1218133Y1259738D01*
X1212748Y1267714D01*
X1206093Y1274673D01*
X1198321Y1280414D01*
X1189685Y1284782D01*
X1180490Y1287576D01*
X1170940Y1288846D01*
X1161288Y1288389D01*
X1151839Y1286357D01*
X1142898Y1282801D01*
X1134668Y1277721D01*
X1127455Y1271371D01*
X1121359Y1263853D01*
X1116685Y1255420D01*
X1113485Y1246327D01*
X1111859Y1236827D01*
X1111859Y1227175D01*
X1113485Y1217676D01*
X1116685Y1208582D01*
X1121359Y1200150D01*
X1127455Y1192631D01*
X1134668Y1186281D01*
X1142898Y1181201D01*
X1151839Y1177645D01*
X1161288Y1175613D01*
G37*
G36*
X897737Y1416354D02*
G01*
X907338Y1417574D01*
X916533Y1420418D01*
X925169Y1424736D01*
X932891Y1430477D01*
X939596Y1437436D01*
X944981Y1445463D01*
X948944Y1454251D01*
X951382Y1463598D01*
X952195Y1473200D01*
X951382Y1482801D01*
X948944Y1492148D01*
X945489Y1499768D01*
X944626Y1503883D01*
X945438Y1507998D01*
X947877Y1511401D01*
X951484Y1513586D01*
X955649Y1514094D01*
X959662Y1512874D01*
X963168Y1510944D01*
X976731Y1505559D01*
X990803Y1501952D01*
X1005281Y1500124D01*
X1019810Y1500124D01*
X1034237Y1501952D01*
X1048359Y1505559D01*
X1061872Y1510944D01*
X1074623Y1517954D01*
X1086408Y1526489D01*
X1097026Y1536446D01*
X1106271Y1547672D01*
X1114094Y1559966D01*
X1120292Y1573123D01*
X1124762Y1586941D01*
X1127506Y1601266D01*
X1128420Y1615795D01*
X1127506Y1630324D01*
X1124762Y1644599D01*
X1120292Y1658467D01*
X1114094Y1671624D01*
X1106271Y1683918D01*
X1097026Y1695094D01*
X1086408Y1705102D01*
X1074623Y1713636D01*
X1061872Y1720646D01*
X1048359Y1725980D01*
X1034237Y1729638D01*
X1019810Y1731467D01*
X1005281Y1731467D01*
X990803Y1729638D01*
X976731Y1725980D01*
X963168Y1720646D01*
X950417Y1713636D01*
X938682Y1705102D01*
X928065Y1695094D01*
X918768Y1683918D01*
X910996Y1671624D01*
X904798Y1658467D01*
X900277Y1644599D01*
X897534Y1630324D01*
X896619Y1615795D01*
X897534Y1601266D01*
X900277Y1586941D01*
X904798Y1573123D01*
X910996Y1559966D01*
X918768Y1547672D01*
X921969Y1543812D01*
X923950Y1539951D01*
X924204Y1535684D01*
X922629Y1531670D01*
X919530Y1528673D01*
X915466Y1527251D01*
X911199Y1527606D01*
X907338Y1528775D01*
X897737Y1529994D01*
X888136Y1529588D01*
X878687Y1527556D01*
X869746Y1523949D01*
X861517Y1518920D01*
X854303Y1512519D01*
X848207Y1505051D01*
X843534Y1496618D01*
X840282Y1487525D01*
X838657Y1478026D01*
X838657Y1468374D01*
X840282Y1458874D01*
X843534Y1449781D01*
X848207Y1441348D01*
X854303Y1433830D01*
X861517Y1427480D01*
X869746Y1422400D01*
X878687Y1418793D01*
X888136Y1416761D01*
G37*
G36*
X-2505913Y1499870D02*
G01*
X-2327046Y1499870D01*
X-2320696Y1500581D01*
X-2315260Y1502511D01*
X-2310333Y1505559D01*
X-2306269Y1509674D01*
X-2303170Y1514551D01*
X-2301290Y1520037D01*
X-2300579Y1526336D01*
X-2300579Y1705203D01*
X-2301290Y1711553D01*
X-2303170Y1716989D01*
X-2306269Y1721916D01*
X-2310333Y1725980D01*
X-2315260Y1729079D01*
X-2320696Y1730959D01*
X-2327046Y1731670D01*
X-2505913Y1731670D01*
X-2512212Y1730959D01*
X-2517698Y1729079D01*
X-2522575Y1725980D01*
X-2526690Y1721916D01*
X-2529738Y1716989D01*
X-2531668Y1711553D01*
X-2532380Y1705203D01*
X-2532380Y1526336D01*
X-2531668Y1520037D01*
X-2529738Y1514551D01*
X-2526690Y1509674D01*
X-2522575Y1505559D01*
X-2517698Y1502511D01*
X-2512212Y1500581D01*
G37*
G36*
X497281Y1500124D02*
G01*
X511809Y1500124D01*
X526237Y1501952D01*
X540359Y1505559D01*
X553872Y1510944D01*
X566623Y1517954D01*
X578408Y1526489D01*
X589026Y1536446D01*
X598271Y1547672D01*
X606094Y1559966D01*
X612292Y1573123D01*
X616762Y1586941D01*
X619506Y1601266D01*
X620420Y1615795D01*
X619506Y1630324D01*
X616762Y1644599D01*
X612292Y1658467D01*
X606094Y1671624D01*
X598271Y1683918D01*
X589026Y1695094D01*
X578408Y1705102D01*
X566623Y1713636D01*
X553872Y1720646D01*
X540359Y1725980D01*
X526237Y1729638D01*
X511809Y1731467D01*
X497281Y1731467D01*
X482803Y1729638D01*
X468731Y1725980D01*
X455168Y1720646D01*
X442417Y1713636D01*
X430682Y1705102D01*
X420065Y1695094D01*
X410768Y1683918D01*
X402996Y1671624D01*
X396798Y1658467D01*
X392277Y1644599D01*
X389534Y1630324D01*
X388620Y1615795D01*
X389534Y1601266D01*
X392277Y1586941D01*
X396798Y1573123D01*
X402996Y1559966D01*
X410768Y1547672D01*
X420065Y1536446D01*
X430682Y1526489D01*
X442417Y1517954D01*
X455168Y1510944D01*
X468731Y1505559D01*
X482803Y1501952D01*
G37*
G36*
X2021281Y1500124D02*
G01*
X2035810Y1500124D01*
X2050237Y1501952D01*
X2064359Y1505559D01*
X2077872Y1510944D01*
X2090623Y1517954D01*
X2102408Y1526489D01*
X2113026Y1536446D01*
X2122271Y1547672D01*
X2130094Y1559966D01*
X2136292Y1573123D01*
X2140762Y1586941D01*
X2143506Y1601266D01*
X2144420Y1615795D01*
X2143506Y1630324D01*
X2140762Y1644599D01*
X2136292Y1658467D01*
X2130094Y1671624D01*
X2122271Y1683918D01*
X2113026Y1695094D01*
X2102408Y1705102D01*
X2090623Y1713636D01*
X2077872Y1720646D01*
X2064359Y1725980D01*
X2050237Y1729638D01*
X2035810Y1731467D01*
X2021281Y1731467D01*
X2006803Y1729638D01*
X1992731Y1725980D01*
X1979168Y1720646D01*
X1966417Y1713636D01*
X1954682Y1705102D01*
X1944065Y1695094D01*
X1934768Y1683918D01*
X1926996Y1671624D01*
X1920798Y1658467D01*
X1916277Y1644599D01*
X1913534Y1630324D01*
X1912620Y1615795D01*
X1913534Y1601266D01*
X1916277Y1586941D01*
X1920798Y1573123D01*
X1926996Y1559966D01*
X1934768Y1547672D01*
X1944065Y1536446D01*
X1954682Y1526489D01*
X1966417Y1517954D01*
X1979168Y1510944D01*
X1992731Y1505559D01*
X2006803Y1501952D01*
G37*
G36*
X1767281Y1500124D02*
G01*
X1781810Y1500124D01*
X1796237Y1501952D01*
X1810359Y1505559D01*
X1823872Y1510944D01*
X1836623Y1517954D01*
X1848408Y1526489D01*
X1859025Y1536446D01*
X1868271Y1547672D01*
X1876094Y1559966D01*
X1882292Y1573123D01*
X1886762Y1586941D01*
X1889506Y1601266D01*
X1890420Y1615795D01*
X1889506Y1630324D01*
X1886762Y1644599D01*
X1882292Y1658467D01*
X1876094Y1671624D01*
X1868271Y1683918D01*
X1859025Y1695094D01*
X1848408Y1705102D01*
X1836623Y1713636D01*
X1823872Y1720646D01*
X1810359Y1725980D01*
X1796237Y1729638D01*
X1781810Y1731467D01*
X1767281Y1731467D01*
X1752803Y1729638D01*
X1738731Y1725980D01*
X1725168Y1720646D01*
X1712417Y1713636D01*
X1700682Y1705102D01*
X1690065Y1695094D01*
X1680768Y1683918D01*
X1672996Y1671624D01*
X1666798Y1658467D01*
X1662277Y1644599D01*
X1659534Y1630324D01*
X1658620Y1615795D01*
X1659534Y1601266D01*
X1662277Y1586941D01*
X1666798Y1573123D01*
X1672996Y1559966D01*
X1680768Y1547672D01*
X1690065Y1536446D01*
X1700682Y1526489D01*
X1712417Y1517954D01*
X1725168Y1510944D01*
X1738731Y1505559D01*
X1752803Y1501952D01*
G37*
G36*
X-1915718Y1500124D02*
G01*
X-1901189Y1500124D01*
X-1886762Y1501952D01*
X-1872640Y1505559D01*
X-1859127Y1510944D01*
X-1846376Y1517954D01*
X-1834591Y1526489D01*
X-1823974Y1536446D01*
X-1814728Y1547672D01*
X-1806905Y1559966D01*
X-1800707Y1573123D01*
X-1796237Y1586941D01*
X-1793493Y1601266D01*
X-1792579Y1615795D01*
X-1793493Y1630324D01*
X-1796237Y1644599D01*
X-1800707Y1658467D01*
X-1806905Y1671624D01*
X-1814728Y1683918D01*
X-1823974Y1695094D01*
X-1834591Y1705102D01*
X-1846376Y1713636D01*
X-1859127Y1720646D01*
X-1872640Y1725980D01*
X-1886762Y1729638D01*
X-1901189Y1731467D01*
X-1915718Y1731467D01*
X-1930196Y1729638D01*
X-1944268Y1725980D01*
X-1957832Y1720646D01*
X-1970582Y1713636D01*
X-1982317Y1705102D01*
X-1992934Y1695094D01*
X-2002231Y1683918D01*
X-2010003Y1671624D01*
X-2016201Y1658467D01*
X-2020722Y1644599D01*
X-2023465Y1630324D01*
X-2024380Y1615795D01*
X-2023465Y1601266D01*
X-2020722Y1586941D01*
X-2016201Y1573123D01*
X-2010003Y1559966D01*
X-2002231Y1547672D01*
X-1992934Y1536446D01*
X-1982317Y1526489D01*
X-1970582Y1517954D01*
X-1957832Y1510944D01*
X-1944268Y1505559D01*
X-1930196Y1501952D01*
G37*
G36*
X-1153718Y1500124D02*
G01*
X-1139190Y1500124D01*
X-1124762Y1501952D01*
X-1110640Y1505559D01*
X-1097127Y1510944D01*
X-1084376Y1517954D01*
X-1072591Y1526489D01*
X-1061974Y1536446D01*
X-1052728Y1547672D01*
X-1044905Y1559966D01*
X-1038707Y1573123D01*
X-1034237Y1586941D01*
X-1031494Y1601266D01*
X-1030579Y1615795D01*
X-1031494Y1630324D01*
X-1034237Y1644599D01*
X-1038707Y1658467D01*
X-1044905Y1671624D01*
X-1052728Y1683918D01*
X-1061974Y1695094D01*
X-1072591Y1705102D01*
X-1084376Y1713636D01*
X-1097127Y1720646D01*
X-1110640Y1725980D01*
X-1124762Y1729638D01*
X-1139190Y1731467D01*
X-1153718Y1731467D01*
X-1168196Y1729638D01*
X-1182268Y1725980D01*
X-1195832Y1720646D01*
X-1208582Y1713636D01*
X-1220317Y1705102D01*
X-1230934Y1695094D01*
X-1240231Y1683918D01*
X-1248003Y1671624D01*
X-1254201Y1658467D01*
X-1258722Y1644599D01*
X-1261465Y1630324D01*
X-1262380Y1615795D01*
X-1261465Y1601266D01*
X-1258722Y1586941D01*
X-1254201Y1573123D01*
X-1248003Y1559966D01*
X-1240231Y1547672D01*
X-1230934Y1536446D01*
X-1220317Y1526489D01*
X-1208582Y1517954D01*
X-1195832Y1510944D01*
X-1182268Y1505559D01*
X-1168196Y1501952D01*
G37*
G36*
X-2169718Y1500124D02*
G01*
X-2155190Y1500124D01*
X-2140762Y1501952D01*
X-2126640Y1505559D01*
X-2113127Y1510944D01*
X-2100376Y1517954D01*
X-2088591Y1526489D01*
X-2077974Y1536446D01*
X-2068728Y1547672D01*
X-2060905Y1559966D01*
X-2054707Y1573123D01*
X-2050237Y1586941D01*
X-2047493Y1601266D01*
X-2046579Y1615795D01*
X-2047493Y1630324D01*
X-2050237Y1644599D01*
X-2054707Y1658467D01*
X-2060905Y1671624D01*
X-2068728Y1683918D01*
X-2077974Y1695094D01*
X-2088591Y1705102D01*
X-2100376Y1713636D01*
X-2113127Y1720646D01*
X-2126640Y1725980D01*
X-2140762Y1729638D01*
X-2155190Y1731467D01*
X-2169718Y1731467D01*
X-2184196Y1729638D01*
X-2198268Y1725980D01*
X-2211832Y1720646D01*
X-2224582Y1713636D01*
X-2236317Y1705102D01*
X-2246934Y1695094D01*
X-2256231Y1683918D01*
X-2264003Y1671624D01*
X-2270201Y1658467D01*
X-2274722Y1644599D01*
X-2277465Y1630324D01*
X-2278380Y1615795D01*
X-2277465Y1601266D01*
X-2274722Y1586941D01*
X-2270201Y1573123D01*
X-2264003Y1559966D01*
X-2256231Y1547672D01*
X-2246934Y1536446D01*
X-2236317Y1526489D01*
X-2224582Y1517954D01*
X-2211832Y1510944D01*
X-2198268Y1505559D01*
X-2184196Y1501952D01*
G37*

%LPD*%
G36*
X-2784754Y587095D02*
G01*
X-2835554Y548995D01*
X-2835554Y-136804D01*
X-2772054Y-187604D01*
X-2086254Y-187604D01*
X-2048154Y-162204D01*
X-2048154Y548995D01*
X-2098954Y587095D01*
G37*
G36*
X-2794000Y-946150D02*
G01*
X-2834944Y-1001979D01*
X-2838450Y-1644650D01*
X-2762250Y-1701800D01*
X-2171700Y-1701800D01*
X-2038350Y-1543050D01*
X-2038350Y-1009650D01*
X-2089150Y-946150D01*
G37*
G36*
X-2781300Y-215900D02*
G01*
X-2838450Y-260350D01*
X-2835554Y-886104D01*
X-2797454Y-924204D01*
X-2086254Y-924204D01*
X-2038350Y-863600D01*
X-2038350Y-247650D01*
X-2082800Y-215900D01*
G37*
D10*
X876310Y-565139D02*
G01*
X546214Y-895235D01*
X546214Y-1428640D01*
X1295511Y-2146188D02*
G01*
X1295511Y-2324242D01*
X1524111Y-2552588D01*
X1524111Y-3181238D01*
X1520555Y-3184794D01*
X1295402Y-1809752D02*
G01*
X1295402Y-2038332D01*
X1295410Y-2038339D01*
D11*
X495310Y476260D02*
G01*
X495310Y24851D01*
X1076055Y-555894D01*
X1076055Y-2435494D01*
D10*
X-1063472Y1249997D02*
G01*
X-1085839Y1272364D01*
X-1085839Y1352560D01*
X-469897Y1249997D02*
G01*
X-469897Y1162047D01*
X-444497Y1136647D01*
X-361927Y1136647D01*
X-126989Y901710D01*
X-1060447Y1149347D02*
G01*
X-952510Y1041410D01*
X-946139Y1041410D01*
X-384444Y1615805D02*
G01*
X-384444Y1432194D01*
X-355600Y1403350D01*
X-355600Y1244600D01*
X-638444Y1615805D02*
G01*
X-638444Y1298844D01*
X-584200Y1244600D01*
X196961Y1244711D02*
G01*
X250555Y1298305D01*
X250555Y1615805D01*
X431911Y-95138D02*
G01*
X89011Y247761D01*
X89011Y1244711D01*
X1390650Y-2806700D02*
G01*
X1520555Y-2936605D01*
X1520555Y-3184794D01*
X520700Y-190500D02*
G01*
X444500Y-114300D01*
X444500Y-107950D01*
X431800Y-95250D01*
X758555Y-3184794D02*
G01*
X758555Y-2981055D01*
X698500Y-2921000D01*
X698500Y-2813050D01*
X704850Y-2806700D01*
X927100Y-2806700D02*
G01*
X927100Y-2971800D01*
X965200Y-3009900D01*
X965200Y-3137438D01*
X1012555Y-3184794D01*
X1168400Y-2806700D02*
G01*
X1168400Y-2971800D01*
X1266555Y-3069955D01*
X1266555Y-3184794D01*
X1200150Y-2495550D02*
G01*
X1282674Y-2578074D01*
X1282674Y-2806725D01*
X819124Y-2806725D02*
G01*
X819124Y-2508224D01*
X755650Y-2444750D01*
X628652Y-304802D02*
G01*
X692152Y-368297D01*
X692152Y-469897D01*
X476260Y-685789D01*
X628652Y-304802D02*
G01*
X527052Y-203202D01*
X527052Y-196832D01*
X520710Y-190489D01*
D11*
X-711088Y-2781188D02*
G01*
X-711088Y-3130438D01*
X-765444Y-3184794D01*
X-590438Y-2908188D02*
G01*
X-590438Y-3105800D01*
X-511444Y-3184794D01*
D10*
X1520555Y1615805D02*
G01*
X1695561Y1440799D01*
X1695561Y876411D01*
X1625711Y806561D01*
X1587611Y806561D01*
X1581261Y812911D01*
X1555861Y812911D01*
X1449999Y1162047D02*
G01*
X1449999Y1102720D01*
X1574810Y977910D01*
X971560Y1225560D02*
G01*
X1244579Y1498579D01*
X1244579Y1593834D01*
X1266555Y1615805D01*
X1555757Y546097D02*
G01*
X1670050Y546097D01*
X1447810Y1263660D02*
G01*
X1333510Y1377960D01*
X1314465Y1377960D01*
X768461Y1251061D02*
G01*
X768461Y1615805D01*
X758555Y1615805D01*
X1555861Y1162161D02*
G01*
X1555861Y1327261D01*
X1466961Y1416161D01*
X1435211Y1416161D01*
X1266555Y1615805D01*
X-25400Y1244600D02*
G01*
X-101600Y1320800D01*
X-101600Y1586961D01*
X-130444Y1615805D01*
X882761Y1250045D02*
G01*
X882761Y1155811D01*
X800211Y1073261D01*
X800211Y495411D01*
X1449943Y546211D02*
G01*
X1449943Y579993D01*
X1492361Y622411D01*
X1929749Y622411D01*
X1965055Y587105D01*
X1454007Y812911D02*
G01*
X1454007Y749411D01*
X1479661Y724011D01*
X1714611Y724011D01*
X1816211Y825611D01*
X1949561Y825611D01*
X1965055Y841105D01*
D11*
X-590438Y-2781188D02*
G01*
X-590438Y-2679588D01*
X-587644Y-2676794D01*
D10*
X-955522Y1249997D02*
G01*
X-904722Y1300797D01*
X-904722Y1603527D01*
X-892444Y1615805D01*
X-1400444Y1615805D02*
G01*
X-1400444Y1552813D01*
X-1177686Y1330055D01*
X-1177686Y1250045D01*
X1346202Y546097D02*
G01*
X1346202Y469902D01*
X1289060Y412760D01*
X1449948Y450959D02*
G01*
X1473210Y427697D01*
X1473210Y292110D01*
X1346311Y1162161D02*
G01*
X1073261Y889111D01*
X1073261Y110347D01*
X1867011Y-683402D01*
X1867011Y-3092338D01*
X1774555Y-3184794D01*
X1346200Y812800D02*
G01*
X1219200Y685800D01*
X1219200Y298450D01*
X2028555Y-510905D01*
X2028555Y-3184794D01*
D12*
G01*
X-590558Y-2781294D03*
G01*
X-711208Y-2781294D03*
G01*
X-590558Y-2908294D03*
D13*
G01*
X704839Y-2806703D03*
G01*
X819129Y-2806719D03*
G01*
X927089Y-2806703D03*
G01*
X1168389Y-2806703D03*
G01*
X1282679Y-2806719D03*
G01*
X1390639Y-2806703D03*
G01*
X196839Y1249993D03*
G01*
X88905Y1250003D03*
G01*
X-25410Y1249993D03*
G01*
X990589Y1249993D03*
G01*
X882655Y1250003D03*
G01*
X768339Y1249993D03*
G01*
X-355610Y1249993D03*
G01*
X-469894Y1250003D03*
G01*
X-584210Y1249993D03*
G01*
X-955532Y1249993D03*
G01*
X-1063467Y1250003D03*
G01*
X-1177782Y1249993D03*
G01*
X-1060444Y1149356D03*
D12*
G01*
X1295406Y-2038355D03*
G01*
X1295421Y-2146315D03*
D13*
G01*
X1555744Y812801D03*
G01*
X1450002Y812791D03*
D14*
G01*
X1346210Y812810D03*
D13*
G01*
X1346205Y1162048D03*
G01*
X1449992Y1162058D03*
G01*
X1555755Y1162048D03*
G01*
X1449992Y1263646D03*
G01*
X1346202Y546098D03*
G01*
X1450002Y546088D03*
G01*
X1555752Y546098D03*
G01*
X1450002Y444503D03*
D15*
G01*
X-2018045Y-3022234D03*
G01*
X-2518044Y-3022234D03*
G01*
X-2558938Y-1332804D03*
D16*
G01*
X-2558938Y-1174003D03*
G01*
X-2558938Y-1491604D03*
G01*
X-2400137Y-1332804D03*
G01*
X-2717739Y-1332804D03*
G01*
X-2446644Y-1220510D03*
G01*
X-2671231Y-1220510D03*
G01*
X-2671231Y-1445097D03*
G01*
X-2446644Y-1445097D03*
D15*
G01*
X-2558938Y-632805D03*
D16*
G01*
X-2558938Y-474004D03*
G01*
X-2558938Y-791606D03*
G01*
X-2400137Y-632805D03*
G01*
X-2717739Y-632805D03*
G01*
X-2446644Y-520512D03*
G01*
X-2671231Y-520512D03*
G01*
X-2671231Y-745098D03*
G01*
X-2446644Y-745098D03*
D15*
G01*
X-2558938Y67193D03*
D16*
G01*
X-2558938Y225993D03*
G01*
X-2558938Y-91607D03*
G01*
X-2400137Y67193D03*
G01*
X-2717739Y67193D03*
G01*
X-2446644Y179486D03*
G01*
X-2671231Y179486D03*
G01*
X-2671231Y-45100D03*
G01*
X-2446644Y-45100D03*
D17*
G01*
X250555Y1615805D03*
D18*
G01*
X504555Y1615805D03*
G01*
X758555Y1615805D03*
G01*
X1012555Y1615805D03*
G01*
X1266555Y1615805D03*
G01*
X1520555Y1615805D03*
G01*
X1774555Y1615805D03*
G01*
X2028555Y1615805D03*
G01*
X-130444Y1615805D03*
G01*
X-384444Y1615805D03*
G01*
X-638444Y1615805D03*
G01*
X-892444Y1615805D03*
G01*
X-1146444Y1615805D03*
G01*
X-1400444Y1615805D03*
G01*
X-1654444Y1615805D03*
G01*
X-1908444Y1615805D03*
G01*
X-2162444Y1615805D03*
D17*
G01*
X-2416444Y1615805D03*
D18*
G01*
X2028555Y-3184794D03*
G01*
X1774555Y-3184794D03*
G01*
X1520555Y-3184794D03*
G01*
X1266555Y-3184794D03*
G01*
X1012555Y-3184794D03*
D17*
G01*
X758555Y-3184794D03*
G01*
X-1527444Y-3184794D03*
D18*
G01*
X-1273444Y-3184794D03*
G01*
X-1019444Y-3184794D03*
G01*
X-765444Y-3184794D03*
G01*
X-511444Y-3184794D03*
G01*
X-257444Y-3184794D03*
G01*
X-3444Y-3184794D03*
G01*
X250555Y-3184794D03*
D19*
G01*
X1965055Y79105D03*
G01*
X1965055Y333105D03*
G01*
X1965055Y587105D03*
G01*
X1965055Y841105D03*
D20*
G01*
X1965055Y1095105D03*
D21*
G01*
X2330155Y-2738795D03*
G01*
X2330155Y61198D03*
D22*
G01*
X-507989Y171460D03*
G01*
X-526938Y12811D03*
G01*
X-505856Y-408320D03*
G01*
X-506872Y-1041288D03*
G01*
X-506872Y-1434988D03*
G01*
X-509412Y-1579006D03*
D23*
G01*
X-1130289Y-698489D03*
G01*
X-1289039Y-704839D03*
G01*
X-1206489Y-698489D03*
G01*
X30363Y-492394D03*
G01*
X182763Y-339994D03*
G01*
X182763Y-644794D03*
G01*
X335163Y-492394D03*
G01*
X184160Y-495289D03*
G01*
X-1028689Y-12689D03*
G01*
X-990589Y-69839D03*
G01*
X-764529Y-72379D03*
G01*
X-800089Y-133339D03*
G01*
X-838189Y-189219D03*
G01*
X-806439Y-19039D03*
G01*
X-914389Y-186679D03*
G01*
X-985509Y-186679D03*
G01*
X-764529Y-191759D03*
G01*
X-1022339Y-126989D03*
G01*
X-952489Y-19039D03*
G01*
X-914389Y-74919D03*
G01*
X-952489Y-130799D03*
G01*
X-876289Y-19039D03*
G01*
X-843269Y-77459D03*
G01*
X-876289Y-133339D03*
G01*
X-1282689Y-831839D03*
G01*
X-1130289Y-838189D03*
G01*
X-1162039Y-768339D03*
G01*
X-1206489Y-838189D03*
G01*
X-1239078Y-770549D03*
G01*
X-1244589Y-901689D03*
G01*
X-1162039Y-908039D03*
G01*
X-1289039Y-971539D03*
G01*
X-1206489Y-971539D03*
G01*
X-1136639Y-971539D03*
G01*
X-2101839Y-101589D03*
G01*
X-2101839Y-12689D03*
G01*
X-2101839Y88910D03*
G01*
X-2101839Y190510D03*
G01*
X-2165339Y241310D03*
G01*
X-2165339Y139710D03*
G01*
X-2165339Y38110D03*
G01*
X-2165339Y-50789D03*
G01*
X-2114539Y-552439D03*
G01*
X-2114539Y-641339D03*
G01*
X-2114539Y-742939D03*
G01*
X-2114539Y-844539D03*
G01*
X-2178039Y-501639D03*
G01*
X-2178039Y-590539D03*
G01*
X-2178039Y-692139D03*
G01*
X-2178039Y-793739D03*
G01*
X-2251344Y-1152794D03*
G01*
X-2098944Y-1063894D03*
G01*
X-2098944Y-1165494D03*
G01*
X-2251344Y-1254394D03*
G01*
X-2251344Y-1063894D03*
G01*
X-2174331Y-1008496D03*
G01*
X-2174331Y-1110096D03*
G01*
X-2174331Y-1211696D03*
G01*
X-2228839Y-101589D03*
G01*
X-2228839Y-12689D03*
G01*
X-2228839Y88910D03*
G01*
X-2228839Y190510D03*
G01*
X-2241539Y-552439D03*
G01*
X-2241539Y-641339D03*
G01*
X-2241539Y-742939D03*
G01*
X-2241539Y-844539D03*
G01*
X-2327544Y-1101994D03*
G01*
X-2327544Y-1013094D03*
G01*
X-2098944Y-1254394D03*
G01*
X-2403744Y-1063894D03*
G01*
X-1168389Y558810D03*
G01*
X-1019444Y523605D03*
G01*
X-958839Y603260D03*
G01*
X-927089Y527060D03*
G01*
X-857239Y603260D03*
G01*
X-825489Y527060D03*
G01*
X-501639Y-2101839D03*
G01*
X-438139Y-2012939D03*
G01*
X-349239Y-2012939D03*
G01*
X-400039Y-2101839D03*
G01*
X-298439Y-2101839D03*
G01*
X-450839Y-2406639D03*
G01*
X-349239Y-2406639D03*
G01*
X-400039Y-2495539D03*
G01*
X-311139Y-2495539D03*
G01*
X-247639Y-2406639D03*
G01*
X-349239Y679460D03*
G01*
X-450839Y679460D03*
G01*
X-552439Y679460D03*
G01*
X-368289Y971560D03*
G01*
X-469889Y971560D03*
G01*
X-419089Y1060460D03*
G01*
X-507989Y1060460D03*
G01*
X-571489Y971560D03*
G01*
X495310Y476260D03*
G01*
X1076055Y-2435494D03*
D24*
G01*
X-1384289Y1409710D03*
G01*
X-587644Y-2676794D03*
G01*
X895360Y1009660D03*
G01*
X2219055Y-644794D03*
G01*
X2219055Y-2168794D03*
G01*
X1711055Y-644794D03*
G01*
X1711055Y-2168794D03*
G01*
X1155710Y234960D03*
G01*
X1203055Y-644794D03*
G01*
X1203055Y-2168794D03*
G01*
X1711055Y-1660794D03*
G01*
X2219055Y-1152794D03*
G01*
X2219055Y-1660794D03*
G01*
X695055Y-1660794D03*
G01*
X695055Y-2168794D03*
G01*
X990610Y901710D03*
G01*
X187055Y879205D03*
G01*
X187055Y-1660794D03*
G01*
X187055Y-2168794D03*
G01*
X187055Y-2676794D03*
G01*
X1711055Y-1152794D03*
G01*
X44460Y1530360D03*
G01*
X-73294Y1152255D03*
D23*
G01*
X-723508Y-17007D03*
G01*
X-685408Y-74157D03*
G01*
X-729858Y-131307D03*
G01*
X-647308Y-131307D03*
G01*
X-691758Y-188457D03*
D24*
G01*
X-203189Y-463539D03*
G01*
X711210Y673110D03*
G01*
X628660Y-1352539D03*
G01*
X876310Y-565139D03*
G01*
X476260Y-685789D03*
D23*
G01*
X-1231889Y-2038339D03*
G01*
X-1320789Y-2038339D03*
G01*
X-1422389Y-2038339D03*
G01*
X-1193789Y-1962139D03*
G01*
X-1282689Y-1962139D03*
G01*
X-1384289Y-1962139D03*
G01*
X-1333489Y-1898639D03*
G01*
X-1231889Y-1898639D03*
G01*
X-1422389Y-1898639D03*
G01*
X-1153149Y-1897649D03*
G01*
X-1457010Y-1961606D03*
G01*
X-776036Y606181D03*
G01*
X-1130289Y628660D03*
G01*
X-1219189Y628660D03*
G01*
X-1301739Y628660D03*
G01*
X-1352539Y565160D03*
G01*
X-1257289Y558810D03*
G01*
X-1536689Y412760D03*
G01*
X-1543039Y273060D03*
G01*
X-1454139Y412760D03*
G01*
X-1454139Y273060D03*
G01*
X-1549389Y-768339D03*
G01*
X-1466839Y-768339D03*
G01*
X-1549389Y-908039D03*
G01*
X-1466839Y-908039D03*
G01*
X-1555739Y-1193789D03*
G01*
X-1466839Y-1193789D03*
G01*
X-1466839Y-1327139D03*
G01*
X-1555739Y-1327139D03*
G01*
X-1308089Y-1123939D03*
G01*
X-1225539Y-1123939D03*
G01*
X-1142685Y-1118910D03*
G01*
X-1181089Y-1174739D03*
G01*
X-1263639Y-1174739D03*
G01*
X-1301739Y-1231889D03*
G01*
X-1219189Y-1231889D03*
G01*
X-1142989Y-1238239D03*
G01*
X-1181089Y-1301739D03*
G01*
X-1257289Y-1295389D03*
G01*
X-1308089Y-1352539D03*
G01*
X-1225539Y-1358889D03*
G01*
X-1142989Y-1352539D03*
G01*
X-1522796Y-685078D03*
G01*
X-1401434Y-684138D03*
G01*
X-1447789Y-1104889D03*
G01*
X-1555739Y-1104915D03*
G01*
X-1123939Y495310D03*
G01*
X-1206489Y495310D03*
G01*
X-1291198Y494167D03*
G01*
X-1241237Y428457D03*
G01*
X-1164198Y430667D03*
G01*
X-1284848Y367167D03*
G01*
X-1208648Y360817D03*
G01*
X-1447789Y565160D03*
G01*
X-1162039Y298460D03*
G01*
X-1244589Y298460D03*
G01*
X-1289039Y234960D03*
G01*
X-1206489Y234960D03*
G01*
X-1536689Y565160D03*
G01*
X-1489699Y633409D03*
G01*
X-1392798Y629650D03*
G01*
X-698108Y-550407D03*
G01*
X-653658Y-493257D03*
G01*
X-736208Y-493257D03*
G01*
X-691758Y-436107D03*
G01*
X-729858Y-378957D03*
G01*
X-882639Y-495289D03*
G01*
X-849619Y-439409D03*
G01*
X-882639Y-380989D03*
G01*
X-958839Y-492749D03*
G01*
X-920739Y-436869D03*
G01*
X-958839Y-380989D03*
G01*
X-1028689Y-495289D03*
G01*
X-770879Y-553709D03*
G01*
X-991859Y-548629D03*
G01*
X-920739Y-548629D03*
G01*
X-812789Y-380989D03*
G01*
X-844539Y-551169D03*
G01*
X-806439Y-495289D03*
G01*
X-770879Y-434329D03*
G01*
X-996939Y-431789D03*
G01*
X-1028689Y-368289D03*
G01*
X-685408Y-1820407D03*
G01*
X-640958Y-1763257D03*
G01*
X-723508Y-1763257D03*
G01*
X-679058Y-1706107D03*
G01*
X-717158Y-1648957D03*
G01*
X-869939Y-1765289D03*
G01*
X-836919Y-1709409D03*
G01*
X-869939Y-1650989D03*
G01*
X-946139Y-1762749D03*
G01*
X-908039Y-1706869D03*
G01*
X-946139Y-1650989D03*
G01*
X-1022339Y-1765289D03*
G01*
X-758179Y-1823709D03*
G01*
X-979159Y-1818629D03*
G01*
X-908039Y-1818629D03*
G01*
X-800089Y-1650989D03*
G01*
X-831839Y-1821169D03*
G01*
X-793739Y-1765289D03*
G01*
X-758179Y-1704329D03*
G01*
X-984239Y-1701789D03*
G01*
X-1022339Y-1650989D03*
G01*
X-1127419Y370469D03*
G01*
X-1130289Y234960D03*
D24*
G01*
X-692139Y-1117589D03*
G01*
X-692139Y-1206489D03*
G01*
X-692139Y-1295389D03*
G01*
X-673115Y-888989D03*
G01*
X-762015Y-888989D03*
G01*
X-850915Y-888989D03*
G01*
X-692139Y247660D03*
G01*
X-692139Y330210D03*
G01*
X-692139Y412760D03*
G01*
X-171439Y234960D03*
G01*
X-298439Y361960D03*
G01*
X-304789Y69860D03*
D23*
G01*
X-634989Y-1644639D03*
G01*
X-596889Y-1701789D03*
G01*
X-558789Y-1758939D03*
G01*
X-603239Y-1816089D03*
G01*
X-641339Y-374639D03*
G01*
X-603239Y-431789D03*
G01*
X-565139Y-488939D03*
G01*
X-609589Y-546089D03*
G01*
X-634989Y-19039D03*
G01*
X-596889Y-76189D03*
G01*
X-558789Y-133339D03*
G01*
X-603239Y-190489D03*
D24*
G01*
X-2660639Y1028710D03*
G01*
X-2666989Y730260D03*
G01*
X-1993889Y685810D03*
G01*
X-1435089Y984260D03*
D23*
G01*
X-647689Y-603239D03*
G01*
X-558789Y-596889D03*
G01*
X-527039Y-1822439D03*
G01*
X-1939762Y184922D03*
G01*
X-1939762Y83322D03*
G01*
X-1939762Y-18277D03*
G01*
X-1939762Y-107177D03*
G01*
X-1876262Y-56377D03*
G01*
X-1876262Y32522D03*
G01*
X-1876262Y134122D03*
G01*
X-1876262Y235722D03*
G01*
X-1812762Y184922D03*
G01*
X-1812762Y83322D03*
G01*
X-1812762Y-18277D03*
G01*
X-1812762Y-107177D03*
G01*
X-1809384Y-1301816D03*
G01*
X-1809384Y-1200216D03*
G01*
X-1809384Y-1098616D03*
G01*
X-1809384Y-1009716D03*
G01*
X-1872884Y-1060516D03*
G01*
X-1872884Y-1149416D03*
G01*
X-1872884Y-1251016D03*
G01*
X-1936384Y-1301816D03*
G01*
X-1936384Y-1200216D03*
G01*
X-1936384Y-1098616D03*
G01*
X-1936384Y-1009716D03*
D24*
G01*
X-1409689Y19060D03*
G01*
X-1320789Y19060D03*
G01*
X-1320789Y-101589D03*
G01*
X-1416039Y-101589D03*
G01*
X-1409689Y-349239D03*
G01*
X-1314439Y-349239D03*
G01*
X-1314439Y-482589D03*
G01*
X-1409689Y-482589D03*
G01*
X-1428739Y-1600189D03*
G01*
X-1320789Y-1600189D03*
G01*
X-1320789Y-1752589D03*
G01*
X-1428739Y-1752589D03*
G01*
X946160Y-990589D03*
D23*
G01*
X-2387488Y456879D03*
G01*
X-2438288Y520379D03*
G01*
X-2438288Y393379D03*
G01*
X-2539888Y393379D03*
G01*
X-2489088Y456879D03*
G01*
X-2539888Y520379D03*
G01*
X-2590688Y456879D03*
G01*
X-2641488Y393379D03*
G01*
X-2730388Y393379D03*
G01*
X-2679588Y456879D03*
G01*
X-2641488Y520379D03*
G01*
X-2730388Y520379D03*
G01*
X-2292339Y-419089D03*
G01*
X-2349489Y-260339D03*
G01*
X-2349489Y-368289D03*
G01*
X-2285989Y-311139D03*
G01*
X-2410449Y-312409D03*
G01*
X-2174128Y-317820D03*
G01*
X-2110628Y-368620D03*
G01*
X-2110628Y-470220D03*
G01*
X-2174128Y-419420D03*
G01*
X-2237628Y-470220D03*
G01*
X-2237628Y-368620D03*
G01*
X-2227468Y-256860D03*
G01*
X-2113168Y-256860D03*
G01*
X-2352842Y-1654342D03*
G01*
X-2505242Y-1654342D03*
G01*
X-2428229Y-1611645D03*
G01*
X-2352842Y-1565442D03*
G01*
X-2570927Y-1608292D03*
G01*
X-2647939Y-1650989D03*
G01*
X-2487081Y-1012078D03*
G01*
X-2175042Y-1305981D03*
D24*
G01*
X431810Y-95239D03*
G01*
X520710Y-190489D03*
G01*
X628660Y-304789D03*
G01*
X755660Y-2444739D03*
G01*
X1200160Y-2495539D03*
G01*
X793760Y184160D03*
G01*
X-946139Y1041410D03*
G01*
X800110Y495310D03*
G01*
X-126989Y901710D03*
G01*
X793760Y-31739D03*
G01*
X-1085839Y1352560D03*
G01*
X1295410Y-1809739D03*
G01*
X546211Y-1428638D03*
G01*
X812810Y-876289D03*
G01*
X1574810Y977910D03*
G01*
X1670060Y546084D03*
G01*
X1314460Y1377960D03*
G01*
X1289060Y412760D03*
G01*
X1473210Y292110D03*
G01*
X895360Y1473210D03*
G01*
X1168511Y1232011D03*
G01*
X-1289039Y1327160D03*
G01*
X387360Y1155710D03*
G01*
X647710Y1212860D03*
D23*
G01*
X-1363715Y-2097293D03*
G01*
X-1269989Y-2108189D03*
D24*
G01*
X1511310Y-171439D03*
G01*
X-680481Y-2676794D03*
G01*
X-2184389Y793760D03*
G01*
X1860560Y-514339D03*
M02*
