G04 Layer: TopSilkscreenLayer*
G04 EasyEDA v6.5.57, 2026-08-14 15:25:13*
G04 ebc703f97e3148f1b7392a4f0a1a7df2,2865ae9118a24060a17af6d01c9bcc73,10*
G04 Gerber Generator version 0.2*
G04 Scale: 100 percent, Rotated: No, Reflected: No *
G04 Dimensions in millimeters *
G04 leading zeros omitted , absolute positions ,4 integer and 5 decimal *
%FSLAX45Y45*%
%MOMM*%

%ADD10C,0.2540*%
%ADD11C,0.4000*%
%ADD12C,0.7000*%
%ADD13C,0.2032*%
%ADD14C,0.2000*%
%ADD15C,0.1524*%
%ADD16C,0.1500*%
%ADD17C,0.1520*%
%ADD18C,0.0122*%
%ADD19C,0.2030*%

%LPD*%
D10*
X-2205990Y-570222D02*
G01*
X-2166112Y-570222D01*
X-2187702Y-599178D01*
X-2176780Y-599178D01*
X-2169668Y-602988D01*
X-2166112Y-606544D01*
X-2162302Y-617466D01*
X-2162302Y-624578D01*
X-2166112Y-635500D01*
X-2173224Y-642866D01*
X-2184146Y-646422D01*
X-2195068Y-646422D01*
X-2205990Y-642866D01*
X-2209546Y-639310D01*
X-2213356Y-631944D01*
X-2134616Y-628388D02*
G01*
X-2138426Y-631944D01*
X-2134616Y-635500D01*
X-2131060Y-631944D01*
X-2134616Y-628388D01*
X-2099818Y-570222D02*
G01*
X-2059686Y-570222D01*
X-2081530Y-599178D01*
X-2070608Y-599178D01*
X-2063496Y-602988D01*
X-2059686Y-606544D01*
X-2056130Y-617466D01*
X-2056130Y-624578D01*
X-2059686Y-635500D01*
X-2067052Y-642866D01*
X-2077974Y-646422D01*
X-2088896Y-646422D01*
X-2099818Y-642866D01*
X-2103374Y-639310D01*
X-2107184Y-631944D01*
X-2032254Y-570222D02*
G01*
X-2003044Y-646422D01*
X-1974088Y-570222D02*
G01*
X-2003044Y-646422D01*
X-1155611Y-1005189D02*
G01*
X-1126655Y-1081389D01*
X-1097445Y-1005189D02*
G01*
X-1126655Y-1081389D01*
X-1073569Y-1005189D02*
G01*
X-1073569Y-1081389D01*
X-1049439Y-1005189D02*
G01*
X-1049439Y-1081389D01*
X-1049439Y-1005189D02*
G01*
X-998639Y-1081389D01*
X-998639Y-1005189D02*
G01*
X-998639Y-1081389D01*
X-1506588Y-588604D02*
G01*
X-1511160Y-579460D01*
X-1520304Y-570316D01*
X-1529448Y-565744D01*
X-1547482Y-565744D01*
X-1556626Y-570316D01*
X-1565770Y-579460D01*
X-1570342Y-588604D01*
X-1574914Y-602320D01*
X-1574914Y-624926D01*
X-1570342Y-638642D01*
X-1565770Y-647786D01*
X-1556626Y-656676D01*
X-1547482Y-661248D01*
X-1529448Y-661248D01*
X-1520304Y-656676D01*
X-1511160Y-647786D01*
X-1506588Y-638642D01*
X-1506588Y-624926D01*
X-1529448Y-624926D02*
G01*
X-1506588Y-624926D01*
X-1476616Y-565744D02*
G01*
X-1476616Y-661248D01*
X-1476616Y-565744D02*
G01*
X-1413116Y-661248D01*
X-1413116Y-565744D02*
G01*
X-1413116Y-661248D01*
X-1382890Y-565744D02*
G01*
X-1382890Y-661248D01*
X-1382890Y-565744D02*
G01*
X-1351140Y-565744D01*
X-1337678Y-570316D01*
X-1328534Y-579460D01*
X-1323962Y-588604D01*
X-1319390Y-602320D01*
X-1319390Y-624926D01*
X-1323962Y-638642D01*
X-1328534Y-647786D01*
X-1337678Y-656676D01*
X-1351140Y-661248D01*
X-1382890Y-661248D01*
X-1839480Y-570232D02*
G01*
X-1875802Y-570232D01*
X-1879358Y-602998D01*
X-1875802Y-599188D01*
X-1864880Y-595632D01*
X-1853958Y-595632D01*
X-1843036Y-599188D01*
X-1835670Y-606554D01*
X-1832114Y-617476D01*
X-1832114Y-624588D01*
X-1835670Y-635510D01*
X-1843036Y-642876D01*
X-1853958Y-646432D01*
X-1864880Y-646432D01*
X-1875802Y-642876D01*
X-1879358Y-639320D01*
X-1883168Y-631954D01*
X-1808238Y-570232D02*
G01*
X-1779028Y-646432D01*
X-1750072Y-570232D02*
G01*
X-1779028Y-646432D01*
X-2993641Y3590625D02*
G01*
X-3002785Y3586053D01*
X-3011929Y3576909D01*
X-3016501Y3567765D01*
X-3016501Y3549731D01*
X-3011929Y3540587D01*
X-3002785Y3531443D01*
X-2993641Y3526871D01*
X-2980179Y3522299D01*
X-2957319Y3522299D01*
X-2943603Y3526871D01*
X-2934713Y3531443D01*
X-2925569Y3540587D01*
X-2920997Y3549731D01*
X-2920997Y3567765D01*
X-2925569Y3576909D01*
X-2934713Y3586053D01*
X-2943603Y3590625D01*
X-2957319Y3590625D01*
X-2957319Y3567765D02*
G01*
X-2957319Y3590625D01*
X-3016501Y3620597D02*
G01*
X-2920997Y3620597D01*
X-3016501Y3620597D02*
G01*
X-2920997Y3684097D01*
X-3016501Y3684097D02*
G01*
X-2920997Y3684097D01*
X-3016501Y3714323D02*
G01*
X-2920997Y3714323D01*
X-3016501Y3714323D02*
G01*
X-3016501Y3746073D01*
X-3011929Y3759789D01*
X-3002785Y3768679D01*
X-2993641Y3773251D01*
X-2980179Y3777823D01*
X-2957319Y3777823D01*
X-2943603Y3773251D01*
X-2934713Y3768679D01*
X-2925569Y3759789D01*
X-2920997Y3746073D01*
X-2920997Y3714323D01*
X717651Y143898D02*
G01*
X764895Y19692D01*
X812139Y143898D02*
G01*
X764895Y19692D01*
X851001Y120276D02*
G01*
X862939Y126118D01*
X880719Y143898D01*
X880719Y19692D01*
X925423Y49410D02*
G01*
X919581Y43314D01*
X925423Y37472D01*
X931519Y43314D01*
X925423Y49410D01*
X1000099Y143898D02*
G01*
X982319Y138056D01*
X976477Y126118D01*
X976477Y114434D01*
X982319Y102496D01*
X994003Y96654D01*
X1017625Y90812D01*
X1035405Y84716D01*
X1047343Y73032D01*
X1053185Y61094D01*
X1053185Y43314D01*
X1047343Y31630D01*
X1041247Y25788D01*
X1023721Y19692D01*
X1000099Y19692D01*
X982319Y25788D01*
X976477Y31630D01*
X970381Y43314D01*
X970381Y61094D01*
X976477Y73032D01*
X988161Y84716D01*
X1005941Y90812D01*
X1029563Y96654D01*
X1041247Y102496D01*
X1047343Y114434D01*
X1047343Y126118D01*
X1041247Y138056D01*
X1023721Y143898D01*
X1000099Y143898D01*
D11*
X-215910Y271261D02*
G01*
X-215910Y32755D01*
X-215910Y271261D02*
G01*
X-136408Y271261D01*
X-102372Y259831D01*
X-79512Y237225D01*
X-68082Y214619D01*
X-56906Y180329D01*
X-56906Y123687D01*
X-68082Y89397D01*
X-79512Y66791D01*
X-102372Y43931D01*
X-136408Y32755D01*
X-215910Y32755D01*
X18277Y191759D02*
G01*
X18277Y32755D01*
X18277Y123687D02*
G01*
X29453Y157723D01*
X52313Y180329D01*
X74919Y191759D01*
X109209Y191759D01*
X184139Y271261D02*
G01*
X195569Y259831D01*
X206745Y271261D01*
X195569Y282691D01*
X184139Y271261D01*
X195569Y191759D02*
G01*
X195569Y32755D01*
X281929Y191759D02*
G01*
X350001Y32755D01*
X418073Y191759D02*
G01*
X350001Y32755D01*
X493257Y123687D02*
G01*
X629655Y123687D01*
X629655Y146293D01*
X618225Y169153D01*
X606795Y180329D01*
X584189Y191759D01*
X549899Y191759D01*
X527293Y180329D01*
X504433Y157723D01*
X493257Y123687D01*
X493257Y100827D01*
X504433Y66791D01*
X527293Y43931D01*
X549899Y32755D01*
X584189Y32755D01*
X606795Y43931D01*
X629655Y66791D01*
X-526714Y573907D02*
G01*
X-549574Y596513D01*
X-583610Y607943D01*
X-629076Y607943D01*
X-663112Y596513D01*
X-685718Y573907D01*
X-685718Y551047D01*
X-674542Y528441D01*
X-663112Y517011D01*
X-640252Y505581D01*
X-572180Y482975D01*
X-549574Y471545D01*
X-538144Y460115D01*
X-526714Y437509D01*
X-526714Y403219D01*
X-549574Y380613D01*
X-583610Y369183D01*
X-629076Y369183D01*
X-663112Y380613D01*
X-685718Y403219D01*
X-451784Y607943D02*
G01*
X-440354Y596513D01*
X-428924Y607943D01*
X-440354Y619119D01*
X-451784Y607943D01*
X-440354Y528441D02*
G01*
X-440354Y369183D01*
X-353994Y528441D02*
G01*
X-353994Y369183D01*
X-353994Y482975D02*
G01*
X-319958Y517011D01*
X-297098Y528441D01*
X-263062Y528441D01*
X-240456Y517011D01*
X-229026Y482975D01*
X-229026Y369183D01*
X-229026Y482975D02*
G01*
X-194990Y517011D01*
X-172130Y528441D01*
X-138094Y528441D01*
X-115488Y517011D01*
X-104058Y482975D01*
X-104058Y369183D01*
X-29128Y528441D02*
G01*
X-29128Y289681D01*
X-29128Y494151D02*
G01*
X-6268Y517011D01*
X16337Y528441D01*
X50627Y528441D01*
X73233Y517011D01*
X96093Y494151D01*
X107269Y460115D01*
X107269Y437509D01*
X96093Y403219D01*
X73233Y380613D01*
X50627Y369183D01*
X16337Y369183D01*
X-6268Y380613D01*
X-29128Y403219D01*
X182453Y607943D02*
G01*
X182453Y369183D01*
X257383Y460115D02*
G01*
X393781Y460115D01*
X393781Y482975D01*
X382351Y505581D01*
X370921Y517011D01*
X348315Y528441D01*
X314279Y528441D01*
X291419Y517011D01*
X268813Y494151D01*
X257383Y460115D01*
X257383Y437509D01*
X268813Y403219D01*
X291419Y380613D01*
X314279Y369183D01*
X348315Y369183D01*
X370921Y380613D01*
X393781Y403219D01*
D12*
X469981Y601593D02*
G01*
X469981Y362833D01*
X469981Y601593D02*
G01*
X617555Y601593D01*
X469981Y487801D02*
G01*
X560659Y487801D01*
X760811Y601593D02*
G01*
X737951Y590163D01*
X715345Y567557D01*
X703915Y544697D01*
X692485Y510661D01*
X692485Y453765D01*
X703915Y419729D01*
X715345Y396869D01*
X737951Y374263D01*
X760811Y362833D01*
X806277Y362833D01*
X828883Y374263D01*
X851743Y396869D01*
X863173Y419729D01*
X874349Y453765D01*
X874349Y510661D01*
X863173Y544697D01*
X851743Y567557D01*
X828883Y590163D01*
X806277Y601593D01*
X760811Y601593D01*
X1119967Y544697D02*
G01*
X1108537Y567557D01*
X1085677Y590163D01*
X1063071Y601593D01*
X1017605Y601593D01*
X994745Y590163D01*
X972139Y567557D01*
X960709Y544697D01*
X949533Y510661D01*
X949533Y453765D01*
X960709Y419729D01*
X972139Y396869D01*
X994745Y374263D01*
X1017605Y362833D01*
X1063071Y362833D01*
X1085677Y374263D01*
X1108537Y396869D01*
X1119967Y419729D01*
D10*
X215889Y2444264D02*
G01*
X252211Y2348760D01*
X288533Y2444264D02*
G01*
X252211Y2348760D01*
X318505Y2444264D02*
G01*
X318505Y2348760D01*
X318505Y2444264D02*
G01*
X350509Y2444264D01*
X363971Y2439692D01*
X373115Y2430802D01*
X377687Y2421658D01*
X382259Y2407942D01*
X382259Y2385336D01*
X377687Y2371620D01*
X373115Y2362476D01*
X363971Y2353332D01*
X350509Y2348760D01*
X318505Y2348760D01*
X412231Y2444264D02*
G01*
X412231Y2348760D01*
X412231Y2444264D02*
G01*
X443981Y2444264D01*
X457697Y2439692D01*
X466841Y2430802D01*
X471413Y2421658D01*
X475985Y2407942D01*
X475985Y2385336D01*
X471413Y2371620D01*
X466841Y2362476D01*
X457697Y2353332D01*
X443981Y2348760D01*
X412231Y2348760D01*
X280517Y2627764D02*
G01*
X276199Y2636908D01*
X267055Y2645798D01*
X257911Y2650370D01*
X239623Y2650370D01*
X230733Y2645798D01*
X221589Y2636908D01*
X217017Y2627764D01*
X212445Y2614048D01*
X212445Y2591442D01*
X217017Y2577726D01*
X221589Y2568582D01*
X230733Y2559438D01*
X239623Y2554866D01*
X257911Y2554866D01*
X267055Y2559438D01*
X276199Y2568582D01*
X280517Y2577726D01*
X280517Y2591442D01*
X257911Y2591442D02*
G01*
X280517Y2591442D01*
X310743Y2650370D02*
G01*
X310743Y2554866D01*
X310743Y2650370D02*
G01*
X374243Y2554866D01*
X374243Y2650370D02*
G01*
X374243Y2554866D01*
X404215Y2650370D02*
G01*
X404215Y2554866D01*
X404215Y2650370D02*
G01*
X435965Y2650370D01*
X449681Y2645798D01*
X458825Y2636908D01*
X463397Y2627764D01*
X467969Y2614048D01*
X467969Y2591442D01*
X463397Y2577726D01*
X458825Y2568582D01*
X449681Y2559438D01*
X435965Y2554866D01*
X404215Y2554866D01*
X412739Y2952264D02*
G01*
X412739Y2856760D01*
X390245Y3259970D02*
G01*
X390245Y3164466D01*
X390245Y3259970D02*
G01*
X431139Y3259970D01*
X444855Y3255398D01*
X449427Y3250826D01*
X453999Y3241936D01*
X453999Y3232792D01*
X449427Y3223648D01*
X444855Y3219076D01*
X431139Y3214504D01*
X390245Y3214504D02*
G01*
X431139Y3214504D01*
X444855Y3209932D01*
X449427Y3205614D01*
X453999Y3196470D01*
X453999Y3182754D01*
X449427Y3173610D01*
X444855Y3169038D01*
X431139Y3164466D01*
X390245Y3164466D01*
X426567Y3564770D02*
G01*
X390245Y3469266D01*
X426567Y3564770D02*
G01*
X462889Y3469266D01*
X403961Y3501270D02*
G01*
X449427Y3501270D01*
X-1805068Y2272804D02*
G01*
X-1841644Y2177300D01*
X-1805068Y2272804D02*
G01*
X-1768746Y2177300D01*
X-1827928Y2209304D02*
G01*
X-1782462Y2209304D01*
X-1738774Y2272804D02*
G01*
X-1738774Y2177300D01*
X-1738774Y2177300D02*
G01*
X-1684164Y2177300D01*
X-1836836Y2679316D02*
G01*
X-1873158Y2583812D01*
X-1836836Y2679316D02*
G01*
X-1800514Y2583812D01*
X-1859696Y2615562D02*
G01*
X-1814230Y2615562D01*
X-1770542Y2679316D02*
G01*
X-1770542Y2583812D01*
X-1706788Y2679316D02*
G01*
X-1706788Y2583812D01*
X-1770542Y2633850D02*
G01*
X-1706788Y2633850D01*
X-1835058Y1853816D02*
G01*
X-1835058Y1758312D01*
X-1835058Y1853816D02*
G01*
X-1794164Y1853816D01*
X-1780702Y1849244D01*
X-1776130Y1844672D01*
X-1771558Y1835528D01*
X-1771558Y1826384D01*
X-1776130Y1817494D01*
X-1780702Y1812922D01*
X-1794164Y1808350D01*
X-1835058Y1808350D02*
G01*
X-1794164Y1808350D01*
X-1780702Y1803778D01*
X-1776130Y1799206D01*
X-1771558Y1790062D01*
X-1771558Y1776600D01*
X-1776130Y1767456D01*
X-1780702Y1762884D01*
X-1794164Y1758312D01*
X-1835058Y1758312D01*
X-1741586Y1853816D02*
G01*
X-1741586Y1758312D01*
X-1677832Y1853816D02*
G01*
X-1677832Y1758312D01*
X-1741586Y1808350D02*
G01*
X-1677832Y1808350D01*
X-1727108Y1333116D02*
G01*
X-1727108Y1237612D01*
X-1727108Y1333116D02*
G01*
X-1686214Y1333116D01*
X-1672752Y1328544D01*
X-1668180Y1323972D01*
X-1663608Y1314828D01*
X-1663608Y1305684D01*
X-1668180Y1296794D01*
X-1672752Y1292222D01*
X-1686214Y1287650D01*
X-1727108Y1287650D02*
G01*
X-1686214Y1287650D01*
X-1672752Y1283078D01*
X-1668180Y1278506D01*
X-1663608Y1269362D01*
X-1663608Y1255900D01*
X-1668180Y1246756D01*
X-1672752Y1242184D01*
X-1686214Y1237612D01*
X-1727108Y1237612D01*
X-1633636Y1333116D02*
G01*
X-1633636Y1237612D01*
X-1633636Y1237612D02*
G01*
X-1579026Y1237612D01*
X-1741586Y1024506D02*
G01*
X-1746158Y1033650D01*
X-1755302Y1042794D01*
X-1764192Y1047366D01*
X-1782480Y1047366D01*
X-1791624Y1042794D01*
X-1800768Y1033650D01*
X-1805340Y1024506D01*
X-1809658Y1011044D01*
X-1809658Y988184D01*
X-1805340Y974722D01*
X-1800768Y965578D01*
X-1791624Y956434D01*
X-1782480Y951862D01*
X-1764192Y951862D01*
X-1755302Y956434D01*
X-1746158Y965578D01*
X-1741586Y974722D01*
X-1711614Y1047366D02*
G01*
X-1711614Y951862D01*
X-1647860Y1047366D02*
G01*
X-1647860Y951862D01*
X-1711614Y1001900D02*
G01*
X-1647860Y1001900D01*
X-1735236Y656206D02*
G01*
X-1739808Y665350D01*
X-1748952Y674494D01*
X-1757842Y679066D01*
X-1776130Y679066D01*
X-1785274Y674494D01*
X-1794418Y665350D01*
X-1798990Y656206D01*
X-1803308Y642744D01*
X-1803308Y619884D01*
X-1798990Y606422D01*
X-1794418Y597278D01*
X-1785274Y588134D01*
X-1776130Y583562D01*
X-1757842Y583562D01*
X-1748952Y588134D01*
X-1739808Y597278D01*
X-1735236Y606422D01*
X-1705264Y679066D02*
G01*
X-1705264Y583562D01*
X-1705264Y583562D02*
G01*
X-1650654Y583562D01*
D13*
X-2762260Y-179783D02*
G01*
X-2762260Y-245061D01*
X-2794772Y-212295D02*
G01*
X-2729494Y-212295D01*
D10*
X693867Y3638816D02*
G01*
X770321Y3638816D01*
X693867Y3638816D02*
G01*
X693867Y3671582D01*
X697677Y3682504D01*
X701233Y3686060D01*
X708599Y3689616D01*
X715711Y3689616D01*
X723077Y3686060D01*
X726633Y3682504D01*
X730443Y3671582D01*
X730443Y3638816D01*
X730443Y3664216D02*
G01*
X770321Y3689616D01*
X693867Y3713746D02*
G01*
X770321Y3764546D01*
X693867Y3764546D02*
G01*
X770321Y3713746D01*
X439854Y3664280D02*
G01*
X516308Y3664280D01*
X439854Y3638880D02*
G01*
X439854Y3689680D01*
X439854Y3713810D02*
G01*
X516308Y3764610D01*
X439854Y3764610D02*
G01*
X516308Y3713810D01*
X-2318697Y3787246D02*
G01*
X-2318697Y3711046D01*
X-2318697Y3787246D02*
G01*
X-2289487Y3711046D01*
X-2260531Y3787246D02*
G01*
X-2289487Y3711046D01*
X-2260531Y3787246D02*
G01*
X-2260531Y3711046D01*
X-2214557Y3787246D02*
G01*
X-2221923Y3783690D01*
X-2229289Y3776324D01*
X-2232845Y3769212D01*
X-2236401Y3758290D01*
X-2236401Y3740002D01*
X-2232845Y3729080D01*
X-2229289Y3721968D01*
X-2221923Y3714602D01*
X-2214557Y3711046D01*
X-2200079Y3711046D01*
X-2192713Y3714602D01*
X-2185601Y3721968D01*
X-2181791Y3729080D01*
X-2178235Y3740002D01*
X-2178235Y3758290D01*
X-2181791Y3769212D01*
X-2185601Y3776324D01*
X-2192713Y3783690D01*
X-2200079Y3787246D01*
X-2214557Y3787246D01*
X-2103305Y3776324D02*
G01*
X-2110671Y3783690D01*
X-2121593Y3787246D01*
X-2136071Y3787246D01*
X-2146993Y3783690D01*
X-2154359Y3776324D01*
X-2154359Y3769212D01*
X-2150549Y3761846D01*
X-2146993Y3758290D01*
X-2139627Y3754480D01*
X-2117783Y3747368D01*
X-2110671Y3743812D01*
X-2107115Y3740002D01*
X-2103305Y3732890D01*
X-2103305Y3721968D01*
X-2110671Y3714602D01*
X-2121593Y3711046D01*
X-2136071Y3711046D01*
X-2146993Y3714602D01*
X-2154359Y3721968D01*
X-2079429Y3787246D02*
G01*
X-2079429Y3711046D01*
X-2610581Y3630333D02*
G01*
X-2556697Y3576452D01*
X-2610581Y3630333D02*
G01*
X-2536223Y3596927D01*
X-2569451Y3671460D02*
G01*
X-2536223Y3596927D01*
X-2569451Y3671460D02*
G01*
X-2515572Y3617582D01*
X-2552567Y3688346D02*
G01*
X-2498686Y3634463D01*
X-2491861Y3733604D02*
G01*
X-2502278Y3733606D01*
X-2512336Y3728575D01*
X-2522753Y3718161D01*
X-2527962Y3707922D01*
X-2527782Y3697683D01*
X-2522753Y3692657D01*
X-2515029Y3689962D01*
X-2510002Y3689962D01*
X-2502098Y3692476D01*
X-2481625Y3702893D01*
X-2473901Y3705227D01*
X-2468692Y3705407D01*
X-2461150Y3702893D01*
X-2453429Y3695171D01*
X-2453426Y3684752D01*
X-2458458Y3674696D01*
X-2468872Y3664277D01*
X-2479108Y3659070D01*
X-2489347Y3659248D01*
X-2467076Y3773838D02*
G01*
X-2469771Y3766113D01*
X-2469769Y3755699D01*
X-2467254Y3748156D01*
X-2462047Y3737914D01*
X-2449118Y3724986D01*
X-2438877Y3719776D01*
X-2431333Y3717262D01*
X-2420917Y3717262D01*
X-2413195Y3719956D01*
X-2402956Y3730193D01*
X-2400442Y3737737D01*
X-2400442Y3748153D01*
X-2402956Y3755697D01*
X-2407986Y3766113D01*
X-2420917Y3779045D01*
X-2431336Y3784074D01*
X-2438877Y3786588D01*
X-2449296Y3786588D01*
X-2456837Y3784074D01*
X-2467076Y3773838D01*
X-2743967Y3623998D02*
G01*
X-2751333Y3616886D01*
X-2754891Y3605964D01*
X-2754889Y3591486D01*
X-2751333Y3580566D01*
X-2743967Y3573198D01*
X-2736855Y3573198D01*
X-2729489Y3576756D01*
X-2725933Y3580564D01*
X-2722123Y3587678D01*
X-2715011Y3609522D01*
X-2711457Y3616886D01*
X-2707645Y3620442D01*
X-2700533Y3623998D01*
X-2689611Y3623998D01*
X-2682245Y3616886D01*
X-2678686Y3605964D01*
X-2678689Y3591486D01*
X-2682245Y3580564D01*
X-2689611Y3573198D01*
X-2736855Y3702740D02*
G01*
X-2743967Y3698928D01*
X-2751333Y3691816D01*
X-2754889Y3684450D01*
X-2754891Y3669972D01*
X-2751333Y3662606D01*
X-2743969Y3655494D01*
X-2736855Y3651686D01*
X-2725935Y3648128D01*
X-2707645Y3648128D01*
X-2696723Y3651686D01*
X-2689608Y3655494D01*
X-2682245Y3662606D01*
X-2678686Y3669972D01*
X-2678689Y3684450D01*
X-2682245Y3691818D01*
X-2689611Y3698928D01*
X-2696723Y3702740D01*
X-2754889Y3726614D02*
G01*
X-2678689Y3726614D01*
X-2754889Y3777670D02*
G01*
X-2704089Y3726614D01*
X-2722123Y3744904D02*
G01*
X-2678689Y3777670D01*
X-3778940Y4170103D02*
G01*
X-3786306Y4177469D01*
X-3797228Y4181025D01*
X-3811706Y4181025D01*
X-3822628Y4177469D01*
X-3829994Y4170103D01*
X-3829994Y4162737D01*
X-3826184Y4155625D01*
X-3822628Y4151815D01*
X-3815262Y4148259D01*
X-3793672Y4140893D01*
X-3786306Y4137337D01*
X-3782750Y4133781D01*
X-3778940Y4126415D01*
X-3778940Y4115493D01*
X-3786306Y4108381D01*
X-3797228Y4104571D01*
X-3811706Y4104571D01*
X-3822628Y4108381D01*
X-3829994Y4115493D01*
X-3700454Y4162737D02*
G01*
X-3704010Y4170103D01*
X-3711376Y4177469D01*
X-3718742Y4181025D01*
X-3733220Y4181025D01*
X-3740586Y4177469D01*
X-3747698Y4170103D01*
X-3751254Y4162737D01*
X-3755064Y4151815D01*
X-3755064Y4133781D01*
X-3751254Y4122859D01*
X-3747698Y4115493D01*
X-3740586Y4108381D01*
X-3733220Y4104571D01*
X-3718742Y4104571D01*
X-3711376Y4108381D01*
X-3704010Y4115493D01*
X-3700454Y4122859D01*
X-3676578Y4181025D02*
G01*
X-3676578Y4104571D01*
X-3676578Y4104571D02*
G01*
X-3632890Y4104571D01*
X-3518646Y4163684D02*
G01*
X-3526012Y4171050D01*
X-3536934Y4174606D01*
X-3551412Y4174606D01*
X-3562334Y4171050D01*
X-3569700Y4163684D01*
X-3569700Y4156572D01*
X-3565890Y4149206D01*
X-3562334Y4145650D01*
X-3554968Y4141840D01*
X-3533124Y4134728D01*
X-3526012Y4130918D01*
X-3522202Y4127362D01*
X-3518646Y4119996D01*
X-3518646Y4109328D01*
X-3526012Y4101962D01*
X-3536934Y4098406D01*
X-3551412Y4098406D01*
X-3562334Y4101962D01*
X-3569700Y4109328D01*
X-3494770Y4174606D02*
G01*
X-3494770Y4098406D01*
X-3494770Y4174606D02*
G01*
X-3469116Y4174606D01*
X-3458194Y4171050D01*
X-3451082Y4163684D01*
X-3447526Y4156572D01*
X-3443716Y4145650D01*
X-3443716Y4127362D01*
X-3447526Y4116440D01*
X-3451082Y4109328D01*
X-3458194Y4101962D01*
X-3469116Y4098406D01*
X-3494770Y4098406D01*
X-3390630Y4174606D02*
G01*
X-3419840Y4098406D01*
X-3390630Y4174606D02*
G01*
X-3361674Y4098406D01*
X-3408918Y4123806D02*
G01*
X-3372596Y4123806D01*
X-519940Y2595468D02*
G01*
X-529031Y2586377D01*
X-533577Y2572740D01*
X-533577Y2554559D01*
X-529031Y2540922D01*
X-519940Y2531831D01*
X-510849Y2531831D01*
X-501759Y2536377D01*
X-497215Y2540922D01*
X-492668Y2550012D01*
X-483577Y2577284D01*
X-479031Y2586377D01*
X-474487Y2590921D01*
X-465396Y2595468D01*
X-451759Y2595468D01*
X-442668Y2586377D01*
X-438122Y2572740D01*
X-438122Y2554559D01*
X-442668Y2540922D01*
X-451759Y2531831D01*
X-501759Y2648193D02*
G01*
X-497215Y2639103D01*
X-488124Y2630012D01*
X-474487Y2625468D01*
X-465396Y2625468D01*
X-451759Y2630012D01*
X-442668Y2639103D01*
X-438122Y2648193D01*
X-438122Y2661831D01*
X-442668Y2670921D01*
X-451759Y2680012D01*
X-465396Y2684559D01*
X-474487Y2684559D01*
X-488124Y2680012D01*
X-497215Y2670921D01*
X-501759Y2661831D01*
X-501759Y2648193D01*
X-533577Y2714558D02*
G01*
X-438122Y2714558D01*
X-533577Y2799105D02*
G01*
X-438122Y2799105D01*
X-488124Y2799105D02*
G01*
X-497215Y2790012D01*
X-501759Y2780921D01*
X-501759Y2767286D01*
X-497215Y2758196D01*
X-488124Y2749102D01*
X-474487Y2744558D01*
X-465396Y2744558D01*
X-451759Y2749102D01*
X-442668Y2758196D01*
X-438122Y2767286D01*
X-438122Y2780921D01*
X-442668Y2790012D01*
X-451759Y2799105D01*
X-474487Y2829105D02*
G01*
X-474487Y2883649D01*
X-483577Y2883649D01*
X-492668Y2879105D01*
X-497215Y2874558D01*
X-501759Y2865467D01*
X-501759Y2851830D01*
X-497215Y2842740D01*
X-488124Y2833649D01*
X-474487Y2829105D01*
X-465396Y2829105D01*
X-451759Y2833649D01*
X-442668Y2842740D01*
X-438122Y2851830D01*
X-438122Y2865467D01*
X-442668Y2874558D01*
X-451759Y2883649D01*
X-501759Y2913649D02*
G01*
X-438122Y2913649D01*
X-474487Y2913649D02*
G01*
X-488124Y2918195D01*
X-497215Y2927286D01*
X-501759Y2936377D01*
X-501759Y2950014D01*
X-533577Y3063648D02*
G01*
X-456305Y3063648D01*
X-442668Y3068195D01*
X-438122Y3077286D01*
X-438122Y3086376D01*
X-501759Y3050014D02*
G01*
X-501759Y3081832D01*
X-501759Y3139104D02*
G01*
X-497215Y3130014D01*
X-488124Y3120923D01*
X-474487Y3116376D01*
X-465396Y3116376D01*
X-451759Y3120923D01*
X-442668Y3130014D01*
X-438122Y3139104D01*
X-438122Y3152741D01*
X-442668Y3161832D01*
X-451759Y3170923D01*
X-465396Y3175467D01*
X-474487Y3175467D01*
X-488124Y3170923D01*
X-497215Y3161832D01*
X-501759Y3152741D01*
X-501759Y3139104D01*
X-272887Y2531831D02*
G01*
X-272887Y2586377D01*
X-281978Y2586377D01*
X-291068Y2581831D01*
X-295615Y2577284D01*
X-300159Y2568194D01*
X-300159Y2554559D01*
X-295615Y2545468D01*
X-286522Y2536377D01*
X-272887Y2531831D01*
X-263796Y2531831D01*
X-250159Y2536377D01*
X-241068Y2545468D01*
X-236522Y2554559D01*
X-236522Y2568194D01*
X-241068Y2577284D01*
X-250159Y2586377D01*
X-300159Y2616377D02*
G01*
X-236522Y2616377D01*
X-281978Y2616377D02*
G01*
X-295615Y2630012D01*
X-300159Y2639103D01*
X-300159Y2652740D01*
X-295615Y2661831D01*
X-281978Y2666377D01*
X-236522Y2666377D01*
X-300159Y2750921D02*
G01*
X-236522Y2750921D01*
X-286522Y2750921D02*
G01*
X-295615Y2741830D01*
X-300159Y2732740D01*
X-300159Y2719103D01*
X-295615Y2710012D01*
X-286522Y2700921D01*
X-272887Y2696377D01*
X-263796Y2696377D01*
X-250159Y2700921D01*
X-241068Y2710012D01*
X-236522Y2719103D01*
X-236522Y2732740D01*
X-241068Y2741830D01*
X-250159Y2750921D01*
X-331978Y2780921D02*
G01*
X-236522Y2780921D01*
X-286522Y2780921D02*
G01*
X-295615Y2790012D01*
X-300159Y2799105D01*
X-300159Y2812740D01*
X-295615Y2821830D01*
X-286522Y2830921D01*
X-272887Y2835468D01*
X-263796Y2835468D01*
X-250159Y2830921D01*
X-241068Y2821830D01*
X-236522Y2812740D01*
X-236522Y2799105D01*
X-241068Y2790012D01*
X-250159Y2780921D01*
X-331978Y2865467D02*
G01*
X-236522Y2865467D01*
X-272887Y2895467D02*
G01*
X-272887Y2950014D01*
X-281978Y2950014D01*
X-291068Y2945467D01*
X-295615Y2940921D01*
X-300159Y2931830D01*
X-300159Y2918195D01*
X-295615Y2909105D01*
X-286522Y2900014D01*
X-272887Y2895467D01*
X-263796Y2895467D01*
X-250159Y2900014D01*
X-241068Y2909105D01*
X-236522Y2918195D01*
X-236522Y2931830D01*
X-241068Y2940921D01*
X-250159Y2950014D01*
X-300159Y3050014D02*
G01*
X-204706Y3050014D01*
X-286522Y3050014D02*
G01*
X-295615Y3059104D01*
X-300159Y3068195D01*
X-300159Y3081832D01*
X-295615Y3090923D01*
X-286522Y3100014D01*
X-272887Y3104558D01*
X-263796Y3104558D01*
X-250159Y3100014D01*
X-241068Y3090923D01*
X-236522Y3081832D01*
X-236522Y3068195D01*
X-241068Y3059104D01*
X-250159Y3050014D01*
X-300159Y3134558D02*
G01*
X-254706Y3134558D01*
X-241068Y3139104D01*
X-236522Y3148195D01*
X-236522Y3161832D01*
X-241068Y3170923D01*
X-254706Y3184558D01*
X-300159Y3184558D02*
G01*
X-236522Y3184558D01*
X-331978Y3214557D02*
G01*
X-236522Y3214557D01*
X-331978Y3244557D02*
G01*
X-236522Y3244557D01*
X-300159Y3274557D02*
G01*
X-254706Y3274557D01*
X-241068Y3279104D01*
X-236522Y3288195D01*
X-236522Y3301832D01*
X-241068Y3310923D01*
X-254706Y3324560D01*
X-300159Y3324560D02*
G01*
X-236522Y3324560D01*
X-300159Y3354560D02*
G01*
X-204706Y3354560D01*
X-286522Y3354560D02*
G01*
X-295615Y3363650D01*
X-300159Y3372741D01*
X-300159Y3386376D01*
X-295615Y3395466D01*
X-286522Y3404560D01*
X-272887Y3409104D01*
X-263796Y3409104D01*
X-250159Y3404560D01*
X-241068Y3395466D01*
X-236522Y3386376D01*
X-236522Y3372741D01*
X-241068Y3363650D01*
X-250159Y3354560D01*
X-286522Y3489104D02*
G01*
X-295615Y3484559D01*
X-300159Y3470922D01*
X-300159Y3457285D01*
X-295615Y3443650D01*
X-286522Y3439104D01*
X-277431Y3443650D01*
X-272887Y3452741D01*
X-268340Y3475469D01*
X-263796Y3484559D01*
X-254706Y3489104D01*
X-250159Y3489104D01*
X-241068Y3484559D01*
X-236522Y3470922D01*
X-236522Y3457285D01*
X-241068Y3443650D01*
X-250159Y3439104D01*
X-3257321Y-945735D02*
G01*
X-3250463Y-966055D01*
X-3237001Y-972913D01*
X-3223285Y-972913D01*
X-3209569Y-966055D01*
X-3202711Y-952339D01*
X-3196107Y-925161D01*
X-3189249Y-904841D01*
X-3175533Y-891125D01*
X-3161817Y-884267D01*
X-3141497Y-884267D01*
X-3127781Y-891125D01*
X-3120923Y-897983D01*
X-3114319Y-918303D01*
X-3114319Y-945735D01*
X-3120923Y-966055D01*
X-3127781Y-972913D01*
X-3141497Y-979771D01*
X-3161817Y-979771D01*
X-3175533Y-972913D01*
X-3189249Y-959197D01*
X-3196107Y-938877D01*
X-3202711Y-911445D01*
X-3209569Y-897983D01*
X-3223285Y-891125D01*
X-3237001Y-891125D01*
X-3250463Y-897983D01*
X-3257321Y-918303D01*
X-3257321Y-945735D01*
X-3175533Y-839309D02*
G01*
X-3175533Y-716627D01*
X-3257321Y-657953D02*
G01*
X-3257321Y-583023D01*
X-3202711Y-623917D01*
X-3202711Y-603343D01*
X-3196107Y-589627D01*
X-3189249Y-583023D01*
X-3168675Y-576165D01*
X-3155213Y-576165D01*
X-3134639Y-583023D01*
X-3120923Y-596485D01*
X-3114319Y-617059D01*
X-3114319Y-637379D01*
X-3120923Y-657953D01*
X-3127781Y-664811D01*
X-3141497Y-671415D01*
X-3257321Y-490059D02*
G01*
X-3250463Y-510633D01*
X-3230143Y-524349D01*
X-3196107Y-531207D01*
X-3175533Y-531207D01*
X-3141497Y-524349D01*
X-3120923Y-510633D01*
X-3114319Y-490059D01*
X-3114319Y-476597D01*
X-3120923Y-456023D01*
X-3141497Y-442561D01*
X-3175533Y-435703D01*
X-3196107Y-435703D01*
X-3230143Y-442561D01*
X-3250463Y-456023D01*
X-3257321Y-476597D01*
X-3257321Y-490059D01*
X-3257321Y-390745D02*
G01*
X-3114319Y-336135D01*
X-3257321Y-281525D02*
G01*
X-3114319Y-336135D01*
X-4014114Y-39489D02*
G01*
X-3970426Y-154043D01*
X-3926738Y-39489D02*
G01*
X-3970426Y-154043D01*
X-3808882Y-66667D02*
G01*
X-3814470Y-55745D01*
X-3825392Y-44823D01*
X-3836314Y-39489D01*
X-3858158Y-39489D01*
X-3869080Y-44823D01*
X-3880002Y-55745D01*
X-3885336Y-66667D01*
X-3890670Y-83177D01*
X-3890670Y-110355D01*
X-3885336Y-126865D01*
X-3880002Y-137787D01*
X-3869080Y-148455D01*
X-3858158Y-154043D01*
X-3836314Y-154043D01*
X-3825392Y-148455D01*
X-3814470Y-137787D01*
X-3808882Y-126865D01*
X-3691280Y-66667D02*
G01*
X-3696614Y-55745D01*
X-3707536Y-44823D01*
X-3718458Y-39489D01*
X-3740302Y-39489D01*
X-3751224Y-44823D01*
X-3762146Y-55745D01*
X-3767480Y-66667D01*
X-3773068Y-83177D01*
X-3773068Y-110355D01*
X-3767480Y-126865D01*
X-3762146Y-137787D01*
X-3751224Y-148455D01*
X-3740302Y-154043D01*
X-3718458Y-154043D01*
X-3707536Y-148455D01*
X-3696614Y-137787D01*
X-3691280Y-126865D01*
X-3522116Y-55745D02*
G01*
X-3522116Y-154043D01*
X-3571138Y-105021D02*
G01*
X-3473094Y-105021D01*
X-3919626Y-415917D02*
G01*
X-3924960Y-404995D01*
X-3935882Y-394073D01*
X-3946804Y-388739D01*
X-3968648Y-388739D01*
X-3979570Y-394073D01*
X-3990492Y-404995D01*
X-3995826Y-415917D01*
X-4001414Y-432427D01*
X-4001414Y-459605D01*
X-3995826Y-476115D01*
X-3990492Y-487037D01*
X-3979570Y-497705D01*
X-3968648Y-503293D01*
X-3946804Y-503293D01*
X-3935882Y-497705D01*
X-3924960Y-487037D01*
X-3919626Y-476115D01*
X-3919626Y-459605D01*
X-3946804Y-459605D02*
G01*
X-3919626Y-459605D01*
X-3883558Y-388739D02*
G01*
X-3883558Y-503293D01*
X-3883558Y-388739D02*
G01*
X-3807104Y-503293D01*
X-3807104Y-388739D02*
G01*
X-3807104Y-503293D01*
X-3771290Y-388739D02*
G01*
X-3771290Y-503293D01*
X-3771290Y-388739D02*
G01*
X-3732936Y-388739D01*
X-3716680Y-394073D01*
X-3705758Y-404995D01*
X-3700170Y-415917D01*
X-3694836Y-432427D01*
X-3694836Y-459605D01*
X-3700170Y-476115D01*
X-3705758Y-487037D01*
X-3716680Y-497705D01*
X-3732936Y-503293D01*
X-3771290Y-503293D01*
X-3574694Y-454271D02*
G01*
X-3476650Y-454271D01*
X-3479500Y-967102D02*
G01*
X-3336498Y-967102D01*
X-3431748Y-921890D02*
G01*
X-3336498Y-921890D01*
X-3404570Y-921890D02*
G01*
X-3425144Y-901570D01*
X-3431748Y-887854D01*
X-3431748Y-867534D01*
X-3425144Y-853818D01*
X-3404570Y-846960D01*
X-3336498Y-846960D01*
X-3431748Y-802002D02*
G01*
X-3288746Y-802002D01*
X-3411428Y-802002D02*
G01*
X-3425144Y-788286D01*
X-3431748Y-774824D01*
X-3431748Y-754250D01*
X-3425144Y-740534D01*
X-3411428Y-727072D01*
X-3390854Y-720214D01*
X-3377392Y-720214D01*
X-3356818Y-727072D01*
X-3343356Y-740534D01*
X-3336498Y-754250D01*
X-3336498Y-774824D01*
X-3343356Y-788286D01*
X-3356818Y-802002D01*
X-3431748Y-675256D02*
G01*
X-3363676Y-675256D01*
X-3343356Y-668398D01*
X-3336498Y-654682D01*
X-3336498Y-634362D01*
X-3343356Y-620646D01*
X-3363676Y-600072D01*
X-3431748Y-600072D02*
G01*
X-3336498Y-600072D01*
X-3479500Y-534794D02*
G01*
X-3363676Y-534794D01*
X-3343356Y-527936D01*
X-3336498Y-514220D01*
X-3336498Y-500758D01*
X-3431748Y-555114D02*
G01*
X-3431748Y-507362D01*
D13*
X-114310Y2099866D02*
G01*
X-114310Y2034588D01*
X-146822Y2067354D02*
G01*
X-81544Y2067354D01*
D10*
X-2750464Y-498975D02*
G01*
X-2750464Y-575429D01*
X-2750464Y-498975D02*
G01*
X-2717698Y-498975D01*
X-2706776Y-502531D01*
X-2703220Y-506341D01*
X-2699410Y-513453D01*
X-2699410Y-524375D01*
X-2703220Y-531741D01*
X-2706776Y-535297D01*
X-2717698Y-538853D01*
X-2750464Y-538853D01*
X-2675534Y-498975D02*
G01*
X-2657246Y-575429D01*
X-2639212Y-498975D02*
G01*
X-2657246Y-575429D01*
X-2639212Y-498975D02*
G01*
X-2620924Y-575429D01*
X-2602890Y-498975D02*
G01*
X-2620924Y-575429D01*
X-2578760Y-498975D02*
G01*
X-2578760Y-575429D01*
X-2578760Y-498975D02*
G01*
X-2545994Y-498975D01*
X-2535072Y-502531D01*
X-2531516Y-506341D01*
X-2527960Y-513453D01*
X-2527960Y-520819D01*
X-2531516Y-527931D01*
X-2535072Y-531741D01*
X-2545994Y-535297D01*
X-2578760Y-535297D01*
X-2553360Y-535297D02*
G01*
X-2527960Y-575429D01*
D14*
X-3729708Y3241984D02*
G01*
X-3729708Y3250966D01*
X-3734376Y3259945D01*
X-3743358Y3268926D01*
X-3752339Y3273595D01*
X-3761318Y3273595D01*
X-3765809Y3269104D01*
X-3767963Y3262279D01*
X-3768143Y3257791D01*
X-3765809Y3251144D01*
X-3756827Y3233183D01*
X-3754493Y3226181D01*
X-3754493Y3221870D01*
X-3756827Y3214865D01*
X-3763474Y3208220D01*
X-3772453Y3208220D01*
X-3781612Y3212708D01*
X-3790594Y3221690D01*
X-3795085Y3230849D01*
X-3795085Y3239830D01*
X-3685705Y3189000D02*
G01*
X-3683370Y3195647D01*
X-3683370Y3204626D01*
X-3685705Y3211273D01*
X-3694864Y3220432D01*
X-3701508Y3222767D01*
X-3710490Y3222767D01*
X-3717135Y3220432D01*
X-3726294Y3215942D01*
X-3737432Y3204806D01*
X-3741920Y3195647D01*
X-3744257Y3189000D01*
X-3744257Y3180021D01*
X-3742100Y3173196D01*
X-3732941Y3164037D01*
X-3726116Y3161880D01*
X-3717135Y3161880D01*
X-3710490Y3164215D01*
X-3659662Y3185231D02*
G01*
X-3706898Y3137994D01*
X-3706898Y3137994D02*
G01*
X-3679957Y3111052D01*
X-3717008Y3388034D02*
G01*
X-3717008Y3397016D01*
X-3721676Y3405995D01*
X-3730658Y3414976D01*
X-3739639Y3419645D01*
X-3748618Y3419645D01*
X-3753109Y3415154D01*
X-3755263Y3408329D01*
X-3755443Y3403841D01*
X-3753109Y3397194D01*
X-3744127Y3379233D01*
X-3741793Y3372231D01*
X-3741793Y3367920D01*
X-3744127Y3360915D01*
X-3750774Y3354270D01*
X-3759753Y3354270D01*
X-3768912Y3358758D01*
X-3777894Y3367740D01*
X-3782385Y3376899D01*
X-3782385Y3385880D01*
X-3695633Y3379952D02*
G01*
X-3742870Y3332716D01*
X-3695633Y3379952D02*
G01*
X-3679830Y3364148D01*
X-3675159Y3355167D01*
X-3675159Y3346188D01*
X-3677495Y3339541D01*
X-3681984Y3330381D01*
X-3693119Y3319246D01*
X-3702281Y3314755D01*
X-3708925Y3312421D01*
X-3717907Y3312421D01*
X-3727066Y3316912D01*
X-3742870Y3332716D01*
X-3631156Y3315474D02*
G01*
X-3696533Y3286379D01*
X-3631156Y3315474D02*
G01*
X-3660432Y3250277D01*
X-3673901Y3295357D02*
G01*
X-3651453Y3272909D01*
X-3779164Y3535812D02*
G01*
X-3753766Y3469012D01*
X-3728110Y3535814D02*
G01*
X-3753766Y3469012D01*
X-3707282Y3535812D02*
G01*
X-3707282Y3469010D01*
X-3707282Y3535812D02*
G01*
X-3684930Y3535814D01*
X-3675278Y3532766D01*
X-3668928Y3526416D01*
X-3665880Y3520066D01*
X-3662578Y3510414D01*
X-3662578Y3494666D01*
X-3665880Y3485014D01*
X-3668928Y3478664D01*
X-3675278Y3472314D01*
X-3684930Y3469012D01*
X-3707282Y3469010D01*
X-3641750Y3535814D02*
G01*
X-3641750Y3469012D01*
X-3641750Y3535814D02*
G01*
X-3619398Y3535812D01*
X-3609746Y3532766D01*
X-3603396Y3526416D01*
X-3600348Y3520066D01*
X-3597046Y3510414D01*
X-3597046Y3494666D01*
X-3600348Y3485014D01*
X-3603396Y3478664D01*
X-3609746Y3472314D01*
X-3619400Y3469012D01*
X-3641750Y3469012D01*
X-3731412Y3647066D02*
G01*
X-3734460Y3653416D01*
X-3740810Y3659766D01*
X-3747414Y3662814D01*
X-3760114Y3662814D01*
X-3766464Y3659766D01*
X-3772811Y3653416D01*
X-3775862Y3647066D01*
X-3779164Y3637414D01*
X-3779164Y3621666D01*
X-3775862Y3612014D01*
X-3772814Y3605664D01*
X-3766464Y3599314D01*
X-3760114Y3596012D01*
X-3747414Y3596012D01*
X-3740810Y3599314D01*
X-3734462Y3605664D01*
X-3731412Y3612014D01*
X-3731412Y3621666D01*
X-3747414Y3621666D02*
G01*
X-3731412Y3621666D01*
X-3710330Y3662814D02*
G01*
X-3710330Y3596012D01*
X-3710330Y3662814D02*
G01*
X-3665880Y3596012D01*
X-3665880Y3662814D02*
G01*
X-3665880Y3596012D01*
X-3644798Y3662814D02*
G01*
X-3644798Y3596012D01*
X-3644798Y3662814D02*
G01*
X-3622446Y3662814D01*
X-3613048Y3659766D01*
X-3606700Y3653416D01*
X-3603396Y3647066D01*
X-3600348Y3637414D01*
X-3600348Y3621666D01*
X-3603396Y3612014D01*
X-3606698Y3605664D01*
X-3613048Y3599314D01*
X-3622446Y3596012D01*
X-3644798Y3596012D01*
D10*
X-4306257Y3083499D02*
G01*
X-4306257Y2988249D01*
X-4271713Y3060893D02*
G01*
X-4271713Y3065465D01*
X-4267141Y3074609D01*
X-4262569Y3078927D01*
X-4253425Y3083499D01*
X-4235137Y3083499D01*
X-4226247Y3078927D01*
X-4221675Y3074609D01*
X-4217103Y3065465D01*
X-4217103Y3056321D01*
X-4221675Y3047177D01*
X-4230819Y3033461D01*
X-4276285Y2988249D01*
X-4212531Y2988249D01*
X-4114233Y3060893D02*
G01*
X-4118805Y3070037D01*
X-4127949Y3078927D01*
X-4137093Y3083499D01*
X-4155127Y3083499D01*
X-4164271Y3078927D01*
X-4173415Y3070037D01*
X-4177987Y3060893D01*
X-4182559Y3047177D01*
X-4182559Y3024571D01*
X-4177987Y3010855D01*
X-4173415Y3001711D01*
X-4164271Y2992567D01*
X-4155127Y2988249D01*
X-4137093Y2988249D01*
X-4127949Y2992567D01*
X-4118805Y3001711D01*
X-4114233Y3010855D01*
X843836Y1685726D02*
G01*
X834692Y1694616D01*
X820976Y1699188D01*
X802942Y1699188D01*
X789226Y1694616D01*
X780082Y1685726D01*
X780082Y1676582D01*
X784654Y1667438D01*
X789226Y1662866D01*
X798370Y1658294D01*
X825548Y1649150D01*
X834692Y1644832D01*
X839264Y1640260D01*
X843836Y1631116D01*
X843836Y1617400D01*
X834692Y1608256D01*
X820976Y1603938D01*
X802942Y1603938D01*
X789226Y1608256D01*
X780082Y1617400D01*
X873808Y1699188D02*
G01*
X873808Y1603938D01*
X873808Y1699188D02*
G01*
X914702Y1699188D01*
X928418Y1694616D01*
X932990Y1690298D01*
X937562Y1681154D01*
X937562Y1667438D01*
X932990Y1658294D01*
X928418Y1653722D01*
X914702Y1649150D01*
X873808Y1649150D01*
X967534Y1699188D02*
G01*
X967534Y1603938D01*
X366034Y1536321D02*
G01*
X362478Y1543687D01*
X355112Y1551053D01*
X348000Y1554609D01*
X333268Y1554609D01*
X326156Y1551053D01*
X318790Y1543687D01*
X315234Y1536321D01*
X311424Y1525399D01*
X311424Y1507365D01*
X315234Y1496443D01*
X318790Y1489077D01*
X326156Y1481965D01*
X333268Y1478155D01*
X348000Y1478155D01*
X355112Y1481965D01*
X362478Y1489077D01*
X366034Y1496443D01*
X440964Y1543687D02*
G01*
X433598Y1551053D01*
X422676Y1554609D01*
X408198Y1554609D01*
X397276Y1551053D01*
X390164Y1543687D01*
X390164Y1536321D01*
X393720Y1529209D01*
X397276Y1525399D01*
X404642Y1521843D01*
X426486Y1514477D01*
X433598Y1510921D01*
X437408Y1507365D01*
X440964Y1499999D01*
X440964Y1489077D01*
X433598Y1481965D01*
X422676Y1478155D01*
X408198Y1478155D01*
X397276Y1481965D01*
X390164Y1489077D01*
X490494Y1569087D02*
G01*
X483128Y1561975D01*
X475762Y1551053D01*
X468650Y1536321D01*
X465094Y1518287D01*
X465094Y1503555D01*
X468650Y1485521D01*
X475762Y1471043D01*
X483128Y1460121D01*
X490494Y1452755D01*
X550692Y1554609D02*
G01*
X514370Y1503555D01*
X568980Y1503555D01*
X550692Y1554609D02*
G01*
X550692Y1478155D01*
X592856Y1569087D02*
G01*
X600222Y1561975D01*
X607588Y1551053D01*
X614700Y1536321D01*
X618510Y1518287D01*
X618510Y1503555D01*
X614700Y1485521D01*
X607588Y1471043D01*
X600222Y1460121D01*
X592856Y1452755D01*
X260878Y1416687D02*
G01*
X253512Y1424053D01*
X242590Y1427609D01*
X228112Y1427609D01*
X217190Y1424053D01*
X209824Y1416687D01*
X209824Y1409321D01*
X213634Y1402209D01*
X217190Y1398399D01*
X224556Y1394843D01*
X246400Y1387477D01*
X253512Y1383921D01*
X257068Y1380365D01*
X260878Y1372999D01*
X260878Y1362077D01*
X253512Y1354965D01*
X242590Y1351155D01*
X228112Y1351155D01*
X217190Y1354965D01*
X209824Y1362077D01*
X339364Y1409321D02*
G01*
X335808Y1416687D01*
X328442Y1424053D01*
X321076Y1427609D01*
X306598Y1427609D01*
X299486Y1424053D01*
X292120Y1416687D01*
X288564Y1409321D01*
X284754Y1398399D01*
X284754Y1380365D01*
X288564Y1369443D01*
X292120Y1362077D01*
X299486Y1354965D01*
X306598Y1351155D01*
X321076Y1351155D01*
X328442Y1354965D01*
X335808Y1362077D01*
X339364Y1369443D01*
X363494Y1427609D02*
G01*
X363494Y1351155D01*
X414294Y1427609D02*
G01*
X363494Y1376555D01*
X381528Y1394843D02*
G01*
X414294Y1351155D01*
X463824Y1442087D02*
G01*
X456458Y1434975D01*
X449092Y1424053D01*
X441980Y1409321D01*
X438170Y1391287D01*
X438170Y1376555D01*
X441980Y1358521D01*
X449092Y1344043D01*
X456458Y1333121D01*
X463824Y1325755D01*
X487700Y1413131D02*
G01*
X495066Y1416687D01*
X505988Y1427609D01*
X505988Y1351155D01*
X537230Y1427609D02*
G01*
X577108Y1427609D01*
X555264Y1398399D01*
X566186Y1398399D01*
X573552Y1394843D01*
X577108Y1391287D01*
X580918Y1380365D01*
X580918Y1372999D01*
X577108Y1362077D01*
X569996Y1354965D01*
X559074Y1351155D01*
X548152Y1351155D01*
X537230Y1354965D01*
X533674Y1358521D01*
X529864Y1365887D01*
X604794Y1442087D02*
G01*
X612160Y1434975D01*
X619272Y1424053D01*
X626638Y1409321D01*
X630194Y1391287D01*
X630194Y1376555D01*
X626638Y1358521D01*
X619272Y1344043D01*
X612160Y1333121D01*
X604794Y1325755D01*
X184424Y1300609D02*
G01*
X184424Y1224155D01*
X184424Y1300609D02*
G01*
X213634Y1224155D01*
X242590Y1300609D02*
G01*
X213634Y1224155D01*
X242590Y1300609D02*
G01*
X242590Y1224155D01*
X266720Y1300609D02*
G01*
X266720Y1224155D01*
X341650Y1289687D02*
G01*
X334284Y1297053D01*
X323362Y1300609D01*
X308884Y1300609D01*
X297962Y1297053D01*
X290596Y1289687D01*
X290596Y1282321D01*
X294406Y1275209D01*
X297962Y1271399D01*
X305328Y1267843D01*
X327172Y1260477D01*
X334284Y1256921D01*
X338094Y1253365D01*
X341650Y1245999D01*
X341650Y1235077D01*
X334284Y1227965D01*
X323362Y1224155D01*
X308884Y1224155D01*
X297962Y1227965D01*
X290596Y1235077D01*
X387370Y1300609D02*
G01*
X380258Y1297053D01*
X372892Y1289687D01*
X369336Y1282321D01*
X365526Y1271399D01*
X365526Y1253365D01*
X369336Y1242443D01*
X372892Y1235077D01*
X380258Y1227965D01*
X387370Y1224155D01*
X401848Y1224155D01*
X409214Y1227965D01*
X416580Y1235077D01*
X420136Y1242443D01*
X423692Y1253365D01*
X423692Y1271399D01*
X420136Y1282321D01*
X416580Y1289687D01*
X409214Y1297053D01*
X401848Y1300609D01*
X387370Y1300609D01*
X473222Y1315087D02*
G01*
X465856Y1307975D01*
X458744Y1297053D01*
X451378Y1282321D01*
X447822Y1264287D01*
X447822Y1249555D01*
X451378Y1231521D01*
X458744Y1217043D01*
X465856Y1206121D01*
X473222Y1198755D01*
X497352Y1286131D02*
G01*
X504464Y1289687D01*
X515386Y1300609D01*
X515386Y1224155D01*
X543072Y1282321D02*
G01*
X543072Y1286131D01*
X546628Y1293243D01*
X550438Y1297053D01*
X557550Y1300609D01*
X572028Y1300609D01*
X579394Y1297053D01*
X582950Y1293243D01*
X586760Y1286131D01*
X586760Y1278765D01*
X582950Y1271399D01*
X575838Y1260477D01*
X539516Y1224155D01*
X590316Y1224155D01*
X614446Y1315087D02*
G01*
X621558Y1307975D01*
X628924Y1297053D01*
X636036Y1282321D01*
X639846Y1264287D01*
X639846Y1249555D01*
X636036Y1231521D01*
X628924Y1217043D01*
X621558Y1206121D01*
X614446Y1198755D01*
X197124Y1173609D02*
G01*
X197124Y1097155D01*
X197124Y1173609D02*
G01*
X226334Y1097155D01*
X255290Y1173609D02*
G01*
X226334Y1097155D01*
X255290Y1173609D02*
G01*
X255290Y1097155D01*
X301264Y1173609D02*
G01*
X293898Y1170053D01*
X286786Y1162687D01*
X282976Y1155321D01*
X279420Y1144399D01*
X279420Y1126365D01*
X282976Y1115443D01*
X286786Y1108077D01*
X293898Y1100965D01*
X301264Y1097155D01*
X315742Y1097155D01*
X323108Y1100965D01*
X330220Y1108077D01*
X334030Y1115443D01*
X337586Y1126365D01*
X337586Y1144399D01*
X334030Y1155321D01*
X330220Y1162687D01*
X323108Y1170053D01*
X315742Y1173609D01*
X301264Y1173609D01*
X412516Y1162687D02*
G01*
X405150Y1170053D01*
X394228Y1173609D01*
X379750Y1173609D01*
X368828Y1170053D01*
X361462Y1162687D01*
X361462Y1155321D01*
X365272Y1148209D01*
X368828Y1144399D01*
X376194Y1140843D01*
X398038Y1133477D01*
X405150Y1129921D01*
X408960Y1126365D01*
X412516Y1118999D01*
X412516Y1108077D01*
X405150Y1100965D01*
X394228Y1097155D01*
X379750Y1097155D01*
X368828Y1100965D01*
X361462Y1108077D01*
X436392Y1173609D02*
G01*
X436392Y1097155D01*
X485922Y1188087D02*
G01*
X478556Y1180975D01*
X471444Y1170053D01*
X464078Y1155321D01*
X460522Y1137287D01*
X460522Y1122555D01*
X464078Y1104521D01*
X471444Y1090043D01*
X478556Y1079121D01*
X485922Y1071755D01*
X510052Y1159131D02*
G01*
X517164Y1162687D01*
X528086Y1173609D01*
X528086Y1097155D01*
X552216Y1159131D02*
G01*
X559328Y1162687D01*
X570250Y1173609D01*
X570250Y1097155D01*
X594380Y1188087D02*
G01*
X601492Y1180975D01*
X608858Y1170053D01*
X616224Y1155321D01*
X619780Y1137287D01*
X619780Y1122555D01*
X616224Y1104521D01*
X608858Y1090043D01*
X601492Y1079121D01*
X594380Y1071755D01*
X413009Y1033894D02*
G01*
X442219Y957440D01*
X471175Y1033894D02*
G01*
X442219Y957440D01*
X495305Y1033894D02*
G01*
X495305Y957440D01*
X495305Y1033894D02*
G01*
X520705Y1033894D01*
X531627Y1030338D01*
X538993Y1022972D01*
X542549Y1015606D01*
X546105Y1004684D01*
X546105Y986650D01*
X542549Y975728D01*
X538993Y968362D01*
X531627Y961250D01*
X520705Y957440D01*
X495305Y957440D01*
X570235Y1033894D02*
G01*
X570235Y957440D01*
X570235Y1033894D02*
G01*
X595635Y1033894D01*
X606557Y1030338D01*
X613923Y1022972D01*
X617479Y1015606D01*
X621035Y1004684D01*
X621035Y986650D01*
X617479Y975728D01*
X613923Y968362D01*
X606557Y961250D01*
X595635Y957440D01*
X570235Y957440D01*
X467619Y888606D02*
G01*
X464063Y895972D01*
X456697Y903338D01*
X449585Y906894D01*
X434853Y906894D01*
X427741Y903338D01*
X420375Y895972D01*
X416819Y888606D01*
X413009Y877684D01*
X413009Y859650D01*
X416819Y848728D01*
X420375Y841362D01*
X427741Y834250D01*
X434853Y830440D01*
X449585Y830440D01*
X456697Y834250D01*
X464063Y841362D01*
X467619Y848728D01*
X467619Y859650D01*
X449585Y859650D02*
G01*
X467619Y859650D01*
X491749Y906894D02*
G01*
X491749Y830440D01*
X491749Y906894D02*
G01*
X542549Y830440D01*
X542549Y906894D02*
G01*
X542549Y830440D01*
X566679Y906894D02*
G01*
X566679Y830440D01*
X566679Y906894D02*
G01*
X592079Y906894D01*
X603001Y903338D01*
X610113Y895972D01*
X613923Y888606D01*
X617479Y877684D01*
X617479Y859650D01*
X613923Y848728D01*
X610113Y841362D01*
X603001Y834250D01*
X592079Y830440D01*
X566679Y830440D01*
D11*
X62585Y-110101D02*
G01*
X127609Y-110101D01*
X92049Y-157345D01*
X109829Y-157345D01*
X121767Y-163187D01*
X127609Y-169283D01*
X133451Y-187063D01*
X133451Y-198747D01*
X127609Y-216527D01*
X115925Y-228211D01*
X98145Y-234307D01*
X80365Y-234307D01*
X62585Y-228211D01*
X56743Y-222369D01*
X50901Y-210685D01*
X207873Y-110101D02*
G01*
X190347Y-115943D01*
X178409Y-133723D01*
X172567Y-163187D01*
X172567Y-180967D01*
X178409Y-210685D01*
X190347Y-228211D01*
X207873Y-234307D01*
X219811Y-234307D01*
X237591Y-228211D01*
X249275Y-210685D01*
X255371Y-180967D01*
X255371Y-163187D01*
X249275Y-133723D01*
X237591Y-115943D01*
X219811Y-110101D01*
X207873Y-110101D01*
X341477Y-110101D02*
G01*
X294233Y-234307D01*
X341477Y-110101D02*
G01*
X388721Y-234307D01*
X312013Y-192905D02*
G01*
X371195Y-192905D01*
X427837Y-110101D02*
G01*
X510641Y-251833D01*
X561441Y-110101D02*
G01*
X626465Y-110101D01*
X590905Y-157345D01*
X608685Y-157345D01*
X620369Y-163187D01*
X626465Y-169283D01*
X632307Y-187063D01*
X632307Y-198747D01*
X626465Y-216527D01*
X614527Y-228211D01*
X596747Y-234307D01*
X578967Y-234307D01*
X561441Y-228211D01*
X555345Y-222369D01*
X549503Y-210685D01*
X706729Y-110101D02*
G01*
X688949Y-115943D01*
X677265Y-133723D01*
X671169Y-163187D01*
X671169Y-180967D01*
X677265Y-210685D01*
X688949Y-228211D01*
X706729Y-234307D01*
X718413Y-234307D01*
X736193Y-228211D01*
X748131Y-210685D01*
X753973Y-180967D01*
X753973Y-163187D01*
X748131Y-133723D01*
X736193Y-115943D01*
X718413Y-110101D01*
X706729Y-110101D01*
X793089Y-110101D02*
G01*
X840333Y-234307D01*
X887577Y-110101D02*
G01*
X840333Y-234307D01*
X92049Y-318127D02*
G01*
X80365Y-329811D01*
X68427Y-347591D01*
X56743Y-371213D01*
X50901Y-400931D01*
X50901Y-424553D01*
X56743Y-454017D01*
X68427Y-477639D01*
X80365Y-495419D01*
X92049Y-507103D01*
X131165Y-383151D02*
G01*
X131165Y-465701D01*
X131165Y-406773D02*
G01*
X148945Y-388993D01*
X160629Y-383151D01*
X178409Y-383151D01*
X190347Y-388993D01*
X196189Y-406773D01*
X196189Y-465701D01*
X196189Y-406773D02*
G01*
X213969Y-388993D01*
X225653Y-383151D01*
X243433Y-383151D01*
X255371Y-388993D01*
X261213Y-406773D01*
X261213Y-465701D01*
X371195Y-383151D02*
G01*
X371195Y-465701D01*
X371195Y-400931D02*
G01*
X359257Y-388993D01*
X347319Y-383151D01*
X329793Y-383151D01*
X317855Y-388993D01*
X306171Y-400931D01*
X300075Y-418457D01*
X300075Y-430395D01*
X306171Y-448175D01*
X317855Y-459859D01*
X329793Y-465701D01*
X347319Y-465701D01*
X359257Y-459859D01*
X371195Y-448175D01*
X410057Y-383151D02*
G01*
X475081Y-465701D01*
X475081Y-383151D02*
G01*
X410057Y-465701D01*
X514197Y-318127D02*
G01*
X525881Y-329811D01*
X537819Y-347591D01*
X549503Y-371213D01*
X555345Y-400931D01*
X555345Y-424553D01*
X549503Y-454017D01*
X537819Y-477639D01*
X525881Y-495419D01*
X514197Y-507103D01*
G36*
X-3415944Y3235096D02*
G01*
X-3421735Y3234740D01*
X-3427374Y3233521D01*
X-3432860Y3231540D01*
X-3437940Y3228797D01*
X-3442614Y3225342D01*
X-3446678Y3221278D01*
X-3450183Y3216656D01*
X-3452977Y3211576D01*
X-3455009Y3206140D01*
X-3456228Y3200450D01*
X-3456584Y3197606D01*
X-3456584Y3191814D01*
X-3455720Y3186074D01*
X-3454095Y3180486D01*
X-3451656Y3175254D01*
X-3448507Y3170377D01*
X-3444697Y3166008D01*
X-3442614Y3164027D01*
X-3437940Y3160572D01*
X-3432860Y3157829D01*
X-3427374Y3155848D01*
X-3424580Y3155137D01*
X-3418840Y3154375D01*
X-3413048Y3154375D01*
X-3407308Y3155137D01*
X-3401720Y3156762D01*
X-3399028Y3157829D01*
X-3393948Y3160572D01*
X-3389274Y3164027D01*
X-3385210Y3168142D01*
X-3381705Y3172764D01*
X-3378911Y3177844D01*
X-3376879Y3183229D01*
X-3375660Y3188919D01*
X-3375202Y3194710D01*
X-3375304Y3197606D01*
X-3376168Y3203346D01*
X-3377793Y3208883D01*
X-3380232Y3214166D01*
X-3383381Y3218992D01*
X-3387191Y3223361D01*
X-3391560Y3227171D01*
X-3396437Y3230270D01*
X-3401720Y3232607D01*
X-3407308Y3234232D01*
X-3410153Y3234740D01*
G37*
G36*
X-3238144Y384251D02*
G01*
X-3243935Y383844D01*
X-3249574Y382625D01*
X-3255010Y380593D01*
X-3260090Y377799D01*
X-3264712Y374294D01*
X-3268776Y370179D01*
X-3272231Y365556D01*
X-3274974Y360426D01*
X-3277006Y354990D01*
X-3278174Y349300D01*
X-3278479Y346456D01*
X-3278479Y340664D01*
X-3277666Y334924D01*
X-3277006Y332079D01*
X-3274974Y326644D01*
X-3272231Y321564D01*
X-3268776Y316890D01*
X-3264712Y312775D01*
X-3260090Y309321D01*
X-3257600Y307797D01*
X-3252317Y305409D01*
X-3246780Y303733D01*
X-3241040Y302920D01*
X-3235248Y302920D01*
X-3229508Y303733D01*
X-3223971Y305409D01*
X-3218688Y307797D01*
X-3213811Y310946D01*
X-3209442Y314756D01*
X-3205683Y319176D01*
X-3202584Y324053D01*
X-3200196Y329336D01*
X-3198622Y334924D01*
X-3197809Y340664D01*
X-3197809Y346456D01*
X-3198622Y352196D01*
X-3200196Y357733D01*
X-3202584Y363016D01*
X-3205683Y367944D01*
X-3209442Y372313D01*
X-3213811Y376123D01*
X-3218688Y379272D01*
X-3223971Y381711D01*
X-3229508Y383336D01*
X-3235248Y384149D01*
G37*
G36*
X-2672080Y-262788D02*
G01*
X-2636113Y-288747D01*
X-2600096Y-263753D01*
G37*
G36*
X-78435Y1885696D02*
G01*
X-130048Y1835505D01*
X-86207Y1842566D01*
G37*
G36*
X-2353056Y-37795D02*
G01*
X-2353056Y-203758D01*
X-2328164Y-203758D01*
X-2328164Y-37795D01*
G37*
G36*
X-2390394Y-108305D02*
G01*
X-2390394Y-133197D01*
X-2290826Y-133197D01*
X-2290826Y-108305D01*
G37*
G36*
X-1714804Y-108305D02*
G01*
X-1714804Y-133197D01*
X-1615236Y-133197D01*
X-1615236Y-108305D01*
G37*
G36*
X-2461006Y3149904D02*
G01*
X-2461006Y2983941D01*
X-2436114Y2983941D01*
X-2436114Y3149904D01*
G37*
G36*
X-2498344Y3079394D02*
G01*
X-2498344Y3054502D01*
X-2398776Y3054502D01*
X-2398776Y3079394D01*
G37*
G36*
X-1822754Y3079394D02*
G01*
X-1822754Y3054502D01*
X-1723186Y3054502D01*
X-1723186Y3079394D01*
G37*
D10*
X-1383192Y-383618D02*
G01*
X-1383192Y-463616D01*
X-1383146Y-327573D02*
G01*
X-1383146Y-247576D01*
X-1525160Y-383618D02*
G01*
X-1525160Y-463616D01*
X-1525112Y-327573D02*
G01*
X-1525112Y-247576D01*
X-1414175Y-494591D02*
G01*
X-1494180Y-494591D01*
X-1494127Y-216598D02*
G01*
X-1414124Y-216598D01*
D15*
X-863175Y-8940D02*
G01*
X-863175Y-678179D01*
X-266433Y-678179D02*
G01*
X-863175Y-678179D01*
X-266433Y-8940D02*
G01*
X-863175Y-8940D01*
D10*
X-3092356Y2955792D02*
G01*
X-3482764Y2955792D01*
X-3339744Y3255792D02*
G01*
X-3482764Y3255792D01*
X-3238144Y3255906D02*
G01*
X-3092356Y3255906D01*
X-3482764Y3255792D02*
G01*
X-3482764Y2955792D01*
X-3092356Y3255792D02*
G01*
X-3092356Y2955792D01*
X-3477044Y19954D02*
G01*
X-3477044Y410362D01*
X-3177044Y267342D02*
G01*
X-3177044Y410362D01*
X-3176930Y165742D02*
G01*
X-3176930Y19954D01*
X-3177044Y410362D02*
G01*
X-3477044Y410362D01*
X-3177044Y19954D02*
G01*
X-3477044Y19954D01*
X-3536950Y1101699D02*
G01*
X-3176955Y1101699D01*
X-3176955Y901700D01*
X-3536950Y901700D01*
X-3536950Y1101699D01*
X-3543300Y2638399D02*
G01*
X-3183305Y2638399D01*
X-3183305Y2438400D01*
X-3543300Y2438400D01*
X-3543300Y2638399D01*
D16*
X-2563101Y-311774D02*
G01*
X-2563101Y-426773D01*
X-2708099Y-426773D01*
X-2708099Y-306773D01*
X-2709100Y-244774D02*
G01*
X-2709100Y-120774D01*
X-2564102Y-120774D01*
X-2564102Y-244774D01*
X-2563101Y-426773D02*
G01*
X-2563101Y-429775D01*
X-2583101Y-449775D01*
X-2685100Y-449775D01*
X-2688099Y-446773D01*
X-2708099Y-426773D01*
X-18315Y1877931D02*
G01*
X62999Y1796615D01*
X-39530Y1694086D01*
X-124381Y1778939D01*
X-168927Y1822071D02*
G01*
X-256611Y1909752D01*
X-154081Y2012281D01*
X-66400Y1924601D01*
X62999Y1796615D02*
G01*
X65123Y1794492D01*
X65123Y1766209D01*
X-7000Y1694086D01*
X-11244Y1694086D01*
X-39530Y1694086D01*
D15*
X-1394063Y557634D02*
G01*
X-1394063Y653521D01*
X-1526184Y653521D01*
X-1526184Y557634D01*
X-1394063Y472391D02*
G01*
X-1394063Y376504D01*
X-1526184Y376504D01*
X-1526184Y472391D01*
X-1367434Y472391D02*
G01*
X-1367434Y376504D01*
X-1235313Y376504D01*
X-1235313Y472391D01*
X-1367434Y557634D02*
G01*
X-1367434Y653521D01*
X-1235313Y653521D01*
X-1235313Y557634D01*
D10*
X-3143981Y257281D02*
G01*
X-3143981Y337278D01*
X-3144027Y201236D02*
G01*
X-3144027Y121239D01*
X-3002013Y257281D02*
G01*
X-3002013Y337278D01*
X-3002061Y201236D02*
G01*
X-3002061Y121239D01*
X-3112998Y368254D02*
G01*
X-3032993Y368254D01*
X-3033047Y90261D02*
G01*
X-3113049Y90261D01*
X-2877281Y3229081D02*
G01*
X-2877281Y3309078D01*
X-2877327Y3173036D02*
G01*
X-2877327Y3093039D01*
X-2735313Y3229081D02*
G01*
X-2735313Y3309078D01*
X-2735361Y3173036D02*
G01*
X-2735361Y3093039D01*
X-2846298Y3340054D02*
G01*
X-2766293Y3340054D01*
X-2766347Y3062061D02*
G01*
X-2846349Y3062061D01*
X-3542924Y2867662D02*
G01*
X-3182929Y2867662D01*
X-3182929Y2667662D01*
X-3542924Y2667662D01*
X-3542924Y2867662D01*
X-3536950Y873099D02*
G01*
X-3176955Y873099D01*
X-3176955Y673100D01*
X-3536950Y673100D01*
X-3536950Y873099D01*
X777684Y747532D02*
G01*
X777684Y844420D01*
X777684Y1450647D02*
G01*
X777684Y1547528D01*
X777684Y1547528D02*
G01*
X1009571Y1547528D01*
X777684Y747532D02*
G01*
X1009571Y747532D01*
X1202682Y865649D02*
G01*
X1202682Y1429410D01*
X-4323560Y3654574D02*
G01*
X-4323560Y3264578D01*
X-3897566Y3646581D02*
G01*
X-3897566Y3754574D01*
X-4157560Y3754574D01*
X-3897566Y3248578D02*
G01*
X-3897566Y3156577D01*
X-4158244Y3156577D01*
D15*
X-239687Y1654878D02*
G01*
X-171884Y1587075D01*
X-78460Y1680499D01*
X-146263Y1748302D01*
X-299963Y1715155D02*
G01*
X-367766Y1782958D01*
X-274342Y1876381D01*
X-206540Y1808579D01*
D10*
X-565023Y1611790D02*
G01*
X-508457Y1555221D01*
X-604621Y1651452D02*
G01*
X-661187Y1708017D01*
X-665408Y1511401D02*
G01*
X-608843Y1454835D01*
X-705004Y1551066D02*
G01*
X-761573Y1607632D01*
X-508462Y1511411D02*
G01*
X-565033Y1454838D01*
X-761568Y1651447D02*
G01*
X-704997Y1708017D01*
X-1263373Y2491275D02*
G01*
X-1343370Y2491275D01*
X-1207328Y2491229D02*
G01*
X-1127330Y2491229D01*
X-1263373Y2633243D02*
G01*
X-1343370Y2633243D01*
X-1207328Y2633195D02*
G01*
X-1127330Y2633195D01*
X-1374345Y2522258D02*
G01*
X-1374345Y2602263D01*
X-1096352Y2602209D02*
G01*
X-1096352Y2522207D01*
X-1097061Y2419875D02*
G01*
X-1040493Y2476441D01*
X-1136723Y2380277D02*
G01*
X-1193289Y2323711D01*
X-996673Y2319489D02*
G01*
X-940107Y2376055D01*
X-1036337Y2279893D02*
G01*
X-1092903Y2223325D01*
X-996683Y2476436D02*
G01*
X-940109Y2419865D01*
X-1136718Y2223330D02*
G01*
X-1193289Y2279901D01*
D15*
X-1185631Y1196637D02*
G01*
X-1281518Y1196637D01*
X-1281518Y1064516D01*
X-1185631Y1064516D01*
X-1100388Y1196637D02*
G01*
X-1004501Y1196637D01*
X-1004501Y1064516D01*
X-1100388Y1064516D01*
X-729284Y1385039D02*
G01*
X-825172Y1385039D01*
X-825172Y1252918D01*
X-729284Y1252918D01*
X-644042Y1385039D02*
G01*
X-548154Y1385039D01*
X-548154Y1252918D01*
X-644042Y1252918D01*
X-492290Y1783179D02*
G01*
X-560092Y1850981D01*
X-653516Y1757558D01*
X-585713Y1689755D01*
X-432013Y1722902D02*
G01*
X-364210Y1655099D01*
X-457634Y1561675D01*
X-525437Y1629478D01*
X-643188Y1077216D02*
G01*
X-547301Y1077216D01*
X-547301Y1209337D01*
X-643188Y1209337D01*
X-728431Y1077216D02*
G01*
X-824318Y1077216D01*
X-824318Y1209337D01*
X-728431Y1209337D01*
X-1191981Y1380787D02*
G01*
X-1287868Y1380787D01*
X-1287868Y1248666D01*
X-1191981Y1248666D01*
X-1106738Y1380787D02*
G01*
X-1010851Y1380787D01*
X-1010851Y1248666D01*
X-1106738Y1248666D01*
D10*
X-1486080Y2832818D02*
G01*
X-1542651Y2889389D01*
X-1385699Y2889382D02*
G01*
X-1442265Y2832813D01*
X-1486085Y2989765D02*
G01*
X-1542651Y2933199D01*
X-1344566Y2929691D02*
G01*
X-1287998Y2986260D01*
X-1287998Y3030077D02*
G01*
X-1344564Y3086643D01*
X-1444947Y3030072D02*
G01*
X-1388379Y3086641D01*
D17*
X-1582689Y-22443D02*
G01*
X-1582689Y-347052D01*
X-2422936Y168140D02*
G01*
X-2422936Y319123D01*
X-2422936Y-178869D02*
G01*
X-2422936Y-27886D01*
X-1582689Y492749D02*
G01*
X-1582689Y168140D01*
D15*
X-1582689Y492749D02*
G01*
X-2249309Y492749D01*
X-2422936Y319123D01*
X-1582689Y-352496D02*
G01*
X-2249309Y-352496D01*
X-2422936Y-178869D01*
D17*
X-1690639Y3165256D02*
G01*
X-1690639Y2840647D01*
X-2530886Y3355840D02*
G01*
X-2530886Y3506823D01*
X-2530886Y3008830D02*
G01*
X-2530886Y3159813D01*
X-1690639Y3680449D02*
G01*
X-1690639Y3355840D01*
D15*
X-1690639Y3680449D02*
G01*
X-2357259Y3680449D01*
X-2530886Y3506823D01*
X-1690639Y2835203D02*
G01*
X-2357259Y2835203D01*
X-2530886Y3008830D01*
D17*
X-2826258Y2451836D02*
G01*
X-2826258Y2422448D01*
X-2496256Y2153823D02*
G01*
X-2496256Y2121837D01*
X-2826258Y2121837D01*
X-2826258Y2151222D01*
X-2826258Y2451836D02*
G01*
X-2496256Y2451836D01*
X-2496256Y2419847D01*
X-2680721Y2501839D02*
G01*
X-2680721Y2531226D01*
X-3010722Y2799852D02*
G01*
X-3010722Y2831838D01*
X-2680721Y2831838D01*
X-2680721Y2802453D01*
X-2680721Y2501839D02*
G01*
X-3010722Y2501839D01*
X-3010722Y2533827D01*
X-2698381Y1327028D02*
G01*
X-2698381Y1356415D01*
X-3028383Y1625041D02*
G01*
X-3028383Y1657027D01*
X-2698381Y1657027D01*
X-2698381Y1627642D01*
X-2698381Y1327028D02*
G01*
X-3028383Y1327028D01*
X-3028383Y1359016D01*
X-2819788Y2083475D02*
G01*
X-2819788Y2054087D01*
X-2489786Y1785462D02*
G01*
X-2489786Y1753476D01*
X-2819788Y1753476D01*
X-2819788Y1782861D01*
X-2819788Y2083475D02*
G01*
X-2489786Y2083475D01*
X-2489786Y2051486D01*
X-2692031Y907928D02*
G01*
X-2692031Y937315D01*
X-3022033Y1205941D02*
G01*
X-3022033Y1237927D01*
X-2692031Y1237927D01*
X-2692031Y1208542D01*
X-2692031Y907928D02*
G01*
X-3022033Y907928D01*
X-3022033Y939916D01*
X-2826138Y819825D02*
G01*
X-2826138Y790437D01*
X-2496136Y521812D02*
G01*
X-2496136Y489826D01*
X-2826138Y489826D01*
X-2826138Y519211D01*
X-2826138Y819825D02*
G01*
X-2496136Y819825D01*
X-2496136Y787836D01*
D10*
X-1359080Y2693118D02*
G01*
X-1415651Y2749689D01*
X-1258699Y2749682D02*
G01*
X-1315265Y2693113D01*
X-1359085Y2850065D02*
G01*
X-1415651Y2793499D01*
X-1217566Y2789991D02*
G01*
X-1160998Y2846560D01*
X-1160998Y2890377D02*
G01*
X-1217564Y2946943D01*
X-1317947Y2890372D02*
G01*
X-1261379Y2946941D01*
X-2083508Y2656453D02*
G01*
X-2083508Y2576451D01*
X-2194483Y2687439D02*
G01*
X-2114486Y2687439D01*
X-2194483Y2545473D02*
G01*
X-2114486Y2545473D01*
X-2252073Y2688021D02*
G01*
X-2332073Y2688021D01*
X-2363055Y2657038D02*
G01*
X-2363055Y2577040D01*
X-2252073Y2546060D02*
G01*
X-2332073Y2546060D01*
X-2393261Y1541449D02*
G01*
X-2393261Y1621452D01*
X-2282286Y1510464D02*
G01*
X-2362283Y1510464D01*
X-2282286Y1652430D02*
G01*
X-2362283Y1652430D01*
X-2224697Y1509882D02*
G01*
X-2144697Y1509882D01*
X-2113714Y1540865D02*
G01*
X-2113714Y1620862D01*
X-2224697Y1651843D02*
G01*
X-2144697Y1651843D01*
X-2108908Y1183253D02*
G01*
X-2108908Y1103251D01*
X-2219883Y1214239D02*
G01*
X-2139886Y1214239D01*
X-2219883Y1072273D02*
G01*
X-2139886Y1072273D01*
X-2277473Y1214821D02*
G01*
X-2357473Y1214821D01*
X-2388455Y1183838D02*
G01*
X-2388455Y1103840D01*
X-2277473Y1072860D02*
G01*
X-2357473Y1072860D01*
X-1465150Y1811883D02*
G01*
X-1491597Y1838332D01*
X-1138044Y1484779D02*
G01*
X-1162514Y1509252D01*
X-810760Y1864598D02*
G01*
X-784491Y1838332D01*
X-1138044Y2191885D02*
G01*
X-1111597Y2165436D01*
X-1466946Y1862983D02*
G01*
X-1491597Y1838332D01*
X-1138044Y2191885D02*
G01*
X-1164493Y2165438D01*
X-1113393Y1509433D02*
G01*
X-1138044Y1484779D01*
X-784491Y1838332D02*
G01*
X-810940Y1811886D01*
D15*
X280466Y3359772D02*
G01*
X376354Y3359772D01*
X376354Y3491892D01*
X280466Y3491892D01*
X195224Y3359772D02*
G01*
X99336Y3359772D01*
X99336Y3491892D01*
X195224Y3491892D01*
X280466Y3029572D02*
G01*
X376354Y3029572D01*
X376354Y3161692D01*
X280466Y3161692D01*
X195224Y3029572D02*
G01*
X99336Y3029572D01*
X99336Y3161692D01*
X195224Y3161692D01*
X280466Y2699372D02*
G01*
X376354Y2699372D01*
X376354Y2831492D01*
X280466Y2831492D01*
X195224Y2699372D02*
G01*
X99336Y2699372D01*
X99336Y2831492D01*
X195224Y2831492D01*
X-3325703Y3698400D02*
G01*
X-3325703Y3794287D01*
X-3457823Y3794287D01*
X-3457823Y3698400D01*
X-3325703Y3613157D02*
G01*
X-3325703Y3517270D01*
X-3457823Y3517270D01*
X-3457823Y3613157D01*
X-3147903Y3692050D02*
G01*
X-3147903Y3787937D01*
X-3280023Y3787937D01*
X-3280023Y3692050D01*
X-3147903Y3606807D02*
G01*
X-3147903Y3510920D01*
X-3280023Y3510920D01*
X-3280023Y3606807D01*
X-2746540Y125829D02*
G01*
X-2814342Y193631D01*
X-2907766Y100208D01*
X-2839963Y32405D01*
X-2686263Y65552D02*
G01*
X-2618460Y-2250D01*
X-2711884Y-95674D01*
X-2779687Y-27871D01*
D10*
X-1222263Y4068518D02*
G01*
X859731Y4068518D01*
X859729Y4068518D02*
G01*
X859731Y3824526D01*
X859731Y3824526D02*
G01*
X-1222263Y3824526D01*
X-1222263Y3824526D02*
G01*
X-1222265Y4068518D01*
D13*
X-3673767Y4073522D02*
G01*
X-3864267Y4073522D01*
X-3864267Y3819522D01*
X-1324267Y3819522D01*
X-1324267Y4073522D01*
D19*
X-1324267Y4073522D02*
G01*
X-3673767Y4073522D01*
D13*
X-498767Y-727077D02*
G01*
X-689267Y-727077D01*
X-689267Y-981077D01*
X834732Y-981077D01*
X834732Y-727077D01*
D19*
X834732Y-727077D02*
G01*
X-498767Y-727077D01*
D10*
X-3000263Y-732081D02*
G01*
X-918268Y-732081D01*
X-918270Y-732081D02*
G01*
X-918268Y-976073D01*
X-918268Y-976073D02*
G01*
X-3000263Y-976073D01*
X-3000263Y-976073D02*
G01*
X-3000265Y-732081D01*
X771245Y2282832D02*
G01*
X771245Y3362332D01*
X771245Y3293988D02*
G01*
X517245Y3293988D01*
X771245Y3362332D02*
G01*
X771245Y3552832D01*
X517245Y3552832D01*
X517245Y2282832D01*
X771245Y2282832D01*
G75*
G01*
X-1525113Y-247581D02*
G02*
X-1494127Y-216598I30983J0D01*
G75*
G01*
X-1414130Y-216598D02*
G02*
X-1383147Y-247581I0J-30983D01*
G75*
G01*
X-1383193Y-463611D02*
G02*
X-1414175Y-494591I-30982J3D01*
G75*
G01*
X-1494173Y-494591D02*
G02*
X-1525161Y-463611I-5J30983D01*
G75*
G01*
X-3339744Y3255792D02*
G03*
X-3238144Y3255907I50800J57D01*
G75*
G01*
X-3177045Y267343D02*
G03*
X-3176930Y165743I57J-50800D01*
G75*
G01*
X-3002062Y121244D02*
G02*
X-3033047Y90261I-30982J0D01*
G75*
G01*
X-3113044Y90261D02*
G02*
X-3144027Y121244I0J30983D01*
G75*
G01*
X-3143982Y337274D02*
G02*
X-3112999Y368254I30983J-3D01*
G75*
G01*
X-3033001Y368254D02*
G02*
X-3002013Y337274I5J-30983D01*
G75*
G01*
X-2735362Y3093044D02*
G02*
X-2766347Y3062061I-30982J0D01*
G75*
G01*
X-2846344Y3062061D02*
G02*
X-2877327Y3093044I0J30983D01*
G75*
G01*
X-2877282Y3309074D02*
G02*
X-2846299Y3340054I30983J-3D01*
G75*
G01*
X-2766301Y3340054D02*
G02*
X-2735313Y3309074I5J-30983D01*
G75*
G01*
X-761568Y1607630D02*
G02*
X-761568Y1651447I21907J21908D01*
G75*
G01*
X-705000Y1708015D02*
G02*
X-661185Y1708015I21908J-21909D01*
G75*
G01*
X-508460Y1555227D02*
G02*
X-508462Y1511412I-21910J-21906D01*
G75*
G01*
X-565028Y1454846D02*
G02*
X-608848Y1454838I-21914J21903D01*
G75*
G01*
X-1127336Y2633195D02*
G02*
X-1096353Y2602210I0J-30983D01*
G75*
G01*
X-1096353Y2522212D02*
G02*
X-1127336Y2491229I-30983J0D01*
G75*
G01*
X-1343365Y2491275D02*
G02*
X-1374346Y2522258I2J30983D01*
G75*
G01*
X-1374346Y2602255D02*
G02*
X-1343365Y2633243I30983J5D01*
G75*
G01*
X-1092901Y2223331D02*
G02*
X-1136719Y2223331I-21909J21907D01*
G75*
G01*
X-1193287Y2279899D02*
G02*
X-1193287Y2323714I21909J21907D01*
G75*
G01*
X-1040498Y2476439D02*
G02*
X-996683Y2476436I21906J-21910D01*
G75*
G01*
X-940118Y2419871D02*
G02*
X-940110Y2376051I-21902J-21914D01*
G75*
G01*
X-1287993Y3030080D02*
G02*
X-1287993Y2986263I-21908J-21908D01*
G75*
G01*
X-1388379Y3086649D02*
G02*
X-1344562Y3086646I21907J-21909D01*
G75*
G01*
X-1442263Y2832819D02*
G02*
X-1486080Y2832819I-21909J21908D01*
G75*
G01*
X-1542649Y2889387D02*
G02*
X-1542649Y2933202I21909J21908D01*
G75*
G01*
X-1160993Y2890380D02*
G02*
X-1160993Y2846563I-21908J-21908D01*
G75*
G01*
X-1261379Y2946949D02*
G02*
X-1217562Y2946946I21907J-21909D01*
G75*
G01*
X-1315263Y2693119D02*
G02*
X-1359080Y2693119I-21909J21908D01*
G75*
G01*
X-1415649Y2749687D02*
G02*
X-1415649Y2793502I21909J21908D01*
G75*
G01*
X-2363061Y2657038D02*
G02*
X-2332078Y2688024I30983J3D01*
G75*
G01*
X-2332078Y2546055D02*
G02*
X-2363061Y2577041I0J30983D01*
G75*
G01*
X-2114492Y2687439D02*
G02*
X-2083509Y2656454I0J-30983D01*
G75*
G01*
X-2083509Y2576457D02*
G02*
X-2114489Y2545474I-30983J0D01*
G75*
G01*
X-2113709Y1540866D02*
G02*
X-2144692Y1509883I-30983J0D01*
G75*
G01*
X-2144692Y1651848D02*
G02*
X-2113709Y1620863I0J-30983D01*
G75*
G01*
X-2362279Y1510464D02*
G02*
X-2393262Y1541450I0J30983D01*
G75*
G01*
X-2393262Y1621447D02*
G02*
X-2362279Y1652430I30983J0D01*
G75*
G01*
X-2388461Y1183838D02*
G02*
X-2357478Y1214821I30983J0D01*
G75*
G01*
X-2357478Y1072855D02*
G02*
X-2388461Y1103841I0J30983D01*
G75*
G01*
X-2139892Y1214239D02*
G02*
X-2108909Y1183254I0J-30983D01*
G75*
G01*
X-2108909Y1103257D02*
G02*
X-2139892Y1072274I-30983J0D01*
G75*
G01
X-3933825Y3702515D02*
G03X-3933825Y3702515I-12497J0D01*
D14*
G75*
G01
X-2450236Y2134827D02*
G03X-2450236Y2134827I-10008J0D01*
G75*
G01
X-3036722Y2818849D02*
G03X-3036722Y2818849I-10008J0D01*
G75*
G01
X-3054375Y1644023D02*
G03X-3054375Y1644023I-10008J0D01*
G75*
G01
X-2443759Y1766476D02*
G03X-2443759Y1766476I-10008J0D01*
G75*
G01
X-3048025Y1224923D02*
G03X-3048025Y1224923I-10008J0D01*
G75*
G01
X-2450109Y502826D02*
G03X-2450109Y502826I-10008J0D01*
D10*
G75*
G01
X-1165962Y2225378D02*
G03X-1165962Y2225378I-8890J0D01*
M02*
