G04 Layer: InnerLayer1*
G04 EasyEDA v6.5.44, 2024-08-23 15:43:18*
G04 30d174a4fb68472d9a5c4a5b8d6f4b16,2865ae9118a24060a17af6d01c9bcc73,10*
G04 Gerber Generator version 0.2*
G04 Scale: 100 percent, Rotated: No, Reflected: No *
G04 Dimensions in millimeters *
G04 leading zeros omitted , absolute positions ,4 integer and 5 decimal *
%FSLAX45Y45*%
%MOMM*%

%ADD10C,0.3000*%
%ADD11C,0.2540*%
%ADD12C,4.0000*%
%ADD13C,0.6100*%
%ADD14R,1.8000X1.8000*%
%ADD15C,1.8000*%
%ADD16C,1.5748*%
%ADD17R,1.5748X1.5748*%
%ADD18C,3.2000*%
%ADD19C,0.6000*%
%ADD20C,0.6096*%
%ADD21C,0.6200*%
%ADD22C,0.0163*%

%LPD*%
G36*
X2114550Y-3384550D02*
G01*
X-2719984Y-3371850D01*
X-2723845Y-3371087D01*
X-2727147Y-3368903D01*
X-2822803Y-3273247D01*
X-2824988Y-3269945D01*
X-2825750Y-3266033D01*
X-2825750Y-1708251D01*
X-2824835Y-1703984D01*
X-2822194Y-1700479D01*
X-2818333Y-1698447D01*
X-2813964Y-1698243D01*
X-2809900Y-1699869D01*
X-2776778Y-1722374D01*
X-2771140Y-1725320D01*
X-2765348Y-1726895D01*
X-2761488Y-1727200D01*
X-2067102Y-1730603D01*
X-2061057Y-1729993D01*
X-2055571Y-1728114D01*
X-2053031Y-1726742D01*
X-2048967Y-1723593D01*
X-2044903Y-1721764D01*
X-2040432Y-1721815D01*
X-2036419Y-1723745D01*
X-2033625Y-1727250D01*
X-2032660Y-1731619D01*
X-2032507Y-1766112D01*
X-2031542Y-1772157D01*
X-2029358Y-1777542D01*
X-2026056Y-1782318D01*
X-2021382Y-1786585D01*
X-1952345Y-1836775D01*
X-1948180Y-1839315D01*
X-1942642Y-1841296D01*
X-1936292Y-1842007D01*
X-1471676Y-1844090D01*
X-1467815Y-1844852D01*
X-1464513Y-1847088D01*
X-1462328Y-1850389D01*
X-1461566Y-1854250D01*
X-1462379Y-1858111D01*
X-1471218Y-1870456D01*
X-1475333Y-1879396D01*
X-1477873Y-1888845D01*
X-1478737Y-1898650D01*
X-1478432Y-1902307D01*
X-1478889Y-1906371D01*
X-1480972Y-1909927D01*
X-1493266Y-1918462D01*
X-1500174Y-1925370D01*
X-1505813Y-1933448D01*
X-1509979Y-1942338D01*
X-1512519Y-1951837D01*
X-1513382Y-1961642D01*
X-1512519Y-1971395D01*
X-1509979Y-1980895D01*
X-1505813Y-1989785D01*
X-1500174Y-1997862D01*
X-1493266Y-2004771D01*
X-1485188Y-2010410D01*
X-1482090Y-2011832D01*
X-1479194Y-2013864D01*
X-1477213Y-2016760D01*
X-1476298Y-2020163D01*
X-1476603Y-2023668D01*
X-1477873Y-2028545D01*
X-1478737Y-2038350D01*
X-1477873Y-2048154D01*
X-1475333Y-2057603D01*
X-1471218Y-2066543D01*
X-1465580Y-2074570D01*
X-1458620Y-2081530D01*
X-1450594Y-2087168D01*
X-1441653Y-2091283D01*
X-1432204Y-2093823D01*
X-1428750Y-2094128D01*
X-1425346Y-2095042D01*
X-1422450Y-2097074D01*
X-1420469Y-2099970D01*
X-1419555Y-2103374D01*
X-1419199Y-2107082D01*
X-1416659Y-2116582D01*
X-1412494Y-2125472D01*
X-1406906Y-2133549D01*
X-1399946Y-2140458D01*
X-1391869Y-2146096D01*
X-1382979Y-2150262D01*
X-1373479Y-2152802D01*
X-1363726Y-2153666D01*
X-1353921Y-2152802D01*
X-1344422Y-2150262D01*
X-1335532Y-2146096D01*
X-1328064Y-2140864D01*
X-1324457Y-2139289D01*
X-1320495Y-2139188D01*
X-1316786Y-2140610D01*
X-1306220Y-2151380D01*
X-1298194Y-2157018D01*
X-1289304Y-2161184D01*
X-1279804Y-2163724D01*
X-1270000Y-2164537D01*
X-1260246Y-2163724D01*
X-1250746Y-2161184D01*
X-1241856Y-2157018D01*
X-1233779Y-2151380D01*
X-1226820Y-2144420D01*
X-1221232Y-2136394D01*
X-1217066Y-2127504D01*
X-1214526Y-2118004D01*
X-1213662Y-2108200D01*
X-1214424Y-2099513D01*
X-1213967Y-2095449D01*
X-1211884Y-2091893D01*
X-1208582Y-2089404D01*
X-1203706Y-2087168D01*
X-1195679Y-2081530D01*
X-1188720Y-2074570D01*
X-1183081Y-2066543D01*
X-1178966Y-2057603D01*
X-1176426Y-2048154D01*
X-1175562Y-2038350D01*
X-1176426Y-2028545D01*
X-1177188Y-2025599D01*
X-1177493Y-2022093D01*
X-1176578Y-2018690D01*
X-1174546Y-2015794D01*
X-1171702Y-2013762D01*
X-1165606Y-2010968D01*
X-1157579Y-2005330D01*
X-1150620Y-1998370D01*
X-1144981Y-1990343D01*
X-1140866Y-1981403D01*
X-1138326Y-1971954D01*
X-1137462Y-1962150D01*
X-1137666Y-1959762D01*
X-1137208Y-1955647D01*
X-1135126Y-1952091D01*
X-1131824Y-1949653D01*
X-1124966Y-1946452D01*
X-1116939Y-1940814D01*
X-1109980Y-1933905D01*
X-1104341Y-1925828D01*
X-1100226Y-1916938D01*
X-1097686Y-1907438D01*
X-1096822Y-1897684D01*
X-1097686Y-1887880D01*
X-1100226Y-1878380D01*
X-1104341Y-1869490D01*
X-1109980Y-1861413D01*
X-1116939Y-1854504D01*
X-1124966Y-1848866D01*
X-1133906Y-1844700D01*
X-1143355Y-1842160D01*
X-1153160Y-1841296D01*
X-1162964Y-1842160D01*
X-1172413Y-1844700D01*
X-1181354Y-1848866D01*
X-1187399Y-1853133D01*
X-1191158Y-1854758D01*
X-1195273Y-1854758D01*
X-1199083Y-1853133D01*
X-1203706Y-1849831D01*
X-1212646Y-1845716D01*
X-1222095Y-1843176D01*
X-1231900Y-1842312D01*
X-1246174Y-1843481D01*
X-1250137Y-1841957D01*
X-1253083Y-1838960D01*
X-1254607Y-1835048D01*
X-1254404Y-1830832D01*
X-1252524Y-1827072D01*
X-1233982Y-1803907D01*
X-1230579Y-1798523D01*
X-1228699Y-1793087D01*
X-1227988Y-1786382D01*
X-1231493Y-1471371D01*
X-1232712Y-1465326D01*
X-1235049Y-1460042D01*
X-1238554Y-1455420D01*
X-1243431Y-1451356D01*
X-1287526Y-1421942D01*
X-1290523Y-1418844D01*
X-1291945Y-1414830D01*
X-1291640Y-1410614D01*
X-1289608Y-1406855D01*
X-1286205Y-1404264D01*
X-1279906Y-1401368D01*
X-1276654Y-1399082D01*
X-1273454Y-1397558D01*
X-1269949Y-1397254D01*
X-1266545Y-1398168D01*
X-1263650Y-1400200D01*
X-1261770Y-1402080D01*
X-1253744Y-1407718D01*
X-1244803Y-1411833D01*
X-1235354Y-1414373D01*
X-1225550Y-1415237D01*
X-1215745Y-1414373D01*
X-1206296Y-1411833D01*
X-1197356Y-1407718D01*
X-1189329Y-1402080D01*
X-1187450Y-1400200D01*
X-1184554Y-1398168D01*
X-1181150Y-1397254D01*
X-1177645Y-1397558D01*
X-1174445Y-1399082D01*
X-1171194Y-1401368D01*
X-1162253Y-1405483D01*
X-1152804Y-1408023D01*
X-1143000Y-1408887D01*
X-1133195Y-1408023D01*
X-1123746Y-1405483D01*
X-1114806Y-1401368D01*
X-1106779Y-1395730D01*
X-1099820Y-1388770D01*
X-1094181Y-1380744D01*
X-1090066Y-1371803D01*
X-1087526Y-1362354D01*
X-1086662Y-1352550D01*
X-1087526Y-1342745D01*
X-1090066Y-1333296D01*
X-1094181Y-1324356D01*
X-1099820Y-1316329D01*
X-1106779Y-1309370D01*
X-1114856Y-1303731D01*
X-1117549Y-1300937D01*
X-1119022Y-1297330D01*
X-1119022Y-1293469D01*
X-1117549Y-1289862D01*
X-1114856Y-1287068D01*
X-1106779Y-1281430D01*
X-1099820Y-1274470D01*
X-1094181Y-1266444D01*
X-1090066Y-1257503D01*
X-1087526Y-1248054D01*
X-1086662Y-1238250D01*
X-1087526Y-1228445D01*
X-1090066Y-1218996D01*
X-1094181Y-1210056D01*
X-1099820Y-1202029D01*
X-1106779Y-1195070D01*
X-1114806Y-1189431D01*
X-1118209Y-1187856D01*
X-1121308Y-1185621D01*
X-1123391Y-1182420D01*
X-1124102Y-1178661D01*
X-1123391Y-1174902D01*
X-1121308Y-1171702D01*
X-1118209Y-1169466D01*
X-1114501Y-1167739D01*
X-1106474Y-1162100D01*
X-1099515Y-1155141D01*
X-1093876Y-1147114D01*
X-1089761Y-1138174D01*
X-1087221Y-1128725D01*
X-1086358Y-1118920D01*
X-1087221Y-1109116D01*
X-1089761Y-1099667D01*
X-1093876Y-1090726D01*
X-1099515Y-1082700D01*
X-1106474Y-1075740D01*
X-1114501Y-1070102D01*
X-1123442Y-1065987D01*
X-1132890Y-1063447D01*
X-1142695Y-1062583D01*
X-1152499Y-1063447D01*
X-1161948Y-1065987D01*
X-1170889Y-1070102D01*
X-1178915Y-1075740D01*
X-1183030Y-1078992D01*
X-1186434Y-1079906D01*
X-1189939Y-1079601D01*
X-1193139Y-1078128D01*
X-1197356Y-1075131D01*
X-1206296Y-1071016D01*
X-1215745Y-1068476D01*
X-1225550Y-1067612D01*
X-1235354Y-1068476D01*
X-1244803Y-1071016D01*
X-1253744Y-1075131D01*
X-1261008Y-1080262D01*
X-1264767Y-1081887D01*
X-1268882Y-1081887D01*
X-1272641Y-1080262D01*
X-1279906Y-1075131D01*
X-1288846Y-1071016D01*
X-1298295Y-1068476D01*
X-1308100Y-1067612D01*
X-1317904Y-1068476D01*
X-1327353Y-1071016D01*
X-1336294Y-1075131D01*
X-1344320Y-1080770D01*
X-1351280Y-1087729D01*
X-1356918Y-1095756D01*
X-1361033Y-1104696D01*
X-1363573Y-1114145D01*
X-1364437Y-1123950D01*
X-1363573Y-1133754D01*
X-1361033Y-1143203D01*
X-1356918Y-1152144D01*
X-1351280Y-1160170D01*
X-1344320Y-1167130D01*
X-1337614Y-1171803D01*
X-1334922Y-1174597D01*
X-1333449Y-1178204D01*
X-1333449Y-1182065D01*
X-1334922Y-1185672D01*
X-1344930Y-1195679D01*
X-1350568Y-1203706D01*
X-1354683Y-1212646D01*
X-1357223Y-1222095D01*
X-1358087Y-1231900D01*
X-1357223Y-1241704D01*
X-1354683Y-1251153D01*
X-1350568Y-1260094D01*
X-1344930Y-1268120D01*
X-1337970Y-1275080D01*
X-1329944Y-1280718D01*
X-1328115Y-1281531D01*
X-1325016Y-1283766D01*
X-1322984Y-1287018D01*
X-1322273Y-1290726D01*
X-1322984Y-1294485D01*
X-1325016Y-1297736D01*
X-1328115Y-1299972D01*
X-1336294Y-1303731D01*
X-1344320Y-1309370D01*
X-1351280Y-1316329D01*
X-1356918Y-1324356D01*
X-1361033Y-1333296D01*
X-1363573Y-1342745D01*
X-1364437Y-1352550D01*
X-1363573Y-1362354D01*
X-1361033Y-1371803D01*
X-1356918Y-1380744D01*
X-1347978Y-1393190D01*
X-1347216Y-1397152D01*
X-1348130Y-1401114D01*
X-1350416Y-1404416D01*
X-1353870Y-1406550D01*
X-1357884Y-1407160D01*
X-1455013Y-1402638D01*
X-1458976Y-1401622D01*
X-1462227Y-1399133D01*
X-1464208Y-1395577D01*
X-1464665Y-1391513D01*
X-1463446Y-1387602D01*
X-1460855Y-1384503D01*
X-1457198Y-1382674D01*
X-1447596Y-1380083D01*
X-1438656Y-1375968D01*
X-1430629Y-1370330D01*
X-1423670Y-1363370D01*
X-1418031Y-1355344D01*
X-1413916Y-1346403D01*
X-1411376Y-1336954D01*
X-1410512Y-1327150D01*
X-1411376Y-1317345D01*
X-1413916Y-1307896D01*
X-1418031Y-1298956D01*
X-1423670Y-1290929D01*
X-1430629Y-1283970D01*
X-1438656Y-1278331D01*
X-1447596Y-1274216D01*
X-1457045Y-1271676D01*
X-1466850Y-1270812D01*
X-1476654Y-1271676D01*
X-1486103Y-1274216D01*
X-1495044Y-1278331D01*
X-1507388Y-1287221D01*
X-1511300Y-1287983D01*
X-1515211Y-1287221D01*
X-1527556Y-1278331D01*
X-1536496Y-1274216D01*
X-1545945Y-1271676D01*
X-1555750Y-1270812D01*
X-1565554Y-1271676D01*
X-1575003Y-1274216D01*
X-1583944Y-1278331D01*
X-1591970Y-1283970D01*
X-1598930Y-1290929D01*
X-1600250Y-1292860D01*
X-1603400Y-1295755D01*
X-1607413Y-1297127D01*
X-1611630Y-1296720D01*
X-1615338Y-1294638D01*
X-1617878Y-1291183D01*
X-1618742Y-1287018D01*
X-1618742Y-1233932D01*
X-1617878Y-1229766D01*
X-1615338Y-1226312D01*
X-1611630Y-1224229D01*
X-1607413Y-1223822D01*
X-1603400Y-1225194D01*
X-1600250Y-1228090D01*
X-1598930Y-1230020D01*
X-1591970Y-1236980D01*
X-1583944Y-1242618D01*
X-1575003Y-1246733D01*
X-1565554Y-1249273D01*
X-1555750Y-1250137D01*
X-1545945Y-1249273D01*
X-1536496Y-1246733D01*
X-1527556Y-1242618D01*
X-1515211Y-1233728D01*
X-1511300Y-1232966D01*
X-1507388Y-1233728D01*
X-1495044Y-1242618D01*
X-1486103Y-1246733D01*
X-1476654Y-1249273D01*
X-1466850Y-1250137D01*
X-1457045Y-1249273D01*
X-1447596Y-1246733D01*
X-1438656Y-1242618D01*
X-1430629Y-1236980D01*
X-1423670Y-1230020D01*
X-1418031Y-1221994D01*
X-1413916Y-1213053D01*
X-1411376Y-1203604D01*
X-1410512Y-1193800D01*
X-1411376Y-1183995D01*
X-1413916Y-1174546D01*
X-1419961Y-1161592D01*
X-1420012Y-1157630D01*
X-1418590Y-1153922D01*
X-1415846Y-1151077D01*
X-1411579Y-1148080D01*
X-1404620Y-1141120D01*
X-1398981Y-1133094D01*
X-1394866Y-1124153D01*
X-1392326Y-1114704D01*
X-1391462Y-1104900D01*
X-1392326Y-1095095D01*
X-1394866Y-1085646D01*
X-1398981Y-1076706D01*
X-1404620Y-1068679D01*
X-1411579Y-1061720D01*
X-1419606Y-1056081D01*
X-1428546Y-1051966D01*
X-1437995Y-1049426D01*
X-1447800Y-1048562D01*
X-1457604Y-1049426D01*
X-1467053Y-1051966D01*
X-1475994Y-1056081D01*
X-1484020Y-1061720D01*
X-1490980Y-1068679D01*
X-1493469Y-1072235D01*
X-1496263Y-1074928D01*
X-1499870Y-1076401D01*
X-1503730Y-1076401D01*
X-1507337Y-1074928D01*
X-1510131Y-1072235D01*
X-1512570Y-1068679D01*
X-1519529Y-1061770D01*
X-1527556Y-1056132D01*
X-1536496Y-1051966D01*
X-1545945Y-1049426D01*
X-1555750Y-1048562D01*
X-1565554Y-1049426D01*
X-1575003Y-1051966D01*
X-1583944Y-1056132D01*
X-1591970Y-1061770D01*
X-1598930Y-1068679D01*
X-1600250Y-1070660D01*
X-1603400Y-1073556D01*
X-1607413Y-1074877D01*
X-1611630Y-1074521D01*
X-1615338Y-1072388D01*
X-1617878Y-1068984D01*
X-1618742Y-1064818D01*
X-1618742Y-1003858D01*
X-1619402Y-997915D01*
X-1621231Y-992378D01*
X-1624584Y-986942D01*
X-1652016Y-951687D01*
X-1653641Y-948639D01*
X-1654149Y-945235D01*
X-1653489Y-941832D01*
X-1651762Y-938885D01*
X-1648206Y-934669D01*
X-1624076Y-898448D01*
X-1620824Y-895400D01*
X-1616659Y-893978D01*
X-1612239Y-894486D01*
X-1608480Y-896874D01*
X-1606092Y-900582D01*
X-1605483Y-905002D01*
X-1605737Y-908050D01*
X-1604873Y-917854D01*
X-1602333Y-927303D01*
X-1598218Y-936244D01*
X-1592580Y-944270D01*
X-1585620Y-951230D01*
X-1577594Y-956868D01*
X-1568653Y-960983D01*
X-1559204Y-963523D01*
X-1549400Y-964387D01*
X-1539595Y-963523D01*
X-1530146Y-960983D01*
X-1521206Y-956868D01*
X-1513941Y-951737D01*
X-1510182Y-950112D01*
X-1506067Y-950112D01*
X-1502308Y-951737D01*
X-1495044Y-956868D01*
X-1486103Y-960983D01*
X-1476654Y-963523D01*
X-1466850Y-964387D01*
X-1457045Y-963523D01*
X-1447596Y-960983D01*
X-1438656Y-956868D01*
X-1430629Y-951230D01*
X-1423670Y-944270D01*
X-1418031Y-936244D01*
X-1413916Y-927303D01*
X-1411376Y-917854D01*
X-1410512Y-908050D01*
X-1411376Y-898245D01*
X-1413916Y-888796D01*
X-1418031Y-879856D01*
X-1423670Y-871829D01*
X-1430629Y-864869D01*
X-1438656Y-859231D01*
X-1447596Y-855116D01*
X-1457045Y-852576D01*
X-1466850Y-851712D01*
X-1476654Y-852576D01*
X-1486103Y-855116D01*
X-1495044Y-859231D01*
X-1502308Y-864362D01*
X-1506067Y-865987D01*
X-1510182Y-865987D01*
X-1513941Y-864362D01*
X-1521206Y-859231D01*
X-1530146Y-855116D01*
X-1539595Y-852576D01*
X-1549400Y-851712D01*
X-1559204Y-852576D01*
X-1568653Y-855116D01*
X-1577594Y-859231D01*
X-1585620Y-864869D01*
X-1592580Y-871829D01*
X-1598218Y-879856D01*
X-1599387Y-882396D01*
X-1601673Y-885545D01*
X-1604975Y-887628D01*
X-1608836Y-888288D01*
X-1612646Y-887425D01*
X-1615846Y-885240D01*
X-1617980Y-881938D01*
X-1618742Y-878128D01*
X-1618742Y-798271D01*
X-1617980Y-794461D01*
X-1615846Y-791210D01*
X-1612646Y-788974D01*
X-1608836Y-788111D01*
X-1604975Y-788771D01*
X-1601673Y-790854D01*
X-1599387Y-794004D01*
X-1598218Y-796544D01*
X-1592580Y-804570D01*
X-1585620Y-811530D01*
X-1577594Y-817168D01*
X-1568653Y-821283D01*
X-1559204Y-823823D01*
X-1549400Y-824687D01*
X-1539595Y-823823D01*
X-1530146Y-821283D01*
X-1521206Y-817168D01*
X-1513941Y-812038D01*
X-1510182Y-810412D01*
X-1506067Y-810412D01*
X-1502308Y-812038D01*
X-1495044Y-817168D01*
X-1486103Y-821283D01*
X-1476654Y-823823D01*
X-1466850Y-824687D01*
X-1457045Y-823823D01*
X-1447596Y-821283D01*
X-1438656Y-817168D01*
X-1430629Y-811530D01*
X-1423670Y-804570D01*
X-1418031Y-796544D01*
X-1413916Y-787603D01*
X-1411376Y-778154D01*
X-1410512Y-768350D01*
X-1411376Y-758545D01*
X-1412798Y-753211D01*
X-1413052Y-749300D01*
X-1411884Y-745642D01*
X-1409395Y-742645D01*
X-1405940Y-740867D01*
X-1391666Y-739648D01*
X-1382166Y-737108D01*
X-1373276Y-732942D01*
X-1365199Y-727303D01*
X-1358646Y-720699D01*
X-1355394Y-718566D01*
X-1351635Y-717753D01*
X-1347825Y-718413D01*
X-1344523Y-720496D01*
X-1342237Y-723595D01*
X-1337868Y-733044D01*
X-1332230Y-741070D01*
X-1325270Y-748030D01*
X-1317244Y-753668D01*
X-1308303Y-757783D01*
X-1302867Y-759256D01*
X-1299667Y-760730D01*
X-1297178Y-763270D01*
X-1295704Y-766419D01*
X-1295400Y-770229D01*
X-1296314Y-773633D01*
X-1298346Y-776528D01*
X-1301242Y-778560D01*
X-1310894Y-783031D01*
X-1318920Y-788670D01*
X-1325880Y-795629D01*
X-1331518Y-803656D01*
X-1335633Y-812596D01*
X-1338173Y-822045D01*
X-1339037Y-831850D01*
X-1338173Y-841654D01*
X-1335633Y-851103D01*
X-1331518Y-860044D01*
X-1325880Y-868070D01*
X-1318920Y-875030D01*
X-1310894Y-880668D01*
X-1306017Y-882903D01*
X-1302715Y-885393D01*
X-1300683Y-888949D01*
X-1300175Y-893013D01*
X-1300937Y-901700D01*
X-1300429Y-907796D01*
X-1300734Y-911301D01*
X-1302207Y-914501D01*
X-1304696Y-916990D01*
X-1317244Y-922731D01*
X-1325270Y-928369D01*
X-1332230Y-935329D01*
X-1337868Y-943356D01*
X-1341983Y-952296D01*
X-1344523Y-961745D01*
X-1345387Y-971550D01*
X-1344523Y-981354D01*
X-1341983Y-990803D01*
X-1337868Y-999744D01*
X-1332230Y-1007770D01*
X-1325270Y-1014730D01*
X-1317244Y-1020368D01*
X-1308303Y-1024483D01*
X-1298854Y-1027023D01*
X-1289050Y-1027887D01*
X-1279245Y-1027023D01*
X-1269796Y-1024483D01*
X-1260856Y-1020368D01*
X-1253591Y-1015237D01*
X-1249832Y-1013612D01*
X-1245717Y-1013612D01*
X-1241958Y-1015237D01*
X-1234694Y-1020368D01*
X-1225753Y-1024483D01*
X-1216304Y-1027023D01*
X-1206500Y-1027887D01*
X-1196695Y-1027023D01*
X-1187246Y-1024483D01*
X-1173632Y-1018082D01*
X-1169517Y-1018082D01*
X-1155903Y-1024483D01*
X-1146454Y-1027023D01*
X-1136650Y-1027887D01*
X-1126845Y-1027023D01*
X-1117396Y-1024483D01*
X-1108456Y-1020368D01*
X-1100429Y-1014730D01*
X-1093470Y-1007770D01*
X-1087831Y-999744D01*
X-1083716Y-990803D01*
X-1081176Y-981354D01*
X-1080312Y-971550D01*
X-1081176Y-961745D01*
X-1083716Y-952296D01*
X-1087831Y-943356D01*
X-1093470Y-935329D01*
X-1100429Y-928369D01*
X-1102258Y-927100D01*
X-1104747Y-924610D01*
X-1106271Y-921410D01*
X-1106576Y-917905D01*
X-1105712Y-908050D01*
X-1106779Y-894181D01*
X-1105408Y-890320D01*
X-1102563Y-887323D01*
X-1094079Y-881380D01*
X-1087120Y-874420D01*
X-1081481Y-866394D01*
X-1077366Y-857453D01*
X-1074826Y-848004D01*
X-1073962Y-838200D01*
X-1074826Y-828395D01*
X-1077366Y-818946D01*
X-1081481Y-810006D01*
X-1087120Y-801979D01*
X-1094079Y-795020D01*
X-1102563Y-789076D01*
X-1105408Y-786079D01*
X-1106779Y-782218D01*
X-1105712Y-768350D01*
X-1106779Y-754481D01*
X-1105408Y-750620D01*
X-1102563Y-747623D01*
X-1094079Y-741680D01*
X-1087120Y-734720D01*
X-1081481Y-726694D01*
X-1077366Y-717753D01*
X-1074826Y-708304D01*
X-1073962Y-698500D01*
X-1074826Y-688695D01*
X-1077366Y-679246D01*
X-1081481Y-670306D01*
X-1087120Y-662279D01*
X-1094079Y-655320D01*
X-1102106Y-649681D01*
X-1111046Y-645566D01*
X-1120495Y-643026D01*
X-1130300Y-642162D01*
X-1140104Y-643026D01*
X-1149553Y-645566D01*
X-1158494Y-649681D01*
X-1162558Y-652576D01*
X-1166368Y-654202D01*
X-1170432Y-654202D01*
X-1174242Y-652576D01*
X-1178306Y-649681D01*
X-1187246Y-645566D01*
X-1196695Y-643026D01*
X-1206500Y-642162D01*
X-1216304Y-643026D01*
X-1225753Y-645566D01*
X-1234389Y-649579D01*
X-1238656Y-650544D01*
X-1242923Y-649630D01*
X-1246428Y-646988D01*
X-1248460Y-643128D01*
X-1248714Y-638810D01*
X-1247140Y-634746D01*
X-1236065Y-618083D01*
X-1233170Y-612444D01*
X-1231646Y-606653D01*
X-1231392Y-602894D01*
X-1231392Y-241604D01*
X-1232052Y-235559D01*
X-1233982Y-230073D01*
X-1237081Y-225145D01*
X-1248410Y-213563D01*
X-1250594Y-210261D01*
X-1251407Y-206400D01*
X-1250594Y-202488D01*
X-1248410Y-199186D01*
X-1242110Y-192887D01*
X-1238300Y-188163D01*
X-1235760Y-182930D01*
X-1234490Y-177241D01*
X-1234287Y-174091D01*
X-1234287Y111099D01*
X-1234948Y117144D01*
X-1236878Y122580D01*
X-1239977Y127508D01*
X-1242212Y129997D01*
X-1276807Y164287D01*
X-1279144Y167843D01*
X-1279804Y172008D01*
X-1278686Y176123D01*
X-1276045Y179425D01*
X-1272286Y181305D01*
X-1269796Y182016D01*
X-1260856Y186131D01*
X-1253591Y191262D01*
X-1249832Y192887D01*
X-1245717Y192887D01*
X-1241958Y191262D01*
X-1234694Y186131D01*
X-1225753Y182016D01*
X-1216304Y179476D01*
X-1206500Y178612D01*
X-1196695Y179476D01*
X-1187246Y182016D01*
X-1178306Y186131D01*
X-1174242Y189026D01*
X-1170432Y190652D01*
X-1166368Y190652D01*
X-1162558Y189026D01*
X-1158494Y186131D01*
X-1149553Y182016D01*
X-1140104Y179476D01*
X-1130300Y178612D01*
X-1120495Y179476D01*
X-1111046Y182016D01*
X-1102106Y186131D01*
X-1094079Y191770D01*
X-1087120Y198729D01*
X-1081481Y206756D01*
X-1077366Y215696D01*
X-1074826Y225145D01*
X-1073962Y234950D01*
X-1074826Y244754D01*
X-1077366Y254203D01*
X-1081481Y263144D01*
X-1087120Y271170D01*
X-1094079Y278130D01*
X-1101902Y283616D01*
X-1104392Y286105D01*
X-1105865Y289306D01*
X-1106170Y292811D01*
X-1105712Y298450D01*
X-1107033Y312420D01*
X-1106119Y315823D01*
X-1104087Y318719D01*
X-1101191Y320751D01*
X-1099261Y321665D01*
X-1091184Y327304D01*
X-1084275Y334213D01*
X-1078636Y342290D01*
X-1074470Y351180D01*
X-1071930Y360680D01*
X-1071067Y370433D01*
X-1071930Y380238D01*
X-1074470Y389737D01*
X-1078636Y398627D01*
X-1084275Y406704D01*
X-1091184Y413613D01*
X-1099261Y419252D01*
X-1102055Y420573D01*
X-1105001Y422656D01*
X-1107033Y425704D01*
X-1107897Y429209D01*
X-1108100Y433730D01*
X-1107541Y437692D01*
X-1105509Y441096D01*
X-1102258Y443484D01*
X-1095756Y446481D01*
X-1087729Y452120D01*
X-1080770Y459079D01*
X-1075131Y467106D01*
X-1070813Y476453D01*
X-1068120Y479958D01*
X-1064209Y481990D01*
X-1059840Y482193D01*
X-1055776Y480466D01*
X-1047648Y474776D01*
X-1038707Y470662D01*
X-1029258Y468122D01*
X-1019454Y467258D01*
X-1009650Y468122D01*
X-1000201Y470662D01*
X-991260Y474776D01*
X-983234Y480415D01*
X-978712Y484936D01*
X-975461Y487121D01*
X-971550Y487883D01*
X-967638Y487121D01*
X-955294Y478231D01*
X-946353Y474116D01*
X-936904Y471576D01*
X-927100Y470712D01*
X-917295Y471576D01*
X-907846Y474116D01*
X-898906Y478231D01*
X-890879Y483870D01*
X-883462Y491286D01*
X-880211Y493471D01*
X-876300Y494233D01*
X-872388Y493471D01*
X-869137Y491286D01*
X-861720Y483870D01*
X-853694Y478231D01*
X-844753Y474116D01*
X-835304Y471576D01*
X-825500Y470712D01*
X-815695Y471576D01*
X-806246Y474116D01*
X-797306Y478231D01*
X-789279Y483870D01*
X-782320Y490829D01*
X-776681Y498856D01*
X-772566Y507796D01*
X-770026Y517245D01*
X-769162Y527050D01*
X-770026Y536854D01*
X-770585Y538988D01*
X-770839Y542950D01*
X-769569Y546709D01*
X-766978Y549706D01*
X-763422Y551434D01*
X-756767Y553212D01*
X-747877Y557377D01*
X-739800Y563016D01*
X-732891Y569925D01*
X-727252Y578002D01*
X-723087Y586892D01*
X-720547Y596392D01*
X-719683Y606145D01*
X-720547Y615950D01*
X-723087Y625449D01*
X-727252Y634339D01*
X-732891Y642416D01*
X-739800Y649325D01*
X-747877Y654964D01*
X-756767Y659130D01*
X-766267Y661670D01*
X-776020Y662533D01*
X-785825Y661670D01*
X-795324Y659130D01*
X-804214Y654964D01*
X-812901Y648868D01*
X-816660Y647242D01*
X-820775Y647242D01*
X-824585Y648868D01*
X-829056Y652068D01*
X-837996Y656183D01*
X-847445Y658723D01*
X-857250Y659587D01*
X-867054Y658723D01*
X-876503Y656183D01*
X-885444Y652068D01*
X-893470Y646430D01*
X-900887Y639013D01*
X-904138Y636828D01*
X-908050Y636066D01*
X-911961Y636828D01*
X-915212Y639013D01*
X-922629Y646430D01*
X-930656Y652068D01*
X-939596Y656183D01*
X-949045Y658723D01*
X-958850Y659587D01*
X-968654Y658723D01*
X-978103Y656183D01*
X-987044Y652068D01*
X-995070Y646430D01*
X-1002030Y639470D01*
X-1007668Y631444D01*
X-1011783Y622503D01*
X-1014323Y613054D01*
X-1015187Y603250D01*
X-1013866Y588010D01*
X-1015542Y583946D01*
X-1018794Y580948D01*
X-1022959Y579628D01*
X-1029258Y579069D01*
X-1038707Y576529D01*
X-1047648Y572414D01*
X-1055674Y566775D01*
X-1062634Y559816D01*
X-1068273Y551789D01*
X-1072591Y542442D01*
X-1075283Y538937D01*
X-1079195Y536905D01*
X-1083564Y536702D01*
X-1087628Y538429D01*
X-1095756Y544118D01*
X-1105458Y548640D01*
X-1107744Y550062D01*
X-1110234Y553059D01*
X-1111402Y555345D01*
X-1111961Y557936D01*
X-1112824Y567486D01*
X-1112316Y571550D01*
X-1110284Y575106D01*
X-1106982Y577596D01*
X-1102106Y579831D01*
X-1094079Y585470D01*
X-1087120Y592429D01*
X-1081481Y600456D01*
X-1077366Y609396D01*
X-1074826Y618845D01*
X-1073962Y628650D01*
X-1074826Y638454D01*
X-1077366Y647903D01*
X-1081481Y656844D01*
X-1087120Y664870D01*
X-1094079Y671830D01*
X-1102106Y677468D01*
X-1111046Y681583D01*
X-1120495Y684123D01*
X-1130300Y684987D01*
X-1140104Y684123D01*
X-1149553Y681583D01*
X-1158494Y677468D01*
X-1170838Y668578D01*
X-1174750Y667816D01*
X-1178661Y668578D01*
X-1191006Y677468D01*
X-1199946Y681583D01*
X-1209395Y684123D01*
X-1219200Y684987D01*
X-1229004Y684123D01*
X-1238453Y681583D01*
X-1247394Y677468D01*
X-1254658Y672338D01*
X-1258417Y670712D01*
X-1262532Y670712D01*
X-1266291Y672338D01*
X-1273556Y677468D01*
X-1282496Y681583D01*
X-1291945Y684123D01*
X-1301750Y684987D01*
X-1311554Y684123D01*
X-1321003Y681583D01*
X-1329944Y677468D01*
X-1337970Y671830D01*
X-1339596Y670204D01*
X-1342898Y667969D01*
X-1346758Y667207D01*
X-1350670Y667969D01*
X-1353972Y670204D01*
X-1356563Y672795D01*
X-1364640Y678434D01*
X-1373530Y682599D01*
X-1383030Y685139D01*
X-1392783Y686003D01*
X-1402588Y685139D01*
X-1412087Y682599D01*
X-1420977Y678434D01*
X-1429054Y672795D01*
X-1432204Y669645D01*
X-1435506Y667461D01*
X-1439367Y666648D01*
X-1443278Y667461D01*
X-1446580Y669645D01*
X-1453489Y676554D01*
X-1461516Y682193D01*
X-1470456Y686358D01*
X-1479905Y688898D01*
X-1489710Y689762D01*
X-1499514Y688898D01*
X-1508963Y686358D01*
X-1517904Y682193D01*
X-1525930Y676554D01*
X-1532890Y669645D01*
X-1538528Y661568D01*
X-1542643Y652678D01*
X-1545183Y643178D01*
X-1546047Y633374D01*
X-1545742Y629564D01*
X-1546047Y626008D01*
X-1547520Y622808D01*
X-1550009Y620318D01*
X-1553210Y618845D01*
X-1555953Y618083D01*
X-1564894Y613968D01*
X-1572920Y608330D01*
X-1579880Y601370D01*
X-1585518Y593344D01*
X-1589633Y584403D01*
X-1592326Y574497D01*
X-1594256Y570687D01*
X-1597558Y568045D01*
X-1601673Y566978D01*
X-1605889Y567690D01*
X-1609394Y570026D01*
X-1614779Y578459D01*
X-1619808Y583336D01*
X-1644345Y601726D01*
X-1648968Y604520D01*
X-1654505Y606501D01*
X-1660855Y607212D01*
X-1983536Y607212D01*
X-1989886Y606501D01*
X-1995322Y604570D01*
X-2000250Y601472D01*
X-2004466Y597255D01*
X-2006803Y593801D01*
X-2012543Y583742D01*
X-2015134Y580745D01*
X-2018639Y578967D01*
X-2022551Y578662D01*
X-2026310Y579882D01*
X-2029307Y582422D01*
X-2046071Y603351D01*
X-2050592Y607872D01*
X-2055469Y610920D01*
X-2060956Y612851D01*
X-2067356Y613562D01*
X-2787294Y610108D01*
X-2792577Y609549D01*
X-2798165Y607822D01*
X-2803652Y604570D01*
X-2809494Y600202D01*
X-2813558Y598373D01*
X-2818028Y598474D01*
X-2822041Y600456D01*
X-2824784Y603961D01*
X-2825750Y608330D01*
X-2825750Y1691233D01*
X-2824988Y1695094D01*
X-2822803Y1698396D01*
X-2714447Y1806752D01*
X-2711145Y1808988D01*
X-2707233Y1809750D01*
X2148433Y1809750D01*
X2152294Y1808988D01*
X2155596Y1806752D01*
X2263952Y1698396D01*
X2266188Y1695094D01*
X2266950Y1691233D01*
X2266950Y528015D01*
X2267661Y526338D01*
X2556052Y237896D01*
X2558288Y234594D01*
X2559050Y230733D01*
X2559050Y-2910433D01*
X2558288Y-2914345D01*
X2556052Y-2917647D01*
X2267661Y-3206038D01*
X2266950Y-3207766D01*
X2266950Y-3253333D01*
X2266188Y-3257245D01*
X2263952Y-3260547D01*
X2142896Y-3381603D01*
X2139594Y-3383787D01*
X2135733Y-3384550D01*
G37*

%LPC*%
G36*
X-1616913Y-3300729D02*
G01*
X-1438046Y-3300729D01*
X-1431696Y-3300018D01*
X-1426260Y-3298088D01*
X-1421333Y-3295040D01*
X-1417269Y-3290925D01*
X-1414170Y-3286048D01*
X-1412290Y-3280562D01*
X-1411579Y-3274263D01*
X-1411579Y-3095396D01*
X-1412290Y-3089046D01*
X-1414170Y-3083610D01*
X-1417269Y-3078683D01*
X-1421333Y-3074619D01*
X-1426260Y-3071520D01*
X-1431696Y-3069640D01*
X-1438046Y-3068929D01*
X-1616913Y-3068929D01*
X-1623212Y-3069640D01*
X-1628698Y-3071520D01*
X-1633575Y-3074619D01*
X-1637690Y-3078683D01*
X-1640738Y-3083610D01*
X-1642668Y-3089046D01*
X-1643380Y-3095396D01*
X-1643380Y-3274263D01*
X-1642668Y-3280562D01*
X-1640738Y-3286048D01*
X-1637690Y-3290925D01*
X-1633575Y-3295040D01*
X-1628698Y-3298088D01*
X-1623212Y-3300018D01*
G37*
G36*
X669086Y-3300729D02*
G01*
X847953Y-3300729D01*
X854303Y-3300018D01*
X859739Y-3298088D01*
X864666Y-3295040D01*
X868730Y-3290925D01*
X871829Y-3286048D01*
X873709Y-3280562D01*
X874420Y-3274263D01*
X874420Y-3095396D01*
X873709Y-3089046D01*
X871829Y-3083610D01*
X868730Y-3078683D01*
X864666Y-3074619D01*
X859739Y-3071520D01*
X854303Y-3069640D01*
X847953Y-3068929D01*
X669086Y-3068929D01*
X662787Y-3069640D01*
X657301Y-3071520D01*
X652424Y-3074619D01*
X648309Y-3078683D01*
X645261Y-3083610D01*
X643331Y-3089046D01*
X642620Y-3095396D01*
X642620Y-3274263D01*
X643331Y-3280562D01*
X645261Y-3286048D01*
X648309Y-3290925D01*
X652424Y-3295040D01*
X657301Y-3298088D01*
X662787Y-3300018D01*
G37*
G36*
X1513281Y-3300476D02*
G01*
X1527810Y-3300476D01*
X1542237Y-3298647D01*
X1556359Y-3295040D01*
X1569872Y-3289655D01*
X1582623Y-3282645D01*
X1594408Y-3274110D01*
X1605026Y-3264153D01*
X1614271Y-3252927D01*
X1622094Y-3240633D01*
X1628292Y-3227476D01*
X1632762Y-3213658D01*
X1635506Y-3199333D01*
X1636420Y-3184804D01*
X1635506Y-3170275D01*
X1632762Y-3156000D01*
X1628292Y-3142132D01*
X1622094Y-3128975D01*
X1614271Y-3116681D01*
X1605026Y-3105505D01*
X1594408Y-3095498D01*
X1582623Y-3086963D01*
X1569872Y-3079953D01*
X1556359Y-3074619D01*
X1542237Y-3070961D01*
X1527810Y-3069132D01*
X1513281Y-3069132D01*
X1498803Y-3070961D01*
X1484731Y-3074619D01*
X1471168Y-3079953D01*
X1458417Y-3086963D01*
X1446682Y-3095498D01*
X1436065Y-3105505D01*
X1426768Y-3116681D01*
X1418996Y-3128975D01*
X1412798Y-3142132D01*
X1408277Y-3156000D01*
X1405534Y-3170275D01*
X1404620Y-3184804D01*
X1405534Y-3199333D01*
X1408277Y-3213658D01*
X1412798Y-3227476D01*
X1418996Y-3240633D01*
X1426768Y-3252927D01*
X1436065Y-3264153D01*
X1446682Y-3274110D01*
X1458417Y-3282645D01*
X1471168Y-3289655D01*
X1484731Y-3295040D01*
X1498803Y-3298647D01*
G37*
G36*
X1259281Y-3300476D02*
G01*
X1273810Y-3300476D01*
X1288237Y-3298647D01*
X1302359Y-3295040D01*
X1315872Y-3289655D01*
X1328623Y-3282645D01*
X1340408Y-3274110D01*
X1351026Y-3264153D01*
X1360271Y-3252927D01*
X1368094Y-3240633D01*
X1374292Y-3227476D01*
X1378762Y-3213658D01*
X1381506Y-3199333D01*
X1382420Y-3184804D01*
X1381506Y-3170275D01*
X1378762Y-3156000D01*
X1374292Y-3142132D01*
X1368094Y-3128975D01*
X1360271Y-3116681D01*
X1351026Y-3105505D01*
X1340408Y-3095498D01*
X1328623Y-3086963D01*
X1315872Y-3079953D01*
X1302359Y-3074619D01*
X1288237Y-3070961D01*
X1273810Y-3069132D01*
X1259281Y-3069132D01*
X1244803Y-3070961D01*
X1230731Y-3074619D01*
X1217168Y-3079953D01*
X1204417Y-3086963D01*
X1192682Y-3095498D01*
X1182065Y-3105505D01*
X1172768Y-3116681D01*
X1164996Y-3128975D01*
X1158798Y-3142132D01*
X1154277Y-3156000D01*
X1151534Y-3170275D01*
X1150620Y-3184804D01*
X1151534Y-3199333D01*
X1154277Y-3213658D01*
X1158798Y-3227476D01*
X1164996Y-3240633D01*
X1172768Y-3252927D01*
X1182065Y-3264153D01*
X1192682Y-3274110D01*
X1204417Y-3282645D01*
X1217168Y-3289655D01*
X1230731Y-3295040D01*
X1244803Y-3298647D01*
G37*
G36*
X-1026718Y-3300476D02*
G01*
X-1012190Y-3300476D01*
X-997762Y-3298647D01*
X-983640Y-3295040D01*
X-970127Y-3289655D01*
X-957376Y-3282645D01*
X-945591Y-3274110D01*
X-934974Y-3264153D01*
X-925728Y-3252927D01*
X-917905Y-3240633D01*
X-911707Y-3227476D01*
X-907237Y-3213658D01*
X-904494Y-3199333D01*
X-903579Y-3184804D01*
X-904494Y-3170275D01*
X-907237Y-3156000D01*
X-911707Y-3142132D01*
X-917905Y-3128975D01*
X-925728Y-3116681D01*
X-934974Y-3105505D01*
X-945591Y-3095498D01*
X-957376Y-3086963D01*
X-970127Y-3079953D01*
X-983640Y-3074619D01*
X-997762Y-3070961D01*
X-1012190Y-3069132D01*
X-1026718Y-3069132D01*
X-1041196Y-3070961D01*
X-1055268Y-3074619D01*
X-1068832Y-3079953D01*
X-1081582Y-3086963D01*
X-1093317Y-3095498D01*
X-1103934Y-3105505D01*
X-1113231Y-3116681D01*
X-1121003Y-3128975D01*
X-1127201Y-3142132D01*
X-1131722Y-3156000D01*
X-1134465Y-3170275D01*
X-1135380Y-3184804D01*
X-1134465Y-3199333D01*
X-1131722Y-3213658D01*
X-1127201Y-3227476D01*
X-1121003Y-3240633D01*
X-1113231Y-3252927D01*
X-1103934Y-3264153D01*
X-1093317Y-3274110D01*
X-1081582Y-3282645D01*
X-1068832Y-3289655D01*
X-1055268Y-3295040D01*
X-1041196Y-3298647D01*
G37*
G36*
X-772718Y-3300476D02*
G01*
X-758190Y-3300476D01*
X-743762Y-3298647D01*
X-729640Y-3295040D01*
X-716127Y-3289655D01*
X-703376Y-3282645D01*
X-691591Y-3274110D01*
X-680974Y-3264153D01*
X-671728Y-3252927D01*
X-663905Y-3240633D01*
X-657707Y-3227476D01*
X-653237Y-3213658D01*
X-650494Y-3199333D01*
X-649579Y-3184804D01*
X-650494Y-3170275D01*
X-653237Y-3156000D01*
X-657707Y-3142132D01*
X-663905Y-3128975D01*
X-671728Y-3116681D01*
X-680974Y-3105505D01*
X-691591Y-3095498D01*
X-703376Y-3086963D01*
X-716127Y-3079953D01*
X-729640Y-3074619D01*
X-743762Y-3070961D01*
X-758190Y-3069132D01*
X-772718Y-3069132D01*
X-787196Y-3070961D01*
X-801268Y-3074619D01*
X-814832Y-3079953D01*
X-827582Y-3086963D01*
X-839317Y-3095498D01*
X-849934Y-3105505D01*
X-859231Y-3116681D01*
X-867003Y-3128975D01*
X-873201Y-3142132D01*
X-877722Y-3156000D01*
X-880465Y-3170275D01*
X-881380Y-3184804D01*
X-880465Y-3199333D01*
X-877722Y-3213658D01*
X-873201Y-3227476D01*
X-867003Y-3240633D01*
X-859231Y-3252927D01*
X-849934Y-3264153D01*
X-839317Y-3274110D01*
X-827582Y-3282645D01*
X-814832Y-3289655D01*
X-801268Y-3295040D01*
X-787196Y-3298647D01*
G37*
G36*
X1767281Y-3300476D02*
G01*
X1781810Y-3300476D01*
X1796237Y-3298647D01*
X1810359Y-3295040D01*
X1823872Y-3289655D01*
X1836623Y-3282645D01*
X1848408Y-3274110D01*
X1859025Y-3264153D01*
X1868271Y-3252927D01*
X1876094Y-3240633D01*
X1882292Y-3227476D01*
X1886762Y-3213658D01*
X1889506Y-3199333D01*
X1890420Y-3184804D01*
X1889506Y-3170275D01*
X1886762Y-3156000D01*
X1882292Y-3142132D01*
X1876094Y-3128975D01*
X1868271Y-3116681D01*
X1859025Y-3105505D01*
X1848408Y-3095498D01*
X1836623Y-3086963D01*
X1823872Y-3079953D01*
X1810359Y-3074619D01*
X1796237Y-3070961D01*
X1781810Y-3069132D01*
X1767281Y-3069132D01*
X1752803Y-3070961D01*
X1738731Y-3074619D01*
X1725168Y-3079953D01*
X1712417Y-3086963D01*
X1700682Y-3095498D01*
X1690065Y-3105505D01*
X1680768Y-3116681D01*
X1672996Y-3128975D01*
X1666798Y-3142132D01*
X1662277Y-3156000D01*
X1659534Y-3170275D01*
X1658620Y-3184804D01*
X1659534Y-3199333D01*
X1662277Y-3213658D01*
X1666798Y-3227476D01*
X1672996Y-3240633D01*
X1680768Y-3252927D01*
X1690065Y-3264153D01*
X1700682Y-3274110D01*
X1712417Y-3282645D01*
X1725168Y-3289655D01*
X1738731Y-3295040D01*
X1752803Y-3298647D01*
G37*
G36*
X1005281Y-3300476D02*
G01*
X1019810Y-3300476D01*
X1034237Y-3298647D01*
X1048359Y-3295040D01*
X1061872Y-3289655D01*
X1074623Y-3282645D01*
X1086408Y-3274110D01*
X1097026Y-3264153D01*
X1106271Y-3252927D01*
X1114094Y-3240633D01*
X1120292Y-3227476D01*
X1124762Y-3213658D01*
X1127506Y-3199333D01*
X1128420Y-3184804D01*
X1127506Y-3170275D01*
X1124762Y-3156000D01*
X1120292Y-3142132D01*
X1114094Y-3128975D01*
X1106271Y-3116681D01*
X1097026Y-3105505D01*
X1086408Y-3095498D01*
X1074623Y-3086963D01*
X1061872Y-3079953D01*
X1048359Y-3074619D01*
X1034237Y-3070961D01*
X1019810Y-3069132D01*
X1005281Y-3069132D01*
X990803Y-3070961D01*
X976731Y-3074619D01*
X963168Y-3079953D01*
X950417Y-3086963D01*
X938682Y-3095498D01*
X928065Y-3105505D01*
X918768Y-3116681D01*
X910996Y-3128975D01*
X904798Y-3142132D01*
X900277Y-3156000D01*
X897534Y-3170275D01*
X896619Y-3184804D01*
X897534Y-3199333D01*
X900277Y-3213658D01*
X904798Y-3227476D01*
X910996Y-3240633D01*
X918768Y-3252927D01*
X928065Y-3264153D01*
X938682Y-3274110D01*
X950417Y-3282645D01*
X963168Y-3289655D01*
X976731Y-3295040D01*
X990803Y-3298647D01*
G37*
G36*
X243281Y-3300476D02*
G01*
X257810Y-3300476D01*
X272237Y-3298647D01*
X286359Y-3295040D01*
X299872Y-3289655D01*
X312623Y-3282645D01*
X324408Y-3274110D01*
X335026Y-3264153D01*
X344271Y-3252927D01*
X352094Y-3240633D01*
X358292Y-3227476D01*
X362762Y-3213658D01*
X365506Y-3199333D01*
X366420Y-3184804D01*
X365506Y-3170275D01*
X362762Y-3156000D01*
X358292Y-3142132D01*
X352094Y-3128975D01*
X344271Y-3116681D01*
X335026Y-3105505D01*
X324408Y-3095498D01*
X312623Y-3086963D01*
X299872Y-3079953D01*
X286359Y-3074619D01*
X272237Y-3070961D01*
X257810Y-3069132D01*
X243281Y-3069132D01*
X228803Y-3070961D01*
X214731Y-3074619D01*
X201168Y-3079953D01*
X188417Y-3086963D01*
X176682Y-3095498D01*
X166065Y-3105505D01*
X156768Y-3116681D01*
X148996Y-3128975D01*
X142798Y-3142132D01*
X138277Y-3156000D01*
X135534Y-3170275D01*
X134620Y-3184804D01*
X135534Y-3199333D01*
X138277Y-3213658D01*
X142798Y-3227476D01*
X148996Y-3240633D01*
X156768Y-3252927D01*
X166065Y-3264153D01*
X176682Y-3274110D01*
X188417Y-3282645D01*
X201168Y-3289655D01*
X214731Y-3295040D01*
X228803Y-3298647D01*
G37*
G36*
X-1280718Y-3300476D02*
G01*
X-1266190Y-3300476D01*
X-1251762Y-3298647D01*
X-1237640Y-3295040D01*
X-1224127Y-3289655D01*
X-1211376Y-3282645D01*
X-1199591Y-3274110D01*
X-1188974Y-3264153D01*
X-1179728Y-3252927D01*
X-1171905Y-3240633D01*
X-1165707Y-3227476D01*
X-1161237Y-3213658D01*
X-1158494Y-3199333D01*
X-1157579Y-3184804D01*
X-1158494Y-3170275D01*
X-1161237Y-3156000D01*
X-1165707Y-3142132D01*
X-1171905Y-3128975D01*
X-1179728Y-3116681D01*
X-1188974Y-3105505D01*
X-1199591Y-3095498D01*
X-1211376Y-3086963D01*
X-1224127Y-3079953D01*
X-1237640Y-3074619D01*
X-1251762Y-3070961D01*
X-1266190Y-3069132D01*
X-1280718Y-3069132D01*
X-1295196Y-3070961D01*
X-1309268Y-3074619D01*
X-1322832Y-3079953D01*
X-1335582Y-3086963D01*
X-1347317Y-3095498D01*
X-1357934Y-3105505D01*
X-1367231Y-3116681D01*
X-1375003Y-3128975D01*
X-1381201Y-3142132D01*
X-1385722Y-3156000D01*
X-1388465Y-3170275D01*
X-1389380Y-3184804D01*
X-1388465Y-3199333D01*
X-1385722Y-3213658D01*
X-1381201Y-3227476D01*
X-1375003Y-3240633D01*
X-1367231Y-3252927D01*
X-1357934Y-3264153D01*
X-1347317Y-3274110D01*
X-1335582Y-3282645D01*
X-1322832Y-3289655D01*
X-1309268Y-3295040D01*
X-1295196Y-3298647D01*
G37*
G36*
X2021281Y-3300476D02*
G01*
X2035810Y-3300476D01*
X2050237Y-3298647D01*
X2064359Y-3295040D01*
X2077872Y-3289655D01*
X2090623Y-3282645D01*
X2102408Y-3274110D01*
X2113026Y-3264153D01*
X2122271Y-3252927D01*
X2130094Y-3240633D01*
X2136292Y-3227476D01*
X2140762Y-3213658D01*
X2143506Y-3199333D01*
X2144420Y-3184804D01*
X2143506Y-3170275D01*
X2140762Y-3156000D01*
X2136292Y-3142132D01*
X2130094Y-3128975D01*
X2122271Y-3116681D01*
X2113026Y-3105505D01*
X2102408Y-3095498D01*
X2090623Y-3086963D01*
X2077872Y-3079953D01*
X2064359Y-3074619D01*
X2050237Y-3070961D01*
X2035810Y-3069132D01*
X2021281Y-3069132D01*
X2006803Y-3070961D01*
X1992731Y-3074619D01*
X1979168Y-3079953D01*
X1966417Y-3086963D01*
X1954682Y-3095498D01*
X1944065Y-3105505D01*
X1934768Y-3116681D01*
X1926996Y-3128975D01*
X1920798Y-3142132D01*
X1916277Y-3156000D01*
X1913534Y-3170275D01*
X1912620Y-3184804D01*
X1913534Y-3199333D01*
X1916277Y-3213658D01*
X1920798Y-3227476D01*
X1926996Y-3240633D01*
X1934768Y-3252927D01*
X1944065Y-3264153D01*
X1954682Y-3274110D01*
X1966417Y-3282645D01*
X1979168Y-3289655D01*
X1992731Y-3295040D01*
X2006803Y-3298647D01*
G37*
G36*
X-518718Y-3300476D02*
G01*
X-504190Y-3300476D01*
X-489762Y-3298647D01*
X-475640Y-3295040D01*
X-462127Y-3289655D01*
X-449376Y-3282645D01*
X-437591Y-3274110D01*
X-426974Y-3264153D01*
X-417728Y-3252927D01*
X-409905Y-3240633D01*
X-403707Y-3227476D01*
X-399237Y-3213658D01*
X-396494Y-3199333D01*
X-395579Y-3184804D01*
X-396494Y-3170275D01*
X-399237Y-3156000D01*
X-403707Y-3142132D01*
X-409905Y-3128975D01*
X-417728Y-3116681D01*
X-426974Y-3105505D01*
X-437591Y-3095498D01*
X-449376Y-3086963D01*
X-462127Y-3079953D01*
X-464108Y-3079140D01*
X-467512Y-3076956D01*
X-469747Y-3073654D01*
X-470560Y-3069742D01*
X-470560Y-3038754D01*
X-471373Y-3030270D01*
X-473709Y-3022600D01*
X-477469Y-3015538D01*
X-482904Y-3008985D01*
X-636727Y-2855112D01*
X-638911Y-2851810D01*
X-639724Y-2847949D01*
X-639724Y-2728976D01*
X-638962Y-2725166D01*
X-636879Y-2721914D01*
X-633730Y-2719679D01*
X-629970Y-2718816D01*
X-626160Y-2719374D01*
X-622858Y-2721305D01*
X-621487Y-2722524D01*
X-613257Y-2727604D01*
X-604316Y-2731160D01*
X-594868Y-2733192D01*
X-585216Y-2733649D01*
X-575665Y-2732379D01*
X-566470Y-2729585D01*
X-557834Y-2725216D01*
X-550062Y-2719476D01*
X-543407Y-2712516D01*
X-538022Y-2704541D01*
X-534009Y-2695752D01*
X-531622Y-2686405D01*
X-530758Y-2676804D01*
X-531622Y-2667203D01*
X-534009Y-2657856D01*
X-538022Y-2649067D01*
X-543407Y-2641092D01*
X-550062Y-2634132D01*
X-557834Y-2628392D01*
X-566470Y-2624023D01*
X-575665Y-2621229D01*
X-585216Y-2619959D01*
X-594868Y-2620416D01*
X-604316Y-2622448D01*
X-613257Y-2626004D01*
X-621487Y-2631084D01*
X-627380Y-2636266D01*
X-630682Y-2638247D01*
X-634492Y-2638806D01*
X-638251Y-2637891D01*
X-641400Y-2635656D01*
X-642924Y-2634132D01*
X-650697Y-2628392D01*
X-659282Y-2624023D01*
X-668528Y-2621229D01*
X-678078Y-2619959D01*
X-687730Y-2620416D01*
X-697128Y-2622448D01*
X-706120Y-2626004D01*
X-714298Y-2631084D01*
X-721563Y-2637434D01*
X-727608Y-2644952D01*
X-732332Y-2653385D01*
X-735533Y-2662478D01*
X-737158Y-2671978D01*
X-737158Y-2681630D01*
X-735533Y-2691130D01*
X-732332Y-2700223D01*
X-727608Y-2708656D01*
X-723798Y-2713380D01*
X-722122Y-2716377D01*
X-721512Y-2719781D01*
X-721512Y-2868574D01*
X-720699Y-2877058D01*
X-718362Y-2884728D01*
X-714603Y-2891790D01*
X-709168Y-2898343D01*
X-555345Y-3052216D01*
X-553110Y-3055518D01*
X-552348Y-3059379D01*
X-552348Y-3069691D01*
X-553161Y-3073654D01*
X-555396Y-3076956D01*
X-558800Y-3079140D01*
X-560832Y-3079953D01*
X-573582Y-3086963D01*
X-585317Y-3095498D01*
X-595934Y-3105505D01*
X-605231Y-3116681D01*
X-613003Y-3128975D01*
X-619201Y-3142132D01*
X-623722Y-3156000D01*
X-626465Y-3170275D01*
X-627380Y-3184804D01*
X-626465Y-3199333D01*
X-623722Y-3213658D01*
X-619201Y-3227476D01*
X-613003Y-3240633D01*
X-605231Y-3252927D01*
X-595934Y-3264153D01*
X-585317Y-3274110D01*
X-573582Y-3282645D01*
X-560832Y-3289655D01*
X-547268Y-3295040D01*
X-533196Y-3298647D01*
G37*
G36*
X-2518054Y-3248152D02*
G01*
X-2497226Y-3247186D01*
X-2476550Y-3244291D01*
X-2456230Y-3239516D01*
X-2436469Y-3232912D01*
X-2417368Y-3224479D01*
X-2399131Y-3214319D01*
X-2381910Y-3202533D01*
X-2365857Y-3189173D01*
X-2351125Y-3174441D01*
X-2337765Y-3158388D01*
X-2325979Y-3141167D01*
X-2315819Y-3122930D01*
X-2307386Y-3103829D01*
X-2300782Y-3084068D01*
X-2296007Y-3063748D01*
X-2293112Y-3043072D01*
X-2292146Y-3022244D01*
X-2293112Y-3001416D01*
X-2296007Y-2980740D01*
X-2300782Y-2960420D01*
X-2307386Y-2940659D01*
X-2315819Y-2921558D01*
X-2325979Y-2903321D01*
X-2337765Y-2886100D01*
X-2351125Y-2870047D01*
X-2365857Y-2855315D01*
X-2381910Y-2841955D01*
X-2399131Y-2830169D01*
X-2417368Y-2820009D01*
X-2436469Y-2811576D01*
X-2456230Y-2804972D01*
X-2476550Y-2800197D01*
X-2497226Y-2797302D01*
X-2518054Y-2796336D01*
X-2538882Y-2797302D01*
X-2559558Y-2800197D01*
X-2579878Y-2804972D01*
X-2599639Y-2811576D01*
X-2618740Y-2820009D01*
X-2636977Y-2830169D01*
X-2654198Y-2841955D01*
X-2670251Y-2855315D01*
X-2684983Y-2870047D01*
X-2698343Y-2886100D01*
X-2710129Y-2903321D01*
X-2720289Y-2921558D01*
X-2728722Y-2940659D01*
X-2735326Y-2960420D01*
X-2740101Y-2980740D01*
X-2742996Y-3001416D01*
X-2743962Y-3022244D01*
X-2742996Y-3043072D01*
X-2740101Y-3063748D01*
X-2735326Y-3084068D01*
X-2728722Y-3103829D01*
X-2720289Y-3122930D01*
X-2710129Y-3141167D01*
X-2698343Y-3158388D01*
X-2684983Y-3174441D01*
X-2670251Y-3189173D01*
X-2654198Y-3202533D01*
X-2636977Y-3214319D01*
X-2618740Y-3224479D01*
X-2599639Y-3232912D01*
X-2579878Y-3239516D01*
X-2559558Y-3244291D01*
X-2538882Y-3247186D01*
G37*
G36*
X2320747Y-2924454D02*
G01*
X2339543Y-2924454D01*
X2358288Y-2922574D01*
X2376728Y-2918764D01*
X2394712Y-2913126D01*
X2412034Y-2905709D01*
X2428494Y-2896565D01*
X2443937Y-2885795D01*
X2458212Y-2873552D01*
X2471216Y-2859887D01*
X2482697Y-2845003D01*
X2492705Y-2829001D01*
X2500985Y-2812135D01*
X2507538Y-2794457D01*
X2512212Y-2776220D01*
X2515108Y-2757627D01*
X2516022Y-2738831D01*
X2515108Y-2719984D01*
X2512212Y-2701391D01*
X2507538Y-2683154D01*
X2500985Y-2665476D01*
X2492705Y-2648610D01*
X2482697Y-2632608D01*
X2471216Y-2617724D01*
X2458212Y-2604058D01*
X2443937Y-2591816D01*
X2428494Y-2581046D01*
X2412034Y-2571902D01*
X2394712Y-2564485D01*
X2376728Y-2558846D01*
X2358288Y-2555036D01*
X2339543Y-2553157D01*
X2320747Y-2553157D01*
X2302002Y-2555036D01*
X2283561Y-2558846D01*
X2265578Y-2564485D01*
X2248255Y-2571902D01*
X2231796Y-2581046D01*
X2216353Y-2591816D01*
X2202078Y-2604058D01*
X2189073Y-2617724D01*
X2177592Y-2632608D01*
X2167585Y-2648610D01*
X2159304Y-2665476D01*
X2152751Y-2683154D01*
X2148078Y-2701391D01*
X2145182Y-2719984D01*
X2144268Y-2738831D01*
X2145182Y-2757627D01*
X2148078Y-2776220D01*
X2152751Y-2794457D01*
X2159304Y-2812135D01*
X2167585Y-2829001D01*
X2177592Y-2845003D01*
X2189073Y-2859887D01*
X2202078Y-2873552D01*
X2216353Y-2885795D01*
X2231796Y-2896565D01*
X2248255Y-2905709D01*
X2265578Y-2913126D01*
X2283561Y-2918764D01*
X2302002Y-2922574D01*
G37*
G36*
X1202588Y-2552395D02*
G01*
X1212138Y-2551125D01*
X1221333Y-2548331D01*
X1229969Y-2543962D01*
X1237742Y-2538222D01*
X1244396Y-2531262D01*
X1249781Y-2523286D01*
X1253794Y-2514498D01*
X1256182Y-2505151D01*
X1257046Y-2495550D01*
X1256182Y-2485948D01*
X1253794Y-2476601D01*
X1249781Y-2467813D01*
X1244396Y-2459837D01*
X1237742Y-2452878D01*
X1229969Y-2447137D01*
X1221333Y-2442768D01*
X1212138Y-2439974D01*
X1202588Y-2438704D01*
X1192936Y-2439162D01*
X1183487Y-2441194D01*
X1174546Y-2444750D01*
X1166317Y-2449830D01*
X1159103Y-2456180D01*
X1153007Y-2463698D01*
X1148334Y-2472131D01*
X1145133Y-2481224D01*
X1143508Y-2490724D01*
X1143508Y-2500376D01*
X1145133Y-2509875D01*
X1148334Y-2518968D01*
X1153007Y-2527401D01*
X1159103Y-2534920D01*
X1166317Y-2541270D01*
X1174546Y-2546350D01*
X1183487Y-2549906D01*
X1192936Y-2551938D01*
G37*
G36*
X758088Y-2501595D02*
G01*
X767638Y-2500325D01*
X776833Y-2497531D01*
X785469Y-2493162D01*
X793242Y-2487422D01*
X799896Y-2480462D01*
X805281Y-2472486D01*
X809294Y-2463698D01*
X811682Y-2454351D01*
X812546Y-2444750D01*
X811682Y-2435148D01*
X809294Y-2425801D01*
X805281Y-2417013D01*
X799896Y-2409037D01*
X793242Y-2402078D01*
X785469Y-2396337D01*
X776833Y-2391968D01*
X767638Y-2389174D01*
X758088Y-2387904D01*
X748436Y-2388362D01*
X738987Y-2390394D01*
X730046Y-2393950D01*
X721817Y-2399030D01*
X714603Y-2405380D01*
X708507Y-2412898D01*
X703834Y-2421331D01*
X700633Y-2430424D01*
X699008Y-2439924D01*
X699008Y-2449576D01*
X700633Y-2459075D01*
X703834Y-2468168D01*
X708507Y-2476601D01*
X714603Y-2484120D01*
X721817Y-2490470D01*
X730046Y-2495550D01*
X738987Y-2499106D01*
X748436Y-2501138D01*
G37*
G36*
X1076045Y-2491841D02*
G01*
X1085850Y-2490978D01*
X1095298Y-2488438D01*
X1104239Y-2484323D01*
X1112266Y-2478684D01*
X1119225Y-2471724D01*
X1124864Y-2463698D01*
X1128979Y-2454757D01*
X1131519Y-2445308D01*
X1132382Y-2435504D01*
X1131519Y-2425700D01*
X1128979Y-2416251D01*
X1124864Y-2407310D01*
X1119225Y-2399284D01*
X1112266Y-2392324D01*
X1104239Y-2386685D01*
X1095298Y-2382570D01*
X1085850Y-2380030D01*
X1076045Y-2379167D01*
X1066241Y-2380030D01*
X1056792Y-2382570D01*
X1047851Y-2386685D01*
X1039825Y-2392324D01*
X1032865Y-2399284D01*
X1027226Y-2407310D01*
X1023112Y-2416251D01*
X1020571Y-2425700D01*
X1019708Y-2435504D01*
X1020571Y-2445308D01*
X1023112Y-2454757D01*
X1027226Y-2463698D01*
X1032865Y-2471724D01*
X1039825Y-2478684D01*
X1047851Y-2484323D01*
X1056792Y-2488438D01*
X1066241Y-2490978D01*
G37*
G36*
X1297838Y-1866595D02*
G01*
X1307388Y-1865325D01*
X1316583Y-1862531D01*
X1325219Y-1858162D01*
X1332992Y-1852422D01*
X1339646Y-1845462D01*
X1345031Y-1837486D01*
X1349044Y-1828698D01*
X1351432Y-1819351D01*
X1352296Y-1809750D01*
X1351432Y-1800148D01*
X1349044Y-1790801D01*
X1345031Y-1782013D01*
X1339646Y-1774037D01*
X1332992Y-1767078D01*
X1325219Y-1761337D01*
X1316583Y-1756968D01*
X1307388Y-1754174D01*
X1297838Y-1752904D01*
X1288186Y-1753362D01*
X1278737Y-1755393D01*
X1269796Y-1758950D01*
X1261567Y-1764030D01*
X1254353Y-1770380D01*
X1248257Y-1777898D01*
X1243584Y-1786331D01*
X1240383Y-1795424D01*
X1238758Y-1804924D01*
X1238758Y-1814575D01*
X1240383Y-1824075D01*
X1243584Y-1833168D01*
X1248257Y-1841601D01*
X1254353Y-1849120D01*
X1261567Y-1855470D01*
X1269796Y-1860550D01*
X1278737Y-1864106D01*
X1288186Y-1866138D01*
G37*
G36*
X-509422Y-1634896D02*
G01*
X-499719Y-1634032D01*
X-490321Y-1631492D01*
X-481482Y-1627378D01*
X-473506Y-1621790D01*
X-466648Y-1614932D01*
X-461060Y-1606956D01*
X-456946Y-1598117D01*
X-454406Y-1588719D01*
X-453542Y-1579016D01*
X-454406Y-1569313D01*
X-456946Y-1559915D01*
X-461060Y-1551076D01*
X-466648Y-1543100D01*
X-473506Y-1536242D01*
X-481482Y-1530654D01*
X-490321Y-1526540D01*
X-499719Y-1524000D01*
X-509422Y-1523136D01*
X-519125Y-1524000D01*
X-528523Y-1526540D01*
X-537362Y-1530654D01*
X-545338Y-1536242D01*
X-552196Y-1543100D01*
X-557784Y-1551076D01*
X-561898Y-1559915D01*
X-564438Y-1569313D01*
X-565302Y-1579016D01*
X-564438Y-1588719D01*
X-561898Y-1598117D01*
X-557784Y-1606956D01*
X-552196Y-1614932D01*
X-545338Y-1621790D01*
X-537362Y-1627378D01*
X-528523Y-1631492D01*
X-519125Y-1634032D01*
G37*
G36*
X-506882Y-1490878D02*
G01*
X-497179Y-1490014D01*
X-487781Y-1487474D01*
X-478942Y-1483360D01*
X-470966Y-1477772D01*
X-464108Y-1470914D01*
X-458520Y-1462938D01*
X-454406Y-1454099D01*
X-451866Y-1444701D01*
X-451002Y-1434998D01*
X-451866Y-1425295D01*
X-454406Y-1415897D01*
X-458520Y-1407058D01*
X-464108Y-1399082D01*
X-470966Y-1392224D01*
X-478942Y-1386636D01*
X-487781Y-1382522D01*
X-497179Y-1379982D01*
X-506882Y-1379118D01*
X-516585Y-1379982D01*
X-525983Y-1382522D01*
X-534822Y-1386636D01*
X-542798Y-1392224D01*
X-549656Y-1399082D01*
X-555244Y-1407058D01*
X-559358Y-1415897D01*
X-561898Y-1425295D01*
X-562762Y-1434998D01*
X-561898Y-1444701D01*
X-559358Y-1454099D01*
X-555244Y-1462938D01*
X-549656Y-1470914D01*
X-542798Y-1477772D01*
X-534822Y-1483360D01*
X-525983Y-1487474D01*
X-516585Y-1490014D01*
G37*
G36*
X548640Y-1485493D02*
G01*
X558190Y-1484223D01*
X567385Y-1481429D01*
X576021Y-1477060D01*
X583793Y-1471320D01*
X590448Y-1464360D01*
X595833Y-1456385D01*
X599846Y-1447596D01*
X602234Y-1438249D01*
X603097Y-1428648D01*
X602234Y-1419047D01*
X599846Y-1409700D01*
X595833Y-1400911D01*
X590448Y-1392936D01*
X583793Y-1385976D01*
X576021Y-1380236D01*
X567385Y-1375867D01*
X558190Y-1373073D01*
X548640Y-1371803D01*
X538988Y-1372260D01*
X529539Y-1374292D01*
X520598Y-1377848D01*
X512368Y-1382928D01*
X505155Y-1389278D01*
X499059Y-1396796D01*
X494385Y-1405229D01*
X491185Y-1414322D01*
X489559Y-1423822D01*
X489559Y-1433474D01*
X491185Y-1442974D01*
X494385Y-1452067D01*
X499059Y-1460500D01*
X505155Y-1468018D01*
X512368Y-1474368D01*
X520598Y-1479448D01*
X529539Y-1483004D01*
X538988Y-1485036D01*
G37*
G36*
X-506882Y-1097178D02*
G01*
X-497179Y-1096314D01*
X-487781Y-1093774D01*
X-478942Y-1089660D01*
X-470966Y-1084072D01*
X-464108Y-1077214D01*
X-458520Y-1069238D01*
X-454406Y-1060399D01*
X-451866Y-1051001D01*
X-451002Y-1041298D01*
X-451866Y-1031595D01*
X-454406Y-1022197D01*
X-458520Y-1013358D01*
X-464108Y-1005382D01*
X-470966Y-998524D01*
X-478942Y-992936D01*
X-487781Y-988821D01*
X-497179Y-986282D01*
X-506882Y-985418D01*
X-516585Y-986282D01*
X-525983Y-988821D01*
X-534822Y-992936D01*
X-542798Y-998524D01*
X-549656Y-1005382D01*
X-555244Y-1013358D01*
X-559358Y-1022197D01*
X-561898Y-1031595D01*
X-562762Y-1041298D01*
X-561898Y-1051001D01*
X-559358Y-1060399D01*
X-555244Y-1069238D01*
X-549656Y-1077214D01*
X-542798Y-1084072D01*
X-534822Y-1089660D01*
X-525983Y-1093774D01*
X-516585Y-1096314D01*
G37*
G36*
X478688Y-742645D02*
G01*
X488238Y-741375D01*
X497433Y-738581D01*
X506069Y-734212D01*
X513842Y-728472D01*
X520496Y-721512D01*
X525881Y-713536D01*
X529894Y-704748D01*
X532282Y-695401D01*
X533146Y-685800D01*
X532282Y-676198D01*
X529894Y-666851D01*
X525881Y-658063D01*
X520496Y-650087D01*
X513842Y-643128D01*
X506069Y-637387D01*
X497433Y-633018D01*
X488238Y-630224D01*
X478688Y-628954D01*
X469036Y-629412D01*
X459587Y-631444D01*
X450646Y-635000D01*
X442417Y-640080D01*
X435203Y-646430D01*
X429107Y-653948D01*
X424434Y-662381D01*
X421233Y-671474D01*
X419608Y-680974D01*
X419608Y-690626D01*
X421233Y-700125D01*
X424434Y-709218D01*
X429107Y-717651D01*
X435203Y-725170D01*
X442417Y-731520D01*
X450646Y-736600D01*
X459587Y-740156D01*
X469036Y-742188D01*
G37*
G36*
X878687Y-621995D02*
G01*
X888288Y-620776D01*
X897483Y-617931D01*
X906119Y-613613D01*
X913841Y-607872D01*
X920546Y-600913D01*
X925931Y-592886D01*
X929894Y-584098D01*
X932332Y-574751D01*
X933145Y-565150D01*
X932332Y-555548D01*
X929894Y-546201D01*
X925931Y-537413D01*
X920546Y-529437D01*
X913841Y-522478D01*
X906119Y-516737D01*
X897483Y-512368D01*
X888288Y-509574D01*
X878687Y-508355D01*
X869086Y-508762D01*
X859637Y-510793D01*
X850696Y-514400D01*
X842467Y-519430D01*
X835253Y-525830D01*
X829157Y-533298D01*
X824484Y-541731D01*
X821232Y-550824D01*
X819607Y-560324D01*
X819607Y-569976D01*
X821232Y-579475D01*
X824484Y-588568D01*
X829157Y-597001D01*
X835253Y-604520D01*
X842467Y-610870D01*
X850696Y-615950D01*
X859637Y-619556D01*
X869086Y-621588D01*
G37*
G36*
X1862937Y-571195D02*
G01*
X1872538Y-569976D01*
X1881733Y-567131D01*
X1890369Y-562813D01*
X1898091Y-557072D01*
X1904796Y-550113D01*
X1910181Y-542086D01*
X1914143Y-533298D01*
X1916582Y-523951D01*
X1917395Y-514350D01*
X1916582Y-504748D01*
X1914143Y-495401D01*
X1910181Y-486613D01*
X1904796Y-478637D01*
X1898091Y-471678D01*
X1890369Y-465937D01*
X1881733Y-461568D01*
X1872538Y-458774D01*
X1865020Y-457809D01*
X1861870Y-456844D01*
X1859127Y-454914D01*
X1634642Y-230632D01*
X1628089Y-225247D01*
X1621028Y-221488D01*
X1613357Y-219151D01*
X1604873Y-218338D01*
X776376Y-218338D01*
X772515Y-217576D01*
X769213Y-215341D01*
X-268579Y822401D01*
X-275132Y827836D01*
X-282194Y831596D01*
X-289864Y833932D01*
X-298348Y834745D01*
X-2141220Y834745D01*
X-2144420Y835253D01*
X-2147265Y836726D01*
X-2154580Y842162D01*
X-2163216Y846531D01*
X-2172411Y849325D01*
X-2182012Y850544D01*
X-2191613Y850137D01*
X-2201062Y848106D01*
X-2210003Y844499D01*
X-2218232Y839469D01*
X-2225446Y833069D01*
X-2231542Y825601D01*
X-2236216Y817168D01*
X-2239467Y808075D01*
X-2241092Y798576D01*
X-2241092Y788924D01*
X-2239467Y779424D01*
X-2236216Y770331D01*
X-2231542Y761898D01*
X-2225446Y754380D01*
X-2218232Y748030D01*
X-2210003Y742950D01*
X-2201062Y739343D01*
X-2191613Y737311D01*
X-2182012Y736904D01*
X-2172411Y738124D01*
X-2163216Y740968D01*
X-2154580Y745286D01*
X-2146960Y750976D01*
X-2144115Y752449D01*
X-2140915Y752957D01*
X-318973Y752957D01*
X-315112Y752144D01*
X-311810Y749960D01*
X464007Y-25857D01*
X466394Y-29616D01*
X466902Y-34036D01*
X465531Y-38252D01*
X462432Y-41452D01*
X458266Y-43078D01*
X453847Y-42722D01*
X443788Y-39674D01*
X434238Y-38404D01*
X424586Y-38862D01*
X415137Y-40894D01*
X406196Y-44450D01*
X397967Y-49530D01*
X390753Y-55880D01*
X384657Y-63398D01*
X379984Y-71831D01*
X376783Y-80924D01*
X375158Y-90424D01*
X375158Y-100076D01*
X376783Y-109575D01*
X379984Y-118668D01*
X384657Y-127101D01*
X390753Y-134620D01*
X397967Y-140970D01*
X406196Y-146050D01*
X415137Y-149606D01*
X424586Y-151638D01*
X434238Y-152095D01*
X443788Y-150825D01*
X452983Y-148031D01*
X460298Y-144322D01*
X464413Y-143256D01*
X468680Y-143967D01*
X472185Y-146405D01*
X474472Y-150012D01*
X474980Y-154279D01*
X473760Y-158394D01*
X468884Y-167081D01*
X465683Y-176174D01*
X464058Y-185674D01*
X464058Y-195326D01*
X465683Y-204825D01*
X468884Y-213918D01*
X473557Y-222351D01*
X479653Y-229870D01*
X486867Y-236220D01*
X495096Y-241300D01*
X504037Y-244856D01*
X513486Y-246888D01*
X523138Y-247345D01*
X532688Y-246075D01*
X541883Y-243281D01*
X550519Y-238912D01*
X558292Y-233171D01*
X564946Y-226212D01*
X570331Y-218236D01*
X574344Y-209448D01*
X576732Y-200101D01*
X577596Y-190500D01*
X576732Y-180898D01*
X574344Y-171551D01*
X570331Y-162763D01*
X565962Y-156311D01*
X564388Y-152349D01*
X564540Y-148082D01*
X565658Y-145846D01*
X563118Y-147066D01*
X558800Y-147066D01*
X554888Y-145288D01*
X550519Y-142087D01*
X541883Y-137718D01*
X532688Y-134924D01*
X523138Y-133654D01*
X513486Y-134112D01*
X504037Y-136144D01*
X495096Y-139700D01*
X492506Y-141325D01*
X488848Y-142697D01*
X484885Y-142595D01*
X481330Y-140970D01*
X478637Y-138125D01*
X477164Y-134518D01*
X477215Y-130606D01*
X478739Y-127000D01*
X481431Y-122986D01*
X485444Y-114198D01*
X487832Y-104851D01*
X488696Y-95250D01*
X487832Y-85648D01*
X485444Y-76301D01*
X484428Y-74066D01*
X483514Y-70154D01*
X484174Y-66192D01*
X486359Y-62839D01*
X489661Y-60553D01*
X493572Y-59740D01*
X497535Y-60452D01*
X500837Y-62687D01*
X568096Y-129946D01*
X570433Y-133553D01*
X571042Y-137820D01*
X569976Y-141528D01*
X573786Y-140462D01*
X578002Y-141122D01*
X581558Y-143408D01*
X725982Y-287782D01*
X732536Y-293217D01*
X739597Y-296976D01*
X747268Y-299313D01*
X755751Y-300126D01*
X1584248Y-300126D01*
X1588109Y-300888D01*
X1591411Y-303123D01*
X1800910Y-512368D01*
X1802739Y-514908D01*
X1803755Y-517906D01*
X1805533Y-528726D01*
X1808734Y-537768D01*
X1813407Y-546201D01*
X1819503Y-553720D01*
X1826717Y-560070D01*
X1834946Y-565150D01*
X1843887Y-568756D01*
X1853336Y-570788D01*
G37*
G36*
X-505866Y-464210D02*
G01*
X-496163Y-463346D01*
X-486765Y-460806D01*
X-477926Y-456692D01*
X-469950Y-451104D01*
X-463092Y-444246D01*
X-457504Y-436270D01*
X-453390Y-427431D01*
X-450850Y-418033D01*
X-449986Y-408330D01*
X-450850Y-398627D01*
X-453390Y-389229D01*
X-457504Y-380390D01*
X-463092Y-372414D01*
X-469950Y-365556D01*
X-477926Y-359968D01*
X-486765Y-355854D01*
X-496163Y-353314D01*
X-505866Y-352450D01*
X-515569Y-353314D01*
X-524967Y-355854D01*
X-533806Y-359968D01*
X-541782Y-365556D01*
X-548640Y-372414D01*
X-554228Y-380390D01*
X-558342Y-389229D01*
X-560882Y-398627D01*
X-561746Y-408330D01*
X-560882Y-418033D01*
X-558342Y-427431D01*
X-554228Y-436270D01*
X-548640Y-444246D01*
X-541782Y-451104D01*
X-533806Y-456692D01*
X-524967Y-460806D01*
X-515569Y-463346D01*
G37*
G36*
X631088Y-361645D02*
G01*
X640638Y-360375D01*
X649833Y-357581D01*
X658469Y-353212D01*
X666242Y-347472D01*
X672896Y-340512D01*
X678281Y-332536D01*
X682294Y-323748D01*
X684682Y-314401D01*
X685546Y-304800D01*
X684682Y-295198D01*
X682294Y-285851D01*
X678281Y-277063D01*
X672896Y-269087D01*
X666242Y-262128D01*
X658469Y-256387D01*
X649833Y-252018D01*
X640638Y-249224D01*
X631088Y-247954D01*
X621436Y-248412D01*
X611987Y-250444D01*
X603046Y-254000D01*
X594817Y-259079D01*
X587603Y-265430D01*
X581507Y-272948D01*
X576834Y-281381D01*
X573633Y-290474D01*
X572008Y-299974D01*
X572008Y-309626D01*
X573633Y-319125D01*
X576834Y-328218D01*
X581507Y-336651D01*
X587603Y-344170D01*
X594817Y-350520D01*
X603046Y-355600D01*
X611987Y-359156D01*
X621436Y-361188D01*
G37*
G36*
X2320747Y-124460D02*
G01*
X2339543Y-124460D01*
X2358288Y-122580D01*
X2376728Y-118770D01*
X2394712Y-113131D01*
X2412034Y-105714D01*
X2428494Y-96570D01*
X2443937Y-85801D01*
X2458212Y-73558D01*
X2471216Y-59893D01*
X2482697Y-45008D01*
X2492705Y-29006D01*
X2500985Y-12141D01*
X2507538Y5537D01*
X2512212Y23774D01*
X2515108Y42367D01*
X2516022Y61163D01*
X2515108Y80010D01*
X2512212Y98602D01*
X2507538Y116839D01*
X2500985Y134518D01*
X2492705Y151384D01*
X2482697Y167386D01*
X2471216Y182270D01*
X2458212Y195935D01*
X2443937Y208178D01*
X2428494Y218948D01*
X2412034Y228092D01*
X2394712Y235508D01*
X2376728Y241147D01*
X2358288Y244957D01*
X2339543Y246837D01*
X2320747Y246837D01*
X2302002Y244957D01*
X2283561Y241147D01*
X2265578Y235508D01*
X2248255Y228092D01*
X2231796Y218948D01*
X2216353Y208178D01*
X2202078Y195935D01*
X2189073Y182270D01*
X2177592Y167386D01*
X2167585Y151384D01*
X2159304Y134518D01*
X2152751Y116839D01*
X2148078Y98602D01*
X2145182Y80010D01*
X2144268Y61163D01*
X2145182Y42367D01*
X2148078Y23774D01*
X2152751Y5537D01*
X2159304Y-12141D01*
X2167585Y-29006D01*
X2177592Y-45008D01*
X2189073Y-59893D01*
X2202078Y-73558D01*
X2216353Y-85801D01*
X2231796Y-96570D01*
X2248255Y-105714D01*
X2265578Y-113131D01*
X2283561Y-118770D01*
X2302002Y-122580D01*
G37*
G36*
X796137Y-88595D02*
G01*
X805738Y-87376D01*
X814933Y-84531D01*
X823569Y-80213D01*
X831291Y-74472D01*
X837996Y-67513D01*
X843381Y-59486D01*
X847344Y-50698D01*
X849782Y-41351D01*
X850595Y-31750D01*
X849782Y-22148D01*
X847344Y-12801D01*
X843381Y-4013D01*
X837996Y3962D01*
X831291Y10922D01*
X823569Y16662D01*
X814933Y21031D01*
X810514Y22707D01*
X808532Y24231D01*
X-67614Y900379D01*
X-69646Y903274D01*
X-70561Y906678D01*
X-70967Y911301D01*
X-73355Y920648D01*
X-77368Y929436D01*
X-82753Y937412D01*
X-89408Y944371D01*
X-97180Y950112D01*
X-105816Y954481D01*
X-115011Y957275D01*
X-124561Y958545D01*
X-134213Y958087D01*
X-143662Y956056D01*
X-152603Y952500D01*
X-160832Y947419D01*
X-168046Y941069D01*
X-174142Y933551D01*
X-178816Y925118D01*
X-182016Y916025D01*
X-183642Y906526D01*
X-183642Y896874D01*
X-182016Y887374D01*
X-178816Y878281D01*
X-174142Y869848D01*
X-168046Y862330D01*
X-160832Y855980D01*
X-152603Y850900D01*
X-143662Y847344D01*
X-134213Y845312D01*
X-131927Y845210D01*
X-128270Y844346D01*
X-125171Y842213D01*
X734364Y-17322D01*
X736244Y-19913D01*
X737209Y-23012D01*
X737057Y-36576D01*
X738682Y-46075D01*
X741934Y-55168D01*
X746607Y-63601D01*
X752703Y-71120D01*
X759917Y-77470D01*
X768146Y-82550D01*
X777087Y-86156D01*
X786536Y-88188D01*
G37*
G36*
X-526948Y-43078D02*
G01*
X-517245Y-42214D01*
X-507847Y-39674D01*
X-499008Y-35560D01*
X-491032Y-29971D01*
X-484174Y-23114D01*
X-478586Y-15138D01*
X-474472Y-6299D01*
X-471932Y3098D01*
X-471068Y12801D01*
X-471932Y22504D01*
X-474472Y31902D01*
X-478586Y40741D01*
X-484174Y48717D01*
X-491032Y55575D01*
X-499008Y61163D01*
X-507847Y65278D01*
X-517245Y67818D01*
X-526948Y68681D01*
X-536651Y67818D01*
X-546049Y65278D01*
X-554888Y61163D01*
X-562864Y55575D01*
X-569722Y48717D01*
X-575310Y40741D01*
X-579424Y31902D01*
X-581964Y22504D01*
X-582828Y12801D01*
X-581964Y3098D01*
X-579424Y-6299D01*
X-575310Y-15138D01*
X-569722Y-23114D01*
X-562864Y-29971D01*
X-554888Y-35560D01*
X-546049Y-39674D01*
X-536651Y-42214D01*
G37*
G36*
X1965045Y-25552D02*
G01*
X1978710Y-24638D01*
X1992122Y-21945D01*
X2005075Y-17576D01*
X2017369Y-11531D01*
X2028748Y-3911D01*
X2039010Y5130D01*
X2048052Y15392D01*
X2055672Y26771D01*
X2061718Y39065D01*
X2066086Y52019D01*
X2068779Y65430D01*
X2069693Y79095D01*
X2068779Y92760D01*
X2066086Y106172D01*
X2061718Y119126D01*
X2055672Y131419D01*
X2048052Y142798D01*
X2039010Y153060D01*
X2028748Y162102D01*
X2017369Y169722D01*
X2005075Y175768D01*
X1992122Y180136D01*
X1978710Y182829D01*
X1965045Y183743D01*
X1951380Y182829D01*
X1937969Y180136D01*
X1925015Y175768D01*
X1912721Y169722D01*
X1901342Y162102D01*
X1891080Y153060D01*
X1882038Y142798D01*
X1874418Y131419D01*
X1868373Y119126D01*
X1864004Y106172D01*
X1861312Y92760D01*
X1860397Y79095D01*
X1861312Y65430D01*
X1864004Y52019D01*
X1868373Y39065D01*
X1874418Y26771D01*
X1882038Y15392D01*
X1891080Y5130D01*
X1901342Y-3911D01*
X1912721Y-11531D01*
X1925015Y-17576D01*
X1937969Y-21945D01*
X1951380Y-24638D01*
G37*
G36*
X-508000Y115570D02*
G01*
X-498297Y116433D01*
X-488899Y118922D01*
X-480059Y123037D01*
X-472084Y128625D01*
X-465226Y135534D01*
X-459638Y143510D01*
X-455523Y152349D01*
X-452983Y161747D01*
X-452120Y171450D01*
X-452983Y181152D01*
X-455523Y190550D01*
X-459638Y199390D01*
X-465226Y207365D01*
X-472084Y214223D01*
X-480059Y219811D01*
X-488899Y223926D01*
X-498297Y226466D01*
X-508000Y227329D01*
X-517702Y226466D01*
X-527100Y223926D01*
X-535940Y219811D01*
X-543915Y214223D01*
X-550824Y207365D01*
X-556412Y199390D01*
X-560527Y190550D01*
X-563016Y181152D01*
X-563880Y171450D01*
X-563016Y161747D01*
X-560527Y152349D01*
X-556412Y143510D01*
X-550824Y135534D01*
X-543915Y128625D01*
X-535940Y123037D01*
X-527100Y118922D01*
X-517702Y116433D01*
G37*
G36*
X1475587Y235254D02*
G01*
X1485188Y236474D01*
X1494383Y239318D01*
X1503019Y243636D01*
X1510741Y249377D01*
X1517446Y256336D01*
X1522831Y264363D01*
X1526794Y273151D01*
X1529232Y282498D01*
X1530045Y292100D01*
X1529232Y301701D01*
X1526794Y311048D01*
X1522831Y319836D01*
X1514856Y331571D01*
X1514094Y335381D01*
X1514094Y450342D01*
X1513281Y458774D01*
X1510944Y466445D01*
X1507185Y473506D01*
X1501749Y480110D01*
X1428292Y553567D01*
X1426108Y556869D01*
X1425295Y560781D01*
X1425295Y708660D01*
X1426108Y712571D01*
X1428292Y715822D01*
X1431594Y718058D01*
X1435455Y718820D01*
X1439367Y718058D01*
X1442669Y715822D01*
X1610410Y548081D01*
X1612239Y545541D01*
X1613255Y542544D01*
X1615033Y531723D01*
X1618234Y522681D01*
X1622907Y514248D01*
X1629003Y506730D01*
X1636217Y500380D01*
X1644446Y495300D01*
X1653387Y491693D01*
X1662836Y489661D01*
X1672437Y489254D01*
X1682038Y490474D01*
X1691233Y493318D01*
X1699869Y497636D01*
X1707591Y503377D01*
X1714296Y510336D01*
X1719681Y518363D01*
X1723643Y527151D01*
X1726082Y536498D01*
X1726895Y546100D01*
X1726082Y555701D01*
X1723643Y565048D01*
X1719681Y573836D01*
X1714296Y581812D01*
X1707591Y588772D01*
X1699869Y594512D01*
X1691233Y598881D01*
X1682038Y601675D01*
X1674571Y602640D01*
X1671370Y603605D01*
X1668678Y605536D01*
X1510842Y763371D01*
X1508658Y766673D01*
X1507845Y770534D01*
X1507845Y942492D01*
X1508810Y946810D01*
X1511503Y950315D01*
X1515465Y952296D01*
X1519885Y952500D01*
X1523949Y950721D01*
X1526895Y947419D01*
X1527657Y946048D01*
X1533753Y938530D01*
X1540967Y932180D01*
X1549196Y927100D01*
X1558137Y923493D01*
X1567586Y921461D01*
X1577187Y921054D01*
X1586788Y922274D01*
X1595983Y925118D01*
X1604619Y929436D01*
X1612087Y935024D01*
X1614982Y936498D01*
X1618132Y937006D01*
X1847342Y937006D01*
X1855825Y937818D01*
X1863496Y940155D01*
X1870557Y943914D01*
X1877110Y949350D01*
X1915261Y987450D01*
X1918563Y989685D01*
X1922475Y990447D01*
X2043226Y990447D01*
X2049525Y991158D01*
X2055012Y993089D01*
X2059889Y996137D01*
X2064004Y1000252D01*
X2067052Y1005128D01*
X2068982Y1010615D01*
X2069693Y1016914D01*
X2069693Y1173276D01*
X2068982Y1179576D01*
X2067052Y1185062D01*
X2064004Y1189939D01*
X2059889Y1194054D01*
X2055012Y1197102D01*
X2049525Y1199032D01*
X2043226Y1199743D01*
X1886864Y1199743D01*
X1880565Y1199032D01*
X1875078Y1197102D01*
X1870202Y1194054D01*
X1866087Y1189939D01*
X1863039Y1185062D01*
X1861108Y1179576D01*
X1860397Y1173276D01*
X1860397Y1052525D01*
X1859635Y1048613D01*
X1857400Y1045311D01*
X1833880Y1021791D01*
X1830578Y1019556D01*
X1826717Y1018794D01*
X1618132Y1018794D01*
X1614932Y1019302D01*
X1612087Y1020775D01*
X1604619Y1026312D01*
X1595983Y1030681D01*
X1586788Y1033475D01*
X1577187Y1034694D01*
X1567586Y1034287D01*
X1558137Y1032256D01*
X1549196Y1028649D01*
X1540967Y1023619D01*
X1533753Y1017219D01*
X1527657Y1009751D01*
X1526895Y1008329D01*
X1523949Y1005027D01*
X1519885Y1003300D01*
X1515465Y1003452D01*
X1511503Y1005484D01*
X1508810Y1008989D01*
X1507845Y1013307D01*
X1507845Y1383893D01*
X1507032Y1392377D01*
X1504696Y1400048D01*
X1500936Y1407109D01*
X1495501Y1413662D01*
X1413662Y1495501D01*
X1407109Y1500936D01*
X1400048Y1504696D01*
X1392377Y1507032D01*
X1383893Y1507845D01*
X1346047Y1507845D01*
X1341882Y1508760D01*
X1338478Y1511198D01*
X1336344Y1514856D01*
X1335938Y1519072D01*
X1337208Y1523085D01*
X1340408Y1526489D01*
X1351026Y1536446D01*
X1360271Y1547672D01*
X1368094Y1559966D01*
X1374292Y1573123D01*
X1378762Y1586941D01*
X1381506Y1601266D01*
X1382420Y1615795D01*
X1381506Y1630324D01*
X1378762Y1644599D01*
X1374292Y1658467D01*
X1368094Y1671624D01*
X1360271Y1683918D01*
X1351026Y1695094D01*
X1340408Y1705102D01*
X1328623Y1713636D01*
X1315872Y1720646D01*
X1302359Y1725980D01*
X1288237Y1729638D01*
X1273810Y1731467D01*
X1259281Y1731467D01*
X1244803Y1729638D01*
X1230731Y1725980D01*
X1217168Y1720646D01*
X1204417Y1713636D01*
X1192682Y1705102D01*
X1182065Y1695094D01*
X1172768Y1683918D01*
X1164996Y1671624D01*
X1158798Y1658467D01*
X1154277Y1644599D01*
X1151534Y1630324D01*
X1150620Y1615795D01*
X1151534Y1601266D01*
X1154277Y1586941D01*
X1158798Y1573123D01*
X1164996Y1559966D01*
X1172768Y1547672D01*
X1182065Y1536446D01*
X1192987Y1526235D01*
X1195832Y1523085D01*
X1197152Y1519072D01*
X1196695Y1514856D01*
X1194612Y1511198D01*
X1191158Y1508760D01*
X1187043Y1507845D01*
X1182522Y1507845D01*
X1178661Y1508607D01*
X1175359Y1510842D01*
X1122934Y1563268D01*
X1120800Y1566316D01*
X1119936Y1569923D01*
X1120444Y1573580D01*
X1124762Y1586941D01*
X1127506Y1601266D01*
X1128420Y1615795D01*
X1127506Y1630324D01*
X1124762Y1644599D01*
X1120292Y1658467D01*
X1114094Y1671624D01*
X1106271Y1683918D01*
X1097026Y1695094D01*
X1086408Y1705102D01*
X1074623Y1713636D01*
X1061872Y1720646D01*
X1048359Y1725980D01*
X1034237Y1729638D01*
X1019810Y1731467D01*
X1005281Y1731467D01*
X990803Y1729638D01*
X976731Y1725980D01*
X963168Y1720646D01*
X950417Y1713636D01*
X938682Y1705102D01*
X928065Y1695094D01*
X918768Y1683918D01*
X910996Y1671624D01*
X904798Y1658467D01*
X900277Y1644599D01*
X897534Y1630324D01*
X896619Y1615795D01*
X897534Y1601266D01*
X900277Y1586941D01*
X904798Y1573123D01*
X910996Y1559966D01*
X918768Y1547672D01*
X921969Y1543812D01*
X923950Y1539951D01*
X924204Y1535684D01*
X922629Y1531670D01*
X919530Y1528673D01*
X915466Y1527251D01*
X911199Y1527606D01*
X907338Y1528775D01*
X897737Y1529994D01*
X888136Y1529588D01*
X878687Y1527556D01*
X869746Y1523949D01*
X861517Y1518920D01*
X854303Y1512519D01*
X848207Y1505051D01*
X843534Y1496618D01*
X840282Y1487525D01*
X838657Y1478026D01*
X838657Y1468374D01*
X840282Y1458874D01*
X843534Y1449781D01*
X848207Y1441348D01*
X854303Y1433830D01*
X861517Y1427480D01*
X869746Y1422400D01*
X878687Y1418793D01*
X888136Y1416761D01*
X890422Y1416659D01*
X894080Y1415846D01*
X897178Y1413713D01*
X961440Y1349451D01*
X967994Y1344066D01*
X975055Y1340307D01*
X982726Y1337970D01*
X991209Y1337157D01*
X1153718Y1337157D01*
X1157579Y1336344D01*
X1160881Y1334160D01*
X1190498Y1304544D01*
X1192885Y1300784D01*
X1193444Y1296416D01*
X1192072Y1292199D01*
X1189024Y1288948D01*
X1184910Y1287322D01*
X1180490Y1287576D01*
X1170940Y1288846D01*
X1161288Y1288389D01*
X1151839Y1286357D01*
X1142898Y1282801D01*
X1134668Y1277721D01*
X1127455Y1271371D01*
X1121359Y1263853D01*
X1116685Y1255420D01*
X1113485Y1246327D01*
X1111859Y1236827D01*
X1111859Y1227175D01*
X1113485Y1217676D01*
X1116685Y1208582D01*
X1121359Y1200150D01*
X1127455Y1192631D01*
X1134668Y1186281D01*
X1142898Y1181201D01*
X1151839Y1177645D01*
X1161288Y1175613D01*
X1163370Y1175512D01*
X1167028Y1174648D01*
X1170127Y1172514D01*
X1245158Y1097483D01*
X1247394Y1094181D01*
X1248156Y1090320D01*
X1248156Y455879D01*
X1247546Y452475D01*
X1245870Y449478D01*
X1241907Y444601D01*
X1237234Y436168D01*
X1233982Y427075D01*
X1232357Y417576D01*
X1232357Y407924D01*
X1233982Y398424D01*
X1237234Y389331D01*
X1241907Y380898D01*
X1248003Y373380D01*
X1255217Y367030D01*
X1263446Y361950D01*
X1272387Y358343D01*
X1281836Y356311D01*
X1291437Y355904D01*
X1301038Y357124D01*
X1310233Y359968D01*
X1318869Y364286D01*
X1326591Y370027D01*
X1333296Y376986D01*
X1338681Y385013D01*
X1342644Y393801D01*
X1345082Y403148D01*
X1345895Y412750D01*
X1345082Y422351D01*
X1342644Y431698D01*
X1338681Y440486D01*
X1330706Y452221D01*
X1329944Y456031D01*
X1329944Y514654D01*
X1330909Y519023D01*
X1333652Y522528D01*
X1337665Y524510D01*
X1342085Y524611D01*
X1346149Y522833D01*
X1349095Y519430D01*
X1350416Y516940D01*
X1355852Y510336D01*
X1429308Y436880D01*
X1431544Y433578D01*
X1432306Y429666D01*
X1432306Y335229D01*
X1431696Y331825D01*
X1430020Y328828D01*
X1426057Y323951D01*
X1421384Y315518D01*
X1418132Y306425D01*
X1416507Y296926D01*
X1416507Y287274D01*
X1418132Y277774D01*
X1421384Y268681D01*
X1426057Y260248D01*
X1432153Y252729D01*
X1439367Y246379D01*
X1447596Y241300D01*
X1456537Y237693D01*
X1465986Y235661D01*
G37*
G36*
X495300Y419912D02*
G01*
X505104Y420776D01*
X514553Y423316D01*
X523493Y427431D01*
X531520Y433070D01*
X538480Y440029D01*
X544118Y448056D01*
X548233Y456996D01*
X550773Y466445D01*
X551637Y476250D01*
X550773Y486054D01*
X548233Y495503D01*
X544118Y504443D01*
X538480Y512470D01*
X531520Y519430D01*
X523493Y525068D01*
X514553Y529183D01*
X505104Y531723D01*
X495300Y532587D01*
X485495Y531723D01*
X476046Y529183D01*
X467106Y525068D01*
X459079Y519430D01*
X452120Y512470D01*
X446481Y504443D01*
X442366Y495503D01*
X439826Y486054D01*
X438962Y476250D01*
X439826Y466445D01*
X442366Y456996D01*
X446481Y448056D01*
X452120Y440029D01*
X459079Y433070D01*
X467106Y427431D01*
X476046Y423316D01*
X485495Y420776D01*
G37*
G36*
X802538Y438454D02*
G01*
X812088Y439724D01*
X821283Y442518D01*
X829919Y446887D01*
X837692Y452628D01*
X844346Y459587D01*
X849731Y467563D01*
X853744Y476351D01*
X856132Y485698D01*
X856996Y495300D01*
X856132Y504901D01*
X853744Y514248D01*
X849731Y523036D01*
X844346Y531012D01*
X837692Y537972D01*
X829919Y543712D01*
X821283Y548081D01*
X812088Y550875D01*
X802538Y552145D01*
X792886Y551688D01*
X783437Y549656D01*
X774496Y546100D01*
X766267Y541020D01*
X759053Y534670D01*
X752957Y527151D01*
X748284Y518718D01*
X745083Y509625D01*
X743458Y500126D01*
X743458Y490474D01*
X745083Y480974D01*
X748284Y471881D01*
X752957Y463448D01*
X759053Y455930D01*
X766267Y449580D01*
X774496Y444500D01*
X783437Y440943D01*
X792886Y438912D01*
G37*
G36*
X1965045Y482447D02*
G01*
X1978710Y483362D01*
X1992122Y486054D01*
X2005075Y490423D01*
X2017369Y496468D01*
X2028748Y504088D01*
X2039010Y513130D01*
X2048052Y523392D01*
X2055672Y534771D01*
X2061718Y547065D01*
X2066086Y560019D01*
X2068779Y573430D01*
X2069693Y587095D01*
X2068779Y600760D01*
X2066086Y614172D01*
X2061718Y627126D01*
X2055672Y639419D01*
X2048052Y650798D01*
X2039010Y661060D01*
X2028748Y670102D01*
X2017369Y677722D01*
X2005075Y683768D01*
X1992122Y688136D01*
X1978710Y690829D01*
X1965045Y691743D01*
X1951380Y690829D01*
X1937969Y688136D01*
X1925015Y683768D01*
X1912721Y677722D01*
X1901342Y670102D01*
X1891080Y661060D01*
X1882038Y650798D01*
X1874418Y639419D01*
X1868373Y627126D01*
X1864004Y614172D01*
X1861312Y600760D01*
X1860397Y587095D01*
X1861312Y573430D01*
X1864004Y560019D01*
X1868373Y547065D01*
X1874418Y534771D01*
X1882038Y523392D01*
X1891080Y513130D01*
X1901342Y504088D01*
X1912721Y496468D01*
X1925015Y490423D01*
X1937969Y486054D01*
X1951380Y483362D01*
G37*
G36*
X1965045Y736447D02*
G01*
X1978710Y737362D01*
X1992122Y740054D01*
X2005075Y744423D01*
X2017369Y750468D01*
X2028748Y758088D01*
X2039010Y767130D01*
X2048052Y777392D01*
X2055672Y788771D01*
X2061718Y801065D01*
X2066086Y814019D01*
X2068779Y827430D01*
X2069693Y841095D01*
X2068779Y854760D01*
X2066086Y868171D01*
X2061718Y881126D01*
X2055672Y893419D01*
X2048052Y904798D01*
X2039010Y915060D01*
X2028748Y924102D01*
X2017369Y931722D01*
X2005075Y937768D01*
X1992122Y942136D01*
X1978710Y944829D01*
X1965045Y945743D01*
X1951380Y944829D01*
X1937969Y942136D01*
X1925015Y937768D01*
X1912721Y931722D01*
X1901342Y924102D01*
X1891080Y915060D01*
X1882038Y904798D01*
X1874418Y893419D01*
X1868373Y881126D01*
X1864004Y868171D01*
X1861312Y854760D01*
X1860397Y841095D01*
X1861312Y827430D01*
X1864004Y814019D01*
X1868373Y801065D01*
X1874418Y788771D01*
X1882038Y777392D01*
X1891080Y767130D01*
X1901342Y758088D01*
X1912721Y750468D01*
X1925015Y744423D01*
X1937969Y740054D01*
X1951380Y737362D01*
G37*
G36*
X-1047394Y869543D02*
G01*
X-292506Y869543D01*
X-284480Y870356D01*
X-277266Y872540D01*
X-270560Y876096D01*
X-264363Y881227D01*
X-113893Y1031646D01*
X-110591Y1033881D01*
X-106680Y1034643D01*
X811530Y1034643D01*
X815441Y1033881D01*
X818743Y1031697D01*
X835660Y1014780D01*
X837895Y1011478D01*
X838657Y1007567D01*
X838657Y1004824D01*
X840282Y995324D01*
X843534Y986231D01*
X848207Y977798D01*
X854303Y970280D01*
X861517Y963930D01*
X869746Y958850D01*
X878687Y955243D01*
X888136Y953211D01*
X897737Y952804D01*
X907338Y954024D01*
X916533Y956868D01*
X925169Y961186D01*
X932891Y966927D01*
X939596Y973886D01*
X944981Y981913D01*
X948944Y990701D01*
X951382Y1000048D01*
X952195Y1009650D01*
X951382Y1019251D01*
X948944Y1028598D01*
X944981Y1037386D01*
X939596Y1045362D01*
X932891Y1052322D01*
X925169Y1058062D01*
X916533Y1062431D01*
X907338Y1065225D01*
X897737Y1066444D01*
X893673Y1067155D01*
X890269Y1069441D01*
X859282Y1100277D01*
X853135Y1105306D01*
X846429Y1108862D01*
X839216Y1111046D01*
X831189Y1111859D01*
X-126390Y1111859D01*
X-134416Y1111046D01*
X-141630Y1108862D01*
X-148336Y1105306D01*
X-154533Y1100175D01*
X-305003Y949756D01*
X-308305Y947521D01*
X-312216Y946759D01*
X-1027684Y946759D01*
X-1031595Y947521D01*
X-1034897Y949756D01*
X-1342593Y1257452D01*
X-1344828Y1260754D01*
X-1345590Y1264666D01*
X-1345590Y1364132D01*
X-1344879Y1367891D01*
X-1342745Y1371142D01*
X-1340053Y1373987D01*
X-1334668Y1381963D01*
X-1330655Y1390751D01*
X-1328267Y1400098D01*
X-1327404Y1409700D01*
X-1328267Y1419301D01*
X-1330655Y1428648D01*
X-1334668Y1437436D01*
X-1340053Y1445412D01*
X-1346708Y1452372D01*
X-1354480Y1458112D01*
X-1363116Y1462481D01*
X-1372311Y1465275D01*
X-1381861Y1466545D01*
X-1391513Y1466088D01*
X-1400962Y1464056D01*
X-1409903Y1460500D01*
X-1418132Y1455420D01*
X-1425346Y1449070D01*
X-1431442Y1441551D01*
X-1436116Y1433118D01*
X-1439316Y1424025D01*
X-1440942Y1414526D01*
X-1440942Y1404874D01*
X-1439316Y1395374D01*
X-1436116Y1386281D01*
X-1431442Y1377848D01*
X-1425041Y1369974D01*
X-1423365Y1366977D01*
X-1422806Y1363573D01*
X-1422806Y1244955D01*
X-1421993Y1236929D01*
X-1419809Y1229715D01*
X-1416253Y1223010D01*
X-1411122Y1216812D01*
X-1075537Y881227D01*
X-1069340Y876096D01*
X-1062634Y872540D01*
X-1055420Y870356D01*
G37*
G36*
X-943711Y984554D02*
G01*
X-934161Y985824D01*
X-924966Y988618D01*
X-916330Y992987D01*
X-908558Y998728D01*
X-901903Y1005687D01*
X-896518Y1013663D01*
X-892505Y1022451D01*
X-890117Y1031798D01*
X-889660Y1036624D01*
X-888796Y1040028D01*
X-886764Y1042974D01*
X-701040Y1228648D01*
X-697738Y1230833D01*
X-693877Y1231646D01*
X160782Y1231646D01*
X169265Y1232458D01*
X176936Y1234795D01*
X183997Y1238554D01*
X190550Y1243939D01*
X452170Y1505559D01*
X455371Y1507744D01*
X459232Y1508506D01*
X463092Y1507794D01*
X468731Y1505559D01*
X482803Y1501952D01*
X497281Y1500124D01*
X511809Y1500124D01*
X526237Y1501952D01*
X540359Y1505559D01*
X553872Y1510944D01*
X566623Y1517954D01*
X578408Y1526489D01*
X589026Y1536446D01*
X598271Y1547672D01*
X606094Y1559966D01*
X612292Y1573123D01*
X616762Y1586941D01*
X619506Y1601266D01*
X620420Y1615795D01*
X619506Y1630324D01*
X616762Y1644599D01*
X612292Y1658467D01*
X606094Y1671624D01*
X598271Y1683918D01*
X589026Y1695094D01*
X578408Y1705102D01*
X566623Y1713636D01*
X553872Y1720646D01*
X540359Y1725980D01*
X526237Y1729638D01*
X511809Y1731467D01*
X497281Y1731467D01*
X482803Y1729638D01*
X468731Y1725980D01*
X455168Y1720646D01*
X442417Y1713636D01*
X430682Y1705102D01*
X420065Y1695094D01*
X410768Y1683918D01*
X402996Y1671624D01*
X396798Y1658467D01*
X392277Y1644599D01*
X389534Y1630324D01*
X388620Y1615795D01*
X389534Y1601266D01*
X392277Y1586941D01*
X396646Y1573580D01*
X397103Y1569923D01*
X396240Y1566316D01*
X394157Y1563268D01*
X383794Y1552905D01*
X380492Y1550670D01*
X376580Y1549908D01*
X372719Y1550670D01*
X369417Y1552905D01*
X367233Y1556207D01*
X366420Y1560068D01*
X366420Y1705203D01*
X365709Y1711553D01*
X363829Y1716989D01*
X360730Y1721916D01*
X356666Y1725980D01*
X351739Y1729079D01*
X346303Y1730959D01*
X339953Y1731670D01*
X161086Y1731670D01*
X154787Y1730959D01*
X149301Y1729079D01*
X144424Y1725980D01*
X140309Y1721916D01*
X137261Y1716989D01*
X135331Y1711553D01*
X134620Y1705203D01*
X134620Y1526336D01*
X135331Y1520037D01*
X137261Y1514551D01*
X140309Y1509674D01*
X144424Y1505559D01*
X149301Y1502511D01*
X154787Y1500581D01*
X161086Y1499870D01*
X306222Y1499870D01*
X310134Y1499108D01*
X313436Y1496923D01*
X315620Y1493621D01*
X316382Y1489710D01*
X315620Y1485849D01*
X313436Y1482547D01*
X147320Y1316431D01*
X144018Y1314196D01*
X140106Y1313434D01*
X-714502Y1313434D01*
X-722985Y1312621D01*
X-730656Y1310284D01*
X-737717Y1306525D01*
X-744321Y1301089D01*
X-944524Y1100886D01*
X-947623Y1098753D01*
X-951280Y1097889D01*
X-953363Y1097788D01*
X-962812Y1095756D01*
X-971753Y1092200D01*
X-979982Y1087120D01*
X-987196Y1080770D01*
X-993292Y1073251D01*
X-997966Y1064818D01*
X-1001166Y1055725D01*
X-1002792Y1046226D01*
X-1002792Y1036574D01*
X-1001166Y1027074D01*
X-997966Y1017981D01*
X-993292Y1009548D01*
X-987196Y1002030D01*
X-979982Y995680D01*
X-971753Y990600D01*
X-962812Y987044D01*
X-953363Y985012D01*
G37*
G36*
X-1083462Y1295704D02*
G01*
X-1073861Y1296924D01*
X-1064666Y1299768D01*
X-1056030Y1304086D01*
X-1048308Y1309827D01*
X-1041603Y1316786D01*
X-1036218Y1324813D01*
X-1032256Y1333601D01*
X-1029817Y1342948D01*
X-1029004Y1352550D01*
X-1029817Y1362151D01*
X-1032256Y1371498D01*
X-1036218Y1380286D01*
X-1041603Y1388262D01*
X-1048308Y1395222D01*
X-1056030Y1400962D01*
X-1064666Y1405331D01*
X-1073861Y1408125D01*
X-1083462Y1409344D01*
X-1093063Y1408938D01*
X-1102512Y1406906D01*
X-1111453Y1403299D01*
X-1119682Y1398270D01*
X-1126896Y1391869D01*
X-1132992Y1384401D01*
X-1137666Y1375968D01*
X-1140917Y1366875D01*
X-1142542Y1357376D01*
X-1142542Y1347724D01*
X-1140917Y1338224D01*
X-1137666Y1329131D01*
X-1132992Y1320698D01*
X-1126896Y1313180D01*
X-1119682Y1306830D01*
X-1111453Y1301750D01*
X-1102512Y1298143D01*
X-1093063Y1296111D01*
G37*
G36*
X-2505913Y1499870D02*
G01*
X-2327046Y1499870D01*
X-2320696Y1500581D01*
X-2315260Y1502511D01*
X-2310333Y1505559D01*
X-2306269Y1509674D01*
X-2303170Y1514551D01*
X-2301290Y1520037D01*
X-2300579Y1526336D01*
X-2300579Y1705203D01*
X-2301290Y1711553D01*
X-2303170Y1716989D01*
X-2306269Y1721916D01*
X-2310333Y1725980D01*
X-2315260Y1729079D01*
X-2320696Y1730959D01*
X-2327046Y1731670D01*
X-2505913Y1731670D01*
X-2512212Y1730959D01*
X-2517698Y1729079D01*
X-2522575Y1725980D01*
X-2526690Y1721916D01*
X-2529738Y1716989D01*
X-2531668Y1711553D01*
X-2532380Y1705203D01*
X-2532380Y1526336D01*
X-2531668Y1520037D01*
X-2529738Y1514551D01*
X-2526690Y1509674D01*
X-2522575Y1505559D01*
X-2517698Y1502511D01*
X-2512212Y1500581D01*
G37*
G36*
X-1915718Y1500124D02*
G01*
X-1901189Y1500124D01*
X-1886762Y1501952D01*
X-1872640Y1505559D01*
X-1859127Y1510944D01*
X-1846376Y1517954D01*
X-1834591Y1526489D01*
X-1823974Y1536446D01*
X-1814728Y1547672D01*
X-1806905Y1559966D01*
X-1800707Y1573123D01*
X-1796237Y1586941D01*
X-1793493Y1601266D01*
X-1792579Y1615795D01*
X-1793493Y1630324D01*
X-1796237Y1644599D01*
X-1800707Y1658467D01*
X-1806905Y1671624D01*
X-1814728Y1683918D01*
X-1823974Y1695094D01*
X-1834591Y1705102D01*
X-1846376Y1713636D01*
X-1859127Y1720646D01*
X-1872640Y1725980D01*
X-1886762Y1729638D01*
X-1901189Y1731467D01*
X-1915718Y1731467D01*
X-1930196Y1729638D01*
X-1944268Y1725980D01*
X-1957832Y1720646D01*
X-1970582Y1713636D01*
X-1982317Y1705102D01*
X-1992934Y1695094D01*
X-2002231Y1683918D01*
X-2010003Y1671624D01*
X-2016201Y1658467D01*
X-2020722Y1644599D01*
X-2023465Y1630324D01*
X-2024380Y1615795D01*
X-2023465Y1601266D01*
X-2020722Y1586941D01*
X-2016201Y1573123D01*
X-2010003Y1559966D01*
X-2002231Y1547672D01*
X-1992934Y1536446D01*
X-1982317Y1526489D01*
X-1970582Y1517954D01*
X-1957832Y1510944D01*
X-1944268Y1505559D01*
X-1930196Y1501952D01*
G37*
G36*
X-391718Y1500124D02*
G01*
X-377190Y1500124D01*
X-362762Y1501952D01*
X-348640Y1505559D01*
X-335127Y1510944D01*
X-322376Y1517954D01*
X-310591Y1526489D01*
X-299974Y1536446D01*
X-290728Y1547672D01*
X-282905Y1559966D01*
X-276707Y1573123D01*
X-272237Y1586941D01*
X-269494Y1601266D01*
X-268579Y1615795D01*
X-269494Y1630324D01*
X-272237Y1644599D01*
X-276707Y1658467D01*
X-282905Y1671624D01*
X-290728Y1683918D01*
X-299974Y1695094D01*
X-310591Y1705102D01*
X-322376Y1713636D01*
X-335127Y1720646D01*
X-348640Y1725980D01*
X-362762Y1729638D01*
X-377190Y1731467D01*
X-391718Y1731467D01*
X-406196Y1729638D01*
X-420268Y1725980D01*
X-433832Y1720646D01*
X-446582Y1713636D01*
X-458317Y1705102D01*
X-468934Y1695094D01*
X-478231Y1683918D01*
X-486003Y1671624D01*
X-492201Y1658467D01*
X-496722Y1644599D01*
X-499465Y1630324D01*
X-500380Y1615795D01*
X-499465Y1601266D01*
X-496722Y1586941D01*
X-492201Y1573123D01*
X-486003Y1559966D01*
X-478231Y1547672D01*
X-468934Y1536446D01*
X-458317Y1526489D01*
X-446582Y1517954D01*
X-433832Y1510944D01*
X-420268Y1505559D01*
X-406196Y1501952D01*
G37*
G36*
X1767281Y1500124D02*
G01*
X1781810Y1500124D01*
X1796237Y1501952D01*
X1810359Y1505559D01*
X1823872Y1510944D01*
X1836623Y1517954D01*
X1848408Y1526489D01*
X1859025Y1536446D01*
X1868271Y1547672D01*
X1876094Y1559966D01*
X1882292Y1573123D01*
X1886762Y1586941D01*
X1889506Y1601266D01*
X1890420Y1615795D01*
X1889506Y1630324D01*
X1886762Y1644599D01*
X1882292Y1658467D01*
X1876094Y1671624D01*
X1868271Y1683918D01*
X1859025Y1695094D01*
X1848408Y1705102D01*
X1836623Y1713636D01*
X1823872Y1720646D01*
X1810359Y1725980D01*
X1796237Y1729638D01*
X1781810Y1731467D01*
X1767281Y1731467D01*
X1752803Y1729638D01*
X1738731Y1725980D01*
X1725168Y1720646D01*
X1712417Y1713636D01*
X1700682Y1705102D01*
X1690065Y1695094D01*
X1680768Y1683918D01*
X1672996Y1671624D01*
X1666798Y1658467D01*
X1662277Y1644599D01*
X1659534Y1630324D01*
X1658620Y1615795D01*
X1659534Y1601266D01*
X1662277Y1586941D01*
X1666798Y1573123D01*
X1672996Y1559966D01*
X1680768Y1547672D01*
X1690065Y1536446D01*
X1700682Y1526489D01*
X1712417Y1517954D01*
X1725168Y1510944D01*
X1738731Y1505559D01*
X1752803Y1501952D01*
G37*
G36*
X-2169718Y1500124D02*
G01*
X-2155190Y1500124D01*
X-2140762Y1501952D01*
X-2126640Y1505559D01*
X-2113127Y1510944D01*
X-2100376Y1517954D01*
X-2088591Y1526489D01*
X-2077974Y1536446D01*
X-2068728Y1547672D01*
X-2060905Y1559966D01*
X-2054707Y1573123D01*
X-2050237Y1586941D01*
X-2047493Y1601266D01*
X-2046579Y1615795D01*
X-2047493Y1630324D01*
X-2050237Y1644599D01*
X-2054707Y1658467D01*
X-2060905Y1671624D01*
X-2068728Y1683918D01*
X-2077974Y1695094D01*
X-2088591Y1705102D01*
X-2100376Y1713636D01*
X-2113127Y1720646D01*
X-2126640Y1725980D01*
X-2140762Y1729638D01*
X-2155190Y1731467D01*
X-2169718Y1731467D01*
X-2184196Y1729638D01*
X-2198268Y1725980D01*
X-2211832Y1720646D01*
X-2224582Y1713636D01*
X-2236317Y1705102D01*
X-2246934Y1695094D01*
X-2256231Y1683918D01*
X-2264003Y1671624D01*
X-2270201Y1658467D01*
X-2274722Y1644599D01*
X-2277465Y1630324D01*
X-2278380Y1615795D01*
X-2277465Y1601266D01*
X-2274722Y1586941D01*
X-2270201Y1573123D01*
X-2264003Y1559966D01*
X-2256231Y1547672D01*
X-2246934Y1536446D01*
X-2236317Y1526489D01*
X-2224582Y1517954D01*
X-2211832Y1510944D01*
X-2198268Y1505559D01*
X-2184196Y1501952D01*
G37*
G36*
X-137718Y1500124D02*
G01*
X-123189Y1500124D01*
X-108762Y1501952D01*
X-94640Y1505559D01*
X-81127Y1510944D01*
X-68376Y1517954D01*
X-56591Y1526489D01*
X-45974Y1536446D01*
X-36728Y1547672D01*
X-28905Y1559966D01*
X-22707Y1573123D01*
X-18237Y1586941D01*
X-15494Y1601266D01*
X-14579Y1615795D01*
X-15494Y1630324D01*
X-18237Y1644599D01*
X-22707Y1658467D01*
X-28905Y1671624D01*
X-36728Y1683918D01*
X-45974Y1695094D01*
X-56591Y1705102D01*
X-68376Y1713636D01*
X-81127Y1720646D01*
X-94640Y1725980D01*
X-108762Y1729638D01*
X-123189Y1731467D01*
X-137718Y1731467D01*
X-152196Y1729638D01*
X-166268Y1725980D01*
X-179832Y1720646D01*
X-192582Y1713636D01*
X-204317Y1705102D01*
X-214934Y1695094D01*
X-224231Y1683918D01*
X-232003Y1671624D01*
X-238201Y1658467D01*
X-242722Y1644599D01*
X-245465Y1630324D01*
X-246379Y1615795D01*
X-245465Y1601266D01*
X-242722Y1586941D01*
X-238201Y1573123D01*
X-232003Y1559966D01*
X-224231Y1547672D01*
X-214934Y1536446D01*
X-204317Y1526489D01*
X-192582Y1517954D01*
X-179832Y1510944D01*
X-166268Y1505559D01*
X-152196Y1501952D01*
G37*
G36*
X-645718Y1500124D02*
G01*
X-631190Y1500124D01*
X-616762Y1501952D01*
X-602640Y1505559D01*
X-589127Y1510944D01*
X-576376Y1517954D01*
X-564591Y1526489D01*
X-553974Y1536446D01*
X-544728Y1547672D01*
X-536905Y1559966D01*
X-530707Y1573123D01*
X-526237Y1586941D01*
X-523493Y1601266D01*
X-522579Y1615795D01*
X-523493Y1630324D01*
X-526237Y1644599D01*
X-530707Y1658467D01*
X-536905Y1671624D01*
X-544728Y1683918D01*
X-553974Y1695094D01*
X-564591Y1705102D01*
X-576376Y1713636D01*
X-589127Y1720646D01*
X-602640Y1725980D01*
X-616762Y1729638D01*
X-631190Y1731467D01*
X-645718Y1731467D01*
X-660196Y1729638D01*
X-674268Y1725980D01*
X-687832Y1720646D01*
X-700582Y1713636D01*
X-712317Y1705102D01*
X-722934Y1695094D01*
X-732231Y1683918D01*
X-740003Y1671624D01*
X-746201Y1658467D01*
X-750722Y1644599D01*
X-753465Y1630324D01*
X-754380Y1615795D01*
X-753465Y1601266D01*
X-750722Y1586941D01*
X-746201Y1573123D01*
X-740003Y1559966D01*
X-732231Y1547672D01*
X-722934Y1536446D01*
X-712317Y1526489D01*
X-700582Y1517954D01*
X-687832Y1510944D01*
X-674268Y1505559D01*
X-660196Y1501952D01*
G37*
G36*
X751281Y1500124D02*
G01*
X765810Y1500124D01*
X780237Y1501952D01*
X794359Y1505559D01*
X807872Y1510944D01*
X820623Y1517954D01*
X832408Y1526489D01*
X843026Y1536446D01*
X852271Y1547672D01*
X860094Y1559966D01*
X866292Y1573123D01*
X870762Y1586941D01*
X873506Y1601266D01*
X874420Y1615795D01*
X873506Y1630324D01*
X870762Y1644599D01*
X866292Y1658467D01*
X860094Y1671624D01*
X852271Y1683918D01*
X843026Y1695094D01*
X832408Y1705102D01*
X820623Y1713636D01*
X807872Y1720646D01*
X794359Y1725980D01*
X780237Y1729638D01*
X765810Y1731467D01*
X751281Y1731467D01*
X736803Y1729638D01*
X722731Y1725980D01*
X709168Y1720646D01*
X696417Y1713636D01*
X684682Y1705102D01*
X674065Y1695094D01*
X664768Y1683918D01*
X656996Y1671624D01*
X650798Y1658467D01*
X646277Y1644599D01*
X643534Y1630324D01*
X642620Y1615795D01*
X643534Y1601266D01*
X646277Y1586941D01*
X650798Y1573123D01*
X656996Y1559966D01*
X664768Y1547672D01*
X674065Y1536446D01*
X684682Y1526489D01*
X696417Y1517954D01*
X709168Y1510944D01*
X722731Y1505559D01*
X736803Y1501952D01*
G37*
G36*
X1513281Y1500124D02*
G01*
X1527810Y1500124D01*
X1542237Y1501952D01*
X1556359Y1505559D01*
X1569872Y1510944D01*
X1582623Y1517954D01*
X1594408Y1526489D01*
X1605026Y1536446D01*
X1614271Y1547672D01*
X1622094Y1559966D01*
X1628292Y1573123D01*
X1632762Y1586941D01*
X1635506Y1601266D01*
X1636420Y1615795D01*
X1635506Y1630324D01*
X1632762Y1644599D01*
X1628292Y1658467D01*
X1622094Y1671624D01*
X1614271Y1683918D01*
X1605026Y1695094D01*
X1594408Y1705102D01*
X1582623Y1713636D01*
X1569872Y1720646D01*
X1556359Y1725980D01*
X1542237Y1729638D01*
X1527810Y1731467D01*
X1513281Y1731467D01*
X1498803Y1729638D01*
X1484731Y1725980D01*
X1471168Y1720646D01*
X1458417Y1713636D01*
X1446682Y1705102D01*
X1436065Y1695094D01*
X1426768Y1683918D01*
X1418996Y1671624D01*
X1412798Y1658467D01*
X1408277Y1644599D01*
X1405534Y1630324D01*
X1404620Y1615795D01*
X1405534Y1601266D01*
X1408277Y1586941D01*
X1412798Y1573123D01*
X1418996Y1559966D01*
X1426768Y1547672D01*
X1436065Y1536446D01*
X1446682Y1526489D01*
X1458417Y1517954D01*
X1471168Y1510944D01*
X1484731Y1505559D01*
X1498803Y1501952D01*
G37*
G36*
X-1407718Y1500124D02*
G01*
X-1393190Y1500124D01*
X-1378762Y1501952D01*
X-1364640Y1505559D01*
X-1351127Y1510944D01*
X-1338376Y1517954D01*
X-1326591Y1526489D01*
X-1315974Y1536446D01*
X-1306728Y1547672D01*
X-1298905Y1559966D01*
X-1292707Y1573123D01*
X-1288237Y1586941D01*
X-1285494Y1601266D01*
X-1284579Y1615795D01*
X-1285494Y1630324D01*
X-1288237Y1644599D01*
X-1292707Y1658467D01*
X-1298905Y1671624D01*
X-1306728Y1683918D01*
X-1315974Y1695094D01*
X-1326591Y1705102D01*
X-1338376Y1713636D01*
X-1351127Y1720646D01*
X-1364640Y1725980D01*
X-1378762Y1729638D01*
X-1393190Y1731467D01*
X-1407718Y1731467D01*
X-1422196Y1729638D01*
X-1436268Y1725980D01*
X-1449832Y1720646D01*
X-1462582Y1713636D01*
X-1474317Y1705102D01*
X-1484934Y1695094D01*
X-1494231Y1683918D01*
X-1502003Y1671624D01*
X-1508201Y1658467D01*
X-1512722Y1644599D01*
X-1515465Y1630324D01*
X-1516380Y1615795D01*
X-1515465Y1601266D01*
X-1512722Y1586941D01*
X-1508201Y1573123D01*
X-1502003Y1559966D01*
X-1494231Y1547672D01*
X-1484934Y1536446D01*
X-1474317Y1526489D01*
X-1462582Y1517954D01*
X-1449832Y1510944D01*
X-1436268Y1505559D01*
X-1422196Y1501952D01*
G37*
G36*
X-899718Y1500124D02*
G01*
X-885190Y1500124D01*
X-870762Y1501952D01*
X-856640Y1505559D01*
X-843127Y1510944D01*
X-830376Y1517954D01*
X-818591Y1526489D01*
X-807974Y1536446D01*
X-798728Y1547672D01*
X-790905Y1559966D01*
X-784707Y1573123D01*
X-780237Y1586941D01*
X-777494Y1601266D01*
X-776579Y1615795D01*
X-777494Y1630324D01*
X-780237Y1644599D01*
X-784707Y1658467D01*
X-790905Y1671624D01*
X-798728Y1683918D01*
X-807974Y1695094D01*
X-818591Y1705102D01*
X-830376Y1713636D01*
X-843127Y1720646D01*
X-856640Y1725980D01*
X-870762Y1729638D01*
X-885190Y1731467D01*
X-899718Y1731467D01*
X-914196Y1729638D01*
X-928268Y1725980D01*
X-941832Y1720646D01*
X-954582Y1713636D01*
X-966317Y1705102D01*
X-976934Y1695094D01*
X-986231Y1683918D01*
X-994003Y1671624D01*
X-1000201Y1658467D01*
X-1004722Y1644599D01*
X-1007465Y1630324D01*
X-1008380Y1615795D01*
X-1007465Y1601266D01*
X-1004722Y1586941D01*
X-1000201Y1573123D01*
X-994003Y1559966D01*
X-986231Y1547672D01*
X-976934Y1536446D01*
X-966317Y1526489D01*
X-954582Y1517954D01*
X-941832Y1510944D01*
X-928268Y1505559D01*
X-914196Y1501952D01*
G37*
G36*
X-1153718Y1500124D02*
G01*
X-1139190Y1500124D01*
X-1124762Y1501952D01*
X-1110640Y1505559D01*
X-1097127Y1510944D01*
X-1084376Y1517954D01*
X-1072591Y1526489D01*
X-1061974Y1536446D01*
X-1052728Y1547672D01*
X-1044905Y1559966D01*
X-1038707Y1573123D01*
X-1034237Y1586941D01*
X-1031494Y1601266D01*
X-1030579Y1615795D01*
X-1031494Y1630324D01*
X-1034237Y1644599D01*
X-1038707Y1658467D01*
X-1044905Y1671624D01*
X-1052728Y1683918D01*
X-1061974Y1695094D01*
X-1072591Y1705102D01*
X-1084376Y1713636D01*
X-1097127Y1720646D01*
X-1110640Y1725980D01*
X-1124762Y1729638D01*
X-1139190Y1731467D01*
X-1153718Y1731467D01*
X-1168196Y1729638D01*
X-1182268Y1725980D01*
X-1195832Y1720646D01*
X-1208582Y1713636D01*
X-1220317Y1705102D01*
X-1230934Y1695094D01*
X-1240231Y1683918D01*
X-1248003Y1671624D01*
X-1254201Y1658467D01*
X-1258722Y1644599D01*
X-1261465Y1630324D01*
X-1262380Y1615795D01*
X-1261465Y1601266D01*
X-1258722Y1586941D01*
X-1254201Y1573123D01*
X-1248003Y1559966D01*
X-1240231Y1547672D01*
X-1230934Y1536446D01*
X-1220317Y1526489D01*
X-1208582Y1517954D01*
X-1195832Y1510944D01*
X-1182268Y1505559D01*
X-1168196Y1501952D01*
G37*
G36*
X2021281Y1500124D02*
G01*
X2035810Y1500124D01*
X2050237Y1501952D01*
X2064359Y1505559D01*
X2077872Y1510944D01*
X2090623Y1517954D01*
X2102408Y1526489D01*
X2113026Y1536446D01*
X2122271Y1547672D01*
X2130094Y1559966D01*
X2136292Y1573123D01*
X2140762Y1586941D01*
X2143506Y1601266D01*
X2144420Y1615795D01*
X2143506Y1630324D01*
X2140762Y1644599D01*
X2136292Y1658467D01*
X2130094Y1671624D01*
X2122271Y1683918D01*
X2113026Y1695094D01*
X2102408Y1705102D01*
X2090623Y1713636D01*
X2077872Y1720646D01*
X2064359Y1725980D01*
X2050237Y1729638D01*
X2035810Y1731467D01*
X2021281Y1731467D01*
X2006803Y1729638D01*
X1992731Y1725980D01*
X1979168Y1720646D01*
X1966417Y1713636D01*
X1954682Y1705102D01*
X1944065Y1695094D01*
X1934768Y1683918D01*
X1926996Y1671624D01*
X1920798Y1658467D01*
X1916277Y1644599D01*
X1913534Y1630324D01*
X1912620Y1615795D01*
X1913534Y1601266D01*
X1916277Y1586941D01*
X1920798Y1573123D01*
X1926996Y1559966D01*
X1934768Y1547672D01*
X1944065Y1536446D01*
X1954682Y1526489D01*
X1966417Y1517954D01*
X1979168Y1510944D01*
X1992731Y1505559D01*
X2006803Y1501952D01*
G37*

%LPD*%
G36*
X-2066645Y587654D02*
G01*
X-2787650Y584200D01*
X-2838450Y546100D01*
X-2838450Y-139700D01*
X-2774950Y-190500D01*
X-2063750Y-190500D01*
X-2038350Y-152400D01*
X-2041245Y555904D01*
G37*
G36*
X-1984095Y581304D02*
G01*
X-2009495Y536854D01*
X-2009495Y-155295D01*
X-1971395Y-193395D01*
X-1279245Y-193395D01*
X-1260195Y-174345D01*
X-1260195Y111404D01*
X-1320800Y171450D01*
X-1581150Y171450D01*
X-1631950Y209550D01*
X-1634845Y562254D01*
X-1660245Y581304D01*
G37*
G36*
X-2066645Y-949045D02*
G01*
X-2798165Y-950315D01*
X-2838805Y-1001115D01*
X-2838805Y-1648815D01*
X-2761691Y-1701241D01*
X-2066645Y-1704695D01*
X-2041245Y-1679295D01*
X-2041245Y-974445D01*
G37*
G36*
X-1689100Y-946150D02*
G01*
X-1984095Y-949045D01*
X-2009495Y-974445D01*
X-2006600Y-1765300D01*
X-1936750Y-1816100D01*
X-1279245Y-1818995D01*
X-1253845Y-1787245D01*
X-1257300Y-1473200D01*
X-1314450Y-1435100D01*
X-1587500Y-1422400D01*
X-1644650Y-1371600D01*
X-1644650Y-1003300D01*
G37*
G36*
X-2781300Y-209550D02*
G01*
X-2838450Y-254000D01*
X-2835910Y-880110D01*
X-2797810Y-918210D01*
X-1924050Y-920750D01*
X-1670050Y-920750D01*
X-1644650Y-882650D01*
X-1644650Y-654050D01*
X-1606550Y-622300D01*
X-1270000Y-622300D01*
X-1257300Y-603250D01*
X-1257300Y-241300D01*
X-1289050Y-209550D01*
G37*
D10*
X895464Y1473309D02*
G01*
X990714Y1378059D01*
X1174864Y1378059D01*
X1384414Y1168509D01*
X1384414Y539630D01*
X1473210Y450834D01*
X1473210Y292110D01*
X1168514Y1232009D02*
G01*
X1289060Y1111463D01*
X1289060Y412760D01*
X1860661Y-514238D02*
G01*
X1605391Y-259222D01*
X755253Y-259222D01*
X-297830Y793861D01*
X-2184288Y793861D01*
X1670161Y546211D02*
G01*
X1466961Y749411D01*
X1466961Y1384411D01*
X1384411Y1466961D01*
X1161399Y1466961D01*
X1012555Y1615805D01*
D11*
X-1384188Y1409811D02*
G01*
X-1384188Y1244457D01*
X-1047892Y908161D01*
X-291988Y908161D01*
X-126888Y1073261D01*
X831707Y1073261D01*
X895461Y1009761D01*
D10*
X-680608Y-2676794D02*
G01*
X-680608Y-2869072D01*
X-511444Y-3038236D01*
X-511444Y-3184794D01*
X504555Y1615805D02*
G01*
X161292Y1272542D01*
X-715007Y1272542D01*
X-946150Y1041400D01*
X1574810Y977910D02*
G01*
X1847860Y977910D01*
X1965055Y1095105D01*
X793760Y-31739D02*
G01*
X793760Y-18836D01*
X-126885Y901809D01*
D12*
G01*
X-2018045Y-3022234D03*
G01*
X-2518044Y-3022234D03*
G01*
X-2558938Y-1332804D03*
D13*
G01*
X-2558938Y-1174003D03*
G01*
X-2558938Y-1491604D03*
G01*
X-2400137Y-1332804D03*
G01*
X-2717739Y-1332804D03*
G01*
X-2446644Y-1220510D03*
G01*
X-2671231Y-1220510D03*
G01*
X-2671231Y-1445097D03*
G01*
X-2446644Y-1445097D03*
D12*
G01*
X-2558938Y-632805D03*
D13*
G01*
X-2558938Y-474004D03*
G01*
X-2558938Y-791606D03*
G01*
X-2400137Y-632805D03*
G01*
X-2717739Y-632805D03*
G01*
X-2446644Y-520512D03*
G01*
X-2671231Y-520512D03*
G01*
X-2671231Y-745098D03*
G01*
X-2446644Y-745098D03*
D12*
G01*
X-2558938Y67193D03*
D13*
G01*
X-2558938Y225993D03*
G01*
X-2558938Y-91607D03*
G01*
X-2400137Y67193D03*
G01*
X-2717739Y67193D03*
G01*
X-2446644Y179486D03*
G01*
X-2671231Y179486D03*
G01*
X-2671231Y-45100D03*
G01*
X-2446644Y-45100D03*
D14*
G01*
X250555Y1615805D03*
D15*
G01*
X504555Y1615805D03*
G01*
X758555Y1615805D03*
G01*
X1012555Y1615805D03*
G01*
X1266555Y1615805D03*
G01*
X1520555Y1615805D03*
G01*
X1774555Y1615805D03*
G01*
X2028555Y1615805D03*
G01*
X-130444Y1615805D03*
G01*
X-384444Y1615805D03*
G01*
X-638444Y1615805D03*
G01*
X-892444Y1615805D03*
G01*
X-1146444Y1615805D03*
G01*
X-1400444Y1615805D03*
G01*
X-1654444Y1615805D03*
G01*
X-1908444Y1615805D03*
G01*
X-2162444Y1615805D03*
D14*
G01*
X-2416444Y1615805D03*
D15*
G01*
X2028555Y-3184794D03*
G01*
X1774555Y-3184794D03*
G01*
X1520555Y-3184794D03*
G01*
X1266555Y-3184794D03*
G01*
X1012555Y-3184794D03*
D14*
G01*
X758555Y-3184794D03*
G01*
X-1527444Y-3184794D03*
D15*
G01*
X-1273444Y-3184794D03*
G01*
X-1019444Y-3184794D03*
G01*
X-765444Y-3184794D03*
G01*
X-511444Y-3184794D03*
G01*
X-257444Y-3184794D03*
G01*
X-3444Y-3184794D03*
G01*
X250555Y-3184794D03*
D16*
G01*
X1965055Y79105D03*
G01*
X1965055Y333105D03*
G01*
X1965055Y587105D03*
G01*
X1965055Y841105D03*
D17*
G01*
X1965055Y1095105D03*
D18*
G01*
X2330155Y-2738795D03*
G01*
X2330155Y61198D03*
D19*
G01*
X-507989Y171460D03*
G01*
X-526938Y12811D03*
G01*
X-505856Y-408320D03*
G01*
X-506872Y-1041288D03*
G01*
X-506872Y-1434988D03*
G01*
X-509412Y-1579006D03*
D20*
G01*
X-1130289Y-698489D03*
G01*
X-1289039Y-704839D03*
G01*
X-1206489Y-698489D03*
G01*
X30363Y-492394D03*
G01*
X182763Y-339994D03*
G01*
X182763Y-644794D03*
G01*
X335163Y-492394D03*
G01*
X184160Y-495289D03*
G01*
X-1028689Y-12689D03*
G01*
X-990589Y-69839D03*
G01*
X-764529Y-72379D03*
G01*
X-800089Y-133339D03*
G01*
X-838189Y-189219D03*
G01*
X-806439Y-19039D03*
G01*
X-914389Y-186679D03*
G01*
X-985509Y-186679D03*
G01*
X-764529Y-191759D03*
G01*
X-1022339Y-126989D03*
G01*
X-952489Y-19039D03*
G01*
X-914389Y-74919D03*
G01*
X-952489Y-130799D03*
G01*
X-876289Y-19039D03*
G01*
X-843269Y-77459D03*
G01*
X-876289Y-133339D03*
G01*
X-1282689Y-831839D03*
G01*
X-1130289Y-838189D03*
G01*
X-1162039Y-768339D03*
G01*
X-1206489Y-838189D03*
G01*
X-1239078Y-770549D03*
G01*
X-1244589Y-901689D03*
G01*
X-1162039Y-908039D03*
G01*
X-1289039Y-971539D03*
G01*
X-1206489Y-971539D03*
G01*
X-1136639Y-971539D03*
G01*
X-2101839Y-101589D03*
G01*
X-2101839Y-12689D03*
G01*
X-2101839Y88910D03*
G01*
X-2101839Y190510D03*
G01*
X-2165339Y241310D03*
G01*
X-2165339Y139710D03*
G01*
X-2165339Y38110D03*
G01*
X-2165339Y-50789D03*
G01*
X-2114539Y-552439D03*
G01*
X-2114539Y-641339D03*
G01*
X-2114539Y-742939D03*
G01*
X-2114539Y-844539D03*
G01*
X-2178039Y-501639D03*
G01*
X-2178039Y-590539D03*
G01*
X-2178039Y-692139D03*
G01*
X-2178039Y-793739D03*
G01*
X-2251344Y-1152794D03*
G01*
X-2098944Y-1063894D03*
G01*
X-2098944Y-1165494D03*
G01*
X-2251344Y-1254394D03*
G01*
X-2251344Y-1063894D03*
G01*
X-2174331Y-1008496D03*
G01*
X-2174331Y-1110096D03*
G01*
X-2174331Y-1211696D03*
G01*
X-2228839Y-101589D03*
G01*
X-2228839Y-12689D03*
G01*
X-2228839Y88910D03*
G01*
X-2228839Y190510D03*
G01*
X-2241539Y-552439D03*
G01*
X-2241539Y-641339D03*
G01*
X-2241539Y-742939D03*
G01*
X-2241539Y-844539D03*
G01*
X-2327544Y-1101994D03*
G01*
X-2327544Y-1013094D03*
G01*
X-2098944Y-1254394D03*
G01*
X-2403744Y-1063894D03*
G01*
X-1168389Y558810D03*
G01*
X-1019444Y523605D03*
G01*
X-958839Y603260D03*
G01*
X-927089Y527060D03*
G01*
X-857239Y603260D03*
G01*
X-825489Y527060D03*
G01*
X-501639Y-2101839D03*
G01*
X-438139Y-2012939D03*
G01*
X-349239Y-2012939D03*
G01*
X-400039Y-2101839D03*
G01*
X-298439Y-2101839D03*
G01*
X-450839Y-2406639D03*
G01*
X-349239Y-2406639D03*
G01*
X-400039Y-2495539D03*
G01*
X-311139Y-2495539D03*
G01*
X-247639Y-2406639D03*
G01*
X-349239Y679460D03*
G01*
X-450839Y679460D03*
G01*
X-552439Y679460D03*
G01*
X-368289Y971560D03*
G01*
X-469889Y971560D03*
G01*
X-419089Y1060460D03*
G01*
X-507989Y1060460D03*
G01*
X-571489Y971560D03*
G01*
X495310Y476260D03*
G01*
X1076055Y-2435494D03*
D21*
G01*
X-1384289Y1409710D03*
G01*
X-587644Y-2676794D03*
G01*
X895360Y1009660D03*
G01*
X2219055Y-644794D03*
G01*
X2219055Y-2168794D03*
G01*
X1711055Y-644794D03*
G01*
X1711055Y-2168794D03*
G01*
X1155710Y234960D03*
G01*
X1203055Y-644794D03*
G01*
X1203055Y-2168794D03*
G01*
X1711055Y-1660794D03*
G01*
X2219055Y-1152794D03*
G01*
X2219055Y-1660794D03*
G01*
X695055Y-1660794D03*
G01*
X695055Y-2168794D03*
G01*
X990610Y901710D03*
G01*
X187055Y879205D03*
G01*
X187055Y-1660794D03*
G01*
X187055Y-2168794D03*
G01*
X187055Y-2676794D03*
G01*
X1711055Y-1152794D03*
G01*
X44460Y1530360D03*
G01*
X-73294Y1152255D03*
D20*
G01*
X-723508Y-17007D03*
G01*
X-685408Y-74157D03*
G01*
X-729858Y-131307D03*
G01*
X-647308Y-131307D03*
G01*
X-691758Y-188457D03*
D21*
G01*
X-203189Y-463539D03*
G01*
X711210Y673110D03*
G01*
X628660Y-1352539D03*
G01*
X876310Y-565139D03*
G01*
X476260Y-685789D03*
D20*
G01*
X-1231889Y-2038339D03*
G01*
X-1320789Y-2038339D03*
G01*
X-1422389Y-2038339D03*
G01*
X-1193789Y-1962139D03*
G01*
X-1282689Y-1962139D03*
G01*
X-1384289Y-1962139D03*
G01*
X-1333489Y-1898639D03*
G01*
X-1231889Y-1898639D03*
G01*
X-1422389Y-1898639D03*
G01*
X-1153149Y-1897649D03*
G01*
X-1457010Y-1961606D03*
G01*
X-776036Y606181D03*
G01*
X-1130289Y628660D03*
G01*
X-1219189Y628660D03*
G01*
X-1301739Y628660D03*
G01*
X-1352539Y565160D03*
G01*
X-1257289Y558810D03*
G01*
X-1536689Y412760D03*
G01*
X-1543039Y273060D03*
G01*
X-1454139Y412760D03*
G01*
X-1454139Y273060D03*
G01*
X-1549389Y-768339D03*
G01*
X-1466839Y-768339D03*
G01*
X-1549389Y-908039D03*
G01*
X-1466839Y-908039D03*
G01*
X-1555739Y-1193789D03*
G01*
X-1466839Y-1193789D03*
G01*
X-1466839Y-1327139D03*
G01*
X-1555739Y-1327139D03*
G01*
X-1308089Y-1123939D03*
G01*
X-1225539Y-1123939D03*
G01*
X-1142685Y-1118910D03*
G01*
X-1181089Y-1174739D03*
G01*
X-1263639Y-1174739D03*
G01*
X-1301739Y-1231889D03*
G01*
X-1219189Y-1231889D03*
G01*
X-1142989Y-1238239D03*
G01*
X-1181089Y-1301739D03*
G01*
X-1257289Y-1295389D03*
G01*
X-1308089Y-1352539D03*
G01*
X-1225539Y-1358889D03*
G01*
X-1142989Y-1352539D03*
G01*
X-1522796Y-685078D03*
G01*
X-1401434Y-684138D03*
G01*
X-1447789Y-1104889D03*
G01*
X-1555739Y-1104915D03*
G01*
X-1123939Y495310D03*
G01*
X-1206489Y495310D03*
G01*
X-1291198Y494167D03*
G01*
X-1241237Y428457D03*
G01*
X-1164198Y430667D03*
G01*
X-1284848Y367167D03*
G01*
X-1208648Y360817D03*
G01*
X-1447789Y565160D03*
G01*
X-1162039Y298460D03*
G01*
X-1244589Y298460D03*
G01*
X-1289039Y234960D03*
G01*
X-1206489Y234960D03*
G01*
X-1536689Y565160D03*
G01*
X-1489699Y633409D03*
G01*
X-1392798Y629650D03*
G01*
X-698108Y-550407D03*
G01*
X-653658Y-493257D03*
G01*
X-736208Y-493257D03*
G01*
X-691758Y-436107D03*
G01*
X-729858Y-378957D03*
G01*
X-882639Y-495289D03*
G01*
X-849619Y-439409D03*
G01*
X-882639Y-380989D03*
G01*
X-958839Y-492749D03*
G01*
X-920739Y-436869D03*
G01*
X-958839Y-380989D03*
G01*
X-1028689Y-495289D03*
G01*
X-770879Y-553709D03*
G01*
X-991859Y-548629D03*
G01*
X-920739Y-548629D03*
G01*
X-812789Y-380989D03*
G01*
X-844539Y-551169D03*
G01*
X-806439Y-495289D03*
G01*
X-770879Y-434329D03*
G01*
X-996939Y-431789D03*
G01*
X-1028689Y-368289D03*
G01*
X-685408Y-1820407D03*
G01*
X-640958Y-1763257D03*
G01*
X-723508Y-1763257D03*
G01*
X-679058Y-1706107D03*
G01*
X-717158Y-1648957D03*
G01*
X-869939Y-1765289D03*
G01*
X-836919Y-1709409D03*
G01*
X-869939Y-1650989D03*
G01*
X-946139Y-1762749D03*
G01*
X-908039Y-1706869D03*
G01*
X-946139Y-1650989D03*
G01*
X-1022339Y-1765289D03*
G01*
X-758179Y-1823709D03*
G01*
X-979159Y-1818629D03*
G01*
X-908039Y-1818629D03*
G01*
X-800089Y-1650989D03*
G01*
X-831839Y-1821169D03*
G01*
X-793739Y-1765289D03*
G01*
X-758179Y-1704329D03*
G01*
X-984239Y-1701789D03*
G01*
X-1022339Y-1650989D03*
G01*
X-1127419Y370469D03*
G01*
X-1130289Y234960D03*
D21*
G01*
X-692139Y-1117589D03*
G01*
X-692139Y-1206489D03*
G01*
X-692139Y-1295389D03*
G01*
X-673115Y-888989D03*
G01*
X-762015Y-888989D03*
G01*
X-850915Y-888989D03*
G01*
X-692139Y247660D03*
G01*
X-692139Y330210D03*
G01*
X-692139Y412760D03*
G01*
X-171439Y234960D03*
G01*
X-298439Y361960D03*
G01*
X-304789Y69860D03*
D20*
G01*
X-634989Y-1644639D03*
G01*
X-596889Y-1701789D03*
G01*
X-558789Y-1758939D03*
G01*
X-603239Y-1816089D03*
G01*
X-641339Y-374639D03*
G01*
X-603239Y-431789D03*
G01*
X-565139Y-488939D03*
G01*
X-609589Y-546089D03*
G01*
X-634989Y-19039D03*
G01*
X-596889Y-76189D03*
G01*
X-558789Y-133339D03*
G01*
X-603239Y-190489D03*
D21*
G01*
X-2660639Y1028710D03*
G01*
X-2666989Y730260D03*
G01*
X-1993889Y685810D03*
G01*
X-1435089Y984260D03*
D20*
G01*
X-647689Y-603239D03*
G01*
X-558789Y-596889D03*
G01*
X-527039Y-1822439D03*
G01*
X-1939762Y184922D03*
G01*
X-1939762Y83322D03*
G01*
X-1939762Y-18277D03*
G01*
X-1939762Y-107177D03*
G01*
X-1876262Y-56377D03*
G01*
X-1876262Y32522D03*
G01*
X-1876262Y134122D03*
G01*
X-1876262Y235722D03*
G01*
X-1812762Y184922D03*
G01*
X-1812762Y83322D03*
G01*
X-1812762Y-18277D03*
G01*
X-1812762Y-107177D03*
G01*
X-1809384Y-1301816D03*
G01*
X-1809384Y-1200216D03*
G01*
X-1809384Y-1098616D03*
G01*
X-1809384Y-1009716D03*
G01*
X-1872884Y-1060516D03*
G01*
X-1872884Y-1149416D03*
G01*
X-1872884Y-1251016D03*
G01*
X-1936384Y-1301816D03*
G01*
X-1936384Y-1200216D03*
G01*
X-1936384Y-1098616D03*
G01*
X-1936384Y-1009716D03*
D21*
G01*
X-1409689Y19060D03*
G01*
X-1320789Y19060D03*
G01*
X-1320789Y-101589D03*
G01*
X-1416039Y-101589D03*
G01*
X-1409689Y-349239D03*
G01*
X-1314439Y-349239D03*
G01*
X-1314439Y-482589D03*
G01*
X-1409689Y-482589D03*
G01*
X-1428739Y-1600189D03*
G01*
X-1320789Y-1600189D03*
G01*
X-1320789Y-1752589D03*
G01*
X-1428739Y-1752589D03*
G01*
X946160Y-990589D03*
D20*
G01*
X-2387488Y456879D03*
G01*
X-2438288Y520379D03*
G01*
X-2438288Y393379D03*
G01*
X-2539888Y393379D03*
G01*
X-2489088Y456879D03*
G01*
X-2539888Y520379D03*
G01*
X-2590688Y456879D03*
G01*
X-2641488Y393379D03*
G01*
X-2730388Y393379D03*
G01*
X-2679588Y456879D03*
G01*
X-2641488Y520379D03*
G01*
X-2730388Y520379D03*
G01*
X-2292339Y-419089D03*
G01*
X-2349489Y-260339D03*
G01*
X-2349489Y-368289D03*
G01*
X-2285989Y-311139D03*
G01*
X-2410449Y-312409D03*
G01*
X-2174128Y-317820D03*
G01*
X-2110628Y-368620D03*
G01*
X-2110628Y-470220D03*
G01*
X-2174128Y-419420D03*
G01*
X-2237628Y-470220D03*
G01*
X-2237628Y-368620D03*
G01*
X-2227468Y-256860D03*
G01*
X-2113168Y-256860D03*
G01*
X-2352842Y-1654342D03*
G01*
X-2505242Y-1654342D03*
G01*
X-2428229Y-1611645D03*
G01*
X-2352842Y-1565442D03*
G01*
X-2570927Y-1608292D03*
G01*
X-2647939Y-1650989D03*
G01*
X-2487081Y-1012078D03*
G01*
X-2175042Y-1305981D03*
D21*
G01*
X431810Y-95239D03*
G01*
X520710Y-190489D03*
G01*
X628660Y-304789D03*
G01*
X755660Y-2444739D03*
G01*
X1200160Y-2495539D03*
G01*
X793760Y184160D03*
G01*
X-946139Y1041410D03*
G01*
X800110Y495310D03*
G01*
X-126989Y901710D03*
G01*
X793760Y-31739D03*
G01*
X-1085839Y1352560D03*
G01*
X1295410Y-1809739D03*
G01*
X546211Y-1428638D03*
G01*
X812810Y-876289D03*
G01*
X1574810Y977910D03*
G01*
X1670060Y546084D03*
G01*
X1314460Y1377960D03*
G01*
X1289060Y412760D03*
G01*
X1473210Y292110D03*
G01*
X895360Y1473210D03*
G01*
X1168511Y1232011D03*
G01*
X-1289039Y1327160D03*
G01*
X387360Y1155710D03*
G01*
X647710Y1212860D03*
D20*
G01*
X-1363715Y-2097293D03*
G01*
X-1269989Y-2108189D03*
D21*
G01*
X1511310Y-171439D03*
G01*
X-680481Y-2676794D03*
G01*
X-2184389Y793760D03*
G01*
X1860560Y-514339D03*
M02*
