G04 Layer: BottomSilkscreenLayer*
G04 EasyEDA v6.5.57, 2026-08-14 15:25:13*
G04 ebc703f97e3148f1b7392a4f0a1a7df2,2865ae9118a24060a17af6d01c9bcc73,10*
G04 Gerber Generator version 0.2*
G04 Scale: 100 percent, Rotated: No, Reflected: No *
G04 Dimensions in millimeters *
G04 leading zeros omitted , absolute positions ,4 integer and 5 decimal *
%FSLAX45Y45*%
%MOMM*%

%ADD10C,0.2540*%
%ADD11C,0.1524*%
%ADD12C,0.0163*%

%LPD*%
D10*
X-3919913Y-715642D02*
G01*
X-3929004Y-711098D01*
X-3938094Y-702007D01*
X-3942641Y-692917D01*
X-3942641Y-674733D01*
X-3938094Y-665642D01*
X-3929004Y-656551D01*
X-3919913Y-652007D01*
X-3906276Y-647461D01*
X-3883550Y-647461D01*
X-3869913Y-652007D01*
X-3860822Y-656551D01*
X-3851732Y-665642D01*
X-3847185Y-674733D01*
X-3847185Y-692917D01*
X-3851732Y-702007D01*
X-3860822Y-711098D01*
X-3869913Y-715642D01*
X-3883550Y-715642D01*
X-3883550Y-692917D02*
G01*
X-3883550Y-715642D01*
X-3942641Y-745642D02*
G01*
X-3847185Y-745642D01*
X-3942641Y-745642D02*
G01*
X-3847185Y-809279D01*
X-3942641Y-809279D02*
G01*
X-3847185Y-809279D01*
X-3942641Y-839279D02*
G01*
X-3847185Y-839279D01*
X-3942641Y-839279D02*
G01*
X-3942641Y-871098D01*
X-3938094Y-884735D01*
X-3929004Y-893826D01*
X-3919913Y-898370D01*
X-3906276Y-902916D01*
X-3883550Y-902916D01*
X-3869913Y-898370D01*
X-3860822Y-893826D01*
X-3851732Y-884735D01*
X-3847185Y-871098D01*
X-3847185Y-839279D01*
X-3829771Y-171157D02*
G01*
X-3925227Y-134795D01*
X-3829771Y-98430D02*
G01*
X-3925227Y-134795D01*
X-3852499Y-248D02*
G01*
X-3843408Y-4792D01*
X-3834317Y-13886D01*
X-3829771Y-22976D01*
X-3829771Y-41158D01*
X-3834317Y-50248D01*
X-3843408Y-59339D01*
X-3852499Y-63886D01*
X-3866136Y-68430D01*
X-3888864Y-68430D01*
X-3902499Y-63886D01*
X-3911589Y-59339D01*
X-3920680Y-50248D01*
X-3925227Y-41158D01*
X-3925227Y-22976D01*
X-3920680Y-13886D01*
X-3911589Y-4792D01*
X-3902499Y-248D01*
X-3852499Y97932D02*
G01*
X-3843408Y93388D01*
X-3834317Y84297D01*
X-3829771Y75206D01*
X-3829771Y57023D01*
X-3834317Y47932D01*
X-3843408Y38841D01*
X-3852499Y34297D01*
X-3866136Y29751D01*
X-3888864Y29751D01*
X-3902499Y34297D01*
X-3911589Y38841D01*
X-3920680Y47932D01*
X-3925227Y57023D01*
X-3925227Y75206D01*
X-3920680Y84297D01*
X-3911589Y93388D01*
X-3902499Y97932D01*
X-1493123Y-351843D02*
G01*
X-1529445Y-447347D01*
X-1565767Y-351843D02*
G01*
X-1529445Y-447347D01*
X-1595739Y-351843D02*
G01*
X-1595739Y-447347D01*
X-1595739Y-351843D02*
G01*
X-1627743Y-351843D01*
X-1641205Y-356415D01*
X-1650349Y-365305D01*
X-1654921Y-374449D01*
X-1659493Y-388165D01*
X-1659493Y-410771D01*
X-1654921Y-424487D01*
X-1650349Y-433631D01*
X-1641205Y-442775D01*
X-1627743Y-447347D01*
X-1595739Y-447347D01*
X-1689465Y-351843D02*
G01*
X-1689465Y-447347D01*
X-1689465Y-351843D02*
G01*
X-1721215Y-351843D01*
X-1734931Y-356415D01*
X-1744075Y-365305D01*
X-1748647Y-374449D01*
X-1753219Y-388165D01*
X-1753219Y-410771D01*
X-1748647Y-424487D01*
X-1744075Y-433631D01*
X-1734931Y-442775D01*
X-1721215Y-447347D01*
X-1689465Y-447347D01*
X-1381716Y-541180D02*
G01*
X-1372623Y-532086D01*
X-1363532Y-527542D01*
X-1349898Y-527542D01*
X-1340807Y-532086D01*
X-1331716Y-541180D01*
X-1327170Y-554814D01*
X-1327170Y-563905D01*
X-1331716Y-577542D01*
X-1340807Y-586633D01*
X-1349898Y-591179D01*
X-1363532Y-591179D01*
X-1372623Y-586633D01*
X-1381716Y-577542D01*
X-1434442Y-527542D02*
G01*
X-1425351Y-532086D01*
X-1416260Y-541180D01*
X-1411716Y-554814D01*
X-1411716Y-563905D01*
X-1416260Y-577542D01*
X-1425351Y-586633D01*
X-1434442Y-591179D01*
X-1448079Y-591179D01*
X-1457170Y-586633D01*
X-1466260Y-577542D01*
X-1470807Y-563905D01*
X-1470807Y-554814D01*
X-1466260Y-541180D01*
X-1457170Y-532086D01*
X-1448079Y-527542D01*
X-1434442Y-527542D01*
X-1500807Y-527542D02*
G01*
X-1500807Y-591179D01*
X-1500807Y-545724D02*
G01*
X-1514441Y-532086D01*
X-1523532Y-527542D01*
X-1537169Y-527542D01*
X-1546260Y-532086D01*
X-1550807Y-545724D01*
X-1550807Y-591179D01*
X-1617169Y-495724D02*
G01*
X-1608079Y-495724D01*
X-1598988Y-500270D01*
X-1594441Y-513905D01*
X-1594441Y-591179D01*
X-1580807Y-527542D02*
G01*
X-1612623Y-527542D01*
X-1647169Y-495724D02*
G01*
X-1651716Y-500270D01*
X-1656260Y-495724D01*
X-1651716Y-491180D01*
X-1647169Y-495724D01*
X-1651716Y-527542D02*
G01*
X-1651716Y-591179D01*
X-1740806Y-527542D02*
G01*
X-1740806Y-600270D01*
X-1736260Y-613905D01*
X-1731716Y-618451D01*
X-1722622Y-622995D01*
X-1708988Y-622995D01*
X-1699897Y-618451D01*
X-1740806Y-541180D02*
G01*
X-1731716Y-532086D01*
X-1722622Y-527542D01*
X-1708988Y-527542D01*
X-1699897Y-532086D01*
X-1690806Y-541180D01*
X-1686260Y-554814D01*
X-1686260Y-563905D01*
X-1690806Y-577542D01*
X-1699897Y-586633D01*
X-1708988Y-591179D01*
X-1722622Y-591179D01*
X-1731716Y-586633D01*
X-1740806Y-577542D01*
X-2187160Y-413174D02*
G01*
X-2237160Y-413174D01*
X-2209888Y-449536D01*
X-2223523Y-449536D01*
X-2232616Y-454083D01*
X-2237160Y-458630D01*
X-2241707Y-472264D01*
X-2241707Y-481355D01*
X-2237160Y-494992D01*
X-2228070Y-504083D01*
X-2214432Y-508629D01*
X-2200798Y-508629D01*
X-2187160Y-504083D01*
X-2182616Y-499536D01*
X-2178070Y-490446D01*
X-2276251Y-485901D02*
G01*
X-2271707Y-490446D01*
X-2276251Y-494992D01*
X-2280798Y-490446D01*
X-2276251Y-485901D01*
X-2319888Y-413174D02*
G01*
X-2369888Y-413174D01*
X-2342616Y-449536D01*
X-2356251Y-449536D01*
X-2365341Y-454083D01*
X-2369888Y-458630D01*
X-2374432Y-472264D01*
X-2374432Y-481355D01*
X-2369888Y-494992D01*
X-2360797Y-504083D01*
X-2347160Y-508629D01*
X-2333523Y-508629D01*
X-2319888Y-504083D01*
X-2315342Y-499536D01*
X-2310798Y-490446D01*
X-2404432Y-413174D02*
G01*
X-2440797Y-508629D01*
X-2477160Y-413174D02*
G01*
X-2440797Y-508629D01*
X-2073866Y-571924D02*
G01*
X-2028410Y-571924D01*
X-2023866Y-612833D01*
X-2028410Y-608286D01*
X-2042048Y-603742D01*
X-2055682Y-603742D01*
X-2069320Y-608286D01*
X-2078410Y-617380D01*
X-2082957Y-631014D01*
X-2082957Y-640105D01*
X-2078410Y-653742D01*
X-2069320Y-662833D01*
X-2055682Y-667379D01*
X-2042048Y-667379D01*
X-2028410Y-662833D01*
X-2023866Y-658286D01*
X-2019320Y-649196D01*
X-2112957Y-571924D02*
G01*
X-2149320Y-667379D01*
X-2185682Y-571924D02*
G01*
X-2149320Y-667379D01*
X27068Y-270781D02*
G01*
X31612Y-261691D01*
X40703Y-252600D01*
X49796Y-248053D01*
X67978Y-248053D01*
X77068Y-252600D01*
X86159Y-261691D01*
X90703Y-270781D01*
X95250Y-284416D01*
X95250Y-307144D01*
X90703Y-320781D01*
X86159Y-329872D01*
X77068Y-338962D01*
X67978Y-343509D01*
X49796Y-343509D01*
X40703Y-338962D01*
X31612Y-329872D01*
X27068Y-320781D01*
X-66568Y-261691D02*
G01*
X-57477Y-252600D01*
X-43840Y-248053D01*
X-25659Y-248053D01*
X-12021Y-252600D01*
X-2931Y-261691D01*
X-2931Y-270781D01*
X-7477Y-279872D01*
X-12021Y-284416D01*
X-21112Y-288963D01*
X-48387Y-298053D01*
X-57477Y-302600D01*
X-62021Y-307144D01*
X-66568Y-316235D01*
X-66568Y-329872D01*
X-57477Y-338962D01*
X-43840Y-343509D01*
X-25659Y-343509D01*
X-12021Y-338962D01*
X-2931Y-329872D01*
X-105658Y-248053D02*
G01*
X-155658Y-248053D01*
X-128386Y-284416D01*
X-142021Y-284416D01*
X-151112Y-288963D01*
X-155658Y-293509D01*
X-160202Y-307144D01*
X-160202Y-316235D01*
X-155658Y-329872D01*
X-146568Y-338962D01*
X-132930Y-343509D01*
X-119296Y-343509D01*
X-105658Y-338962D01*
X-101112Y-334416D01*
X-96568Y-325325D01*
X-474482Y-258041D02*
G01*
X-470164Y-248897D01*
X-461020Y-240007D01*
X-451876Y-235435D01*
X-433588Y-235435D01*
X-424698Y-240007D01*
X-415554Y-248897D01*
X-410982Y-258041D01*
X-406410Y-271757D01*
X-406410Y-294363D01*
X-410982Y-308079D01*
X-415554Y-317223D01*
X-424698Y-326367D01*
X-433588Y-330939D01*
X-451876Y-330939D01*
X-461020Y-326367D01*
X-470164Y-317223D01*
X-474482Y-308079D01*
X-568208Y-248897D02*
G01*
X-559064Y-240007D01*
X-545602Y-235435D01*
X-527314Y-235435D01*
X-513598Y-240007D01*
X-504708Y-248897D01*
X-504708Y-258041D01*
X-509026Y-267185D01*
X-513598Y-271757D01*
X-522742Y-276329D01*
X-549920Y-285473D01*
X-559064Y-289791D01*
X-563636Y-294363D01*
X-568208Y-303507D01*
X-568208Y-317223D01*
X-559064Y-326367D01*
X-545602Y-330939D01*
X-527314Y-330939D01*
X-513598Y-326367D01*
X-504708Y-317223D01*
X-598180Y-253469D02*
G01*
X-607324Y-248897D01*
X-621040Y-235435D01*
X-621040Y-330939D01*
X-620572Y-578264D02*
G01*
X-584210Y-673719D01*
X-620572Y-578264D02*
G01*
X-656937Y-673719D01*
X-597847Y-641901D02*
G01*
X-643300Y-641901D01*
X-714209Y-578264D02*
G01*
X-700572Y-582810D01*
X-691481Y-596445D01*
X-686937Y-619173D01*
X-686937Y-632810D01*
X-691481Y-655535D01*
X-700572Y-669173D01*
X-714209Y-673719D01*
X-723300Y-673719D01*
X-736937Y-669173D01*
X-746028Y-655535D01*
X-750572Y-632810D01*
X-750572Y-619173D01*
X-746028Y-596445D01*
X-736937Y-582810D01*
X-723300Y-578264D01*
X-714209Y-578264D01*
X-360222Y-578264D02*
G01*
X-323860Y-673719D01*
X-360222Y-578264D02*
G01*
X-396587Y-673719D01*
X-337497Y-641901D02*
G01*
X-382950Y-641901D01*
X-426587Y-596445D02*
G01*
X-435678Y-591901D01*
X-449313Y-578264D01*
X-449313Y-673719D01*
X198567Y-584624D02*
G01*
X234929Y-680079D01*
X198567Y-584624D02*
G01*
X162201Y-680079D01*
X221292Y-648261D02*
G01*
X175839Y-648261D01*
X123111Y-584624D02*
G01*
X73111Y-584624D01*
X100383Y-620986D01*
X86748Y-620986D01*
X77657Y-625533D01*
X73111Y-630080D01*
X68567Y-643714D01*
X68567Y-652805D01*
X73111Y-666442D01*
X82202Y-675533D01*
X95839Y-680079D01*
X109476Y-680079D01*
X123111Y-675533D01*
X127657Y-670986D01*
X132201Y-661896D01*
X-93532Y-571924D02*
G01*
X-57170Y-667379D01*
X-93532Y-571924D02*
G01*
X-129898Y-667379D01*
X-70807Y-635561D02*
G01*
X-116260Y-635561D01*
X-164442Y-594652D02*
G01*
X-164442Y-590105D01*
X-168988Y-581014D01*
X-173532Y-576470D01*
X-182623Y-571924D01*
X-200807Y-571924D01*
X-209897Y-576470D01*
X-214442Y-581014D01*
X-218988Y-590105D01*
X-218988Y-599196D01*
X-214442Y-608286D01*
X-205351Y-621924D01*
X-159898Y-667379D01*
X-223532Y-667379D01*
X-1136670Y3447625D02*
G01*
X-1136670Y3352170D01*
X-1136670Y3447625D02*
G01*
X-1195760Y3447625D01*
X-1136670Y3402169D02*
G01*
X-1173032Y3402169D01*
X-1136670Y3352170D02*
G01*
X-1195760Y3352170D01*
X-1225760Y3447625D02*
G01*
X-1225760Y3352170D01*
X-1225760Y3447625D02*
G01*
X-1289397Y3352170D01*
X-1289397Y3447625D02*
G01*
X-1289397Y3352170D01*
X-1368958Y3739715D02*
G01*
X-1355321Y3735169D01*
X-1350777Y3726078D01*
X-1350777Y3716987D01*
X-1355321Y3707897D01*
X-1364411Y3703353D01*
X-1382593Y3698806D01*
X-1396230Y3694259D01*
X-1405321Y3685169D01*
X-1409867Y3676078D01*
X-1409867Y3662443D01*
X-1405321Y3653353D01*
X-1400776Y3648806D01*
X-1387139Y3644259D01*
X-1368958Y3644259D01*
X-1355321Y3648806D01*
X-1350777Y3653353D01*
X-1346230Y3662443D01*
X-1346230Y3676078D01*
X-1350777Y3685169D01*
X-1359867Y3694259D01*
X-1373502Y3698806D01*
X-1391683Y3703353D01*
X-1400776Y3707897D01*
X-1405321Y3716987D01*
X-1405321Y3726078D01*
X-1400776Y3735169D01*
X-1387139Y3739715D01*
X-1368958Y3739715D01*
X-1111417Y3739715D02*
G01*
X-1065961Y3644259D01*
X-1047780Y3739715D02*
G01*
X-1111417Y3739715D01*
X-600676Y3746065D02*
G01*
X-555221Y3746065D01*
X-550677Y3705156D01*
X-555221Y3709703D01*
X-568858Y3714247D01*
X-582493Y3714247D01*
X-596130Y3709703D01*
X-605221Y3700609D01*
X-609767Y3686975D01*
X-609767Y3677884D01*
X-605221Y3664247D01*
X-596130Y3655156D01*
X-582493Y3650609D01*
X-568858Y3650609D01*
X-555221Y3655156D01*
X-550677Y3659703D01*
X-546130Y3668793D01*
X-269471Y3746065D02*
G01*
X-319471Y3746065D01*
X-292199Y3709703D01*
X-305833Y3709703D01*
X-314926Y3705156D01*
X-319471Y3700609D01*
X-324017Y3686975D01*
X-324017Y3677884D01*
X-319471Y3664247D01*
X-310380Y3655156D01*
X-296743Y3650609D01*
X-283108Y3650609D01*
X-269471Y3655156D01*
X-264927Y3659703D01*
X-260380Y3668793D01*
X-349270Y3453975D02*
G01*
X-349270Y3358520D01*
X-379270Y3453975D02*
G01*
X-379270Y3358520D01*
X-379270Y3453975D02*
G01*
X-442907Y3358520D01*
X-442907Y3453975D02*
G01*
X-442907Y3358520D01*
X-541088Y3431247D02*
G01*
X-536541Y3440338D01*
X-527451Y3449429D01*
X-518360Y3453975D01*
X-500179Y3453975D01*
X-491088Y3449429D01*
X-481998Y3440338D01*
X-477451Y3431247D01*
X-472907Y3417613D01*
X-472907Y3394885D01*
X-477451Y3381248D01*
X-481998Y3372157D01*
X-491088Y3363066D01*
X-500179Y3358520D01*
X-518360Y3358520D01*
X-527451Y3363066D01*
X-536541Y3372157D01*
X-541088Y3381248D01*
X-1714520Y3441275D02*
G01*
X-1714520Y3345820D01*
X-1744520Y3441275D02*
G01*
X-1744520Y3345820D01*
X-1744520Y3441275D02*
G01*
X-1808157Y3345820D01*
X-1808157Y3441275D02*
G01*
X-1808157Y3345820D01*
X-1838157Y3441275D02*
G01*
X-1838157Y3345820D01*
X-1838157Y3441275D02*
G01*
X-1879066Y3441275D01*
X-1892701Y3436729D01*
X-1897247Y3432185D01*
X-1901791Y3423094D01*
X-1901791Y3414003D01*
X-1897247Y3404913D01*
X-1892701Y3400366D01*
X-1879066Y3395819D01*
X-1838157Y3395819D02*
G01*
X-1879066Y3395819D01*
X-1892701Y3391275D01*
X-1897247Y3386729D01*
X-1901791Y3377638D01*
X-1901791Y3364003D01*
X-1897247Y3354913D01*
X-1892701Y3350366D01*
X-1879066Y3345820D01*
X-1838157Y3345820D01*
X-1873280Y3727884D02*
G01*
X-1882371Y3732428D01*
X-1896008Y3746065D01*
X-1896008Y3650609D01*
X-1953280Y3746065D02*
G01*
X-1939643Y3741519D01*
X-1930552Y3727884D01*
X-1926008Y3705156D01*
X-1926008Y3691519D01*
X-1930552Y3668793D01*
X-1939643Y3655156D01*
X-1953280Y3650609D01*
X-1962370Y3650609D01*
X-1976008Y3655156D01*
X-1985098Y3668793D01*
X-1989642Y3691519D01*
X-1989642Y3705156D01*
X-1985098Y3727884D01*
X-1976008Y3741519D01*
X-1962370Y3746065D01*
X-1953280Y3746065D01*
X-1678371Y3714247D02*
G01*
X-1673826Y3700609D01*
X-1664733Y3691519D01*
X-1651099Y3686975D01*
X-1646552Y3686975D01*
X-1632917Y3691519D01*
X-1623827Y3700609D01*
X-1619280Y3714247D01*
X-1619280Y3718793D01*
X-1623827Y3732428D01*
X-1632917Y3741519D01*
X-1646552Y3746065D01*
X-1651099Y3746065D01*
X-1664733Y3741519D01*
X-1673826Y3732428D01*
X-1678371Y3714247D01*
X-1678371Y3691519D01*
X-1673826Y3668793D01*
X-1664733Y3655156D01*
X-1651099Y3650609D01*
X-1642008Y3650609D01*
X-1628371Y3655156D01*
X-1623827Y3664247D01*
X-2635260Y3511135D02*
G01*
X-2635260Y3415680D01*
X-2665260Y3511135D02*
G01*
X-2665260Y3415680D01*
X-2665260Y3511135D02*
G01*
X-2728897Y3415680D01*
X-2728897Y3511135D02*
G01*
X-2728897Y3415680D01*
X-2795259Y3511135D02*
G01*
X-2758897Y3415680D01*
X-2795259Y3511135D02*
G01*
X-2831622Y3415680D01*
X-2772531Y3447498D02*
G01*
X-2817987Y3447498D01*
X-2190780Y3727884D02*
G01*
X-2199871Y3732428D01*
X-2213508Y3746065D01*
X-2213508Y3650609D01*
X-2243508Y3727884D02*
G01*
X-2252599Y3732428D01*
X-2266233Y3746065D01*
X-2266233Y3650609D01*
X-2463830Y3734234D02*
G01*
X-2472921Y3738778D01*
X-2486558Y3752415D01*
X-2486558Y3656959D01*
X-2525649Y3752415D02*
G01*
X-2575648Y3752415D01*
X-2548376Y3716053D01*
X-2562011Y3716053D01*
X-2571102Y3711506D01*
X-2575648Y3706959D01*
X-2580192Y3693325D01*
X-2580192Y3684234D01*
X-2575648Y3670597D01*
X-2566558Y3661506D01*
X-2552920Y3656959D01*
X-2539283Y3656959D01*
X-2525649Y3661506D01*
X-2521102Y3666053D01*
X-2516558Y3675143D01*
X-2397716Y3281588D02*
G01*
X-2393170Y3290679D01*
X-2379532Y3295225D01*
X-2370442Y3295225D01*
X-2356807Y3290679D01*
X-2347716Y3277044D01*
X-2343170Y3254316D01*
X-2343170Y3231588D01*
X-2347716Y3213407D01*
X-2356807Y3204316D01*
X-2370442Y3199770D01*
X-2374988Y3199770D01*
X-2388623Y3204316D01*
X-2397716Y3213407D01*
X-2402260Y3227044D01*
X-2402260Y3231588D01*
X-2397716Y3245225D01*
X-2388623Y3254316D01*
X-2374988Y3258863D01*
X-2370442Y3258863D01*
X-2356807Y3254316D01*
X-2347716Y3245225D01*
X-2343170Y3231588D01*
X108620Y268704D02*
G01*
X204076Y305066D01*
X108620Y268704D02*
G01*
X204076Y232338D01*
X172257Y291429D02*
G01*
X172257Y245976D01*
X108620Y193248D02*
G01*
X108620Y143248D01*
X144983Y170520D01*
X144983Y156885D01*
X149529Y147794D01*
X154076Y143248D01*
X167711Y138704D01*
X176801Y138704D01*
X190439Y143248D01*
X199529Y152339D01*
X204076Y165976D01*
X204076Y179613D01*
X199529Y193248D01*
X194983Y197794D01*
X185892Y202338D01*
X-164360Y349516D02*
G01*
X-100723Y349516D01*
X-146179Y349516D02*
G01*
X-159816Y335879D01*
X-164360Y326788D01*
X-164360Y313154D01*
X-159816Y304063D01*
X-146179Y299516D01*
X-100723Y299516D01*
X-196179Y269516D02*
G01*
X-100723Y269516D01*
X-196179Y269516D02*
G01*
X-196179Y210426D01*
X-150723Y269516D02*
G01*
X-150723Y233154D01*
X-196179Y180426D02*
G01*
X-100723Y180426D01*
X-100723Y180426D02*
G01*
X-100723Y125879D01*
X-196179Y64063D02*
G01*
X-100723Y64063D01*
X-196179Y95879D02*
G01*
X-196179Y32245D01*
X327428Y3688915D02*
G01*
X277428Y3688915D01*
X304700Y3652553D01*
X291066Y3652553D01*
X281973Y3648006D01*
X277428Y3643459D01*
X272882Y3629825D01*
X272882Y3620734D01*
X277428Y3607097D01*
X286519Y3598006D01*
X300156Y3593459D01*
X313791Y3593459D01*
X327428Y3598006D01*
X331972Y3602553D01*
X336519Y3611643D01*
X184129Y3810444D02*
G01*
X175039Y3814988D01*
X161401Y3828625D01*
X161401Y3733170D01*
X126857Y3805897D02*
G01*
X126857Y3810444D01*
X122311Y3819535D01*
X117767Y3824079D01*
X108676Y3828625D01*
X90492Y3828625D01*
X81401Y3824079D01*
X76857Y3819535D01*
X72311Y3810444D01*
X72311Y3801353D01*
X76857Y3792263D01*
X85948Y3778625D01*
X131401Y3733170D01*
X67767Y3733170D01*
X304408Y3310633D02*
G01*
X304408Y3315180D01*
X299864Y3324270D01*
X295318Y3328814D01*
X286227Y3333361D01*
X268046Y3333361D01*
X258955Y3328814D01*
X254408Y3324270D01*
X249864Y3315180D01*
X249864Y3306089D01*
X254408Y3296998D01*
X263502Y3283361D01*
X308955Y3237905D01*
X245318Y3237905D01*
X-467Y3333351D02*
G01*
X35895Y3237895D01*
X-467Y3333351D02*
G01*
X-36832Y3237895D01*
X22258Y3269714D02*
G01*
X-23195Y3269714D01*
X-121376Y3333351D02*
G01*
X-75923Y3333351D01*
X-71376Y3292441D01*
X-75923Y3296988D01*
X-89557Y3301532D01*
X-103195Y3301532D01*
X-116832Y3296988D01*
X-125923Y3287895D01*
X-130467Y3274260D01*
X-130467Y3265170D01*
X-125923Y3251532D01*
X-116832Y3242442D01*
X-103195Y3237895D01*
X-89557Y3237895D01*
X-75923Y3242442D01*
X-71376Y3246988D01*
X-66832Y3256079D01*
X1717Y3682575D02*
G01*
X38079Y3587120D01*
X1717Y3682575D02*
G01*
X-34648Y3587120D01*
X24442Y3618938D02*
G01*
X-21010Y3618938D01*
X-110101Y3682575D02*
G01*
X-64648Y3618938D01*
X-132829Y3618938D01*
X-110101Y3682575D02*
G01*
X-110101Y3587120D01*
X381670Y3657866D02*
G01*
X477126Y3657866D01*
X381670Y3657866D02*
G01*
X381670Y3598776D01*
X427126Y3657866D02*
G01*
X427126Y3621504D01*
X477126Y3657866D02*
G01*
X477126Y3598776D01*
X381670Y3568776D02*
G01*
X477126Y3568776D01*
X381670Y3568776D02*
G01*
X477126Y3505139D01*
X381670Y3505139D02*
G01*
X477126Y3505139D01*
X381670Y3438776D02*
G01*
X477126Y3475139D01*
X381670Y3438776D02*
G01*
X477126Y3402413D01*
X445307Y3461504D02*
G01*
X445307Y3416048D01*
X379486Y3283242D02*
G01*
X474941Y3283242D01*
X379486Y3283242D02*
G01*
X379486Y3224151D01*
X424941Y3283242D02*
G01*
X424941Y3246879D01*
X474941Y3283242D02*
G01*
X474941Y3224151D01*
X379486Y3194151D02*
G01*
X474941Y3194151D01*
X379486Y3194151D02*
G01*
X474941Y3130514D01*
X379486Y3130514D02*
G01*
X474941Y3130514D01*
X379486Y3100514D02*
G01*
X474941Y3100514D01*
X379486Y3100514D02*
G01*
X379486Y3059605D01*
X384032Y3045970D01*
X388576Y3041423D01*
X397667Y3036879D01*
X406758Y3036879D01*
X415848Y3041423D01*
X420395Y3045970D01*
X424941Y3059605D01*
X424941Y3100514D02*
G01*
X424941Y3059605D01*
X429486Y3045970D01*
X434032Y3041423D01*
X443123Y3036879D01*
X456758Y3036879D01*
X465848Y3041423D01*
X470395Y3045970D01*
X474941Y3059605D01*
X474941Y3100514D01*
X385836Y2921292D02*
G01*
X481291Y2921292D01*
X385836Y2921292D02*
G01*
X385836Y2862201D01*
X431291Y2921292D02*
G01*
X431291Y2884929D01*
X481291Y2921292D02*
G01*
X481291Y2862201D01*
X385836Y2832201D02*
G01*
X481291Y2832201D01*
X385836Y2832201D02*
G01*
X481291Y2768564D01*
X385836Y2768564D02*
G01*
X481291Y2768564D01*
X408564Y2670383D02*
G01*
X399473Y2674929D01*
X390382Y2684020D01*
X385836Y2693111D01*
X385836Y2711292D01*
X390382Y2720383D01*
X399473Y2729473D01*
X408564Y2734020D01*
X422198Y2738564D01*
X444926Y2738564D01*
X458563Y2734020D01*
X467654Y2729473D01*
X476745Y2720383D01*
X481291Y2711292D01*
X481291Y2693111D01*
X476745Y2684020D01*
X467654Y2674929D01*
X458563Y2670383D01*
X263491Y2780901D02*
G01*
X308945Y2717264D01*
X240764Y2717264D01*
X263491Y2780901D02*
G01*
X263491Y2685445D01*
X33700Y2756385D02*
G01*
X24610Y2760929D01*
X10972Y2774566D01*
X10972Y2679110D01*
X-28117Y2774566D02*
G01*
X-78117Y2774566D01*
X-50845Y2738203D01*
X-64480Y2738203D01*
X-73571Y2733657D01*
X-78117Y2729110D01*
X-82661Y2715475D01*
X-82661Y2706385D01*
X-78117Y2692747D01*
X-69027Y2683657D01*
X-55389Y2679110D01*
X-41752Y2679110D01*
X-28117Y2683657D01*
X-23571Y2688203D01*
X-19027Y2697294D01*
X169245Y2597619D02*
G01*
X160154Y2602163D01*
X146517Y2615801D01*
X146517Y2520345D01*
X116517Y2597619D02*
G01*
X107426Y2602163D01*
X93792Y2615801D01*
X93792Y2520345D01*
X876990Y2047591D02*
G01*
X972446Y2047591D01*
X922445Y2047591D02*
G01*
X913354Y2056681D01*
X908809Y2065773D01*
X908809Y2079409D01*
X913354Y2088500D01*
X922445Y2097590D01*
X936081Y2102137D01*
X945172Y2102137D01*
X958809Y2097590D01*
X967900Y2088500D01*
X972446Y2079409D01*
X972446Y2065773D01*
X967900Y2056681D01*
X958809Y2047591D01*
X908809Y1994864D02*
G01*
X913354Y2003955D01*
X922445Y2013046D01*
X936081Y2017591D01*
X945172Y2017591D01*
X958809Y2013046D01*
X967900Y2003955D01*
X972446Y1994864D01*
X972446Y1981227D01*
X967900Y1972137D01*
X958809Y1963046D01*
X945172Y1958500D01*
X936081Y1958500D01*
X922445Y1963046D01*
X913354Y1972137D01*
X908809Y1981227D01*
X908809Y1994864D01*
X922445Y1873956D02*
G01*
X913354Y1883046D01*
X908809Y1892136D01*
X908809Y1905773D01*
X913354Y1914865D01*
X922445Y1923956D01*
X936081Y1928500D01*
X945172Y1928500D01*
X958809Y1923956D01*
X967900Y1914865D01*
X972446Y1905773D01*
X972446Y1892136D01*
X967900Y1883046D01*
X958809Y1873956D01*
X922445Y1793956D02*
G01*
X913354Y1798500D01*
X908809Y1812137D01*
X908809Y1825772D01*
X913354Y1839409D01*
X922445Y1843956D01*
X931537Y1839409D01*
X936081Y1830318D01*
X940627Y1807590D01*
X945172Y1798500D01*
X954263Y1793956D01*
X958809Y1793956D01*
X967900Y1798500D01*
X972446Y1812137D01*
X972446Y1825772D01*
X967900Y1839409D01*
X958809Y1843956D01*
X949718Y1759409D02*
G01*
X954263Y1763955D01*
X958809Y1759409D01*
X954263Y1754864D01*
X949718Y1759409D01*
X922445Y1674863D02*
G01*
X913354Y1679409D01*
X908809Y1693045D01*
X908809Y1706682D01*
X913354Y1720318D01*
X922445Y1724863D01*
X931537Y1720318D01*
X936081Y1711227D01*
X940627Y1688500D01*
X945172Y1679409D01*
X954263Y1674863D01*
X958809Y1674863D01*
X967900Y1679409D01*
X972446Y1693045D01*
X972446Y1706682D01*
X967900Y1720318D01*
X958809Y1724863D01*
X876990Y1644863D02*
G01*
X881536Y1640318D01*
X876990Y1635772D01*
X872445Y1640318D01*
X876990Y1644863D01*
X908809Y1640318D02*
G01*
X972446Y1640318D01*
X908809Y1605772D02*
G01*
X972446Y1605772D01*
X926990Y1605772D02*
G01*
X913354Y1592135D01*
X908809Y1583044D01*
X908809Y1569410D01*
X913354Y1560319D01*
X926990Y1555772D01*
X972446Y1555772D01*
X926990Y1555772D02*
G01*
X913354Y1542135D01*
X908809Y1533044D01*
X908809Y1519410D01*
X913354Y1510319D01*
X926990Y1505772D01*
X972446Y1505772D01*
X908809Y1475773D02*
G01*
X1004263Y1475773D01*
X922445Y1475773D02*
G01*
X913354Y1466682D01*
X908809Y1457591D01*
X908809Y1443954D01*
X913354Y1434863D01*
X922445Y1425773D01*
X936081Y1421226D01*
X945172Y1421226D01*
X958809Y1425773D01*
X967900Y1434863D01*
X972446Y1443954D01*
X972446Y1457591D01*
X967900Y1466682D01*
X958809Y1475773D01*
X876990Y1391226D02*
G01*
X972446Y1391226D01*
X936081Y1361226D02*
G01*
X936081Y1306682D01*
X926990Y1306682D01*
X917900Y1311226D01*
X913354Y1315772D01*
X908809Y1324864D01*
X908809Y1338501D01*
X913354Y1347591D01*
X922445Y1356682D01*
X936081Y1361226D01*
X945172Y1361226D01*
X958809Y1356682D01*
X967900Y1347591D01*
X972446Y1338501D01*
X972446Y1324864D01*
X967900Y1315772D01*
X958809Y1306682D01*
X876990Y1240317D02*
G01*
X876990Y1249408D01*
X881536Y1258500D01*
X895172Y1263045D01*
X972446Y1263045D01*
X908809Y1276682D02*
G01*
X908809Y1244863D01*
X908809Y1187592D02*
G01*
X913354Y1196682D01*
X922445Y1205773D01*
X936081Y1210317D01*
X945172Y1210317D01*
X958809Y1205773D01*
X967900Y1196682D01*
X972446Y1187592D01*
X972446Y1173954D01*
X967900Y1164864D01*
X958809Y1155773D01*
X945172Y1151227D01*
X936081Y1151227D01*
X922445Y1155773D01*
X913354Y1164864D01*
X908809Y1173954D01*
X908809Y1187592D01*
X922445Y1066683D02*
G01*
X913354Y1075772D01*
X908809Y1084864D01*
X908809Y1098499D01*
X913354Y1107589D01*
X922445Y1116681D01*
X936081Y1121227D01*
X945172Y1121227D01*
X958809Y1116681D01*
X967900Y1107589D01*
X972446Y1098499D01*
X972446Y1084864D01*
X967900Y1075772D01*
X958809Y1066683D01*
X949718Y1032136D02*
G01*
X954263Y1036680D01*
X958809Y1032136D01*
X954263Y1027590D01*
X949718Y1032136D01*
X922445Y943046D02*
G01*
X913354Y952136D01*
X908809Y961227D01*
X908809Y974864D01*
X913354Y983955D01*
X922445Y993046D01*
X936081Y997590D01*
X945172Y997590D01*
X958809Y993046D01*
X967900Y983955D01*
X972446Y974864D01*
X972446Y961227D01*
X967900Y952136D01*
X958809Y943046D01*
X908809Y890318D02*
G01*
X913354Y899408D01*
X922445Y908499D01*
X936081Y913046D01*
X945172Y913046D01*
X958809Y908499D01*
X967900Y899408D01*
X972446Y890318D01*
X972446Y876681D01*
X967900Y867590D01*
X958809Y858499D01*
X945172Y853955D01*
X936081Y853955D01*
X922445Y858499D01*
X913354Y867590D01*
X908809Y876681D01*
X908809Y890318D01*
X908809Y823955D02*
G01*
X972446Y823955D01*
X926990Y823955D02*
G01*
X913354Y810318D01*
X908809Y801227D01*
X908809Y787590D01*
X913354Y778499D01*
X926990Y773953D01*
X972446Y773953D01*
X926990Y773953D02*
G01*
X913354Y760318D01*
X908809Y751227D01*
X908809Y737590D01*
X913354Y728499D01*
X926990Y723953D01*
X972446Y723953D01*
X1078590Y2074864D02*
G01*
X1083137Y2088500D01*
X1096771Y2097590D01*
X1119500Y2102137D01*
X1133136Y2102137D01*
X1155862Y2097590D01*
X1169499Y2088500D01*
X1174045Y2074864D01*
X1174045Y2065773D01*
X1169499Y2052136D01*
X1155862Y2043046D01*
X1133136Y2038500D01*
X1119500Y2038500D01*
X1096771Y2043046D01*
X1083137Y2052136D01*
X1078590Y2065773D01*
X1078590Y2074864D01*
X1092227Y1953955D02*
G01*
X1083137Y1958500D01*
X1078590Y1972137D01*
X1078590Y1981227D01*
X1083137Y1994864D01*
X1096771Y2003955D01*
X1119500Y2008500D01*
X1142227Y2008500D01*
X1160409Y2003955D01*
X1169499Y1994864D01*
X1174045Y1981227D01*
X1174045Y1976682D01*
X1169499Y1963046D01*
X1160409Y1953955D01*
X1146772Y1949409D01*
X1142227Y1949409D01*
X1128590Y1953955D01*
X1119500Y1963046D01*
X1114953Y1976682D01*
X1114953Y1981227D01*
X1119500Y1994864D01*
X1128590Y2003955D01*
X1142227Y2008500D01*
X1060409Y1837590D02*
G01*
X1205863Y1919409D01*
X1101318Y1803046D02*
G01*
X1096771Y1803046D01*
X1087681Y1798500D01*
X1083137Y1793956D01*
X1078590Y1784864D01*
X1078590Y1766681D01*
X1083137Y1757591D01*
X1087681Y1753047D01*
X1096771Y1748500D01*
X1105863Y1748500D01*
X1114953Y1753047D01*
X1128590Y1762137D01*
X1174045Y1807590D01*
X1174045Y1743955D01*
X1078590Y1686682D02*
G01*
X1083137Y1700318D01*
X1096771Y1709409D01*
X1119500Y1713954D01*
X1133136Y1713954D01*
X1155862Y1709409D01*
X1169499Y1700318D01*
X1174045Y1686682D01*
X1174045Y1677591D01*
X1169499Y1663954D01*
X1155862Y1654863D01*
X1133136Y1650318D01*
X1119500Y1650318D01*
X1096771Y1654863D01*
X1083137Y1663954D01*
X1078590Y1677591D01*
X1078590Y1686682D01*
X1101318Y1615773D02*
G01*
X1096771Y1615773D01*
X1087681Y1611228D01*
X1083137Y1606682D01*
X1078590Y1597591D01*
X1078590Y1579409D01*
X1083137Y1570319D01*
X1087681Y1565773D01*
X1096771Y1561227D01*
X1105863Y1561227D01*
X1114953Y1565773D01*
X1128590Y1574864D01*
X1174045Y1620319D01*
X1174045Y1556682D01*
X1092227Y1472135D02*
G01*
X1083137Y1476682D01*
X1078590Y1490319D01*
X1078590Y1499410D01*
X1083137Y1513044D01*
X1096771Y1522136D01*
X1119500Y1526682D01*
X1142227Y1526682D01*
X1160409Y1522136D01*
X1169499Y1513044D01*
X1174045Y1499410D01*
X1174045Y1494863D01*
X1169499Y1481227D01*
X1160409Y1472135D01*
X1146772Y1467591D01*
X1142227Y1467591D01*
X1128590Y1472135D01*
X1119500Y1481227D01*
X1114953Y1494863D01*
X1114953Y1499410D01*
X1119500Y1513044D01*
X1128590Y1522136D01*
X1142227Y1526682D01*
X-869960Y3244435D02*
G01*
X-869960Y3148980D01*
X-869960Y3244435D02*
G01*
X-901778Y3244435D01*
X-915413Y3239889D01*
X-924506Y3230798D01*
X-929050Y3221708D01*
X-933597Y3208073D01*
X-933597Y3185345D01*
X-929050Y3171708D01*
X-924506Y3162617D01*
X-915413Y3153526D01*
X-901778Y3148980D01*
X-869960Y3148980D01*
X-963597Y3244435D02*
G01*
X-963597Y3148980D01*
X-963597Y3244435D02*
G01*
X-1004506Y3244435D01*
X-1018141Y3239889D01*
X-1022687Y3235345D01*
X-1027231Y3226254D01*
X-1027231Y3217164D01*
X-1022687Y3208073D01*
X-1018141Y3203526D01*
X-1004506Y3198982D01*
X-963597Y3198982D01*
X-995415Y3198982D02*
G01*
X-1027231Y3148980D01*
X-1057231Y3244435D02*
G01*
X-1093597Y3148980D01*
X-1129959Y3244435D02*
G01*
X-1093597Y3148980D01*
X-1182687Y3244435D02*
G01*
X-1169050Y3239889D01*
X-1164506Y3230798D01*
X-1164506Y3221708D01*
X-1169050Y3212617D01*
X-1178140Y3208073D01*
X-1196324Y3203526D01*
X-1209959Y3198982D01*
X-1219050Y3189889D01*
X-1223596Y3180798D01*
X-1223596Y3167164D01*
X-1219050Y3158073D01*
X-1214506Y3153526D01*
X-1200868Y3148980D01*
X-1182687Y3148980D01*
X-1169050Y3153526D01*
X-1164506Y3158073D01*
X-1159959Y3167164D01*
X-1159959Y3180798D01*
X-1164506Y3189889D01*
X-1173596Y3198982D01*
X-1187234Y3203526D01*
X-1205415Y3208073D01*
X-1214506Y3212617D01*
X-1219050Y3221708D01*
X-1219050Y3230798D01*
X-1214506Y3239889D01*
X-1200868Y3244435D01*
X-1182687Y3244435D01*
X-1262687Y3244435D02*
G01*
X-1312687Y3244435D01*
X-1285415Y3208073D01*
X-1299052Y3208073D01*
X-1308143Y3203526D01*
X-1312687Y3198982D01*
X-1317233Y3185345D01*
X-1317233Y3176254D01*
X-1312687Y3162617D01*
X-1303596Y3153526D01*
X-1289959Y3148980D01*
X-1276324Y3148980D01*
X-1262687Y3153526D01*
X-1258143Y3158073D01*
X-1253596Y3167164D01*
X-1351777Y3221708D02*
G01*
X-1351777Y3226254D01*
X-1356324Y3235345D01*
X-1360868Y3239889D01*
X-1369961Y3244435D01*
X-1388143Y3244435D01*
X-1397233Y3239889D01*
X-1401777Y3235345D01*
X-1406324Y3226254D01*
X-1406324Y3217164D01*
X-1401777Y3208073D01*
X-1392687Y3194436D01*
X-1347233Y3148980D01*
X-1410868Y3148980D01*
X-1468142Y3244435D02*
G01*
X-1454505Y3239889D01*
X-1445414Y3226254D01*
X-1440868Y3203526D01*
X-1440868Y3189889D01*
X-1445414Y3167164D01*
X-1454505Y3153526D01*
X-1468142Y3148980D01*
X-1477233Y3148980D01*
X-1490870Y3153526D01*
X-1499961Y3167164D01*
X-1504505Y3189889D01*
X-1504505Y3203526D01*
X-1499961Y3226254D01*
X-1490870Y3239889D01*
X-1477233Y3244435D01*
X-1468142Y3244435D01*
X-1604505Y3212617D02*
G01*
X-1604505Y3117164D01*
X-1604505Y3198982D02*
G01*
X-1613595Y3208073D01*
X-1622686Y3212617D01*
X-1636323Y3212617D01*
X-1645414Y3208073D01*
X-1654505Y3198982D01*
X-1659051Y3185345D01*
X-1659051Y3176254D01*
X-1654505Y3162617D01*
X-1645414Y3153526D01*
X-1636323Y3148980D01*
X-1622686Y3148980D01*
X-1613595Y3153526D01*
X-1604505Y3162617D01*
X-1689051Y3244435D02*
G01*
X-1693595Y3239889D01*
X-1698142Y3244435D01*
X-1693595Y3248982D01*
X-1689051Y3244435D01*
X-1693595Y3212617D02*
G01*
X-1693595Y3148980D01*
X-1728142Y3212617D02*
G01*
X-1728142Y3148980D01*
X-1728142Y3194436D02*
G01*
X-1741779Y3208073D01*
X-1750870Y3212617D01*
X-1764504Y3212617D01*
X-1773598Y3208073D01*
X-1778142Y3194436D01*
X-1778142Y3148980D01*
X-1830870Y3212617D02*
G01*
X-1821779Y3208073D01*
X-1812688Y3198982D01*
X-1808142Y3185345D01*
X-1808142Y3176254D01*
X-1812688Y3162617D01*
X-1821779Y3153526D01*
X-1830870Y3148980D01*
X-1844507Y3148980D01*
X-1853598Y3153526D01*
X-1862688Y3162617D01*
X-1867232Y3176254D01*
X-1867232Y3185345D01*
X-1862688Y3198982D01*
X-1853598Y3208073D01*
X-1844507Y3212617D01*
X-1830870Y3212617D01*
X-1897232Y3212617D02*
G01*
X-1897232Y3167164D01*
X-1901779Y3153526D01*
X-1910869Y3148980D01*
X-1924507Y3148980D01*
X-1933597Y3153526D01*
X-1947232Y3167164D01*
X-1947232Y3212617D02*
G01*
X-1947232Y3148980D01*
X-1990869Y3244435D02*
G01*
X-1990869Y3167164D01*
X-1995416Y3153526D01*
X-2004507Y3148980D01*
X-2013597Y3148980D01*
X-1977232Y3212617D02*
G01*
X-2009051Y3212617D01*
X-924506Y2997380D02*
G01*
X-915413Y3006473D01*
X-906322Y3011017D01*
X-892688Y3011017D01*
X-883597Y3006473D01*
X-874506Y2997380D01*
X-869960Y2983745D01*
X-869960Y2974654D01*
X-874506Y2961017D01*
X-883597Y2951927D01*
X-892688Y2947380D01*
X-906322Y2947380D01*
X-915413Y2951927D01*
X-924506Y2961017D01*
X-977231Y3011017D02*
G01*
X-968141Y3006473D01*
X-959050Y2997380D01*
X-954506Y2983745D01*
X-954506Y2974654D01*
X-959050Y2961017D01*
X-968141Y2951927D01*
X-977231Y2947380D01*
X-990869Y2947380D01*
X-999959Y2951927D01*
X-1009050Y2961017D01*
X-1013597Y2974654D01*
X-1013597Y2983745D01*
X-1009050Y2997380D01*
X-999959Y3006473D01*
X-990869Y3011017D01*
X-977231Y3011017D01*
X-1043597Y3011017D02*
G01*
X-1043597Y2947380D01*
X-1043597Y2992836D02*
G01*
X-1057231Y3006473D01*
X-1066325Y3011017D01*
X-1079959Y3011017D01*
X-1089050Y3006473D01*
X-1093597Y2992836D01*
X-1093597Y2947380D01*
X-1159959Y3042836D02*
G01*
X-1150868Y3042836D01*
X-1141778Y3038289D01*
X-1137234Y3024654D01*
X-1137234Y2947380D01*
X-1123596Y3011017D02*
G01*
X-1155415Y3011017D01*
X-1189959Y3042836D02*
G01*
X-1194506Y3038289D01*
X-1199050Y3042836D01*
X-1194506Y3047380D01*
X-1189959Y3042836D01*
X-1194506Y3011017D02*
G01*
X-1194506Y2947380D01*
X-1283596Y3011017D02*
G01*
X-1283596Y2938289D01*
X-1279050Y2924655D01*
X-1274505Y2920108D01*
X-1265415Y2915564D01*
X-1251778Y2915564D01*
X-1242687Y2920108D01*
X-1283596Y2997380D02*
G01*
X-1274505Y3006473D01*
X-1265415Y3011017D01*
X-1251778Y3011017D01*
X-1242687Y3006473D01*
X-1233596Y2997380D01*
X-1229050Y2983745D01*
X-1229050Y2974654D01*
X-1233596Y2961017D01*
X-1242687Y2951927D01*
X-1251778Y2947380D01*
X-1265415Y2947380D01*
X-1274505Y2951927D01*
X-1283596Y2961017D01*
X-1383596Y3042836D02*
G01*
X-1383596Y2947380D01*
X-1383596Y3042836D02*
G01*
X-1424505Y3042836D01*
X-1438142Y3038289D01*
X-1442686Y3033745D01*
X-1447233Y3024654D01*
X-1447233Y3011017D01*
X-1442686Y3001926D01*
X-1438142Y2997380D01*
X-1424505Y2992836D01*
X-1383596Y2992836D01*
X-1477233Y3042836D02*
G01*
X-1499961Y2947380D01*
X-1522686Y3042836D02*
G01*
X-1499961Y2947380D01*
X-1522686Y3042836D02*
G01*
X-1545414Y2947380D01*
X-1568142Y3042836D02*
G01*
X-1545414Y2947380D01*
X-1598142Y3042836D02*
G01*
X-1598142Y2947380D01*
X-1598142Y3042836D02*
G01*
X-1634505Y2947380D01*
X-1670870Y3042836D02*
G01*
X-1634505Y2947380D01*
X-1670870Y3042836D02*
G01*
X-1670870Y2947380D01*
X-1861779Y3001926D02*
G01*
X-1861779Y3006473D01*
X-1857232Y3011017D01*
X-1852688Y3011017D01*
X-1848142Y3006473D01*
X-1843598Y2997380D01*
X-1834507Y2974654D01*
X-1825414Y2961017D01*
X-1816323Y2951927D01*
X-1807232Y2947380D01*
X-1789051Y2947380D01*
X-1779960Y2951927D01*
X-1775414Y2956471D01*
X-1770870Y2965564D01*
X-1770870Y2974654D01*
X-1775414Y2983745D01*
X-1779960Y2988289D01*
X-1811779Y3006473D01*
X-1816323Y3011017D01*
X-1820870Y3020108D01*
X-1820870Y3029198D01*
X-1816323Y3038289D01*
X-1807232Y3042836D01*
X-1798142Y3038289D01*
X-1793598Y3029198D01*
X-1793598Y3020108D01*
X-1798142Y3006473D01*
X-1807232Y2992836D01*
X-1829960Y2961017D01*
X-1839051Y2951927D01*
X-1848142Y2947380D01*
X-1857232Y2947380D01*
X-1861779Y2951927D01*
X-1861779Y2956471D01*
X-1961779Y2983745D02*
G01*
X-2016325Y2983745D01*
X-2016325Y2992836D01*
X-2011779Y3001926D01*
X-2007232Y3006473D01*
X-1998141Y3011017D01*
X-1984507Y3011017D01*
X-1975416Y3006473D01*
X-1966323Y2997380D01*
X-1961779Y2983745D01*
X-1961779Y2974654D01*
X-1966323Y2961017D01*
X-1975416Y2951927D01*
X-1984507Y2947380D01*
X-1998141Y2947380D01*
X-2007232Y2951927D01*
X-2016325Y2961017D01*
X-2046325Y3011017D02*
G01*
X-2046325Y2947380D01*
X-2046325Y2992836D02*
G01*
X-2059960Y3006473D01*
X-2069050Y3011017D01*
X-2082688Y3011017D01*
X-2091778Y3006473D01*
X-2096325Y2992836D01*
X-2096325Y2947380D01*
X-2180869Y3011017D02*
G01*
X-2180869Y2947380D01*
X-2180869Y2997380D02*
G01*
X-2171778Y3006473D01*
X-2162688Y3011017D01*
X-2149050Y3011017D01*
X-2139960Y3006473D01*
X-2130869Y2997380D01*
X-2126325Y2983745D01*
X-2126325Y2974654D01*
X-2130869Y2961017D01*
X-2139960Y2951927D01*
X-2149050Y2947380D01*
X-2162688Y2947380D01*
X-2171778Y2951927D01*
X-2180869Y2961017D01*
X-2210869Y3042836D02*
G01*
X-2210869Y2947380D01*
X-2210869Y2997380D02*
G01*
X-2219960Y3006473D01*
X-2229050Y3011017D01*
X-2242687Y3011017D01*
X-2251778Y3006473D01*
X-2260869Y2997380D01*
X-2265415Y2983745D01*
X-2265415Y2974654D01*
X-2260869Y2961017D01*
X-2251778Y2951927D01*
X-2242687Y2947380D01*
X-2229050Y2947380D01*
X-2219960Y2951927D01*
X-2210869Y2961017D01*
X-2295415Y3042836D02*
G01*
X-2295415Y2947380D01*
X-2325415Y2983745D02*
G01*
X-2379962Y2983745D01*
X-2379962Y2992836D01*
X-2375415Y3001926D01*
X-2370869Y3006473D01*
X-2361778Y3011017D01*
X-2348143Y3011017D01*
X-2339052Y3006473D01*
X-2329959Y2997380D01*
X-2325415Y2983745D01*
X-2325415Y2974654D01*
X-2329959Y2961017D01*
X-2339052Y2951927D01*
X-2348143Y2947380D01*
X-2361778Y2947380D01*
X-2370869Y2951927D01*
X-2379962Y2961017D01*
X457189Y717135D02*
G01*
X457189Y621680D01*
X457189Y717135D02*
G01*
X425371Y717135D01*
X411736Y712589D01*
X402643Y703498D01*
X398099Y694408D01*
X393552Y680773D01*
X393552Y658045D01*
X398099Y644408D01*
X402643Y635317D01*
X411736Y626226D01*
X425371Y621680D01*
X457189Y621680D01*
X363552Y717135D02*
G01*
X363552Y621680D01*
X363552Y717135D02*
G01*
X322643Y717135D01*
X309008Y712589D01*
X304462Y708045D01*
X299918Y698954D01*
X299918Y689864D01*
X304462Y680773D01*
X309008Y676226D01*
X322643Y671682D01*
X363552Y671682D01*
X331734Y671682D02*
G01*
X299918Y621680D01*
X269918Y717135D02*
G01*
X233552Y621680D01*
X197190Y717135D02*
G01*
X233552Y621680D01*
X144462Y717135D02*
G01*
X158099Y712589D01*
X162643Y703498D01*
X162643Y694408D01*
X158099Y685317D01*
X149009Y680773D01*
X130825Y676226D01*
X117190Y671682D01*
X108099Y662589D01*
X103553Y653498D01*
X103553Y639864D01*
X108099Y630773D01*
X112643Y626226D01*
X126281Y621680D01*
X144462Y621680D01*
X158099Y626226D01*
X162643Y630773D01*
X167190Y639864D01*
X167190Y653498D01*
X162643Y662589D01*
X153553Y671682D01*
X139915Y676226D01*
X121734Y680773D01*
X112643Y685317D01*
X108099Y694408D01*
X108099Y703498D01*
X112643Y712589D01*
X126281Y717135D01*
X144462Y717135D01*
X64462Y717135D02*
G01*
X14462Y717135D01*
X41734Y680773D01*
X28097Y680773D01*
X19006Y676226D01*
X14462Y671682D01*
X9916Y658045D01*
X9916Y648954D01*
X14462Y635317D01*
X23553Y626226D01*
X37190Y621680D01*
X50825Y621680D01*
X64462Y626226D01*
X69006Y630773D01*
X73553Y639864D01*
X-24627Y694408D02*
G01*
X-24627Y698954D01*
X-29174Y708045D01*
X-33718Y712589D01*
X-42809Y717135D01*
X-60993Y717135D01*
X-70083Y712589D01*
X-74627Y708045D01*
X-79174Y698954D01*
X-79174Y689864D01*
X-74627Y680773D01*
X-65537Y667136D01*
X-20083Y621680D01*
X-83718Y621680D01*
X-140992Y717135D02*
G01*
X-127355Y712589D01*
X-118264Y698954D01*
X-113718Y676226D01*
X-113718Y662589D01*
X-118264Y639864D01*
X-127355Y626226D01*
X-140992Y621680D01*
X-150083Y621680D01*
X-163720Y626226D01*
X-172811Y639864D01*
X-177355Y662589D01*
X-177355Y676226D01*
X-172811Y698954D01*
X-163720Y712589D01*
X-150083Y717135D01*
X-140992Y717135D01*
X457189Y515536D02*
G01*
X457189Y420080D01*
X457189Y515536D02*
G01*
X398099Y515536D01*
X457189Y470080D02*
G01*
X420827Y470080D01*
X313552Y483717D02*
G01*
X313552Y420080D01*
X313552Y470080D02*
G01*
X322643Y479173D01*
X331734Y483717D01*
X345371Y483717D01*
X354462Y479173D01*
X363552Y470080D01*
X368099Y456445D01*
X368099Y447354D01*
X363552Y433717D01*
X354462Y424627D01*
X345371Y420080D01*
X331734Y420080D01*
X322643Y424627D01*
X313552Y433717D01*
X283552Y483717D02*
G01*
X283552Y438264D01*
X279008Y424627D01*
X269918Y420080D01*
X256280Y420080D01*
X247190Y424627D01*
X233552Y438264D01*
X233552Y483717D02*
G01*
X233552Y420080D01*
X203553Y515536D02*
G01*
X203553Y420080D01*
X159915Y515536D02*
G01*
X159915Y438264D01*
X155371Y424627D01*
X146281Y420080D01*
X137190Y420080D01*
X173553Y483717D02*
G01*
X141734Y483717D01*
X630318Y-48531D02*
G01*
X634862Y-39440D01*
X643954Y-30349D01*
X653045Y-25803D01*
X671227Y-25803D01*
X680318Y-30349D01*
X689409Y-39440D01*
X693954Y-48531D01*
X698500Y-62167D01*
X698500Y-84894D01*
X693954Y-98531D01*
X689409Y-107622D01*
X680318Y-116712D01*
X671227Y-121258D01*
X653045Y-121258D01*
X643954Y-116712D01*
X634862Y-107622D01*
X630318Y-98531D01*
X600318Y-57622D02*
G01*
X600318Y-103076D01*
X595772Y-116712D01*
X586681Y-121258D01*
X573045Y-121258D01*
X563953Y-116712D01*
X550318Y-103076D01*
X550318Y-57622D02*
G01*
X550318Y-121258D01*
X520318Y-57622D02*
G01*
X520318Y-121258D01*
X520318Y-84894D02*
G01*
X515772Y-71258D01*
X506681Y-62167D01*
X497591Y-57622D01*
X483953Y-57622D01*
X453953Y-57622D02*
G01*
X453953Y-121258D01*
X453953Y-84894D02*
G01*
X449409Y-71258D01*
X440319Y-62167D01*
X431225Y-57622D01*
X417591Y-57622D01*
X387591Y-84894D02*
G01*
X333044Y-84894D01*
X333044Y-75803D01*
X337591Y-66713D01*
X342135Y-62167D01*
X351226Y-57622D01*
X364863Y-57622D01*
X373954Y-62167D01*
X383044Y-71258D01*
X387591Y-84894D01*
X387591Y-93985D01*
X383044Y-107622D01*
X373954Y-116712D01*
X364863Y-121258D01*
X351226Y-121258D01*
X342135Y-116712D01*
X333044Y-107622D01*
X303044Y-57622D02*
G01*
X303044Y-121258D01*
X303044Y-75803D02*
G01*
X289410Y-62167D01*
X280316Y-57622D01*
X266682Y-57622D01*
X257591Y-62167D01*
X253044Y-75803D01*
X253044Y-121258D01*
X209407Y-25803D02*
G01*
X209407Y-103076D01*
X204863Y-116712D01*
X195773Y-121258D01*
X186682Y-121258D01*
X223045Y-57622D02*
G01*
X191226Y-57622D01*
X36682Y-71258D02*
G01*
X41226Y-62167D01*
X54863Y-57622D01*
X68498Y-57622D01*
X82135Y-62167D01*
X86682Y-71258D01*
X82135Y-80349D01*
X73045Y-84894D01*
X50317Y-89440D01*
X41226Y-93985D01*
X36682Y-103076D01*
X36682Y-107622D01*
X41226Y-116712D01*
X54863Y-121258D01*
X68498Y-121258D01*
X82135Y-116712D01*
X86682Y-107622D01*
X6680Y-84894D02*
G01*
X-47863Y-84894D01*
X-47863Y-75803D01*
X-43319Y-66713D01*
X-38773Y-62167D01*
X-29682Y-57622D01*
X-16045Y-57622D01*
X-6954Y-62167D01*
X2136Y-71258D01*
X6680Y-84894D01*
X6680Y-93985D01*
X2136Y-107622D01*
X-6954Y-116712D01*
X-16045Y-121258D01*
X-29682Y-121258D01*
X-38773Y-116712D01*
X-47863Y-107622D01*
X-77863Y-57622D02*
G01*
X-77863Y-121258D01*
X-77863Y-75803D02*
G01*
X-91500Y-62167D01*
X-100591Y-57622D01*
X-114228Y-57622D01*
X-123319Y-62167D01*
X-127863Y-75803D01*
X-127863Y-121258D01*
X-207863Y-71258D02*
G01*
X-203319Y-62167D01*
X-189682Y-57622D01*
X-176044Y-57622D01*
X-162410Y-62167D01*
X-157863Y-71258D01*
X-162410Y-80349D01*
X-171500Y-84894D01*
X-194228Y-89440D01*
X-203319Y-93985D01*
X-207863Y-103076D01*
X-207863Y-107622D01*
X-203319Y-116712D01*
X-189682Y-121258D01*
X-176044Y-121258D01*
X-162410Y-116712D01*
X-157863Y-107622D01*
X-237863Y-84894D02*
G01*
X-292409Y-84894D01*
X-292409Y-75803D01*
X-287863Y-66713D01*
X-283319Y-62167D01*
X-274228Y-57622D01*
X-260591Y-57622D01*
X-251500Y-62167D01*
X-242409Y-71258D01*
X-237863Y-84894D01*
X-237863Y-93985D01*
X-242409Y-107622D01*
X-251500Y-116712D01*
X-260591Y-121258D01*
X-274228Y-121258D01*
X-283319Y-116712D01*
X-292409Y-107622D01*
X698500Y-259222D02*
G01*
X698500Y-354676D01*
X698500Y-272858D02*
G01*
X689409Y-263767D01*
X680318Y-259222D01*
X666681Y-259222D01*
X657590Y-263767D01*
X648500Y-272858D01*
X643954Y-286494D01*
X643954Y-295585D01*
X648500Y-309222D01*
X657590Y-318313D01*
X666681Y-322858D01*
X680318Y-322858D01*
X689409Y-318313D01*
X698500Y-309222D01*
X613954Y-227403D02*
G01*
X609409Y-231949D01*
X604862Y-227403D01*
X609409Y-222858D01*
X613954Y-227403D01*
X609409Y-259222D02*
G01*
X609409Y-322858D01*
X574862Y-259222D02*
G01*
X574862Y-322858D01*
X574862Y-277403D02*
G01*
X561228Y-263767D01*
X552135Y-259222D01*
X538500Y-259222D01*
X529408Y-263767D01*
X524863Y-277403D01*
X524863Y-322858D01*
X472135Y-259222D02*
G01*
X481228Y-263767D01*
X490319Y-272858D01*
X494863Y-286494D01*
X494863Y-295585D01*
X490319Y-309222D01*
X481228Y-318313D01*
X472135Y-322858D01*
X458500Y-322858D01*
X449409Y-318313D01*
X440319Y-309222D01*
X435772Y-295585D01*
X435772Y-286494D01*
X440319Y-272858D01*
X449409Y-263767D01*
X458500Y-259222D01*
X472135Y-259222D01*
X405772Y-259222D02*
G01*
X405772Y-304676D01*
X401227Y-318313D01*
X392135Y-322858D01*
X378500Y-322858D01*
X369409Y-318313D01*
X355772Y-304676D01*
X355772Y-259222D02*
G01*
X355772Y-322858D01*
X312135Y-227403D02*
G01*
X312135Y-304676D01*
X307591Y-318313D01*
X298500Y-322858D01*
X289410Y-322858D01*
X325772Y-259222D02*
G01*
X293954Y-259222D01*
X-460908Y3124507D02*
G01*
X-365452Y3124507D01*
X-460908Y3124507D02*
G01*
X-460908Y3065416D01*
X-415455Y3124507D02*
G01*
X-415455Y3088144D01*
X-365452Y3124507D02*
G01*
X-365452Y3065416D01*
X-429089Y3035416D02*
G01*
X-365452Y3035416D01*
X-410908Y3035416D02*
G01*
X-424545Y3021779D01*
X-429089Y3012688D01*
X-429089Y2999051D01*
X-424545Y2989961D01*
X-410908Y2985416D01*
X-365452Y2985416D01*
X-415455Y2900870D02*
G01*
X-424545Y2909961D01*
X-429089Y2919051D01*
X-429089Y2932689D01*
X-424545Y2941779D01*
X-415455Y2950870D01*
X-401817Y2955417D01*
X-392727Y2955417D01*
X-379089Y2950870D01*
X-369999Y2941779D01*
X-365452Y2932689D01*
X-365452Y2919051D01*
X-369999Y2909961D01*
X-379089Y2900870D01*
X-429089Y2848142D02*
G01*
X-424545Y2857233D01*
X-415455Y2866326D01*
X-401817Y2870870D01*
X-392727Y2870870D01*
X-379089Y2866326D01*
X-369999Y2857233D01*
X-365452Y2848142D01*
X-365452Y2834507D01*
X-369999Y2825417D01*
X-379089Y2816326D01*
X-392727Y2811780D01*
X-401817Y2811780D01*
X-415455Y2816326D01*
X-424545Y2825417D01*
X-429089Y2834507D01*
X-429089Y2848142D01*
X-460908Y2727233D02*
G01*
X-365452Y2727233D01*
X-415455Y2727233D02*
G01*
X-424545Y2736324D01*
X-429089Y2745417D01*
X-429089Y2759052D01*
X-424545Y2768142D01*
X-415455Y2777233D01*
X-401817Y2781780D01*
X-392727Y2781780D01*
X-379089Y2777233D01*
X-369999Y2768142D01*
X-365452Y2759052D01*
X-365452Y2745417D01*
X-369999Y2736324D01*
X-379089Y2727233D01*
X-401817Y2697233D02*
G01*
X-401817Y2642689D01*
X-410908Y2642689D01*
X-419999Y2647233D01*
X-424545Y2651780D01*
X-429089Y2660870D01*
X-429089Y2674508D01*
X-424545Y2683598D01*
X-415455Y2692689D01*
X-401817Y2697233D01*
X-392727Y2697233D01*
X-379089Y2692689D01*
X-369999Y2683598D01*
X-365452Y2674508D01*
X-365452Y2660870D01*
X-369999Y2651780D01*
X-379089Y2642689D01*
X-429089Y2612689D02*
G01*
X-365452Y2612689D01*
X-401817Y2612689D02*
G01*
X-415455Y2608143D01*
X-424545Y2599052D01*
X-429089Y2589961D01*
X-429089Y2576324D01*
X-479089Y2464506D02*
G01*
X-333636Y2546324D01*
X-460908Y2434506D02*
G01*
X-365452Y2434506D01*
X-460908Y2370871D02*
G01*
X-365452Y2370871D01*
X-415455Y2434506D02*
G01*
X-415455Y2370871D01*
X-429089Y2286325D02*
G01*
X-365452Y2286325D01*
X-415455Y2286325D02*
G01*
X-424545Y2295415D01*
X-429089Y2304506D01*
X-429089Y2318143D01*
X-424545Y2327234D01*
X-415455Y2336325D01*
X-401817Y2340871D01*
X-392727Y2340871D01*
X-379089Y2336325D01*
X-369999Y2327234D01*
X-365452Y2318143D01*
X-365452Y2304506D01*
X-369999Y2295415D01*
X-379089Y2286325D01*
X-460908Y2256325D02*
G01*
X-365452Y2256325D01*
X-460908Y2226325D02*
G01*
X-365452Y2226325D01*
X-227490Y3124507D02*
G01*
X-132036Y3124507D01*
X-213852Y3124507D02*
G01*
X-222945Y3115416D01*
X-227490Y3106326D01*
X-227490Y3092688D01*
X-222945Y3083598D01*
X-213852Y3074507D01*
X-200218Y3069960D01*
X-191127Y3069960D01*
X-177490Y3074507D01*
X-168399Y3083598D01*
X-163852Y3092688D01*
X-163852Y3106326D01*
X-168399Y3115416D01*
X-177490Y3124507D01*
X-259308Y3039960D02*
G01*
X-254762Y3035416D01*
X-259308Y3030870D01*
X-263852Y3035416D01*
X-259308Y3039960D01*
X-227490Y3035416D02*
G01*
X-163852Y3035416D01*
X-227490Y3000870D02*
G01*
X-163852Y3000870D01*
X-209308Y3000870D02*
G01*
X-222945Y2987235D01*
X-227490Y2978142D01*
X-227490Y2964507D01*
X-222945Y2955417D01*
X-209308Y2950870D01*
X-163852Y2950870D01*
X-227490Y2898142D02*
G01*
X-222945Y2907235D01*
X-213852Y2916326D01*
X-200218Y2920870D01*
X-191127Y2920870D01*
X-177490Y2916326D01*
X-168399Y2907235D01*
X-163852Y2898142D01*
X-163852Y2884507D01*
X-168399Y2875417D01*
X-177490Y2866326D01*
X-191127Y2861779D01*
X-200218Y2861779D01*
X-213852Y2866326D01*
X-222945Y2875417D01*
X-227490Y2884507D01*
X-227490Y2898142D01*
X-227490Y2831779D02*
G01*
X-182036Y2831779D01*
X-168399Y2827233D01*
X-163852Y2818142D01*
X-163852Y2804507D01*
X-168399Y2795417D01*
X-182036Y2781780D01*
X-227490Y2781780D02*
G01*
X-163852Y2781780D01*
X-259308Y2738142D02*
G01*
X-182036Y2738142D01*
X-168399Y2733598D01*
X-163852Y2724508D01*
X-163852Y2715417D01*
X-227490Y2751780D02*
G01*
X-227490Y2719961D01*
X-213852Y2560871D02*
G01*
X-222945Y2569961D01*
X-227490Y2579052D01*
X-227490Y2592689D01*
X-222945Y2601780D01*
X-213852Y2610871D01*
X-200218Y2615415D01*
X-191127Y2615415D01*
X-177490Y2610871D01*
X-168399Y2601780D01*
X-163852Y2592689D01*
X-163852Y2579052D01*
X-168399Y2569961D01*
X-177490Y2560871D01*
X-227490Y2508143D02*
G01*
X-222945Y2517233D01*
X-213852Y2526324D01*
X-200218Y2530871D01*
X-191127Y2530871D01*
X-177490Y2526324D01*
X-168399Y2517233D01*
X-163852Y2508143D01*
X-163852Y2494506D01*
X-168399Y2485415D01*
X-177490Y2476324D01*
X-191127Y2471780D01*
X-200218Y2471780D01*
X-213852Y2476324D01*
X-222945Y2485415D01*
X-227490Y2494506D01*
X-227490Y2508143D01*
X-227490Y2441780D02*
G01*
X-163852Y2441780D01*
X-209308Y2441780D02*
G01*
X-222945Y2428143D01*
X-227490Y2419052D01*
X-227490Y2405415D01*
X-222945Y2396324D01*
X-209308Y2391780D01*
X-163852Y2391780D01*
X-259308Y2325415D02*
G01*
X-259308Y2334506D01*
X-254762Y2343597D01*
X-241127Y2348143D01*
X-163852Y2348143D01*
X-227490Y2361780D02*
G01*
X-227490Y2329962D01*
X-259308Y2295415D02*
G01*
X-254762Y2290871D01*
X-259308Y2286325D01*
X-263852Y2290871D01*
X-259308Y2295415D01*
X-227490Y2290871D02*
G01*
X-163852Y2290871D01*
X-227490Y2201778D02*
G01*
X-154762Y2201778D01*
X-141127Y2206325D01*
X-136580Y2210869D01*
X-132036Y2219962D01*
X-132036Y2233597D01*
X-136580Y2242687D01*
X-213852Y2201778D02*
G01*
X-222945Y2210869D01*
X-227490Y2219962D01*
X-227490Y2233597D01*
X-222945Y2242687D01*
X-213852Y2251778D01*
X-200218Y2256325D01*
X-191127Y2256325D01*
X-177490Y2251778D01*
X-168399Y2242687D01*
X-163852Y2233597D01*
X-163852Y2219962D01*
X-168399Y2210869D01*
X-177490Y2201778D01*
D11*
X-3978117Y1355077D02*
G01*
X-3978117Y1246111D01*
X-3978117Y1355077D02*
G01*
X-4019773Y1246111D01*
X-4061175Y1355077D02*
G01*
X-4019773Y1246111D01*
X-4061175Y1355077D02*
G01*
X-4061175Y1246111D01*
X-4095465Y1334249D02*
G01*
X-4105879Y1339583D01*
X-4121627Y1355077D01*
X-4121627Y1246111D01*
X-3981470Y2839732D02*
G01*
X-3981470Y2730766D01*
X-3981470Y2839732D02*
G01*
X-4023126Y2730766D01*
X-4064528Y2839732D02*
G01*
X-4023126Y2730766D01*
X-4064528Y2839732D02*
G01*
X-4064528Y2730766D01*
X-4109232Y2839732D02*
G01*
X-4166382Y2839732D01*
X-4135140Y2798076D01*
X-4150888Y2798076D01*
X-4161302Y2792996D01*
X-4166382Y2787916D01*
X-4171716Y2772168D01*
X-4171716Y2761754D01*
X-4166382Y2746260D01*
X-4155968Y2735846D01*
X-4140474Y2730766D01*
X-4124980Y2730766D01*
X-4109232Y2735846D01*
X-4104152Y2740926D01*
X-4098818Y2751340D01*
D10*
X-3107502Y-394459D02*
G01*
X-3087047Y-401276D01*
X-3080227Y-414914D01*
X-3080227Y-428551D01*
X-3087047Y-442186D01*
X-3100682Y-449005D01*
X-3127956Y-455823D01*
X-3148411Y-462640D01*
X-3162046Y-476277D01*
X-3168863Y-489915D01*
X-3168863Y-510369D01*
X-3162046Y-524004D01*
X-3155228Y-530824D01*
X-3134774Y-537641D01*
X-3107502Y-537641D01*
X-3087047Y-530824D01*
X-3080227Y-524004D01*
X-3073410Y-510369D01*
X-3073410Y-489915D01*
X-3080227Y-476277D01*
X-3093864Y-462640D01*
X-3114319Y-455823D01*
X-3141591Y-449005D01*
X-3155228Y-442186D01*
X-3162046Y-428551D01*
X-3162046Y-414914D01*
X-3155228Y-401276D01*
X-3134774Y-394459D01*
X-3107502Y-394459D01*
X-3213864Y-476277D02*
G01*
X-3336592Y-476277D01*
X-3395228Y-394459D02*
G01*
X-3470226Y-394459D01*
X-3429317Y-449005D01*
X-3449772Y-449005D01*
X-3463409Y-455823D01*
X-3470226Y-462640D01*
X-3477046Y-483095D01*
X-3477046Y-496732D01*
X-3470226Y-517187D01*
X-3456592Y-530824D01*
X-3436137Y-537641D01*
X-3415682Y-537641D01*
X-3395228Y-530824D01*
X-3388410Y-524004D01*
X-3381590Y-510369D01*
X-3562954Y-394459D02*
G01*
X-3542499Y-401276D01*
X-3528862Y-421731D01*
X-3522045Y-455823D01*
X-3522045Y-476277D01*
X-3528862Y-510369D01*
X-3542499Y-530824D01*
X-3562954Y-537641D01*
X-3576591Y-537641D01*
X-3597046Y-530824D01*
X-3610681Y-510369D01*
X-3617501Y-476277D01*
X-3617501Y-455823D01*
X-3610681Y-421731D01*
X-3597046Y-401276D01*
X-3576591Y-394459D01*
X-3562954Y-394459D01*
X-3662499Y-394459D02*
G01*
X-3717046Y-537641D01*
X-3771590Y-394459D02*
G01*
X-3717046Y-537641D01*
X-3124118Y-102476D02*
G01*
X-3124118Y-245478D01*
X-3169330Y-150228D02*
G01*
X-3169330Y-245478D01*
X-3169330Y-177406D02*
G01*
X-3189650Y-156832D01*
X-3203366Y-150228D01*
X-3223686Y-150228D01*
X-3237402Y-156832D01*
X-3244260Y-177406D01*
X-3244260Y-245478D01*
X-3289218Y-150228D02*
G01*
X-3289218Y-293230D01*
X-3289218Y-170548D02*
G01*
X-3302934Y-156832D01*
X-3316396Y-150228D01*
X-3336970Y-150228D01*
X-3350686Y-156832D01*
X-3364148Y-170548D01*
X-3371006Y-191122D01*
X-3371006Y-204584D01*
X-3364148Y-225158D01*
X-3350686Y-238620D01*
X-3336970Y-245478D01*
X-3316396Y-245478D01*
X-3302934Y-238620D01*
X-3289218Y-225158D01*
X-3415964Y-150228D02*
G01*
X-3415964Y-218300D01*
X-3422822Y-238620D01*
X-3436538Y-245478D01*
X-3456858Y-245478D01*
X-3470574Y-238620D01*
X-3491148Y-218300D01*
X-3491148Y-150228D02*
G01*
X-3491148Y-245478D01*
X-3556426Y-102476D02*
G01*
X-3556426Y-218300D01*
X-3563284Y-238620D01*
X-3577000Y-245478D01*
X-3590462Y-245478D01*
X-3536106Y-150228D02*
G01*
X-3583858Y-150228D01*
D11*
X-3953296Y2058400D02*
G01*
X-3953296Y1949434D01*
X-3953296Y2058400D02*
G01*
X-3994952Y1949434D01*
X-4036354Y2058400D02*
G01*
X-3994952Y1949434D01*
X-4036354Y2058400D02*
G01*
X-4036354Y1949434D01*
X-4075978Y2032492D02*
G01*
X-4075978Y2037572D01*
X-4081058Y2047986D01*
X-4086392Y2053320D01*
X-4096806Y2058400D01*
X-4117380Y2058400D01*
X-4127794Y2053320D01*
X-4133128Y2047986D01*
X-4138208Y2037572D01*
X-4138208Y2027158D01*
X-4133128Y2016744D01*
X-4122714Y2001250D01*
X-4070644Y1949434D01*
X-4143542Y1949434D01*
D10*
X-683707Y177792D02*
G01*
X-647344Y82336D01*
X-683707Y177792D02*
G01*
X-720072Y82336D01*
X-660981Y114155D02*
G01*
X-706434Y114155D01*
X-759162Y177792D02*
G01*
X-809162Y177792D01*
X-781890Y141429D01*
X-795525Y141429D01*
X-804616Y136883D01*
X-809162Y132336D01*
X-813706Y118701D01*
X-813706Y109611D01*
X-809162Y95973D01*
X-800072Y86883D01*
X-786434Y82336D01*
X-772797Y82336D01*
X-759162Y86883D01*
X-754616Y91429D01*
X-750072Y100520D01*
X-702736Y781022D02*
G01*
X-666374Y685566D01*
X-702736Y781022D02*
G01*
X-739101Y685566D01*
X-680011Y717384D02*
G01*
X-725464Y717384D01*
X-814555Y781022D02*
G01*
X-769101Y717384D01*
X-837283Y717384D01*
X-814555Y781022D02*
G01*
X-814555Y685566D01*
X-1033983Y692812D02*
G01*
X-938527Y656450D01*
X-1033983Y620085D02*
G01*
X-938527Y656450D01*
X-1011255Y521903D02*
G01*
X-1020345Y526448D01*
X-1029436Y535541D01*
X-1033983Y544631D01*
X-1033983Y562813D01*
X-1029436Y571903D01*
X-1020345Y580994D01*
X-1011255Y585541D01*
X-997620Y590085D01*
X-974892Y590085D01*
X-961255Y585541D01*
X-952164Y580994D01*
X-943074Y571903D01*
X-938527Y562813D01*
X-938527Y544631D01*
X-943074Y535541D01*
X-952164Y526448D01*
X-961255Y521903D01*
X-1011255Y423722D02*
G01*
X-1020345Y428266D01*
X-1029436Y437357D01*
X-1033983Y446448D01*
X-1033983Y464632D01*
X-1029436Y473722D01*
X-1020345Y482813D01*
X-1011255Y487357D01*
X-997620Y491904D01*
X-974892Y491904D01*
X-961255Y487357D01*
X-952164Y482813D01*
X-943074Y473722D01*
X-938527Y464632D01*
X-938527Y446448D01*
X-943074Y437357D01*
X-952164Y428266D01*
X-961255Y423722D01*
X-1052164Y311904D02*
G01*
X-906711Y393722D01*
X-1015801Y281904D02*
G01*
X-1020345Y272813D01*
X-1033983Y259176D01*
X-938527Y259176D01*
X-1015801Y229176D02*
G01*
X-1020345Y220085D01*
X-1033983Y206448D01*
X-938527Y206448D01*
X-3054350Y3421959D02*
G01*
X-3054350Y3326503D01*
X-3088896Y3399231D02*
G01*
X-3088896Y3403777D01*
X-3093440Y3412868D01*
X-3097987Y3417412D01*
X-3107077Y3421959D01*
X-3125259Y3421959D01*
X-3134349Y3417412D01*
X-3138896Y3412868D01*
X-3143440Y3403777D01*
X-3143440Y3394687D01*
X-3138896Y3385596D01*
X-3129805Y3371959D01*
X-3084349Y3326503D01*
X-3147987Y3326503D01*
X-3246168Y3399231D02*
G01*
X-3241621Y3408321D01*
X-3232531Y3417412D01*
X-3223440Y3421959D01*
X-3205259Y3421959D01*
X-3196168Y3417412D01*
X-3187077Y3408321D01*
X-3182531Y3399231D01*
X-3177987Y3385596D01*
X-3177987Y3362868D01*
X-3182531Y3349231D01*
X-3187077Y3340140D01*
X-3196168Y3331049D01*
X-3205259Y3326503D01*
X-3223440Y3326503D01*
X-3232531Y3331049D01*
X-3241621Y3340140D01*
X-3246168Y3349231D01*
X-3346168Y3390140D02*
G01*
X-3346168Y3294687D01*
X-3346168Y3376505D02*
G01*
X-3355258Y3385596D01*
X-3364349Y3390140D01*
X-3377986Y3390140D01*
X-3387077Y3385596D01*
X-3396167Y3376505D01*
X-3400714Y3362868D01*
X-3400714Y3353777D01*
X-3396167Y3340140D01*
X-3387077Y3331049D01*
X-3377986Y3326503D01*
X-3364349Y3326503D01*
X-3355258Y3331049D01*
X-3346168Y3340140D01*
X-3430714Y3390140D02*
G01*
X-3430714Y3344687D01*
X-3435258Y3331049D01*
X-3444349Y3326503D01*
X-3457986Y3326503D01*
X-3467077Y3331049D01*
X-3480714Y3344687D01*
X-3480714Y3390140D02*
G01*
X-3480714Y3326503D01*
X-3510714Y3421959D02*
G01*
X-3510714Y3326503D01*
X-3540714Y3421959D02*
G01*
X-3540714Y3326503D01*
X-3570714Y3390140D02*
G01*
X-3570714Y3344687D01*
X-3575258Y3331049D01*
X-3584351Y3326503D01*
X-3597986Y3326503D01*
X-3607076Y3331049D01*
X-3620714Y3344687D01*
X-3620714Y3390140D02*
G01*
X-3620714Y3326503D01*
X-3650714Y3390140D02*
G01*
X-3650714Y3294687D01*
X-3650714Y3376505D02*
G01*
X-3659804Y3385596D01*
X-3668895Y3390140D01*
X-3682532Y3390140D01*
X-3691623Y3385596D01*
X-3700713Y3376505D01*
X-3705260Y3362868D01*
X-3705260Y3353777D01*
X-3700713Y3340140D01*
X-3691623Y3331049D01*
X-3682532Y3326503D01*
X-3668895Y3326503D01*
X-3659804Y3331049D01*
X-3650714Y3340140D01*
X-3054350Y3161268D02*
G01*
X-3108896Y3161268D01*
X-3108896Y3170359D01*
X-3104349Y3179450D01*
X-3099803Y3183996D01*
X-3090712Y3188540D01*
X-3077077Y3188540D01*
X-3067987Y3183996D01*
X-3058896Y3174903D01*
X-3054350Y3161268D01*
X-3054350Y3152178D01*
X-3058896Y3138540D01*
X-3067987Y3129450D01*
X-3077077Y3124903D01*
X-3090712Y3124903D01*
X-3099803Y3129450D01*
X-3108896Y3138540D01*
X-3138896Y3188540D02*
G01*
X-3138896Y3124903D01*
X-3138896Y3170359D02*
G01*
X-3152531Y3183996D01*
X-3161621Y3188540D01*
X-3175259Y3188540D01*
X-3184349Y3183996D01*
X-3188896Y3170359D01*
X-3188896Y3124903D01*
X-3273440Y3188540D02*
G01*
X-3273440Y3124903D01*
X-3273440Y3174903D02*
G01*
X-3264349Y3183996D01*
X-3255258Y3188540D01*
X-3241621Y3188540D01*
X-3232531Y3183996D01*
X-3223440Y3174903D01*
X-3218896Y3161268D01*
X-3218896Y3152178D01*
X-3223440Y3138540D01*
X-3232531Y3129450D01*
X-3241621Y3124903D01*
X-3255258Y3124903D01*
X-3264349Y3129450D01*
X-3273440Y3138540D01*
X-3303440Y3220359D02*
G01*
X-3303440Y3124903D01*
X-3303440Y3174903D02*
G01*
X-3312530Y3183996D01*
X-3321624Y3188540D01*
X-3335258Y3188540D01*
X-3344349Y3183996D01*
X-3353440Y3174903D01*
X-3357986Y3161268D01*
X-3357986Y3152178D01*
X-3353440Y3138540D01*
X-3344349Y3129450D01*
X-3335258Y3124903D01*
X-3321624Y3124903D01*
X-3312530Y3129450D01*
X-3303440Y3138540D01*
X-3387986Y3220359D02*
G01*
X-3387986Y3124903D01*
X-3417986Y3161268D02*
G01*
X-3472533Y3161268D01*
X-3472533Y3170359D01*
X-3467986Y3179450D01*
X-3463439Y3183996D01*
X-3454349Y3188540D01*
X-3440714Y3188540D01*
X-3431623Y3183996D01*
X-3422533Y3174903D01*
X-3417986Y3161268D01*
X-3417986Y3152178D01*
X-3422533Y3138540D01*
X-3431623Y3129450D01*
X-3440714Y3124903D01*
X-3454349Y3124903D01*
X-3463439Y3129450D01*
X-3472533Y3138540D01*
X-3416472Y3733774D02*
G01*
X-3409106Y3741140D01*
X-3398184Y3744696D01*
X-3383706Y3744696D01*
X-3372784Y3741140D01*
X-3365418Y3733774D01*
X-3365418Y3726408D01*
X-3369228Y3719296D01*
X-3372784Y3715486D01*
X-3380150Y3711930D01*
X-3401740Y3704564D01*
X-3409106Y3701008D01*
X-3412662Y3697452D01*
X-3416472Y3690086D01*
X-3416472Y3679164D01*
X-3409106Y3672052D01*
X-3398184Y3668242D01*
X-3383706Y3668242D01*
X-3372784Y3672052D01*
X-3365418Y3679164D01*
X-3494958Y3726408D02*
G01*
X-3491402Y3733774D01*
X-3484036Y3741140D01*
X-3476670Y3744696D01*
X-3462192Y3744696D01*
X-3454826Y3741140D01*
X-3447714Y3733774D01*
X-3444158Y3726408D01*
X-3440348Y3715486D01*
X-3440348Y3697452D01*
X-3444158Y3686530D01*
X-3447714Y3679164D01*
X-3454826Y3672052D01*
X-3462192Y3668242D01*
X-3476670Y3668242D01*
X-3484036Y3672052D01*
X-3491402Y3679164D01*
X-3494958Y3686530D01*
X-3518834Y3744696D02*
G01*
X-3518834Y3668242D01*
X-3518834Y3668242D02*
G01*
X-3562522Y3668242D01*
X-3092566Y3727356D02*
G01*
X-3085200Y3734722D01*
X-3074278Y3738278D01*
X-3059800Y3738278D01*
X-3048878Y3734722D01*
X-3041512Y3727356D01*
X-3041512Y3720244D01*
X-3045322Y3712878D01*
X-3048878Y3709322D01*
X-3056244Y3705512D01*
X-3078088Y3698400D01*
X-3085200Y3694590D01*
X-3089010Y3691034D01*
X-3092566Y3683668D01*
X-3092566Y3673000D01*
X-3085200Y3665634D01*
X-3074278Y3662078D01*
X-3059800Y3662078D01*
X-3048878Y3665634D01*
X-3041512Y3673000D01*
X-3116442Y3738278D02*
G01*
X-3116442Y3662078D01*
X-3116442Y3738278D02*
G01*
X-3142096Y3738278D01*
X-3153018Y3734722D01*
X-3160130Y3727356D01*
X-3163686Y3720244D01*
X-3167496Y3709322D01*
X-3167496Y3691034D01*
X-3163686Y3680112D01*
X-3160130Y3673000D01*
X-3153018Y3665634D01*
X-3142096Y3662078D01*
X-3116442Y3662078D01*
X-3220582Y3738278D02*
G01*
X-3191372Y3662078D01*
X-3220582Y3738278D02*
G01*
X-3249538Y3662078D01*
X-3202294Y3687478D02*
G01*
X-3238616Y3687478D01*
X-1485900Y107259D02*
G01*
X-1485900Y11803D01*
X-1485900Y11803D02*
G01*
X-1540446Y11803D01*
X-1570446Y107259D02*
G01*
X-1570446Y11803D01*
X-1570446Y107259D02*
G01*
X-1602262Y107259D01*
X-1615899Y102712D01*
X-1624990Y93621D01*
X-1629537Y84531D01*
X-1634081Y70896D01*
X-1634081Y48168D01*
X-1629537Y34531D01*
X-1624990Y25440D01*
X-1615899Y16349D01*
X-1602262Y11803D01*
X-1570446Y11803D01*
X-1691352Y107259D02*
G01*
X-1682262Y102712D01*
X-1673171Y93621D01*
X-1668627Y84531D01*
X-1664081Y70896D01*
X-1664081Y48168D01*
X-1668627Y34531D01*
X-1673171Y25440D01*
X-1682262Y16349D01*
X-1691352Y11803D01*
X-1709536Y11803D01*
X-1718627Y16349D01*
X-1727718Y25440D01*
X-1732262Y34531D01*
X-1736808Y48168D01*
X-1736808Y70896D01*
X-1732262Y84531D01*
X-1727718Y93621D01*
X-1718627Y102712D01*
X-1709536Y107259D01*
X-1691352Y107259D01*
X-1859536Y107259D02*
G01*
X-1845899Y102712D01*
X-1841352Y93621D01*
X-1841352Y84531D01*
X-1845899Y75440D01*
X-1854989Y70896D01*
X-1873171Y66349D01*
X-1886808Y61803D01*
X-1895899Y52712D01*
X-1900445Y43621D01*
X-1900445Y29987D01*
X-1895899Y20896D01*
X-1891352Y16349D01*
X-1877717Y11803D01*
X-1859536Y11803D01*
X-1845899Y16349D01*
X-1841352Y20896D01*
X-1836808Y29987D01*
X-1836808Y43621D01*
X-1841352Y52712D01*
X-1850445Y61803D01*
X-1864080Y66349D01*
X-1882261Y70896D01*
X-1891352Y75440D01*
X-1895899Y84531D01*
X-1895899Y93621D01*
X-1891352Y102712D01*
X-1877717Y107259D01*
X-1859536Y107259D01*
X-1930445Y107259D02*
G01*
X-1966808Y11803D01*
X-2003171Y107259D02*
G01*
X-1966808Y11803D01*
X-1499537Y-94340D02*
G01*
X-1499537Y-171612D01*
X-1504081Y-185249D01*
X-1513171Y-189796D01*
X-1522262Y-189796D01*
X-1485900Y-126159D02*
G01*
X-1517718Y-126159D01*
X-1574990Y-126159D02*
G01*
X-1565899Y-130703D01*
X-1556809Y-139796D01*
X-1552262Y-153431D01*
X-1552262Y-162521D01*
X-1556809Y-176159D01*
X-1565899Y-185249D01*
X-1574990Y-189796D01*
X-1588627Y-189796D01*
X-1597718Y-185249D01*
X-1606809Y-176159D01*
X-1611353Y-162521D01*
X-1611353Y-153431D01*
X-1606809Y-139796D01*
X-1597718Y-130703D01*
X-1588627Y-126159D01*
X-1574990Y-126159D01*
X-1711352Y-94340D02*
G01*
X-1747718Y-189796D01*
X-1784080Y-94340D02*
G01*
X-1747718Y-189796D01*
X-1814080Y-94340D02*
G01*
X-1814080Y-189796D01*
X-1844080Y-94340D02*
G01*
X-1844080Y-189796D01*
X-1844080Y-94340D02*
G01*
X-1907717Y-189796D01*
X-1907717Y-94340D02*
G01*
X-1907717Y-189796D01*
M02*
