G04 Layer: InnerLayer2*
G04 EasyEDA v6.5.44, 2024-08-23 15:43:18*
G04 30d174a4fb68472d9a5c4a5b8d6f4b16,2865ae9118a24060a17af6d01c9bcc73,10*
G04 Gerber Generator version 0.2*
G04 Scale: 100 percent, Rotated: No, Reflected: No *
G04 Dimensions in millimeters *
G04 leading zeros omitted , absolute positions ,4 integer and 5 decimal *
%FSLAX45Y45*%
%MOMM*%

%ADD10C,4.0000*%
%ADD11C,0.6100*%
%ADD12R,1.8000X1.8000*%
%ADD13C,1.8000*%
%ADD14C,1.5748*%
%ADD15R,1.5748X1.5748*%
%ADD16C,3.2000*%
%ADD17C,0.6000*%
%ADD18C,0.6096*%
%ADD19C,0.6200*%
%ADD20C,0.0153*%

%LPD*%
G36*
X-2719933Y-3371850D02*
G01*
X-2723845Y-3371087D01*
X-2727147Y-3368903D01*
X-2822803Y-3273196D01*
X-2824988Y-3269945D01*
X-2825800Y-3266084D01*
X-2832100Y-1777136D01*
X-2831541Y-1773834D01*
X-2830017Y-1770888D01*
X-2827578Y-1768652D01*
X-2777540Y-1735277D01*
X-2774848Y-1734007D01*
X-2771851Y-1733600D01*
X-2058416Y-1739900D01*
X-2056790Y-1739341D01*
X-2007514Y-1696212D01*
X-2006600Y-1694484D01*
X-2006600Y-1329893D01*
X-2005838Y-1326083D01*
X-2003704Y-1322832D01*
X-2000504Y-1320596D01*
X-1996693Y-1319733D01*
X-1992833Y-1320393D01*
X-1989531Y-1322476D01*
X-1987245Y-1325626D01*
X-1985213Y-1329994D01*
X-1979574Y-1338072D01*
X-1972614Y-1344980D01*
X-1964588Y-1350619D01*
X-1955647Y-1354785D01*
X-1946198Y-1357325D01*
X-1936394Y-1358188D01*
X-1926589Y-1357325D01*
X-1917141Y-1354785D01*
X-1908200Y-1350619D01*
X-1900174Y-1344980D01*
X-1893214Y-1338072D01*
X-1887575Y-1329994D01*
X-1883460Y-1321104D01*
X-1882698Y-1318361D01*
X-1880666Y-1314450D01*
X-1877212Y-1311757D01*
X-1872894Y-1310843D01*
X-1868576Y-1311757D01*
X-1865122Y-1314450D01*
X-1863089Y-1318361D01*
X-1862328Y-1321104D01*
X-1858213Y-1329994D01*
X-1852574Y-1338072D01*
X-1845614Y-1344980D01*
X-1837588Y-1350619D01*
X-1828647Y-1354785D01*
X-1819198Y-1357325D01*
X-1809394Y-1358188D01*
X-1799589Y-1357325D01*
X-1790141Y-1354785D01*
X-1781200Y-1350619D01*
X-1773174Y-1344980D01*
X-1766214Y-1338072D01*
X-1760575Y-1329994D01*
X-1756460Y-1321104D01*
X-1753920Y-1311605D01*
X-1753057Y-1301851D01*
X-1753920Y-1292047D01*
X-1756460Y-1282547D01*
X-1760575Y-1273657D01*
X-1766214Y-1265580D01*
X-1773631Y-1258214D01*
X-1775815Y-1254912D01*
X-1776577Y-1251051D01*
X-1775815Y-1247140D01*
X-1773631Y-1243838D01*
X-1766214Y-1236472D01*
X-1760575Y-1228394D01*
X-1756460Y-1219504D01*
X-1753920Y-1210005D01*
X-1753057Y-1200251D01*
X-1753920Y-1190447D01*
X-1756460Y-1180947D01*
X-1760575Y-1172057D01*
X-1766214Y-1163980D01*
X-1773631Y-1156614D01*
X-1775815Y-1153312D01*
X-1776577Y-1149451D01*
X-1775815Y-1145540D01*
X-1773631Y-1142238D01*
X-1766214Y-1134872D01*
X-1760575Y-1126794D01*
X-1756460Y-1117904D01*
X-1753920Y-1108405D01*
X-1753057Y-1098651D01*
X-1753920Y-1088847D01*
X-1756460Y-1079347D01*
X-1760575Y-1070457D01*
X-1769465Y-1058062D01*
X-1770227Y-1054201D01*
X-1769465Y-1050290D01*
X-1760575Y-1037894D01*
X-1756460Y-1029004D01*
X-1753920Y-1019505D01*
X-1753057Y-1009751D01*
X-1753920Y-999947D01*
X-1756460Y-990447D01*
X-1760575Y-981557D01*
X-1766214Y-973480D01*
X-1773174Y-966571D01*
X-1781200Y-960932D01*
X-1790141Y-956767D01*
X-1799589Y-954227D01*
X-1809394Y-953363D01*
X-1819198Y-954227D01*
X-1828647Y-956767D01*
X-1837588Y-960932D01*
X-1845614Y-966571D01*
X-1852574Y-973480D01*
X-1858213Y-981557D01*
X-1862328Y-990447D01*
X-1863089Y-993190D01*
X-1865122Y-997102D01*
X-1868576Y-999794D01*
X-1872894Y-1000709D01*
X-1877212Y-999794D01*
X-1880666Y-997102D01*
X-1882698Y-993190D01*
X-1883460Y-990447D01*
X-1887575Y-981557D01*
X-1893214Y-973480D01*
X-1900174Y-966571D01*
X-1908200Y-960932D01*
X-1917141Y-956767D01*
X-1926589Y-954227D01*
X-1936394Y-953363D01*
X-1946198Y-954227D01*
X-1955647Y-956767D01*
X-1964588Y-960932D01*
X-1972614Y-966571D01*
X-1979574Y-973480D01*
X-1985213Y-981557D01*
X-1987245Y-985926D01*
X-1989531Y-989076D01*
X-1992833Y-991158D01*
X-1996693Y-991819D01*
X-2000504Y-990955D01*
X-2003704Y-988720D01*
X-2005838Y-985469D01*
X-2006600Y-981659D01*
X-2006600Y-141833D01*
X-2005736Y-137668D01*
X-2003196Y-134213D01*
X-1999488Y-132130D01*
X-1995271Y-131724D01*
X-1991258Y-133096D01*
X-1988108Y-135991D01*
X-1982927Y-143408D01*
X-1976018Y-150368D01*
X-1967941Y-156006D01*
X-1959051Y-160121D01*
X-1949551Y-162661D01*
X-1939747Y-163525D01*
X-1929993Y-162661D01*
X-1920493Y-160121D01*
X-1911604Y-156006D01*
X-1903526Y-150368D01*
X-1896618Y-143408D01*
X-1890979Y-135382D01*
X-1886813Y-126441D01*
X-1886102Y-123698D01*
X-1884070Y-119837D01*
X-1880565Y-117144D01*
X-1876247Y-116179D01*
X-1871980Y-117144D01*
X-1868474Y-119837D01*
X-1866442Y-123698D01*
X-1865731Y-126441D01*
X-1861566Y-135382D01*
X-1855927Y-143408D01*
X-1849018Y-150368D01*
X-1840941Y-156006D01*
X-1832051Y-160121D01*
X-1822551Y-162661D01*
X-1812747Y-163525D01*
X-1802993Y-162661D01*
X-1793493Y-160121D01*
X-1784604Y-156006D01*
X-1776526Y-150368D01*
X-1769618Y-143408D01*
X-1763979Y-135382D01*
X-1759813Y-126441D01*
X-1757273Y-116992D01*
X-1756410Y-107187D01*
X-1757273Y-97383D01*
X-1759813Y-87934D01*
X-1763979Y-78994D01*
X-1772869Y-66649D01*
X-1773631Y-62738D01*
X-1772869Y-58826D01*
X-1763979Y-46482D01*
X-1759813Y-37541D01*
X-1757273Y-28092D01*
X-1756410Y-18288D01*
X-1757273Y-8483D01*
X-1759813Y965D01*
X-1763979Y9906D01*
X-1769618Y17932D01*
X-1776984Y25349D01*
X-1779219Y28600D01*
X-1779981Y32512D01*
X-1779219Y36423D01*
X-1776984Y39674D01*
X-1769618Y47091D01*
X-1763979Y55117D01*
X-1759813Y64058D01*
X-1757273Y73507D01*
X-1756410Y83312D01*
X-1757273Y93116D01*
X-1759813Y102565D01*
X-1763979Y111506D01*
X-1769618Y119532D01*
X-1776984Y126949D01*
X-1779219Y130200D01*
X-1779981Y134112D01*
X-1779219Y138023D01*
X-1776984Y141274D01*
X-1769618Y148691D01*
X-1763979Y156718D01*
X-1759813Y165658D01*
X-1757273Y175107D01*
X-1756410Y184912D01*
X-1757273Y194716D01*
X-1759813Y204165D01*
X-1763979Y213106D01*
X-1769618Y221132D01*
X-1776526Y228092D01*
X-1784604Y233730D01*
X-1793493Y237845D01*
X-1802993Y240385D01*
X-1812747Y241249D01*
X-1816658Y242417D01*
X-1819808Y245059D01*
X-1821637Y248767D01*
X-1823313Y254965D01*
X-1827479Y263906D01*
X-1833118Y271932D01*
X-1840026Y278892D01*
X-1848104Y284530D01*
X-1856993Y288645D01*
X-1866493Y291185D01*
X-1876247Y292049D01*
X-1886051Y291185D01*
X-1895551Y288645D01*
X-1904441Y284530D01*
X-1912518Y278892D01*
X-1919427Y271932D01*
X-1925066Y263906D01*
X-1929231Y254965D01*
X-1930907Y248767D01*
X-1932736Y245059D01*
X-1935886Y242417D01*
X-1939798Y241249D01*
X-1949551Y240385D01*
X-1959051Y237845D01*
X-1967941Y233730D01*
X-1976018Y228092D01*
X-1982927Y221132D01*
X-1988108Y213715D01*
X-1991258Y210820D01*
X-1995271Y209448D01*
X-1999488Y209854D01*
X-2003196Y211937D01*
X-2005736Y215392D01*
X-2006600Y219557D01*
X-2006600Y548233D01*
X-2005838Y552094D01*
X-2003653Y555396D01*
X-1955596Y603402D01*
X-1825345Y721258D01*
X-1822196Y723188D01*
X-1818538Y723900D01*
X-821385Y723900D01*
X-817118Y722934D01*
X-742289Y688441D01*
X-739292Y686257D01*
X-737209Y683158D01*
X-736396Y679500D01*
X-730402Y486511D01*
X-730961Y482854D01*
X-732790Y479602D01*
X-1097889Y51562D01*
X-1098550Y49987D01*
X-1104900Y-2070201D01*
X-1105560Y-2073859D01*
X-1107541Y-2077008D01*
X-1110488Y-2079243D01*
X-2259736Y-2653842D01*
X-2260650Y-2655062D01*
X-2273198Y-3271824D01*
X-2274265Y-3276142D01*
X-2277059Y-3279597D01*
X-2391206Y-3369665D01*
X-2394153Y-3371291D01*
X-2397506Y-3371850D01*
G37*

%LPC*%
G36*
X-1426311Y-1809445D02*
G01*
X-1416761Y-1808175D01*
X-1407566Y-1805381D01*
X-1398930Y-1801012D01*
X-1391158Y-1795272D01*
X-1384503Y-1788312D01*
X-1383233Y-1786432D01*
X-1380540Y-1783740D01*
X-1377086Y-1782216D01*
X-1373327Y-1782064D01*
X-1369771Y-1783283D01*
X-1366875Y-1785721D01*
X-1361846Y-1791970D01*
X-1354632Y-1798320D01*
X-1346403Y-1803400D01*
X-1337462Y-1806956D01*
X-1328013Y-1808988D01*
X-1318361Y-1809445D01*
X-1308811Y-1808175D01*
X-1299616Y-1805381D01*
X-1290980Y-1801012D01*
X-1283208Y-1795272D01*
X-1276553Y-1788312D01*
X-1271168Y-1780336D01*
X-1267155Y-1771548D01*
X-1264767Y-1762201D01*
X-1263904Y-1752600D01*
X-1264767Y-1742998D01*
X-1267155Y-1733651D01*
X-1271168Y-1724863D01*
X-1276553Y-1716887D01*
X-1283208Y-1709928D01*
X-1290980Y-1704187D01*
X-1299616Y-1699818D01*
X-1308811Y-1697024D01*
X-1318361Y-1695754D01*
X-1328013Y-1696212D01*
X-1337462Y-1698243D01*
X-1346403Y-1701800D01*
X-1354632Y-1706880D01*
X-1361846Y-1713230D01*
X-1366875Y-1719478D01*
X-1369771Y-1721916D01*
X-1373327Y-1723136D01*
X-1377086Y-1722983D01*
X-1380540Y-1721459D01*
X-1383233Y-1718767D01*
X-1384503Y-1716887D01*
X-1391158Y-1709928D01*
X-1398930Y-1704187D01*
X-1407566Y-1699818D01*
X-1416761Y-1697024D01*
X-1426311Y-1695754D01*
X-1435963Y-1696212D01*
X-1445412Y-1698243D01*
X-1454353Y-1701800D01*
X-1462582Y-1706880D01*
X-1469796Y-1713230D01*
X-1475892Y-1720748D01*
X-1480566Y-1729181D01*
X-1483766Y-1738274D01*
X-1485392Y-1747774D01*
X-1485392Y-1757425D01*
X-1483766Y-1766925D01*
X-1480566Y-1776018D01*
X-1475892Y-1784451D01*
X-1469796Y-1791970D01*
X-1462582Y-1798320D01*
X-1454353Y-1803400D01*
X-1445412Y-1806956D01*
X-1435963Y-1808988D01*
G37*
G36*
X-1426311Y-1657045D02*
G01*
X-1416761Y-1655775D01*
X-1407566Y-1652981D01*
X-1398930Y-1648612D01*
X-1391158Y-1642872D01*
X-1384503Y-1635912D01*
X-1383233Y-1634032D01*
X-1380540Y-1631340D01*
X-1377086Y-1629816D01*
X-1373327Y-1629664D01*
X-1369771Y-1630883D01*
X-1366875Y-1633321D01*
X-1361846Y-1639570D01*
X-1354632Y-1645920D01*
X-1346403Y-1651000D01*
X-1337462Y-1654556D01*
X-1328013Y-1656588D01*
X-1318361Y-1657045D01*
X-1308811Y-1655775D01*
X-1299616Y-1652981D01*
X-1290980Y-1648612D01*
X-1283208Y-1642872D01*
X-1276553Y-1635912D01*
X-1271168Y-1627936D01*
X-1267155Y-1619148D01*
X-1264767Y-1609801D01*
X-1263904Y-1600200D01*
X-1264767Y-1590598D01*
X-1267155Y-1581251D01*
X-1271168Y-1572463D01*
X-1276553Y-1564487D01*
X-1283208Y-1557528D01*
X-1290980Y-1551787D01*
X-1299616Y-1547418D01*
X-1308811Y-1544624D01*
X-1318361Y-1543354D01*
X-1328013Y-1543812D01*
X-1337462Y-1545844D01*
X-1346403Y-1549400D01*
X-1354632Y-1554480D01*
X-1361846Y-1560830D01*
X-1366875Y-1567078D01*
X-1369771Y-1569516D01*
X-1373327Y-1570736D01*
X-1377086Y-1570583D01*
X-1380540Y-1569059D01*
X-1383233Y-1566367D01*
X-1384503Y-1564487D01*
X-1391158Y-1557528D01*
X-1398930Y-1551787D01*
X-1407566Y-1547418D01*
X-1416761Y-1544624D01*
X-1426311Y-1543354D01*
X-1435963Y-1543812D01*
X-1445412Y-1545844D01*
X-1454353Y-1549400D01*
X-1462582Y-1554480D01*
X-1469796Y-1560830D01*
X-1475892Y-1568348D01*
X-1480566Y-1576781D01*
X-1483766Y-1585874D01*
X-1485392Y-1595374D01*
X-1485392Y-1605026D01*
X-1483766Y-1614525D01*
X-1480566Y-1623618D01*
X-1475892Y-1632051D01*
X-1469796Y-1639570D01*
X-1462582Y-1645920D01*
X-1454353Y-1651000D01*
X-1445412Y-1654556D01*
X-1435963Y-1656588D01*
G37*
G36*
X-1407261Y-539445D02*
G01*
X-1397711Y-538175D01*
X-1388516Y-535381D01*
X-1379880Y-531012D01*
X-1372108Y-525272D01*
X-1369517Y-522579D01*
X-1366367Y-520344D01*
X-1362608Y-519480D01*
X-1358798Y-520039D01*
X-1355496Y-521970D01*
X-1348282Y-528320D01*
X-1340053Y-533400D01*
X-1331112Y-536956D01*
X-1321663Y-538988D01*
X-1312011Y-539445D01*
X-1302461Y-538175D01*
X-1293266Y-535381D01*
X-1284630Y-531012D01*
X-1276858Y-525272D01*
X-1270203Y-518312D01*
X-1264818Y-510336D01*
X-1260805Y-501548D01*
X-1258417Y-492201D01*
X-1257554Y-482600D01*
X-1258417Y-472998D01*
X-1260805Y-463651D01*
X-1264818Y-454863D01*
X-1270203Y-446887D01*
X-1276858Y-439928D01*
X-1284630Y-434187D01*
X-1293266Y-429818D01*
X-1302461Y-427024D01*
X-1310284Y-426008D01*
X-1314246Y-424637D01*
X-1315821Y-423164D01*
X-1317650Y-424738D01*
X-1320850Y-426008D01*
X-1331112Y-428243D01*
X-1340053Y-431800D01*
X-1348282Y-436880D01*
X-1355496Y-443230D01*
X-1358798Y-445160D01*
X-1362608Y-445719D01*
X-1366367Y-444855D01*
X-1369517Y-442620D01*
X-1372108Y-439928D01*
X-1379880Y-434187D01*
X-1388516Y-429818D01*
X-1397711Y-427024D01*
X-1405534Y-426008D01*
X-1409496Y-424637D01*
X-1411071Y-423164D01*
X-1412900Y-424738D01*
X-1416100Y-426008D01*
X-1426362Y-428243D01*
X-1435303Y-431800D01*
X-1443532Y-436880D01*
X-1450746Y-443230D01*
X-1456842Y-450748D01*
X-1461516Y-459181D01*
X-1464716Y-468274D01*
X-1466342Y-477774D01*
X-1466342Y-487426D01*
X-1464716Y-496925D01*
X-1461516Y-506018D01*
X-1456842Y-514451D01*
X-1450746Y-521970D01*
X-1443532Y-528320D01*
X-1435303Y-533400D01*
X-1426362Y-536956D01*
X-1416913Y-538988D01*
G37*
G36*
X-1411071Y-408686D02*
G01*
X-1409496Y-407212D01*
X-1405534Y-405841D01*
X-1397711Y-404825D01*
X-1388516Y-402031D01*
X-1379880Y-397662D01*
X-1372108Y-391922D01*
X-1369517Y-389229D01*
X-1366367Y-386994D01*
X-1362608Y-386130D01*
X-1358798Y-386689D01*
X-1355496Y-388620D01*
X-1348282Y-394970D01*
X-1340053Y-400050D01*
X-1331112Y-403606D01*
X-1320850Y-405841D01*
X-1317650Y-407111D01*
X-1315821Y-408686D01*
X-1314246Y-407212D01*
X-1310284Y-405841D01*
X-1302461Y-404825D01*
X-1293266Y-402031D01*
X-1284630Y-397662D01*
X-1276858Y-391922D01*
X-1270203Y-384962D01*
X-1264818Y-376986D01*
X-1260805Y-368198D01*
X-1258417Y-358851D01*
X-1257554Y-349250D01*
X-1258417Y-339648D01*
X-1260805Y-330301D01*
X-1264818Y-321513D01*
X-1270203Y-313537D01*
X-1276858Y-306578D01*
X-1284630Y-300837D01*
X-1293266Y-296468D01*
X-1302461Y-293674D01*
X-1312011Y-292404D01*
X-1321663Y-292862D01*
X-1331112Y-294894D01*
X-1340053Y-298450D01*
X-1348282Y-303530D01*
X-1355496Y-309880D01*
X-1358798Y-311810D01*
X-1362608Y-312369D01*
X-1366367Y-311505D01*
X-1369517Y-309270D01*
X-1372108Y-306578D01*
X-1379880Y-300837D01*
X-1388516Y-296468D01*
X-1397711Y-293674D01*
X-1407261Y-292404D01*
X-1416913Y-292862D01*
X-1426362Y-294894D01*
X-1435303Y-298450D01*
X-1443532Y-303530D01*
X-1450746Y-309880D01*
X-1456842Y-317398D01*
X-1461516Y-325831D01*
X-1464716Y-334924D01*
X-1466342Y-344424D01*
X-1466342Y-354076D01*
X-1464716Y-363575D01*
X-1461516Y-372668D01*
X-1456842Y-381101D01*
X-1450746Y-388620D01*
X-1443532Y-394970D01*
X-1435303Y-400050D01*
X-1426362Y-403606D01*
X-1416100Y-405841D01*
X-1412900Y-407111D01*
G37*
G36*
X-1413611Y-158445D02*
G01*
X-1404061Y-157175D01*
X-1394866Y-154381D01*
X-1386230Y-150012D01*
X-1378458Y-144272D01*
X-1375867Y-141579D01*
X-1372717Y-139344D01*
X-1368958Y-138480D01*
X-1365148Y-139039D01*
X-1361846Y-140970D01*
X-1354632Y-147320D01*
X-1346403Y-152400D01*
X-1337462Y-155956D01*
X-1328013Y-157988D01*
X-1318361Y-158445D01*
X-1308811Y-157175D01*
X-1299616Y-154381D01*
X-1290980Y-150012D01*
X-1283208Y-144272D01*
X-1276553Y-137312D01*
X-1271168Y-129336D01*
X-1267155Y-120548D01*
X-1264767Y-111201D01*
X-1263904Y-101600D01*
X-1264767Y-91998D01*
X-1267155Y-82651D01*
X-1271168Y-73863D01*
X-1276553Y-65887D01*
X-1283208Y-58928D01*
X-1290980Y-53187D01*
X-1296568Y-50342D01*
X-1300022Y-47498D01*
X-1301902Y-43484D01*
X-1301902Y-39065D01*
X-1300022Y-35052D01*
X-1296568Y-32207D01*
X-1290980Y-29362D01*
X-1283208Y-23622D01*
X-1276553Y-16662D01*
X-1271168Y-8686D01*
X-1267155Y101D01*
X-1264767Y9448D01*
X-1263904Y19050D01*
X-1264767Y28651D01*
X-1267155Y37998D01*
X-1271168Y46786D01*
X-1276553Y54762D01*
X-1283208Y61722D01*
X-1290980Y67462D01*
X-1299616Y71831D01*
X-1308811Y74625D01*
X-1318361Y75895D01*
X-1328013Y75438D01*
X-1337462Y73406D01*
X-1346403Y69850D01*
X-1354632Y64769D01*
X-1358392Y61467D01*
X-1361338Y59639D01*
X-1364691Y58928D01*
X-1368094Y59385D01*
X-1371193Y60960D01*
X-1379931Y67513D01*
X-1388516Y71831D01*
X-1397711Y74625D01*
X-1407261Y75895D01*
X-1416913Y75438D01*
X-1426362Y73406D01*
X-1435303Y69850D01*
X-1443532Y64769D01*
X-1450746Y58419D01*
X-1456842Y50901D01*
X-1461516Y42468D01*
X-1464716Y33375D01*
X-1466342Y23876D01*
X-1466342Y14224D01*
X-1464716Y4724D01*
X-1461516Y-4368D01*
X-1456842Y-12801D01*
X-1450746Y-20320D01*
X-1443532Y-26670D01*
X-1436217Y-31191D01*
X-1433017Y-34290D01*
X-1431493Y-38455D01*
X-1431848Y-42875D01*
X-1434084Y-46736D01*
X-1437741Y-49225D01*
X-1441653Y-50800D01*
X-1449882Y-55880D01*
X-1457096Y-62230D01*
X-1463192Y-69748D01*
X-1467866Y-78181D01*
X-1471066Y-87274D01*
X-1472692Y-96774D01*
X-1472692Y-106426D01*
X-1471066Y-115925D01*
X-1467866Y-125018D01*
X-1463192Y-133451D01*
X-1457096Y-140970D01*
X-1449882Y-147320D01*
X-1441653Y-152400D01*
X-1432712Y-155956D01*
X-1423263Y-157988D01*
G37*

%LPD*%
G36*
X2114550Y-3384550D02*
G01*
X-2324252Y-3372916D01*
X-2328316Y-3372053D01*
X-2331669Y-3369614D01*
X-2333802Y-3366058D01*
X-2334361Y-3361944D01*
X-2333193Y-3357981D01*
X-2330500Y-3354781D01*
X-2257653Y-3297275D01*
X-2253437Y-3293160D01*
X-2250236Y-3288284D01*
X-2248255Y-3282899D01*
X-2247392Y-3276549D01*
X-2235149Y-2676601D01*
X-2234438Y-2673045D01*
X-2232456Y-2669946D01*
X-2229561Y-2667762D01*
X-1093774Y-2099868D01*
X-1088898Y-2096770D01*
X-1084732Y-2092655D01*
X-1081684Y-2087727D01*
X-1079754Y-2082292D01*
X-1078992Y-2075942D01*
X-1075334Y-851306D01*
X-1074826Y-848004D01*
X-1073962Y-838200D01*
X-1075283Y-825347D01*
X-1074928Y-710031D01*
X-1073962Y-698500D01*
X-1074877Y-687679D01*
X-1072692Y37490D01*
X-1072083Y40995D01*
X-1070254Y44043D01*
X-710641Y465632D01*
X-706628Y472084D01*
X-704900Y477621D01*
X-704392Y483971D01*
X-710692Y686054D01*
X-711504Y691896D01*
X-713536Y697382D01*
X-716686Y702208D01*
X-720852Y706272D01*
X-726287Y709574D01*
X-807821Y747166D01*
X-813358Y749096D01*
X-819708Y749808D01*
X-1822297Y749808D01*
X-1829765Y748690D01*
X-1835099Y746455D01*
X-1840280Y742696D01*
X-1974240Y621487D01*
X-2014067Y581660D01*
X-2017623Y579323D01*
X-2021789Y578662D01*
X-2025904Y579780D01*
X-2029155Y582472D01*
X-2046376Y604012D01*
X-2050897Y608482D01*
X-2055774Y611530D01*
X-2061260Y613460D01*
X-2067661Y614172D01*
X-2787599Y610717D01*
X-2792882Y610209D01*
X-2798470Y608431D01*
X-2803956Y605180D01*
X-2809494Y601014D01*
X-2813558Y599186D01*
X-2818028Y599287D01*
X-2822041Y601268D01*
X-2824784Y604824D01*
X-2825750Y609142D01*
X-2825750Y1691233D01*
X-2824988Y1695094D01*
X-2822803Y1698396D01*
X-2714447Y1806752D01*
X-2711145Y1808988D01*
X-2707233Y1809750D01*
X2148433Y1809750D01*
X2152294Y1808988D01*
X2155596Y1806752D01*
X2263952Y1698396D01*
X2266188Y1695094D01*
X2266950Y1691233D01*
X2266950Y528015D01*
X2267661Y526338D01*
X2556052Y237896D01*
X2558288Y234594D01*
X2559050Y230733D01*
X2559050Y-2910433D01*
X2558288Y-2914345D01*
X2556052Y-2917647D01*
X2267661Y-3206038D01*
X2266950Y-3207766D01*
X2266950Y-3253333D01*
X2266188Y-3257245D01*
X2263952Y-3260547D01*
X2142896Y-3381603D01*
X2139594Y-3383787D01*
X2135733Y-3384550D01*
G37*

%LPC*%
G36*
X669086Y-3300729D02*
G01*
X847953Y-3300729D01*
X854303Y-3300018D01*
X859739Y-3298088D01*
X864666Y-3295040D01*
X868730Y-3290925D01*
X871829Y-3286048D01*
X873709Y-3280562D01*
X874420Y-3274263D01*
X874420Y-3095396D01*
X873709Y-3089046D01*
X871829Y-3083610D01*
X868730Y-3078683D01*
X864666Y-3074619D01*
X859739Y-3071520D01*
X854303Y-3069640D01*
X847953Y-3068929D01*
X669086Y-3068929D01*
X662787Y-3069640D01*
X657301Y-3071520D01*
X652424Y-3074619D01*
X648309Y-3078683D01*
X645261Y-3083610D01*
X643331Y-3089046D01*
X642620Y-3095396D01*
X642620Y-3274263D01*
X643331Y-3280562D01*
X645261Y-3286048D01*
X648309Y-3290925D01*
X652424Y-3295040D01*
X657301Y-3298088D01*
X662787Y-3300018D01*
G37*
G36*
X-1616913Y-3300729D02*
G01*
X-1438046Y-3300729D01*
X-1431696Y-3300018D01*
X-1426260Y-3298088D01*
X-1421333Y-3295040D01*
X-1417269Y-3290925D01*
X-1414170Y-3286048D01*
X-1412290Y-3280562D01*
X-1411579Y-3274263D01*
X-1411579Y-3095396D01*
X-1412290Y-3089046D01*
X-1414170Y-3083610D01*
X-1417269Y-3078683D01*
X-1421333Y-3074619D01*
X-1426260Y-3071520D01*
X-1431696Y-3069640D01*
X-1438046Y-3068929D01*
X-1616913Y-3068929D01*
X-1623212Y-3069640D01*
X-1628698Y-3071520D01*
X-1633575Y-3074619D01*
X-1637690Y-3078683D01*
X-1640738Y-3083610D01*
X-1642668Y-3089046D01*
X-1643380Y-3095396D01*
X-1643380Y-3274263D01*
X-1642668Y-3280562D01*
X-1640738Y-3286048D01*
X-1637690Y-3290925D01*
X-1633575Y-3295040D01*
X-1628698Y-3298088D01*
X-1623212Y-3300018D01*
G37*
G36*
X1513281Y-3300476D02*
G01*
X1527810Y-3300476D01*
X1542237Y-3298647D01*
X1556359Y-3295040D01*
X1569872Y-3289655D01*
X1582623Y-3282645D01*
X1594408Y-3274110D01*
X1605026Y-3264153D01*
X1614271Y-3252927D01*
X1622094Y-3240633D01*
X1628292Y-3227476D01*
X1632762Y-3213658D01*
X1635506Y-3199333D01*
X1636420Y-3184804D01*
X1635506Y-3170275D01*
X1632762Y-3156000D01*
X1628292Y-3142132D01*
X1622094Y-3128975D01*
X1614271Y-3116681D01*
X1605026Y-3105505D01*
X1594408Y-3095498D01*
X1582623Y-3086963D01*
X1569872Y-3079953D01*
X1556359Y-3074619D01*
X1542237Y-3070961D01*
X1527810Y-3069132D01*
X1513281Y-3069132D01*
X1498803Y-3070961D01*
X1484731Y-3074619D01*
X1471168Y-3079953D01*
X1458417Y-3086963D01*
X1446682Y-3095498D01*
X1436065Y-3105505D01*
X1426768Y-3116681D01*
X1418996Y-3128975D01*
X1412798Y-3142132D01*
X1408277Y-3156000D01*
X1405534Y-3170275D01*
X1404620Y-3184804D01*
X1405534Y-3199333D01*
X1408277Y-3213658D01*
X1412798Y-3227476D01*
X1418996Y-3240633D01*
X1426768Y-3252927D01*
X1436065Y-3264153D01*
X1446682Y-3274110D01*
X1458417Y-3282645D01*
X1471168Y-3289655D01*
X1484731Y-3295040D01*
X1498803Y-3298647D01*
G37*
G36*
X-1026718Y-3300476D02*
G01*
X-1012190Y-3300476D01*
X-997762Y-3298647D01*
X-983640Y-3295040D01*
X-970127Y-3289655D01*
X-957376Y-3282645D01*
X-945591Y-3274110D01*
X-934974Y-3264153D01*
X-925728Y-3252927D01*
X-917905Y-3240633D01*
X-911707Y-3227476D01*
X-907237Y-3213658D01*
X-904494Y-3199333D01*
X-903579Y-3184804D01*
X-904494Y-3170275D01*
X-907237Y-3156000D01*
X-911707Y-3142132D01*
X-917905Y-3128975D01*
X-925728Y-3116681D01*
X-934974Y-3105505D01*
X-945591Y-3095498D01*
X-957376Y-3086963D01*
X-970127Y-3079953D01*
X-983640Y-3074619D01*
X-997762Y-3070961D01*
X-1012190Y-3069132D01*
X-1026718Y-3069132D01*
X-1041196Y-3070961D01*
X-1055268Y-3074619D01*
X-1068832Y-3079953D01*
X-1081582Y-3086963D01*
X-1093317Y-3095498D01*
X-1103934Y-3105505D01*
X-1113231Y-3116681D01*
X-1121003Y-3128975D01*
X-1127201Y-3142132D01*
X-1131722Y-3156000D01*
X-1134465Y-3170275D01*
X-1135380Y-3184804D01*
X-1134465Y-3199333D01*
X-1131722Y-3213658D01*
X-1127201Y-3227476D01*
X-1121003Y-3240633D01*
X-1113231Y-3252927D01*
X-1103934Y-3264153D01*
X-1093317Y-3274110D01*
X-1081582Y-3282645D01*
X-1068832Y-3289655D01*
X-1055268Y-3295040D01*
X-1041196Y-3298647D01*
G37*
G36*
X-518718Y-3300476D02*
G01*
X-504190Y-3300476D01*
X-489762Y-3298647D01*
X-475640Y-3295040D01*
X-462127Y-3289655D01*
X-449376Y-3282645D01*
X-437591Y-3274110D01*
X-426974Y-3264153D01*
X-417728Y-3252927D01*
X-409905Y-3240633D01*
X-403707Y-3227476D01*
X-399237Y-3213658D01*
X-396494Y-3199333D01*
X-395579Y-3184804D01*
X-396494Y-3170275D01*
X-399237Y-3156000D01*
X-403707Y-3142132D01*
X-409905Y-3128975D01*
X-417728Y-3116681D01*
X-426974Y-3105505D01*
X-437591Y-3095498D01*
X-449376Y-3086963D01*
X-462127Y-3079953D01*
X-475640Y-3074619D01*
X-489762Y-3070961D01*
X-504190Y-3069132D01*
X-518718Y-3069132D01*
X-533196Y-3070961D01*
X-547268Y-3074619D01*
X-560832Y-3079953D01*
X-573582Y-3086963D01*
X-585317Y-3095498D01*
X-595934Y-3105505D01*
X-605231Y-3116681D01*
X-613003Y-3128975D01*
X-619201Y-3142132D01*
X-623722Y-3156000D01*
X-626465Y-3170275D01*
X-627380Y-3184804D01*
X-626465Y-3199333D01*
X-623722Y-3213658D01*
X-619201Y-3227476D01*
X-613003Y-3240633D01*
X-605231Y-3252927D01*
X-595934Y-3264153D01*
X-585317Y-3274110D01*
X-573582Y-3282645D01*
X-560832Y-3289655D01*
X-547268Y-3295040D01*
X-533196Y-3298647D01*
G37*
G36*
X1259281Y-3300476D02*
G01*
X1273810Y-3300476D01*
X1288237Y-3298647D01*
X1302359Y-3295040D01*
X1315872Y-3289655D01*
X1328623Y-3282645D01*
X1340408Y-3274110D01*
X1351026Y-3264153D01*
X1360271Y-3252927D01*
X1368094Y-3240633D01*
X1374292Y-3227476D01*
X1378762Y-3213658D01*
X1381506Y-3199333D01*
X1382420Y-3184804D01*
X1381506Y-3170275D01*
X1378762Y-3156000D01*
X1374292Y-3142132D01*
X1368094Y-3128975D01*
X1360271Y-3116681D01*
X1351026Y-3105505D01*
X1340408Y-3095498D01*
X1328623Y-3086963D01*
X1315872Y-3079953D01*
X1302359Y-3074619D01*
X1288237Y-3070961D01*
X1273810Y-3069132D01*
X1259281Y-3069132D01*
X1244803Y-3070961D01*
X1230731Y-3074619D01*
X1217168Y-3079953D01*
X1204417Y-3086963D01*
X1192682Y-3095498D01*
X1182065Y-3105505D01*
X1172768Y-3116681D01*
X1164996Y-3128975D01*
X1158798Y-3142132D01*
X1154277Y-3156000D01*
X1151534Y-3170275D01*
X1150620Y-3184804D01*
X1151534Y-3199333D01*
X1154277Y-3213658D01*
X1158798Y-3227476D01*
X1164996Y-3240633D01*
X1172768Y-3252927D01*
X1182065Y-3264153D01*
X1192682Y-3274110D01*
X1204417Y-3282645D01*
X1217168Y-3289655D01*
X1230731Y-3295040D01*
X1244803Y-3298647D01*
G37*
G36*
X1767281Y-3300476D02*
G01*
X1781810Y-3300476D01*
X1796237Y-3298647D01*
X1810359Y-3295040D01*
X1823872Y-3289655D01*
X1836623Y-3282645D01*
X1848408Y-3274110D01*
X1859025Y-3264153D01*
X1868271Y-3252927D01*
X1876094Y-3240633D01*
X1882292Y-3227476D01*
X1886762Y-3213658D01*
X1889506Y-3199333D01*
X1890420Y-3184804D01*
X1889506Y-3170275D01*
X1886762Y-3156000D01*
X1882292Y-3142132D01*
X1876094Y-3128975D01*
X1868271Y-3116681D01*
X1859025Y-3105505D01*
X1848408Y-3095498D01*
X1836623Y-3086963D01*
X1823872Y-3079953D01*
X1810359Y-3074619D01*
X1796237Y-3070961D01*
X1781810Y-3069132D01*
X1767281Y-3069132D01*
X1752803Y-3070961D01*
X1738731Y-3074619D01*
X1725168Y-3079953D01*
X1712417Y-3086963D01*
X1700682Y-3095498D01*
X1690065Y-3105505D01*
X1680768Y-3116681D01*
X1672996Y-3128975D01*
X1666798Y-3142132D01*
X1662277Y-3156000D01*
X1659534Y-3170275D01*
X1658620Y-3184804D01*
X1659534Y-3199333D01*
X1662277Y-3213658D01*
X1666798Y-3227476D01*
X1672996Y-3240633D01*
X1680768Y-3252927D01*
X1690065Y-3264153D01*
X1700682Y-3274110D01*
X1712417Y-3282645D01*
X1725168Y-3289655D01*
X1738731Y-3295040D01*
X1752803Y-3298647D01*
G37*
G36*
X-1280718Y-3300476D02*
G01*
X-1266190Y-3300476D01*
X-1251762Y-3298647D01*
X-1237640Y-3295040D01*
X-1224127Y-3289655D01*
X-1211376Y-3282645D01*
X-1199591Y-3274110D01*
X-1188974Y-3264153D01*
X-1179728Y-3252927D01*
X-1171905Y-3240633D01*
X-1165707Y-3227476D01*
X-1161237Y-3213658D01*
X-1158494Y-3199333D01*
X-1157579Y-3184804D01*
X-1158494Y-3170275D01*
X-1161237Y-3156000D01*
X-1165707Y-3142132D01*
X-1171905Y-3128975D01*
X-1179728Y-3116681D01*
X-1188974Y-3105505D01*
X-1199591Y-3095498D01*
X-1211376Y-3086963D01*
X-1224127Y-3079953D01*
X-1237640Y-3074619D01*
X-1251762Y-3070961D01*
X-1266190Y-3069132D01*
X-1280718Y-3069132D01*
X-1295196Y-3070961D01*
X-1309268Y-3074619D01*
X-1322832Y-3079953D01*
X-1335582Y-3086963D01*
X-1347317Y-3095498D01*
X-1357934Y-3105505D01*
X-1367231Y-3116681D01*
X-1375003Y-3128975D01*
X-1381201Y-3142132D01*
X-1385722Y-3156000D01*
X-1388465Y-3170275D01*
X-1389380Y-3184804D01*
X-1388465Y-3199333D01*
X-1385722Y-3213658D01*
X-1381201Y-3227476D01*
X-1375003Y-3240633D01*
X-1367231Y-3252927D01*
X-1357934Y-3264153D01*
X-1347317Y-3274110D01*
X-1335582Y-3282645D01*
X-1322832Y-3289655D01*
X-1309268Y-3295040D01*
X-1295196Y-3298647D01*
G37*
G36*
X243281Y-3300476D02*
G01*
X257810Y-3300476D01*
X272237Y-3298647D01*
X286359Y-3295040D01*
X299872Y-3289655D01*
X312623Y-3282645D01*
X324408Y-3274110D01*
X335026Y-3264153D01*
X344271Y-3252927D01*
X352094Y-3240633D01*
X358292Y-3227476D01*
X362762Y-3213658D01*
X365506Y-3199333D01*
X366420Y-3184804D01*
X365506Y-3170275D01*
X362762Y-3156000D01*
X358292Y-3142132D01*
X352094Y-3128975D01*
X344271Y-3116681D01*
X335026Y-3105505D01*
X324408Y-3095498D01*
X312623Y-3086963D01*
X299872Y-3079953D01*
X286359Y-3074619D01*
X272237Y-3070961D01*
X257810Y-3069132D01*
X243281Y-3069132D01*
X228803Y-3070961D01*
X214731Y-3074619D01*
X201168Y-3079953D01*
X188417Y-3086963D01*
X176682Y-3095498D01*
X166065Y-3105505D01*
X156768Y-3116681D01*
X148996Y-3128975D01*
X142798Y-3142132D01*
X138277Y-3156000D01*
X135534Y-3170275D01*
X134620Y-3184804D01*
X135534Y-3199333D01*
X138277Y-3213658D01*
X142798Y-3227476D01*
X148996Y-3240633D01*
X156768Y-3252927D01*
X166065Y-3264153D01*
X176682Y-3274110D01*
X188417Y-3282645D01*
X201168Y-3289655D01*
X214731Y-3295040D01*
X228803Y-3298647D01*
G37*
G36*
X1005281Y-3300476D02*
G01*
X1019810Y-3300476D01*
X1034237Y-3298647D01*
X1048359Y-3295040D01*
X1061872Y-3289655D01*
X1074623Y-3282645D01*
X1086408Y-3274110D01*
X1097026Y-3264153D01*
X1106271Y-3252927D01*
X1114094Y-3240633D01*
X1120292Y-3227476D01*
X1124762Y-3213658D01*
X1127506Y-3199333D01*
X1128420Y-3184804D01*
X1127506Y-3170275D01*
X1124762Y-3156000D01*
X1120292Y-3142132D01*
X1114094Y-3128975D01*
X1106271Y-3116681D01*
X1097026Y-3105505D01*
X1086408Y-3095498D01*
X1074623Y-3086963D01*
X1061872Y-3079953D01*
X1048359Y-3074619D01*
X1034237Y-3070961D01*
X1019810Y-3069132D01*
X1005281Y-3069132D01*
X990803Y-3070961D01*
X976731Y-3074619D01*
X963168Y-3079953D01*
X950417Y-3086963D01*
X938682Y-3095498D01*
X928065Y-3105505D01*
X918768Y-3116681D01*
X910996Y-3128975D01*
X904798Y-3142132D01*
X900277Y-3156000D01*
X897534Y-3170275D01*
X896619Y-3184804D01*
X897534Y-3199333D01*
X900277Y-3213658D01*
X904798Y-3227476D01*
X910996Y-3240633D01*
X918768Y-3252927D01*
X928065Y-3264153D01*
X938682Y-3274110D01*
X950417Y-3282645D01*
X963168Y-3289655D01*
X976731Y-3295040D01*
X990803Y-3298647D01*
G37*
G36*
X-772718Y-3300476D02*
G01*
X-758190Y-3300476D01*
X-743762Y-3298647D01*
X-729640Y-3295040D01*
X-716127Y-3289655D01*
X-703376Y-3282645D01*
X-691591Y-3274110D01*
X-680974Y-3264153D01*
X-671728Y-3252927D01*
X-663905Y-3240633D01*
X-657707Y-3227476D01*
X-653237Y-3213658D01*
X-650494Y-3199333D01*
X-649579Y-3184804D01*
X-650494Y-3170275D01*
X-653237Y-3156000D01*
X-657707Y-3142132D01*
X-663905Y-3128975D01*
X-671728Y-3116681D01*
X-680974Y-3105505D01*
X-691591Y-3095498D01*
X-703376Y-3086963D01*
X-716127Y-3079953D01*
X-729640Y-3074619D01*
X-743762Y-3070961D01*
X-758190Y-3069132D01*
X-772718Y-3069132D01*
X-787196Y-3070961D01*
X-801268Y-3074619D01*
X-814832Y-3079953D01*
X-827582Y-3086963D01*
X-839317Y-3095498D01*
X-849934Y-3105505D01*
X-859231Y-3116681D01*
X-867003Y-3128975D01*
X-873201Y-3142132D01*
X-877722Y-3156000D01*
X-880465Y-3170275D01*
X-881380Y-3184804D01*
X-880465Y-3199333D01*
X-877722Y-3213658D01*
X-873201Y-3227476D01*
X-867003Y-3240633D01*
X-859231Y-3252927D01*
X-849934Y-3264153D01*
X-839317Y-3274110D01*
X-827582Y-3282645D01*
X-814832Y-3289655D01*
X-801268Y-3295040D01*
X-787196Y-3298647D01*
G37*
G36*
X2021281Y-3300476D02*
G01*
X2035810Y-3300476D01*
X2050237Y-3298647D01*
X2064359Y-3295040D01*
X2077872Y-3289655D01*
X2090623Y-3282645D01*
X2102408Y-3274110D01*
X2113026Y-3264153D01*
X2122271Y-3252927D01*
X2130094Y-3240633D01*
X2136292Y-3227476D01*
X2140762Y-3213658D01*
X2143506Y-3199333D01*
X2144420Y-3184804D01*
X2143506Y-3170275D01*
X2140762Y-3156000D01*
X2136292Y-3142132D01*
X2130094Y-3128975D01*
X2122271Y-3116681D01*
X2113026Y-3105505D01*
X2102408Y-3095498D01*
X2090623Y-3086963D01*
X2077872Y-3079953D01*
X2064359Y-3074619D01*
X2050237Y-3070961D01*
X2035810Y-3069132D01*
X2021281Y-3069132D01*
X2006803Y-3070961D01*
X1992731Y-3074619D01*
X1979168Y-3079953D01*
X1966417Y-3086963D01*
X1954682Y-3095498D01*
X1944065Y-3105505D01*
X1934768Y-3116681D01*
X1926996Y-3128975D01*
X1920798Y-3142132D01*
X1916277Y-3156000D01*
X1913534Y-3170275D01*
X1912620Y-3184804D01*
X1913534Y-3199333D01*
X1916277Y-3213658D01*
X1920798Y-3227476D01*
X1926996Y-3240633D01*
X1934768Y-3252927D01*
X1944065Y-3264153D01*
X1954682Y-3274110D01*
X1966417Y-3282645D01*
X1979168Y-3289655D01*
X1992731Y-3295040D01*
X2006803Y-3298647D01*
G37*
G36*
X2320747Y-2924454D02*
G01*
X2339543Y-2924454D01*
X2358288Y-2922574D01*
X2376728Y-2918764D01*
X2394712Y-2913126D01*
X2412034Y-2905709D01*
X2428494Y-2896565D01*
X2443937Y-2885795D01*
X2458212Y-2873552D01*
X2471216Y-2859887D01*
X2482697Y-2845003D01*
X2492705Y-2829001D01*
X2500985Y-2812135D01*
X2507538Y-2794457D01*
X2512212Y-2776220D01*
X2515108Y-2757627D01*
X2516022Y-2738831D01*
X2515108Y-2719984D01*
X2512212Y-2701391D01*
X2507538Y-2683154D01*
X2500985Y-2665476D01*
X2492705Y-2648610D01*
X2482697Y-2632608D01*
X2471216Y-2617724D01*
X2458212Y-2604058D01*
X2443937Y-2591816D01*
X2428494Y-2581046D01*
X2412034Y-2571902D01*
X2394712Y-2564485D01*
X2376728Y-2558846D01*
X2358288Y-2555036D01*
X2339543Y-2553157D01*
X2320747Y-2553157D01*
X2302002Y-2555036D01*
X2283561Y-2558846D01*
X2265578Y-2564485D01*
X2248255Y-2571902D01*
X2231796Y-2581046D01*
X2216353Y-2591816D01*
X2202078Y-2604058D01*
X2189073Y-2617724D01*
X2177592Y-2632608D01*
X2167585Y-2648610D01*
X2159304Y-2665476D01*
X2152751Y-2683154D01*
X2148078Y-2701391D01*
X2145182Y-2719984D01*
X2144268Y-2738831D01*
X2145182Y-2757627D01*
X2148078Y-2776220D01*
X2152751Y-2794457D01*
X2159304Y-2812135D01*
X2167585Y-2829001D01*
X2177592Y-2845003D01*
X2189073Y-2859887D01*
X2202078Y-2873552D01*
X2216353Y-2885795D01*
X2231796Y-2896565D01*
X2248255Y-2905709D01*
X2265578Y-2913126D01*
X2283561Y-2918764D01*
X2302002Y-2922574D01*
G37*
G36*
X-678078Y-2733649D02*
G01*
X-668528Y-2732379D01*
X-659282Y-2729585D01*
X-650697Y-2725216D01*
X-642924Y-2719476D01*
X-641400Y-2717952D01*
X-638251Y-2715717D01*
X-634492Y-2714802D01*
X-630682Y-2715361D01*
X-627380Y-2717342D01*
X-621487Y-2722524D01*
X-613257Y-2727604D01*
X-604316Y-2731160D01*
X-594868Y-2733192D01*
X-585216Y-2733649D01*
X-575665Y-2732379D01*
X-566470Y-2729585D01*
X-557834Y-2725216D01*
X-550062Y-2719476D01*
X-543407Y-2712516D01*
X-538022Y-2704541D01*
X-534009Y-2695752D01*
X-531622Y-2686405D01*
X-530758Y-2676804D01*
X-531622Y-2667203D01*
X-534009Y-2657856D01*
X-538022Y-2649067D01*
X-543407Y-2641092D01*
X-550062Y-2634132D01*
X-557834Y-2628392D01*
X-566470Y-2624023D01*
X-575665Y-2621229D01*
X-585216Y-2619959D01*
X-594868Y-2620416D01*
X-604316Y-2622448D01*
X-613257Y-2626004D01*
X-621487Y-2631084D01*
X-627380Y-2636266D01*
X-630682Y-2638247D01*
X-634492Y-2638806D01*
X-638251Y-2637891D01*
X-641400Y-2635656D01*
X-642924Y-2634132D01*
X-650697Y-2628392D01*
X-659282Y-2624023D01*
X-668528Y-2621229D01*
X-678078Y-2619959D01*
X-687730Y-2620416D01*
X-697128Y-2622448D01*
X-706120Y-2626004D01*
X-714298Y-2631084D01*
X-721563Y-2637434D01*
X-727608Y-2644952D01*
X-732332Y-2653385D01*
X-735533Y-2662478D01*
X-737158Y-2671978D01*
X-737158Y-2681630D01*
X-735533Y-2691130D01*
X-732332Y-2700223D01*
X-727608Y-2708656D01*
X-721563Y-2716174D01*
X-714298Y-2722524D01*
X-706120Y-2727604D01*
X-697128Y-2731160D01*
X-687730Y-2733192D01*
G37*
G36*
X1202588Y-2552395D02*
G01*
X1212138Y-2551125D01*
X1221333Y-2548331D01*
X1229969Y-2543962D01*
X1237742Y-2538222D01*
X1244396Y-2531262D01*
X1249781Y-2523286D01*
X1253794Y-2514498D01*
X1256182Y-2505151D01*
X1257046Y-2495550D01*
X1256182Y-2485948D01*
X1253794Y-2476601D01*
X1249781Y-2467813D01*
X1244396Y-2459837D01*
X1237742Y-2452878D01*
X1229969Y-2447137D01*
X1221333Y-2442768D01*
X1212138Y-2439974D01*
X1202588Y-2438704D01*
X1192936Y-2439162D01*
X1183487Y-2441194D01*
X1174546Y-2444750D01*
X1166317Y-2449830D01*
X1159103Y-2456180D01*
X1153007Y-2463698D01*
X1148334Y-2472131D01*
X1145133Y-2481224D01*
X1143508Y-2490724D01*
X1143508Y-2500376D01*
X1145133Y-2509875D01*
X1148334Y-2518968D01*
X1153007Y-2527401D01*
X1159103Y-2534920D01*
X1166317Y-2541270D01*
X1174546Y-2546350D01*
X1183487Y-2549906D01*
X1192936Y-2551938D01*
G37*
G36*
X758088Y-2501595D02*
G01*
X767638Y-2500325D01*
X776833Y-2497531D01*
X785469Y-2493162D01*
X793242Y-2487422D01*
X799896Y-2480462D01*
X805281Y-2472486D01*
X809294Y-2463698D01*
X811682Y-2454351D01*
X812546Y-2444750D01*
X811682Y-2435148D01*
X809294Y-2425801D01*
X805281Y-2417013D01*
X799896Y-2409037D01*
X793242Y-2402078D01*
X785469Y-2396337D01*
X776833Y-2391968D01*
X767638Y-2389174D01*
X758088Y-2387904D01*
X748436Y-2388362D01*
X738987Y-2390394D01*
X730046Y-2393950D01*
X721817Y-2399030D01*
X714603Y-2405380D01*
X708507Y-2412898D01*
X703834Y-2421331D01*
X700633Y-2430424D01*
X699008Y-2439924D01*
X699008Y-2449576D01*
X700633Y-2459075D01*
X703834Y-2468168D01*
X708507Y-2476601D01*
X714603Y-2484120D01*
X721817Y-2490470D01*
X730046Y-2495550D01*
X738987Y-2499106D01*
X748436Y-2501138D01*
G37*
G36*
X1076045Y-2491841D02*
G01*
X1085850Y-2490978D01*
X1095298Y-2488438D01*
X1104239Y-2484323D01*
X1112266Y-2478684D01*
X1119225Y-2471724D01*
X1124864Y-2463698D01*
X1128979Y-2454757D01*
X1131519Y-2445308D01*
X1132382Y-2435504D01*
X1131519Y-2425700D01*
X1128979Y-2416251D01*
X1124864Y-2407310D01*
X1119225Y-2399284D01*
X1112266Y-2392324D01*
X1104239Y-2386685D01*
X1095298Y-2382570D01*
X1085850Y-2380030D01*
X1076045Y-2379167D01*
X1066241Y-2380030D01*
X1056792Y-2382570D01*
X1047851Y-2386685D01*
X1039825Y-2392324D01*
X1032865Y-2399284D01*
X1027226Y-2407310D01*
X1023112Y-2416251D01*
X1020571Y-2425700D01*
X1019708Y-2435504D01*
X1020571Y-2445308D01*
X1023112Y-2454757D01*
X1027226Y-2463698D01*
X1032865Y-2471724D01*
X1039825Y-2478684D01*
X1047851Y-2484323D01*
X1056792Y-2488438D01*
X1066241Y-2490978D01*
G37*
G36*
X1297838Y-1866595D02*
G01*
X1307388Y-1865325D01*
X1316583Y-1862531D01*
X1325219Y-1858162D01*
X1332992Y-1852422D01*
X1339646Y-1845462D01*
X1345031Y-1837486D01*
X1349044Y-1828698D01*
X1351432Y-1819351D01*
X1352296Y-1809750D01*
X1351432Y-1800148D01*
X1349044Y-1790801D01*
X1345031Y-1782013D01*
X1339646Y-1774037D01*
X1332992Y-1767078D01*
X1325219Y-1761337D01*
X1316583Y-1756968D01*
X1307388Y-1754174D01*
X1297838Y-1752904D01*
X1288186Y-1753362D01*
X1278737Y-1755393D01*
X1269796Y-1758950D01*
X1261567Y-1764030D01*
X1254353Y-1770380D01*
X1248257Y-1777898D01*
X1243584Y-1786331D01*
X1240383Y-1795424D01*
X1238758Y-1804924D01*
X1238758Y-1814575D01*
X1240383Y-1824075D01*
X1243584Y-1833168D01*
X1248257Y-1841601D01*
X1254353Y-1849120D01*
X1261567Y-1855470D01*
X1269796Y-1860550D01*
X1278737Y-1864106D01*
X1288186Y-1866138D01*
G37*
G36*
X-509422Y-1634896D02*
G01*
X-499719Y-1634032D01*
X-490321Y-1631492D01*
X-481482Y-1627378D01*
X-473506Y-1621790D01*
X-466648Y-1614932D01*
X-461060Y-1606956D01*
X-456946Y-1598117D01*
X-454406Y-1588719D01*
X-453542Y-1579016D01*
X-454406Y-1569313D01*
X-456946Y-1559915D01*
X-461060Y-1551076D01*
X-466648Y-1543100D01*
X-473506Y-1536242D01*
X-481482Y-1530654D01*
X-490321Y-1526540D01*
X-499719Y-1524000D01*
X-509422Y-1523136D01*
X-519125Y-1524000D01*
X-528523Y-1526540D01*
X-537362Y-1530654D01*
X-545338Y-1536242D01*
X-552196Y-1543100D01*
X-557784Y-1551076D01*
X-561898Y-1559915D01*
X-564438Y-1569313D01*
X-565302Y-1579016D01*
X-564438Y-1588719D01*
X-561898Y-1598117D01*
X-557784Y-1606956D01*
X-552196Y-1614932D01*
X-545338Y-1621790D01*
X-537362Y-1627378D01*
X-528523Y-1631492D01*
X-519125Y-1634032D01*
G37*
G36*
X-506882Y-1490878D02*
G01*
X-497179Y-1490014D01*
X-487781Y-1487474D01*
X-478942Y-1483360D01*
X-470966Y-1477772D01*
X-464108Y-1470914D01*
X-458520Y-1462938D01*
X-454406Y-1454099D01*
X-451866Y-1444701D01*
X-451002Y-1434998D01*
X-451866Y-1425295D01*
X-454406Y-1415897D01*
X-458520Y-1407058D01*
X-464108Y-1399082D01*
X-470966Y-1392224D01*
X-478942Y-1386636D01*
X-487781Y-1382522D01*
X-497179Y-1379982D01*
X-506882Y-1379118D01*
X-516585Y-1379982D01*
X-525983Y-1382522D01*
X-534822Y-1386636D01*
X-542798Y-1392224D01*
X-549656Y-1399082D01*
X-555244Y-1407058D01*
X-559358Y-1415897D01*
X-561898Y-1425295D01*
X-562762Y-1434998D01*
X-561898Y-1444701D01*
X-559358Y-1454099D01*
X-555244Y-1462938D01*
X-549656Y-1470914D01*
X-542798Y-1477772D01*
X-534822Y-1483360D01*
X-525983Y-1487474D01*
X-516585Y-1490014D01*
G37*
G36*
X548640Y-1485493D02*
G01*
X558190Y-1484223D01*
X567385Y-1481429D01*
X576021Y-1477060D01*
X583793Y-1471320D01*
X590448Y-1464360D01*
X595833Y-1456385D01*
X599846Y-1447596D01*
X602234Y-1438249D01*
X603097Y-1428648D01*
X602234Y-1419047D01*
X599846Y-1409700D01*
X595833Y-1400911D01*
X590448Y-1392936D01*
X583793Y-1385976D01*
X576021Y-1380236D01*
X567385Y-1375867D01*
X558190Y-1373073D01*
X548640Y-1371803D01*
X538988Y-1372260D01*
X529539Y-1374292D01*
X520598Y-1377848D01*
X512368Y-1382928D01*
X505155Y-1389278D01*
X499059Y-1396796D01*
X494385Y-1405229D01*
X491185Y-1414322D01*
X489559Y-1423822D01*
X489559Y-1433474D01*
X491185Y-1442974D01*
X494385Y-1452067D01*
X499059Y-1460500D01*
X505155Y-1468018D01*
X512368Y-1474368D01*
X520598Y-1479448D01*
X529539Y-1483004D01*
X538988Y-1485036D01*
G37*
G36*
X-506882Y-1097178D02*
G01*
X-497179Y-1096314D01*
X-487781Y-1093774D01*
X-478942Y-1089660D01*
X-470966Y-1084072D01*
X-464108Y-1077214D01*
X-458520Y-1069238D01*
X-454406Y-1060399D01*
X-451866Y-1051001D01*
X-451002Y-1041298D01*
X-451866Y-1031595D01*
X-454406Y-1022197D01*
X-458520Y-1013358D01*
X-464108Y-1005382D01*
X-470966Y-998524D01*
X-478942Y-992936D01*
X-487781Y-988821D01*
X-497179Y-986282D01*
X-506882Y-985418D01*
X-516585Y-986282D01*
X-525983Y-988821D01*
X-534822Y-992936D01*
X-542798Y-998524D01*
X-549656Y-1005382D01*
X-555244Y-1013358D01*
X-559358Y-1022197D01*
X-561898Y-1031595D01*
X-562762Y-1041298D01*
X-561898Y-1051001D01*
X-559358Y-1060399D01*
X-555244Y-1069238D01*
X-549656Y-1077214D01*
X-542798Y-1084072D01*
X-534822Y-1089660D01*
X-525983Y-1093774D01*
X-516585Y-1096314D01*
G37*
G36*
X478688Y-742645D02*
G01*
X488238Y-741375D01*
X497433Y-738581D01*
X506069Y-734212D01*
X513842Y-728472D01*
X520496Y-721512D01*
X525881Y-713536D01*
X529894Y-704748D01*
X532282Y-695401D01*
X533146Y-685800D01*
X532282Y-676198D01*
X529894Y-666851D01*
X525881Y-658063D01*
X520496Y-650087D01*
X513842Y-643128D01*
X506069Y-637387D01*
X497433Y-633018D01*
X488238Y-630224D01*
X478688Y-628954D01*
X469036Y-629412D01*
X459587Y-631444D01*
X450646Y-635000D01*
X442417Y-640080D01*
X435203Y-646430D01*
X429107Y-653948D01*
X424434Y-662381D01*
X421233Y-671474D01*
X419608Y-680974D01*
X419608Y-690626D01*
X421233Y-700125D01*
X424434Y-709218D01*
X429107Y-717651D01*
X435203Y-725170D01*
X442417Y-731520D01*
X450646Y-736600D01*
X459587Y-740156D01*
X469036Y-742188D01*
G37*
G36*
X878687Y-621995D02*
G01*
X888288Y-620776D01*
X897483Y-617931D01*
X906119Y-613613D01*
X913841Y-607872D01*
X920546Y-600913D01*
X925931Y-592886D01*
X929894Y-584098D01*
X932332Y-574751D01*
X933145Y-565150D01*
X932332Y-555548D01*
X929894Y-546201D01*
X925931Y-537413D01*
X920546Y-529437D01*
X913841Y-522478D01*
X906119Y-516737D01*
X897483Y-512368D01*
X888288Y-509574D01*
X878687Y-508355D01*
X869086Y-508762D01*
X859637Y-510793D01*
X850696Y-514400D01*
X842467Y-519430D01*
X835253Y-525830D01*
X829157Y-533298D01*
X824484Y-541731D01*
X821232Y-550824D01*
X819607Y-560324D01*
X819607Y-569976D01*
X821232Y-579475D01*
X824484Y-588568D01*
X829157Y-597001D01*
X835253Y-604520D01*
X842467Y-610870D01*
X850696Y-615950D01*
X859637Y-619556D01*
X869086Y-621588D01*
G37*
G36*
X1862937Y-571195D02*
G01*
X1872538Y-569976D01*
X1881733Y-567131D01*
X1890369Y-562813D01*
X1898091Y-557072D01*
X1904796Y-550113D01*
X1910181Y-542086D01*
X1914143Y-533298D01*
X1916582Y-523951D01*
X1917395Y-514350D01*
X1916582Y-504748D01*
X1914143Y-495401D01*
X1910181Y-486613D01*
X1904796Y-478637D01*
X1898091Y-471678D01*
X1890369Y-465937D01*
X1881733Y-461568D01*
X1872538Y-458774D01*
X1862937Y-457555D01*
X1853336Y-457962D01*
X1843887Y-459993D01*
X1834946Y-463600D01*
X1826717Y-468630D01*
X1819503Y-475030D01*
X1813407Y-482498D01*
X1808734Y-490931D01*
X1805482Y-500024D01*
X1803857Y-509524D01*
X1803857Y-519176D01*
X1805482Y-528675D01*
X1808734Y-537768D01*
X1813407Y-546201D01*
X1819503Y-553720D01*
X1826717Y-560070D01*
X1834946Y-565150D01*
X1843887Y-568756D01*
X1853336Y-570788D01*
G37*
G36*
X-505866Y-464210D02*
G01*
X-496163Y-463346D01*
X-486765Y-460806D01*
X-477926Y-456692D01*
X-469950Y-451104D01*
X-463092Y-444246D01*
X-457504Y-436270D01*
X-453390Y-427431D01*
X-450850Y-418033D01*
X-449986Y-408330D01*
X-450850Y-398627D01*
X-453390Y-389229D01*
X-457504Y-380390D01*
X-463092Y-372414D01*
X-469950Y-365556D01*
X-477926Y-359968D01*
X-486765Y-355854D01*
X-496163Y-353314D01*
X-505866Y-352450D01*
X-515569Y-353314D01*
X-524967Y-355854D01*
X-533806Y-359968D01*
X-541782Y-365556D01*
X-548640Y-372414D01*
X-554228Y-380390D01*
X-558342Y-389229D01*
X-560882Y-398627D01*
X-561746Y-408330D01*
X-560882Y-418033D01*
X-558342Y-427431D01*
X-554228Y-436270D01*
X-548640Y-444246D01*
X-541782Y-451104D01*
X-533806Y-456692D01*
X-524967Y-460806D01*
X-515569Y-463346D01*
G37*
G36*
X631088Y-361645D02*
G01*
X640638Y-360375D01*
X649833Y-357581D01*
X658469Y-353212D01*
X666242Y-347472D01*
X672896Y-340512D01*
X678281Y-332536D01*
X682294Y-323748D01*
X684682Y-314401D01*
X685546Y-304800D01*
X684682Y-295198D01*
X682294Y-285851D01*
X678281Y-277063D01*
X672896Y-269087D01*
X666242Y-262128D01*
X658469Y-256387D01*
X649833Y-252018D01*
X640638Y-249224D01*
X631088Y-247954D01*
X621436Y-248412D01*
X611987Y-250444D01*
X603046Y-254000D01*
X594817Y-259079D01*
X587603Y-265430D01*
X581507Y-272948D01*
X576834Y-281381D01*
X573633Y-290474D01*
X572008Y-299974D01*
X572008Y-309626D01*
X573633Y-319125D01*
X576834Y-328218D01*
X581507Y-336651D01*
X587603Y-344170D01*
X594817Y-350520D01*
X603046Y-355600D01*
X611987Y-359156D01*
X621436Y-361188D01*
G37*
G36*
X523138Y-247345D02*
G01*
X532688Y-246075D01*
X541883Y-243281D01*
X550519Y-238912D01*
X558292Y-233171D01*
X564946Y-226212D01*
X570331Y-218236D01*
X574344Y-209448D01*
X576732Y-200101D01*
X577596Y-190500D01*
X576732Y-180898D01*
X574344Y-171551D01*
X570331Y-162763D01*
X564946Y-154787D01*
X558292Y-147828D01*
X550519Y-142087D01*
X541883Y-137718D01*
X532688Y-134924D01*
X523138Y-133654D01*
X513486Y-134112D01*
X504037Y-136144D01*
X495096Y-139700D01*
X492506Y-141325D01*
X488848Y-142697D01*
X484885Y-142595D01*
X481330Y-140970D01*
X478637Y-138125D01*
X477164Y-134518D01*
X477215Y-130606D01*
X478739Y-127000D01*
X481431Y-122986D01*
X485444Y-114198D01*
X487832Y-104851D01*
X488696Y-95250D01*
X487832Y-85648D01*
X485444Y-76301D01*
X481431Y-67513D01*
X476046Y-59537D01*
X469392Y-52578D01*
X461619Y-46837D01*
X452983Y-42468D01*
X443788Y-39674D01*
X434238Y-38404D01*
X424586Y-38862D01*
X415137Y-40894D01*
X406196Y-44450D01*
X397967Y-49530D01*
X390753Y-55880D01*
X384657Y-63398D01*
X379984Y-71831D01*
X376783Y-80924D01*
X375158Y-90424D01*
X375158Y-100076D01*
X376783Y-109575D01*
X379984Y-118668D01*
X384657Y-127101D01*
X390753Y-134620D01*
X397967Y-140970D01*
X406196Y-146050D01*
X415137Y-149606D01*
X424586Y-151638D01*
X434238Y-152095D01*
X443788Y-150825D01*
X452983Y-148031D01*
X460298Y-144322D01*
X464413Y-143256D01*
X468680Y-143967D01*
X472185Y-146405D01*
X474472Y-150012D01*
X474980Y-154279D01*
X473760Y-158394D01*
X468884Y-167081D01*
X465683Y-176174D01*
X464058Y-185674D01*
X464058Y-195326D01*
X465683Y-204825D01*
X468884Y-213918D01*
X473557Y-222351D01*
X479653Y-229870D01*
X486867Y-236220D01*
X495096Y-241300D01*
X504037Y-244856D01*
X513486Y-246888D01*
G37*
G36*
X2320747Y-124460D02*
G01*
X2339543Y-124460D01*
X2358288Y-122580D01*
X2376728Y-118770D01*
X2394712Y-113131D01*
X2412034Y-105714D01*
X2428494Y-96570D01*
X2443937Y-85801D01*
X2458212Y-73558D01*
X2471216Y-59893D01*
X2482697Y-45008D01*
X2492705Y-29006D01*
X2500985Y-12141D01*
X2507538Y5537D01*
X2512212Y23774D01*
X2515108Y42367D01*
X2516022Y61163D01*
X2515108Y80010D01*
X2512212Y98602D01*
X2507538Y116839D01*
X2500985Y134518D01*
X2492705Y151384D01*
X2482697Y167386D01*
X2471216Y182270D01*
X2458212Y195935D01*
X2443937Y208178D01*
X2428494Y218948D01*
X2412034Y228092D01*
X2394712Y235508D01*
X2376728Y241147D01*
X2358288Y244957D01*
X2339543Y246837D01*
X2320747Y246837D01*
X2302002Y244957D01*
X2283561Y241147D01*
X2265578Y235508D01*
X2248255Y228092D01*
X2231796Y218948D01*
X2216353Y208178D01*
X2202078Y195935D01*
X2189073Y182270D01*
X2177592Y167386D01*
X2167585Y151384D01*
X2159304Y134518D01*
X2152751Y116839D01*
X2148078Y98602D01*
X2145182Y80010D01*
X2144268Y61163D01*
X2145182Y42367D01*
X2148078Y23774D01*
X2152751Y5537D01*
X2159304Y-12141D01*
X2167585Y-29006D01*
X2177592Y-45008D01*
X2189073Y-59893D01*
X2202078Y-73558D01*
X2216353Y-85801D01*
X2231796Y-96570D01*
X2248255Y-105714D01*
X2265578Y-113131D01*
X2283561Y-118770D01*
X2302002Y-122580D01*
G37*
G36*
X796137Y-88595D02*
G01*
X805738Y-87376D01*
X814933Y-84531D01*
X823569Y-80213D01*
X831291Y-74472D01*
X837996Y-67513D01*
X843381Y-59486D01*
X847344Y-50698D01*
X849782Y-41351D01*
X850595Y-31750D01*
X849782Y-22148D01*
X847344Y-12801D01*
X843381Y-4013D01*
X837996Y3962D01*
X831291Y10922D01*
X823569Y16662D01*
X814933Y21031D01*
X805738Y23825D01*
X796137Y25044D01*
X786536Y24638D01*
X777087Y22606D01*
X768146Y18999D01*
X759917Y13970D01*
X752703Y7569D01*
X746607Y101D01*
X741934Y-8331D01*
X738682Y-17424D01*
X737057Y-26924D01*
X737057Y-36576D01*
X738682Y-46075D01*
X741934Y-55168D01*
X746607Y-63601D01*
X752703Y-71120D01*
X759917Y-77470D01*
X768146Y-82550D01*
X777087Y-86156D01*
X786536Y-88188D01*
G37*
G36*
X-526948Y-43078D02*
G01*
X-517245Y-42214D01*
X-507847Y-39674D01*
X-499008Y-35560D01*
X-491032Y-29971D01*
X-484174Y-23114D01*
X-478586Y-15138D01*
X-474472Y-6299D01*
X-471932Y3098D01*
X-471068Y12801D01*
X-471932Y22504D01*
X-474472Y31902D01*
X-478586Y40741D01*
X-484174Y48717D01*
X-491032Y55575D01*
X-499008Y61163D01*
X-507847Y65278D01*
X-517245Y67818D01*
X-526948Y68681D01*
X-536651Y67818D01*
X-546049Y65278D01*
X-554888Y61163D01*
X-562864Y55575D01*
X-569722Y48717D01*
X-575310Y40741D01*
X-579424Y31902D01*
X-581964Y22504D01*
X-582828Y12801D01*
X-581964Y3098D01*
X-579424Y-6299D01*
X-575310Y-15138D01*
X-569722Y-23114D01*
X-562864Y-29971D01*
X-554888Y-35560D01*
X-546049Y-39674D01*
X-536651Y-42214D01*
G37*
G36*
X1965045Y-25552D02*
G01*
X1978710Y-24638D01*
X1992122Y-21945D01*
X2005075Y-17576D01*
X2017369Y-11531D01*
X2028748Y-3911D01*
X2039010Y5130D01*
X2048052Y15392D01*
X2055672Y26771D01*
X2061718Y39065D01*
X2066086Y52019D01*
X2068779Y65430D01*
X2069693Y79095D01*
X2068779Y92760D01*
X2066086Y106172D01*
X2061718Y119126D01*
X2055672Y131419D01*
X2048052Y142798D01*
X2039010Y153060D01*
X2028748Y162102D01*
X2017369Y169722D01*
X2005075Y175768D01*
X1992122Y180136D01*
X1978710Y182829D01*
X1965045Y183743D01*
X1951380Y182829D01*
X1937969Y180136D01*
X1925015Y175768D01*
X1912721Y169722D01*
X1901342Y162102D01*
X1891080Y153060D01*
X1882038Y142798D01*
X1874418Y131419D01*
X1868373Y119126D01*
X1864004Y106172D01*
X1861312Y92760D01*
X1860397Y79095D01*
X1861312Y65430D01*
X1864004Y52019D01*
X1868373Y39065D01*
X1874418Y26771D01*
X1882038Y15392D01*
X1891080Y5130D01*
X1901342Y-3911D01*
X1912721Y-11531D01*
X1925015Y-17576D01*
X1937969Y-21945D01*
X1951380Y-24638D01*
G37*
G36*
X-508000Y115570D02*
G01*
X-498297Y116433D01*
X-488899Y118922D01*
X-480059Y123037D01*
X-472084Y128625D01*
X-465226Y135534D01*
X-459638Y143510D01*
X-455523Y152349D01*
X-452983Y161747D01*
X-452120Y171450D01*
X-452983Y181152D01*
X-455523Y190550D01*
X-459638Y199390D01*
X-465226Y207365D01*
X-472084Y214223D01*
X-480059Y219811D01*
X-488899Y223926D01*
X-498297Y226466D01*
X-508000Y227329D01*
X-517702Y226466D01*
X-527100Y223926D01*
X-535940Y219811D01*
X-543915Y214223D01*
X-550824Y207365D01*
X-556412Y199390D01*
X-560527Y190550D01*
X-563016Y181152D01*
X-563880Y171450D01*
X-563016Y161747D01*
X-560527Y152349D01*
X-556412Y143510D01*
X-550824Y135534D01*
X-543915Y128625D01*
X-535940Y123037D01*
X-527100Y118922D01*
X-517702Y116433D01*
G37*
G36*
X1475587Y235254D02*
G01*
X1485188Y236474D01*
X1494383Y239318D01*
X1503019Y243636D01*
X1510741Y249377D01*
X1517446Y256336D01*
X1522831Y264363D01*
X1526794Y273151D01*
X1529232Y282498D01*
X1530045Y292100D01*
X1529232Y301701D01*
X1526794Y311048D01*
X1522831Y319836D01*
X1517446Y327812D01*
X1510741Y334772D01*
X1503019Y340512D01*
X1494383Y344881D01*
X1485188Y347675D01*
X1475587Y348894D01*
X1465986Y348488D01*
X1456537Y346456D01*
X1447596Y342849D01*
X1439367Y337820D01*
X1432153Y331419D01*
X1426057Y323951D01*
X1421384Y315518D01*
X1418132Y306425D01*
X1416507Y296926D01*
X1416507Y287274D01*
X1418132Y277774D01*
X1421384Y268681D01*
X1426057Y260248D01*
X1432153Y252729D01*
X1439367Y246379D01*
X1447596Y241300D01*
X1456537Y237693D01*
X1465986Y235661D01*
G37*
G36*
X1291437Y355904D02*
G01*
X1301038Y357124D01*
X1310233Y359968D01*
X1318869Y364286D01*
X1326591Y370027D01*
X1333296Y376986D01*
X1338681Y385013D01*
X1342644Y393801D01*
X1345082Y403148D01*
X1345895Y412750D01*
X1345082Y422351D01*
X1342644Y431698D01*
X1338681Y440486D01*
X1333296Y448462D01*
X1326591Y455422D01*
X1318869Y461162D01*
X1310233Y465531D01*
X1301038Y468325D01*
X1291437Y469544D01*
X1281836Y469138D01*
X1272387Y467106D01*
X1263446Y463499D01*
X1255217Y458470D01*
X1248003Y452069D01*
X1241907Y444601D01*
X1237234Y436168D01*
X1233982Y427075D01*
X1232357Y417576D01*
X1232357Y407924D01*
X1233982Y398424D01*
X1237234Y389331D01*
X1241907Y380898D01*
X1248003Y373380D01*
X1255217Y367030D01*
X1263446Y361950D01*
X1272387Y358343D01*
X1281836Y356311D01*
G37*
G36*
X495300Y419912D02*
G01*
X505104Y420776D01*
X514553Y423316D01*
X523493Y427431D01*
X531520Y433070D01*
X538480Y440029D01*
X544118Y448056D01*
X548233Y456996D01*
X550773Y466445D01*
X551637Y476250D01*
X550773Y486054D01*
X548233Y495503D01*
X544118Y504443D01*
X538480Y512470D01*
X531520Y519430D01*
X523493Y525068D01*
X514553Y529183D01*
X505104Y531723D01*
X495300Y532587D01*
X485495Y531723D01*
X476046Y529183D01*
X467106Y525068D01*
X459079Y519430D01*
X452120Y512470D01*
X446481Y504443D01*
X442366Y495503D01*
X439826Y486054D01*
X438962Y476250D01*
X439826Y466445D01*
X442366Y456996D01*
X446481Y448056D01*
X452120Y440029D01*
X459079Y433070D01*
X467106Y427431D01*
X476046Y423316D01*
X485495Y420776D01*
G37*
G36*
X802538Y438454D02*
G01*
X812088Y439724D01*
X821283Y442518D01*
X829919Y446887D01*
X837692Y452628D01*
X844346Y459587D01*
X849731Y467563D01*
X853744Y476351D01*
X856132Y485698D01*
X856996Y495300D01*
X856132Y504901D01*
X853744Y514248D01*
X849731Y523036D01*
X844346Y531012D01*
X837692Y537972D01*
X829919Y543712D01*
X821283Y548081D01*
X812088Y550875D01*
X802538Y552145D01*
X792886Y551688D01*
X783437Y549656D01*
X774496Y546100D01*
X766267Y541020D01*
X759053Y534670D01*
X752957Y527151D01*
X748284Y518718D01*
X745083Y509625D01*
X743458Y500126D01*
X743458Y490474D01*
X745083Y480974D01*
X748284Y471881D01*
X752957Y463448D01*
X759053Y455930D01*
X766267Y449580D01*
X774496Y444500D01*
X783437Y440943D01*
X792886Y438912D01*
G37*
G36*
X1965045Y482447D02*
G01*
X1978710Y483362D01*
X1992122Y486054D01*
X2005075Y490423D01*
X2017369Y496468D01*
X2028748Y504088D01*
X2039010Y513130D01*
X2048052Y523392D01*
X2055672Y534771D01*
X2061718Y547065D01*
X2066086Y560019D01*
X2068779Y573430D01*
X2069693Y587095D01*
X2068779Y600760D01*
X2066086Y614172D01*
X2061718Y627126D01*
X2055672Y639419D01*
X2048052Y650798D01*
X2039010Y661060D01*
X2028748Y670102D01*
X2017369Y677722D01*
X2005075Y683768D01*
X1992122Y688136D01*
X1978710Y690829D01*
X1965045Y691743D01*
X1951380Y690829D01*
X1937969Y688136D01*
X1925015Y683768D01*
X1912721Y677722D01*
X1901342Y670102D01*
X1891080Y661060D01*
X1882038Y650798D01*
X1874418Y639419D01*
X1868373Y627126D01*
X1864004Y614172D01*
X1861312Y600760D01*
X1860397Y587095D01*
X1861312Y573430D01*
X1864004Y560019D01*
X1868373Y547065D01*
X1874418Y534771D01*
X1882038Y523392D01*
X1891080Y513130D01*
X1901342Y504088D01*
X1912721Y496468D01*
X1925015Y490423D01*
X1937969Y486054D01*
X1951380Y483362D01*
G37*
G36*
X1672437Y489254D02*
G01*
X1682038Y490474D01*
X1691233Y493318D01*
X1699869Y497636D01*
X1707591Y503377D01*
X1714296Y510336D01*
X1719681Y518363D01*
X1723643Y527151D01*
X1726082Y536498D01*
X1726895Y546100D01*
X1726082Y555701D01*
X1723643Y565048D01*
X1719681Y573836D01*
X1714296Y581812D01*
X1707591Y588772D01*
X1699869Y594512D01*
X1691233Y598881D01*
X1682038Y601675D01*
X1672437Y602894D01*
X1662836Y602488D01*
X1653387Y600456D01*
X1644446Y596849D01*
X1636217Y591820D01*
X1629003Y585419D01*
X1622907Y577951D01*
X1618234Y569518D01*
X1614982Y560425D01*
X1613357Y550926D01*
X1613357Y541274D01*
X1614982Y531774D01*
X1618234Y522681D01*
X1622907Y514248D01*
X1629003Y506730D01*
X1636217Y500380D01*
X1644446Y495300D01*
X1653387Y491693D01*
X1662836Y489661D01*
G37*
G36*
X1965045Y736447D02*
G01*
X1978710Y737362D01*
X1992122Y740054D01*
X2005075Y744423D01*
X2017369Y750468D01*
X2028748Y758088D01*
X2039010Y767130D01*
X2048052Y777392D01*
X2055672Y788771D01*
X2061718Y801065D01*
X2066086Y814019D01*
X2068779Y827430D01*
X2069693Y841095D01*
X2068779Y854760D01*
X2066086Y868171D01*
X2061718Y881126D01*
X2055672Y893419D01*
X2048052Y904798D01*
X2039010Y915060D01*
X2028748Y924102D01*
X2017369Y931722D01*
X2005075Y937768D01*
X1992122Y942136D01*
X1978710Y944829D01*
X1965045Y945743D01*
X1951380Y944829D01*
X1937969Y942136D01*
X1925015Y937768D01*
X1912721Y931722D01*
X1901342Y924102D01*
X1891080Y915060D01*
X1882038Y904798D01*
X1874418Y893419D01*
X1868373Y881126D01*
X1864004Y868171D01*
X1861312Y854760D01*
X1860397Y841095D01*
X1861312Y827430D01*
X1864004Y814019D01*
X1868373Y801065D01*
X1874418Y788771D01*
X1882038Y777392D01*
X1891080Y767130D01*
X1901342Y758088D01*
X1912721Y750468D01*
X1925015Y744423D01*
X1937969Y740054D01*
X1951380Y737362D01*
G37*
G36*
X-2182012Y736904D02*
G01*
X-2172411Y738124D01*
X-2163216Y740968D01*
X-2154580Y745286D01*
X-2146858Y751027D01*
X-2140153Y757986D01*
X-2134768Y766013D01*
X-2130806Y774801D01*
X-2128367Y784148D01*
X-2127554Y793750D01*
X-2128367Y803351D01*
X-2130806Y812698D01*
X-2134768Y821486D01*
X-2140153Y829462D01*
X-2146858Y836421D01*
X-2154580Y842162D01*
X-2163216Y846531D01*
X-2172411Y849325D01*
X-2182012Y850544D01*
X-2191613Y850137D01*
X-2201062Y848106D01*
X-2210003Y844499D01*
X-2218232Y839469D01*
X-2225446Y833069D01*
X-2231542Y825601D01*
X-2236216Y817168D01*
X-2239467Y808075D01*
X-2241092Y798576D01*
X-2241092Y788924D01*
X-2239467Y779424D01*
X-2236216Y770331D01*
X-2231542Y761898D01*
X-2225446Y754380D01*
X-2218232Y748030D01*
X-2210003Y742950D01*
X-2201062Y739343D01*
X-2191613Y737311D01*
G37*
G36*
X-124561Y844854D02*
G01*
X-115011Y846124D01*
X-105816Y848918D01*
X-97180Y853287D01*
X-89408Y859028D01*
X-82753Y865987D01*
X-77368Y873963D01*
X-73355Y882751D01*
X-70967Y892098D01*
X-70104Y901700D01*
X-70967Y911301D01*
X-73355Y920648D01*
X-77368Y929436D01*
X-82753Y937412D01*
X-89408Y944371D01*
X-97180Y950112D01*
X-105816Y954481D01*
X-115011Y957275D01*
X-124561Y958545D01*
X-134213Y958087D01*
X-143662Y956056D01*
X-152603Y952500D01*
X-160832Y947419D01*
X-168046Y941069D01*
X-174142Y933551D01*
X-178816Y925118D01*
X-182016Y916025D01*
X-183642Y906526D01*
X-183642Y896874D01*
X-182016Y887374D01*
X-178816Y878281D01*
X-174142Y869848D01*
X-168046Y862330D01*
X-160832Y855980D01*
X-152603Y850900D01*
X-143662Y847344D01*
X-134213Y845312D01*
G37*
G36*
X1577187Y921054D02*
G01*
X1586788Y922274D01*
X1595983Y925118D01*
X1604619Y929436D01*
X1612341Y935177D01*
X1619046Y942136D01*
X1624431Y950163D01*
X1628394Y958951D01*
X1630832Y968298D01*
X1631645Y977900D01*
X1630832Y987501D01*
X1628394Y996848D01*
X1624431Y1005636D01*
X1619046Y1013612D01*
X1612341Y1020571D01*
X1604619Y1026312D01*
X1595983Y1030681D01*
X1586788Y1033475D01*
X1577187Y1034694D01*
X1567586Y1034287D01*
X1558137Y1032256D01*
X1549196Y1028649D01*
X1540967Y1023619D01*
X1533753Y1017219D01*
X1527657Y1009751D01*
X1522984Y1001318D01*
X1519732Y992225D01*
X1518107Y982726D01*
X1518107Y973074D01*
X1519732Y963574D01*
X1522984Y954481D01*
X1527657Y946048D01*
X1533753Y938530D01*
X1540967Y932180D01*
X1549196Y927100D01*
X1558137Y923493D01*
X1567586Y921461D01*
G37*
G36*
X897737Y952804D02*
G01*
X907338Y954024D01*
X916533Y956868D01*
X925169Y961186D01*
X932891Y966927D01*
X939596Y973886D01*
X944981Y981913D01*
X948944Y990701D01*
X951382Y1000048D01*
X952195Y1009650D01*
X951382Y1019251D01*
X948944Y1028598D01*
X944981Y1037386D01*
X939596Y1045362D01*
X932891Y1052322D01*
X925169Y1058062D01*
X916533Y1062431D01*
X907338Y1065225D01*
X897737Y1066444D01*
X888136Y1066038D01*
X878687Y1064006D01*
X869746Y1060399D01*
X861517Y1055370D01*
X854303Y1048969D01*
X848207Y1041501D01*
X843534Y1033068D01*
X840282Y1023975D01*
X838657Y1014476D01*
X838657Y1004824D01*
X840282Y995324D01*
X843534Y986231D01*
X848207Y977798D01*
X854303Y970280D01*
X861517Y963930D01*
X869746Y958850D01*
X878687Y955243D01*
X888136Y953211D01*
G37*
G36*
X-943711Y984554D02*
G01*
X-934161Y985824D01*
X-924966Y988618D01*
X-916330Y992987D01*
X-908558Y998728D01*
X-901903Y1005687D01*
X-896518Y1013663D01*
X-892505Y1022451D01*
X-890117Y1031798D01*
X-889253Y1041400D01*
X-890117Y1051001D01*
X-892505Y1060348D01*
X-896518Y1069136D01*
X-901903Y1077112D01*
X-908558Y1084072D01*
X-916330Y1089812D01*
X-924966Y1094181D01*
X-934161Y1096975D01*
X-943711Y1098245D01*
X-953363Y1097788D01*
X-962812Y1095756D01*
X-971753Y1092200D01*
X-979982Y1087120D01*
X-987196Y1080770D01*
X-993292Y1073251D01*
X-997966Y1064818D01*
X-1001166Y1055725D01*
X-1002792Y1046226D01*
X-1002792Y1036574D01*
X-1001166Y1027074D01*
X-997966Y1017981D01*
X-993292Y1009548D01*
X-987196Y1002030D01*
X-979982Y995680D01*
X-971753Y990600D01*
X-962812Y987044D01*
X-953363Y985012D01*
G37*
G36*
X1886864Y990447D02*
G01*
X2043226Y990447D01*
X2049525Y991158D01*
X2055012Y993089D01*
X2059889Y996137D01*
X2064004Y1000252D01*
X2067052Y1005128D01*
X2068982Y1010615D01*
X2069693Y1016914D01*
X2069693Y1173276D01*
X2068982Y1179576D01*
X2067052Y1185062D01*
X2064004Y1189939D01*
X2059889Y1194054D01*
X2055012Y1197102D01*
X2049525Y1199032D01*
X2043226Y1199743D01*
X1886864Y1199743D01*
X1880565Y1199032D01*
X1875078Y1197102D01*
X1870202Y1194054D01*
X1866087Y1189939D01*
X1863039Y1185062D01*
X1861108Y1179576D01*
X1860397Y1173276D01*
X1860397Y1016914D01*
X1861108Y1010615D01*
X1863039Y1005128D01*
X1866087Y1000252D01*
X1870202Y996137D01*
X1875078Y993089D01*
X1880565Y991158D01*
G37*
G36*
X1170940Y1175156D02*
G01*
X1180490Y1176426D01*
X1189685Y1179220D01*
X1198321Y1183589D01*
X1206093Y1189329D01*
X1212748Y1196289D01*
X1218133Y1204264D01*
X1222146Y1213053D01*
X1224534Y1222400D01*
X1225397Y1232001D01*
X1224534Y1241602D01*
X1222146Y1250950D01*
X1218133Y1259738D01*
X1212748Y1267714D01*
X1206093Y1274673D01*
X1198321Y1280414D01*
X1189685Y1284782D01*
X1180490Y1287576D01*
X1170940Y1288846D01*
X1161288Y1288389D01*
X1151839Y1286357D01*
X1142898Y1282801D01*
X1134668Y1277721D01*
X1127455Y1271371D01*
X1121359Y1263853D01*
X1116685Y1255420D01*
X1113485Y1246327D01*
X1111859Y1236827D01*
X1111859Y1227175D01*
X1113485Y1217676D01*
X1116685Y1208582D01*
X1121359Y1200150D01*
X1127455Y1192631D01*
X1134668Y1186281D01*
X1142898Y1181201D01*
X1151839Y1177645D01*
X1161288Y1175613D01*
G37*
G36*
X-1083462Y1295704D02*
G01*
X-1073861Y1296924D01*
X-1064666Y1299768D01*
X-1056030Y1304086D01*
X-1048308Y1309827D01*
X-1041603Y1316786D01*
X-1036218Y1324813D01*
X-1032256Y1333601D01*
X-1029817Y1342948D01*
X-1029004Y1352550D01*
X-1029817Y1362151D01*
X-1032256Y1371498D01*
X-1036218Y1380286D01*
X-1041603Y1388262D01*
X-1048308Y1395222D01*
X-1056030Y1400962D01*
X-1064666Y1405331D01*
X-1073861Y1408125D01*
X-1083462Y1409344D01*
X-1093063Y1408938D01*
X-1102512Y1406906D01*
X-1111453Y1403299D01*
X-1119682Y1398270D01*
X-1126896Y1391869D01*
X-1132992Y1384401D01*
X-1137666Y1375968D01*
X-1140917Y1366875D01*
X-1142542Y1357376D01*
X-1142542Y1347724D01*
X-1140917Y1338224D01*
X-1137666Y1329131D01*
X-1132992Y1320698D01*
X-1126896Y1313180D01*
X-1119682Y1306830D01*
X-1111453Y1301750D01*
X-1102512Y1298143D01*
X-1093063Y1296111D01*
G37*
G36*
X1316837Y1321104D02*
G01*
X1326438Y1322324D01*
X1335633Y1325168D01*
X1344269Y1329486D01*
X1351991Y1335227D01*
X1358696Y1342186D01*
X1364081Y1350213D01*
X1368044Y1359001D01*
X1370482Y1368348D01*
X1371295Y1377950D01*
X1370482Y1387551D01*
X1368044Y1396898D01*
X1364081Y1405686D01*
X1358696Y1413662D01*
X1351991Y1420622D01*
X1344269Y1426362D01*
X1335633Y1430731D01*
X1326438Y1433525D01*
X1316837Y1434744D01*
X1307236Y1434338D01*
X1297787Y1432306D01*
X1288846Y1428699D01*
X1280617Y1423670D01*
X1273403Y1417269D01*
X1267307Y1409801D01*
X1262634Y1401368D01*
X1259382Y1392275D01*
X1257757Y1382776D01*
X1257757Y1373124D01*
X1259382Y1363624D01*
X1262634Y1354531D01*
X1267307Y1346098D01*
X1273403Y1338580D01*
X1280617Y1332230D01*
X1288846Y1327150D01*
X1297787Y1323543D01*
X1307236Y1321511D01*
G37*
G36*
X-1381861Y1352854D02*
G01*
X-1372311Y1354124D01*
X-1363116Y1356918D01*
X-1354480Y1361287D01*
X-1346708Y1367028D01*
X-1340053Y1373987D01*
X-1334668Y1381963D01*
X-1330655Y1390751D01*
X-1328267Y1400098D01*
X-1327404Y1409700D01*
X-1328267Y1419301D01*
X-1330655Y1428648D01*
X-1334668Y1437436D01*
X-1340053Y1445412D01*
X-1346708Y1452372D01*
X-1354480Y1458112D01*
X-1363116Y1462481D01*
X-1372311Y1465275D01*
X-1381861Y1466545D01*
X-1391513Y1466088D01*
X-1400962Y1464056D01*
X-1409903Y1460500D01*
X-1418132Y1455420D01*
X-1425346Y1449070D01*
X-1431442Y1441551D01*
X-1436116Y1433118D01*
X-1439316Y1424025D01*
X-1440942Y1414526D01*
X-1440942Y1404874D01*
X-1439316Y1395374D01*
X-1436116Y1386281D01*
X-1431442Y1377848D01*
X-1425346Y1370330D01*
X-1418132Y1363980D01*
X-1409903Y1358900D01*
X-1400962Y1355344D01*
X-1391513Y1353312D01*
G37*
G36*
X897737Y1416354D02*
G01*
X907338Y1417574D01*
X916533Y1420418D01*
X925169Y1424736D01*
X932891Y1430477D01*
X939596Y1437436D01*
X944981Y1445463D01*
X948944Y1454251D01*
X951382Y1463598D01*
X952195Y1473200D01*
X951382Y1482801D01*
X948944Y1492148D01*
X945489Y1499768D01*
X944626Y1503883D01*
X945438Y1507998D01*
X947877Y1511401D01*
X951484Y1513586D01*
X955649Y1514094D01*
X959662Y1512874D01*
X963168Y1510944D01*
X976731Y1505559D01*
X990803Y1501952D01*
X1005281Y1500124D01*
X1019810Y1500124D01*
X1034237Y1501952D01*
X1048359Y1505559D01*
X1061872Y1510944D01*
X1074623Y1517954D01*
X1086408Y1526489D01*
X1097026Y1536446D01*
X1106271Y1547672D01*
X1114094Y1559966D01*
X1120292Y1573123D01*
X1124762Y1586941D01*
X1127506Y1601266D01*
X1128420Y1615795D01*
X1127506Y1630324D01*
X1124762Y1644599D01*
X1120292Y1658467D01*
X1114094Y1671624D01*
X1106271Y1683918D01*
X1097026Y1695094D01*
X1086408Y1705102D01*
X1074623Y1713636D01*
X1061872Y1720646D01*
X1048359Y1725980D01*
X1034237Y1729638D01*
X1019810Y1731467D01*
X1005281Y1731467D01*
X990803Y1729638D01*
X976731Y1725980D01*
X963168Y1720646D01*
X950417Y1713636D01*
X938682Y1705102D01*
X928065Y1695094D01*
X918768Y1683918D01*
X910996Y1671624D01*
X904798Y1658467D01*
X900277Y1644599D01*
X897534Y1630324D01*
X896619Y1615795D01*
X897534Y1601266D01*
X900277Y1586941D01*
X904798Y1573123D01*
X910996Y1559966D01*
X918768Y1547672D01*
X921969Y1543812D01*
X923950Y1539951D01*
X924204Y1535684D01*
X922629Y1531670D01*
X919530Y1528673D01*
X915466Y1527251D01*
X911199Y1527606D01*
X907338Y1528775D01*
X897737Y1529994D01*
X888136Y1529588D01*
X878687Y1527556D01*
X869746Y1523949D01*
X861517Y1518920D01*
X854303Y1512519D01*
X848207Y1505051D01*
X843534Y1496618D01*
X840282Y1487525D01*
X838657Y1478026D01*
X838657Y1468374D01*
X840282Y1458874D01*
X843534Y1449781D01*
X848207Y1441348D01*
X854303Y1433830D01*
X861517Y1427480D01*
X869746Y1422400D01*
X878687Y1418793D01*
X888136Y1416761D01*
G37*
G36*
X161086Y1499870D02*
G01*
X339953Y1499870D01*
X346303Y1500581D01*
X351739Y1502511D01*
X356666Y1505559D01*
X360730Y1509674D01*
X363829Y1514551D01*
X365709Y1520037D01*
X366420Y1526336D01*
X366420Y1705203D01*
X365709Y1711553D01*
X363829Y1716989D01*
X360730Y1721916D01*
X356666Y1725980D01*
X351739Y1729079D01*
X346303Y1730959D01*
X339953Y1731670D01*
X161086Y1731670D01*
X154787Y1730959D01*
X149301Y1729079D01*
X144424Y1725980D01*
X140309Y1721916D01*
X137261Y1716989D01*
X135331Y1711553D01*
X134620Y1705203D01*
X134620Y1526336D01*
X135331Y1520037D01*
X137261Y1514551D01*
X140309Y1509674D01*
X144424Y1505559D01*
X149301Y1502511D01*
X154787Y1500581D01*
G37*
G36*
X-2505913Y1499870D02*
G01*
X-2327046Y1499870D01*
X-2320696Y1500581D01*
X-2315260Y1502511D01*
X-2310333Y1505559D01*
X-2306269Y1509674D01*
X-2303170Y1514551D01*
X-2301290Y1520037D01*
X-2300579Y1526336D01*
X-2300579Y1705203D01*
X-2301290Y1711553D01*
X-2303170Y1716989D01*
X-2306269Y1721916D01*
X-2310333Y1725980D01*
X-2315260Y1729079D01*
X-2320696Y1730959D01*
X-2327046Y1731670D01*
X-2505913Y1731670D01*
X-2512212Y1730959D01*
X-2517698Y1729079D01*
X-2522575Y1725980D01*
X-2526690Y1721916D01*
X-2529738Y1716989D01*
X-2531668Y1711553D01*
X-2532380Y1705203D01*
X-2532380Y1526336D01*
X-2531668Y1520037D01*
X-2529738Y1514551D01*
X-2526690Y1509674D01*
X-2522575Y1505559D01*
X-2517698Y1502511D01*
X-2512212Y1500581D01*
G37*
G36*
X497281Y1500124D02*
G01*
X511809Y1500124D01*
X526237Y1501952D01*
X540359Y1505559D01*
X553872Y1510944D01*
X566623Y1517954D01*
X578408Y1526489D01*
X589026Y1536446D01*
X598271Y1547672D01*
X606094Y1559966D01*
X612292Y1573123D01*
X616762Y1586941D01*
X619506Y1601266D01*
X620420Y1615795D01*
X619506Y1630324D01*
X616762Y1644599D01*
X612292Y1658467D01*
X606094Y1671624D01*
X598271Y1683918D01*
X589026Y1695094D01*
X578408Y1705102D01*
X566623Y1713636D01*
X553872Y1720646D01*
X540359Y1725980D01*
X526237Y1729638D01*
X511809Y1731467D01*
X497281Y1731467D01*
X482803Y1729638D01*
X468731Y1725980D01*
X455168Y1720646D01*
X442417Y1713636D01*
X430682Y1705102D01*
X420065Y1695094D01*
X410768Y1683918D01*
X402996Y1671624D01*
X396798Y1658467D01*
X392277Y1644599D01*
X389534Y1630324D01*
X388620Y1615795D01*
X389534Y1601266D01*
X392277Y1586941D01*
X396798Y1573123D01*
X402996Y1559966D01*
X410768Y1547672D01*
X420065Y1536446D01*
X430682Y1526489D01*
X442417Y1517954D01*
X455168Y1510944D01*
X468731Y1505559D01*
X482803Y1501952D01*
G37*
G36*
X-137718Y1500124D02*
G01*
X-123189Y1500124D01*
X-108762Y1501952D01*
X-94640Y1505559D01*
X-81127Y1510944D01*
X-68376Y1517954D01*
X-56591Y1526489D01*
X-45974Y1536446D01*
X-36728Y1547672D01*
X-28905Y1559966D01*
X-22707Y1573123D01*
X-18237Y1586941D01*
X-15494Y1601266D01*
X-14579Y1615795D01*
X-15494Y1630324D01*
X-18237Y1644599D01*
X-22707Y1658467D01*
X-28905Y1671624D01*
X-36728Y1683918D01*
X-45974Y1695094D01*
X-56591Y1705102D01*
X-68376Y1713636D01*
X-81127Y1720646D01*
X-94640Y1725980D01*
X-108762Y1729638D01*
X-123189Y1731467D01*
X-137718Y1731467D01*
X-152196Y1729638D01*
X-166268Y1725980D01*
X-179832Y1720646D01*
X-192582Y1713636D01*
X-204317Y1705102D01*
X-214934Y1695094D01*
X-224231Y1683918D01*
X-232003Y1671624D01*
X-238201Y1658467D01*
X-242722Y1644599D01*
X-245465Y1630324D01*
X-246379Y1615795D01*
X-245465Y1601266D01*
X-242722Y1586941D01*
X-238201Y1573123D01*
X-232003Y1559966D01*
X-224231Y1547672D01*
X-214934Y1536446D01*
X-204317Y1526489D01*
X-192582Y1517954D01*
X-179832Y1510944D01*
X-166268Y1505559D01*
X-152196Y1501952D01*
G37*
G36*
X1767281Y1500124D02*
G01*
X1781810Y1500124D01*
X1796237Y1501952D01*
X1810359Y1505559D01*
X1823872Y1510944D01*
X1836623Y1517954D01*
X1848408Y1526489D01*
X1859025Y1536446D01*
X1868271Y1547672D01*
X1876094Y1559966D01*
X1882292Y1573123D01*
X1886762Y1586941D01*
X1889506Y1601266D01*
X1890420Y1615795D01*
X1889506Y1630324D01*
X1886762Y1644599D01*
X1882292Y1658467D01*
X1876094Y1671624D01*
X1868271Y1683918D01*
X1859025Y1695094D01*
X1848408Y1705102D01*
X1836623Y1713636D01*
X1823872Y1720646D01*
X1810359Y1725980D01*
X1796237Y1729638D01*
X1781810Y1731467D01*
X1767281Y1731467D01*
X1752803Y1729638D01*
X1738731Y1725980D01*
X1725168Y1720646D01*
X1712417Y1713636D01*
X1700682Y1705102D01*
X1690065Y1695094D01*
X1680768Y1683918D01*
X1672996Y1671624D01*
X1666798Y1658467D01*
X1662277Y1644599D01*
X1659534Y1630324D01*
X1658620Y1615795D01*
X1659534Y1601266D01*
X1662277Y1586941D01*
X1666798Y1573123D01*
X1672996Y1559966D01*
X1680768Y1547672D01*
X1690065Y1536446D01*
X1700682Y1526489D01*
X1712417Y1517954D01*
X1725168Y1510944D01*
X1738731Y1505559D01*
X1752803Y1501952D01*
G37*
G36*
X-2169718Y1500124D02*
G01*
X-2155190Y1500124D01*
X-2140762Y1501952D01*
X-2126640Y1505559D01*
X-2113127Y1510944D01*
X-2100376Y1517954D01*
X-2088591Y1526489D01*
X-2077974Y1536446D01*
X-2068728Y1547672D01*
X-2060905Y1559966D01*
X-2054707Y1573123D01*
X-2050237Y1586941D01*
X-2047493Y1601266D01*
X-2046579Y1615795D01*
X-2047493Y1630324D01*
X-2050237Y1644599D01*
X-2054707Y1658467D01*
X-2060905Y1671624D01*
X-2068728Y1683918D01*
X-2077974Y1695094D01*
X-2088591Y1705102D01*
X-2100376Y1713636D01*
X-2113127Y1720646D01*
X-2126640Y1725980D01*
X-2140762Y1729638D01*
X-2155190Y1731467D01*
X-2169718Y1731467D01*
X-2184196Y1729638D01*
X-2198268Y1725980D01*
X-2211832Y1720646D01*
X-2224582Y1713636D01*
X-2236317Y1705102D01*
X-2246934Y1695094D01*
X-2256231Y1683918D01*
X-2264003Y1671624D01*
X-2270201Y1658467D01*
X-2274722Y1644599D01*
X-2277465Y1630324D01*
X-2278380Y1615795D01*
X-2277465Y1601266D01*
X-2274722Y1586941D01*
X-2270201Y1573123D01*
X-2264003Y1559966D01*
X-2256231Y1547672D01*
X-2246934Y1536446D01*
X-2236317Y1526489D01*
X-2224582Y1517954D01*
X-2211832Y1510944D01*
X-2198268Y1505559D01*
X-2184196Y1501952D01*
G37*
G36*
X751281Y1500124D02*
G01*
X765810Y1500124D01*
X780237Y1501952D01*
X794359Y1505559D01*
X807872Y1510944D01*
X820623Y1517954D01*
X832408Y1526489D01*
X843026Y1536446D01*
X852271Y1547672D01*
X860094Y1559966D01*
X866292Y1573123D01*
X870762Y1586941D01*
X873506Y1601266D01*
X874420Y1615795D01*
X873506Y1630324D01*
X870762Y1644599D01*
X866292Y1658467D01*
X860094Y1671624D01*
X852271Y1683918D01*
X843026Y1695094D01*
X832408Y1705102D01*
X820623Y1713636D01*
X807872Y1720646D01*
X794359Y1725980D01*
X780237Y1729638D01*
X765810Y1731467D01*
X751281Y1731467D01*
X736803Y1729638D01*
X722731Y1725980D01*
X709168Y1720646D01*
X696417Y1713636D01*
X684682Y1705102D01*
X674065Y1695094D01*
X664768Y1683918D01*
X656996Y1671624D01*
X650798Y1658467D01*
X646277Y1644599D01*
X643534Y1630324D01*
X642620Y1615795D01*
X643534Y1601266D01*
X646277Y1586941D01*
X650798Y1573123D01*
X656996Y1559966D01*
X664768Y1547672D01*
X674065Y1536446D01*
X684682Y1526489D01*
X696417Y1517954D01*
X709168Y1510944D01*
X722731Y1505559D01*
X736803Y1501952D01*
G37*
G36*
X1259281Y1500124D02*
G01*
X1273810Y1500124D01*
X1288237Y1501952D01*
X1302359Y1505559D01*
X1315872Y1510944D01*
X1328623Y1517954D01*
X1340408Y1526489D01*
X1351026Y1536446D01*
X1360271Y1547672D01*
X1368094Y1559966D01*
X1374292Y1573123D01*
X1378762Y1586941D01*
X1381506Y1601266D01*
X1382420Y1615795D01*
X1381506Y1630324D01*
X1378762Y1644599D01*
X1374292Y1658467D01*
X1368094Y1671624D01*
X1360271Y1683918D01*
X1351026Y1695094D01*
X1340408Y1705102D01*
X1328623Y1713636D01*
X1315872Y1720646D01*
X1302359Y1725980D01*
X1288237Y1729638D01*
X1273810Y1731467D01*
X1259281Y1731467D01*
X1244803Y1729638D01*
X1230731Y1725980D01*
X1217168Y1720646D01*
X1204417Y1713636D01*
X1192682Y1705102D01*
X1182065Y1695094D01*
X1172768Y1683918D01*
X1164996Y1671624D01*
X1158798Y1658467D01*
X1154277Y1644599D01*
X1151534Y1630324D01*
X1150620Y1615795D01*
X1151534Y1601266D01*
X1154277Y1586941D01*
X1158798Y1573123D01*
X1164996Y1559966D01*
X1172768Y1547672D01*
X1182065Y1536446D01*
X1192682Y1526489D01*
X1204417Y1517954D01*
X1217168Y1510944D01*
X1230731Y1505559D01*
X1244803Y1501952D01*
G37*
G36*
X1513281Y1500124D02*
G01*
X1527810Y1500124D01*
X1542237Y1501952D01*
X1556359Y1505559D01*
X1569872Y1510944D01*
X1582623Y1517954D01*
X1594408Y1526489D01*
X1605026Y1536446D01*
X1614271Y1547672D01*
X1622094Y1559966D01*
X1628292Y1573123D01*
X1632762Y1586941D01*
X1635506Y1601266D01*
X1636420Y1615795D01*
X1635506Y1630324D01*
X1632762Y1644599D01*
X1628292Y1658467D01*
X1622094Y1671624D01*
X1614271Y1683918D01*
X1605026Y1695094D01*
X1594408Y1705102D01*
X1582623Y1713636D01*
X1569872Y1720646D01*
X1556359Y1725980D01*
X1542237Y1729638D01*
X1527810Y1731467D01*
X1513281Y1731467D01*
X1498803Y1729638D01*
X1484731Y1725980D01*
X1471168Y1720646D01*
X1458417Y1713636D01*
X1446682Y1705102D01*
X1436065Y1695094D01*
X1426768Y1683918D01*
X1418996Y1671624D01*
X1412798Y1658467D01*
X1408277Y1644599D01*
X1405534Y1630324D01*
X1404620Y1615795D01*
X1405534Y1601266D01*
X1408277Y1586941D01*
X1412798Y1573123D01*
X1418996Y1559966D01*
X1426768Y1547672D01*
X1436065Y1536446D01*
X1446682Y1526489D01*
X1458417Y1517954D01*
X1471168Y1510944D01*
X1484731Y1505559D01*
X1498803Y1501952D01*
G37*
G36*
X-1915718Y1500124D02*
G01*
X-1901189Y1500124D01*
X-1886762Y1501952D01*
X-1872640Y1505559D01*
X-1859127Y1510944D01*
X-1846376Y1517954D01*
X-1834591Y1526489D01*
X-1823974Y1536446D01*
X-1814728Y1547672D01*
X-1806905Y1559966D01*
X-1800707Y1573123D01*
X-1796237Y1586941D01*
X-1793493Y1601266D01*
X-1792579Y1615795D01*
X-1793493Y1630324D01*
X-1796237Y1644599D01*
X-1800707Y1658467D01*
X-1806905Y1671624D01*
X-1814728Y1683918D01*
X-1823974Y1695094D01*
X-1834591Y1705102D01*
X-1846376Y1713636D01*
X-1859127Y1720646D01*
X-1872640Y1725980D01*
X-1886762Y1729638D01*
X-1901189Y1731467D01*
X-1915718Y1731467D01*
X-1930196Y1729638D01*
X-1944268Y1725980D01*
X-1957832Y1720646D01*
X-1970582Y1713636D01*
X-1982317Y1705102D01*
X-1992934Y1695094D01*
X-2002231Y1683918D01*
X-2010003Y1671624D01*
X-2016201Y1658467D01*
X-2020722Y1644599D01*
X-2023465Y1630324D01*
X-2024380Y1615795D01*
X-2023465Y1601266D01*
X-2020722Y1586941D01*
X-2016201Y1573123D01*
X-2010003Y1559966D01*
X-2002231Y1547672D01*
X-1992934Y1536446D01*
X-1982317Y1526489D01*
X-1970582Y1517954D01*
X-1957832Y1510944D01*
X-1944268Y1505559D01*
X-1930196Y1501952D01*
G37*
G36*
X2021281Y1500124D02*
G01*
X2035810Y1500124D01*
X2050237Y1501952D01*
X2064359Y1505559D01*
X2077872Y1510944D01*
X2090623Y1517954D01*
X2102408Y1526489D01*
X2113026Y1536446D01*
X2122271Y1547672D01*
X2130094Y1559966D01*
X2136292Y1573123D01*
X2140762Y1586941D01*
X2143506Y1601266D01*
X2144420Y1615795D01*
X2143506Y1630324D01*
X2140762Y1644599D01*
X2136292Y1658467D01*
X2130094Y1671624D01*
X2122271Y1683918D01*
X2113026Y1695094D01*
X2102408Y1705102D01*
X2090623Y1713636D01*
X2077872Y1720646D01*
X2064359Y1725980D01*
X2050237Y1729638D01*
X2035810Y1731467D01*
X2021281Y1731467D01*
X2006803Y1729638D01*
X1992731Y1725980D01*
X1979168Y1720646D01*
X1966417Y1713636D01*
X1954682Y1705102D01*
X1944065Y1695094D01*
X1934768Y1683918D01*
X1926996Y1671624D01*
X1920798Y1658467D01*
X1916277Y1644599D01*
X1913534Y1630324D01*
X1912620Y1615795D01*
X1913534Y1601266D01*
X1916277Y1586941D01*
X1920798Y1573123D01*
X1926996Y1559966D01*
X1934768Y1547672D01*
X1944065Y1536446D01*
X1954682Y1526489D01*
X1966417Y1517954D01*
X1979168Y1510944D01*
X1992731Y1505559D01*
X2006803Y1501952D01*
G37*
G36*
X-391718Y1500124D02*
G01*
X-377190Y1500124D01*
X-362762Y1501952D01*
X-348640Y1505559D01*
X-335127Y1510944D01*
X-322376Y1517954D01*
X-310591Y1526489D01*
X-299974Y1536446D01*
X-290728Y1547672D01*
X-282905Y1559966D01*
X-276707Y1573123D01*
X-272237Y1586941D01*
X-269494Y1601266D01*
X-268579Y1615795D01*
X-269494Y1630324D01*
X-272237Y1644599D01*
X-276707Y1658467D01*
X-282905Y1671624D01*
X-290728Y1683918D01*
X-299974Y1695094D01*
X-310591Y1705102D01*
X-322376Y1713636D01*
X-335127Y1720646D01*
X-348640Y1725980D01*
X-362762Y1729638D01*
X-377190Y1731467D01*
X-391718Y1731467D01*
X-406196Y1729638D01*
X-420268Y1725980D01*
X-433832Y1720646D01*
X-446582Y1713636D01*
X-458317Y1705102D01*
X-468934Y1695094D01*
X-478231Y1683918D01*
X-486003Y1671624D01*
X-492201Y1658467D01*
X-496722Y1644599D01*
X-499465Y1630324D01*
X-500380Y1615795D01*
X-499465Y1601266D01*
X-496722Y1586941D01*
X-492201Y1573123D01*
X-486003Y1559966D01*
X-478231Y1547672D01*
X-468934Y1536446D01*
X-458317Y1526489D01*
X-446582Y1517954D01*
X-433832Y1510944D01*
X-420268Y1505559D01*
X-406196Y1501952D01*
G37*
G36*
X-1407718Y1500124D02*
G01*
X-1393190Y1500124D01*
X-1378762Y1501952D01*
X-1364640Y1505559D01*
X-1351127Y1510944D01*
X-1338376Y1517954D01*
X-1326591Y1526489D01*
X-1315974Y1536446D01*
X-1306728Y1547672D01*
X-1298905Y1559966D01*
X-1292707Y1573123D01*
X-1288237Y1586941D01*
X-1285494Y1601266D01*
X-1284579Y1615795D01*
X-1285494Y1630324D01*
X-1288237Y1644599D01*
X-1292707Y1658467D01*
X-1298905Y1671624D01*
X-1306728Y1683918D01*
X-1315974Y1695094D01*
X-1326591Y1705102D01*
X-1338376Y1713636D01*
X-1351127Y1720646D01*
X-1364640Y1725980D01*
X-1378762Y1729638D01*
X-1393190Y1731467D01*
X-1407718Y1731467D01*
X-1422196Y1729638D01*
X-1436268Y1725980D01*
X-1449832Y1720646D01*
X-1462582Y1713636D01*
X-1474317Y1705102D01*
X-1484934Y1695094D01*
X-1494231Y1683918D01*
X-1502003Y1671624D01*
X-1508201Y1658467D01*
X-1512722Y1644599D01*
X-1515465Y1630324D01*
X-1516380Y1615795D01*
X-1515465Y1601266D01*
X-1512722Y1586941D01*
X-1508201Y1573123D01*
X-1502003Y1559966D01*
X-1494231Y1547672D01*
X-1484934Y1536446D01*
X-1474317Y1526489D01*
X-1462582Y1517954D01*
X-1449832Y1510944D01*
X-1436268Y1505559D01*
X-1422196Y1501952D01*
G37*
G36*
X-645718Y1500124D02*
G01*
X-631190Y1500124D01*
X-616762Y1501952D01*
X-602640Y1505559D01*
X-589127Y1510944D01*
X-576376Y1517954D01*
X-564591Y1526489D01*
X-553974Y1536446D01*
X-544728Y1547672D01*
X-536905Y1559966D01*
X-530707Y1573123D01*
X-526237Y1586941D01*
X-523493Y1601266D01*
X-522579Y1615795D01*
X-523493Y1630324D01*
X-526237Y1644599D01*
X-530707Y1658467D01*
X-536905Y1671624D01*
X-544728Y1683918D01*
X-553974Y1695094D01*
X-564591Y1705102D01*
X-576376Y1713636D01*
X-589127Y1720646D01*
X-602640Y1725980D01*
X-616762Y1729638D01*
X-631190Y1731467D01*
X-645718Y1731467D01*
X-660196Y1729638D01*
X-674268Y1725980D01*
X-687832Y1720646D01*
X-700582Y1713636D01*
X-712317Y1705102D01*
X-722934Y1695094D01*
X-732231Y1683918D01*
X-740003Y1671624D01*
X-746201Y1658467D01*
X-750722Y1644599D01*
X-753465Y1630324D01*
X-754380Y1615795D01*
X-753465Y1601266D01*
X-750722Y1586941D01*
X-746201Y1573123D01*
X-740003Y1559966D01*
X-732231Y1547672D01*
X-722934Y1536446D01*
X-712317Y1526489D01*
X-700582Y1517954D01*
X-687832Y1510944D01*
X-674268Y1505559D01*
X-660196Y1501952D01*
G37*
G36*
X-1153718Y1500124D02*
G01*
X-1139190Y1500124D01*
X-1124762Y1501952D01*
X-1110640Y1505559D01*
X-1097127Y1510944D01*
X-1084376Y1517954D01*
X-1072591Y1526489D01*
X-1061974Y1536446D01*
X-1052728Y1547672D01*
X-1044905Y1559966D01*
X-1038707Y1573123D01*
X-1034237Y1586941D01*
X-1031494Y1601266D01*
X-1030579Y1615795D01*
X-1031494Y1630324D01*
X-1034237Y1644599D01*
X-1038707Y1658467D01*
X-1044905Y1671624D01*
X-1052728Y1683918D01*
X-1061974Y1695094D01*
X-1072591Y1705102D01*
X-1084376Y1713636D01*
X-1097127Y1720646D01*
X-1110640Y1725980D01*
X-1124762Y1729638D01*
X-1139190Y1731467D01*
X-1153718Y1731467D01*
X-1168196Y1729638D01*
X-1182268Y1725980D01*
X-1195832Y1720646D01*
X-1208582Y1713636D01*
X-1220317Y1705102D01*
X-1230934Y1695094D01*
X-1240231Y1683918D01*
X-1248003Y1671624D01*
X-1254201Y1658467D01*
X-1258722Y1644599D01*
X-1261465Y1630324D01*
X-1262380Y1615795D01*
X-1261465Y1601266D01*
X-1258722Y1586941D01*
X-1254201Y1573123D01*
X-1248003Y1559966D01*
X-1240231Y1547672D01*
X-1230934Y1536446D01*
X-1220317Y1526489D01*
X-1208582Y1517954D01*
X-1195832Y1510944D01*
X-1182268Y1505559D01*
X-1168196Y1501952D01*
G37*
G36*
X-899718Y1500124D02*
G01*
X-885190Y1500124D01*
X-870762Y1501952D01*
X-856640Y1505559D01*
X-843127Y1510944D01*
X-830376Y1517954D01*
X-818591Y1526489D01*
X-807974Y1536446D01*
X-798728Y1547672D01*
X-790905Y1559966D01*
X-784707Y1573123D01*
X-780237Y1586941D01*
X-777494Y1601266D01*
X-776579Y1615795D01*
X-777494Y1630324D01*
X-780237Y1644599D01*
X-784707Y1658467D01*
X-790905Y1671624D01*
X-798728Y1683918D01*
X-807974Y1695094D01*
X-818591Y1705102D01*
X-830376Y1713636D01*
X-843127Y1720646D01*
X-856640Y1725980D01*
X-870762Y1729638D01*
X-885190Y1731467D01*
X-899718Y1731467D01*
X-914196Y1729638D01*
X-928268Y1725980D01*
X-941832Y1720646D01*
X-954582Y1713636D01*
X-966317Y1705102D01*
X-976934Y1695094D01*
X-986231Y1683918D01*
X-994003Y1671624D01*
X-1000201Y1658467D01*
X-1004722Y1644599D01*
X-1007465Y1630324D01*
X-1008380Y1615795D01*
X-1007465Y1601266D01*
X-1004722Y1586941D01*
X-1000201Y1573123D01*
X-994003Y1559966D01*
X-986231Y1547672D01*
X-976934Y1536446D01*
X-966317Y1526489D01*
X-954582Y1517954D01*
X-941832Y1510944D01*
X-928268Y1505559D01*
X-914196Y1501952D01*
G37*

%LPD*%
G36*
X-2066950Y588264D02*
G01*
X-2787954Y584809D01*
X-2838754Y546709D01*
X-2838754Y-139090D01*
X-2775254Y-189890D01*
X-2064054Y-189890D01*
X-2038654Y-151790D01*
X-2041550Y556514D01*
G37*
G36*
X-2066950Y-948436D02*
G01*
X-2798470Y-949706D01*
X-2839110Y-1000506D01*
X-2839110Y-1648206D01*
X-2761996Y-1700631D01*
X-2066950Y-1704086D01*
X-2041550Y-1678686D01*
X-2041550Y-973836D01*
G37*
G36*
X-2781300Y-209550D02*
G01*
X-2838450Y-254000D01*
X-2835910Y-880110D01*
X-2797810Y-918210D01*
X-2084070Y-918210D01*
X-2038350Y-895350D01*
X-2038350Y-234950D01*
X-2063750Y-209550D01*
G37*
D10*
G01*
X-2018045Y-3022234D03*
G01*
X-2518044Y-3022234D03*
G01*
X-2558938Y-1332804D03*
D11*
G01*
X-2558938Y-1174003D03*
G01*
X-2558938Y-1491604D03*
G01*
X-2400137Y-1332804D03*
G01*
X-2717739Y-1332804D03*
G01*
X-2446644Y-1220510D03*
G01*
X-2671231Y-1220510D03*
G01*
X-2671231Y-1445097D03*
G01*
X-2446644Y-1445097D03*
D10*
G01*
X-2558938Y-632805D03*
D11*
G01*
X-2558938Y-474004D03*
G01*
X-2558938Y-791606D03*
G01*
X-2400137Y-632805D03*
G01*
X-2717739Y-632805D03*
G01*
X-2446644Y-520512D03*
G01*
X-2671231Y-520512D03*
G01*
X-2671231Y-745098D03*
G01*
X-2446644Y-745098D03*
D10*
G01*
X-2558938Y67193D03*
D11*
G01*
X-2558938Y225993D03*
G01*
X-2558938Y-91607D03*
G01*
X-2400137Y67193D03*
G01*
X-2717739Y67193D03*
G01*
X-2446644Y179486D03*
G01*
X-2671231Y179486D03*
G01*
X-2671231Y-45100D03*
G01*
X-2446644Y-45100D03*
D12*
G01*
X250555Y1615805D03*
D13*
G01*
X504555Y1615805D03*
G01*
X758555Y1615805D03*
G01*
X1012555Y1615805D03*
G01*
X1266555Y1615805D03*
G01*
X1520555Y1615805D03*
G01*
X1774555Y1615805D03*
G01*
X2028555Y1615805D03*
G01*
X-130444Y1615805D03*
G01*
X-384444Y1615805D03*
G01*
X-638444Y1615805D03*
G01*
X-892444Y1615805D03*
G01*
X-1146444Y1615805D03*
G01*
X-1400444Y1615805D03*
G01*
X-1654444Y1615805D03*
G01*
X-1908444Y1615805D03*
G01*
X-2162444Y1615805D03*
D12*
G01*
X-2416444Y1615805D03*
D13*
G01*
X2028555Y-3184794D03*
G01*
X1774555Y-3184794D03*
G01*
X1520555Y-3184794D03*
G01*
X1266555Y-3184794D03*
G01*
X1012555Y-3184794D03*
D12*
G01*
X758555Y-3184794D03*
G01*
X-1527444Y-3184794D03*
D13*
G01*
X-1273444Y-3184794D03*
G01*
X-1019444Y-3184794D03*
G01*
X-765444Y-3184794D03*
G01*
X-511444Y-3184794D03*
G01*
X-257444Y-3184794D03*
G01*
X-3444Y-3184794D03*
G01*
X250555Y-3184794D03*
D14*
G01*
X1965055Y79105D03*
G01*
X1965055Y333105D03*
G01*
X1965055Y587105D03*
G01*
X1965055Y841105D03*
D15*
G01*
X1965055Y1095105D03*
D16*
G01*
X2330155Y-2738795D03*
G01*
X2330155Y61198D03*
D17*
G01*
X-507989Y171460D03*
G01*
X-526938Y12811D03*
G01*
X-505856Y-408320D03*
G01*
X-506872Y-1041288D03*
G01*
X-506872Y-1434988D03*
G01*
X-509412Y-1579006D03*
D18*
G01*
X-1130289Y-698489D03*
G01*
X-1289039Y-704839D03*
G01*
X-1206489Y-698489D03*
G01*
X30363Y-492394D03*
G01*
X182763Y-339994D03*
G01*
X182763Y-644794D03*
G01*
X335163Y-492394D03*
G01*
X184160Y-495289D03*
G01*
X-1028689Y-12689D03*
G01*
X-990589Y-69839D03*
G01*
X-764529Y-72379D03*
G01*
X-800089Y-133339D03*
G01*
X-838189Y-189219D03*
G01*
X-806439Y-19039D03*
G01*
X-914389Y-186679D03*
G01*
X-985509Y-186679D03*
G01*
X-764529Y-191759D03*
G01*
X-1022339Y-126989D03*
G01*
X-952489Y-19039D03*
G01*
X-914389Y-74919D03*
G01*
X-952489Y-130799D03*
G01*
X-876289Y-19039D03*
G01*
X-843269Y-77459D03*
G01*
X-876289Y-133339D03*
G01*
X-1282689Y-831839D03*
G01*
X-1130289Y-838189D03*
G01*
X-1162039Y-768339D03*
G01*
X-1206489Y-838189D03*
G01*
X-1239078Y-770549D03*
G01*
X-1244589Y-901689D03*
G01*
X-1162039Y-908039D03*
G01*
X-1289039Y-971539D03*
G01*
X-1206489Y-971539D03*
G01*
X-1136639Y-971539D03*
G01*
X-2101839Y-101589D03*
G01*
X-2101839Y-12689D03*
G01*
X-2101839Y88910D03*
G01*
X-2101839Y190510D03*
G01*
X-2165339Y241310D03*
G01*
X-2165339Y139710D03*
G01*
X-2165339Y38110D03*
G01*
X-2165339Y-50789D03*
G01*
X-2114539Y-552439D03*
G01*
X-2114539Y-641339D03*
G01*
X-2114539Y-742939D03*
G01*
X-2114539Y-844539D03*
G01*
X-2178039Y-501639D03*
G01*
X-2178039Y-590539D03*
G01*
X-2178039Y-692139D03*
G01*
X-2178039Y-793739D03*
G01*
X-2251344Y-1152794D03*
G01*
X-2098944Y-1063894D03*
G01*
X-2098944Y-1165494D03*
G01*
X-2251344Y-1254394D03*
G01*
X-2251344Y-1063894D03*
G01*
X-2174331Y-1008496D03*
G01*
X-2174331Y-1110096D03*
G01*
X-2174331Y-1211696D03*
G01*
X-2228839Y-101589D03*
G01*
X-2228839Y-12689D03*
G01*
X-2228839Y88910D03*
G01*
X-2228839Y190510D03*
G01*
X-2241539Y-552439D03*
G01*
X-2241539Y-641339D03*
G01*
X-2241539Y-742939D03*
G01*
X-2241539Y-844539D03*
G01*
X-2327544Y-1101994D03*
G01*
X-2327544Y-1013094D03*
G01*
X-2098944Y-1254394D03*
G01*
X-2403744Y-1063894D03*
G01*
X-1168389Y558810D03*
G01*
X-1019444Y523605D03*
G01*
X-958839Y603260D03*
G01*
X-927089Y527060D03*
G01*
X-857239Y603260D03*
G01*
X-825489Y527060D03*
G01*
X-501639Y-2101839D03*
G01*
X-438139Y-2012939D03*
G01*
X-349239Y-2012939D03*
G01*
X-400039Y-2101839D03*
G01*
X-298439Y-2101839D03*
G01*
X-450839Y-2406639D03*
G01*
X-349239Y-2406639D03*
G01*
X-400039Y-2495539D03*
G01*
X-311139Y-2495539D03*
G01*
X-247639Y-2406639D03*
G01*
X-349239Y679460D03*
G01*
X-450839Y679460D03*
G01*
X-552439Y679460D03*
G01*
X-368289Y971560D03*
G01*
X-469889Y971560D03*
G01*
X-419089Y1060460D03*
G01*
X-507989Y1060460D03*
G01*
X-571489Y971560D03*
G01*
X495310Y476260D03*
G01*
X1076055Y-2435494D03*
D19*
G01*
X-1384289Y1409710D03*
G01*
X-587644Y-2676794D03*
G01*
X895360Y1009660D03*
G01*
X2219055Y-644794D03*
G01*
X2219055Y-2168794D03*
G01*
X1711055Y-644794D03*
G01*
X1711055Y-2168794D03*
G01*
X1155710Y234960D03*
G01*
X1203055Y-644794D03*
G01*
X1203055Y-2168794D03*
G01*
X1711055Y-1660794D03*
G01*
X2219055Y-1152794D03*
G01*
X2219055Y-1660794D03*
G01*
X695055Y-1660794D03*
G01*
X695055Y-2168794D03*
G01*
X990610Y901710D03*
G01*
X187055Y879205D03*
G01*
X187055Y-1660794D03*
G01*
X187055Y-2168794D03*
G01*
X187055Y-2676794D03*
G01*
X1711055Y-1152794D03*
G01*
X44460Y1530360D03*
G01*
X-73294Y1152255D03*
D18*
G01*
X-723508Y-17007D03*
G01*
X-685408Y-74157D03*
G01*
X-729858Y-131307D03*
G01*
X-647308Y-131307D03*
G01*
X-691758Y-188457D03*
D19*
G01*
X-203189Y-463539D03*
G01*
X711210Y673110D03*
G01*
X628660Y-1352539D03*
G01*
X876310Y-565139D03*
G01*
X476260Y-685789D03*
D18*
G01*
X-1231889Y-2038339D03*
G01*
X-1320789Y-2038339D03*
G01*
X-1422389Y-2038339D03*
G01*
X-1193789Y-1962139D03*
G01*
X-1282689Y-1962139D03*
G01*
X-1384289Y-1962139D03*
G01*
X-1333489Y-1898639D03*
G01*
X-1231889Y-1898639D03*
G01*
X-1422389Y-1898639D03*
G01*
X-1153149Y-1897649D03*
G01*
X-1457010Y-1961606D03*
G01*
X-776036Y606181D03*
G01*
X-1130289Y628660D03*
G01*
X-1219189Y628660D03*
G01*
X-1301739Y628660D03*
G01*
X-1352539Y565160D03*
G01*
X-1257289Y558810D03*
G01*
X-1536689Y412760D03*
G01*
X-1543039Y273060D03*
G01*
X-1454139Y412760D03*
G01*
X-1454139Y273060D03*
G01*
X-1549389Y-768339D03*
G01*
X-1466839Y-768339D03*
G01*
X-1549389Y-908039D03*
G01*
X-1466839Y-908039D03*
G01*
X-1555739Y-1193789D03*
G01*
X-1466839Y-1193789D03*
G01*
X-1466839Y-1327139D03*
G01*
X-1555739Y-1327139D03*
G01*
X-1308089Y-1123939D03*
G01*
X-1225539Y-1123939D03*
G01*
X-1142685Y-1118910D03*
G01*
X-1181089Y-1174739D03*
G01*
X-1263639Y-1174739D03*
G01*
X-1301739Y-1231889D03*
G01*
X-1219189Y-1231889D03*
G01*
X-1142989Y-1238239D03*
G01*
X-1181089Y-1301739D03*
G01*
X-1257289Y-1295389D03*
G01*
X-1308089Y-1352539D03*
G01*
X-1225539Y-1358889D03*
G01*
X-1142989Y-1352539D03*
G01*
X-1522796Y-685078D03*
G01*
X-1401434Y-684138D03*
G01*
X-1447789Y-1104889D03*
G01*
X-1555739Y-1104915D03*
G01*
X-1123939Y495310D03*
G01*
X-1206489Y495310D03*
G01*
X-1291198Y494167D03*
G01*
X-1241237Y428457D03*
G01*
X-1164198Y430667D03*
G01*
X-1284848Y367167D03*
G01*
X-1208648Y360817D03*
G01*
X-1447789Y565160D03*
G01*
X-1162039Y298460D03*
G01*
X-1244589Y298460D03*
G01*
X-1289039Y234960D03*
G01*
X-1206489Y234960D03*
G01*
X-1536689Y565160D03*
G01*
X-1489699Y633409D03*
G01*
X-1392798Y629650D03*
G01*
X-698108Y-550407D03*
G01*
X-653658Y-493257D03*
G01*
X-736208Y-493257D03*
G01*
X-691758Y-436107D03*
G01*
X-729858Y-378957D03*
G01*
X-882639Y-495289D03*
G01*
X-849619Y-439409D03*
G01*
X-882639Y-380989D03*
G01*
X-958839Y-492749D03*
G01*
X-920739Y-436869D03*
G01*
X-958839Y-380989D03*
G01*
X-1028689Y-495289D03*
G01*
X-770879Y-553709D03*
G01*
X-991859Y-548629D03*
G01*
X-920739Y-548629D03*
G01*
X-812789Y-380989D03*
G01*
X-844539Y-551169D03*
G01*
X-806439Y-495289D03*
G01*
X-770879Y-434329D03*
G01*
X-996939Y-431789D03*
G01*
X-1028689Y-368289D03*
G01*
X-685408Y-1820407D03*
G01*
X-640958Y-1763257D03*
G01*
X-723508Y-1763257D03*
G01*
X-679058Y-1706107D03*
G01*
X-717158Y-1648957D03*
G01*
X-869939Y-1765289D03*
G01*
X-836919Y-1709409D03*
G01*
X-869939Y-1650989D03*
G01*
X-946139Y-1762749D03*
G01*
X-908039Y-1706869D03*
G01*
X-946139Y-1650989D03*
G01*
X-1022339Y-1765289D03*
G01*
X-758179Y-1823709D03*
G01*
X-979159Y-1818629D03*
G01*
X-908039Y-1818629D03*
G01*
X-800089Y-1650989D03*
G01*
X-831839Y-1821169D03*
G01*
X-793739Y-1765289D03*
G01*
X-758179Y-1704329D03*
G01*
X-984239Y-1701789D03*
G01*
X-1022339Y-1650989D03*
G01*
X-1127419Y370469D03*
G01*
X-1130289Y234960D03*
D19*
G01*
X-692139Y-1117589D03*
G01*
X-692139Y-1206489D03*
G01*
X-692139Y-1295389D03*
G01*
X-673115Y-888989D03*
G01*
X-762015Y-888989D03*
G01*
X-850915Y-888989D03*
G01*
X-692139Y247660D03*
G01*
X-692139Y330210D03*
G01*
X-692139Y412760D03*
G01*
X-171439Y234960D03*
G01*
X-298439Y361960D03*
G01*
X-304789Y69860D03*
D18*
G01*
X-634989Y-1644639D03*
G01*
X-596889Y-1701789D03*
G01*
X-558789Y-1758939D03*
G01*
X-603239Y-1816089D03*
G01*
X-641339Y-374639D03*
G01*
X-603239Y-431789D03*
G01*
X-565139Y-488939D03*
G01*
X-609589Y-546089D03*
G01*
X-634989Y-19039D03*
G01*
X-596889Y-76189D03*
G01*
X-558789Y-133339D03*
G01*
X-603239Y-190489D03*
D19*
G01*
X-2660639Y1028710D03*
G01*
X-2666989Y730260D03*
G01*
X-1993889Y685810D03*
G01*
X-1435089Y984260D03*
D18*
G01*
X-647689Y-603239D03*
G01*
X-558789Y-596889D03*
G01*
X-527039Y-1822439D03*
G01*
X-1939762Y184922D03*
G01*
X-1939762Y83322D03*
G01*
X-1939762Y-18277D03*
G01*
X-1939762Y-107177D03*
G01*
X-1876262Y-56377D03*
G01*
X-1876262Y32522D03*
G01*
X-1876262Y134122D03*
G01*
X-1876262Y235722D03*
G01*
X-1812762Y184922D03*
G01*
X-1812762Y83322D03*
G01*
X-1812762Y-18277D03*
G01*
X-1812762Y-107177D03*
G01*
X-1809384Y-1301816D03*
G01*
X-1809384Y-1200216D03*
G01*
X-1809384Y-1098616D03*
G01*
X-1809384Y-1009716D03*
G01*
X-1872884Y-1060516D03*
G01*
X-1872884Y-1149416D03*
G01*
X-1872884Y-1251016D03*
G01*
X-1936384Y-1301816D03*
G01*
X-1936384Y-1200216D03*
G01*
X-1936384Y-1098616D03*
G01*
X-1936384Y-1009716D03*
D19*
G01*
X-1409689Y19060D03*
G01*
X-1320789Y19060D03*
G01*
X-1320789Y-101589D03*
G01*
X-1416039Y-101589D03*
G01*
X-1409689Y-349239D03*
G01*
X-1314439Y-349239D03*
G01*
X-1314439Y-482589D03*
G01*
X-1409689Y-482589D03*
G01*
X-1428739Y-1600189D03*
G01*
X-1320789Y-1600189D03*
G01*
X-1320789Y-1752589D03*
G01*
X-1428739Y-1752589D03*
G01*
X946160Y-990589D03*
D18*
G01*
X-2387488Y456879D03*
G01*
X-2438288Y520379D03*
G01*
X-2438288Y393379D03*
G01*
X-2539888Y393379D03*
G01*
X-2489088Y456879D03*
G01*
X-2539888Y520379D03*
G01*
X-2590688Y456879D03*
G01*
X-2641488Y393379D03*
G01*
X-2730388Y393379D03*
G01*
X-2679588Y456879D03*
G01*
X-2641488Y520379D03*
G01*
X-2730388Y520379D03*
G01*
X-2292339Y-419089D03*
G01*
X-2349489Y-260339D03*
G01*
X-2349489Y-368289D03*
G01*
X-2285989Y-311139D03*
G01*
X-2410449Y-312409D03*
G01*
X-2174128Y-317820D03*
G01*
X-2110628Y-368620D03*
G01*
X-2110628Y-470220D03*
G01*
X-2174128Y-419420D03*
G01*
X-2237628Y-470220D03*
G01*
X-2237628Y-368620D03*
G01*
X-2227468Y-256860D03*
G01*
X-2113168Y-256860D03*
G01*
X-2352842Y-1654342D03*
G01*
X-2505242Y-1654342D03*
G01*
X-2428229Y-1611645D03*
G01*
X-2352842Y-1565442D03*
G01*
X-2570927Y-1608292D03*
G01*
X-2647939Y-1650989D03*
G01*
X-2487081Y-1012078D03*
G01*
X-2175042Y-1305981D03*
D19*
G01*
X431810Y-95239D03*
G01*
X520710Y-190489D03*
G01*
X628660Y-304789D03*
G01*
X755660Y-2444739D03*
G01*
X1200160Y-2495539D03*
G01*
X793760Y184160D03*
G01*
X-946139Y1041410D03*
G01*
X800110Y495310D03*
G01*
X-126989Y901710D03*
G01*
X793760Y-31739D03*
G01*
X-1085839Y1352560D03*
G01*
X1295410Y-1809739D03*
G01*
X546211Y-1428638D03*
G01*
X812810Y-876289D03*
G01*
X1574810Y977910D03*
G01*
X1670060Y546084D03*
G01*
X1314460Y1377960D03*
G01*
X1289060Y412760D03*
G01*
X1473210Y292110D03*
G01*
X895360Y1473210D03*
G01*
X1168511Y1232011D03*
G01*
X-1289039Y1327160D03*
G01*
X387360Y1155710D03*
G01*
X647710Y1212860D03*
D18*
G01*
X-1363715Y-2097293D03*
G01*
X-1269989Y-2108189D03*
D19*
G01*
X1511310Y-171439D03*
G01*
X-680481Y-2676794D03*
G01*
X-2184389Y793760D03*
G01*
X1860560Y-514339D03*
M02*
