G04 Layer: TopPasteMaskLayer*
G04 EasyEDA v6.5.57, 2026-08-14 15:25:13*
G04 ebc703f97e3148f1b7392a4f0a1a7df2,2865ae9118a24060a17af6d01c9bcc73,10*
G04 Gerber Generator version 0.2*
G04 Scale: 100 percent, Rotated: No, Reflected: No *
G04 Dimensions in millimeters *
G04 leading zeros omitted , absolute positions ,4 integer and 5 decimal *
%FSLAX45Y45*%
%MOMM*%

%AMMACRO1*21,1,$1,$2,0,0,$3*%
%ADD10R,0.9000X0.8000*%
%ADD11R,6.5000X6.0000*%
%ADD12R,2.8000X1.3000*%
%ADD13O,1.453998X0.353009*%
%ADD14O,0.353009X1.453998*%
%ADD15R,1.8000X1.6000*%
%ADD16R,1.0000X0.8999*%
%ADD17MACRO1,1X0.8999X-135.0000*%
%ADD18R,1.5500X0.6000*%
%ADD19R,0.0124X0.6000*%
%ADD20R,2.0000X1.5000*%
%ADD21R,1.8000X1.2000*%
%ADD22MACRO1,0.8X0.9X135.0000*%
%ADD23R,0.8000X0.9000*%
%ADD24MACRO1,0.8X0.9X-135.0000*%
%ADD25R,4.3000X1.6000*%
%ADD26MACRO1,3.2004X3.2004X-45.0000*%
%ADD27MACRO1,0.762X0.287X-45.0014*%
%ADD28MACRO1,0.762X0.287X-45.0000*%
%ADD29MACRO1,0.762X0.287X-44.9986*%
%ADD30MACRO1,0.287X0.762X-45.0036*%
%ADD31MACRO1,0.287X0.762X-45.0072*%
%ADD32MACRO1,0.287X0.762X-44.9964*%
%ADD33MACRO1,0.287X0.762X-45.0000*%

%LPD*%
G36*
X-1500124Y639521D02*
G01*
X-1505102Y634492D01*
X-1505102Y554532D01*
X-1500124Y549503D01*
X-1477314Y549503D01*
X-1477314Y586536D01*
X-1444345Y586536D01*
X-1444345Y549503D01*
X-1420114Y549503D01*
X-1415135Y554532D01*
X-1415135Y634492D01*
X-1420114Y639521D01*
G37*
G36*
X-1500124Y479501D02*
G01*
X-1505102Y474522D01*
X-1505102Y395528D01*
X-1500124Y390499D01*
X-1420114Y390499D01*
X-1415135Y395528D01*
X-1415135Y474522D01*
X-1420114Y479501D01*
X-1444345Y479501D01*
X-1444345Y441502D01*
X-1477314Y441502D01*
X-1477314Y479501D01*
G37*
G36*
X-1341374Y480517D02*
G01*
X-1346352Y475488D01*
X-1346352Y395528D01*
X-1341374Y390499D01*
X-1261364Y390499D01*
X-1256385Y395528D01*
X-1256385Y475488D01*
X-1261364Y480517D01*
X-1284173Y480517D01*
X-1284173Y443534D01*
X-1317193Y443534D01*
X-1317193Y480517D01*
G37*
G36*
X-1341374Y639521D02*
G01*
X-1346352Y634492D01*
X-1346352Y555498D01*
X-1341374Y550519D01*
X-1317193Y550519D01*
X-1317193Y588518D01*
X-1284173Y588518D01*
X-1284173Y550519D01*
X-1261364Y550519D01*
X-1256385Y555498D01*
X-1256385Y634492D01*
X-1261364Y639521D01*
G37*
G36*
X-170434Y1735632D02*
G01*
X-186537Y1719478D01*
X-160375Y1693316D01*
X-183743Y1669999D01*
X-209905Y1696161D01*
X-227025Y1679041D01*
X-227025Y1671980D01*
X-170434Y1615389D01*
X-163372Y1615389D01*
X-106781Y1671980D01*
X-106781Y1679041D01*
X-163372Y1735632D01*
G37*
G36*
X-282854Y1848053D02*
G01*
X-339445Y1791462D01*
X-339445Y1784400D01*
X-282854Y1727860D01*
X-275793Y1727860D01*
X-259689Y1743964D01*
X-285851Y1770125D01*
X-262483Y1793443D01*
X-236321Y1767281D01*
X-219202Y1784400D01*
X-219202Y1791462D01*
X-275793Y1848053D01*
G37*
G36*
X-1262532Y1175562D02*
G01*
X-1267510Y1170584D01*
X-1267510Y1090574D01*
X-1262532Y1085596D01*
X-1182522Y1085596D01*
X-1177493Y1090574D01*
X-1177493Y1113383D01*
X-1214526Y1113383D01*
X-1214526Y1146352D01*
X-1177493Y1146352D01*
X-1177493Y1170584D01*
X-1182522Y1175562D01*
G37*
G36*
X-1103528Y1175562D02*
G01*
X-1108506Y1170584D01*
X-1108506Y1147775D01*
X-1071524Y1147775D01*
X-1071524Y1114755D01*
X-1108506Y1114755D01*
X-1108506Y1090574D01*
X-1103528Y1085596D01*
X-1023518Y1085596D01*
X-1018489Y1090574D01*
X-1018489Y1170584D01*
X-1023518Y1175562D01*
G37*
G36*
X-806145Y1363980D02*
G01*
X-811174Y1359001D01*
X-811174Y1278991D01*
X-806145Y1273962D01*
X-726186Y1273962D01*
X-721156Y1278991D01*
X-721156Y1301800D01*
X-758190Y1301800D01*
X-758190Y1334770D01*
X-721156Y1334770D01*
X-721156Y1359001D01*
X-726186Y1363980D01*
G37*
G36*
X-646176Y1363980D02*
G01*
X-651154Y1359001D01*
X-651154Y1334770D01*
X-613156Y1334770D01*
X-613156Y1301800D01*
X-651154Y1301800D01*
X-651154Y1278991D01*
X-646176Y1273962D01*
X-567182Y1273962D01*
X-562152Y1278991D01*
X-562152Y1359001D01*
X-567182Y1363980D01*
G37*
G36*
X-568604Y1822653D02*
G01*
X-625195Y1766062D01*
X-625195Y1759000D01*
X-568604Y1702460D01*
X-561543Y1702460D01*
X-545439Y1718564D01*
X-571601Y1744725D01*
X-548233Y1768043D01*
X-522071Y1741881D01*
X-504951Y1759000D01*
X-504951Y1766062D01*
X-561543Y1822653D01*
G37*
G36*
X-456184Y1710232D02*
G01*
X-472287Y1694078D01*
X-446125Y1667916D01*
X-469493Y1644599D01*
X-495655Y1670761D01*
X-512775Y1653641D01*
X-512775Y1646580D01*
X-456184Y1589989D01*
X-449122Y1589989D01*
X-392531Y1646580D01*
X-392531Y1653641D01*
X-449122Y1710232D01*
G37*
G36*
X-646328Y1188262D02*
G01*
X-651306Y1183284D01*
X-651306Y1160475D01*
X-614324Y1160475D01*
X-614324Y1127455D01*
X-651306Y1127455D01*
X-651306Y1103274D01*
X-646328Y1098296D01*
X-566318Y1098296D01*
X-561289Y1103274D01*
X-561289Y1183284D01*
X-566318Y1188262D01*
G37*
G36*
X-805332Y1188262D02*
G01*
X-810310Y1183284D01*
X-810310Y1103274D01*
X-805332Y1098296D01*
X-725322Y1098296D01*
X-720293Y1103274D01*
X-720293Y1126083D01*
X-757326Y1126083D01*
X-757326Y1159052D01*
X-720293Y1159052D01*
X-720293Y1183284D01*
X-725322Y1188262D01*
G37*
G36*
X-1268882Y1359712D02*
G01*
X-1273860Y1354734D01*
X-1273860Y1274724D01*
X-1268882Y1269746D01*
X-1188872Y1269746D01*
X-1183843Y1274724D01*
X-1183843Y1297533D01*
X-1220876Y1297533D01*
X-1220876Y1330502D01*
X-1183843Y1330502D01*
X-1183843Y1354734D01*
X-1188872Y1359712D01*
G37*
G36*
X-1109878Y1359712D02*
G01*
X-1114856Y1354734D01*
X-1114856Y1331925D01*
X-1077874Y1331925D01*
X-1077874Y1298905D01*
X-1114856Y1298905D01*
X-1114856Y1274724D01*
X-1109878Y1269746D01*
X-1029868Y1269746D01*
X-1024839Y1274724D01*
X-1024839Y1354734D01*
X-1029868Y1359712D01*
G37*
G36*
X-2536748Y2401366D02*
G01*
X-2536748Y2366365D01*
X-2466746Y2366365D01*
X-2466746Y2401366D01*
G37*
G36*
X-2536748Y2336342D02*
G01*
X-2536748Y2301341D01*
X-2466746Y2301341D01*
X-2466746Y2336342D01*
G37*
G36*
X-2536748Y2271369D02*
G01*
X-2536748Y2236368D01*
X-2466746Y2236368D01*
X-2466746Y2271369D01*
G37*
G36*
X-2536748Y2206345D02*
G01*
X-2536748Y2171344D01*
X-2466746Y2171344D01*
X-2466746Y2206345D01*
G37*
G36*
X-2846730Y2403957D02*
G01*
X-2846730Y2363774D01*
X-2789732Y2363774D01*
X-2789732Y2338882D01*
X-2846730Y2338882D01*
X-2846730Y2298852D01*
X-2789732Y2298852D01*
X-2789732Y2273858D01*
X-2846730Y2273858D01*
X-2846730Y2233726D01*
X-2789732Y2233726D01*
X-2789732Y2208834D01*
X-2846730Y2208834D01*
X-2846730Y2168753D01*
X-2596946Y2168753D01*
X-2596946Y2403957D01*
G37*
G36*
X-3040227Y2587345D02*
G01*
X-3040227Y2552344D01*
X-2970225Y2552344D01*
X-2970225Y2587345D01*
G37*
G36*
X-3040227Y2652318D02*
G01*
X-3040227Y2617317D01*
X-2970225Y2617317D01*
X-2970225Y2652318D01*
G37*
G36*
X-3040227Y2717342D02*
G01*
X-3040227Y2682341D01*
X-2970225Y2682341D01*
X-2970225Y2717342D01*
G37*
G36*
X-3040227Y2782316D02*
G01*
X-3040227Y2747314D01*
X-2970225Y2747314D01*
X-2970225Y2782316D01*
G37*
G36*
X-2910078Y2784906D02*
G01*
X-2910078Y2549753D01*
X-2660243Y2549753D01*
X-2660243Y2589885D01*
X-2717241Y2589885D01*
X-2717241Y2614777D01*
X-2660243Y2614777D01*
X-2660243Y2654808D01*
X-2717241Y2654808D01*
X-2717241Y2679801D01*
X-2660243Y2679801D01*
X-2660243Y2719984D01*
X-2717241Y2719984D01*
X-2717241Y2744876D01*
X-2660243Y2744876D01*
X-2660243Y2784906D01*
G37*
G36*
X-3057906Y1412544D02*
G01*
X-3057906Y1377543D01*
X-2987903Y1377543D01*
X-2987903Y1412544D01*
G37*
G36*
X-3057906Y1477518D02*
G01*
X-3057906Y1442516D01*
X-2987903Y1442516D01*
X-2987903Y1477518D01*
G37*
G36*
X-3057906Y1542491D02*
G01*
X-3057906Y1507540D01*
X-2987903Y1507540D01*
X-2987903Y1542491D01*
G37*
G36*
X-3057906Y1607515D02*
G01*
X-3057906Y1572514D01*
X-2987903Y1572514D01*
X-2987903Y1607515D01*
G37*
G36*
X-2927705Y1610106D02*
G01*
X-2927705Y1374902D01*
X-2677922Y1374902D01*
X-2677922Y1415084D01*
X-2734919Y1415084D01*
X-2734919Y1439976D01*
X-2677922Y1439976D01*
X-2677922Y1480007D01*
X-2734919Y1480007D01*
X-2734919Y1505000D01*
X-2677922Y1505000D01*
X-2677922Y1545132D01*
X-2734919Y1545132D01*
X-2734919Y1570024D01*
X-2677922Y1570024D01*
X-2677922Y1610106D01*
G37*
G36*
X-2530246Y2032965D02*
G01*
X-2530246Y1997964D01*
X-2460294Y1997964D01*
X-2460294Y2032965D01*
G37*
G36*
X-2530246Y1967992D02*
G01*
X-2530246Y1932990D01*
X-2460294Y1932990D01*
X-2460294Y1967992D01*
G37*
G36*
X-2530246Y1902968D02*
G01*
X-2530246Y1867966D01*
X-2460294Y1867966D01*
X-2460294Y1902968D01*
G37*
G36*
X-2530246Y1837994D02*
G01*
X-2530246Y1802993D01*
X-2460294Y1802993D01*
X-2460294Y1837994D01*
G37*
G36*
X-2840278Y2035606D02*
G01*
X-2840278Y1995424D01*
X-2783230Y1995424D01*
X-2783230Y1970532D01*
X-2840278Y1970532D01*
X-2840278Y1930501D01*
X-2783230Y1930501D01*
X-2783230Y1905507D01*
X-2840278Y1905507D01*
X-2840278Y1865375D01*
X-2783230Y1865375D01*
X-2783230Y1840484D01*
X-2840278Y1840484D01*
X-2840278Y1800402D01*
X-2590444Y1800402D01*
X-2590444Y2035606D01*
G37*
G36*
X-3051556Y993444D02*
G01*
X-3051556Y958443D01*
X-2981553Y958443D01*
X-2981553Y993444D01*
G37*
G36*
X-3051556Y1058418D02*
G01*
X-3051556Y1023416D01*
X-2981553Y1023416D01*
X-2981553Y1058418D01*
G37*
G36*
X-3051556Y1123391D02*
G01*
X-3051556Y1088440D01*
X-2981553Y1088440D01*
X-2981553Y1123391D01*
G37*
G36*
X-3051556Y1188415D02*
G01*
X-3051556Y1153414D01*
X-2981553Y1153414D01*
X-2981553Y1188415D01*
G37*
G36*
X-2921355Y1191006D02*
G01*
X-2921355Y955802D01*
X-2671572Y955802D01*
X-2671572Y995984D01*
X-2728569Y995984D01*
X-2728569Y1020876D01*
X-2671572Y1020876D01*
X-2671572Y1060907D01*
X-2728569Y1060907D01*
X-2728569Y1085900D01*
X-2671572Y1085900D01*
X-2671572Y1126032D01*
X-2728569Y1126032D01*
X-2728569Y1150924D01*
X-2671572Y1150924D01*
X-2671572Y1191006D01*
G37*
G36*
X-2536596Y769315D02*
G01*
X-2536596Y734314D01*
X-2466644Y734314D01*
X-2466644Y769315D01*
G37*
G36*
X-2536596Y704342D02*
G01*
X-2536596Y669340D01*
X-2466644Y669340D01*
X-2466644Y704342D01*
G37*
G36*
X-2536596Y639318D02*
G01*
X-2536596Y604316D01*
X-2466644Y604316D01*
X-2466644Y639318D01*
G37*
G36*
X-2536596Y574344D02*
G01*
X-2536596Y539343D01*
X-2466644Y539343D01*
X-2466644Y574344D01*
G37*
G36*
X-2846628Y771956D02*
G01*
X-2846628Y731774D01*
X-2789580Y731774D01*
X-2789580Y706882D01*
X-2846628Y706882D01*
X-2846628Y666851D01*
X-2789580Y666851D01*
X-2789580Y641858D01*
X-2846628Y641858D01*
X-2846628Y601726D01*
X-2789580Y601726D01*
X-2789580Y576834D01*
X-2846628Y576834D01*
X-2846628Y536752D01*
X-2596794Y536752D01*
X-2596794Y771956D01*
G37*
G36*
X277368Y3470808D02*
G01*
X272338Y3465829D01*
X272338Y3443020D01*
X309321Y3443020D01*
X309321Y3410051D01*
X272338Y3410051D01*
X272338Y3385820D01*
X277368Y3380841D01*
X357327Y3380841D01*
X362356Y3385820D01*
X362356Y3465829D01*
X357327Y3470808D01*
G37*
G36*
X118364Y3470808D02*
G01*
X113334Y3465829D01*
X113334Y3385820D01*
X118364Y3380841D01*
X197358Y3380841D01*
X202336Y3385820D01*
X202336Y3410051D01*
X164338Y3410051D01*
X164338Y3443020D01*
X202336Y3443020D01*
X202336Y3465829D01*
X197358Y3470808D01*
G37*
G36*
X277368Y3140608D02*
G01*
X272338Y3135630D01*
X272338Y3112820D01*
X309321Y3112820D01*
X309321Y3079851D01*
X272338Y3079851D01*
X272338Y3055620D01*
X277368Y3050641D01*
X357327Y3050641D01*
X362356Y3055620D01*
X362356Y3135630D01*
X357327Y3140608D01*
G37*
G36*
X118364Y3140608D02*
G01*
X113334Y3135630D01*
X113334Y3055620D01*
X118364Y3050641D01*
X197358Y3050641D01*
X202336Y3055620D01*
X202336Y3079851D01*
X164338Y3079851D01*
X164338Y3112820D01*
X202336Y3112820D01*
X202336Y3135630D01*
X197358Y3140608D01*
G37*
G36*
X277368Y2810408D02*
G01*
X272338Y2805430D01*
X272338Y2782620D01*
X309321Y2782620D01*
X309321Y2749651D01*
X272338Y2749651D01*
X272338Y2725420D01*
X277368Y2720441D01*
X357327Y2720441D01*
X362356Y2725420D01*
X362356Y2805430D01*
X357327Y2810408D01*
G37*
G36*
X118364Y2810408D02*
G01*
X113334Y2805430D01*
X113334Y2725420D01*
X118364Y2720441D01*
X197358Y2720441D01*
X202336Y2725420D01*
X202336Y2749651D01*
X164338Y2749651D01*
X164338Y2782620D01*
X202336Y2782620D01*
X202336Y2805430D01*
X197358Y2810408D01*
G37*
G36*
X-3431743Y3780282D02*
G01*
X-3436772Y3775303D01*
X-3436772Y3695293D01*
X-3431743Y3690264D01*
X-3408984Y3690264D01*
X-3408984Y3727297D01*
X-3375964Y3727297D01*
X-3375964Y3690264D01*
X-3351784Y3690264D01*
X-3346754Y3695293D01*
X-3346754Y3775303D01*
X-3351784Y3780282D01*
G37*
G36*
X-3431743Y3620262D02*
G01*
X-3436772Y3615283D01*
X-3436772Y3536289D01*
X-3431743Y3531260D01*
X-3351784Y3531260D01*
X-3346754Y3536289D01*
X-3346754Y3615283D01*
X-3351784Y3620262D01*
X-3375964Y3620262D01*
X-3375964Y3582263D01*
X-3408984Y3582263D01*
X-3408984Y3620262D01*
G37*
G36*
X-3253943Y3773932D02*
G01*
X-3258972Y3768953D01*
X-3258972Y3688943D01*
X-3253943Y3683914D01*
X-3231184Y3683914D01*
X-3231184Y3720947D01*
X-3198164Y3720947D01*
X-3198164Y3683914D01*
X-3173984Y3683914D01*
X-3168954Y3688943D01*
X-3168954Y3768953D01*
X-3173984Y3773932D01*
G37*
G36*
X-3253943Y3613912D02*
G01*
X-3258972Y3608933D01*
X-3258972Y3529939D01*
X-3253943Y3524910D01*
X-3173984Y3524910D01*
X-3168954Y3529939D01*
X-3168954Y3608933D01*
X-3173984Y3613912D01*
X-3198164Y3613912D01*
X-3198164Y3575913D01*
X-3231184Y3575913D01*
X-3231184Y3613912D01*
G37*
G36*
X-2822854Y165303D02*
G01*
X-2879445Y108712D01*
X-2879445Y101650D01*
X-2822854Y45110D01*
X-2815793Y45110D01*
X-2799689Y61214D01*
X-2825851Y87376D01*
X-2802483Y110693D01*
X-2776321Y84531D01*
X-2759202Y101650D01*
X-2759202Y108712D01*
X-2815793Y165303D01*
G37*
G36*
X-2709722Y52171D02*
G01*
X-2726842Y35052D01*
X-2699969Y8178D01*
X-2723286Y-15138D01*
X-2750159Y11734D01*
X-2766314Y-4419D01*
X-2766314Y-11480D01*
X-2710434Y-67360D01*
X-2703372Y-67360D01*
X-2646781Y-10769D01*
X-2646781Y-3708D01*
X-2702661Y52171D01*
G37*
D10*
G01*
X-1454150Y-285589D03*
G01*
X-1454150Y-425594D03*
D11*
G01*
X-388340Y-342892D03*
D12*
G01*
X-1046734Y-115613D03*
G01*
X-1046734Y-570171D03*
D13*
G01*
X-3581654Y3203303D03*
G01*
X-3581654Y3138279D03*
G01*
X-3581654Y3073280D03*
G01*
X-3581654Y3008282D03*
G01*
X-2996234Y3203303D03*
G01*
X-2996234Y3138279D03*
G01*
X-2996234Y3073280D03*
G01*
X-2996234Y3008282D03*
D14*
G01*
X-3229533Y509252D03*
G01*
X-3294557Y509252D03*
G01*
X-3359556Y509252D03*
G01*
X-3424555Y509252D03*
G01*
X-3229533Y-76166D03*
G01*
X-3294557Y-76166D03*
G01*
X-3359556Y-76166D03*
G01*
X-3424555Y-76166D03*
D15*
G01*
X-3196945Y1001707D03*
G01*
X-3516960Y1001707D03*
G01*
X-3203295Y2538407D03*
G01*
X-3523310Y2538407D03*
D16*
G01*
X-2636088Y-359757D03*
G01*
X-2636088Y-189755D03*
D17*
G01*
X-35999Y1792378D03*
G01*
X-156207Y1912586D03*
D10*
G01*
X-3073019Y159265D03*
G01*
X-3073019Y299270D03*
G01*
X-2806319Y3131065D03*
G01*
X-2806319Y3271070D03*
D15*
G01*
X-3202940Y2767667D03*
G01*
X-3522929Y2767667D03*
G01*
X-3196945Y773107D03*
G01*
X-3516960Y773107D03*
D18*
G01*
X745185Y897542D03*
G01*
X745185Y997541D03*
G01*
X745185Y1097541D03*
G01*
X745185Y1197541D03*
G01*
X745185Y1297541D03*
G01*
X745185Y1397541D03*
D20*
G01*
X1132687Y1527512D03*
G01*
X1132687Y767544D03*
D18*
G01*
X-3883761Y3502566D03*
G01*
X-3883761Y3602565D03*
G01*
X-3883812Y3302541D03*
G01*
X-3883812Y3402540D03*
D21*
G01*
X-4271314Y3732588D03*
G01*
X-4271365Y3172569D03*
D22*
G01*
X-684507Y1630923D03*
G01*
X-585513Y1531929D03*
D23*
G01*
X-1165352Y2562232D03*
G01*
X-1305356Y2562232D03*
D24*
G01*
X-1116195Y2300391D03*
G01*
X-1017201Y2399385D03*
G01*
X-1465557Y2909879D03*
G01*
X-1366563Y3008873D03*
D25*
G01*
X-1662963Y70137D03*
G01*
X-2337562Y70137D03*
G01*
X-1770913Y3257837D03*
G01*
X-2445512Y3257837D03*
D24*
G01*
X-1338557Y2770179D03*
G01*
X-1239563Y2869173D03*
D23*
G01*
X-2152497Y2616487D03*
G01*
X-2292502Y2616487D03*
G01*
X-2324252Y1581437D03*
G01*
X-2184247Y1581437D03*
G01*
X-2177897Y1143287D03*
G01*
X-2317902Y1143287D03*
D26*
G01*
X-1138044Y1838332D03*
D27*
G01*
X-1188516Y2136294D03*
D28*
G01*
X-1223872Y2100939D03*
G01*
X-1259229Y2065583D03*
D27*
G01*
X-1294582Y2030229D03*
D29*
G01*
X-1329940Y1994870D03*
D28*
G01*
X-1365295Y1959516D03*
D29*
G01*
X-1400651Y1924160D03*
D28*
G01*
X-1436005Y1888804D03*
D30*
G01*
X-1436005Y1787861D03*
D31*
G01*
X-1400648Y1752506D03*
D30*
G01*
X-1365294Y1717149D03*
D32*
G01*
X-1329940Y1681793D03*
D33*
G01*
X-1294582Y1646438D03*
G01*
X-1259227Y1611082D03*
D30*
G01*
X-1223872Y1575727D03*
D32*
G01*
X-1188516Y1540371D03*
D27*
G01*
X-1087572Y1540370D03*
D29*
G01*
X-1052216Y1575725D03*
D28*
G01*
X-1016859Y1611081D03*
D29*
G01*
X-981506Y1646435D03*
D28*
G01*
X-946148Y1681794D03*
D27*
G01*
X-910793Y1717149D03*
D28*
G01*
X-875437Y1752504D03*
G01*
X-840083Y1787860D03*
D32*
G01*
X-840083Y1888803D03*
G01*
X-875440Y1924159D03*
G01*
X-910794Y1959516D03*
G01*
X-946148Y1994871D03*
G01*
X-981506Y2030227D03*
G01*
X-1016861Y2065582D03*
D33*
G01*
X-1052216Y2100938D03*
D32*
G01*
X-1087572Y2136293D03*
M02*
