G04 Layer: TopSolderMaskLayer*
G04 EasyEDA v6.5.44, 2024-08-23 15:43:18*
G04 30d174a4fb68472d9a5c4a5b8d6f4b16,2865ae9118a24060a17af6d01c9bcc73,10*
G04 Gerber Generator version 0.2*
G04 Scale: 100 percent, Rotated: No, Reflected: No *
G04 Dimensions in millimeters *
G04 leading zeros omitted , absolute positions ,4 integer and 5 decimal *
%FSLAX45Y45*%
%MOMM*%

%AMMACRO1*4,1,8,-0.4243,-0.4828,-0.454,-0.453,-0.454,0.4531,-0.4243,0.4828,0.4243,0.4828,0.454,0.4531,0.454,-0.453,0.4243,-0.4828,-0.4243,-0.4828,0*%
%AMMACRO2*4,1,8,-0.0414,-0.6414,-0.6414,-0.0414,-0.6414,0.0007,-0.0007,0.6414,0.0414,0.6414,0.6414,0.0414,0.6414,-0.0007,0.0007,-0.6414,-0.0414,-0.6414,0*%
%AMMACRO3*4,1,8,-0.4531,-0.454,-0.4828,-0.4243,-0.4828,0.4243,-0.4531,0.454,0.453,0.454,0.4828,0.4243,0.4828,-0.4243,0.453,-0.454,-0.4531,-0.454,0*%
%AMMACRO4*4,1,8,-0.4531,-0.4541,-0.4828,-0.4243,-0.4828,0.4243,-0.4531,0.4541,0.453,0.4541,0.4828,0.4243,0.4828,-0.4243,0.453,-0.4541,-0.4531,-0.4541,0*%
%AMMACRO5*4,1,8,0.0143,-0.6518,-0.6518,0.0143,-0.6518,0.0564,-0.0564,0.6518,-0.0143,0.6518,0.6518,-0.0143,0.6518,-0.0564,0.0564,-0.6518,0.0143,-0.6518,0*%
%AMMACRO6*4,1,8,-2.1711,-0.8508,-2.2008,-0.821,-2.2008,0.8211,-2.1711,0.8508,2.171,0.8508,2.2008,0.8211,2.2008,-0.821,2.171,-0.8508,-2.1711,-0.8508,0*%
%AMMACRO7*4,1,8,-0.3711,-0.2258,-0.4008,-0.196,-0.4008,0.1961,-0.3711,0.2258,0.371,0.2258,0.4008,0.1961,0.4008,-0.196,0.371,-0.2258,-0.3711,-0.2258,0*%
%AMMACRO8*4,1,8,-0.4211,-0.5008,-0.4508,-0.471,-0.4508,0.4711,-0.4211,0.5008,0.421,0.5008,0.4508,0.4711,0.4508,-0.471,0.421,-0.5008,-0.4211,-0.5008,0*%
%AMMACRO9*4,1,8,-0.0564,-0.6518,-0.6518,-0.0564,-0.6518,-0.0143,0.0143,0.6518,0.0564,0.6518,0.6518,0.0564,0.6518,0.0143,-0.0143,-0.6518,-0.0564,-0.6518,0*%
%AMMACRO10*4,1,8,-0.471,-0.5508,-0.5008,-0.521,-0.5008,0.5211,-0.471,0.5508,0.471,0.5508,0.5008,0.5211,0.5008,-0.521,0.471,-0.5508,-0.471,-0.5508,0*%
%AMMACRO11*4,1,8,-0.021,-2.3138,-2.3138,-0.021,-2.3138,0.021,-0.021,2.3138,0.021,2.3138,2.3138,0.021,2.3138,-0.021,0.021,-2.3138,-0.021,-2.3138,0*%
%AMMACRO12*4,1,8,0.1469,-0.4217,-0.4217,0.1469,-0.4217,0.189,-0.189,0.4217,-0.1469,0.4217,0.4217,-0.1469,0.4217,-0.189,0.189,-0.4217,0.1469,-0.4217,0*%
%AMMACRO13*4,1,8,-0.189,-0.4217,-0.4217,-0.189,-0.4217,-0.1469,0.1469,0.4217,0.189,0.4217,0.4217,0.189,0.4217,0.1469,-0.1469,-0.4217,-0.189,-0.4217,0*%
%AMMACRO14*4,1,8,-0.4711,-0.4508,-0.5008,-0.421,-0.5008,0.4211,-0.4711,0.4508,0.471,0.4508,0.5008,0.4211,0.5008,-0.421,0.471,-0.4508,-0.4711,-0.4508,0*%
%AMMACRO15*4,1,8,-0.5211,-0.5008,-0.5508,-0.471,-0.5508,0.471,-0.5211,0.5008,0.521,0.5008,0.5508,0.471,0.5508,-0.471,0.521,-0.5008,-0.5211,-0.5008,0*%
%AMMACRO16*4,1,8,-0.9211,-0.9508,-0.9508,-0.921,-0.9508,0.9211,-0.9211,0.9508,0.921,0.9508,0.9508,0.9211,0.9508,-0.921,0.921,-0.9508,-0.9211,-0.9508,0*%
%AMMACRO17*4,1,8,-0.8085,-0.8382,-0.8382,-0.8084,-0.8382,0.8085,-0.8085,0.8382,0.8084,0.8382,0.8382,0.8085,0.8382,-0.8084,0.8084,-0.8382,-0.8085,-0.8382,0*%
%ADD10MACRO1*%
%ADD11MACRO2*%
%ADD12MACRO3*%
%ADD13MACRO4*%
%ADD14MACRO5*%
%ADD15MACRO6*%
%ADD16MACRO7*%
%ADD17MACRO8*%
%ADD18C,4.1016*%
%ADD19MACRO9*%
%ADD20MACRO10*%
%ADD21MACRO11*%
%ADD22MACRO12*%
%ADD23MACRO13*%
%ADD24O,0.6700012X2.051812*%
%ADD25MACRO14*%
%ADD26MACRO15*%
%ADD27C,0.6100*%
%ADD28MACRO16*%
%ADD29C,1.9016*%
%ADD30C,1.9620*%
%ADD31C,1.6764*%
%ADD32MACRO17*%
%ADD33C,3.4032*%
%ADD34C,0.7016*%
%ADD35C,0.0127*%

%LPD*%
D10*
G01*
X-2568832Y1222105D03*
G01*
X-2454532Y1222105D03*
G01*
X-2187855Y1222105D03*
G01*
X-2302155Y1222105D03*
G01*
X1368167Y1247505D03*
G01*
X1368167Y917305D03*
G01*
X1368167Y574405D03*
G01*
X1482467Y1247505D03*
G01*
X1482467Y917305D03*
G01*
X1482467Y574405D03*
G01*
X1009539Y-825621D03*
G01*
X1123829Y-825606D03*
G01*
X1123829Y-711306D03*
G01*
X1009529Y-711306D03*
G01*
X1009529Y-597006D03*
G01*
X774680Y-1168379D03*
G01*
X888996Y-1168389D03*
G01*
X774696Y-1054089D03*
G01*
X774696Y-1276339D03*
D11*
G01*
X575386Y-746836D03*
G01*
X681911Y-853361D03*
D12*
G01*
X669655Y-2639569D03*
G01*
X669655Y-2790219D03*
G01*
X834755Y-2790219D03*
G01*
X834755Y-2639569D03*
G01*
X1253855Y-2790219D03*
G01*
X1253855Y-2639569D03*
G01*
X1076055Y-2790219D03*
G01*
X1076055Y-2639569D03*
D10*
G01*
X316736Y-1003188D03*
G01*
X166086Y-1003188D03*
G01*
X310386Y-1168288D03*
G01*
X159736Y-1168288D03*
G01*
X1231024Y-990600D03*
G01*
X1080375Y-990600D03*
G01*
X750276Y-1428623D03*
G01*
X900926Y-1428623D03*
D13*
G01*
X520700Y-1237373D03*
G01*
X520700Y-1086726D03*
D14*
G01*
X-144748Y579154D03*
G01*
X-45754Y678148D03*
D15*
G01*
X-342150Y-2260600D03*
G01*
X-1016749Y-2260600D03*
G01*
X-450100Y819150D03*
G01*
X-1124699Y819150D03*
G36*
X-1525935Y-167068D02*
G01*
X-1526433Y-167043D01*
X-1526926Y-166971D01*
X-1527411Y-166850D01*
X-1527878Y-166682D01*
X-1528330Y-166469D01*
X-1528757Y-166212D01*
X-1529158Y-165915D01*
X-1529527Y-165580D01*
X-1529862Y-165211D01*
X-1530159Y-164810D01*
X-1530416Y-164383D01*
X-1530629Y-163931D01*
X-1530797Y-163464D01*
X-1530918Y-162979D01*
X-1530990Y-162486D01*
X-1531015Y-161988D01*
X-1531015Y-121909D01*
X-1530990Y-121412D01*
X-1530918Y-120919D01*
X-1530797Y-120434D01*
X-1530629Y-119966D01*
X-1530416Y-119514D01*
X-1530159Y-119087D01*
X-1529862Y-118686D01*
X-1529527Y-118318D01*
X-1529158Y-117982D01*
X-1528757Y-117685D01*
X-1528330Y-117429D01*
X-1527878Y-117215D01*
X-1527411Y-117048D01*
X-1526926Y-116926D01*
X-1526433Y-116855D01*
X-1525935Y-116829D01*
X-1473987Y-116829D01*
X-1473987Y-102097D01*
X-1525935Y-102097D01*
X-1526433Y-102072D01*
X-1526926Y-102001D01*
X-1527411Y-101879D01*
X-1527878Y-101711D01*
X-1528330Y-101498D01*
X-1528757Y-101241D01*
X-1529158Y-100944D01*
X-1529527Y-100609D01*
X-1529862Y-100241D01*
X-1530159Y-99839D01*
X-1530416Y-99413D01*
X-1530629Y-98960D01*
X-1530797Y-98493D01*
X-1530918Y-98008D01*
X-1530990Y-97515D01*
X-1531015Y-97017D01*
X-1531015Y-56885D01*
X-1530990Y-56388D01*
X-1530918Y-55895D01*
X-1530797Y-55410D01*
X-1530629Y-54942D01*
X-1530416Y-54490D01*
X-1530159Y-54063D01*
X-1529862Y-53662D01*
X-1529527Y-53294D01*
X-1529158Y-52959D01*
X-1528757Y-52661D01*
X-1528330Y-52405D01*
X-1527878Y-52191D01*
X-1527411Y-52024D01*
X-1526926Y-51902D01*
X-1526433Y-51831D01*
X-1525935Y-51805D01*
X-1473987Y-51805D01*
X-1473987Y-36956D01*
X-1525935Y-36956D01*
X-1526433Y-36931D01*
X-1526926Y-36860D01*
X-1527411Y-36738D01*
X-1527878Y-36570D01*
X-1528330Y-36357D01*
X-1528757Y-36101D01*
X-1529158Y-35803D01*
X-1529527Y-35468D01*
X-1529862Y-35100D01*
X-1530159Y-34698D01*
X-1530416Y-34272D01*
X-1530629Y-33820D01*
X-1530797Y-33352D01*
X-1530918Y-32867D01*
X-1530990Y-32374D01*
X-1531015Y-31877D01*
X-1531015Y8138D01*
X-1530990Y8636D01*
X-1530918Y9128D01*
X-1530797Y9613D01*
X-1530629Y10081D01*
X-1530416Y10533D01*
X-1530159Y10960D01*
X-1529862Y11361D01*
X-1529527Y11729D01*
X-1529158Y12064D01*
X-1528757Y12362D01*
X-1528330Y12618D01*
X-1527878Y12832D01*
X-1527411Y12999D01*
X-1526926Y13121D01*
X-1526433Y13192D01*
X-1525935Y13218D01*
X-1473987Y13218D01*
X-1473987Y27950D01*
X-1525935Y27950D01*
X-1526433Y27975D01*
X-1526926Y28046D01*
X-1527411Y28168D01*
X-1527878Y28336D01*
X-1528330Y28549D01*
X-1528757Y28806D01*
X-1529158Y29103D01*
X-1529527Y29438D01*
X-1529862Y29806D01*
X-1530159Y30208D01*
X-1530416Y30634D01*
X-1530629Y31087D01*
X-1530797Y31554D01*
X-1530918Y32039D01*
X-1530990Y32532D01*
X-1531015Y33030D01*
X-1531015Y73210D01*
X-1530990Y73708D01*
X-1530918Y74201D01*
X-1530797Y74686D01*
X-1530629Y75153D01*
X-1530416Y75605D01*
X-1530159Y76032D01*
X-1529862Y76433D01*
X-1529527Y76801D01*
X-1529158Y77137D01*
X-1528757Y77434D01*
X-1528330Y77690D01*
X-1527878Y77904D01*
X-1527411Y78071D01*
X-1526926Y78193D01*
X-1526433Y78265D01*
X-1525935Y78290D01*
X-1276121Y78290D01*
X-1275623Y78265D01*
X-1275130Y78193D01*
X-1274645Y78071D01*
X-1274178Y77904D01*
X-1273726Y77690D01*
X-1273299Y77434D01*
X-1272898Y77137D01*
X-1272529Y76801D01*
X-1272194Y76433D01*
X-1271897Y76032D01*
X-1271640Y75605D01*
X-1271427Y75153D01*
X-1271259Y74686D01*
X-1271137Y74201D01*
X-1271066Y73708D01*
X-1271041Y73210D01*
X-1271041Y-161988D01*
X-1271066Y-162486D01*
X-1271137Y-162979D01*
X-1271259Y-163464D01*
X-1271427Y-163931D01*
X-1271640Y-164383D01*
X-1271897Y-164810D01*
X-1272194Y-165211D01*
X-1272529Y-165580D01*
X-1272898Y-165915D01*
X-1273299Y-166212D01*
X-1273726Y-166469D01*
X-1274178Y-166682D01*
X-1274645Y-166850D01*
X-1275130Y-166971D01*
X-1275623Y-167043D01*
X-1276121Y-167068D01*
G37*
D16*
G01*
X-1180939Y-141886D03*
G01*
X-1180939Y-76888D03*
G01*
X-1180939Y-11889D03*
G01*
X-1180939Y53108D03*
G36*
X-1589237Y213931D02*
G01*
X-1589735Y213956D01*
X-1590227Y214028D01*
X-1590713Y214149D01*
X-1591180Y214317D01*
X-1591632Y214530D01*
X-1592059Y214787D01*
X-1592460Y215084D01*
X-1592828Y215419D01*
X-1593164Y215788D01*
X-1593461Y216189D01*
X-1593717Y216616D01*
X-1593931Y217068D01*
X-1594098Y217535D01*
X-1594220Y218020D01*
X-1594291Y218513D01*
X-1594317Y219011D01*
X-1594317Y454210D01*
X-1594291Y454708D01*
X-1594220Y455201D01*
X-1594098Y455686D01*
X-1593931Y456153D01*
X-1593717Y456605D01*
X-1593461Y457032D01*
X-1593164Y457433D01*
X-1592828Y457801D01*
X-1592460Y458137D01*
X-1592059Y458434D01*
X-1591632Y458690D01*
X-1591180Y458904D01*
X-1590713Y459071D01*
X-1590227Y459193D01*
X-1589735Y459265D01*
X-1589237Y459290D01*
X-1339423Y459290D01*
X-1338925Y459265D01*
X-1338432Y459193D01*
X-1337947Y459071D01*
X-1337480Y458904D01*
X-1337028Y458690D01*
X-1336601Y458434D01*
X-1336200Y458137D01*
X-1335831Y457801D01*
X-1335496Y457433D01*
X-1335199Y457032D01*
X-1334942Y456605D01*
X-1334729Y456153D01*
X-1334561Y455686D01*
X-1334439Y455201D01*
X-1334368Y454708D01*
X-1334343Y454210D01*
X-1334343Y414131D01*
X-1334368Y413633D01*
X-1334439Y413141D01*
X-1334561Y412656D01*
X-1334729Y412188D01*
X-1334942Y411736D01*
X-1335199Y411309D01*
X-1335496Y410908D01*
X-1335831Y410540D01*
X-1336200Y410204D01*
X-1336601Y409907D01*
X-1337028Y409651D01*
X-1337480Y409437D01*
X-1337947Y409270D01*
X-1338432Y409148D01*
X-1338925Y409077D01*
X-1339423Y409051D01*
X-1391371Y409051D01*
X-1391371Y394319D01*
X-1339423Y394319D01*
X-1338925Y394294D01*
X-1338432Y394223D01*
X-1337947Y394101D01*
X-1337480Y393933D01*
X-1337028Y393720D01*
X-1336601Y393463D01*
X-1336200Y393166D01*
X-1335831Y392831D01*
X-1335496Y392463D01*
X-1335199Y392061D01*
X-1334942Y391634D01*
X-1334729Y391182D01*
X-1334561Y390715D01*
X-1334439Y390230D01*
X-1334368Y389737D01*
X-1334343Y389239D01*
X-1334343Y349107D01*
X-1334368Y348609D01*
X-1334439Y348117D01*
X-1334561Y347632D01*
X-1334729Y347164D01*
X-1334942Y346712D01*
X-1335199Y346285D01*
X-1335496Y345884D01*
X-1335831Y345516D01*
X-1336200Y345180D01*
X-1336601Y344883D01*
X-1337028Y344627D01*
X-1337480Y344413D01*
X-1337947Y344246D01*
X-1338432Y344124D01*
X-1338925Y344053D01*
X-1339423Y344027D01*
X-1391371Y344027D01*
X-1391371Y329178D01*
X-1339423Y329178D01*
X-1338925Y329153D01*
X-1338432Y329082D01*
X-1337947Y328960D01*
X-1337480Y328792D01*
X-1337028Y328579D01*
X-1336601Y328322D01*
X-1336200Y328025D01*
X-1335831Y327690D01*
X-1335496Y327322D01*
X-1335199Y326920D01*
X-1334942Y326494D01*
X-1334729Y326042D01*
X-1334561Y325574D01*
X-1334439Y325089D01*
X-1334368Y324596D01*
X-1334343Y324098D01*
X-1334343Y284083D01*
X-1334368Y283585D01*
X-1334439Y283093D01*
X-1334561Y282608D01*
X-1334729Y282140D01*
X-1334942Y281688D01*
X-1335199Y281261D01*
X-1335496Y280860D01*
X-1335831Y280492D01*
X-1336200Y280156D01*
X-1336601Y279859D01*
X-1337028Y279603D01*
X-1337480Y279389D01*
X-1337947Y279222D01*
X-1338432Y279100D01*
X-1338925Y279029D01*
X-1339423Y279003D01*
X-1391371Y279003D01*
X-1391371Y264271D01*
X-1339423Y264271D01*
X-1338925Y264246D01*
X-1338432Y264175D01*
X-1337947Y264053D01*
X-1337480Y263885D01*
X-1337028Y263672D01*
X-1336601Y263415D01*
X-1336200Y263118D01*
X-1335831Y262783D01*
X-1335496Y262415D01*
X-1335199Y262013D01*
X-1334942Y261586D01*
X-1334729Y261134D01*
X-1334561Y260667D01*
X-1334439Y260182D01*
X-1334368Y259689D01*
X-1334343Y259191D01*
X-1334343Y219011D01*
X-1334368Y218513D01*
X-1334439Y218020D01*
X-1334561Y217535D01*
X-1334729Y217068D01*
X-1334942Y216616D01*
X-1335199Y216189D01*
X-1335496Y215788D01*
X-1335831Y215419D01*
X-1336200Y215084D01*
X-1336601Y214787D01*
X-1337028Y214530D01*
X-1337480Y214317D01*
X-1337947Y214149D01*
X-1338432Y214028D01*
X-1338925Y213956D01*
X-1339423Y213931D01*
G37*
G01*
X-1684418Y434108D03*
G01*
X-1684418Y369110D03*
G01*
X-1684418Y304111D03*
G01*
X-1684418Y239113D03*
G36*
X-1606897Y-960879D02*
G01*
X-1607395Y-960854D01*
X-1607888Y-960782D01*
X-1608373Y-960661D01*
X-1608841Y-960493D01*
X-1609293Y-960280D01*
X-1609719Y-960023D01*
X-1610121Y-959726D01*
X-1610489Y-959391D01*
X-1610824Y-959022D01*
X-1611121Y-958621D01*
X-1611378Y-958194D01*
X-1611591Y-957742D01*
X-1611759Y-957275D01*
X-1611881Y-956790D01*
X-1611952Y-956297D01*
X-1611977Y-955799D01*
X-1611977Y-720600D01*
X-1611952Y-720102D01*
X-1611881Y-719609D01*
X-1611759Y-719124D01*
X-1611591Y-718657D01*
X-1611378Y-718205D01*
X-1611121Y-717778D01*
X-1610824Y-717377D01*
X-1610489Y-717008D01*
X-1610121Y-716673D01*
X-1609719Y-716376D01*
X-1609293Y-716119D01*
X-1608841Y-715906D01*
X-1608373Y-715738D01*
X-1607888Y-715617D01*
X-1607395Y-715545D01*
X-1606897Y-715520D01*
X-1357083Y-715520D01*
X-1356586Y-715545D01*
X-1356093Y-715617D01*
X-1355608Y-715738D01*
X-1355140Y-715906D01*
X-1354688Y-716119D01*
X-1354261Y-716376D01*
X-1353860Y-716673D01*
X-1353492Y-717008D01*
X-1353157Y-717377D01*
X-1352859Y-717778D01*
X-1352603Y-718205D01*
X-1352389Y-718657D01*
X-1352222Y-719124D01*
X-1352100Y-719609D01*
X-1352029Y-720102D01*
X-1352003Y-720600D01*
X-1352003Y-760679D01*
X-1352029Y-761177D01*
X-1352100Y-761669D01*
X-1352222Y-762154D01*
X-1352389Y-762622D01*
X-1352603Y-763074D01*
X-1352859Y-763501D01*
X-1353157Y-763902D01*
X-1353492Y-764270D01*
X-1353860Y-764606D01*
X-1354261Y-764903D01*
X-1354688Y-765159D01*
X-1355140Y-765373D01*
X-1355608Y-765540D01*
X-1356093Y-765662D01*
X-1356586Y-765733D01*
X-1357083Y-765759D01*
X-1409031Y-765759D01*
X-1409031Y-780491D01*
X-1357083Y-780491D01*
X-1356586Y-780516D01*
X-1356093Y-780587D01*
X-1355608Y-780709D01*
X-1355140Y-780877D01*
X-1354688Y-781090D01*
X-1354261Y-781347D01*
X-1353860Y-781644D01*
X-1353492Y-781979D01*
X-1353157Y-782347D01*
X-1352859Y-782749D01*
X-1352603Y-783175D01*
X-1352389Y-783628D01*
X-1352222Y-784095D01*
X-1352100Y-784580D01*
X-1352029Y-785073D01*
X-1352003Y-785571D01*
X-1352003Y-825703D01*
X-1352029Y-826201D01*
X-1352100Y-826693D01*
X-1352222Y-827178D01*
X-1352389Y-827646D01*
X-1352603Y-828098D01*
X-1352859Y-828525D01*
X-1353157Y-828926D01*
X-1353492Y-829294D01*
X-1353860Y-829630D01*
X-1354261Y-829927D01*
X-1354688Y-830183D01*
X-1355140Y-830397D01*
X-1355608Y-830564D01*
X-1356093Y-830686D01*
X-1356586Y-830757D01*
X-1357083Y-830783D01*
X-1409031Y-830783D01*
X-1409031Y-845632D01*
X-1357083Y-845632D01*
X-1356586Y-845657D01*
X-1356093Y-845728D01*
X-1355608Y-845850D01*
X-1355140Y-846018D01*
X-1354688Y-846231D01*
X-1354261Y-846488D01*
X-1353860Y-846785D01*
X-1353492Y-847120D01*
X-1353157Y-847488D01*
X-1352859Y-847890D01*
X-1352603Y-848316D01*
X-1352389Y-848768D01*
X-1352222Y-849236D01*
X-1352100Y-849721D01*
X-1352029Y-850214D01*
X-1352003Y-850712D01*
X-1352003Y-890727D01*
X-1352029Y-891225D01*
X-1352100Y-891717D01*
X-1352222Y-892202D01*
X-1352389Y-892670D01*
X-1352603Y-893122D01*
X-1352859Y-893549D01*
X-1353157Y-893950D01*
X-1353492Y-894318D01*
X-1353860Y-894654D01*
X-1354261Y-894951D01*
X-1354688Y-895207D01*
X-1355140Y-895421D01*
X-1355608Y-895588D01*
X-1356093Y-895710D01*
X-1356586Y-895781D01*
X-1357083Y-895807D01*
X-1409031Y-895807D01*
X-1409031Y-910539D01*
X-1357083Y-910539D01*
X-1356586Y-910564D01*
X-1356093Y-910635D01*
X-1355608Y-910757D01*
X-1355140Y-910925D01*
X-1354688Y-911138D01*
X-1354261Y-911395D01*
X-1353860Y-911692D01*
X-1353492Y-912027D01*
X-1353157Y-912395D01*
X-1352859Y-912797D01*
X-1352603Y-913223D01*
X-1352389Y-913676D01*
X-1352222Y-914143D01*
X-1352100Y-914628D01*
X-1352029Y-915121D01*
X-1352003Y-915619D01*
X-1352003Y-955799D01*
X-1352029Y-956297D01*
X-1352100Y-956790D01*
X-1352222Y-957275D01*
X-1352389Y-957742D01*
X-1352603Y-958194D01*
X-1352859Y-958621D01*
X-1353157Y-959022D01*
X-1353492Y-959391D01*
X-1353860Y-959726D01*
X-1354261Y-960023D01*
X-1354688Y-960280D01*
X-1355140Y-960493D01*
X-1355608Y-960661D01*
X-1356093Y-960782D01*
X-1356586Y-960854D01*
X-1357083Y-960879D01*
G37*
G01*
X-1702079Y-740702D03*
G01*
X-1702079Y-805700D03*
G01*
X-1702079Y-870699D03*
G01*
X-1702079Y-935697D03*
G36*
X-1519466Y-535429D02*
G01*
X-1519963Y-535404D01*
X-1520456Y-535332D01*
X-1520941Y-535211D01*
X-1521409Y-535043D01*
X-1521861Y-534830D01*
X-1522288Y-534573D01*
X-1522689Y-534276D01*
X-1523057Y-533941D01*
X-1523392Y-533572D01*
X-1523690Y-533171D01*
X-1523946Y-532744D01*
X-1524160Y-532292D01*
X-1524327Y-531825D01*
X-1524449Y-531340D01*
X-1524520Y-530847D01*
X-1524546Y-530349D01*
X-1524546Y-490270D01*
X-1524520Y-489772D01*
X-1524449Y-489280D01*
X-1524327Y-488795D01*
X-1524160Y-488327D01*
X-1523946Y-487875D01*
X-1523690Y-487448D01*
X-1523392Y-487047D01*
X-1523057Y-486679D01*
X-1522689Y-486343D01*
X-1522288Y-486046D01*
X-1521861Y-485790D01*
X-1521409Y-485576D01*
X-1520941Y-485409D01*
X-1520456Y-485287D01*
X-1519963Y-485216D01*
X-1519466Y-485190D01*
X-1467518Y-485190D01*
X-1467518Y-470458D01*
X-1519466Y-470458D01*
X-1519963Y-470433D01*
X-1520456Y-470362D01*
X-1520941Y-470240D01*
X-1521409Y-470072D01*
X-1521861Y-469859D01*
X-1522288Y-469602D01*
X-1522689Y-469305D01*
X-1523057Y-468970D01*
X-1523392Y-468602D01*
X-1523690Y-468200D01*
X-1523946Y-467774D01*
X-1524160Y-467321D01*
X-1524327Y-466854D01*
X-1524449Y-466369D01*
X-1524520Y-465876D01*
X-1524546Y-465378D01*
X-1524546Y-425246D01*
X-1524520Y-424748D01*
X-1524449Y-424256D01*
X-1524327Y-423771D01*
X-1524160Y-423303D01*
X-1523946Y-422851D01*
X-1523690Y-422424D01*
X-1523392Y-422023D01*
X-1523057Y-421655D01*
X-1522689Y-421319D01*
X-1522288Y-421022D01*
X-1521861Y-420766D01*
X-1521409Y-420552D01*
X-1520941Y-420385D01*
X-1520456Y-420263D01*
X-1519963Y-420192D01*
X-1519466Y-420166D01*
X-1467518Y-420166D01*
X-1467518Y-405317D01*
X-1519466Y-405317D01*
X-1519963Y-405292D01*
X-1520456Y-405221D01*
X-1520941Y-405099D01*
X-1521409Y-404931D01*
X-1521861Y-404718D01*
X-1522288Y-404461D01*
X-1522689Y-404164D01*
X-1523057Y-403829D01*
X-1523392Y-403461D01*
X-1523690Y-403059D01*
X-1523946Y-402633D01*
X-1524160Y-402181D01*
X-1524327Y-401713D01*
X-1524449Y-401228D01*
X-1524520Y-400735D01*
X-1524546Y-400237D01*
X-1524546Y-360222D01*
X-1524520Y-359724D01*
X-1524449Y-359232D01*
X-1524327Y-358747D01*
X-1524160Y-358279D01*
X-1523946Y-357827D01*
X-1523690Y-357400D01*
X-1523392Y-356999D01*
X-1523057Y-356631D01*
X-1522689Y-356295D01*
X-1522288Y-355998D01*
X-1521861Y-355742D01*
X-1521409Y-355528D01*
X-1520941Y-355361D01*
X-1520456Y-355239D01*
X-1519963Y-355168D01*
X-1519466Y-355142D01*
X-1467518Y-355142D01*
X-1467518Y-340410D01*
X-1519466Y-340410D01*
X-1519963Y-340385D01*
X-1520456Y-340314D01*
X-1520941Y-340192D01*
X-1521409Y-340024D01*
X-1521861Y-339811D01*
X-1522288Y-339554D01*
X-1522689Y-339257D01*
X-1523057Y-338922D01*
X-1523392Y-338554D01*
X-1523690Y-338152D01*
X-1523946Y-337726D01*
X-1524160Y-337273D01*
X-1524327Y-336806D01*
X-1524449Y-336321D01*
X-1524520Y-335828D01*
X-1524546Y-335330D01*
X-1524546Y-295150D01*
X-1524520Y-294652D01*
X-1524449Y-294159D01*
X-1524327Y-293674D01*
X-1524160Y-293207D01*
X-1523946Y-292755D01*
X-1523690Y-292328D01*
X-1523392Y-291927D01*
X-1523057Y-291558D01*
X-1522689Y-291223D01*
X-1522288Y-290926D01*
X-1521861Y-290669D01*
X-1521409Y-290456D01*
X-1520941Y-290288D01*
X-1520456Y-290167D01*
X-1519963Y-290095D01*
X-1519466Y-290070D01*
X-1269652Y-290070D01*
X-1269154Y-290095D01*
X-1268661Y-290167D01*
X-1268176Y-290288D01*
X-1267708Y-290456D01*
X-1267256Y-290669D01*
X-1266830Y-290926D01*
X-1266428Y-291223D01*
X-1266060Y-291558D01*
X-1265725Y-291927D01*
X-1265427Y-292328D01*
X-1265171Y-292755D01*
X-1264958Y-293207D01*
X-1264790Y-293674D01*
X-1264668Y-294159D01*
X-1264597Y-294652D01*
X-1264572Y-295150D01*
X-1264572Y-530349D01*
X-1264597Y-530847D01*
X-1264668Y-531340D01*
X-1264790Y-531825D01*
X-1264958Y-532292D01*
X-1265171Y-532744D01*
X-1265427Y-533171D01*
X-1265725Y-533572D01*
X-1266060Y-533941D01*
X-1266428Y-534276D01*
X-1266830Y-534573D01*
X-1267256Y-534830D01*
X-1267708Y-535043D01*
X-1268176Y-535211D01*
X-1268661Y-535332D01*
X-1269154Y-535404D01*
X-1269652Y-535429D01*
G37*
G01*
X-1174470Y-510247D03*
G01*
X-1174470Y-445249D03*
G01*
X-1174470Y-380250D03*
G01*
X-1174470Y-315252D03*
G36*
X-1600547Y-1379979D02*
G01*
X-1601045Y-1379954D01*
X-1601538Y-1379882D01*
X-1602023Y-1379761D01*
X-1602491Y-1379593D01*
X-1602943Y-1379380D01*
X-1603369Y-1379123D01*
X-1603771Y-1378826D01*
X-1604139Y-1378491D01*
X-1604474Y-1378122D01*
X-1604771Y-1377721D01*
X-1605028Y-1377294D01*
X-1605241Y-1376842D01*
X-1605409Y-1376375D01*
X-1605531Y-1375890D01*
X-1605602Y-1375397D01*
X-1605627Y-1374899D01*
X-1605627Y-1139700D01*
X-1605602Y-1139202D01*
X-1605531Y-1138709D01*
X-1605409Y-1138224D01*
X-1605241Y-1137757D01*
X-1605028Y-1137305D01*
X-1604771Y-1136878D01*
X-1604474Y-1136477D01*
X-1604139Y-1136108D01*
X-1603771Y-1135773D01*
X-1603369Y-1135476D01*
X-1602943Y-1135219D01*
X-1602491Y-1135006D01*
X-1602023Y-1134838D01*
X-1601538Y-1134717D01*
X-1601045Y-1134645D01*
X-1600547Y-1134620D01*
X-1350733Y-1134620D01*
X-1350236Y-1134645D01*
X-1349743Y-1134717D01*
X-1349258Y-1134838D01*
X-1348790Y-1135006D01*
X-1348338Y-1135219D01*
X-1347911Y-1135476D01*
X-1347510Y-1135773D01*
X-1347142Y-1136108D01*
X-1346807Y-1136477D01*
X-1346509Y-1136878D01*
X-1346253Y-1137305D01*
X-1346039Y-1137757D01*
X-1345872Y-1138224D01*
X-1345750Y-1138709D01*
X-1345679Y-1139202D01*
X-1345653Y-1139700D01*
X-1345653Y-1179779D01*
X-1345679Y-1180277D01*
X-1345750Y-1180769D01*
X-1345872Y-1181254D01*
X-1346039Y-1181722D01*
X-1346253Y-1182174D01*
X-1346509Y-1182601D01*
X-1346807Y-1183002D01*
X-1347142Y-1183370D01*
X-1347510Y-1183706D01*
X-1347911Y-1184003D01*
X-1348338Y-1184259D01*
X-1348790Y-1184473D01*
X-1349258Y-1184640D01*
X-1349743Y-1184762D01*
X-1350236Y-1184833D01*
X-1350733Y-1184859D01*
X-1402681Y-1184859D01*
X-1402681Y-1199591D01*
X-1350733Y-1199591D01*
X-1350236Y-1199616D01*
X-1349743Y-1199687D01*
X-1349258Y-1199809D01*
X-1348790Y-1199977D01*
X-1348338Y-1200190D01*
X-1347911Y-1200447D01*
X-1347510Y-1200744D01*
X-1347142Y-1201079D01*
X-1346807Y-1201447D01*
X-1346509Y-1201849D01*
X-1346253Y-1202275D01*
X-1346039Y-1202728D01*
X-1345872Y-1203195D01*
X-1345750Y-1203680D01*
X-1345679Y-1204173D01*
X-1345653Y-1204671D01*
X-1345653Y-1244803D01*
X-1345679Y-1245301D01*
X-1345750Y-1245793D01*
X-1345872Y-1246278D01*
X-1346039Y-1246746D01*
X-1346253Y-1247198D01*
X-1346509Y-1247625D01*
X-1346807Y-1248026D01*
X-1347142Y-1248394D01*
X-1347510Y-1248730D01*
X-1347911Y-1249027D01*
X-1348338Y-1249283D01*
X-1348790Y-1249497D01*
X-1349258Y-1249664D01*
X-1349743Y-1249786D01*
X-1350236Y-1249857D01*
X-1350733Y-1249883D01*
X-1402681Y-1249883D01*
X-1402681Y-1264732D01*
X-1350733Y-1264732D01*
X-1350236Y-1264757D01*
X-1349743Y-1264828D01*
X-1349258Y-1264950D01*
X-1348790Y-1265118D01*
X-1348338Y-1265331D01*
X-1347911Y-1265588D01*
X-1347510Y-1265885D01*
X-1347142Y-1266220D01*
X-1346807Y-1266588D01*
X-1346509Y-1266990D01*
X-1346253Y-1267416D01*
X-1346039Y-1267868D01*
X-1345872Y-1268336D01*
X-1345750Y-1268821D01*
X-1345679Y-1269314D01*
X-1345653Y-1269812D01*
X-1345653Y-1309827D01*
X-1345679Y-1310325D01*
X-1345750Y-1310817D01*
X-1345872Y-1311302D01*
X-1346039Y-1311770D01*
X-1346253Y-1312222D01*
X-1346509Y-1312649D01*
X-1346807Y-1313050D01*
X-1347142Y-1313418D01*
X-1347510Y-1313754D01*
X-1347911Y-1314051D01*
X-1348338Y-1314307D01*
X-1348790Y-1314521D01*
X-1349258Y-1314688D01*
X-1349743Y-1314810D01*
X-1350236Y-1314881D01*
X-1350733Y-1314907D01*
X-1402681Y-1314907D01*
X-1402681Y-1329639D01*
X-1350733Y-1329639D01*
X-1350236Y-1329664D01*
X-1349743Y-1329735D01*
X-1349258Y-1329857D01*
X-1348790Y-1330025D01*
X-1348338Y-1330238D01*
X-1347911Y-1330495D01*
X-1347510Y-1330792D01*
X-1347142Y-1331127D01*
X-1346807Y-1331495D01*
X-1346509Y-1331897D01*
X-1346253Y-1332323D01*
X-1346039Y-1332776D01*
X-1345872Y-1333243D01*
X-1345750Y-1333728D01*
X-1345679Y-1334221D01*
X-1345653Y-1334719D01*
X-1345653Y-1374899D01*
X-1345679Y-1375397D01*
X-1345750Y-1375890D01*
X-1345872Y-1376375D01*
X-1346039Y-1376842D01*
X-1346253Y-1377294D01*
X-1346509Y-1377721D01*
X-1346807Y-1378122D01*
X-1347142Y-1378491D01*
X-1347510Y-1378826D01*
X-1347911Y-1379123D01*
X-1348338Y-1379380D01*
X-1348790Y-1379593D01*
X-1349258Y-1379761D01*
X-1349743Y-1379882D01*
X-1350236Y-1379954D01*
X-1350733Y-1379979D01*
G37*
G01*
X-1695729Y-1159802D03*
G01*
X-1695729Y-1224800D03*
G01*
X-1695729Y-1289799D03*
G01*
X-1695729Y-1354797D03*
G36*
X-1525816Y-1799079D02*
G01*
X-1526313Y-1799054D01*
X-1526806Y-1798982D01*
X-1527291Y-1798861D01*
X-1527759Y-1798693D01*
X-1528211Y-1798480D01*
X-1528638Y-1798223D01*
X-1529039Y-1797926D01*
X-1529407Y-1797591D01*
X-1529742Y-1797222D01*
X-1530040Y-1796821D01*
X-1530296Y-1796394D01*
X-1530510Y-1795942D01*
X-1530677Y-1795475D01*
X-1530799Y-1794990D01*
X-1530870Y-1794497D01*
X-1530896Y-1793999D01*
X-1530896Y-1753920D01*
X-1530870Y-1753422D01*
X-1530799Y-1752930D01*
X-1530677Y-1752445D01*
X-1530510Y-1751977D01*
X-1530296Y-1751525D01*
X-1530040Y-1751098D01*
X-1529742Y-1750697D01*
X-1529407Y-1750329D01*
X-1529039Y-1749993D01*
X-1528638Y-1749696D01*
X-1528211Y-1749440D01*
X-1527759Y-1749226D01*
X-1527291Y-1749059D01*
X-1526806Y-1748937D01*
X-1526313Y-1748866D01*
X-1525816Y-1748840D01*
X-1473868Y-1748840D01*
X-1473868Y-1734108D01*
X-1525816Y-1734108D01*
X-1526313Y-1734083D01*
X-1526806Y-1734012D01*
X-1527291Y-1733890D01*
X-1527759Y-1733722D01*
X-1528211Y-1733509D01*
X-1528638Y-1733252D01*
X-1529039Y-1732955D01*
X-1529407Y-1732620D01*
X-1529742Y-1732252D01*
X-1530040Y-1731850D01*
X-1530296Y-1731424D01*
X-1530510Y-1730971D01*
X-1530677Y-1730504D01*
X-1530799Y-1730019D01*
X-1530870Y-1729526D01*
X-1530896Y-1729028D01*
X-1530896Y-1688896D01*
X-1530870Y-1688398D01*
X-1530799Y-1687906D01*
X-1530677Y-1687421D01*
X-1530510Y-1686953D01*
X-1530296Y-1686501D01*
X-1530040Y-1686074D01*
X-1529742Y-1685673D01*
X-1529407Y-1685305D01*
X-1529039Y-1684969D01*
X-1528638Y-1684672D01*
X-1528211Y-1684416D01*
X-1527759Y-1684202D01*
X-1527291Y-1684035D01*
X-1526806Y-1683913D01*
X-1526313Y-1683842D01*
X-1525816Y-1683816D01*
X-1473868Y-1683816D01*
X-1473868Y-1668967D01*
X-1525816Y-1668967D01*
X-1526313Y-1668942D01*
X-1526806Y-1668871D01*
X-1527291Y-1668749D01*
X-1527759Y-1668581D01*
X-1528211Y-1668368D01*
X-1528638Y-1668111D01*
X-1529039Y-1667814D01*
X-1529407Y-1667479D01*
X-1529742Y-1667111D01*
X-1530040Y-1666709D01*
X-1530296Y-1666283D01*
X-1530510Y-1665831D01*
X-1530677Y-1665363D01*
X-1530799Y-1664878D01*
X-1530870Y-1664385D01*
X-1530896Y-1663887D01*
X-1530896Y-1623872D01*
X-1530870Y-1623374D01*
X-1530799Y-1622882D01*
X-1530677Y-1622397D01*
X-1530510Y-1621929D01*
X-1530296Y-1621477D01*
X-1530040Y-1621050D01*
X-1529742Y-1620649D01*
X-1529407Y-1620281D01*
X-1529039Y-1619945D01*
X-1528638Y-1619648D01*
X-1528211Y-1619392D01*
X-1527759Y-1619178D01*
X-1527291Y-1619011D01*
X-1526806Y-1618889D01*
X-1526313Y-1618818D01*
X-1525816Y-1618792D01*
X-1473868Y-1618792D01*
X-1473868Y-1604060D01*
X-1525816Y-1604060D01*
X-1526313Y-1604035D01*
X-1526806Y-1603964D01*
X-1527291Y-1603842D01*
X-1527759Y-1603674D01*
X-1528211Y-1603461D01*
X-1528638Y-1603204D01*
X-1529039Y-1602907D01*
X-1529407Y-1602572D01*
X-1529742Y-1602204D01*
X-1530040Y-1601802D01*
X-1530296Y-1601376D01*
X-1530510Y-1600923D01*
X-1530677Y-1600456D01*
X-1530799Y-1599971D01*
X-1530870Y-1599478D01*
X-1530896Y-1598980D01*
X-1530896Y-1558800D01*
X-1530870Y-1558302D01*
X-1530799Y-1557809D01*
X-1530677Y-1557324D01*
X-1530510Y-1556857D01*
X-1530296Y-1556405D01*
X-1530040Y-1555978D01*
X-1529742Y-1555577D01*
X-1529407Y-1555208D01*
X-1529039Y-1554873D01*
X-1528638Y-1554576D01*
X-1528211Y-1554319D01*
X-1527759Y-1554106D01*
X-1527291Y-1553938D01*
X-1526806Y-1553817D01*
X-1526313Y-1553745D01*
X-1525816Y-1553720D01*
X-1276002Y-1553720D01*
X-1275504Y-1553745D01*
X-1275011Y-1553817D01*
X-1274526Y-1553938D01*
X-1274058Y-1554106D01*
X-1273606Y-1554319D01*
X-1273180Y-1554576D01*
X-1272778Y-1554873D01*
X-1272410Y-1555208D01*
X-1272075Y-1555577D01*
X-1271777Y-1555978D01*
X-1271521Y-1556405D01*
X-1271308Y-1556857D01*
X-1271140Y-1557324D01*
X-1271018Y-1557809D01*
X-1270947Y-1558302D01*
X-1270922Y-1558800D01*
X-1270922Y-1793999D01*
X-1270947Y-1794497D01*
X-1271018Y-1794990D01*
X-1271140Y-1795475D01*
X-1271308Y-1795942D01*
X-1271521Y-1796394D01*
X-1271777Y-1796821D01*
X-1272075Y-1797222D01*
X-1272410Y-1797591D01*
X-1272778Y-1797926D01*
X-1273180Y-1798223D01*
X-1273606Y-1798480D01*
X-1274058Y-1798693D01*
X-1274526Y-1798861D01*
X-1275011Y-1798982D01*
X-1275504Y-1799054D01*
X-1276002Y-1799079D01*
G37*
G01*
X-1180820Y-1773897D03*
G01*
X-1180820Y-1708899D03*
G01*
X-1180820Y-1643900D03*
G01*
X-1180820Y-1578902D03*
D14*
G01*
X204501Y-30445D03*
G01*
X303495Y68548D03*
G01*
X-17748Y439454D03*
G01*
X81245Y538448D03*
D17*
G01*
X-831700Y285750D03*
G01*
X-971699Y285750D03*
G01*
X-1003449Y-749300D03*
G01*
X-863450Y-749300D03*
G01*
X-857100Y-1187450D03*
G01*
X-997099Y-1187450D03*
D18*
G01*
X-2018045Y-3022234D03*
G01*
X-2518044Y-3022234D03*
D19*
G01*
X718851Y-636301D03*
G01*
X817845Y-735295D03*
D17*
G01*
X155455Y231505D03*
G01*
X15455Y231505D03*
D20*
G01*
X149959Y-1339850D03*
G01*
X319958Y-1339850D03*
D21*
G01*
X182764Y-492392D03*
D22*
G01*
X132293Y-194430D03*
G01*
X96937Y-229786D03*
G01*
X61581Y-265141D03*
G01*
X26225Y-300495D03*
G01*
X-9130Y-335855D03*
G01*
X-44485Y-371209D03*
G01*
X-79841Y-406565D03*
G01*
X-115196Y-441920D03*
D23*
G01*
X-115197Y-542864D03*
G01*
X-79842Y-578219D03*
G01*
X-44486Y-613576D03*
G01*
X-9132Y-648931D03*
G01*
X26226Y-684287D03*
G01*
X61581Y-719642D03*
G01*
X96936Y-754998D03*
G01*
X132292Y-790354D03*
D22*
G01*
X233235Y-790355D03*
G01*
X268591Y-754999D03*
G01*
X303947Y-719644D03*
G01*
X339303Y-684289D03*
G01*
X374658Y-648930D03*
G01*
X410014Y-613576D03*
G01*
X445369Y-578220D03*
G01*
X480725Y-542865D03*
D23*
G01*
X480726Y-441921D03*
G01*
X445371Y-406566D03*
G01*
X410015Y-371209D03*
G01*
X374661Y-335854D03*
G01*
X339302Y-300498D03*
G01*
X303947Y-265142D03*
G01*
X268592Y-229787D03*
G01*
X233236Y-194431D03*
D10*
G01*
X1633980Y1095105D03*
G01*
X1483330Y1095105D03*
G01*
X1633980Y764905D03*
G01*
X1483330Y764905D03*
G01*
X1633980Y434705D03*
G01*
X1483330Y434705D03*
D24*
G01*
X-2222489Y447050D03*
G01*
X-2095489Y447050D03*
G01*
X-1968489Y447050D03*
G01*
X-1841489Y447050D03*
G01*
X-2222489Y988070D03*
G01*
X-2095489Y988070D03*
G01*
X-1968489Y988070D03*
G01*
X-1841489Y988070D03*
G01*
X-1835139Y-1501129D03*
G01*
X-1962139Y-1501129D03*
G01*
X-2089139Y-1501129D03*
G01*
X-2216139Y-1501129D03*
G01*
X-1835139Y-2042149D03*
G01*
X-1962139Y-2042149D03*
G01*
X-2089139Y-2042149D03*
G01*
X-2216139Y-2042149D03*
D25*
G01*
X-2451100Y965349D03*
G01*
X-2451100Y825350D03*
G01*
X-1644650Y-2171849D03*
G01*
X-1644650Y-2031850D03*
G01*
X-1670050Y1016149D03*
G01*
X-1670050Y876150D03*
D17*
G01*
X-2114400Y-2292350D03*
G01*
X-2254399Y-2292350D03*
D26*
G01*
X-2505344Y-2342685D03*
G01*
X-2505344Y-2172685D03*
D18*
G01*
X-2558938Y-1332804D03*
D27*
G01*
X-2558938Y-1174003D03*
G01*
X-2558938Y-1491604D03*
G01*
X-2400137Y-1332804D03*
G01*
X-2717739Y-1332804D03*
G01*
X-2446644Y-1220510D03*
G01*
X-2671231Y-1220510D03*
G01*
X-2671231Y-1445097D03*
G01*
X-2446644Y-1445097D03*
D18*
G01*
X-2558938Y-632805D03*
D27*
G01*
X-2558938Y-474004D03*
G01*
X-2558938Y-791606D03*
G01*
X-2400137Y-632805D03*
G01*
X-2717739Y-632805D03*
G01*
X-2446644Y-520512D03*
G01*
X-2671231Y-520512D03*
G01*
X-2671231Y-745098D03*
G01*
X-2446644Y-745098D03*
D18*
G01*
X-2558938Y67193D03*
D27*
G01*
X-2558938Y225993D03*
G01*
X-2558938Y-91607D03*
G01*
X-2400137Y67193D03*
G01*
X-2717739Y67193D03*
G01*
X-2446644Y179486D03*
G01*
X-2671231Y179486D03*
G01*
X-2671231Y-45100D03*
G01*
X-2446644Y-45100D03*
D10*
G01*
X-2455419Y1374505D03*
G01*
X-2606069Y1374505D03*
G01*
X-2112519Y1374505D03*
G01*
X-2263169Y1374505D03*
D12*
G01*
X-2683144Y-2320319D03*
G01*
X-2683144Y-2169669D03*
D28*
G01*
X250543Y1615795D03*
D29*
G01*
X504555Y1615805D03*
G01*
X758555Y1615805D03*
G01*
X1012555Y1615805D03*
G01*
X1266555Y1615805D03*
G01*
X1520555Y1615805D03*
G01*
X1774555Y1615805D03*
G01*
X2028555Y1615805D03*
D30*
G01*
X-130444Y1615805D03*
G01*
X-384444Y1615805D03*
G01*
X-638444Y1615805D03*
G01*
X-892444Y1615805D03*
G01*
X-1146444Y1615805D03*
G01*
X-1400444Y1615805D03*
G01*
X-1654444Y1615805D03*
G01*
X-1908444Y1615805D03*
G01*
X-2162444Y1615805D03*
D28*
G01*
X-2416444Y1615805D03*
D29*
G01*
X2028555Y-3184794D03*
G01*
X1774555Y-3184794D03*
G01*
X1520555Y-3184794D03*
G01*
X1266555Y-3184794D03*
G01*
X1012555Y-3184794D03*
D28*
G01*
X758555Y-3184794D03*
G01*
X-1527456Y-3184804D03*
D29*
G01*
X-1273444Y-3184794D03*
G01*
X-1019444Y-3184794D03*
G01*
X-765444Y-3184794D03*
G01*
X-511444Y-3184794D03*
G01*
X-257444Y-3184794D03*
G01*
X-3444Y-3184794D03*
G01*
X250555Y-3184794D03*
D31*
G01*
X1965055Y79105D03*
G01*
X1965055Y333105D03*
G01*
X1965055Y587105D03*
G01*
X1965055Y841105D03*
D32*
G01*
X1965055Y1095105D03*
D33*
G01*
X2330155Y-2738795D03*
G01*
X2330155Y61198D03*
D34*
G01*
X-507989Y171460D03*
G01*
X-526938Y12811D03*
G01*
X-505856Y-408320D03*
G01*
X-506872Y-1041288D03*
G01*
X-506872Y-1434988D03*
G01*
X-509412Y-1579006D03*
M02*
